<svg xmlns="http://www.w3.org/2000/svg" xmlns:xlink="http://www.w3.org/1999/xlink" width="141.954" height="119.9" viewBox="0 0 141.954 119.9"><defs><style>.a{fill:url(#a);}.b{fill:url(#b);}.c{fill:url(#c);}.d{fill:url(#d);}.e{fill:#eef0f7;}.f{fill:#f0f0f0;}.g{fill:#f0c141;}.h{fill:#8f8f8f;}.i{fill:#fff;}.j{fill:url(#e);}.k{fill:#ccc;}.l{fill:#f5f7ff;}.m{fill:#e6e6e6;}.n{fill:#78c2ff;}.o{fill:#f3f3f3;}.p{fill:url(#f);}.q{fill:url(#g);}.r{fill:url(#h);}.s{fill:url(#i);}.t{fill:url(#j);}.u{fill:url(#k);}.v{fill:#eea886;}.w{fill:#db9c7c;}.x{fill:#323657;}.y{fill:#4da8f2;}.z{fill:#efaa88;}.aa{fill:#424773;}.ab{fill:#292c47;}.ac{fill:#d88a51;}.ad{fill:#e2d2ca;}.ae{fill:#dfe1e8;}.af{fill:#de9673;}.ag{fill:#2f4563;}.ah{fill:#1e2d40;}.ai{fill:#23344a;}.aj{fill:#41608a;}.ak{fill:#eea987;}.al{fill:#eb4747;}.am{fill:#464240;}.an{fill:#a77860;}.ao{fill:#6e6760;}.ap{fill:#5c544d;}.aq{fill:#3c4145;}.ar{fill:#33373b;}.as{fill:#fccca2;}.at{fill:#d6d6d6;}.au{fill:#c98462;}.av{fill:#de9d7d;}.aw{fill:#1d3b54;}.ax{fill:#434343;}.ay{fill:#cf8c6c;}.az{fill:#e0e0e0;}.ba{fill:#b8b8b8;}.bb{fill:#d9d9d9;}.bc{fill:url(#l);}</style><linearGradient id="a" x1="-29.592" y1="-0.51" x2="-28.556" y2="-0.51" gradientUnits="objectBoundingBox"><stop offset="0" stop-color="#40d5e6"/><stop offset="1" stop-color="#57f"/></linearGradient><linearGradient id="b" x1="-18.93" y1="12.479" x2="-18.93" y2="11.329" xlink:href="#a"/><linearGradient id="c" x1="-63.937" y1="-0.505" x2="-62.89" y2="-0.505" xlink:href="#a"/><linearGradient id="d" x1="-23.327" y1="10.753" x2="-23.327" y2="9.615" xlink:href="#a"/><linearGradient id="e" x1="0" y1="0.5" x2="1" y2="0.5" xlink:href="#a"/><linearGradient id="f" x1="-19.285" y1="0.5" x2="-18.285" y2="0.5" xlink:href="#a"/><linearGradient id="g" x1="-19.809" y1="0.5" x2="-18.809" y2="0.5" xlink:href="#a"/><linearGradient id="h" x1="-26.497" y1="0.5" x2="-25.497" y2="0.5" xlink:href="#a"/><linearGradient id="i" x1="-23.231" y1="0.5" x2="-22.231" y2="0.5" xlink:href="#a"/><linearGradient id="j" x1="-0.038" y1="0.5" x2="0.962" y2="0.5" gradientUnits="objectBoundingBox"><stop offset="0" stop-color="#ff9340"/><stop offset="1" stop-color="#ffce45"/></linearGradient><linearGradient id="k" x1="-0.038" y1="0.5" x2="0.962" y2="0.5" gradientUnits="objectBoundingBox"><stop offset="0" stop-color="#c97332"/><stop offset="1" stop-color="#ffce45"/></linearGradient><linearGradient id="l" x1="1.11" y1="0.5" x2="0.09" y2="0.5" xlink:href="#a"/></defs><g transform="translate(9.326 37.974)"><path class="a" d="M231.633,736.145c1.745,3.808,2.725,7.411,1.44,9.018a2.1,2.1,0,0,1-.249.261c-.99.872-2.936.891-6.222-.406-8.746-3.455-9.161-9.417-10.929-15.238-1.744-5.749-7.835-4.778-7.99-4.752C221.876,720.084,228.672,729.69,231.633,736.145Z" transform="translate(-207.683 -723.664)"/><g transform="translate(12.436 5.307)"><path class="b" d="M399.283,816.086a2.1,2.1,0,0,1-.249.261c-1.643-.99-4.788-3.088-6.271-5.443a34.97,34.97,0,0,1-1.911-3.684c-1.177-2.5-2.4-5.088-4.523-7.071l.237-.256c2.176,2.031,3.408,4.647,4.6,7.179a34.1,34.1,0,0,0,1.891,3.646C394.5,813.016,397.682,815.122,399.283,816.086Z" transform="translate(-386.329 -799.893)"/></g></g><g transform="translate(21.275 29.849)"><path class="c" d="M389.815,629.105c-.1.253-.169.4-.177.413-.027-.14-.053-.279-.08-.413-1.167-5.978-2.727-6.6-7.4-11.832-4.784-5.348-2.033-10.331-2.033-10.331C396.148,611.574,390.9,626.433,389.815,629.105Z" transform="translate(-379.333 -606.943)"/><g transform="translate(4.683 6.244)"><path class="d" d="M452.41,712.554c-.1.253-.169.4-.177.413-.027-.14-.053-.279-.08-.413.519-5.168-2.6-11.232-3.578-12.32a11.413,11.413,0,0,1-1.874-3.26c-.04-.1-.077-.189-.089-.211l.226-.128c.02.035.046.1.1.241a11.148,11.148,0,0,0,1.827,3.182C450.01,701.439,452.886,707.532,452.41,712.554Z" transform="translate(-446.612 -696.635)"/></g></g><g transform="translate(116.876 18.216)"><g transform="translate(3.72 5.132)"><path class="e" d="M1808.146,517.648l-1.975-3.234a.563.563,0,0,1,.96-.587l1.4,2.287,3.713-2.2a.563.563,0,1,1,.573.968Z" transform="translate(-1806.088 -513.559)"/></g><g transform="translate(0 0)"><path class="e" d="M1759.759,454.047a7.1,7.1,0,1,1,7.1-7.1A7.112,7.112,0,0,1,1759.759,454.047Zm0-13.192a6.089,6.089,0,1,0,6.089,6.089A6.1,6.1,0,0,0,1759.759,440.855Z" transform="translate(-1752.655 -439.84)"/></g></g><g transform="translate(97.084 11.291)"><g transform="translate(2.299 3.171)"><path class="f" d="M1502.632,388.446l-1.221-2a.348.348,0,1,1,.594-.363l.863,1.413,2.295-1.358a.348.348,0,1,1,.354.6Z" transform="translate(-1501.36 -385.918)"/></g><path class="f" d="M1472.73,349.141a4.39,4.39,0,1,1,4.39-4.39A4.395,4.395,0,0,1,1472.73,349.141Zm0-8.153a3.763,3.763,0,1,0,3.763,3.763A3.767,3.767,0,0,0,1472.73,340.988Z" transform="translate(-1468.34 -340.361)"/></g><g transform="translate(72.604 0.871)"><g transform="translate(3.526 4.865)"><path class="f" d="M1169.281,264.439l-1.873-3.066a.533.533,0,0,1,.91-.556l1.324,2.168,3.52-2.083a.533.533,0,0,1,.543.918Z" transform="translate(-1167.33 -260.562)"/></g><g transform="translate(0 0)"><path class="f" d="M1123.411,204.147a6.734,6.734,0,1,1,6.734-6.734A6.742,6.742,0,0,1,1123.411,204.147Zm0-12.506a5.772,5.772,0,1,0,5.772,5.772A5.778,5.778,0,0,0,1123.411,191.641Z" transform="translate(-1116.677 -190.679)"/></g></g><g transform="translate(54.656 11.186)"><g transform="translate(2.33 3.215)"><path class="g" d="M893.613,387.583l-1.237-2.026a.352.352,0,0,1,.6-.367l.875,1.432,2.326-1.377a.352.352,0,1,1,.359.607Z" transform="translate(-892.324 -385.021)"/></g><g transform="translate(0 0)"><path class="g" d="M863.3,347.743a4.45,4.45,0,1,1,4.45-4.45A4.455,4.455,0,0,1,863.3,347.743Zm0-8.264a3.814,3.814,0,1,0,3.814,3.814A3.818,3.818,0,0,0,863.3,339.48Z" transform="translate(-858.854 -338.844)"/></g></g><g transform="translate(36.362 0)"><g transform="translate(2.917 4.024)"><path class="g" d="M639.57,239.174l-1.549-2.536a.441.441,0,1,1,.753-.46l1.1,1.793,2.912-1.723a.441.441,0,1,1,.449.759Z" transform="translate(-637.957 -235.967)"/></g><path class="g" d="M601.628,189.3a5.57,5.57,0,1,1,5.57-5.57A5.577,5.577,0,0,1,601.628,189.3Zm0-10.345a4.774,4.774,0,1,0,4.775,4.774A4.78,4.78,0,0,0,601.628,178.956Z" transform="translate(-596.058 -178.16)"/></g><g transform="translate(16.139 11.821)"><g transform="translate(3.234 4.461)"><path class="g" d="M353.795,415.618l-1.717-2.811a.489.489,0,1,1,.835-.51l1.214,1.988,3.228-1.911a.489.489,0,1,1,.5.842Z" transform="translate(-352.006 -412.062)"/></g><g transform="translate(0 0)"><path class="g" d="M311.729,360.326a6.175,6.175,0,1,1,6.175-6.175A6.182,6.182,0,0,1,311.729,360.326Zm0-11.469a5.293,5.293,0,1,0,5.293,5.293A5.3,5.3,0,0,0,311.729,348.857Z" transform="translate(-305.554 -347.975)"/></g></g><g transform="translate(112.517 3.72)"><g transform="translate(1.839 2.537)"><path class="g" d="M1717.464,270.057l-.976-1.6a.278.278,0,1,1,.475-.29l.691,1.13,1.836-1.086a.278.278,0,0,1,.283.479Z" transform="translate(-1716.447 -268.036)"/></g><path class="g" d="M1693.545,238.617a3.512,3.512,0,1,1,3.511-3.512A3.516,3.516,0,0,1,1693.545,238.617Zm0-6.521a3.01,3.01,0,1,0,3.01,3.01A3.013,3.013,0,0,0,1693.545,232.1Z" transform="translate(-1690.033 -231.594)"/></g><g transform="translate(66.233 76.293)"><rect class="h" width="9.685" height="29.417" transform="translate(9.685 29.417) rotate(180)"/></g><g transform="translate(29.26 31.466)"><rect class="f" width="83.631" height="58.998" rx="29.499" transform="translate(83.631 58.998) rotate(180)"/></g><g transform="translate(32.535 25.186)"><rect class="i" width="77.081" height="56.031" transform="translate(77.081 56.031) rotate(180)"/></g><g transform="translate(32.535 25.186)"><rect class="j" width="77.081" height="6.768" transform="translate(77.081 6.768) rotate(180)"/></g><g transform="translate(100.235 82.751)"><path class="k" d="M1513.612,1369.588a3.214,3.214,0,1,0,3.172-2.7A2.964,2.964,0,0,0,1513.612,1369.588Z" transform="translate(-1513.612 -1366.89)"/></g><rect class="k" width="43.572" height="2.221" transform="translate(49.289 104.599)"/><path class="l" d="M1.279,0H9.715a1.279,1.279,0,0,1,1.279,1.279v0A1.279,1.279,0,0,1,9.715,2.557H1.279A1.279,1.279,0,0,1,0,1.279v0A1.279,1.279,0,0,1,1.279,0Z" transform="translate(35.754 27.291)"/><rect class="m" width="40.356" height="1.387" transform="translate(38.182 55.534)"/><rect class="m" width="29.932" height="1.387" transform="translate(38.182 58.032)"/><rect class="m" width="18.979" height="1.387" transform="translate(38.182 63.461)"/><rect class="m" width="34.098" height="1.387" transform="translate(38.182 65.96)"/><rect class="m" width="31.942" height="1.387" transform="translate(38.182 71.929)"/><rect class="m" width="39.005" height="1.387" transform="translate(38.182 74.428)"/><rect class="n" width="1.014" height="3.886" transform="translate(36.213 55.534)"/><rect class="n" width="1.014" height="3.886" transform="translate(36.213 63.461)"/><rect class="n" width="1.014" height="3.886" transform="translate(36.213 71.929)"/><g transform="translate(87.546 72.006)"><path class="n" d="M2.779,0h0A2.779,2.779,0,0,1,5.558,2.779v0A2.779,2.779,0,0,1,2.779,5.558h0A2.779,2.779,0,0,1,0,2.779v0A2.779,2.779,0,0,1,2.779,0Z"/><g transform="translate(1.103 1.555)"><path class="o" d="M1348.676,1237.33l-1.405-1.225a.277.277,0,1,1,.364-.417l.994.866,1.417-1.58a.277.277,0,0,1,.412.37Z" transform="translate(-1347.176 -1234.881)"/></g></g><g transform="translate(87.544 63.535)"><path class="n" d="M1335.591,1096.422h-3.03a1.268,1.268,0,0,1-1.267-1.267v-3.03a1.268,1.268,0,0,1,1.267-1.267h3.03a1.268,1.268,0,0,1,1.267,1.267v3.03A1.268,1.268,0,0,1,1335.591,1096.422Zm-3.03-5.211a.915.915,0,0,0-.914.914v3.03a.915.915,0,0,0,.914.914h3.03a.915.915,0,0,0,.914-.914v-3.03a.915.915,0,0,0-.914-.914Z" transform="translate(-1331.294 -1090.858)"/></g><g transform="translate(95.912 72.004)"><g transform="translate(0 0)"><path class="n" d="M1455.809,1218.07h-3.03a1.268,1.268,0,0,1-1.267-1.267v-3.03a1.268,1.268,0,0,1,1.267-1.267h3.03a1.268,1.268,0,0,1,1.267,1.267v3.03A1.268,1.268,0,0,1,1455.809,1218.07Zm-3.03-5.211a.915.915,0,0,0-.914.914v3.03a.915.915,0,0,0,.914.914h3.03a.915.915,0,0,0,.914-.914v-3.03a.915.915,0,0,0-.914-.914Z" transform="translate(-1451.512 -1212.506)"/></g></g><g transform="translate(95.915 63.538)"><rect class="n" width="5.558" height="5.558" rx="2.779"/><g transform="translate(1.103 1.555)"><path class="o" d="M1468.9,1115.683l-1.405-1.225a.277.277,0,1,1,.364-.417l.994.866,1.417-1.581a.277.277,0,1,1,.412.37Z" transform="translate(-1467.398 -1113.235)"/></g></g><g transform="translate(95.912 55.067)"><path class="n" d="M1455.809,974.777h-3.03a1.268,1.268,0,0,1-1.267-1.267v-3.03a1.268,1.268,0,0,1,1.267-1.267h3.03a1.268,1.268,0,0,1,1.267,1.267v3.03A1.268,1.268,0,0,1,1455.809,974.777Zm-3.03-5.211a.915.915,0,0,0-.914.914v3.03a.915.915,0,0,0,.914.914h3.03a.915.915,0,0,0,.914-.914v-3.03a.915.915,0,0,0-.914-.914Z" transform="translate(-1451.512 -969.213)"/></g><g transform="translate(87.546 55.07)"><g transform="translate(0 0)"><rect class="n" width="5.558" height="5.558" rx="2.779"/></g><g transform="translate(1.103 1.555)"><path class="o" d="M1348.676,994.037l-1.405-1.225a.277.277,0,0,1,.364-.417l.994.866,1.417-1.581a.277.277,0,0,1,.412.37Z" transform="translate(-1347.176 -991.589)"/></g></g><g transform="translate(0 62.631)"><path class="p" d="M227.047,1077.937c-1.312-.628-2.618,3.55-2.618,3.55-2.23,2.947-5.347-.974-5.042,3.432.533,7.709-8.874,2.424-4.534,10.473s-3.832,4.551-1.135,11.041-.8,14.23,3.259,11.049c0,0,3.573-7.835,7.258-10.26s-2.208-5.3-1.055-8.593c1.675-4.782,5.709-4.595,2.8-9.734S231.508,1080.071,227.047,1077.937Z" transform="translate(-203.451 -1077.873)"/><g transform="translate(12.073 8.173)"><path class="i" d="M247.314,1223.766c1.759-1.237,3.818-9.858,3.94-14.992a7.232,7.232,0,0,1,1.526-4.693,3.966,3.966,0,0,0,.892-3.555c-.63-3.5,1.027-5.014,1.044-5.029l-.192-.219c-.074.065-1.8,1.624-1.138,5.3a3.688,3.688,0,0,1-.843,3.335,7.568,7.568,0,0,0-1.58,4.854c-.132,5.51-2.236,13.65-3.817,14.761Z" transform="translate(-247.147 -1195.279)"/></g><g transform="translate(0 20.031)"><path class="q" d="M82.263,1379.739c-.166-.376-.338-.766-.532-1.176a4.938,4.938,0,0,0-3.37-3.049c-.36-.141-.769-.3-1.217-.5-2.112-.949-1.7-2.348-1.343-3.583.05-.173.1-.345.144-.515.186-.726-.171-1.09-.711-1.641a6.164,6.164,0,0,1-1.287-1.725c-.422-.881-.207-1.354.048-1.6.536-.508,1.772-.414,2.938.222h0a4.247,4.247,0,0,1,.977.841,4.839,4.839,0,0,0,4.01,1.759c1.335.006,2.066.19,2.445.616.43.483.349,1.206.237,2.206-.039.346-.083.738-.109,1.162a6.779,6.779,0,0,0,1.348,4.37c.892,1.062,1.99,3.265,1.516,4.621a1.622,1.622,0,0,1-1.321,1.063,3.744,3.744,0,0,1-.744.081C83.655,1382.892,83.055,1381.535,82.263,1379.739Zm-5.469-13.31c-1.042-.569-2.159-.683-2.6-.267-.334.317-.177.859.014,1.258a5.832,5.832,0,0,0,1.232,1.647c.565.577,1.012,1.033.786,1.917-.044.173-.1.349-.147.525-.359,1.229-.7,2.39,1.183,3.236.442.2.847.357,1.2.5a5.221,5.221,0,0,1,3.526,3.2c.2.414.369.805.536,1.183.91,2.062,1.459,3.307,3.449,2.905a1.35,1.35,0,0,0,1.1-.874c.418-1.2-.582-3.287-1.465-4.338a6.949,6.949,0,0,1-1.415-4.575c.027-.431.072-.827.111-1.176.1-.926.179-1.595-.165-1.98-.314-.353-1-.513-2.229-.519a5.089,5.089,0,0,1-4.219-1.849,3.98,3.98,0,0,0-.906-.787Z" transform="translate(-73.709 -1365.625)"/></g><g transform="translate(2.256 22.354)"><path class="r" d="M116.16,1415.62l.29-.015c-.014-.273-.381-6.706-2.964-8.589a10.338,10.338,0,0,1-4.153-5.776c-.5-1.756-3.053-2.225-3.162-2.244l-.051.286c.025,0,2.481.457,2.933,2.038a10.615,10.615,0,0,0,4.261,5.931C115.787,1409.053,116.156,1415.554,116.16,1415.62Z" transform="translate(-106.121 -1398.996)"/></g><path class="s" d="M137.384,1171.075c1.836-.63,1.455,2.909,2.23,5.527s8.63,1.142,5.333,7.7,4.17,2.193,1.939,7.914-.194,11.84-2.618,10.284-1.362-8.761-3.883-9.617-2.933-1.855-.436-4.182-6.541-4.638-4.311-9.337S135.263,1171.8,137.384,1171.075Z" transform="translate(-130.995 -1164.518)"/><g transform="translate(7.312 14.764)"><path class="i" d="M183.588,1312.9c.231-.979,2.2-9.6.363-10.641-1.622-.918-1.582-4.49-1.329-7.863.224-2.986-3.61-4.381-3.774-4.439l-.1.274c.038.013,3.788,1.38,3.581,4.143-.26,3.464-.288,7.139,1.476,8.137,1.4.791.111,7.718-.5,10.321Z" transform="translate(-178.751 -1289.954)"/></g><path class="t" d="M199.38,1575.43l-2.621,9.945H190.9l-2.621-9.945Z" transform="translate(-180.304 -1540.794)"/><path class="u" d="M199.38,1575.43s-5.771,1.083-5.771,9.945H190.9l-2.621-9.945Z" transform="translate(-180.304 -1540.794)"/></g><g transform="translate(63.093 65.657)"><g transform="translate(0.015 24.773)"><path class="v" d="M982.157,1477.444a1.75,1.75,0,0,1,.227.6,2.878,2.878,0,0,0,.277.709,6.756,6.756,0,0,1,.337,1.182,5.459,5.459,0,0,0-.159.791c.027.171.125.51-.029.533s-.328-.255-.328-.255a.226.226,0,0,1-.116.218.381.381,0,0,1-.387.014s-.093.173-.21.2a.476.476,0,0,1-.385-.052.465.465,0,0,1-.292.094.383.383,0,0,1-.324-.2s-.289.058-.373-.076a1.3,1.3,0,0,1-.1-.4,4.666,4.666,0,0,1,.366-2.02,1.789,1.789,0,0,0-.1-1.569Z" transform="translate(-980.282 -1477.206)"/></g><g transform="translate(0 27.008)"><path class="w" d="M982.317,1510.77s.026-.99-.235-1.2-.29.146-.29.146.035-.353-.249-.4-.3.372-.3.372a.275.275,0,0,0-.346-.216c-.3.056-.228.4-.228.4s-.286-.341-.471-.013a1.458,1.458,0,0,0-.011,1.2s.088.15.373.076a.393.393,0,0,0,.616.108s.436.24.595-.144A.361.361,0,0,0,982.317,1510.77Z" transform="translate(-980.06 -1509.311)"/></g><path class="x" d="M986.179,1244.909s-1.694,5.647-2.267,7.73c-.18.653-.614,6.892-.691,7.143s-2.226.6-2.226.6.26-7.8.285-8.23,2.371-9.141,3.054-9.452c.511-.233.781-.04,1.426.438A1.508,1.508,0,0,1,986.179,1244.909Z" transform="translate(-980.931 -1234.155)"/><g transform="translate(21.771 0.306)"><rect class="y" width="4.635" height="0.344" transform="matrix(0.837, -0.548, 0.548, 0.837, 0, 2.539)"/></g><path class="z" d="M1319.048,1130.872a1.014,1.014,0,0,1-.1.307s-.127.151-.211.264a.937.937,0,0,0-.061.09,1.853,1.853,0,0,1-.32.5c-.185.187-.9.783-.9.783l-.616-.523-.64-.287a12.055,12.055,0,0,1,.51-1.752.641.641,0,0,1,.046-.053,2.352,2.352,0,0,1,.4-.276c.031-.026.361-.263.478-.233a.4.4,0,0,1,.3.247.947.947,0,0,1,.438.282.588.588,0,0,1,.381.354S1319.035,1130.688,1319.048,1130.872Z" transform="translate(-1292.797 -1129.107)"/><g transform="translate(1.844 49.172)"><path class="aa" d="M1008.582,1827.829s-.154,1.072-.174,1.233-1.718-.095-1.718-.095l-.138-1.276A10.063,10.063,0,0,1,1008.582,1827.829Z" transform="translate(-1006.553 -1827.691)"/></g><g transform="translate(1.579 50.334)"><path class="ab" d="M1004.878,1844.463a4.587,4.587,0,0,0,1.059.927c.521.282,1.339.393,1.646.685.222.21.809,1.116-1.353,1.1s-3.2.128-3.436-.219.335-2.563.335-2.563A4.577,4.577,0,0,0,1004.878,1844.463Z" transform="translate(-1002.739 -1844.39)"/></g><g transform="translate(14.016 49.172)"><path class="aa" d="M1183.432,1827.829s-.154,1.072-.174,1.233-1.718-.095-1.718-.095l-.138-1.276A10.064,10.064,0,0,1,1183.432,1827.829Z" transform="translate(-1181.403 -1827.691)"/></g><g transform="translate(13.751 50.334)"><path class="ab" d="M1179.729,1844.463a4.586,4.586,0,0,0,1.059.927c.521.282,2.436.513,2.744.8.222.21.592,1.057-2.45.978-2.161-.056-3.2.128-3.436-.219s.335-2.563.335-2.563A4.156,4.156,0,0,0,1179.729,1844.463Z" transform="translate(-1177.589 -1844.39)"/></g><g transform="translate(1.579 21.765)"><path class="ab" d="M1006.44,1433.983a9.9,9.9,0,0,0-1.477,4.828c.119,2.292-.579,4.8-.818,7.19-.267,2.67-1.361,8.99-1.4,10.418s.17,5.988.17,5.988l2.19.05s1.839-11.049,2.316-12.177,2.838-9.165,2.918-10.067S1006.44,1433.983,1006.44,1433.983Z" transform="translate(-1002.739 -1433.983)"/></g><g transform="translate(4.477 21.328)"><path class="ab" d="M1053.58,1428.486s1.2,6.283,1.362,7.686.265,6.79.344,7.667.742,11.449.953,12.778h-2.8s-2.149-7.7-2.149-11.35-1.66-7.925-2.732-10.33-3.525-2.462-4.184-6.924C1044.374,1428.013,1052.688,1427.071,1053.58,1428.486Z" transform="translate(-1044.374 -1427.705)"/></g><g transform="translate(6.603 0.247)"><path class="v" d="M1076.254,1125.073s2.142-.8,3.13.831.893,4.9-.187,5.3-2.7.191-3.255-.829a8.17,8.17,0,0,1-1.028-3.482A2.148,2.148,0,0,1,1076.254,1125.073Z" transform="translate(-1074.913 -1124.876)"/></g><g transform="translate(7.213 4.612)"><path class="v" d="M1087.121,1189.622a1.852,1.852,0,0,0,.058.863c.147.285-2.776.292-2.776.292a19.269,19.269,0,0,0-.687-2.86C1083.266,1186.608,1087.121,1189.622,1087.121,1189.622Z" transform="translate(-1083.679 -1187.588)"/></g><g transform="translate(6.425)"><path class="ac" d="M1073.178,1126.273s.2.333,1.025.2,1.828-1.225,2.172-1.345.347-.322.347-.322l.215.314.365.023s-.333-.98.169-1.38-.521-3.172-3.163-2.249c0,0-2.028.559-1.955,1.713A6.411,6.411,0,0,0,1073.178,1126.273Z" transform="translate(-1072.353 -1121.331)"/></g><g transform="translate(7.603 6.674)"><path class="ad" d="M1092.565,1218.006s-.009-.544-.256-.6a17.624,17.624,0,0,0-3.027-.171v.634S1089.866,1218.231,1092.565,1218.006Z" transform="translate(-1089.282 -1217.205)"/></g><g transform="translate(9.97 2.638)"><path class="v" d="M1124.047,1159.652c-.046-.193-.538-.747-.727-.154s.285,1.389.549,1.32S1124.164,1160.143,1124.047,1159.652Z" transform="translate(-1123.277 -1159.232)"/></g><g transform="translate(2.982 2.638)"><path class="x" d="M1034.894,1164.884c-1.7-.224-4.1-.824-4.1-.824l-3.283-.134a31.937,31.937,0,0,0-4.2,1.2,32.8,32.8,0,0,1-.422,3.379l.984,2.075s.568,4.111.686,5.94c.054.839-1.172,7.871-1.172,7.871a22.687,22.687,0,0,0,3.554.634c2.241.247,7.839-.089,7.874-.354s-1.084-9.854-1.134-10.351c-.076-.762.263-4.812.263-4.812.517-.4,5.059-2.51,6.3-3.608.332-.294,1.731-1.657,2.129-2.128a38.245,38.245,0,0,0,2.7-3.4c.16-.175-1.531-1.094-1.684-1.146-.134-.045-2.039,2.423-2.772,3.217a20.513,20.513,0,0,1-1.686,1.342A16.826,16.826,0,0,1,1034.894,1164.884Z" transform="translate(-1022.892 -1159.222)"/></g><g transform="translate(6.094 0.636)"><path class="ac" d="M1068.845,1130.461s-2.732.214-.084,4.307Z" transform="translate(-1067.606 -1130.461)"/></g><path class="ae" d="M1348.707,1125.289l.224-.342-.413.054Z" transform="translate(-1322.869 -1124.696)"/></g><g transform="translate(22.624 67.468)"><path class="af" d="M561.531,1402.075a6.794,6.794,0,0,1,1.7.287,6.727,6.727,0,0,0,2.932-.768.413.413,0,0,0,0-.273h-4.933Z" transform="translate(-549.917 -1383.643)"/><g transform="translate(2.597 12.328)"><path class="af" d="M439.057,1324.69s-.424,3.332,0,3.768c1.62,1.668,7.622,1.536,7.622,1.536l0,.678s-9.124,1.138-9.972-.632c-1.019-2.126-.623-5.594-.623-5.594Z" transform="translate(-436.007 -1324.446)"/></g><g transform="translate(1.373 46.038)"><path class="ag" d="M419.7,1810.338l.542-.618-.978-1.023-.826.579Z" transform="translate(-418.435 -1808.697)"/></g><g transform="translate(0.059 46.617)"><path class="ah" d="M400.862,1817.012a6.911,6.911,0,0,0,1.427.875c.311.034.457.172.42.646s.454,2.466.8,2.5,1.506.038,1.717.806-3.693.606-3.935-.023-1.923-3.68-1.724-3.926A2.393,2.393,0,0,1,400.862,1817.012Z" transform="translate(-399.547 -1817.012)"/></g><g transform="translate(1.965 22.109)"><path class="ai" d="M433.512,1465.619s7.3,12.709,4.334,15.338c-1.161,1.031-2.279,1.964-3.886,3.344a39.665,39.665,0,0,0-3.108,2.856l-.051.053c-.872.909-1.592,1.677-1.813,1.915l-.021.022-.025.026-.812.775-1.191-1.047a35.309,35.309,0,0,0,2.112-3.3,21.073,21.073,0,0,1,3.7-5.043c1.423-1.131,1.815-1.354,1.815-2.436,0-1.16-6.687-7.643-6.687-7.643s-.97-4.057,1.347-5.119A4.784,4.784,0,0,1,433.512,1465.619Z" transform="translate(-426.938 -1464.956)"/></g><path class="aj" d="M419.85,1844.777a3.616,3.616,0,0,1,.053-.959c.1-.374-1.51-.159-1.51-.159a13.952,13.952,0,0,0-.147,1.921C418.305,1845.937,419.85,1844.777,419.85,1844.777Z" transform="translate(-416.875 -1795.129)"/><g transform="translate(0.974 22.298)"><path class="ag" d="M415,1494.058l-2.17.391s-.156-2.769-.128-4.89c.03-2.28-.084-4.073.612-5.888a8.309,8.309,0,0,0,.56-3.5c.057-1.159-.556-7.127-.556-7.127a5.236,5.236,0,0,1,.975-4.557c1.672-1.837,6-.008,6-.008s-.9,8.153-3.064,13.2c-.612,1.427-.281,2.294-1.062,4.5A41.33,41.33,0,0,0,415,1494.058Z" transform="translate(-412.7 -1467.666)"/></g><g transform="translate(2.273 5.353)"><path class="ak" d="M434.244,1225.884a2.509,2.509,0,0,0-.257.7,5.969,5.969,0,0,0-.119.745,8.7,8.7,0,0,0-.044.948s-2.895-.63-2.42-1.305.2-2.721.2-2.721S434.619,1225.253,434.244,1225.884Z" transform="translate(-431.352 -1224.248)"/></g><g transform="translate(1.72 0.901)"><path class="v" d="M428.48,1160.8s.741.644.41,2.5a6.346,6.346,0,0,0,.39,1.734c.226.258-.607.353-.695.538a3.683,3.683,0,0,1-.834,1.577c-.581.523-3.456-1.054-3.6-1.945s-2.132-4.71,1.021-4.885S428.48,1160.8,428.48,1160.8Z" transform="translate(-423.406 -1160.287)"/></g><g transform="translate(1.514 8.198)"><path class="al" d="M427.712,1272.009c-.059.186.162,3.038.142,3.284a18.843,18.843,0,0,0,.375,4.133c.033.174.051.262.051.262a18.679,18.679,0,0,1-7.473,1.395c.016-.118.622-1.587.638-1.7.257-1.835.637-2.673.534-3.914h0a7.762,7.762,0,0,0-.6-2.329,10.656,10.656,0,0,1-.831-5.777,7.058,7.058,0,0,1,.6-2.25l2.641.284c.56.621,1.059.952,2.652,2.366C428.137,1269.269,428.433,1269.726,427.712,1272.009Z" transform="translate(-420.449 -1265.115)"/></g><g transform="translate(1.106 49.482)"><path class="ai" d="M414.757,1858.733s1.527-.434,1.573-.477.056-.135.266-.051.3.4.5.5,1.467.47,2.158.809c.25.123,1.305.526,1.458.862s.1.842-1.709.722-3.8.136-4.2-.062S414.653,1859.258,414.757,1858.733Z" transform="translate(-414.59 -1858.171)"/></g><g transform="translate(1.655)"><path class="am" d="M428.106,1150.594s.355-3.85-3.378-3.162-1.809,4.895-1.306,6.266c0,0-.061-2.13,1.736-2.2A4.91,4.91,0,0,0,428.106,1150.594Z" transform="translate(-422.479 -1147.349)"/></g><g transform="translate(3.128 3.409)"><path class="ak" d="M444.558,1196.521a.514.514,0,0,0-.907.413c.088.6.706,1.19.91.9A1.154,1.154,0,0,0,444.558,1196.521Z" transform="translate(-443.644 -1196.322)"/></g><g transform="translate(1.514 10.847)"><path class="ak" d="M423.062,1303.5s-.308,3.3.116,3.734c1.62,1.668,8.01,1.7,8.01,1.7l.305.959s-9.5.647-10.346-1.123c-1.019-2.126-.623-5.594-.623-5.594Z" transform="translate(-420.448 -1303.174)"/></g><path class="am" d="M401.425,1154.628s-1.437-1.379-2.459.183,1.214,3.741,2.12,2.447A2.882,2.882,0,0,0,401.425,1154.628Z" transform="translate(-398.704 -1153.598)"/><path class="an" d="M445.15,1243.969a5.97,5.97,0,0,0-.119.745,4.654,4.654,0,0,1-1.681-1.777,7.405,7.405,0,0,0,1.8,1.033Z" transform="translate(-440.242 -1236.282)"/><rect class="ao" width="9.059" height="0.506" transform="translate(9.588 17.564)"/><rect class="ao" width="9.059" height="0.506" transform="translate(18.196 17.842) rotate(-63.226)"/><path class="ak" d="M551.56,1380.421a5.476,5.476,0,0,0,1.7-.366c.372-.264,2.885.745,2.932.977a.66.66,0,0,1,0,.347H551.26Z" transform="translate(-540.64 -1363.815)"/><path class="al" d="M430.509,1258.365l.186-.505,2.536.505v.449Z" transform="translate(-428.295 -1250.167)"/><g transform="translate(1.588 9.125)"><path class="ak" d="M424.056,1280.521s.272-1.912-1.059-2.08-1.477,1.719-1.477,1.719Z" transform="translate(-421.521 -1278.431)"/></g></g><g transform="translate(93.207 65.148)"><g transform="translate(20.234 49.43)"><path class="ap" d="M1703.315,1824.239s.154,1.082.174,1.245,1.718-.1,1.718-.1l.138-1.288A9.965,9.965,0,0,0,1703.315,1824.239Z" transform="translate(-1703.315 -1824.099)"/></g><g transform="translate(17.442 50.604)"><path class="aq" d="M1666.157,1841.028a4.6,4.6,0,0,1-1.059.936c-.521.284-1.338.4-1.646.691-.222.212-.809,1.127,1.353,1.108s3.2.129,3.435-.221-.335-2.587-.335-2.587A4.534,4.534,0,0,1,1666.157,1841.028Z" transform="translate(-1663.209 -1840.955)"/></g><g transform="translate(8.064 49.43)"><path class="ap" d="M1528.493,1824.239s.154,1.082.174,1.245,1.718-.1,1.718-.1l.138-1.288A9.967,9.967,0,0,0,1528.493,1824.239Z" transform="translate(-1528.493 -1824.099)"/></g><g transform="translate(4.274 50.604)"><path class="aq" d="M1477.99,1841.028a4.6,4.6,0,0,1-1.058.936c-.521.284-2.436.518-2.744.812-.222.212-.592,1.067,2.45.987,2.161-.057,3.2.129,3.436-.221s-.335-2.587-.335-2.587A4.116,4.116,0,0,1,1477.99,1841.028Z" transform="translate(-1474.044 -1840.955)"/></g><g transform="translate(14.931 21.634)"><path class="ar" d="M1631.832,1424.8a16,16,0,0,1,.785,5c-.119,2.314.467,4.846.707,7.263.267,2.695,1.361,9.074,1.4,10.516s-.17,6.045-.17,6.045l-2.189.05s-1.839-11.153-2.315-12.291-2.838-9.251-2.917-10.162S1631.832,1424.8,1631.832,1424.8Z" transform="translate(-1627.132 -1424.799)"/></g><g transform="translate(7.769 21.324)"><path class="aq" d="M1526.9,1421.134s-1.2,6.342-1.361,7.759-.265,6.854-.344,7.739-.529,11.583-.953,12.9h2.8s2.149-7.777,2.149-11.457,1.66-8,2.732-10.427,3.524-2.485,4.183-6.99C1536.105,1420.656,1527.793,1419.705,1526.9,1421.134Z" transform="translate(-1524.243 -1420.346)"/></g><g transform="translate(12.185 0.235)"><path class="v" d="M1591.621,1117.6s-2.207-.824-3.224.856-.919,5.042.193,5.456,2.783.2,3.352-.854a8.417,8.417,0,0,0,1.059-3.586A2.212,2.212,0,0,0,1591.621,1117.6Z" transform="translate(-1587.692 -1117.393)"/></g><g transform="translate(13.391 4.612)"><path class="v" d="M1605.073,1182.3a1.852,1.852,0,0,1-.058.863c-.147.285,2.775.292,2.775.292a19.272,19.272,0,0,1,.687-2.859C1608.927,1179.288,1605.073,1182.3,1605.073,1182.3Z" transform="translate(-1605.01 -1180.268)"/></g><g transform="translate(12.441 0)"><path class="as" d="M1595.787,1118.962s-.2.333-1.025.2-1.828-1.225-2.172-1.345-.347-.322-.347-.322l-.215.314-.365.023s.333-.98-.169-1.38.521-3.172,3.162-2.249c0,0,2.028.559,1.954,1.713A6.409,6.409,0,0,1,1595.787,1118.962Z" transform="translate(-1591.37 -1114.02)"/></g><g transform="translate(13.223 6.673)"><path class="ad" d="M1602.6,1210.68s.009-.544.256-.6a17.616,17.616,0,0,1,3.026-.171v.634S1605.294,1210.905,1602.6,1210.68Z" transform="translate(-1602.595 -1209.879)"/></g><g transform="translate(13.305 2.638)"><path class="v" d="M1603.833,1152.336c.046-.193.538-.746.727-.154s-.285,1.388-.548,1.32S1603.716,1152.826,1603.833,1152.336Z" transform="translate(-1603.768 -1151.916)"/></g><g transform="translate(4.036 7.34)"><path class="al" d="M1479.812,1219.595s-1.358.488-2.931,1.156a3.3,3.3,0,0,0-2.005,2.673c-.1,1.06-1.233,6.689-1.445,7.165s-2.715,8.127-2.8,8.286a6.344,6.344,0,0,0,2.185.973c.141-.071,2.424-6.978,2.654-7.49,0,0,1.314-4.142,1.35-4.759,0,0,.038,1.76.108,2.254s-1.169,10.084-1.134,10.349,5.633.6,7.873.354a27.421,27.421,0,0,0,4.048-.762s-1.763-7.568-1.709-8.408c.118-1.828.729-5.272.729-5.272l1.827,3.444-2.338,6.015.535,1.828s4.345-6.565,4.486-7.165a3.23,3.23,0,0,0-.442-1.858c-.229-.494-1.736-4.253-2.088-4.782s-.949-2.648-2.39-3.238a22.521,22.521,0,0,0-3.227-.9Z" transform="translate(-1470.625 -1219.461)"/></g><g transform="translate(0 20.457)"><rect class="at" width="10.567" height="7.372" transform="matrix(0.969, 0.248, -0.248, 0.969, 1.831, 0)"/></g><g transform="translate(2.729 28.316)"><path class="au" d="M1452.267,1520.783s-.292.473-.4.608.263.219.421.083S1452.267,1520.783,1452.267,1520.783Z" transform="translate(-1451.849 -1520.783)"/></g><g transform="translate(3.124 26.595)"><path class="av" d="M1459.679,1499.4a1.138,1.138,0,0,0,.21-.3s.051-.216.1-.367a1.113,1.113,0,0,1,.04-.115,2.073,2.073,0,0,0,.234-.622c.045-.292.173-1.6.173-1.6l-.793-.2-.637-.134a13.029,13.029,0,0,0-1.45,1.64.7.7,0,0,0-.017.077,2.663,2.663,0,0,0,.02.546c0,.046,0,.5.11.586a.445.445,0,0,0,.42.1,1.062,1.062,0,0,0,.547.206.661.661,0,0,0,.573.107S1459.505,1499.516,1459.679,1499.4Z" transform="translate(-1457.524 -1496.07)"/></g><g transform="translate(4.039 20.817)"><path class="al" d="M1475,1413.893s-1.817,5.5-2.151,6.079a5.993,5.993,0,0,1-2.185-.973l1.995-5.937Z" transform="translate(-1470.663 -1413.061)"/></g></g><g transform="translate(119.835 66.716)"><g transform="translate(19.963 25.13)"><path class="aw" d="M2082.55,1499.058s-.074-1.267-.409-1.464-.142.2-.142.2.188.92.23,1.292A1.9,1.9,0,0,0,2082.55,1499.058Z" transform="translate(-2081.943 -1497.539)"/></g><path class="ax" d="M1962.333,1136.55a2.771,2.771,0,0,1,3.064,3.052c-.086,3.314-.612,3.812,0,6.154s-3.071-1.33-3.071-1.33Z" transform="translate(-1950.691 -1136.545)"/><path class="ak" d="M1818.425,1245.756s-4.462,2.784-4.84,2.488c-.528-.414-1.962-3.947-1.962-3.947l-1.123.535s1.339,6.108,3.144,5.658,5.947-3.012,5.947-3.012Z" transform="translate(-1809.433 -1236.797)"/><path class="ak" d="M1924.647,1424a14.513,14.513,0,0,1,1.569,2.457,12.663,12.663,0,0,1,1,4.782c-.091,1.66-.637,4.777-.478,5.482s.318,2.161.489,2.661a11.572,11.572,0,0,1,.921,3.458c.068,1.5-.955,8.1-.91,8.712s-1.16.25-1.16.25-.409-5.96-.637-6.983-.5-4.5-.705-4.754a11.644,11.644,0,0,1-.678-3.253c.087-.409-2.234-6.551-2.37-7.779s-3.557-5.033-3.557-5.033A10.635,10.635,0,0,1,1924.647,1424Z" transform="translate(-1909.572 -1403.516)"/><path class="ak" d="M1890.584,1418.88a6.982,6.982,0,0,1-.127.847,68.538,68.538,0,0,0-1.8,8.257,43.9,43.9,0,0,1-.637,4.6,9.868,9.868,0,0,0,.2,2.478c.136.409-.682,10.077-.751,10.3s.546.3.978.228,2.616-7.1,2.479-8.28a14.254,14.254,0,0,1,.114-4.73c.387-1.025,3.867-8.44,3.89-8.9S1896.444,1415.394,1890.584,1418.88Z" transform="translate(-1881.046 -1398.397)"/><path class="ak" d="M2017.879,1815.969a4.87,4.87,0,0,1-.234,1c-.122.214-.459,1.305-.612,1.509s-.49,1.734,0,1.917,1.642.49,2.03-.123a2.515,2.515,0,0,0,.377-1.693c-.061-.469-.526-2.622-.52-2.835S2017.879,1815.969,2017.879,1815.969Z" transform="translate(-2001.35 -1768.409)"/><path class="al" d="M2015.243,1849.7s-.052,1.189.845,1.189,1.3-1.082,1.3-1.082a2.324,2.324,0,0,1,0,1.663c-.306,1.132-1.581.9-1.866.857S2013.878,1851.929,2015.243,1849.7Z" transform="translate(-1999.365 -1800.057)"/><path class="al" d="M1835.751,1804.413a5.645,5.645,0,0,1-1.011,1.365c-.47.286-1.381,1.206-1.7,1.248s-1.462.245-1.241.891c.181.529,2.91.453,3.218.188s1.228-1.217,1.6-1.2.233,1.373.233,1.373h.4s.141-1.316.158-1.542c.051-.669-.427-1.162-.448-1.544s-.043-.667-.043-.667Z" transform="translate(-1829.224 -1757.921)"/><path class="ak" d="M1851.319,1806.067a2.175,2.175,0,0,0,1.592-.087,8.511,8.511,0,0,1,2.491-1.006s-.256-.783-.261-.871-.034-.5-.034-.5l-1.161-.186a10.047,10.047,0,0,1-1.086,1.367A18.838,18.838,0,0,0,1851.319,1806.067Z" transform="translate(-1847.41 -1756.993)"/><path class="al" d="M1897.561,1427.268s-.324,1.348-.444,1.74-.886,6.48-1.075,10.287a29.824,29.824,0,0,0,10.9,1.45s.154-6.995-.426-8.974a9.623,9.623,0,0,0-2.422-4.4C1903.39,1426.862,1897.561,1427.268,1897.561,1427.268Z" transform="translate(-1889.021 -1406.887)"/><g transform="translate(18.473 22.94)"><path class="ak" d="M2061.082,1466.935a9.321,9.321,0,0,1-.266,1.116c-.172.548-.331.722-.262,1.036.052.237.32.415.388.339s.1-1,.482-.993-.114,1.141.113,1.057,1.1-.562,1.047-1.027-.405-.8-.382-1.493a1.494,1.494,0,0,0-.176-.892Z" transform="translate(-2060.538 -1466.078)"/></g><g transform="translate(0.765 7.117)"><path class="v" d="M1806.151,1239.427s.532.692.861.765.681-.725.681-.725l-.189-.687Z" transform="translate(-1806.151 -1238.78)"/></g><g transform="translate(0 4.916)"><path class="v" d="M1797.248,1209.779s.255-.8.29-.921a1.518,1.518,0,0,0-.316-.828,7.367,7.367,0,0,0-.593-.8c-.05-.05-.078-.106-.245-.032a.693.693,0,0,0-.265.23.421.421,0,0,0-.356.2.366.366,0,0,0-.319.254s-.228.013-.275.2a2.786,2.786,0,0,1,.114.479,5.849,5.849,0,0,0,.65,1.455S1796.48,1210.482,1797.248,1209.779Z" transform="translate(-1795.168 -1207.162)"/></g><g transform="translate(0.354 6.374)"><path class="ay" d="M1801.395,1228.225a2.062,2.062,0,0,0-.307.448c-.032.129-.834-.349-.834-.349S1801,1227.9,1801.395,1228.225Z" transform="translate(-1800.254 -1228.103)"/></g><g transform="translate(0 4.964)"><path class="w" d="M1796.67,1207.952s.444.94.3,1.021a.266.266,0,0,1-.253.021l-.023.471a.271.271,0,0,1-.466.006s-.15.3-.38-.017c0,0-.188.155-.32.026a3.484,3.484,0,0,1-.354-.764s.014-.155.275-.2a.361.361,0,0,1,.319-.254.545.545,0,0,1,.414-.259.411.411,0,0,1,.452-.136A.508.508,0,0,1,1796.67,1207.952Z" transform="translate(-1795.168 -1207.851)"/></g><g transform="translate(1.138 5.954)"><path class="v" d="M1812.74,1222.707a3.552,3.552,0,0,0-.946-.6c-.092-.029-.187-.041-.249.034s-.032.259.19.476a2.616,2.616,0,0,1,.411.6S1812.442,1223.369,1812.74,1222.707Z" transform="translate(-1811.517 -1222.082)"/></g><g transform="translate(1.008 4.917)"><path class="v" d="M1809.647,1207.378a8.743,8.743,0,0,1,.543,1.092c-.006.115.36-.081.358-.179a8.272,8.272,0,0,0-.449-1.049A.282.282,0,0,0,1809.647,1207.378Z" transform="translate(-1809.647 -1207.175)"/></g><g transform="translate(0.476 3.597)"><path class="v" d="M1803.1,1189.786s-.875-1.633-1-1.574c-.187.087-.137.539.6,1.758C1803.416,1191.155,1803.1,1189.786,1803.1,1189.786Z" transform="translate(-1802.004 -1188.21)"/></g><path class="x" d="M1896.816,1262.732l-1.8-2.391s3.221-2.5,4.215-.909A3.388,3.388,0,0,1,1896.816,1262.732Z" transform="translate(-1888.064 -1250.387)"/><path class="x" d="M1905.32,1257.259a6.622,6.622,0,0,0,.529,1.757c.068.29,0,.955.085,1.621a41.009,41.009,0,0,1,.256,4.743c-.085.9,6.206.5,6.684.223a10.039,10.039,0,0,1-1.088-2.68,2.573,2.573,0,0,1,.273-1.723c.234-.324.668-1.356,1.1-2.11h0c.168-.293.344-.584.467-.8h0a3.026,3.026,0,0,0,.25-.619s.28-3.48-.488-3.873a3.911,3.911,0,0,0-1.928-.495,5.449,5.449,0,0,1-1.245-.188l-1.757.188a10.172,10.172,0,0,1-1.57.427c-.444.034-1.007.989-.955,1.6S1905.269,1256.457,1905.32,1257.259Z" transform="translate(-1897.65 -1244.998)"/><g transform="translate(18.842 25.25)"><path class="aw" d="M2066.322,1499.274s-.508.13-.478,1.849l.576-.1a5.924,5.924,0,0,1,.161-1.468S2066.551,1499.222,2066.322,1499.274Z" transform="translate(-2065.843 -1499.268)"/></g><g transform="translate(17.212 26.221)"><path class="aw" d="M2042.422,1514.483l4.481-1.271-.013,5.519-4.459,2.672Z" transform="translate(-2042.422 -1513.212)"/></g><g transform="translate(17.22 26.221)"><path class="aw" d="M2042.541,1521.4l.561.1,4.337-2.7-.054-5.572-.372-.026Z" transform="translate(-2042.541 -1513.212)"/></g><path class="v" d="M2003.788,1258.331a2.4,2.4,0,0,1,2.026,1.223,12.427,12.427,0,0,1,.853,2.985c.153.461.555,3.171.708,3.563a30.8,30.8,0,0,1,1.288,4.557,29.965,29.965,0,0,1,.269,3.024l-1.12-.035s-1.111-4.084-1.494-5.057c-.327-.831-.453-2.282-.64-2.794s-1.348-4.111-1.587-4.367S2002.6,1258.558,2003.788,1258.331Z" transform="translate(-1988.795 -1249.853)"/><path class="x" d="M2000.818,1263.279l2.844-.9s-.872-4.194-3.3-4.082C1998.412,1258.392,2000.818,1263.279,2000.818,1263.279Z" transform="translate(-1985.368 -1249.824)"/><path class="v" d="M1921.888,1141.032a2.677,2.677,0,0,0-3.074,2.118,6.513,6.513,0,0,0,.084,1.025c.086.456-.458,1.711-.362,1.787a2.875,2.875,0,0,0,.512.206s.3,1.472.8,1.517a4.159,4.159,0,0,0,3.522-1.794C1924.456,1144.226,1925.041,1141.548,1921.888,1141.032Z" transform="translate(-1909.938 -1140.691)"/><path class="v" d="M1947.629,1211.062s.038.206.074.509c.018.155.036.335.047.526a3.521,3.521,0,0,1-.165,1.528s.978.606,2.027-.851a5.9,5.9,0,0,1,.5-2.781C1950.714,1209.031,1947.629,1211.062,1947.629,1211.062Z" transform="translate(-1936.975 -1204.639)"/><path class="ax" d="M1922.676,1139.024a7.1,7.1,0,0,0,2.42,1.335,3.407,3.407,0,0,1,1.9,1.718s2.2-2.2.873-4.329S1922.678,1136.567,1922.676,1139.024Z" transform="translate(-1913.8 -1136.565)"/><path class="an" d="M1949.278,1226.278c.018.155.036.335.047.526a5.5,5.5,0,0,0,1.7-1.263A6.253,6.253,0,0,1,1949.278,1226.278Z" transform="translate(-1938.55 -1219.346)"/><path class="ax" d="M1960.731,1188.48s1.273,3.424,1.121,4.248a4.486,4.486,0,0,1,1.874.251S1963.146,1186.871,1960.731,1188.48Z" transform="translate(-1949.206 -1184.614)"/><path class="v" d="M1945.858,1252.422s-.419,2.568-1.972,2.278-.375-2.172-.375-2.172S1944.118,1251.984,1945.858,1252.422Z" transform="translate(-1932.787 -1244.197)"/></g><g transform="translate(86.234 34.827)"><path class="e" d="M1328.852,686.646a8.19,8.19,0,1,1-8.189-8.19A8.157,8.157,0,0,1,1328.852,686.646Z" transform="translate(-1312.473 -678.456)"/><path class="n" d="M1349.361,739.057a1,1,0,0,0-.137-.081l-.008-.005h0a17.357,17.357,0,0,0-3.491-1.318h0c-.377-.115-.662-.19-.76-.215l-.176-.28a8.683,8.683,0,0,1-.014-.986,3.493,3.493,0,0,0,.705-1.7c.047.036.084-.042.084-.042-.026-.047.4-1.076.319-1.308-.043-.132-.131-.115-.2-.077.01-.06.021-.122.031-.189a3.619,3.619,0,0,0-.632-2.457.882.882,0,0,0-.376-.1,3.515,3.515,0,0,0-2.533-.011,2.549,2.549,0,0,0-.736,2.129c.014.13.029.26.044.388a.024.024,0,0,0,0,0l.018.149c-.067-.041-.154-.062-.2.068a3.92,3.92,0,0,0,.265,1.32s.067.105.12.058c0,0,0,0,0,0a3.774,3.774,0,0,0,.692,1.8c-.02.366-.073.8-.11,1.072l-.317.331h0l-.05.017v0a18.535,18.535,0,0,0-4.6,1.622.948.948,0,0,0-.275.425,8.19,8.19,0,0,0,12.751.261A3.369,3.369,0,0,0,1349.361,739.057Z" transform="translate(-1335.314 -726.476)"/></g><g transform="translate(36.743 34.858)"><g transform="translate(0 1.705)"><rect class="az" width="0.147" height="13.839"/></g><g transform="translate(10.428 1.705)"><rect class="az" width="0.147" height="13.839"/></g><g transform="translate(20.856 1.705)"><rect class="az" width="0.147" height="13.839"/></g><g transform="translate(31.284 1.705)"><rect class="az" width="0.147" height="13.839"/></g><g transform="translate(41.711 1.705)"><rect class="az" width="0.147" height="13.839"/></g><rect class="ba" width="1.659" height="0.481" transform="translate(0.073 16.364)"/><rect class="bb" width="2.498" height="0.361" transform="translate(0.073)"/><rect class="bb" width="3.543" height="0.361" transform="translate(0.073 0.667)"/><rect class="bb" width="2.932" height="0.361" transform="translate(10.389)"/><rect class="bb" width="1.875" height="0.361" transform="translate(10.389 0.667)"/><rect class="bb" width="1.817" height="0.361" transform="translate(21.002)"/><rect class="bb" width="2.118" height="0.361" transform="translate(21.002 0.667)"/><rect class="bb" width="2.647" height="0.361" transform="translate(31.43)"/><rect class="bb" width="2.118" height="0.361" transform="translate(31.43 0.667)"/><rect class="bb" width="1.581" height="0.361" transform="translate(41.785)"/><rect class="bb" width="1.265" height="0.361" transform="translate(41.785 0.667)"/><rect class="ba" width="1.659" height="0.481" transform="translate(10.501 16.364)"/><rect class="ba" width="1.659" height="0.481" transform="translate(21.002 16.364)"/><rect class="ba" width="1.659" height="0.481" transform="translate(31.43 16.364)"/><rect class="ba" width="1.659" height="0.481" transform="translate(41.858 16.364)"/><g transform="translate(0.073 5.293)"><path class="bc" d="M640.685,761.077c-3.253,0-6.08-1.265-9.027-2.583-3.639-1.627-7.4-3.31-12.415-2.849a15.6,15.6,0,0,0-6.984,2.5,10.578,10.578,0,0,1-5.178,1.831c-3.322.114-4.474-1.161-4.493-1.238v-.818h0c0,.014.729,1.444,4.49,1.427a9.3,9.3,0,0,0,4.8-1.729,16.23,16.23,0,0,1,7.293-2.6c5.214-.479,9.069,1.245,12.8,2.912,3.9,1.745,7.623,3.381,12.33,1.961v.672A11.723,11.723,0,0,1,640.685,761.077Z" transform="translate(-602.587 -754.937)"/></g><g transform="translate(0.073 3.42)"><path class="j" d="M621.161,735.879c-2.4,0-4.3-1.452-6.169-2.874a15.8,15.8,0,0,0-4.573-2.724c-5.166-1.659-7.809,1.37-7.833,1.4v-.921a4.723,4.723,0,0,1,1.863-1.108,9.276,9.276,0,0,1,6.2.039,15.994,15.994,0,0,1,4.8,2.838c2.966,2.262,5.528,4.216,9.977,1.156,3.37-2.318,6.546-4.526,9.672-5.333a9.617,9.617,0,0,1,9.227,2.472l-.022.837c-6.337-5.725-11.733-2.1-18.452,2.524A8.258,8.258,0,0,1,621.161,735.879Z" transform="translate(-602.587 -728.022)"/></g></g></svg>