<svg xmlns="http://www.w3.org/2000/svg" xmlns:xlink="http://www.w3.org/1999/xlink" width="643.307" height="444.163" viewBox="0 0 643.307 444.163"><defs><style>.a{fill:url(#a);}.b{fill:#e0e0e0;}.ab,.ac,.c,.l,.m,.n{fill:#fafafa;}.d{fill:url(#b);}.e{fill:#ebebeb;}.f{fill:#f0f0f0;}.g,.q{fill:#263238;}.h{fill:#27a2e3;}.i,.o{fill:#455a64;}.j,.r{fill:#37474f;}.k{fill:#27debf;}.l{opacity:0.7;}.m{opacity:0.6;}.n{opacity:0.8;}.o,.p,.q,.r{fill-rule:evenodd;}.p{fill:#2392cc;}.s{opacity:0.1;}.ad,.ae,.af,.aj,.ak,.an,.t,.v{fill:#1e1e1e;}.ad,.ae,.af,.ag,.ah,.ai,.aj,.ak,.am,.an,.t,.u,.v,.z{stroke:#1f1e1e;}.ad,.ae,.af,.ag,.ah,.ai,.aj,.ak,.al,.am,.an,.t,.u,.v,.z{stroke-miterlimit:10;}.t,.u,.z{stroke-width:0.418px;}.aa,.ag,.ai,.u{fill:#ebe8e8;}.v{stroke-width:0.499px;}.w{fill:#1f1e1e;}.x{fill:#e9cac2;}.y{fill:#b86969;}.ah,.al,.am,.z{fill:none;}.ab{opacity:0.5;}.ac{opacity:0.4;}.ad{stroke-width:0.319px;}.ae{stroke-width:0.325px;}.af{stroke-width:0.511px;}.ag{stroke-width:0.535px;}.ah{stroke-width:0.373px;}.ai,.ak{stroke-width:0.441px;}.aj{stroke-width:0.495px;}.al{stroke:#ebe8e8;stroke-width:0.4px;}.am{stroke-width:0.626px;}.an{stroke-width:0.426px;}</style><linearGradient id="a" x1="0.423" y1="0.378" x2="0.591" y2="0.645" gradientUnits="objectBoundingBox"><stop offset="0" stop-color="#e6e6e6"/><stop offset="1" stop-color="#fff" stop-opacity="0"/></linearGradient><linearGradient id="b" x1="81.744" y1="0.378" x2="81.911" y2="0.645" xlink:href="#a"/></defs><g transform="translate(-29.278 -98.478)"><g transform="translate(29.278 98.478)"><g transform="translate(0 35.491)"><path class="a" d="M30.029,345.937c6.8-4.087,7.642-66,30.275-78.658s14.723,43.98,37.842,30.589c22-12.74,15.264-78.84,37.845-91.769s14.871,51.684,37.844,39.33c19.979-10.744,18.287-36.465,31.372-47.831s16.081,13.61,32.566,4.618,2.467-58.56,37.5-78.787v94.4L30.025,360.35Z" transform="translate(-28.93 -122.328)"/><path class="b" d="M30.379,347.388a1.1,1.1,0,0,1-.568-2.043c1.981-1.191,3.779-10.574,5.685-20.509,4.023-20.985,9.531-49.726,24.62-58.168,3.646-2.04,6.764-2.518,9.53-1.461,5.451,2.084,8.125,9.876,10.709,17.411,2.442,7.114,4.966,14.472,9.531,16.179,2.212.826,4.849.326,8.057-1.533,10.491-6.076,14.356-25.693,18.095-44.665,3.91-19.836,7.952-40.347,19.756-47.107,3.35-1.918,6.372-2.354,8.981-1.3,5.883,2.379,8.549,11.576,11.372,21.314,2.59,8.932,5.267,18.168,10.316,20.289,2.027.849,4.382.526,7.2-.987,11.121-5.981,15.323-16.778,19.384-27.218,3.093-7.952,6.015-15.462,11.787-20.477,7.214-6.262,11.866-2.4,16.366,1.348s8.767,7.3,16.4,3.137c6.243-3.407,7.883-13.73,9.781-25.684,2.889-18.2,6.487-40.843,27.7-53.091a1.1,1.1,0,0,1,1.1,1.905c-20.3,11.722-23.809,33.795-26.625,51.53-1.99,12.528-3.708,23.347-10.9,27.27-8.94,4.878-14.44.3-18.856-3.376-4.479-3.727-7.714-6.419-13.516-1.377-5.362,4.658-8.188,11.922-11.18,19.613-4.206,10.812-8.556,21.993-20.393,28.358-3.391,1.824-6.45,2.188-9.093,1.076-6.017-2.527-8.844-12.275-11.576-21.7-2.553-8.8-5.193-17.91-10.084-19.888-1.978-.8-4.291-.417-7.065,1.17-10.933,6.261-14.877,26.271-18.69,45.623-4.01,20.348-7.8,39.567-19.151,46.143-3.813,2.207-7.06,2.762-9.93,1.688-5.539-2.069-8.235-9.926-10.841-17.524-2.421-7.057-4.925-14.354-9.414-16.071-2.121-.812-4.629-.375-7.672,1.326C47,276.53,41.6,304.69,37.657,325.25c-2.555,13.33-4.014,20.361-6.711,21.98A1.1,1.1,0,0,1,30.379,347.388Z" transform="translate(-29.278 -122.678)"/><g transform="translate(106.599 83.307)"><path class="c" d="M102.426,181.338a.463.463,0,0,1-.463-.463v-.93a.464.464,0,0,1,.928,0v.93A.465.465,0,0,1,102.426,181.338Z" transform="translate(-101.963 -179.481)"/><g transform="translate(0 2.791)"><path class="c" d="M102.426,269.862a.464.464,0,0,1-.463-.465v-1.861a.464.464,0,1,1,.928,0V269.4A.465.465,0,0,1,102.426,269.862Zm0-3.725a.464.464,0,0,1-.463-.465v-1.863a.464.464,0,0,1,.928,0v1.863A.465.465,0,0,1,102.426,266.137Zm0-3.725a.464.464,0,0,1-.463-.465v-1.863a.464.464,0,0,1,.928,0v1.863A.465.465,0,0,1,102.426,262.412Zm0-3.727a.463.463,0,0,1-.463-.463v-1.863a.464.464,0,0,1,.928,0v1.863A.464.464,0,0,1,102.426,258.685Zm0-3.725a.463.463,0,0,1-.463-.463v-1.864a.464.464,0,0,1,.928,0V254.5A.464.464,0,0,1,102.426,254.96Zm0-3.725a.464.464,0,0,1-.463-.465v-1.863a.464.464,0,0,1,.928,0v1.863A.465.465,0,0,1,102.426,251.235Zm0-3.725a.464.464,0,0,1-.463-.465v-1.863a.464.464,0,0,1,.928,0v1.863A.465.465,0,0,1,102.426,247.51Zm0-3.727a.463.463,0,0,1-.463-.463v-1.863a.464.464,0,1,1,.928,0v1.863A.464.464,0,0,1,102.426,243.783Zm0-3.725a.463.463,0,0,1-.463-.463v-1.863a.464.464,0,1,1,.928,0v1.863A.465.465,0,0,1,102.426,240.058Zm0-3.725a.464.464,0,0,1-.463-.465v-1.863a.464.464,0,0,1,.928,0v1.863A.465.465,0,0,1,102.426,236.333Zm0-3.727a.463.463,0,0,1-.463-.463V230.28a.464.464,0,0,1,.928,0v1.863A.464.464,0,0,1,102.426,232.606Zm0-3.725a.463.463,0,0,1-.463-.463v-1.863a.464.464,0,1,1,.928,0v1.863A.464.464,0,0,1,102.426,228.881Zm0-3.725a.463.463,0,0,1-.463-.463V222.83a.464.464,0,1,1,.928,0v1.863A.465.465,0,0,1,102.426,225.156Zm0-3.725a.464.464,0,0,1-.463-.465V219.1a.464.464,0,0,1,.928,0v1.863A.465.465,0,0,1,102.426,221.431Zm0-3.727a.463.463,0,0,1-.463-.463v-1.863a.464.464,0,0,1,.928,0v1.863A.464.464,0,0,1,102.426,217.7Zm0-3.725a.463.463,0,0,1-.463-.463v-1.863a.464.464,0,0,1,.928,0v1.863A.464.464,0,0,1,102.426,213.979Zm0-3.725a.464.464,0,0,1-.463-.465v-1.863a.464.464,0,0,1,.928,0v1.863A.465.465,0,0,1,102.426,210.254Zm0-3.725a.464.464,0,0,1-.463-.465V204.2a.464.464,0,0,1,.928,0v1.863A.465.465,0,0,1,102.426,206.529Zm0-3.727a.463.463,0,0,1-.463-.463v-1.863a.464.464,0,1,1,.928,0v1.863A.464.464,0,0,1,102.426,202.8Zm0-3.725a.463.463,0,0,1-.463-.463v-1.863a.464.464,0,1,1,.928,0v1.863A.464.464,0,0,1,102.426,199.077Zm0-3.725a.463.463,0,0,1-.463-.463v-1.864a.464.464,0,0,1,.928,0v1.864A.464.464,0,0,1,102.426,195.352Zm0-3.725a.464.464,0,0,1-.463-.465V189.3a.464.464,0,0,1,.928,0v1.863A.465.465,0,0,1,102.426,191.627Zm0-3.725a.464.464,0,0,1-.463-.465v-1.863a.464.464,0,1,1,.928,0v1.863A.465.465,0,0,1,102.426,187.9Zm0-3.727a.463.463,0,0,1-.463-.463v-1.863a.464.464,0,1,1,.928,0v1.863A.465.465,0,0,1,102.426,184.175Z" transform="translate(-101.963 -181.384)"/></g><g transform="translate(0 92.205)"><path class="c" d="M102.426,244.208a.464.464,0,0,1-.463-.465v-.928a.464.464,0,0,1,.928,0v.928A.465.465,0,0,1,102.426,244.208Z" transform="translate(-101.963 -242.351)"/></g></g><g transform="translate(180.316 72.353)"><path class="c" d="M152.69,173.869a.463.463,0,0,1-.463-.463v-.928a.464.464,0,1,1,.928,0v.928A.464.464,0,0,1,152.69,173.869Z" transform="translate(-152.227 -172.012)"/><g transform="translate(0 2.829)"><path class="c" d="M152.69,229.994a.465.465,0,0,1-.463-.465v-1.9a.464.464,0,0,1,.928,0v1.9A.465.465,0,0,1,152.69,229.994Zm0-3.8a.465.465,0,0,1-.463-.465v-1.9a.464.464,0,0,1,.928,0v1.9A.465.465,0,0,1,152.69,226.193Zm0-3.8a.465.465,0,0,1-.463-.465v-1.9a.464.464,0,1,1,.928,0v1.9A.465.465,0,0,1,152.69,222.391Zm0-3.8a.464.464,0,0,1-.463-.463v-1.9a.464.464,0,0,1,.928,0v1.9A.464.464,0,0,1,152.69,218.588Zm0-3.8a.464.464,0,0,1-.463-.463v-1.9a.464.464,0,1,1,.928,0v1.9A.465.465,0,0,1,152.69,214.787Zm0-3.8a.465.465,0,0,1-.463-.465v-1.9a.464.464,0,0,1,.928,0v1.9A.465.465,0,0,1,152.69,210.986Zm0-3.8a.464.464,0,0,1-.463-.463v-1.9a.464.464,0,0,1,.928,0v1.9A.465.465,0,0,1,152.69,207.184Zm0-3.8a.465.465,0,0,1-.463-.465v-1.9a.464.464,0,1,1,.928,0v1.9A.465.465,0,0,1,152.69,203.383Zm0-3.8a.463.463,0,0,1-.463-.463v-1.9a.464.464,0,0,1,.928,0v1.9A.464.464,0,0,1,152.69,199.58Zm0-3.8a.463.463,0,0,1-.463-.463v-1.9a.464.464,0,1,1,.928,0v1.9A.464.464,0,0,1,152.69,195.779Zm0-3.8a.464.464,0,0,1-.463-.463v-1.9a.464.464,0,1,1,.928,0v1.9A.464.464,0,0,1,152.69,191.977Zm0-3.8a.464.464,0,0,1-.463-.463v-1.9a.464.464,0,0,1,.928,0v1.9A.465.465,0,0,1,152.69,188.176Zm0-3.8a.465.465,0,0,1-.463-.465v-1.9a.464.464,0,0,1,.928,0v1.9A.465.465,0,0,1,152.69,184.374Zm0-3.8a.463.463,0,0,1-.463-.463v-1.9a.464.464,0,0,1,.928,0v1.9A.464.464,0,0,1,152.69,180.571Zm0-3.8a.463.463,0,0,1-.463-.463v-1.9a.464.464,0,1,1,.928,0v1.9A.464.464,0,0,1,152.69,176.77Z" transform="translate(-152.227 -173.941)"/></g><g transform="translate(0 59.855)"><path class="c" d="M152.69,214.681a.463.463,0,0,1-.463-.463v-.928a.464.464,0,1,1,.928,0v.928A.464.464,0,0,1,152.69,214.681Z" transform="translate(-152.227 -212.824)"/></g></g><g transform="translate(34.51 143.942)"><path class="c" d="M53.272,222.682a.465.465,0,0,1-.463-.465v-.928a.464.464,0,0,1,.928,0v.928A.465.465,0,0,1,53.272,222.682Z" transform="translate(-52.809 -220.825)"/><g transform="translate(0 2.841)"><path class="c" d="M53.272,282.963a.465.465,0,0,1-.463-.465v-1.911a.464.464,0,1,1,.928,0V282.5A.465.465,0,0,1,53.272,282.963Zm0-3.825a.464.464,0,0,1-.463-.463v-1.912a.464.464,0,0,1,.928,0v1.912A.465.465,0,0,1,53.272,279.138Zm0-3.823a.465.465,0,0,1-.463-.465v-1.911a.464.464,0,1,1,.928,0v1.911A.465.465,0,0,1,53.272,275.314Zm0-3.825a.464.464,0,0,1-.463-.463v-1.912a.464.464,0,0,1,.928,0v1.912A.464.464,0,0,1,53.272,271.49Zm0-3.823a.464.464,0,0,1-.463-.464V265.29a.464.464,0,1,1,.928,0V267.2A.465.465,0,0,1,53.272,267.666Zm0-3.823a.465.465,0,0,1-.463-.465v-1.912a.464.464,0,0,1,.928,0v1.912A.465.465,0,0,1,53.272,263.843Zm0-3.825a.464.464,0,0,1-.463-.463v-1.912a.464.464,0,0,1,.928,0v1.912A.465.465,0,0,1,53.272,260.018Zm0-3.823a.465.465,0,0,1-.463-.465v-1.911a.464.464,0,1,1,.928,0v1.911A.465.465,0,0,1,53.272,256.194Zm0-3.825a.463.463,0,0,1-.463-.463v-1.912a.464.464,0,0,1,.928,0v1.912A.464.464,0,0,1,53.272,252.37Zm0-3.823a.465.465,0,0,1-.463-.465V246.17a.464.464,0,1,1,.928,0v1.911A.465.465,0,0,1,53.272,248.546Zm0-3.825a.463.463,0,0,1-.463-.463v-1.912a.464.464,0,0,1,.928,0v1.912A.464.464,0,0,1,53.272,244.721Zm0-3.823a.465.465,0,0,1-.463-.465v-1.911a.464.464,0,1,1,.928,0v1.911A.465.465,0,0,1,53.272,240.9Zm0-3.825a.463.463,0,0,1-.463-.463V234.7a.464.464,0,0,1,.928,0v1.912A.464.464,0,0,1,53.272,237.073Zm0-3.823a.464.464,0,0,1-.463-.463v-1.912a.464.464,0,0,1,.928,0v1.912A.465.465,0,0,1,53.272,233.25Zm0-3.823a.465.465,0,0,1-.463-.465v-1.912a.464.464,0,0,1,.928,0v1.912A.465.465,0,0,1,53.272,229.426Zm0-3.825a.463.463,0,0,1-.463-.463v-1.912a.464.464,0,0,1,.928,0v1.912A.464.464,0,0,1,53.272,225.6Z" transform="translate(-52.809 -222.762)"/></g><g transform="translate(0 64.024)"><path class="c" d="M53.272,266.337a.464.464,0,0,1-.463-.463v-.928a.464.464,0,1,1,.928,0v.928A.465.465,0,0,1,53.272,266.337Z" transform="translate(-52.809 -264.48)"/></g></g></g><g transform="translate(460.363 113.518)"><path class="d" d="M524.672,340.619c-5.014-3.012-5.632-48.638-22.313-57.97s-10.85,32.412-27.889,22.543c-16.212-9.389-11.25-58.1-27.892-67.632s-10.961,38.089-27.892,28.984c-14.725-7.918-13.477-26.874-23.121-35.251s-11.852,10.03-24,3.4-1.817-43.157-27.638-58.065V246.2l180.747,105.04Z" transform="translate(-342.827 -175.531)"/><path class="b" d="M525.021,342.068a1.086,1.086,0,0,1-.565-.157c-2.1-1.261-3.131-6.211-5.083-16.391-2.892-15.1-6.856-35.773-17.2-41.562-2.162-1.21-3.93-1.525-5.409-.959-3.184,1.216-5.005,6.529-6.768,11.667-1.942,5.664-3.951,11.519-8.162,13.094-2.2.821-4.674.409-7.565-1.266-8.481-4.912-11.285-19.139-14.252-34.2-2.8-14.2-5.692-28.879-13.635-33.427-1.961-1.123-3.581-1.4-4.954-.845-3.474,1.4-5.4,8.046-7.263,14.469-2.126,7.336-4.136,14.264-8.7,16.179-2.028.855-4.369.582-6.95-.805-8.817-4.741-12.189-13.406-15.162-21.05-2.191-5.633-4.261-10.955-8.16-14.34-4.089-3.554-6.276-1.735-9.586,1.019s-7.458,6.211-14.22,2.52c-5.425-2.96-6.7-11-8.181-20.306-2.065-13.01-4.636-29.2-19.481-37.772a1.1,1.1,0,1,1,1.1-1.905c15.753,9.094,18.415,25.86,20.553,39.331,1.389,8.735,2.586,16.279,7.063,18.721,5.451,2.974,8.514.421,11.758-2.279s6.933-5.77,12.438-.99c4.306,3.743,6.474,9.31,8.766,15.2,2.974,7.647,6.05,15.553,14.154,19.91,1.993,1.072,3.644,1.305,5.057.716,3.593-1.511,5.547-8.248,7.436-14.766,2.1-7.246,4.084-14.091,8.55-15.9,2.012-.814,4.325-.484,6.874.975,8.814,5.047,11.806,20.229,14.7,34.912,2.743,13.918,5.579,28.311,13.2,32.723,2.286,1.323,4.148,1.687,5.69,1.107,3.237-1.208,5.074-6.564,6.852-11.744,1.929-5.617,3.92-11.425,8.063-13.009,2.1-.8,4.539-.433,7.268,1.094,11.237,6.287,15.314,27.546,18.288,43.066,1.267,6.614,2.7,14.11,4.054,14.921a1.1,1.1,0,0,1-.568,2.042Z" transform="translate(-343.177 -175.881)"/><g transform="translate(103.287 61.565)"><path class="c" d="M414.069,219.716a.465.465,0,0,1-.465-.463v-.928a.464.464,0,1,1,.928,0v.928A.463.463,0,0,1,414.069,219.716Z" transform="translate(-413.604 -217.859)"/><g transform="translate(0 2.836)"><path class="c" d="M414.069,283.685a.464.464,0,0,1-.465-.463v-1.908a.464.464,0,0,1,.928,0v1.908A.463.463,0,0,1,414.069,283.685Zm0-3.815a.465.465,0,0,1-.465-.465V277.5a.464.464,0,1,1,.928,0v1.907A.464.464,0,0,1,414.069,279.87Zm0-3.816a.464.464,0,0,1-.465-.463v-1.91a.464.464,0,0,1,.928,0v1.91A.463.463,0,0,1,414.069,276.054Zm0-3.816a.465.465,0,0,1-.465-.465v-1.908a.464.464,0,0,1,.928,0v1.908A.464.464,0,0,1,414.069,272.238Zm0-3.816a.464.464,0,0,1-.465-.463v-1.908a.464.464,0,0,1,.928,0v1.908A.463.463,0,0,1,414.069,268.422Zm0-3.816a.464.464,0,0,1-.465-.463v-1.91a.464.464,0,0,1,.928,0v1.91A.462.462,0,0,1,414.069,264.606Zm0-3.816a.465.465,0,0,1-.465-.463v-1.91a.464.464,0,0,1,.928,0v1.91A.463.463,0,0,1,414.069,260.79Zm0-3.816a.465.465,0,0,1-.465-.463V254.6a.464.464,0,1,1,.928,0v1.908A.463.463,0,0,1,414.069,256.974Zm0-3.816a.465.465,0,0,1-.465-.463v-1.908a.464.464,0,1,1,.928,0v1.908A.463.463,0,0,1,414.069,253.158Zm0-3.816a.465.465,0,0,1-.465-.465V246.97a.464.464,0,1,1,.928,0v1.907A.464.464,0,0,1,414.069,249.342Zm0-3.816a.465.465,0,0,1-.465-.463v-1.908a.464.464,0,1,1,.928,0v1.908A.463.463,0,0,1,414.069,245.526Zm0-3.816a.464.464,0,0,1-.465-.463v-1.908a.464.464,0,1,1,.928,0v1.908A.463.463,0,0,1,414.069,241.71Zm0-3.816a.464.464,0,0,1-.465-.463v-1.908a.464.464,0,1,1,.928,0v1.908A.463.463,0,0,1,414.069,237.894Zm0-3.816a.464.464,0,0,1-.465-.463v-1.908a.464.464,0,0,1,.928,0v1.908A.462.462,0,0,1,414.069,234.078Zm0-3.816a.464.464,0,0,1-.465-.463V227.89a.464.464,0,0,1,.928,0V229.8A.463.463,0,0,1,414.069,230.262Zm0-3.816a.464.464,0,0,1-.465-.463v-1.908a.464.464,0,1,1,.928,0v1.908A.463.463,0,0,1,414.069,226.445Zm0-3.816a.465.465,0,0,1-.465-.463v-1.908a.464.464,0,1,1,.928,0v1.908A.463.463,0,0,1,414.069,222.629Z" transform="translate(-413.604 -219.793)"/></g><g transform="translate(0 67.71)"><path class="c" d="M414.069,265.884a.465.465,0,0,1-.465-.463v-.928a.464.464,0,1,1,.928,0v.928A.463.463,0,0,1,414.069,265.884Z" transform="translate(-413.604 -264.027)"/></g></g><g transform="translate(48.959 53.492)"><path class="c" d="M377.023,214.212a.464.464,0,0,1-.463-.465v-.928a.463.463,0,1,1,.927,0v.928A.464.464,0,0,1,377.023,214.212Z" transform="translate(-376.56 -212.355)"/><g transform="translate(0 2.795)"><path class="c" d="M377.023,254.394a.464.464,0,0,1-.463-.464v-1.867a.463.463,0,1,1,.927,0v1.867A.464.464,0,0,1,377.023,254.394Zm0-3.734a.463.463,0,0,1-.463-.463V248.33a.463.463,0,1,1,.927,0V250.2A.463.463,0,0,1,377.023,250.66Zm0-3.734a.463.463,0,0,1-.463-.463V244.6a.463.463,0,1,1,.927,0v1.867A.463.463,0,0,1,377.023,246.926Zm0-3.734a.463.463,0,0,1-.463-.463v-1.867a.463.463,0,1,1,.927,0v1.867A.463.463,0,0,1,377.023,243.192Zm0-3.734a.463.463,0,0,1-.463-.463v-1.867a.463.463,0,0,1,.927,0V239A.463.463,0,0,1,377.023,239.459Zm0-3.734a.463.463,0,0,1-.463-.463v-1.867a.463.463,0,1,1,.927,0v1.867A.463.463,0,0,1,377.023,235.725Zm0-3.734a.464.464,0,0,1-.463-.463V229.66a.463.463,0,1,1,.927,0v1.867A.464.464,0,0,1,377.023,231.991Zm0-3.734a.463.463,0,0,1-.463-.463v-1.867a.463.463,0,1,1,.927,0v1.867A.463.463,0,0,1,377.023,228.257Zm0-3.734a.463.463,0,0,1-.463-.463v-1.867a.463.463,0,1,1,.927,0v1.867A.463.463,0,0,1,377.023,224.523Zm0-3.734a.463.463,0,0,1-.463-.463v-1.867a.463.463,0,0,1,.927,0v1.867A.463.463,0,0,1,377.023,220.789Zm0-3.732a.464.464,0,0,1-.463-.465v-1.867a.463.463,0,0,1,.927,0v1.867A.464.464,0,0,1,377.023,217.056Z" transform="translate(-376.56 -214.261)"/></g><g transform="translate(0 43.867)"><path class="c" d="M377.023,244.123a.463.463,0,0,1-.463-.463v-.928a.463.463,0,1,1,.927,0v.928A.463.463,0,0,1,377.023,244.123Z" transform="translate(-376.56 -242.266)"/></g></g><g transform="translate(156.416 106.252)"><path class="c" d="M450.293,250.186a.463.463,0,0,1-.463-.463v-.93a.464.464,0,0,1,.928,0v.93A.464.464,0,0,1,450.293,250.186Z" transform="translate(-449.83 -248.329)"/><g transform="translate(0 2.769)"><path class="c" d="M450.293,293.477a.465.465,0,0,1-.463-.465v-1.839a.464.464,0,1,1,.928,0v1.839A.465.465,0,0,1,450.293,293.477Zm0-3.681a.463.463,0,0,1-.463-.463v-1.841a.464.464,0,1,1,.928,0v1.841A.464.464,0,0,1,450.293,289.8Zm0-3.681a.463.463,0,0,1-.463-.463v-1.841a.464.464,0,0,1,.928,0v1.841A.464.464,0,0,1,450.293,286.115Zm0-3.68a.465.465,0,0,1-.463-.465V280.13a.464.464,0,0,1,.928,0v1.841A.465.465,0,0,1,450.293,282.435Zm0-3.681a.465.465,0,0,1-.463-.465v-1.841a.464.464,0,0,1,.928,0v1.841A.465.465,0,0,1,450.293,278.754Zm0-3.681a.464.464,0,0,1-.463-.463v-1.842a.464.464,0,1,1,.928,0v1.842A.465.465,0,0,1,450.293,275.073Zm0-3.683a.463.463,0,0,1-.463-.463v-1.841a.464.464,0,0,1,.928,0v1.841A.464.464,0,0,1,450.293,271.39Zm0-3.68a.465.465,0,0,1-.463-.465v-1.841a.464.464,0,0,1,.928,0v1.841A.465.465,0,0,1,450.293,267.711Zm0-3.681a.465.465,0,0,1-.463-.465v-1.839a.464.464,0,1,1,.928,0v1.839A.465.465,0,0,1,450.293,264.029Zm0-3.681a.464.464,0,0,1-.463-.463v-1.841a.464.464,0,1,1,.928,0v1.841A.465.465,0,0,1,450.293,260.348Zm0-3.681a.464.464,0,0,1-.463-.464v-1.841a.464.464,0,0,1,.928,0V256.2A.464.464,0,0,1,450.293,256.667Zm0-3.681a.463.463,0,0,1-.463-.463v-1.841a.464.464,0,1,1,.928,0v1.841A.464.464,0,0,1,450.293,252.986Z" transform="translate(-449.83 -250.217)"/></g><g transform="translate(0 46.941)"><path class="c" d="M450.293,282.194a.465.465,0,0,1-.463-.465v-.93a.464.464,0,0,1,.928,0v.93A.465.465,0,0,1,450.293,282.194Z" transform="translate(-449.83 -280.336)"/></g></g></g><g transform="translate(522.111 49.789)"><path class="e" d="M406.87,173.63V158.462l-12.935-2.49a1.978,1.978,0,0,0-1.449.271l-.007-.015-6.45,3.725,8.4,1.7Z" transform="translate(-384.932 -121.459)"/><g transform="translate(15.371)"><path class="e" d="M490.509,270.156l.968-.557a6.189,6.189,0,0,0,2.8-4.851V187.8a6.193,6.193,0,0,0-2.8-4.851L405.13,133.1a6.189,6.189,0,0,0-5.6,0l-.966.559a6.19,6.19,0,0,0-2.8,4.85v76.948a6.193,6.193,0,0,0,2.8,4.852l86.346,49.851A6.189,6.189,0,0,0,490.509,270.156Z" transform="translate(-395.761 -132.427)"/><path class="b" d="M467.113,220.913V171.062a5.713,5.713,0,0,0-.82-2.76l-12.315,7.109v75.832l3.766,2.175a6.19,6.19,0,0,0,5.6,0l.972-.56a6.19,6.19,0,0,0,2.8-4.85Z" transform="translate(-368.597 -115.688)"/><path class="f" d="M398.562,135.592l86.346,49.852a6.185,6.185,0,0,1,2.8,4.85v76.948c0,1.786-1.254,2.509-2.8,1.616l-86.346-49.851a6.193,6.193,0,0,1-2.8-4.851V137.208C395.761,135.423,397.015,134.7,398.562,135.592Z" transform="translate(-395.761 -131.129)"/></g><path class="f" d="M400.653,176.217l-14.738-14.18a2.042,2.042,0,0,1,1.8-3.477l12.935,2.49Z" transform="translate(-385.28 -120.253)"/><g transform="translate(56.601 52.207)"><g transform="translate(2.025 6.613)"><path class="g" d="M426.365,182.768a1.285,1.285,0,0,1,.345.881c0,12.042,8.622,26.507,18.913,32.759,10.709,6.5,19.214,1.641,18.915-10.919-.271-11.363-7.557-25.095-17.175-31.664l.573-.33v-.962c10.147,7.188,18.057,21.729,18.057,33.8,0,12.969-9.137,18.244-20.37,11.759s-20.459-22.364-20.368-35.28C425.355,182.325,426.015,182.448,426.365,182.768Z" transform="translate(-425.255 -172.534)"/></g><path class="h" d="M423.874,183.857c0-14.128,9.954-19.875,22.188-12.811,5.366,3.1,10.546,8.329,14.584,14.729l-3.35,2.5a34.142,34.142,0,0,0-11.234-11.347c-9.424-5.441-17.093-1.013-17.093,9.87s7.669,24.165,17.093,29.608,17.095,1.013,17.095-9.87l5.095,2.942c0,14.128-9.954,19.875-22.19,12.811S423.874,197.985,423.874,183.857Z" transform="translate(-423.874 -168.025)"/><g transform="translate(9.267 11.986)"><path class="i" d="M443.1,177.96c7.128,4.115,12.906,14.123,12.906,22.354s-5.778,11.567-12.906,7.452-12.907-14.123-12.907-22.354S435.971,173.845,443.1,177.96Z" transform="translate(-430.193 -176.197)"/></g></g><g transform="translate(25.734 27.052)"><path class="b" d="M404.927,151.2,427,163.939a4.362,4.362,0,0,1,2.1,3.32c0,1.164-.94,1.566-2.1.9l-22.069-12.742a4.364,4.364,0,0,1-2.1-3.322C402.827,150.927,403.767,150.527,404.927,151.2Z" transform="translate(-402.827 -150.873)"/><path class="b" d="M404.927,158.635,427,171.377a4.364,4.364,0,0,1,2.1,3.322c0,1.165-.94,1.565-2.1.895l-22.069-12.742a4.359,4.359,0,0,1-2.1-3.32C402.827,158.367,403.767,157.965,404.927,158.635Z" transform="translate(-402.827 -147.402)"/><path class="b" d="M404.927,166.074,427,178.816a4.359,4.359,0,0,1,2.1,3.32c0,1.164-.94,1.565-2.1.9l-22.069-12.742a4.364,4.364,0,0,1-2.1-3.322C402.827,165.8,403.767,165.4,404.927,166.074Z" transform="translate(-402.827 -143.931)"/><path class="b" d="M404.927,173.512,427,186.254a4.364,4.364,0,0,1,2.1,3.32c0,1.164-.94,1.566-2.1.9l-22.069-12.742a4.362,4.362,0,0,1-2.1-3.32C402.827,173.244,403.767,172.842,404.927,173.512Z" transform="translate(-402.827 -140.46)"/><path class="b" d="M404.927,180.95,427,193.692a4.364,4.364,0,0,1,2.1,3.322c0,1.164-.94,1.565-2.1.895l-22.069-12.742a4.359,4.359,0,0,1-2.1-3.32C402.827,180.682,403.767,180.281,404.927,180.95Z" transform="translate(-402.827 -136.99)"/></g></g><g transform="translate(18.654)"><path class="e" d="M104.692,139.681V124.513l12.935-2.49a1.967,1.967,0,0,1,1.448.271l.009-.015,6.45,3.724-8.4,1.7Z" transform="translate(-12.744 -87.51)"/><path class="e" d="M45.765,236.207l-.966-.559A6.188,6.188,0,0,1,42,230.8V153.851A6.192,6.192,0,0,1,44.8,149l86.347-49.852a6.189,6.189,0,0,1,5.6,0l.966.559a6.19,6.19,0,0,1,2.8,4.85V181.5a6.191,6.191,0,0,1-2.8,4.852L51.366,236.207A6.189,6.189,0,0,1,45.765,236.207Z" transform="translate(-41.997 -98.478)"/><path class="b" d="M42,186.965V137.112a5.721,5.721,0,0,1,.821-2.76l12.315,7.11v75.832l-3.768,2.175a6.19,6.19,0,0,1-5.6,0l-.971-.562A6.188,6.188,0,0,1,42,214.06Z" transform="translate(-41.997 -81.74)"/><path class="f" d="M135.623,101.643,49.276,151.494a6.193,6.193,0,0,0-2.8,4.852v76.948c0,1.786,1.254,2.509,2.8,1.616l86.346-49.851a6.191,6.191,0,0,0,2.8-4.852V103.259C138.423,101.473,137.169,100.75,135.623,101.643Z" transform="translate(-39.907 -97.18)"/><path class="f" d="M109.17,142.268l14.738-14.182a2.041,2.041,0,0,0-1.8-3.476l-12.935,2.49Z" transform="translate(-10.655 -86.304)"/><g transform="translate(15.587 36.252)"><path class="h" d="M53.125,197.571V172.031a13.679,13.679,0,0,1,6.837-11.843h0a5.736,5.736,0,0,1,8.585,4.514h0a4.464,4.464,0,0,0,6.735,3.485h0a10.99,10.99,0,0,0,5.352-8.888L81.768,136.9a11.5,11.5,0,0,1,5.677-9.342h0a6.459,6.459,0,0,1,9.706,5.179l.767,12.472a3.855,3.855,0,0,0,5.775,3.1h0a12.322,12.322,0,0,0,6.078-9.247l.522-4.486a12.815,12.815,0,0,1,6.339-9.627h0a5.919,5.919,0,0,1,8.87,5.132v25.7Z" transform="translate(-52.392 -122.748)"/><g transform="translate(7.248 35.335)"><g transform="translate(0.908 1.308)"><path class="c" d="M58.649,150.039a.465.465,0,0,1-.463-.465v-.928a.464.464,0,0,1,.928,0v.928A.465.465,0,0,1,58.649,150.039Z" transform="translate(-58.186 -148.182)"/><g transform="translate(0 2.769)"><path class="c" d="M58.649,178.622a.464.464,0,0,1-.463-.463v-1.842a.464.464,0,1,1,.928,0v1.842A.465.465,0,0,1,58.649,178.622Zm0-3.683a.465.465,0,0,1-.463-.465v-1.841a.464.464,0,1,1,.928,0v1.841A.465.465,0,0,1,58.649,174.939Zm0-3.684a.464.464,0,0,1-.463-.463v-1.842a.464.464,0,0,1,.928,0v1.842A.465.465,0,0,1,58.649,171.255Zm0-3.683a.464.464,0,0,1-.463-.463v-1.842a.464.464,0,0,1,.928,0v1.842A.465.465,0,0,1,58.649,167.572Zm0-3.683a.465.465,0,0,1-.463-.465v-1.842a.464.464,0,0,1,.928,0v1.842A.465.465,0,0,1,58.649,163.89Zm0-3.684a.463.463,0,0,1-.463-.463V157.9a.464.464,0,0,1,.928,0v1.842A.464.464,0,0,1,58.649,160.206Zm0-3.683a.463.463,0,0,1-.463-.463v-1.842a.464.464,0,0,1,.928,0v1.842A.464.464,0,0,1,58.649,156.523Zm0-3.683a.464.464,0,0,1-.463-.463v-1.842a.464.464,0,1,1,.928,0v1.842A.465.465,0,0,1,58.649,152.84Z" transform="translate(-58.186 -150.07)"/></g><g transform="translate(0 32.234)"><path class="c" d="M58.649,172.018a.465.465,0,0,1-.463-.465v-.928a.464.464,0,0,1,.928,0v.928A.465.465,0,0,1,58.649,172.018Z" transform="translate(-58.186 -170.161)"/></g></g><path class="j" d="M58.938,147.478a3.032,3.032,0,0,0-1.371,2.376c0,.876.615,1.229,1.371.792a3.032,3.032,0,0,0,1.373-2.376C60.311,147.394,59.7,147.039,58.938,147.478Z" transform="translate(-57.567 -147.29)"/></g><g transform="translate(35.55 2.171)"><g transform="translate(0.908 1.308)"><path class="c" d="M77.947,127.426a.463.463,0,0,1-.463-.463v-.93a.464.464,0,0,1,.928,0v.93A.465.465,0,0,1,77.947,127.426Z" transform="translate(-77.484 -125.569)"/><g transform="translate(0 2.854)"><path class="c" d="M77.947,172.721a.463.463,0,0,1-.463-.463v-1.926a.464.464,0,0,1,.928,0v1.926A.464.464,0,0,1,77.947,172.721Zm0-3.85a.463.463,0,0,1-.463-.463v-1.927a.464.464,0,0,1,.928,0v1.927A.465.465,0,0,1,77.947,168.871Zm0-3.851a.463.463,0,0,1-.463-.463v-1.926a.464.464,0,0,1,.928,0v1.926A.464.464,0,0,1,77.947,165.02Zm0-3.85a.464.464,0,0,1-.463-.465v-1.924a.464.464,0,0,1,.928,0v1.924A.465.465,0,0,1,77.947,161.17Zm0-3.85a.464.464,0,0,1-.463-.465V154.93a.464.464,0,0,1,.928,0v1.926A.465.465,0,0,1,77.947,157.321Zm0-3.851a.463.463,0,0,1-.463-.463V151.08a.464.464,0,0,1,.928,0v1.926A.464.464,0,0,1,77.947,153.469Zm0-3.85a.464.464,0,0,1-.463-.465V147.23a.464.464,0,0,1,.928,0v1.924A.465.465,0,0,1,77.947,149.62Zm0-3.851a.463.463,0,0,1-.463-.463v-1.924a.464.464,0,1,1,.928,0V145.3A.464.464,0,0,1,77.947,145.768Zm0-3.85a.463.463,0,0,1-.463-.463v-1.926a.464.464,0,0,1,.928,0v1.926A.464.464,0,0,1,77.947,141.918Zm0-3.85a.463.463,0,0,1-.463-.463V135.68a.464.464,0,1,1,.928,0v1.926A.465.465,0,0,1,77.947,138.069Zm0-3.851a.463.463,0,0,1-.463-.463V131.83a.464.464,0,1,1,.928,0v1.924A.464.464,0,0,1,77.947,134.217Zm0-3.85a.463.463,0,0,1-.463-.463v-1.926a.464.464,0,0,1,.928,0V129.9A.465.465,0,0,1,77.947,130.368Z" transform="translate(-77.484 -127.515)"/></g><g transform="translate(0 49.058)"><path class="c" d="M77.947,160.876a.463.463,0,0,1-.463-.463v-.93a.464.464,0,0,1,.928,0v.93A.464.464,0,0,1,77.947,160.876Z" transform="translate(-77.484 -159.019)"/></g></g><path class="j" d="M78.236,124.865a3.034,3.034,0,0,0-1.371,2.376c0,.876.615,1.23,1.371.792a3.029,3.029,0,0,0,1.373-2.376C79.609,124.782,78.995,124.427,78.236,124.865Z" transform="translate(-76.865 -124.677)"/></g><g transform="translate(63.888)"><g transform="translate(0.908 1.307)"><path class="c" d="M97.271,125.946a.465.465,0,0,1-.465-.465v-.928a.464.464,0,1,1,.928,0v.928A.465.465,0,0,1,97.271,125.946Z" transform="translate(-96.806 -124.088)"/><g transform="translate(0 2.716)"><path class="c" d="M97.271,157.234a.464.464,0,0,1-.465-.463v-1.786a.464.464,0,1,1,.928,0v1.786A.464.464,0,0,1,97.271,157.234Zm0-3.573a.464.464,0,0,1-.465-.463v-1.786a.464.464,0,0,1,.928,0V153.2A.463.463,0,0,1,97.271,153.662Zm0-3.573a.464.464,0,0,1-.465-.463v-1.786a.464.464,0,0,1,.928,0v1.786A.463.463,0,0,1,97.271,150.089Zm0-3.573a.464.464,0,0,1-.465-.463v-1.786a.464.464,0,0,1,.928,0v1.786A.463.463,0,0,1,97.271,146.516Zm0-3.573a.464.464,0,0,1-.465-.463v-1.786a.464.464,0,0,1,.928,0v1.786A.463.463,0,0,1,97.271,142.944Zm0-3.573a.464.464,0,0,1-.465-.463v-1.786a.464.464,0,0,1,.928,0v1.786A.463.463,0,0,1,97.271,139.371Zm0-3.573a.465.465,0,0,1-.465-.463v-1.786a.464.464,0,1,1,.928,0v1.786A.464.464,0,0,1,97.271,135.8Zm0-3.573a.465.465,0,0,1-.465-.463v-1.786a.464.464,0,0,1,.928,0v1.786A.464.464,0,0,1,97.271,132.226Zm0-3.573a.465.465,0,0,1-.465-.463V126.4a.464.464,0,0,1,.928,0v1.786A.464.464,0,0,1,97.271,128.653Z" transform="translate(-96.806 -125.94)"/></g><g transform="translate(0 34.87)"><path class="c" d="M97.271,149.719a.464.464,0,0,1-.465-.463v-.928a.464.464,0,0,1,.928,0v.928A.464.464,0,0,1,97.271,149.719Z" transform="translate(-96.806 -147.864)"/></g></g><path class="j" d="M97.558,123.385a3.032,3.032,0,0,0-1.371,2.376c0,.874.615,1.229,1.373.792a3.037,3.037,0,0,0,1.371-2.376C98.931,123.3,98.317,122.946,97.558,123.385Z" transform="translate(-96.187 -123.197)"/></g><g transform="translate(0 42.332)"><path class="i" d="M53.36,195.315a.733.733,0,0,1-.368-1.368l72.376-41.786a.733.733,0,0,1,.733,1.27L53.725,195.217A.716.716,0,0,1,53.36,195.315Z" transform="translate(-52.625 -152.061)"/></g></g></g></g><g transform="translate(209.035 339.777)"><g transform="translate(0 91.004)"><path class="k" d="M240.991,325.729l-86.346,49.852a6.186,6.186,0,0,0-2.8,4.85v1.116a6.189,6.189,0,0,0,2.8,4.851l86.347,49.852a6.2,6.2,0,0,0,5.6,0L332.938,386.4a6.191,6.191,0,0,0,2.8-4.851v-1.116a6.193,6.193,0,0,0-2.8-4.85l-86.347-49.852A6.189,6.189,0,0,0,240.991,325.729Z" transform="translate(-151.846 -325.059)"/><path class="l" d="M240.991,325.729l-86.346,49.852a6.186,6.186,0,0,0-2.8,4.85v1.116a6.189,6.189,0,0,0,2.8,4.851l86.347,49.852a6.2,6.2,0,0,0,5.6,0L332.938,386.4a6.191,6.191,0,0,0,2.8-4.851v-1.116a6.193,6.193,0,0,0-2.8-4.85l-86.347-49.852A6.189,6.189,0,0,0,240.991,325.729Z" transform="translate(-151.846 -325.059)"/><g transform="translate(0 48.347)"><path class="k" d="M158.413,358.025l-3.768,2.175a6.186,6.186,0,0,0-2.8,4.85v1.116a6.189,6.189,0,0,0,2.8,4.852l86.347,49.852a5.728,5.728,0,0,0,2.8.669v-14.22Z" transform="translate(-151.846 -358.025)"/><path class="m" d="M158.413,358.025l-3.768,2.175a6.186,6.186,0,0,0-2.8,4.85v1.116a6.189,6.189,0,0,0,2.8,4.852l86.347,49.852a5.728,5.728,0,0,0,2.8.669v-14.22Z" transform="translate(-151.846 -358.025)"/></g><g transform="translate(1.639)"><path class="k" d="M240.47,325.729l-86.346,49.852c-1.547.893-1.547,2.341,0,3.234l86.347,49.852a6.2,6.2,0,0,0,5.6,0l86.346-49.852c1.546-.893,1.546-2.341,0-3.234l-86.347-49.852A6.189,6.189,0,0,0,240.47,325.729Z" transform="translate(-152.964 -325.059)"/><path class="n" d="M240.47,325.729l-86.346,49.852c-1.547.893-1.547,2.341,0,3.234l86.347,49.852a6.2,6.2,0,0,0,5.6,0l86.346-49.852c1.546-.893,1.546-2.341,0-3.234l-86.347-49.852A6.189,6.189,0,0,0,240.47,325.729Z" transform="translate(-152.964 -325.059)"/></g><g transform="translate(45.368 24.615)"><path class="o" d="M224.854,369.28l-40.513,3.7c-3.9-14.2,12.887-27.537,37.485-29.786,14.758-1.349,28.373,1.2,38.939,7.305l-28.386,16.388A21.854,21.854,0,0,1,224.854,369.28Z" transform="translate(-182.314 -341.375)"/><path class="c" d="M184.807,374.921a1.466,1.466,0,0,1-1.414-1.079A17.5,17.5,0,0,1,186.25,358.9c6.211-8.965,19.635-15.2,35.908-16.691,15.143-1.383,28.914,1.207,39.806,7.494a1.468,1.468,0,0,1,0,2.542l-28.386,16.388a23.284,23.284,0,0,1-8.125,2.58h0l-40.513,3.706C184.9,374.919,184.851,374.921,184.807,374.921Zm45.183-30.146q-3.711,0-7.566.352c-15.188,1.387-28.125,7.305-33.762,15.439a14.835,14.835,0,0,0-2.713,11.31l39.239-3.589a20.482,20.482,0,0,0,6.925-2.2l26.119-15.078C250.141,346.891,240.524,344.775,229.99,344.775Z" transform="translate(-182.78 -341.843)"/><g transform="translate(0.561 26.416)"><path class="p" d="M231.375,363.54l17.8,20.166c-22.191,6.528-49.345,1.434-60.651-11.378a18.673,18.673,0,0,1-4.36-7.747l40.513-3.7A8.954,8.954,0,0,1,231.375,363.54Z" transform="translate(-182.696 -359.388)"/><path class="c" d="M229.327,388.458c-16.876,0-33.218-5.378-41.439-14.691a20.231,20.231,0,0,1-4.674-8.33,1.467,1.467,0,0,1,1.28-1.849l40.513-3.7a10.458,10.458,0,0,1,7.933,3.152l17.8,20.167a1.467,1.467,0,0,1-.686,2.379A73.982,73.982,0,0,1,229.327,388.458ZM186.6,366.342a18.13,18.13,0,0,0,3.489,5.484c10.574,11.979,35.679,16.967,56.9,11.557l-16.243-18.4h0a7.511,7.511,0,0,0-5.466-2.173Z" transform="translate(-183.162 -359.855)"/></g><g transform="translate(46.966 21.997)"><path class="q" d="M217.962,361.547l40.513-3.7c3.117,11.362-6.314,22.049-24.065,27.27l-17.8-20.166C215.134,363.271,215.738,361.75,217.962,361.547Z" transform="translate(-214.338 -356.374)"/><path class="c" d="M234.876,387.045a1.472,1.472,0,0,1-1.1-.494l-17.8-20.167a3.291,3.291,0,0,1,2.317-5.831l40.513-3.7a1.463,1.463,0,0,1,1.549,1.072c3.344,12.193-6.5,23.6-25.067,29.066A1.483,1.483,0,0,1,234.876,387.045Zm-16.313-23.571a1.5,1.5,0,0,0-.849.255,2.613,2.613,0,0,0,.463.711L235.352,383.9c15.693-4.863,24.326-14.138,22.451-24.018Z" transform="translate(-214.804 -356.841)"/></g><g transform="translate(47.284 7.661)"><path class="r" d="M217.334,364.455l28.386-16.388c7.044,4.067,11.093,8.656,12.652,14.336l-40.513,3.7C215.635,366.311,215.4,365.571,217.334,364.455Z" transform="translate(-214.553 -346.6)"/><path class="c" d="M217.667,368.079a2.413,2.413,0,0,1-2.558-1.393c-.512-1.607,1.349-2.682,1.959-3.034l28.386-16.389a1.471,1.471,0,0,1,1.467,0c7.424,4.287,11.661,9.124,13.334,15.219a1.469,1.469,0,0,1-1.28,1.849l-40.513,3.7C218.277,368.053,217.992,368.079,217.667,368.079Zm28.514-17.848-25.362,14.644,36.055-3.3C255.188,357.222,251.742,353.572,246.18,350.231Z" transform="translate(-215.021 -347.067)"/></g></g><path class="s" d="M169.776,362.032l91.951,53.085,62.879-36.3c1.541-.893,1.54-2.338,0-3.229l-80.768-46.632-5.579-3.222a6.192,6.192,0,0,0-5.6,0Z" transform="translate(-143.48 -325.059)"/></g><g transform="translate(26.27 45.503)"><path class="k" d="M258.9,294.7l-86.347,49.852a6.19,6.19,0,0,0-2.8,4.85v1.116a6.19,6.19,0,0,0,2.8,4.85L258.9,405.225a6.189,6.189,0,0,0,5.6,0l86.346-49.852a6.19,6.19,0,0,0,2.8-4.85v-1.116a6.189,6.189,0,0,0-2.8-4.85L264.506,294.7A6.189,6.189,0,0,0,258.9,294.7Z" transform="translate(-169.758 -294.034)"/><path class="l" d="M258.9,294.7l-86.347,49.852a6.19,6.19,0,0,0-2.8,4.85v1.116a6.19,6.19,0,0,0,2.8,4.85L258.9,405.225a6.189,6.189,0,0,0,5.6,0l86.346-49.852a6.19,6.19,0,0,0,2.8-4.85v-1.116a6.189,6.189,0,0,0-2.8-4.85L264.506,294.7A6.189,6.189,0,0,0,258.9,294.7Z" transform="translate(-169.758 -294.034)"/><g transform="translate(0 48.347)"><path class="k" d="M176.325,327l-3.768,2.175a6.19,6.19,0,0,0-2.8,4.85v1.116a6.19,6.19,0,0,0,2.8,4.85L258.9,389.844a5.716,5.716,0,0,0,2.8.67v-14.22Z" transform="translate(-169.758 -327)"/><path class="m" d="M176.325,327l-3.768,2.175a6.19,6.19,0,0,0-2.8,4.85v1.116a6.19,6.19,0,0,0,2.8,4.85L258.9,389.844a5.716,5.716,0,0,0,2.8.67v-14.22Z" transform="translate(-169.758 -327)"/></g><g transform="translate(1.64)"><path class="k" d="M258.383,294.7l-86.347,49.852c-1.546.893-1.546,2.341,0,3.234l86.347,49.851a6.189,6.189,0,0,0,5.6,0l86.346-49.851c1.547-.893,1.547-2.341,0-3.234L263.984,294.7A6.189,6.189,0,0,0,258.383,294.7Z" transform="translate(-170.876 -294.034)"/><path class="n" d="M258.383,294.7l-86.347,49.852c-1.546.893-1.546,2.341,0,3.234l86.347,49.851a6.189,6.189,0,0,0,5.6,0l86.346-49.851c1.547-.893,1.547-2.341,0-3.234L263.984,294.7A6.189,6.189,0,0,0,258.383,294.7Z" transform="translate(-170.876 -294.034)"/></g><g transform="translate(26.27 33.495)"><path class="i" d="M213.941,320.318l17.718-3.41a1.607,1.607,0,0,1,1.984,1.64v3.542a1.759,1.759,0,0,0,2.008,1.789l28.823-3.328a1.17,1.17,0,0,1,1.346,1.678l-5.245,15.14a1.348,1.348,0,0,0,1.36,1.91h22.229a1.348,1.348,0,0,1,1.36,1.91l-5.906,17.049L253.347,373.4,187.67,335.486Z" transform="translate(-187.67 -316.873)"/><path class="h" d="M253.347,370.993l19.7-11.375,5.906-17.049c.365-1.052-.23-1.738-1.323-1.528l-35.436,6.82c-1.093.21-1.688-.478-1.323-1.528l5.245-15.14a1.172,1.172,0,0,0-1.346-1.678l-28.823,3.328c-1.1.128-1.553-.556-1-1.518l4.546-7.876c.556-.962.117-1.578-.974-1.368L200.8,325.492l-13.135,7.582Z" transform="translate(-187.67 -314.462)"/></g><path class="s" d="M187.669,331.007l91.951,53.085,62.879-36.3c1.541-.893,1.54-2.338,0-3.229l-80.768-46.632-5.579-3.222a6.192,6.192,0,0,0-5.6,0Z" transform="translate(-161.401 -294.034)"/></g><g transform="translate(52.539)"><path class="k" d="M276.817,263.678,190.47,313.531a6.19,6.19,0,0,0-2.8,4.85V319.5a6.193,6.193,0,0,0,2.8,4.852L276.817,374.2a6.2,6.2,0,0,0,5.6,0l86.346-49.852a6.193,6.193,0,0,0,2.8-4.852v-1.116a6.189,6.189,0,0,0-2.8-4.85l-86.346-49.852A6.188,6.188,0,0,0,276.817,263.678Z" transform="translate(-187.67 -263.008)"/><path class="l" d="M276.817,263.678,190.47,313.531a6.19,6.19,0,0,0-2.8,4.85V319.5a6.193,6.193,0,0,0,2.8,4.852L276.817,374.2a6.2,6.2,0,0,0,5.6,0l86.346-49.852a6.193,6.193,0,0,0,2.8-4.852v-1.116a6.189,6.189,0,0,0-2.8-4.85l-86.346-49.852A6.188,6.188,0,0,0,276.817,263.678Z" transform="translate(-187.67 -263.008)"/><g transform="translate(0 48.347)"><path class="k" d="M194.237,295.974l-3.768,2.175a6.19,6.19,0,0,0-2.8,4.85v1.116a6.193,6.193,0,0,0,2.8,4.852l86.347,49.852a5.732,5.732,0,0,0,2.8.669v-14.22Z" transform="translate(-187.67 -295.974)"/><path class="m" d="M194.237,295.974l-3.768,2.175a6.19,6.19,0,0,0-2.8,4.85v1.116a6.193,6.193,0,0,0,2.8,4.852l86.347,49.852a5.732,5.732,0,0,0,2.8.669v-14.22Z" transform="translate(-187.67 -295.974)"/></g><g transform="translate(1.64)"><path class="k" d="M276.295,263.678l-86.347,49.852c-1.546.893-1.546,2.341,0,3.234l86.347,49.852a6.2,6.2,0,0,0,5.6,0l86.346-49.852c1.547-.893,1.547-2.341,0-3.234L281.9,263.678A6.188,6.188,0,0,0,276.295,263.678Z" transform="translate(-188.788 -263.008)"/><path class="n" d="M276.295,263.678l-86.347,49.852c-1.546.893-1.546,2.341,0,3.234l86.347,49.852a6.2,6.2,0,0,0,5.6,0l86.346-49.852c1.547-.893,1.547-2.341,0-3.234L281.9,263.678A6.188,6.188,0,0,0,276.295,263.678Z" transform="translate(-188.788 -263.008)"/></g><g transform="translate(32.046 21.35)"><path class="h" d="M210.1,302.824,253.308,277.9a3.1,3.1,0,0,1,2.8,0l6.991,4.039a.853.853,0,0,1,0,1.616l-43.207,24.923a3.1,3.1,0,0,1-2.8,0L210.1,304.44A.853.853,0,0,1,210.1,302.824Z" transform="translate(-209.521 -277.566)"/><path class="i" d="M223.535,308.168l30.037-17.342a3.091,3.091,0,0,1,2.8,0l6.991,4.038a.854.854,0,0,1,0,1.618l-30.039,17.342a3.1,3.1,0,0,1-2.8,0l-6.991-4.039A.853.853,0,0,1,223.535,308.168Z" transform="translate(-203.252 -271.535)"/><path class="j" d="M236.969,319.543l49.741-28.717a3.088,3.088,0,0,1,2.8,0l6.993,4.038a.854.854,0,0,1,0,1.618L246.762,325.2a3.092,3.092,0,0,1-2.8,0l-6.991-4.038A.854.854,0,0,1,236.969,319.543Z" transform="translate(-196.984 -271.535)"/><path class="g" d="M250.4,322.474l23.47-13.55a3.088,3.088,0,0,1,2.8,0l6.991,4.038a.854.854,0,0,1,0,1.618L260.2,328.13a3.093,3.093,0,0,1-2.8,0l-6.991-4.038A.854.854,0,0,1,250.4,322.474Z" transform="translate(-190.716 -263.091)"/></g></g></g><g transform="translate(406.678 213.812)"><g transform="translate(33.319 55.893)"><path class="t" d="M338.757,253.681l-1.094-3.589c-11.859-.305-24.863,16.209-9.85,23.005C340.486,278.645,344.94,262.385,338.757,253.681Z" transform="translate(-306.833 -175.163)"/><path class="t" d="M361.634,259.472l-3.454,1.464c-10.643.845-20.254,14.7-7.865,20.853C365.161,288.942,369.478,268.37,361.634,259.472Z" transform="translate(-295.9 -170.784)"/><path class="u" d="M329.292,243.032C305.8,269.223,365.6,304.753,384.2,272.3,402.384,240.148,341.465,222.3,329.292,243.032Z" transform="translate(-305.503 -182.606)"/><path class="v" d="M328.857,243.032c-1.352,1.506-3.2,5.284-4.023,6.839,11.9-.682,19.893-3.163,31.957,2.173,17.9,7.917,26.677,20.776,26.974,20.257C401.949,240.148,341.03,222.3,328.857,243.032Z" transform="translate(-305.068 -182.606)"/><path class="w" d="M359.449,256.559c3.254.821,8.37,5.784,10.581,6.3,6.242,1.541,11.316,2.223,17.227-1.157,3.461-1.766,10.067-8.773,8.288-13.683-1.189-3.756-6.3-6.208-13.1-3.9-4.136,1.406-11.951,4.491-19.573,4.549Z" transform="translate(-288.917 -178.365)"/><path class="t" d="M385.649,214.387c16.091,3.552,6.773,22.393-4.893,24.54l-1.811-3.285C371.1,228.4,372.1,211.571,385.649,214.387Z" transform="translate(-282.122 -191.967)"/><path class="t" d="M346.083,200.524c-14.8-7.258-19.259,13.284-11.478,22.236l3.464-1.439C348.718,220.552,358.427,206.769,346.083,200.524Z" transform="translate(-302.269 -199)"/><path class="u" d="M406.719,243.287c4.014-36.3-52.966-57.809-75.591-20.236C320.34,240.967,338.2,253.47,358.383,261,380.978,269.428,406.885,270.491,406.719,243.287Z" transform="translate(-303.648 -196.962)"/><path class="w" d="M336.062,219.112c-6.073,5.007.132,19.636,7.342,20.018s16.235-17.174,12.047-20.771S343.963,213.319,336.062,219.112Z" transform="translate(-300.977 -191.437)"/><path class="w" d="M354.889,231.264c-7.12-1.868-5.245,4.542-1.5,5.85C357.679,238.617,361.08,233.12,354.889,231.264Z" transform="translate(-293.296 -184.104)"/><path class="w" d="M383.392,236.388c1.626,7.7-12.347,15.269-18.221,11.073s-1.986-23.552,3.533-23.751S380.828,226.932,383.392,236.388Z" transform="translate(-287.614 -187.474)"/><path class="x" d="M334.917,232.663c-.983,2.383,4.959,4.2,5.8,1.953C341.81,231.7,336.128,229.727,334.917,232.663Z" transform="translate(-300.414 -183.969)"/><path class="x" d="M368.537,244.458c-.719,2.477-6.5.2-5.753-2.088C363.75,239.407,369.42,241.408,368.537,244.458Z" transform="translate(-287.391 -179.443)"/><path class="w" d="M343.92,235.615c-9.806-4.708-19.8-2.317-25.306,1.692-3.244,2.138-9.036,9.832-6.729,14.515,1.6,3.6,6.95,5.475,13.453,2.427,2.329-1.091,5.863-2.9,9.919-4.387Z" transform="translate(-311.356 -183.126)"/><path class="y" d="M351.7,236.929" transform="translate(-292.534 -181.303)"/><path class="y" d="M354.9,238.326c-.864-.293-1.138-1.691-2.021-1.77-.858-.258-1.995.648-2.826.353a.569.569,0,0,0-.726.346c-.707,2.853,4.453,4.121,5.85,1.93A.573.573,0,0,0,354.9,238.326Z" transform="translate(-293.669 -181.498)"/><g transform="translate(52.593 52.805)"><path class="z" d="M354.349,235.005c.261,2.905-5.5,4.715-7.132,1.332" transform="translate(-347.217 -235.005)"/><path class="z" d="M352.241,235.215c-.892,1.986,1.439,5.88,5.184,5.4" transform="translate(-344.961 -234.907)"/></g><path class="aa" d="M368.616,230.371c5.291,1.138,1.569,8.907-1.983,7.648C362.42,236.526,364,229.476,368.616,230.371Z" transform="translate(-286.709 -184.399)"/><path class="w" d="M367.854,231.783c3.73.8,1.106,6.278-1.4,5.391C363.486,236.121,364.6,231.151,367.854,231.783Z" transform="translate(-286.454 -183.73)"/><g transform="translate(42.106 33.227)"><path class="aa" d="M345.147,222.1c-4.828-2.446-6.827,5.932-3.273,7.192C346.088,230.784,349.3,224.312,345.147,222.1Z" transform="translate(-340.067 -221.656)"/><path class="w" d="M343.751,223.244c3.731.8,1.107,6.278-1.4,5.391C339.383,227.583,340.5,222.613,343.751,223.244Z" transform="translate(-339.806 -220.94)"/></g></g><path class="k" d="M383.386,321.375l.968-.559a6.193,6.193,0,0,0,2.8-4.85v-99.7a6.188,6.188,0,0,0-2.8-4.85l-86.346-49.852a6.189,6.189,0,0,0-5.6,0l-.966.559a6.188,6.188,0,0,0-2.8,4.85v99.7a6.19,6.19,0,0,0,2.8,4.85l86.346,49.852A6.188,6.188,0,0,0,383.386,321.375Z" transform="translate(-288.638 -160.889)"/><path class="l" d="M383.386,321.375l.968-.559a6.193,6.193,0,0,0,2.8-4.85v-99.7a6.188,6.188,0,0,0-2.8-4.85l-86.346-49.852a6.189,6.189,0,0,0-5.6,0l-.966.559a6.188,6.188,0,0,0-2.8,4.85v99.7a6.19,6.19,0,0,0,2.8,4.85l86.346,49.852A6.188,6.188,0,0,0,383.386,321.375Z" transform="translate(-288.638 -160.889)"/><g transform="translate(85.379 52.612)"><path class="k" d="M359.99,249.376V199.523a5.734,5.734,0,0,0-.82-2.76l-12.316,7.11v98.589l3.768,2.175a6.19,6.19,0,0,0,5.6,0l.971-.56a6.189,6.189,0,0,0,2.8-4.849Z" transform="translate(-346.854 -196.763)"/><path class="m" d="M359.99,249.376V199.523a5.734,5.734,0,0,0-.82-2.76l-12.316,7.11v98.589l3.768,2.175a6.19,6.19,0,0,0,5.6,0l.971-.56a6.189,6.189,0,0,0,2.8-4.849Z" transform="translate(-346.854 -196.763)"/></g><g transform="translate(0 4.079)"><path class="k" d="M291.439,164.052,377.785,213.9a6.19,6.19,0,0,1,2.8,4.851v99.7c0,1.785-1.254,2.509-2.8,1.616l-86.346-49.852a6.19,6.19,0,0,1-2.8-4.85v-99.7C288.638,163.884,289.892,163.161,291.439,164.052Z" transform="translate(-288.638 -163.671)"/><path class="n" d="M291.439,164.052,377.785,213.9a6.19,6.19,0,0,1,2.8,4.851v99.7c0,1.785-1.254,2.509-2.8,1.616l-86.346-49.852a6.19,6.19,0,0,1-2.8-4.85v-99.7C288.638,163.884,289.892,163.161,291.439,164.052Z" transform="translate(-288.638 -163.671)"/></g><path class="ab" d="M295.355,239.087c2.693,1.553,6.809,1.861,9.917-5.726s5.888-13.7,9.693-11.148c2.656,1.785,2.3,4.214,4.68,5.588,3.731,2.153,6.653-7.12,7.97-15.776,1.87-12.289,3.681-15.506,7.028-13.654,4.976,2.753,4.549,10.928,4.549,18.441,0,6.73,0,10.232,3.653,11.728,2.415.99,4.765-4.847,5.731-9.345s3.07-6.664,5.227-5.418,4.483,4.218,4.6,16.124c.1,10.546.273,25.664.452,28.972a16.415,16.415,0,0,0,8.747,14.047v11.951l-72.244-41.71Z" transform="translate(-285.504 -143.627)"/><g transform="translate(9.484 53.522)"><path class="i" d="M367.349,273.791a17.152,17.152,0,0,1-9.113-14.642c-.188-3.476-.364-19.664-.452-29-.111-11.636-2.32-14.393-4.231-15.5a1.477,1.477,0,0,0-1.418-.122c-1.135.5-2.154,2.395-2.725,5.058-.807,3.756-2.546,8.56-4.793,9.747a2.228,2.228,0,0,1-1.933.125c-4.109-1.684-4.109-5.494-4.109-12.409l0-1.659c.029-6.784.057-13.8-4.177-16.141-.987-.547-1.494-.408-1.8-.263-2.024,1-3.282,7.676-4.149,13.386-.515,3.38-2.5,14.552-6.408,16.432a2.747,2.747,0,0,1-2.655-.131,6.448,6.448,0,0,1-2.5-2.9,6.623,6.623,0,0,0-2.222-2.71,2.063,2.063,0,0,0-1.845-.386c-2.481.754-4.956,6.792-6.76,11.2-1.521,3.713-3.452,5.992-5.742,6.774a6.236,6.236,0,0,1-5.221-.691l.733-1.272a4.88,4.88,0,0,0,4.014.573c1.87-.638,3.5-2.637,4.857-5.941,2.574-6.284,4.774-11.162,7.691-12.05a3.537,3.537,0,0,1,3.092.573,8.048,8.048,0,0,1,2.693,3.232,5.133,5.133,0,0,0,1.943,2.327,1.28,1.28,0,0,0,1.285.079c2.1-1.012,4.353-7.172,5.594-15.33,1.426-9.369,2.813-13.43,4.951-14.481a3.257,3.257,0,0,1,3.156.295c4.992,2.763,4.963,10.219,4.932,17.432l0,1.651c0,6.688,0,9.741,3.2,11.051a.756.756,0,0,0,.692-.063c1.392-.735,3.128-4.5,4.042-8.758.691-3.213,1.956-5.377,3.567-6.091a2.93,2.93,0,0,1,2.745.192c2.388,1.379,4.846,4.445,4.964,16.751.088,9.329.264,25.492.449,28.94.324,5.982,3.065,10.382,8.383,13.452Z" transform="translate(-295.105 -197.383)"/></g><path class="ac" d="M295.355,214.474c.028,2.575,5.091,16.177,16.555,16.873s15.693-12.076,21.248-9.02,4.514,12.223,9.687,15.346,10.728-14.38,16.977-11.6,4.073,21.921,7.777,25.418v25.642l-72.244-41.71Z" transform="translate(-285.504 -135.887)"/><g transform="translate(9.118 78.58)"><path class="h" d="M367.33,252.027c-1.777-1.676-2.282-6-2.869-11-.705-6.026-1.506-12.858-4.7-14.28-2.681-1.194-5.5,2.455-8.229,5.985-2.825,3.655-5.75,7.434-8.83,5.573-2.75-1.66-3.86-4.815-4.935-7.865-1.094-3.1-2.127-6.038-4.725-7.466-2.024-1.113-3.841.314-6.872,2.933-3.388,2.926-7.6,6.579-14.068,6.174-11.577-.7-17.208-14.318-17.243-17.595l1.467-.016c.023,2.166,4.687,15.47,15.866,16.149,5.846.342,9.831-3.071,13.02-5.824,2.963-2.558,5.519-4.765,8.537-3.106,3.089,1.7,4.265,5.036,5.4,8.264,1.034,2.936,2.011,5.708,4.31,7.1,1.951,1.179,4.365-1.923,6.911-5.215,2.933-3.79,6.261-8.082,9.986-6.428,3.961,1.763,4.774,8.722,5.564,15.451.5,4.323,1.03,8.794,2.417,10.1Z" transform="translate(-294.855 -214.469)"/></g><path class="k" d="M299.971,175.293a5.25,5.25,0,0,1,2.374,4.115c0,1.515-1.063,2.13-2.376,1.371a5.252,5.252,0,0,1-2.376-4.115C297.6,175.15,298.659,174.535,299.971,175.293Z" transform="translate(-284.459 -154.32)"/><path class="k" d="M302.073,178.715a3.746,3.746,0,0,0,1.75,2.907l16.2,9.354c.966.559,1.75.163,1.75-.884a3.752,3.752,0,0,0-1.751-2.907l-16.2-9.355C302.856,177.272,302.073,177.668,302.073,178.715Z" transform="translate(-282.369 -153.103)"/><path class="i" d="M299.971,183.049a5.252,5.252,0,0,1,2.374,4.115c0,1.515-1.063,2.13-2.376,1.371a5.25,5.25,0,0,1-2.376-4.115C297.6,182.905,298.659,182.292,299.971,183.049Z" transform="translate(-284.459 -150.701)"/><path class="k" d="M302.073,186.471a3.744,3.744,0,0,0,1.75,2.907l16.2,9.355c.966.557,1.75.161,1.75-.886a3.756,3.756,0,0,0-1.751-2.907l-16.2-9.354C302.856,185.028,302.073,185.424,302.073,186.471Z" transform="translate(-282.369 -149.484)"/></g><g transform="translate(194.406 151.869)"><g transform="translate(0 50.227)"><path class="ad" d="M194.257,205.665c-5.624,8.844-26.1,9.8-21.178,19.993s44.139,7.356,36.559-14.735C206.484,201.48,200.062,196.155,194.257,205.665Z" transform="translate(-87 -120.7)"/><path class="ae" d="M136.871,235.948c-3.281,3.251-13.494,6.152-8.493,13.843,2.191,3.713,7.569,1.442,12.032.947A54.406,54.406,0,0,1,136.871,235.948Z" transform="translate(-108.137 -104.234)"/><path class="af" d="M197.576,232.3c-11.863,4.746-33.928.238-35.116,10.914s50.3,24.675,53.148,5.22C217.98,234.673,210.863,226.132,197.576,232.3Z" transform="translate(-91.612 -106.887)"/><g transform="translate(19.599 78.343)"><path class="ag" d="M176.546,204.967c27.147,12.554,43.678,42.068,32.063,59.828-10.219,15.624-56.159,15.958-65.934,8.279-18.112-13.962-19.118-47.185-7.7-63.682C143.477,197.111,159.664,197.161,176.546,204.967Z" transform="translate(-127.509 -199.557)"/></g><path class="af" d="M176.211,242.26c-11.959,4.5-33.925-.462-35.332,10.188s49.781,25.708,53.028,6.314C196.563,245.053,189.621,236.368,176.211,242.26Z" transform="translate(-101.685 -102.163)"/><path class="ah" d="M127.839,223.931" transform="translate(-107.756 -109.841)"/><path class="ah" d="M127.839,223.931" transform="translate(-107.756 -109.841)"/><path class="ad" d="M176.543,204.967c-16.882-7.807-33.069-7.857-41.569,4.425-5.862,8.468-8.44,21.342-7.12,33.757,13.242-11.253,21.132-8.327,40.218-5.391,11.944,2.172,27.484.012,37.07-8.138A68.4,68.4,0,0,0,176.543,204.967Z" transform="translate(-107.907 -121.214)"/><path class="ai" d="M156.7,154.3c26.575.131,21.955,18.354,39.158,24.212,15.263,5.2,15.842,15.665,13.921,25.91-8.71,46.441-93.533,49.954-92.653-1.373C117.324,191.4,118.638,154.112,156.7,154.3Z" transform="translate(-112.759 -142.331)"/><path class="aj" d="M154.827,174.75c-9.932,2.257-19.79-1.8-21.285-10.948s1.148-14.4,11.621-17.413C156.333,143.178,166.853,171.893,154.827,174.75Z" transform="translate(-105.275 -146.139)"/><path class="ai" d="M156.7,154.3c26.575.131,21.955,18.354,39.158,24.212,15.263,5.2,15.842,15.665,13.921,25.91-8.71,46.441-93.533,49.954-92.653-1.373C117.324,191.4,118.638,154.112,156.7,154.3Z" transform="translate(-112.759 -142.331)"/><path class="w" d="M145.933,194.354c5.457,10.073,28.087,5.289,30.643-4.9s-20.006-27.983-26.314-23S139.859,181.452,145.933,194.354Z" transform="translate(-100.705 -137.065)"/><path class="ak" d="M143.249,171.957c-3.348,7.351-14.572,23.746-20.777,14.678-5.224-7.632-10.454-11.764-7.443-19.855C118.24,158.151,147.2,162.988,143.249,171.957Z" transform="translate(-114.145 -138.617)"/><path class="x" d="M152.583,195.683c.588,3.7,9.348,1.455,8.684-1.978C160.407,189.252,151.857,191.118,152.583,195.683Z" transform="translate(-96.231 -125.131)"/><path class="al" d="M159.073,176.081c-2.718-3.583-9.254-.06-7,3.845" transform="translate(-96.666 -132.862)"/><path class="w" d="M178.953,173.228c9.977-1.116,6.908,12.17,3.175,12.9C175.883,187.349,171.5,173.561,178.953,173.228Z" transform="translate(-85.734 -133.53)"/><path class="am" d="M172.477,188.427c1.566,4.178,9.477,6.485,10.97,2.612" transform="translate(-86.928 -126.407)"/><path class="an" d="M185.83,202.106c-7.51,11.809-34.852,13.083-28.28,26.7s58.944,9.823,48.821-19.677C202.156,196.518,193.582,189.408,185.83,202.106Z" transform="translate(-94.365 -123.143)"/></g><g transform="translate(75.818)"><path class="k" d="M169.61,272.376l-.966-.559a6.188,6.188,0,0,1-2.8-4.85v-99.7a6.191,6.191,0,0,1,2.8-4.851L254.99,112.56a6.2,6.2,0,0,1,5.6,0l.968.559a6.192,6.192,0,0,1,2.8,4.85v99.7a6.19,6.19,0,0,1-2.8,4.851l-86.346,49.851A6.189,6.189,0,0,1,169.61,272.376Z" transform="translate(-165.842 -111.891)"/><path class="l" d="M169.61,272.376l-.966-.559a6.188,6.188,0,0,1-2.8-4.85v-99.7a6.191,6.191,0,0,1,2.8-4.851L254.99,112.56a6.2,6.2,0,0,1,5.6,0l.968.559a6.192,6.192,0,0,1,2.8,4.85v99.7a6.19,6.19,0,0,1-2.8,4.851l-86.346,49.851A6.189,6.189,0,0,1,169.61,272.376Z" transform="translate(-165.842 -111.891)"/><g transform="translate(0 52.613)"><path class="k" d="M165.842,200.376V150.525a5.716,5.716,0,0,1,.821-2.76l12.315,7.11v98.587l-3.768,2.175a6.19,6.19,0,0,1-5.6,0l-.971-.562a6.188,6.188,0,0,1-2.8-4.849Z" transform="translate(-165.842 -147.765)"/><path class="m" d="M165.842,200.376V150.525a5.716,5.716,0,0,1,.821-2.76l12.315,7.11v98.587l-3.768,2.175a6.19,6.19,0,0,1-5.6,0l-.971-.562a6.188,6.188,0,0,1-2.8-4.849Z" transform="translate(-165.842 -147.765)"/></g><g transform="translate(6.569 4.079)"><path class="k" d="M259.468,115.055l-86.347,49.852a6.188,6.188,0,0,0-2.8,4.85v99.7c0,1.786,1.254,2.509,2.8,1.616l86.346-49.851a6.191,6.191,0,0,0,2.8-4.851v-99.7C262.268,114.886,261.014,114.162,259.468,115.055Z" transform="translate(-170.321 -114.672)"/><path class="n" d="M259.468,115.055l-86.347,49.852a6.188,6.188,0,0,0-2.8,4.85v99.7c0,1.786,1.254,2.509,2.8,1.616l86.346-49.851a6.191,6.191,0,0,0,2.8-4.851v-99.7C262.268,114.886,261.014,114.162,259.468,115.055Z" transform="translate(-170.321 -114.672)"/></g><g transform="translate(27.913 54.193)"><path class="h" d="M194.149,192.562c0-11.307,6.875-24.444,15.355-29.339V150.858c-7.617,4.4-14.346,12.563-19.14,23.223-8.559,19.036-6.93,38.774,3.642,44.084l5.837-12.982C196.37,203.434,194.149,198.986,194.149,192.562Z" transform="translate(-184.874 -147.902)"/><path class="i" d="M206.6,151.8v12.365c8.481-4.9,15.355.3,15.355,11.608s-6.874,24.442-15.355,29.339c-3.662,2.113-7.022,2.342-9.662,1.013L191.1,219.106c4.651,2.336,9.514,1.824,15.5-1.631,13.6-7.854,24.63-28.923,24.63-47.059S220.2,143.945,206.6,151.8Z" transform="translate(-181.97 -148.843)"/><path class="g" d="M206.6,210.612c13.6-7.854,24.628-28.923,24.628-47.059l-9.276,5.459c-.043,11.284-6.9,24.354-15.352,29.235-3.662,2.113-7.023,2.342-9.662,1.013L191.1,212.242C195.751,214.579,200.614,214.067,206.6,210.612Z" transform="translate(-181.97 -141.979)"/></g><g transform="translate(10.76 16.677)"><g transform="translate(0 32.084)"><path class="k" d="M175.555,153.419a5.252,5.252,0,0,0-2.376,4.115c0,1.515,1.065,2.13,2.376,1.371a5.25,5.25,0,0,0,2.376-4.115C177.931,153.275,176.867,152.662,175.555,153.419Z" transform="translate(-173.179 -141.427)"/><path class="k" d="M197.369,146.277a3.754,3.754,0,0,1-1.75,2.907l-16.2,9.355c-.966.557-1.75.161-1.75-.886a3.754,3.754,0,0,1,1.751-2.907l16.2-9.354C196.584,144.834,197.369,145.23,197.369,146.277Z" transform="translate(-171.086 -145.139)"/></g><g transform="translate(27.667 16.042)"><path class="i" d="M194.42,142.481a5.247,5.247,0,0,0-2.376,4.115c0,1.515,1.063,2.13,2.376,1.371a5.252,5.252,0,0,0,2.376-4.115C196.794,142.338,195.731,141.723,194.42,142.481Z" transform="translate(-192.044 -130.489)"/><path class="k" d="M216.232,135.339a3.742,3.742,0,0,1-1.75,2.905l-16.2,9.355c-.967.559-1.75.163-1.75-.884a3.754,3.754,0,0,1,1.751-2.907l16.2-9.355C215.449,133.9,216.232,134.292,216.232,135.339Z" transform="translate(-189.951 -134.201)"/></g><g transform="translate(55.333)"><path class="j" d="M213.284,131.542a5.256,5.256,0,0,0-2.376,4.115c0,1.516,1.065,2.13,2.377,1.373a5.254,5.254,0,0,0,2.374-4.115C215.66,131.4,214.6,130.785,213.284,131.542Z" transform="translate(-210.908 -119.55)"/><path class="k" d="M235.1,124.4a3.752,3.752,0,0,1-1.75,2.905l-16.2,9.355c-.966.557-1.751.161-1.75-.886a3.754,3.754,0,0,1,1.75-2.907l16.2-9.354C234.313,122.957,235.1,123.354,235.1,124.4Z" transform="translate(-208.814 -123.262)"/></g></g></g></g></g></svg>