<svg xmlns="http://www.w3.org/2000/svg" width="124.161" height="110.51" viewBox="0 0 124.161 110.51"><defs><style>.a{fill:#f07951;}.b,.j{fill:#2a3799;}.c{fill:#4e68c7;}.d{fill:#4b68c4;}.e{fill:#94bff0;}.f{fill:#fcfcfc;}.g,.l{fill:#0a5de2;}.h{fill:#afc6f5;}.i{fill:#fff;}.j{opacity:0.4;}.k{fill:#f7dada;}.l{opacity:0.2;}.m{fill:#3e3577;}.n{fill:#e0e7f1;}.o{fill:#4b63c1;}.p{fill:#c5d6ea;}.q{fill:#e2e7f1;}</style></defs><g transform="translate(92.108 17.963)"><path class="a" d="M378.452,182.14,378.338,178l.937-.008.527,4.151Z" transform="translate(-370.009 -162.785)"/><path class="b" d="M397.36,243.217l1.226,8.909a4.737,4.737,0,0,0,.83,2.1l4.875,6.867-.721,3.783h-1.126a.225.225,0,0,1-.135-.406l.355-.266a.509.509,0,0,0,.2-.369l.163-2.2-5.466-4.835a5.457,5.457,0,0,1-1.513-2.225l-1.963-9.415Z" transform="translate(-381.051 -208.518)"/><path class="a" d="M392.683,211.345c.017.07.035,1.822.035,1.822l1.384.421-.035-2.261Z" transform="translate(-380.066 -186.159)"/><path class="a" d="M367.861,184.149l-1.658.588-1.411-5.933.765-.344Z" transform="translate(-360.511 -163.115)"/><path class="c" d="M379.892,189.095l.707,3.761,2.007,5.247-2.342.721-1.593-5.871-.225-3.825Z" transform="translate(-370.084 -170.571)"/><path class="d" d="M387.894,245.422l-.142,11.106.382,10.172H384.52a.387.387,0,0,1-.382-.324h0a.387.387,0,0,1,.322-.447l2.222-.348-2.045-8.027a8.129,8.129,0,0,1-.245-1.66l-.452-10.521Z" transform="translate(-373.937 -210.03)"/><path class="a" d="M423.183,298.591l-.653,1.4-.63-.557.81-1.506Z" transform="translate(-400.551 -246.875)"/><path class="c" d="M393.185,215.265l.093-.984-1.622-.429-.3.544Z" transform="translate(-379.135 -187.929)"/><path class="e" d="M368.377,191.635l.869-.231a9.3,9.3,0,0,0,2.465,3.725l2.38,2.48,2.342,1.582a1.806,1.806,0,0,1,.733,1.027l1.979,7.341h0a7.9,7.9,0,0,1-6.428.735l-.311-.1-.222-8.806-2.531-2.473a12.591,12.591,0,0,1-2-5.078Z" transform="translate(-362.518 -172.19)"/><circle class="a" cx="0.996" cy="0.996" r="0.996" transform="translate(7.806 14.298)"/><ellipse class="a" cx="2.323" cy="2.323" rx="2.323" ry="2.323" transform="translate(11.624 21.281)"/><path class="a" d="M392.514,310.251l1.556-.165.03.793-1.407.075Z" transform="translate(-379.947 -255.402)"/><rect class="f" width="12.42" height="12.421" transform="translate(0.559 1.772)"/><path class="c" d="M365.625,190.193l2.251-.75.375.844-2.2.7Z" transform="translate(-361.095 -170.815)"/><path class="c" d="M377.015,188.345h2.11l-.047.563-2.157.047Z" transform="translate(-369.015 -170.045)"/><path class="g" d="M364.006,144.714H350.468V131.175h13.538Zm-12.979-.559h12.42V131.734h-12.42v12.421Z" transform="translate(-350.468 -129.962)"/><g transform="translate(3.073)"><path class="h" d="M372.439,127.116l-7.668,7.786L362.5,132.9l-1.748,1.983,4.147,3.657,9.425-9.562Z" transform="translate(-360.749 -127.116)"/></g><path class="a" d="M362.464,175.323a1,1,0,1,0,1-1A1,1,0,0,0,362.464,175.323Z" transform="translate(-358.879 -160.218)"/><path class="c" d="M396.7,199.111a2.572,2.572,0,0,0,.557-.665,1.909,1.909,0,0,0,.145-1.073,1.89,1.89,0,0,0-.34-.961c-.41-.529-1.179-.669-1.6-1.187-.167-.2-.271-.457-.455-.646a1.032,1.032,0,0,0-1.679,1.15,2.561,2.561,0,0,1,.91.068,1.993,1.993,0,0,1,.889.344,1.575,1.575,0,0,1,.482,1.107.592.592,0,0,1-.078.415c-.105.136-.294.164-.453.23a.9.9,0,0,0-.409.346.256.256,0,0,0-.049.207.224.224,0,0,0,.284.1c.106-.033.2-.108.3-.149a.572.572,0,0,1,.725.42.7.7,0,0,1-.441.758.913.913,0,0,1-.893-.172,3.17,3.17,0,0,0-.173.716,6.309,6.309,0,0,0,.959-.053,1.522,1.522,0,0,0,.779-.273,1.719,1.719,0,0,0,.288-.333A2.31,2.31,0,0,1,396.7,199.111Z" transform="translate(-380.454 -174.202)"/></g><g transform="translate(5.962 19.334)"><path class="c" d="M62.23,138.237h0c8.007-9.4,19.84-8.556,26.43,1.887h0C80.653,149.525,68.82,148.68,62.23,138.237Z" transform="translate(-62.23 -131.704)"/><g transform="translate(1.355 6.631)"><rect class="i" width="0.172" height="23.938" transform="matrix(0.073, -0.997, 0.997, 0.073, 0, 0.171)"/></g><g transform="translate(6.173 7.392)"><rect class="i" width="6.141" height="0.172" transform="matrix(0.744, -0.668, 0.668, 0.744, 0, 4.101)"/></g><g transform="translate(8.434 1.997)"><rect class="i" width="0.172" height="8.195" transform="translate(0 0.125) rotate(-46.572)"/></g><g transform="translate(17.81 2.86)"><rect class="i" width="0.172" height="8.145" transform="translate(0 0.128) rotate(-48.021)"/></g><g transform="translate(13.878 8.096)"><rect class="i" width="7.493" height="0.172" transform="translate(0 5.031) rotate(-42.183)"/></g></g><g transform="translate(72.129 33.914)"><path class="c" d="M299.791,181.043h0c.455,9.677-6.774,15.539-16.149,13.092h0C283.187,184.458,290.417,178.6,299.791,181.043Z" transform="translate(-283.622 -180.487)"/><g transform="translate(0.642 1.129)"><rect class="i" width="18.781" height="0.135" transform="matrix(0.778, -0.629, 0.629, 0.778, 0, 11.806)"/></g><g transform="translate(9.421 1.014)"><rect class="i" width="4.818" height="0.135" transform="matrix(0.087, -0.996, 0.996, 0.087, 0, 4.8)"/></g><g transform="translate(7.275 7.57)"><rect class="i" width="0.135" height="6.429" transform="translate(0 0.135) rotate(-89.688)"/></g><g transform="translate(1.482 12.137)"><rect class="i" width="6.39" height="0.135" transform="translate(0 0.127) rotate(-1.137)"/></g><g transform="translate(4.069 4.21)"><rect class="i" width="5.878" height="0.135" transform="matrix(0.082, -0.997, 0.997, 0.082, 0, 5.859)"/></g></g><g transform="translate(17.744 9.948)"><path class="e" d="M104.074,100.3h0c9.01,2.515,12.193,10.919,7.109,18.771h0C102.173,116.555,98.99,108.152,104.074,100.3Z" transform="translate(-101.653 -100.299)"/><g transform="translate(2.667 0.971)"><rect class="i" width="0.13" height="18.133" transform="translate(0 0.046) rotate(-20.658)"/></g><g transform="translate(0.923 5.821)"><rect class="i" width="0.13" height="4.652" transform="matrix(0.395, -0.919, 0.919, 0.395, 0, 0.119)"/></g><g transform="translate(6.157 4.395)"><rect class="i" width="6.208" height="0.13" transform="matrix(0.319, -0.948, 0.948, 0.319, 0, 5.883)"/></g><g transform="translate(8.704 11.116)"><rect class="i" width="6.17" height="0.13" transform="matrix(0.295, -0.956, 0.956, 0.295, 0, 5.895)"/></g><g transform="translate(2.251 11.638)"><rect class="i" width="0.13" height="5.676" transform="translate(0 0.12) rotate(-67.007)"/></g></g><g transform="translate(67.712 0)"><path class="b" d="M326.182,74.845l3.037,6.3,3.885,4.823-1.117.715-4.02-4.243-3.95-5.256Z" transform="translate(-307.528 -72.504)"/><path class="a" d="M328.237,73.7l1.789.46-.43,1.146-2-.435Z" transform="translate(-310.035 -71.703)"/><path class="d" d="M276.3,68.481l-1.564,2.961-1.3,5.535-4.589,8.945,1.86.25,4.184-5.781a6.9,6.9,0,0,0,.937-1.809l2.152-6.287Z" transform="translate(-268.842 -68.042)"/><path class="j" d="M291.1,75.674l-1.549,3.721-1.367-5.156.109-.464,1.006-1.9.223-.062s.624,1.653.775,2.006C290.37,73.977,290.729,74.806,291.1,75.674Z" transform="translate(-282.405 -70.375)"/><path class="k" d="M326.864,81.023l4.8,6.937-.951.153-5.823-5-1.316-6.93s-.177-2.134.792-2.066,1.508,1.209,1.508,1.209Z" transform="translate(-307.207 -71.993)"/><path class="k" d="M305.361,69.056a34.324,34.324,0,0,0-9.5-2.044l-1.979,4.812,10.782.851Z" transform="translate(-286.4 -67.012)"/><path class="d" d="M291.889,67.012l-.663.032a3.162,3.162,0,0,0-3,3.424l3.249,5.738a2.985,2.985,0,0,1,.384,1.617l-.349,7.386,1.835-.125,1.183-7.146a4.831,4.831,0,0,0-.118-2.155Z" transform="translate(-282.426 -67.012)"/><path class="a" d="M349.339,111.066a1.078,1.078,0,1,0,.98-1.213A1.1,1.1,0,0,0,349.339,111.066Z" transform="translate(-325.278 -97.046)"/><path class="a" d="M333.386,73.351a2.092,2.092,0,1,0,.573-2.972A2.141,2.141,0,0,0,333.386,73.351Z" transform="translate(-313.842 -69.149)"/><path class="a" d="M345.2,118.581a1.078,1.078,0,1,0,.98-1.213A1.1,1.1,0,0,0,345.2,118.581Z" transform="translate(-322.376 -102.316)"/><path class="b" d="M299.32,126.822l-.092.845,3.874-.054s.144-.528,0-.576-2.906-.288-2.906-.288Z" transform="translate(-290.147 -108.895)"/><path class="b" d="M269.028,126.822l-.092.845,3.874-.054s.144-.528,0-.576-2.906-.288-2.906-.288Z" transform="translate(-268.908 -108.895)"/><path class="c" d="M339.608,72.723a.756.756,0,0,0,.577-.419,1.683,1.683,0,0,0,.162-.719,1.091,1.091,0,0,0-.033-.38,3.71,3.71,0,0,0-.372-.594,2.018,2.018,0,0,1-.138-.366,4.871,4.871,0,0,0-.564-1.282,1.323,1.323,0,0,0-.281-.319,1.709,1.709,0,0,0-.547-.245.915.915,0,0,0-.956.068l-1.2.688a.856.856,0,0,0,.626.055,1.139,1.139,0,0,1,.636,0,.52.52,0,0,1,.063.931,2.763,2.763,0,0,1,.816.039,1.075,1.075,0,0,1,.668.439,1.468,1.468,0,0,1,.178.67,1.97,1.97,0,0,1-.01.534c-.03.157-.114.3-.142.457C339.046,72.548,339.362,72.743,339.608,72.723Z" transform="translate(-316.11 -67.916)"/></g><ellipse class="l" cx="14.256" cy="2.337" rx="14.256" ry="2.337" transform="translate(95.649 102.525)"/><g transform="translate(20.727 10.272)"><rect class="b" width="60.639" height="80.76" transform="translate(0 8.481)"/><rect class="f" width="75.247" height="55.126" transform="translate(57.882 11.238) rotate(90)"/><path class="m" d="M160.841,137.449a3.514,3.514,0,0,0,3.512,3.453h24.2a3.514,3.514,0,0,0,3.512-3.453Z" transform="translate(-146.134 -126.67)"/><path class="h" d="M191.312,107.682a2.463,2.463,0,0,0-2.4-1.908H180.84a4.392,4.392,0,0,0-8.783,0h-8.072a2.462,2.462,0,0,0-2.4,1.908l-.66,2.855a3.513,3.513,0,0,0,3.423,4.3h24.2a3.513,3.513,0,0,0,3.423-4.3Zm-14.449.163a2.112,2.112,0,1,1,1.658-1.658A2.114,2.114,0,0,1,176.863,107.846Z" transform="translate(-146.129 -101.383)"/><g transform="translate(6.614 20.415)"><path class="g" d="M142.53,181.085h-8.766v-8.766h8.766Zm-8.4-.362h8.042v-8.043h-8.042v8.043Z" transform="translate(-133.764 -171.534)"/><g transform="translate(1.99)"><path class="h" d="M147.991,169.691l-4.965,5.041-1.473-1.3-1.132,1.284,2.685,2.368,6.1-6.191Z" transform="translate(-140.421 -169.691)"/></g><g transform="translate(13.225 2.009)"><rect class="m" width="34.186" height="0.551"/></g><g transform="translate(13.225 4.216)"><rect class="m" width="34.186" height="0.551"/></g><g transform="translate(13.225 6.424)"><rect class="m" width="18.425" height="0.551"/></g><g transform="translate(0 14.608)"><path class="g" d="M142.53,229.964h-8.766V221.2h8.766Zm-8.4-.362h8.042V221.56h-8.042V229.6Z" transform="translate(-133.764 -220.413)"/><g transform="translate(1.99)"><path class="h" d="M147.991,218.57l-4.965,5.041-1.473-1.3-1.132,1.284,2.685,2.368,6.1-6.191Z" transform="translate(-140.421 -218.57)"/></g><g transform="translate(13.225 2.009)"><rect class="m" width="34.186" height="0.551"/></g><g transform="translate(13.225 4.216)"><rect class="m" width="34.186" height="0.551"/></g><g transform="translate(13.225 6.424)"><rect class="m" width="18.425" height="0.551"/></g></g><g transform="translate(0 30.002)"><path class="g" d="M142.53,278.843h-8.766v-8.766h8.766Zm-8.4-.362h8.042v-8.043h-8.042v8.043Z" transform="translate(-133.764 -270.077)"/><g transform="translate(13.225 1.223)"><rect class="m" width="34.186" height="0.551"/></g><g transform="translate(13.225 3.431)"><rect class="m" width="34.186" height="0.551"/></g><g transform="translate(13.225 5.639)"><rect class="m" width="18.425" height="0.551"/></g></g><g transform="translate(0 44.611)"><path class="g" d="M142.53,327.722h-8.766v-8.766h8.766Zm-8.4-.362h8.042v-8.043h-8.042v8.043Z" transform="translate(-133.764 -318.956)"/><g transform="translate(13.225 1.223)"><rect class="m" width="34.186" height="0.551"/></g><g transform="translate(13.225 3.431)"><rect class="m" width="34.186" height="0.551"/></g><g transform="translate(13.225 5.639)"><rect class="m" width="18.425" height="0.551"/></g></g></g></g><g transform="translate(98.253 74.222)"><g transform="translate(6.429 0.426)"><g transform="translate(8.957 0)"><rect class="b" width="0.367" height="29.751" transform="translate(0 0.06) rotate(-9.437)"/></g><g transform="translate(0 0)"><rect class="b" width="0.367" height="29.751" transform="translate(0 0.06) rotate(-9.438)"/></g><g transform="translate(1.221 6.084)"><rect class="b" width="9.036" height="0.367"/></g><g transform="translate(1.86 10.002)"><rect class="b" width="9.037" height="0.367"/></g><g transform="translate(2.501 13.921)"><rect class="b" width="9.036" height="0.367"/></g><g transform="translate(3.14 17.839)"><rect class="b" width="9.036" height="0.367"/></g><g transform="translate(3.78 21.758)"><rect class="b" width="9.036" height="0.367"/></g><g transform="translate(4.419 25.676)"><rect class="b" width="9.037" height="0.367"/></g></g><g transform="translate(0 0.426)"><g transform="translate(0 0)"><rect class="c" width="29.751" height="0.367" transform="translate(0 29.348) rotate(-80.56)"/></g><g transform="translate(8.956 0)"><rect class="c" width="29.751" height="0.367" transform="translate(0 29.348) rotate(-80.558)"/></g><g transform="translate(3.94 6.084)"><rect class="c" width="9.036" height="0.367"/></g><g transform="translate(3.301 10.002)"><rect class="c" width="9.036" height="0.367"/></g><g transform="translate(2.661 13.92)"><rect class="c" width="9.036" height="0.367"/></g><g transform="translate(2.021 17.839)"><rect class="c" width="9.036" height="0.367"/></g><g transform="translate(1.381 21.757)"><rect class="c" width="9.036" height="0.367"/></g><g transform="translate(0.742 25.676)"><rect class="c" width="9.036" height="0.367"/></g></g><g transform="translate(4.329)"><rect class="c" width="12.627" height="1.102"/></g></g><g transform="translate(12.435 98.894)"><rect class="b" width="86.394" height="0.598"/></g><g transform="translate(82.994 49.787)"><g transform="translate(0 14.155)"><path class="a" d="M338.017,429.425l.016.9-.906.048-.191-1Z" transform="translate(-331.867 -385.013)"/><path class="b" d="M334.679,431.856a.253.253,0,0,0-.332-.313.646.646,0,0,0-.225.2,2.11,2.11,0,0,1-.646.452,1.216,1.216,0,0,0-.617.493c-.068.147.09.314.244.363.57.183,1.158-.252,1.693-.521a.691.691,0,0,0,.389-.917c0-.032-.059-.04-.09-.033a.208.208,0,0,0-.082.051C334.911,431.717,334.779,431.769,334.679,431.856Z" transform="translate(-328.996 -386.527)"/><path class="a" d="M346.66,429.324l-.016.9.906.048.191-1Z" transform="translate(-338.673 -384.943)"/><path class="b" d="M347.038,431.754a.253.253,0,0,1,.332-.312.644.644,0,0,1,.224.2,2.113,2.113,0,0,0,.646.452,1.215,1.215,0,0,1,.617.493c.068.147-.09.313-.244.363-.57.183-1.158-.253-1.693-.521a.69.69,0,0,1-.389-.917c0-.033.059-.041.09-.033a.211.211,0,0,1,.082.051C346.806,431.616,346.938,431.668,347.038,431.754Z" transform="translate(-338.584 -386.456)"/><path class="n" d="M323.8,310.135l-1.1-11.358-1.183-3.391a10.084,10.084,0,0,1-.543-3.967l.306-4.789,1.1-.158.9,5.319,1.627,6.2,3.944.316,2.03-4.717a10.465,10.465,0,0,0,.453-1.274l1.618-5.682,1.1.158-.385,5.942a4.7,4.7,0,0,1-.406,1.628l-2.207,4.892.158,10.569Z" transform="translate(-320.656 -284.825)"/><path class="d" d="M337.389,368.283l-1.077,11.4h-1.491l-.107-10.762-.63-8.193-1.076.046-.3,7.775.3,11.133h-1.582l-1.467-11.3-.169-9.962,7.6.1Z" transform="translate(-326.851 -335.275)"/><path class="a" d="M322.126,282.035a1.076,1.076,0,1,1-1.076-1.076A1.076,1.076,0,0,1,322.126,282.035Z" transform="translate(-319.974 -280.959)"/><path class="a" d="M362.13,282.476a1.1,1.1,0,1,1-1.1-1.1A1.1,1.1,0,0,1,362.13,282.476Z" transform="translate(-347.986 -281.25)"/><path class="a" d="M338.3,309.425a2.168,2.168,0,1,1-2.168-2.168A2.168,2.168,0,0,1,338.3,309.425Z" transform="translate(-329.786 -299.397)"/><path class="o" d="M339,305.924a6.987,6.987,0,0,0-1.382-1,3.178,3.178,0,0,0-1.644-.392,1.114,1.114,0,0,0-.684.237,1.16,1.16,0,0,0-.172,1.409,2.119,2.119,0,0,1,1.106-.47,1.232,1.232,0,0,1,.622.078,1.385,1.385,0,0,1,.578.572,3.349,3.349,0,0,1,.441,1.161.837.837,0,0,0,.073.261.244.244,0,0,0,.218.137c.065-.005.124-.047.19-.051a.232.232,0,0,1,.216.211.675.675,0,0,1-.062.322l-.241.655a2.488,2.488,0,0,0,.923-1.412C339.315,307.082,339.433,306.3,339,305.924Z" transform="translate(-330.468 -297.483)"/></g><g transform="translate(0.447)"><rect class="f" width="12.42" height="12.421" transform="translate(0.559 1.772)"/><path class="g" d="M335.008,251.195H321.47V237.656h13.538Zm-12.979-.559h12.42V238.215h-12.42v12.421Z" transform="translate(-321.47 -236.443)"/><g transform="translate(3.073)"><path class="h" d="M343.441,233.6l-7.668,7.786-2.275-2.006-1.748,1.983,4.147,3.657,9.425-9.562Z" transform="translate(-331.751 -233.597)"/></g></g><g transform="translate(0 14.155)"><path class="n" d="M323.8,310.135l-1.1-11.358-1.183-3.391a10.084,10.084,0,0,1-.543-3.967l.306-4.789,1.1-.158.9,5.319,1.627,6.2,3.944.316,2.03-4.717a10.465,10.465,0,0,0,.453-1.274l1.618-5.682,1.1.158-.385,5.942a4.7,4.7,0,0,1-.406,1.628l-2.207,4.892.158,10.569Z" transform="translate(-320.656 -284.825)"/><path class="a" d="M322.126,282.035a1.076,1.076,0,1,1-1.076-1.076A1.076,1.076,0,0,1,322.126,282.035Z" transform="translate(-319.974 -280.959)"/><path class="a" d="M362.13,282.476a1.1,1.1,0,1,1-1.1-1.1A1.1,1.1,0,0,1,362.13,282.476Z" transform="translate(-347.986 -281.25)"/><path class="a" d="M338.3,309.425a2.168,2.168,0,1,1-2.168-2.168A2.168,2.168,0,0,1,338.3,309.425Z" transform="translate(-329.786 -299.397)"/><path class="o" d="M339,305.924a6.987,6.987,0,0,0-1.382-1,3.178,3.178,0,0,0-1.644-.392,1.114,1.114,0,0,0-.684.237,1.16,1.16,0,0,0-.172,1.409,2.119,2.119,0,0,1,1.106-.47,1.232,1.232,0,0,1,.622.078,1.385,1.385,0,0,1,.578.572,3.349,3.349,0,0,1,.441,1.161.837.837,0,0,0,.073.261.244.244,0,0,0,.218.137c.065-.005.124-.047.19-.051a.232.232,0,0,1,.216.211.675.675,0,0,1-.062.322l-.241.655a2.488,2.488,0,0,0,.923-1.412C339.315,307.082,339.433,306.3,339,305.924Z" transform="translate(-330.468 -297.483)"/><path class="a" d="M338.44,318.467v2.288a.637.637,0,0,0,1.274.028l.085-2.473Z" transform="translate(-332.921 -307.148)"/><path class="p" d="M346.609,293.408l.385-5.942-.19-.027a14.6,14.6,0,0,0-.755,2.864,29.234,29.234,0,0,0-1.582,4.754,11.231,11.231,0,0,1-.453,2.363c-.276.688-.769,1.267-1.1,1.932s-.417,5.3-.607,5.784c-.386.97-2.57,1.756-2.8,2.382a2.389,2.389,0,0,0,1.113,2.69,3.415,3.415,0,0,0,.959.4l2.569-.109L344,299.927l2.207-4.892A4.7,4.7,0,0,0,346.609,293.408Z" transform="translate(-333.599 -285.502)"/><path class="a" d="M338.017,429.425l.016.9-.906.048-.191-1Z" transform="translate(-331.867 -385.013)"/><path class="b" d="M334.679,431.856a.253.253,0,0,0-.332-.313.646.646,0,0,0-.225.2,2.11,2.11,0,0,1-.646.452,1.216,1.216,0,0,0-.617.493c-.068.147.09.314.244.363.57.183,1.158-.252,1.693-.521a.691.691,0,0,0,.389-.917c0-.032-.059-.04-.09-.033a.208.208,0,0,0-.082.051C334.911,431.717,334.779,431.769,334.679,431.856Z" transform="translate(-328.996 -386.527)"/><path class="a" d="M346.66,429.324l-.016.9.906.048.191-1Z" transform="translate(-338.673 -384.943)"/><path class="b" d="M347.038,431.754a.253.253,0,0,1,.332-.312.644.644,0,0,1,.224.2,2.113,2.113,0,0,0,.646.452,1.215,1.215,0,0,1,.617.493c.068.147-.09.313-.244.363-.57.183-1.158-.253-1.693-.521a.69.69,0,0,1-.389-.917c0-.033.059-.041.09-.033a.211.211,0,0,1,.082.051C346.806,431.616,346.938,431.668,347.038,431.754Z" transform="translate(-338.584 -386.456)"/><path class="d" d="M337.389,368.283l-1.077,11.4h-1.491l-.107-10.762-.63-8.193-1.076.046-.3,7.775.3,11.133h-1.582l-1.467-11.3-.169-9.962,7.6.1Z" transform="translate(-326.851 -335.275)"/></g></g><g transform="translate(1.862 59.816)"><path class="c" d="M58.767,291.53a1.245,1.245,0,0,0-1.019.279,1.384,1.384,0,0,0-.571,1.386,1.446,1.446,0,0,0,.626.787,1.385,1.385,0,0,0,.5.221,1.567,1.567,0,0,0,1.3-.518c.276-.261.934-.851.531-1.224-.2-.182-.437-.332-.646-.5A1.937,1.937,0,0,0,58.767,291.53Z" transform="translate(-54.562 -284.227)"/><path class="q" d="M52.825,296.273l.447-6.169-.69-4.541-2.343-13.381,1.132-.162,2.587,11.8,4.042.323,4.2-11.965,1.132.162-3.072,12.773L59.184,290l.127,5.95Z" transform="translate(-49.722 -270.565)"/><path class="a" d="M52.671,277.955l-1.339.47-1.093-6.242,1.132-.162Z" transform="translate(-49.722 -270.565)"/><path class="a" d="M84.463,277.5l1.569.619,1.3-5.4-1.132-.162Z" transform="translate(-73.718 -270.945)"/><path class="a" d="M66.912,311.85l1.16,2.06.584-1.921Z" transform="translate(-61.413 -298.491)"/><path class="a" d="M91.2,268.122a.97.97,0,1,1-.97-.97A.97.97,0,0,1,91.2,268.122Z" transform="translate(-77.082 -267.152)"/><path class="a" d="M50.452,268.728a.97.97,0,1,1-.97-.97A.97.97,0,0,1,50.452,268.728Z" transform="translate(-48.512 -267.577)"/><path class="a" d="M67.026,297a2.112,2.112,0,1,1-2.112-2.112A2.112,2.112,0,0,1,67.026,297Z" transform="translate(-58.53 -286.599)"/><path class="a" d="M67.777,308.656V307.2h1.146v1.69l-.544.4Z" transform="translate(-62.019 -295.228)"/><path class="c" d="M64.1,293.251l.058,0a2.815,2.815,0,0,0,.695-.207c.336-.117.921-.232.985.286.045.357-.343.522-.591.678a2.127,2.127,0,0,0-.82-.106,2.641,2.641,0,0,0-1.1.178,1.124,1.124,0,0,0-.681.826,1.9,1.9,0,0,0,.036.535,1.3,1.3,0,0,1,0,.535c-.047.173-.228.869-.4.9a.468.468,0,0,1-.385-.117.925.925,0,0,1-.233-.341,3.186,3.186,0,0,1-.267-1.4,1.933,1.933,0,0,1,2.179-1.825A3.089,3.089,0,0,0,64.1,293.251Z" transform="translate(-57.546 -285.233)"/><path class="a" d="M65.2,300.758a.754.754,0,1,1-.754-.754A.754.754,0,0,1,65.2,300.758Z" transform="translate(-59.153 -290.186)"/><path class="p" d="M63.279,321.762a3.447,3.447,0,0,1-2.426.168,8.246,8.246,0,0,0-.783-.339.832.832,0,0,0-.795.276,1.108,1.108,0,0,0-.163.47l.381,2.509-.06.825a6.162,6.162,0,0,0,2.681.458l1.816.031a1.568,1.568,0,0,0,.812-.131,1.5,1.5,0,0,0,.555-.757c.04-.093.076-.189.114-.283l-.005-.248.692-3.135A2.831,2.831,0,0,1,63.279,321.762Z" transform="translate(-55.944 -305.308)"/><path class="c" d="M54.041,401.572a3.6,3.6,0,0,0,.042.49q.1.752.2,1.505a1.22,1.22,0,0,0,.186.594.418.418,0,0,0,.552.128.573.573,0,0,0,.152-.209,5.052,5.052,0,0,0,.539-2.344c-.009-.571-.2-1.149-.824-1.285S54.044,401.046,54.041,401.572Z" transform="translate(-52.388 -360.6)"/><path class="a" d="M56.483,337.848l6.184-.289,4.757,21.306,1.943-1.167-2.423,3.086L60.61,343.222l.1,7.965-4.295,5.69-.274,2.054-.06.462a.419.419,0,0,1-.465.362h0a.419.419,0,0,1-.369-.4l-.123-2.774,3.324-5.406L56.1,342.23Z" transform="translate(-53.144 -316.516)"/><path class="c" d="M58.179,332.281a7.937,7.937,0,0,0,3,.544,11.973,11.973,0,0,0,2.913-.649s.862,3.98,1.528,6.644a44.46,44.46,0,0,1,.952,5.488,9.745,9.745,0,0,1-7.327,1.078s-2.157-5.488-2-7.613A47.652,47.652,0,0,1,58.179,332.281Z" transform="translate(-54.629 -312.742)"/><path class="c" d="M95.844,404.616c.1-.178.188-.43.032-.562a.342.342,0,0,0-.351-.018,1.414,1.414,0,0,0-.634.847c-.733,1.844-1.144,1.149-1.827,1.522-.47.256-.281.479.147.891C93.95,408.007,95.54,405.16,95.844,404.616Z" transform="translate(-79.556 -363.098)"/></g><path class="l" d="M61.864,411.906c0,.886-4.384,1.6-9.791,1.6s-9.791-.718-9.791-1.6,4.384-1.6,9.791-1.6S61.864,411.019,61.864,411.906Z" transform="translate(-42.282 -307.702)"/><g transform="translate(1.748 46.177)"><path class="g" d="M61.668,239.115H48.13V225.576H61.668Zm-12.979-.559h12.42V226.135H48.689v12.421Z" transform="translate(-48.13 -224.363)"/><g transform="translate(3.073)"><path class="h" d="M70.1,221.518,62.434,229.3,60.159,227.3l-1.748,1.983,4.147,3.657,9.425-9.562Z" transform="translate(-58.412 -221.518)"/></g></g></svg>