<svg xmlns="http://www.w3.org/2000/svg" xmlns:xlink="http://www.w3.org/1999/xlink" width="532.28" height="575.63" viewBox="0 0 532.28 575.63"><defs><style>.a,.o,.z{fill:none;}.b{fill:#e0e0e0;}.c{fill:#37474f;}.d{fill:#263238;}.e,.f{fill:#27debf;}.f,.z{stroke:#fff;}.f,.i,.j,.k,.o{stroke-miterlimit:10;}.g{fill:#455a64;}.h,.x,.y{fill:#fff;}.i,.k{fill:#171818;}.i,.j,.k,.o{stroke:#191818;}.i,.j,.o{stroke-width:0.418px;}.j,.p{fill:#edeaea;}.k{stroke-width:0.499px;}.l{fill:#191818;}.m{fill:#f5ccc4;}.n{fill:#d16969;}.q{fill:#f5f5f5;}.r{fill:#fafafa;}.s,.v{opacity:0.15;}.t{clip-path:url(#a);}.u,.w{opacity:0.4;}.x{opacity:0.7;}.aa,.y{opacity:0.5;}.z{stroke-linecap:round;stroke-linejoin:round;stroke-width:1.053px;}</style><clipPath id="a"><path class="a" d="M252.479,289.328l-26.236,15.148-16.127,9.3a17.189,17.189,0,0,0-1.519.88,21.376,21.376,0,0,0-10.249,18.392l-.014,75.393a21.336,21.336,0,0,1-8.65,17.3,21.84,21.84,0,0,1-13.048,4.384,21.481,21.481,0,0,1-10.783-2.932,64.969,64.969,0,0,1-32.479-56.257V292.734a64.956,64.956,0,0,0-32.481-56.257L220,167.71h0a65.02,65.02,0,0,1,32.494,56.284V258.06C252.492,267.8,252.479,289.328,252.479,289.328Z" transform="translate(-100.894 -167.71)"/></clipPath></defs><g transform="translate(0 0)"><g transform="translate(0 324.172)"><ellipse class="b" cx="55.187" cy="31.862" rx="55.187" ry="31.862" transform="translate(393.193 54.486)"/><path class="b" d="M115,371.539,361.854,514.065l113.14-65.321L228.09,306.188Z" transform="translate(-18.895 -262.606)"/><path class="b" d="M91.314,408.806l-51.089-29.5c-1.513-.874-1.513-2.292,0-3.165L219.883,272.421a6.054,6.054,0,0,1,5.482,0l51.086,29.5c1.514.875,1.514,2.292,0,3.166L96.8,408.806A6.053,6.053,0,0,1,91.314,408.806Z" transform="translate(-39.091 -271.765)"/></g><g transform="translate(39.22 0)"><g transform="translate(17.363 10.575)"><path class="c" d="M240.928,24.823,89.292,112.357a12.233,12.233,0,0,0-5.509,9.556V463.88c0,3.513,2.473,4.945,5.509,3.18l151.636-87.535a12.231,12.231,0,0,0,5.509-9.556V28C246.436,24.49,243.964,23.059,240.928,24.823ZM238.5,338.46c0,3.007-2.11,4.924-4.726,6.428L95.9,424.486c-2.6,1.5-4.727.29-4.727-2.732V153.878a10.5,10.5,0,0,1,4.727-8.2L233.772,66.1c2.616-1.518,4.726-.289,4.726,2.718Z" transform="translate(-83.783 -24.067)"/></g><g transform="translate(0 92.968)"><path class="d" d="M92.253,450.094a12.343,12.343,0,0,1-10.349-.342L75.6,446.108a12.154,12.154,0,0,1-5.529-9.556V94.606a10.419,10.419,0,0,1,.955-4.122,13.251,13.251,0,0,1,.656-1.324.014.014,0,0,0,.014-.014L89.045,99.167h.014a15.116,15.116,0,0,0-.956,2.021,10.036,10.036,0,0,0-.668,3.413v341.97C87.434,449.807,89.536,451.282,92.253,450.094Z" transform="translate(-70.069 -89.146)"/></g><path class="e" d="M150.884,315.913c4.807-2.775,8.705-.525,8.705,5.026s-3.9,12.3-8.705,15.079-8.705.525-8.705-5.026S146.076,318.689,150.884,315.913Z" transform="translate(-50.884 63.837)"/><g transform="translate(81.335 61.967)"><path d="M148.8,65.165c2.041-1.179,3.7-.223,3.7,2.135a8.171,8.171,0,0,1-3.7,6.4c-2.042,1.18-3.7.224-3.7-2.133A8.168,8.168,0,0,1,148.8,65.165Z" transform="translate(-131.442 -64.66)"/><path d="M137.4,86.375,165.938,69.9c1.7-.982,3.083-.285,3.083,1.56a6.612,6.612,0,0,1-3.083,5.121L137.395,93.056c-1.7.982-3.083.284-3.083-1.56A6.615,6.615,0,0,1,137.4,86.375Z" transform="translate(-134.312 -63.386)"/></g><path class="f" d="M236.946,329.543c0,3.007-2.11,4.924-4.726,6.426l-137.874,79.6c-2.6,1.5-4.727.289-4.727-2.732V144.96a10.5,10.5,0,0,1,4.727-8.2L232.22,57.179c2.616-1.518,4.726-.289,4.726,2.718Z" transform="translate(-64.868 -4.856)"/><g transform="translate(1.624)"><path class="g" d="M249.689,29.35c-.4-2.868-2.689-3.9-5.447-2.308L92.594,114.58A11.231,11.231,0,0,0,88.7,118.7L71.352,108.682a11.175,11.175,0,0,1,3.9-4.1l151.62-87.551a12.177,12.177,0,0,1,11.031,0l6.335,3.631A12.37,12.37,0,0,1,249.689,29.35Z" transform="translate(-71.352 -15.715)"/></g><g transform="translate(55.823 136.63)"><path class="h" d="M124.187,155.281a9.284,9.284,0,0,1,4.326-1.415,5.085,5.085,0,0,1,3.382,1.089,7.38,7.38,0,0,1,2.232,3.389,17.907,17.907,0,0,1,.908,5.421q.038,1.09.037,2.014V169.3c0,.6-.011,1.258-.037,1.975a30.449,30.449,0,0,1-.891,6.488,28.411,28.411,0,0,1-2.18,5.91,23.486,23.486,0,0,1-3.315,4.954,16.947,16.947,0,0,1-4.291,3.56l-9.271,5.354a.5.5,0,0,1-.651-.048,1.125,1.125,0,0,1-.275-.846V162.5a2.693,2.693,0,0,1,.275-1.162,1.727,1.727,0,0,1,.651-.8Zm4.5,11.94q-.207-5.961-4.67-3.383l-3.5,2.022v20.086l3.674-2.121q4.324-2.5,4.5-8.674c.022-.755.034-1.457.034-2.109v-3.779C128.718,168.627,128.705,167.948,128.684,167.221Z" transform="translate(-114.161 -115.59)"/><path class="h" d="M146.408,142.767q.687-.4,1.047-.024a2.017,2.017,0,0,1,.5.876l7.484,28.98a2.639,2.639,0,0,1,.138.715,2.206,2.206,0,0,1-.223.947,1.4,1.4,0,0,1-.532.651l-4.326,2.5q-.687.4-.98.116a1.2,1.2,0,0,1-.36-.665l-.961-3.832-9.132,5.273-.962,4.941a3.923,3.923,0,0,1-.361,1.081,2.319,2.319,0,0,1-.98,1.014l-4.325,2.5a.406.406,0,0,1-.533-.035.925.925,0,0,1-.222-.691,4.582,4.582,0,0,1,.137-.871l7.485-37.623a6.862,6.862,0,0,1,.5-1.451,2.54,2.54,0,0,1,1.047-1.186Zm-5.562,26.311,5.562-3.211-2.78-11.082Z" transform="translate(-109.5 -118.597)"/><path class="h" d="M168.861,130.344a.5.5,0,0,1,.652.047,1.132,1.132,0,0,1,.275.844v5.6a2.712,2.712,0,0,1-.275,1.163,1.747,1.747,0,0,1-.652.8l-6.043,3.489v27.116a2.712,2.712,0,0,1-.275,1.163,1.768,1.768,0,0,1-.652.8l-4.5,2.6a.5.5,0,0,1-.652-.047,1.125,1.125,0,0,1-.273-.846V145.958l-6.044,3.489a.5.5,0,0,1-.652-.047,1.121,1.121,0,0,1-.275-.846v-5.6a2.684,2.684,0,0,1,.275-1.164,1.741,1.741,0,0,1,.652-.8Z" transform="translate(-104.76 -121.874)"/><path class="h" d="M179.195,123.837c.458-.263.806-.271,1.048-.024a2.034,2.034,0,0,1,.5.876l7.484,28.981a2.582,2.582,0,0,1,.138.714,2.187,2.187,0,0,1-.223.947,1.414,1.414,0,0,1-.532.652l-4.326,2.5q-.687.4-.979.116a1.194,1.194,0,0,1-.361-.663l-.961-3.834-9.132,5.273-.962,4.943a3.928,3.928,0,0,1-.361,1.08,2.316,2.316,0,0,1-.979,1.014l-4.326,2.5a.406.406,0,0,1-.533-.037.924.924,0,0,1-.222-.69,4.575,4.575,0,0,1,.137-.872l7.485-37.623a6.852,6.852,0,0,1,.5-1.45,2.55,2.55,0,0,1,1.047-1.188Zm-5.562,26.311,5.562-3.211-2.78-11.082Z" transform="translate(-100.777 -123.633)"/></g></g><g transform="translate(374.549 266.865)"><path class="i" d="M381.079,324.453l-3.4-4.6c-17.207,5.6-27.495,35.971-2.446,38.094C396.28,359.468,394.4,333.818,381.079,324.453Z" transform="translate(-328.192 -201.664)"/><path class="i" d="M423,321.432l-4.221,3.864c-14.872,6.637-21.635,31.45-.687,33.992C443.087,362.009,438.816,330.23,423,321.432Z" transform="translate(-316.326 -201.243)"/><path class="j" d="M360.742,311.953C340.3,361.581,444.394,382.2,454.6,326.069,464.369,270.578,367.685,275.951,360.742,311.953Z" transform="translate(-328.77 -211.036)"/><path class="k" d="M360.669,311.953c-1.176,2.856-1.908,9.229-2.3,11.883,16.768-7.044,26.992-14.681,47.057-13.153,29.764,2.266,48.94,16.283,49.1,15.385C464.295,270.578,367.612,275.951,360.669,311.953Z" transform="translate(-328.696 -211.036)"/><path class="l" d="M420.42,314.829c5.1-.477,14.98,4.054,18.424,3.668,9.76-.962,17.4-2.568,24.179-10.436,4.078-4.3,10.006-17.744,4.949-23.9-3.626-4.795-12.226-5.716-20.825,1.072-5.231,4.129-14.9,12.545-25.825,16.512Z" transform="translate(-312.187 -212.171)"/><path class="i" d="M438.192,231.011c24.948-3.09,21.147,28.748,5.466,37.778l-4.277-3.8C424.411,258.573,417.283,233.862,438.192,231.011Z" transform="translate(-310.927 -225.356)"/><path class="i" d="M362.981,231.3c-24.972-2.9-20.924,28.912-5.174,37.819l4.248-3.835C376.974,258.755,383.913,233.989,362.981,231.3Z" transform="translate(-332.22 -225.273)"/><path class="j" d="M469.731,266.76c-12.717-54.238-105.6-56.142-119,9.407-6.386,31.256,25.659,40.136,58.518,40.681C446.034,317.458,483.826,305.791,469.731,266.76Z" transform="translate(-330.945 -226.5)"/><path class="l" d="M360.122,267.053c-6.183,10.292,10.192,28.167,20.752,25.043s14.6-32.964,6.742-36S368.53,254.7,360.122,267.053Z" transform="translate(-328.59 -218.978)"/><path class="l" d="M399.1,275.94c-11.188.939-5.226,9.2.818,9.178C406.86,285.091,408.951,275.455,399.1,275.94Z" transform="translate(-319.532 -213.351)"/><path class="l" d="M443.951,266.722c6.263,10.244-9.974,28.244-20.558,25.2s-14.851-32.851-7.018-35.952S435.449,254.431,443.951,266.722Z" transform="translate(-314.334 -219.025)"/><path class="m" d="M367.634,289.349c-.2,3.926,9.269,3.518,9.333-.146C377.052,284.451,367.879,284.509,367.634,289.349Z" transform="translate(-326.232 -210.755)"/><path class="m" d="M429.133,289.111c.23,3.926-9.242,3.591-9.335-.072C419.678,284.286,428.849,284.274,429.133,289.111Z" transform="translate(-312.353 -210.809)"/><path class="l" d="M375.477,293.718c-16.5-1.775-29.656,6.754-35.523,15.324-3.577,4.726-7.985,18.739-2.281,24.3,4.132,4.365,12.782,4.332,20.58-3.363,2.792-2.756,6.954-7.156,12.026-11.36Z" transform="translate(-334.931 -208.68)"/><path class="n" d="M398.427,286.528" transform="translate(-318.038 -210.529)"/><path class="n" d="M403.063,287.386c-1.391.019-2.5-1.851-3.81-1.515-1.364.066-2.536,1.948-3.883,1.948a.868.868,0,0,0-.867.866c.437,4.463,8.5,3.659,9.4-.2A.876.876,0,0,0,403.063,287.386Z" transform="translate(-319.083 -210.715)"/><g transform="translate(70.184 71.656)"><path class="o" d="M399.943,283.1c1.855,4.044-5.511,9.583-9.576,5.548" transform="translate(-390.367 -283.098)"/><path class="o" d="M398.224,283.388c-.27,3.309,5.064,7.723,10.207,5.125" transform="translate(-388.279 -283.021)"/></g><path class="p" d="M421.37,266.427c8.186-1.06,6.792,12.007,1.043,12.007C415.6,278.434,414.273,267.492,421.37,266.427Z" transform="translate(-313.194 -215.894)"/><path class="l" d="M421.336,268.99c5.771-.747,4.788,8.464.736,8.464C417.266,277.454,416.334,269.74,421.336,268.99Z" transform="translate(-312.831 -215.207)"/><g transform="translate(46.238 50.472)"><path class="p" d="M377.2,266.427c-8.187-1.06-6.794,12.007-1.044,12.007C382.977,278.434,384.3,267.492,377.2,266.427Z" transform="translate(-371.453 -266.366)"/><path class="l" d="M376.153,268.99c5.771-.747,4.788,8.464.736,8.464C372.083,277.454,371.151,269.74,376.153,268.99Z" transform="translate(-371.09 -265.679)"/></g></g><g transform="translate(67.416 176.805)"><path class="g" d="M96.617,235.976l135.347-78.141,0,18.753L96.616,254.732Z" transform="translate(-91.203 -154.708)"/><path class="d" d="M100.894,237.134v6.249l124.519-71.891v-6.252Z" transform="translate(-90.064 -152.738)"/><path class="c" d="M97.754,236.633l-5.414-3.126,135.348-78.142,5.412,3.127Z" transform="translate(-92.34 -155.365)"/><path class="d" d="M92.34,217.087l5.414,3.126v18.755l-5.412-3.127Z" transform="translate(-92.34 -138.944)"/><g transform="translate(10.83 15.629)"><path class="c" d="M429.539,412.8,310.421,481.525v-3.052l119.1-68.727Z" transform="translate(-45.149 -103.316)"/><path class="q" d="M252.479,289.328l-26.236,15.148-16.127,9.3a17.189,17.189,0,0,0-1.519.88,21.376,21.376,0,0,0-10.249,18.392l-.014,75.393a21.336,21.336,0,0,1-8.65,17.3,21.84,21.84,0,0,1-13.048,4.384,21.481,21.481,0,0,1-10.783-2.932,64.969,64.969,0,0,1-32.479-56.257V292.734a64.956,64.956,0,0,0-32.481-56.257L220,167.71h0a65.02,65.02,0,0,1,32.494,56.284V258.06C252.492,267.8,252.479,289.328,252.479,289.328Z" transform="translate(-100.894 -167.71)"/><path class="g" d="M295.795,487.776a64.934,64.934,0,0,1-32.479-56.244l-.008-75.44a64.773,64.773,0,0,0-5.1-25.23,66.672,66.672,0,0,0-3.6-7.251,64.971,64.971,0,0,0-23.776-23.764h0a21.651,21.651,0,0,0-32.468,18.767l0,7.684-.016-7.7-.014,75.393,0-15.686v15.659a21.671,21.671,0,0,1-32.483,18.781,64.968,64.968,0,0,1-32.48-56.257V278.283a64.963,64.963,0,0,0-32.481-56.257v3.118a62.448,62.448,0,0,1,29.814,53.139v78.206a67.814,67.814,0,0,0,33.814,58.562,24.068,24.068,0,0,0,24.323,0c.466-.266.919-.546,1.372-.852l.041-.027A24.052,24.052,0,0,0,201,393.994l.013-75.393A18.986,18.986,0,0,1,229.5,302.153a62.421,62.421,0,0,1,31.147,53.939v17.5l.005,57.936a67.829,67.829,0,0,0,33.814,58.562l71.7,41.376v-3.052Z" transform="translate(-100.894 -153.259)"/><path class="r" d="M462.318,458.4l-119.1,68.726-70.371-40.64a64.933,64.933,0,0,1-32.479-56.244l-.006-75.44a64.8,64.8,0,0,0-5.1-25.23,66.7,66.7,0,0,0-3.6-7.251,64.97,64.97,0,0,0-23.776-23.764,21.4,21.4,0,0,0-20.713-.519l16.127-9.3L235.737,270l69.453-40.091.172-.106a21.427,21.427,0,0,1,21.618.013,64.96,64.96,0,0,1,32.48,56.258l.006,75.426a64.971,64.971,0,0,0,32.481,56.257Z" transform="translate(-77.942 -151.967)"/><path class="b" d="M242.161,339.8a62.421,62.421,0,0,0-31.147-53.939A18.986,18.986,0,0,0,182.531,302.3l-.013,75.393a24.052,24.052,0,0,1-10.742,20.18l-.041.027c-.453.306-.906.586-1.372.852l71.8-41.456Z" transform="translate(-82.412 -136.963)"/><path class="s" d="M242.161,339.8a62.421,62.421,0,0,0-31.147-53.939A18.986,18.986,0,0,0,182.531,302.3l-.013,75.393a24.052,24.052,0,0,1-10.742,20.18l-.041.027c-.453.306-.906.586-1.372.852l71.8-41.456Z" transform="translate(-82.412 -136.963)"/></g><g transform="translate(10.83 15.629)"><g class="t"><g transform="translate(19.514 11.728)"><path class="e" d="M117.948,234.387a9.271,9.271,0,0,0,10.113.762l84.99-49.07c3.187-1.841,3.94-5.283,1.446-7.433s-7.272-2.186-10.46-.347L119,227.395C115.817,229.235,115.441,232.245,117.948,234.387Z" transform="translate(-116.307 -176.974)"/><g transform="translate(69.218 14.02)"><path class="u" d="M171.926,212.88a.945.945,0,0,1-.475-1.762l39.739-22.943a.944.944,0,1,1,.944,1.634L172.4,212.754A.95.95,0,0,1,171.926,212.88Z" transform="translate(-170.979 -188.048)"/></g><g transform="translate(72.285 19.137)"><path class="u" d="M174.348,216.921a.945.945,0,0,1-.474-1.762l39.738-22.943a.944.944,0,1,1,.944,1.634l-39.738,22.943A.938.938,0,0,1,174.348,216.921Z" transform="translate(-173.402 -192.09)"/></g><g transform="translate(74.862 24.465)"><path class="u" d="M176.383,221.13a.945.945,0,0,1-.474-1.762l39.739-22.943a.944.944,0,0,1,.944,1.634L176.855,221A.941.941,0,0,1,176.383,221.13Z" transform="translate(-175.437 -196.298)"/></g><g transform="translate(76.931 30.008)"><path class="u" d="M178.018,225.507a.944.944,0,0,1-.473-1.762L217.281,200.8a.944.944,0,1,1,.944,1.636l-39.736,22.942A.938.938,0,0,1,178.018,225.507Z" transform="translate(-177.072 -200.676)"/></g><g transform="translate(78.444 35.439)"><path class="u" d="M179.213,229.8a.945.945,0,0,1-.475-1.762l39.737-22.943a.944.944,0,0,1,.944,1.636l-39.736,22.942A.938.938,0,0,1,179.213,229.8Z" transform="translate(-178.266 -204.965)"/></g><g transform="translate(79.465 41.276)"><path class="u" d="M180.02,234.408a.945.945,0,0,1-.475-1.762L219.283,209.7a.944.944,0,0,1,.944,1.636L180.491,234.28A.942.942,0,0,1,180.02,234.408Z" transform="translate(-179.073 -209.576)"/></g><g transform="translate(80.021 47.506)"><path class="u" d="M180.459,239.328a.945.945,0,0,1-.475-1.762l39.739-22.943a.944.944,0,0,1,.944,1.636L180.93,239.2A.938.938,0,0,1,180.459,239.328Z" transform="translate(-179.512 -214.496)"/></g><g transform="translate(23.644 59.755)"><path class="u" d="M135.649,281.173a.666.666,0,0,1-.334-1.243l96.42-55.668a.666.666,0,1,1,.667,1.153l-96.42,55.668A.665.665,0,0,1,135.649,281.173Z" transform="translate(-134.982 -224.172)"/><path class="u" d="M135.649,285.875a.666.666,0,0,1-.334-1.242l96.42-55.671a.666.666,0,1,1,.667,1.153l-96.42,55.67A.652.652,0,0,1,135.649,285.875Z" transform="translate(-134.982 -222.921)"/><path class="u" d="M135.649,290.576a.667.667,0,0,1-.334-1.243l96.42-55.67a.666.666,0,1,1,.667,1.153l-96.42,55.669A.664.664,0,0,1,135.649,290.576Z" transform="translate(-134.982 -221.671)"/><path class="u" d="M135.649,295.277a.666.666,0,0,1-.334-1.243l96.42-55.668a.666.666,0,1,1,.667,1.152l-96.42,55.669A.665.665,0,0,1,135.649,295.277Z" transform="translate(-134.982 -220.42)"/></g><g transform="translate(9.591 55.471)"><g transform="translate(14.052 21.827)"><path class="u" d="M135.649,268.835a.667.667,0,0,1-.334-1.243l51.046-29.474a.666.666,0,0,1,.667,1.153l-51.046,29.474A.665.665,0,0,1,135.649,268.835Z" transform="translate(-134.982 -238.028)"/></g><g transform="translate(13.095 14.309)"><path class="e" d="M134.411,236.241a62.825,62.825,0,0,1,4.727,12.063,62.193,62.193,0,0,1,2.209,13.2.963.963,0,0,0,1.565.828l2.838-1.638a2.9,2.9,0,0,0,1.333-2.5,67.71,67.71,0,0,0-2.389-13.589,73.2,73.2,0,0,0-4.568-11.673,1.609,1.609,0,0,0-2.242-.628l-2.792,1.612A1.777,1.777,0,0,0,134.411,236.241Z" transform="translate(-134.226 -232.09)"/></g><g transform="translate(21.435 2.694)"><path class="e" d="M141.077,226.9a67.086,67.086,0,0,1,6.83,14.562,62.914,62.914,0,0,1,3.049,15.936.952.952,0,0,0,1.547.831l2.837-1.638a2.93,2.93,0,0,0,1.346-2.5,68.16,68.16,0,0,0-3.1-15.907A65.372,65.372,0,0,0,146.8,223.72a1.8,1.8,0,0,0-2.366-.585l-2.825,1.57A1.516,1.516,0,0,0,141.077,226.9Z" transform="translate(-140.814 -222.915)"/></g><path class="e" d="M155.377,232.391" transform="translate(-115.504 -217.7)"/><path class="e" d="M159.519,230.5l-2.789,1.61a2.163,2.163,0,0,0-.928,2.417,65,65,0,0,1,2.533,14.353.951.951,0,0,0,1.547.829l2.837-1.638a2.93,2.93,0,0,0,1.346-2.5,67.776,67.776,0,0,0-2.614-14.313A1.265,1.265,0,0,0,159.519,230.5Z" transform="translate(-115.413 -218.257)"/><path class="e" d="M168.911,221.711a1.426,1.426,0,0,0-2.084-.715l-2.811,1.6a1.948,1.948,0,0,0-.813,2.364q.763,1.91,1.47,3.97a62.914,62.914,0,0,1,3.049,15.936.951.951,0,0,0,1.547.831l2.837-1.638a2.932,2.932,0,0,0,1.345-2.5,68.1,68.1,0,0,0-3.1-15.907Q169.677,223.63,168.911,221.711Z" transform="translate(-113.456 -220.788)"/><path class="u" d="M140.561,259.878a.469.469,0,0,0-.644-.172l-1.188.685c-.26-1.638-.566-3.26-.938-4.855l1.605-.927a.472.472,0,0,0-.471-.818l-1.376.794c-.4-1.607-.846-3.2-1.361-4.754l1.528-.881a.472.472,0,0,0-.472-.818l-1.375.794c-.527-1.518-1.093-3.018-1.728-4.486l-.054-.122,1.515-.875a.471.471,0,1,0-.471-.817l-1.431.825q-.989-2.228-2.19-4.426l1.512-.874a.471.471,0,1,0-.471-.817l-1.5.865c-.8-1.414-1.67-2.817-2.6-4.207l1.7-.981a.472.472,0,1,0-.472-.817l-1.759,1.014c-1-1.456-2.064-2.9-3.2-4.318a.472.472,0,1,0-.737.59q1.66,2.076,3.118,4.2l-1.621.936a.472.472,0,0,0,.235.881.48.48,0,0,0,.235-.063l1.679-.97q1.4,2.083,2.6,4.206l-1.883,1.088a.471.471,0,1,0,.471.817l1.869-1.079q1.2,2.2,2.186,4.427l-1.948,1.125a.472.472,0,1,0,.472.817l1.862-1.075.008.016c.651,1.5,1.231,3.04,1.765,4.6l-1.993,1.15a.472.472,0,0,0,.235.881.466.466,0,0,0,.235-.063l1.841-1.062c.51,1.561.95,3.154,1.343,4.763l-1.975,1.141a.472.472,0,0,0,.235.881.464.464,0,0,0,.235-.063l1.745-1.006c.366,1.6.662,3.226.914,4.869l-2.138,1.234a.472.472,0,1,0,.472.817l1.826-1.055q.414,2.989.575,6.061a.472.472,0,0,0,.472.448h.024a.471.471,0,0,0,.447-.5c-.115-2.2-.334-4.375-.642-6.516l1.5-.865A.471.471,0,0,0,140.561,259.878Z" transform="translate(-123.883 -218.679)"/></g><g transform="translate(21.882 106.677)"><g class="v" transform="translate(8.091 9.528)"><g transform="translate(0.667 0.667)"><path class="e" d="M140.973,341.615a76.767,76.767,0,0,1-.429-10.734c.387-1.374,6.138-21.11,16.717-27.262a7.226,7.226,0,0,1,2.085-.871,3.9,3.9,0,0,1,.866-.1c2.8,0,4.062,3.9,5.278,7.676a38.2,38.2,0,0,0,1.67,4.538c.72,1.515,1.948,3.534,4.283,3.534a5.916,5.916,0,0,0,2.9-.9c5.086-2.9,6.548-10.745,8.1-19.054a93.965,93.965,0,0,1,2.5-11c1.543-4.85,3.544-7.852,6.3-9.449a4.883,4.883,0,0,1,2.354-.768c2.947,0,4.063,5.252,5.143,10.328a42.282,42.282,0,0,0,2.142,7.78c1.075,2.447,2.488,3.637,4.317,3.637a6.148,6.148,0,0,0,3.05-.957c6.242-3.6,8.131-9.712,9.956-15.618,1.552-5.015,3.016-9.751,7.133-12.146a6.165,6.165,0,0,1,3.061-.961,3.851,3.851,0,0,1,1.347.238,26.332,26.332,0,0,1,.2,2.827L230,284.309c.111,2.286.263,4.084.475,5.63Z" transform="translate(-140.508 -269.286)"/></g><path d="M231.343,290.43c-.267-1.786-.427-3.812-.533-5.985l-.067-11.955a27.363,27.363,0,0,0-.253-3.292,4.537,4.537,0,0,0-1.96-.439h0a6.774,6.774,0,0,0-3.4,1.052c-9.183,5.345-5.678,21.178-17.087,27.762a5.522,5.522,0,0,1-2.716.87c-1.7,0-2.849-1.286-3.708-3.241-2.685-6.058-2.612-18.506-7.9-18.506a5.481,5.481,0,0,0-2.688.86c-3.265,1.891-5.224,5.5-6.6,9.822-3.4,10.663-3.2,25.643-10.29,29.681a5.287,5.287,0,0,1-2.57.809c-1.686,0-2.8-1.3-3.68-3.155-2.194-4.6-2.965-12.593-7.549-12.593a4.588,4.588,0,0,0-1.007.119,7.854,7.854,0,0,0-2.279.946c-11.275,6.558-17.047,27.735-17.047,27.735a77.155,77.155,0,0,0,.549,11.919l1.305-.753c-.067-.368-.132-.693-.205-1.421a75.98,75.98,0,0,1-.322-9.54c.534-1.867,6.187-20.854,16.394-26.791a6.567,6.567,0,0,1,1.9-.8,3.263,3.263,0,0,1,.714-.086c2.318,0,3.5,3.668,4.644,7.214a38.724,38.724,0,0,0,1.7,4.619c.461.969,1.86,3.915,4.884,3.915a6.541,6.541,0,0,0,3.231-.982c5.354-3.05,6.843-11.045,8.421-19.51a93.75,93.75,0,0,1,2.479-10.926c1.488-4.682,3.393-7.566,5.992-9.071a4.263,4.263,0,0,1,2.022-.681c2.409,0,3.515,5.207,4.491,9.8a42.819,42.819,0,0,0,2.184,7.908c1.177,2.679,2.836,4.037,4.929,4.037a6.773,6.773,0,0,0,3.382-1.047c6.47-3.734,8.484-10.249,10.261-16,1.512-4.887,2.939-9.5,6.832-11.768a5.527,5.527,0,0,1,2.726-.87h0a3.193,3.193,0,0,1,.734.082c.143,1.351.146,2.307.146,2.323l.068,12.014c.1,2.061.237,3.745.423,5.212a9.292,9.292,0,0,0,.257,1.389l1.185-.682" transform="translate(-139.981 -268.759)"/></g><g class="w" transform="translate(8.097 0.512)"><path class="e" d="M140.023,326.782v6.034a76.231,76.231,0,0,0,.544,11.917l90.768-52.406c-.262-1.783-.427-3.813-.534-5.992l-.065-11.948s0-17.855-11.344-11.306c-11.922,6.883-8.551,28.743-17.014,33.63-8.54,4.931-5.672-14.58-17.016-8.031s-5.672,21.129-17.014,27.678-5.672-26.483-17.016-19.934S139.989,319.24,140.023,326.782Z" transform="translate(-139.986 -261.638)"/></g><g transform="translate(3.506 36.593)"><path class="u" d="M136.832,346.361a.472.472,0,0,1-.234-.882L233.145,290.2a.472.472,0,0,1,.468.819L137.066,346.3A.474.474,0,0,1,136.832,346.361Z" transform="translate(-136.36 -290.136)"/></g><g transform="translate(18.96 36.591)"><g transform="translate(0.009)"><path class="h" d="M149.046,292.025a.473.473,0,0,1-.472-.472v-.944a.473.473,0,1,1,.946,0l0,.944A.472.472,0,0,1,149.046,292.025Z" transform="translate(-148.574 -290.135)"/></g><g transform="translate(0 2.766)"><path class="h" d="M149.32,327.757a.473.473,0,0,1-.47-.43c-.056-.6-.1-1.212-.141-1.822a.472.472,0,0,1,.442-.5.437.437,0,0,1,.5.442q.057.9.138,1.8a.47.47,0,0,1-.427.513Zm-.222-3.622a.473.473,0,0,1-.472-.466c-.008-.524-.014-1.133-.019-1.821a.473.473,0,0,1,.468-.476.434.434,0,0,1,.476.468c.005.685.011,1.291.019,1.814a.472.472,0,0,1-.465.48Zm-.03-3.632a.473.473,0,0,1-.472-.47l-.01-1.818a.472.472,0,0,1,.471-.474h0a.473.473,0,0,1,.472.471l.009,1.815a.473.473,0,0,1-.47.475Zm-.018-3.632a.473.473,0,0,1-.472-.471l0-1.815a.473.473,0,0,1,.471-.473h0a.472.472,0,0,1,.472.471l.005,1.816a.474.474,0,0,1-.472.473Zm-.008-3.632a.474.474,0,0,1-.472-.472v-1.817a.472.472,0,0,1,.944,0v1.817A.473.473,0,0,1,149.043,313.238Zm0-3.634a.473.473,0,0,1-.472-.472v-1.816a.472.472,0,1,1,.944,0v1.816A.472.472,0,0,1,149.039,309.6Zm0-3.631a.473.473,0,0,1-.472-.472v-1.815a.472.472,0,0,1,.944,0V305.5A.472.472,0,0,1,149.039,305.973Zm0-3.632h0a.473.473,0,0,1-.471-.473v-1.814a.472.472,0,0,1,.944,0v1.817A.473.473,0,0,1,149.039,302.341Zm0-3.631h0a.473.473,0,0,1-.471-.474V296.42a.472.472,0,1,1,.944,0v1.819A.473.473,0,0,1,149.042,298.71Zm0-3.632a.473.473,0,0,1-.472-.472l0-1.81a.477.477,0,0,1,.472-.475h0a.47.47,0,0,1,.471.47l0,1.816A.472.472,0,0,1,149.044,295.077Z" transform="translate(-148.567 -292.32)"/></g><g transform="translate(0.47 39.059)"><path class="h" d="M149.529,322.866a.474.474,0,0,1-.468-.41c-.042-.314-.082-.629-.119-.944a.472.472,0,0,1,.937-.109c.037.31.077.619.119.928a.472.472,0,0,1-.406.531A.343.343,0,0,1,149.529,322.866Z" transform="translate(-148.938 -320.986)"/></g></g><g transform="translate(87.033 1.483)"><g transform="translate(0.009)"><path class="h" d="M202.814,264.3a.474.474,0,0,1-.472-.474v-.947a.473.473,0,0,1,.472-.47h0a.472.472,0,0,1,.471.474v.943A.473.473,0,0,1,202.814,264.3Z" transform="translate(-202.342 -262.405)"/></g><g transform="translate(0 2.761)"><path class="h" d="M203.088,300.027a.472.472,0,0,1-.47-.429c-.056-.6-.1-1.212-.141-1.822a.471.471,0,0,1,.441-.5.455.455,0,0,1,.5.441q.057.9.138,1.8a.468.468,0,0,1-.427.513Zm-.222-3.621a.473.473,0,0,1-.472-.466c-.008-.523-.014-1.132-.019-1.819a.472.472,0,0,1,.468-.476h0a.473.473,0,0,1,.472.468c.005.684.011,1.29.019,1.814a.472.472,0,0,1-.466.479Zm-.032-3.634a.475.475,0,0,1-.473-.47l-.009-1.819a.473.473,0,0,1,.471-.473h0a.474.474,0,0,1,.474.471l.009,1.817a.474.474,0,0,1-.47.475Zm-.016-3.632a.474.474,0,0,1-.472-.472l0-1.816a.473.473,0,0,1,.471-.473h0a.473.473,0,0,1,.472.471l0,1.816a.474.474,0,0,1-.471.475Zm-.008-3.632a.473.473,0,0,1-.472-.472V283.22a.472.472,0,0,1,.944,0v1.816A.472.472,0,0,1,202.811,285.507Zm0-3.632a.473.473,0,0,1-.472-.472v-1.816a.472.472,0,1,1,.944,0V281.4A.473.473,0,0,1,202.807,281.875Zm0-3.63a.473.473,0,0,1-.472-.472v-1.817a.472.472,0,0,1,.944,0v1.817A.473.473,0,0,1,202.807,278.245Zm0-3.635h0a.472.472,0,0,1-.471-.473v-1.814a.472.472,0,0,1,.944,0v1.817A.472.472,0,0,1,202.807,274.611Zm0-3.631h0a.472.472,0,0,1-.471-.473v-1.816a.472.472,0,1,1,.944,0v1.818A.472.472,0,0,1,202.809,270.98Zm0-3.631h0a.474.474,0,0,1-.471-.473V265.06a.472.472,0,1,1,.944,0v1.818A.473.473,0,0,1,202.812,267.349Z" transform="translate(-202.335 -264.586)"/></g><g transform="translate(0.469 39.057)"><path class="h" d="M203.3,295.135a.474.474,0,0,1-.468-.41c-.042-.311-.082-.627-.12-.941a.471.471,0,0,1,.411-.525.458.458,0,0,1,.525.411q.057.465.12.931a.475.475,0,0,1-.406.531A.51.51,0,0,1,203.3,295.135Z" transform="translate(-202.705 -293.254)"/></g></g><g transform="translate(52.996 28.72)"><g transform="translate(0.005)"><path class="h" d="M175.928,285.807a.473.473,0,0,1-.474-.472v-.944a.473.473,0,0,1,.946,0v.944A.473.473,0,0,1,175.928,285.807Z" transform="translate(-175.454 -283.918)"/></g><g transform="translate(0 2.714)"><path class="h" d="M176.2,310.027a.472.472,0,0,1-.47-.428c-.056-.591-.1-1.184-.139-1.781a.474.474,0,0,1,.442-.5.448.448,0,0,1,.5.442q.057.881.137,1.752a.473.473,0,0,1-.427.514Zm-.223-3.537a.474.474,0,0,1-.472-.468l-.022-1.771a.472.472,0,0,1,.467-.477h.005a.471.471,0,0,1,.472.467l.022,1.771a.475.475,0,0,1-.467.479Zm-.035-3.54a.473.473,0,0,1-.472-.47l-.009-1.772a.471.471,0,0,1,.47-.475h0a.473.473,0,0,1,.472.47l.009,1.772a.472.472,0,0,1-.47.475Zm-.014-3.544a.475.475,0,0,1-.474-.471l0-1.771a.474.474,0,0,1,.472-.475h0a.474.474,0,0,1,.472.471l0,1.772a.474.474,0,0,1-.471.473Zm-.005-3.541a.474.474,0,0,1-.474-.474v-1.772a.473.473,0,0,1,.946,0v1.772A.474.474,0,0,1,175.924,295.865Zm0-3.544h0a.473.473,0,0,1-.472-.474v-1.77a.473.473,0,0,1,.946,0v1.772A.473.473,0,0,1,175.924,292.321Zm0-3.542h0a.474.474,0,0,1-.472-.473v-1.771a.473.473,0,0,1,.946,0v1.774A.474.474,0,0,1,175.926,288.779Z" transform="translate(-175.45 -286.062)"/></g><g transform="translate(0.464 27.492)"><path class="h" d="M176.408,307.517a.475.475,0,0,1-.468-.41c-.042-.313-.082-.628-.12-.943a.472.472,0,1,1,.938-.113c.037.311.077.622.119.931a.474.474,0,0,1-.406.532A.5.5,0,0,1,176.408,307.517Z" transform="translate(-175.816 -305.633)"/></g></g><g transform="translate(17.801 33.189)"><path class="u" d="M149.283,287.69c.9-.52,1.632-.175,1.632.771a3.451,3.451,0,0,1-1.632,2.655c-.9.52-1.632.176-1.632-.771A3.448,3.448,0,0,1,149.283,287.69Z" transform="translate(-147.651 -287.448)"/></g><path class="u" d="M176.17,281.469c.9-.52,1.633-.175,1.633.771a3.453,3.453,0,0,1-1.633,2.655c-.9.52-1.632.176-1.632-.77A3.456,3.456,0,0,1,176.17,281.469Z" transform="translate(-122.697 -255.914)"/><path class="u" d="M203.049,261.476c.9-.52,1.633-.176,1.633.77a3.453,3.453,0,0,1-1.633,2.656c-.9.52-1.632.175-1.632-.771A3.451,3.451,0,0,1,203.049,261.476Z" transform="translate(-115.546 -261.233)"/><path class="u" d="M138.2,298.774a.472.472,0,0,0-.472-.817l-1.233.712v-4.874l1.707-.985a.472.472,0,0,0-.472-.818l-1.234.713v-5.133a.473.473,0,0,0-.946,0v5.678l-1.709.988a.472.472,0,1,0,.471.818l1.238-.715v4.874l-1.71.987a.472.472,0,0,0,.235.881.484.484,0,0,0,.236-.063l1.239-.717v4.874l-1.712.989a.472.472,0,1,0,.471.818l1.241-.717v4.873l-1.713.99a.472.472,0,1,0,.471.818l1.242-.718v4.874l-1.715.99a.472.472,0,1,0,.472.817l1.243-.718v4.874l-1.717.991a.472.472,0,1,0,.472.818l1.245-.719v4.873l-1.718.993a.472.472,0,1,0,.472.817l1.237-.714c-.028,1.619-.014,3.235.057,4.841l-1.767,1.019a.473.473,0,0,0,.236.881.463.463,0,0,0,.235-.063l1.353-.781c.1,1.772.253,3.535.475,5.272a.472.472,0,0,0,.468.411.491.491,0,0,0,.059,0,.471.471,0,0,0,.409-.528c-.238-1.869-.4-3.765-.5-5.678l1.624-.938a.471.471,0,1,0-.471-.817l-1.194.689c-.059-1.61-.076-3.23-.035-4.854l1.7-.982a.472.472,0,0,0-.471-.818l-1.227.709v-4.873l1.7-.982a.471.471,0,1,0-.471-.817l-1.228.709v-4.874l1.7-.981a.472.472,0,0,0-.472-.818l-1.229.71v-4.874l1.7-.984a.472.472,0,0,0-.472-.817l-1.231.71v-4.873l1.7-.984a.472.472,0,0,0-.471-.818l-1.232.712v-4.874Z" transform="translate(-133.591 -254.352)"/></g><path class="e" d="M252.106,321.428l-90.682,52.356c-3.188,1.84-7.808,1.621-10.092-.728s-1.35-5.931,1.838-7.771l90.656-52.342a8.277,8.277,0,0,1,9.717,1.1C255.835,316.387,255.293,319.587,252.106,321.428Z" transform="translate(-107.325 -141.087)"/><g transform="translate(26.872 145.502)"><path class="u" d="M138.2,352.206a.666.666,0,0,1-.333-1.243L240.006,291.99a.666.666,0,1,1,.666,1.153L138.531,352.116A.649.649,0,0,1,138.2,352.206Z" transform="translate(-137.532 -291.9)"/><g transform="translate(2.088 5.512)"><path class="u" d="M139.847,356.57a.666.666,0,0,1-.333-1.243L241.67,296.344a.666.666,0,1,1,.667,1.153L140.18,356.48A.649.649,0,0,1,139.847,356.57Z" transform="translate(-139.181 -296.253)"/></g><g transform="translate(4.664 10.801)"><path class="u" d="M141.883,360.753a.666.666,0,0,1-.333-1.243l102.169-58.989a.666.666,0,1,1,.667,1.153l-102.17,58.989A.652.652,0,0,1,141.883,360.753Z" transform="translate(-141.216 -300.43)"/></g><g transform="translate(7.708 15.832)"><path class="u" d="M144.286,364.736a.666.666,0,0,1-.333-1.243l102.184-59a.666.666,0,1,1,.667,1.153l-102.185,59A.661.661,0,0,1,144.286,364.736Z" transform="translate(-143.62 -304.404)"/></g></g></g></g></g><g transform="translate(152.089 100.562)"><path class="e" d="M215.144,285.567l84.049-48.519c3.188-1.841,8.265-2.933,11.122-1.78s2.311,4.141-.877,5.981l-85.029,49.083c-3.188,1.84-7.722,2.033-10.261.662S211.956,287.407,215.144,285.567Z" transform="translate(-212.469 -234.795)"/><path class="u" d="M222.42,297.467a.666.666,0,0,1-.333-1.243L318.966,240.3a.666.666,0,0,1,.666,1.153l-96.879,55.923A.652.652,0,0,1,222.42,297.467Z" transform="translate(-209.999 -233.354)"/><path class="u" d="M225.589,300.905a.666.666,0,0,1-.333-1.242l97.029-56.008a.666.666,0,0,1,.667,1.153l-97.029,56.008A.668.668,0,0,1,225.589,300.905Z" transform="translate(-209.156 -232.462)"/><g transform="translate(19.639 71.896)"><path class="u" d="M240.842,337.662h0a.474.474,0,0,1-.472-.474l.019-5.14c.015-3.87.015-3.87-.1-6.487l-.02-.433a62.749,62.749,0,0,0-3.451-17.518,48.877,48.877,0,0,0-8.733-15.258.472.472,0,1,1,.734-.594,49.723,49.723,0,0,1,8.89,15.545,63.658,63.658,0,0,1,3.5,17.778l.019.441c.114,2.638.114,2.638.1,6.532l-.016,5.139A.474.474,0,0,1,240.842,337.662Z" transform="translate(-227.981 -291.583)"/></g><path class="e" d="M237.722,301.512c-.43-.757-.9-1.5-1.391-2.233a1.5,1.5,0,0,1,.48-2.194l37.018-21.37a1.764,1.764,0,0,1,2.359.557c.446.729.867,1.5,1.28,2.3a1.788,1.788,0,0,1-.7,2.326l-36.813,21.253A1.616,1.616,0,0,1,237.722,301.512Z" transform="translate(-206.197 -223.971)"/><path class="e" d="M240.235,313.983q.416,1.276.762,2.525a1.207,1.207,0,0,0,1.862.78l87.831-50.7a2.292,2.292,0,0,0,1.02-2.445q-.363-1.32-.749-2.535a1.3,1.3,0,0,0-1.973-.746l-87.846,50.708A2.125,2.125,0,0,0,240.235,313.983Z" transform="translate(-205.106 -227.914)"/><path class="x" d="M240.235,313.983q.416,1.276.762,2.525a1.207,1.207,0,0,0,1.862.78l87.831-50.7a2.292,2.292,0,0,0,1.02-2.445q-.363-1.32-.749-2.535a1.3,1.3,0,0,0-1.973-.746l-87.846,50.708A2.125,2.125,0,0,0,240.235,313.983Z" transform="translate(-205.106 -227.914)"/><path class="e" d="M242.239,319.789c.113.934.209,1.846.281,2.728a.953.953,0,0,0,1.548.829L303.568,289a2.894,2.894,0,0,0,1.331-2.5q-.112-1.367-.281-2.718a1.038,1.038,0,0,0-1.669-.818l-59.483,34.335A2.711,2.711,0,0,0,242.239,319.789Z" transform="translate(-204.553 -222.031)"/><path class="s" d="M242.239,319.789c.113.934.209,1.846.281,2.728a.953.953,0,0,0,1.548.829L303.568,289a2.894,2.894,0,0,0,1.331-2.5q-.112-1.367-.281-2.718a1.038,1.038,0,0,0-1.669-.818l-59.483,34.335A2.711,2.711,0,0,0,242.239,319.789Z" transform="translate(-204.553 -222.031)"/><path class="e" d="M242.618,325.249v2.676c0,.919.647,1.293,1.443.833l25.473-14.705a3.189,3.189,0,0,0,1.442-2.5v-2.675c0-.92-.646-1.294-1.442-.834L244.061,322.75A3.189,3.189,0,0,0,242.618,325.249Z" transform="translate(-204.448 -215.359)"/><path class="y" d="M242.618,325.249v2.676c0,.919.647,1.293,1.443.833l25.473-14.705a3.189,3.189,0,0,0,1.442-2.5v-2.675c0-.92-.646-1.294-1.442-.834L244.061,322.75A3.189,3.189,0,0,0,242.618,325.249Z" transform="translate(-204.448 -215.359)"/><path class="u" d="M333.56,288.184a.474.474,0,0,0-.472.472v2.292l-6.789,3.918v-1.714a.472.472,0,1,0-.944,0v2.26l-6.79,3.918v-1.684a.472.472,0,0,0-.944,0v2.23l-6.789,3.918v-1.653a.473.473,0,0,0-.946,0v2.2l-6.79,3.92v-1.622a.472.472,0,1,0-.944,0V308.8l-6.79,3.918v-1.591a.472.472,0,1,0-.944,0v2.137l-6.789,3.918v-1.561a.473.473,0,1,0-.946,0v2.107l-6.789,3.918v-1.532a.472.472,0,0,0-.944,0V322.2l-6.79,3.918v-1.5a.472.472,0,1,0-.944,0v2.046l-6.789,3.918v-1.47a.473.473,0,0,0-.946,0v2.016l-6.789,3.918V333.6a.472.472,0,1,0-.944,0v1.984l-6.791,3.92V338.1a.472.472,0,1,0-.944,0v1.954l-5.892,3.4a.472.472,0,0,0,.235.881.463.463,0,0,0,.236-.063l5.421-3.13v1.918a.472.472,0,1,0,.944,0V340.6l6.791-3.92v1.888a.472.472,0,1,0,.944,0v-2.433l6.789-3.918v1.857a.473.473,0,0,0,.946,0v-2.4l6.789-3.918v1.827a.472.472,0,1,0,.944,0V327.2l6.79-3.918v1.8a.472.472,0,1,0,.944,0V322.74l6.789-3.918v1.765a.473.473,0,1,0,.946,0v-2.311l6.789-3.918v1.736a.472.472,0,1,0,.944,0v-2.281l6.79-3.918v1.7a.472.472,0,0,0,.944,0v-2.249l6.79-3.92V307.1a.473.473,0,0,0,.946,0v-2.219l6.789-3.918v1.643a.472.472,0,1,0,.944,0v-2.189l6.79-3.918v1.613a.472.472,0,0,0,.944,0v-2.159l6.789-3.918v1.581a.473.473,0,1,0,.946,0v-4.962A.474.474,0,0,0,333.56,288.184Z" transform="translate(-204.643 -220.591)"/><g transform="translate(32.521 129.621)"><path class="e" d="M260.108,337.375a16.675,16.675,0,0,0-4.945,2c-9.4,5.517-17.007,19.325-17.007,30.841,0,.306,0,.6.014.893l16.98-7.77Z" transform="translate(-238.156 -337.124)"/><path class="e" d="M256.537,337.428l-4.958,25.963,16.833-9.77a28.042,28.042,0,0,0,.186-3.145C268.6,341,263.52,335.962,256.537,337.428Z" transform="translate(-234.585 -337.177)"/><path class="e" d="M266.279,358.922a36.221,36.221,0,0,0,2.133-8.757l-16.833,9.77Z" transform="translate(-234.585 -333.721)"/><path class="e" d="M238.167,365.865c.386,10.889,7.851,15.434,16.993,10.156,6.278-3.625,11.755-10.982,14.687-18.939l-14.7,1.013Z" transform="translate(-238.153 -331.881)"/><g transform="translate(0.014)"><path class="x" d="M256.537,337.428l-4.958,25.963,16.833-9.77a28.042,28.042,0,0,0,.186-3.145C268.6,341,263.52,335.962,256.537,337.428Z" transform="translate(-234.599 -337.177)"/><path class="s" d="M266.279,358.922a36.221,36.221,0,0,0,2.133-8.757l-16.833,9.77Z" transform="translate(-234.599 -333.721)"/><path class="y" d="M238.167,365.865c.386,10.889,7.851,15.434,16.993,10.156,6.278-3.625,11.755-10.982,14.687-18.939l-14.7,1.013Z" transform="translate(-238.167 -331.881)"/></g><path class="z" d="M260.108,337.375a16.675,16.675,0,0,0-4.945,2c-9.4,5.517-17.007,19.325-17.007,30.841,0,.306,0,.6.014.893l16.98-7.77Z" transform="translate(-238.156 -337.124)"/><path class="z" d="M256.537,337.428l-4.958,25.963,16.833-9.77a28.042,28.042,0,0,0,.186-3.145C268.6,341,263.52,335.962,256.537,337.428Z" transform="translate(-234.585 -337.177)"/><path class="z" d="M266.279,358.922a36.221,36.221,0,0,0,2.133-8.757l-16.833,9.77Z" transform="translate(-234.585 -333.721)"/><path class="z" d="M238.167,365.865c.386,10.889,7.851,15.434,16.993,10.156,6.278-3.625,11.755-10.982,14.687-18.939l-14.7,1.013Z" transform="translate(-238.153 -331.881)"/></g><g transform="translate(94.897 93.476)"><path class="e" d="M296.74,315.678c-5.53,6.664-9.316,15.967-9.316,24.151a17.343,17.343,0,0,0,2.146,9.009l14.86-18.845Z" transform="translate(-287.424 -306.752)"/><path class="e" d="M310.149,308.638a14.188,14.188,0,0,0-7.677,2.185,29.007,29.007,0,0,0-7.69,6.73l7.69,14.315Z" transform="translate(-285.466 -308.627)"/><path class="e" d="M316.29,314.074a8.884,8.884,0,0,0-7.757-5.438l-7.677,23.231Z" transform="translate(-283.85 -308.625)"/><path class="e" d="M319.413,312.931l-15.434,17.793-14.86,18.845c2.918,4.745,8.476,5.891,14.86,2.2,9.4-5.425,17.021-19.245,17.021-30.88A18.373,18.373,0,0,0,319.413,312.931Z" transform="translate(-286.973 -307.483)"/></g><g transform="translate(97.043 93.476)"><path class="x" d="M310.149,308.638a14.188,14.188,0,0,0-7.677,2.185,29.007,29.007,0,0,0-7.69,6.73l7.69,14.315Z" transform="translate(-287.612 -308.627)"/><path class="s" d="M316.29,314.074a8.884,8.884,0,0,0-7.757-5.438l-7.677,23.231Z" transform="translate(-285.996 -308.625)"/><path class="y" d="M319.413,312.931l-15.434,17.793-14.86,18.845c2.918,4.745,8.476,5.891,14.86,2.2,9.4-5.425,17.021-19.245,17.021-30.88A18.373,18.373,0,0,0,319.413,312.931Z" transform="translate(-289.119 -307.483)"/></g><g transform="translate(94.897 93.476)"><path class="z" d="M296.74,315.678c-5.53,6.664-9.316,15.967-9.316,24.151a17.343,17.343,0,0,0,2.146,9.009l14.86-18.845Z" transform="translate(-287.424 -306.752)"/><path class="z" d="M310.149,308.638a14.188,14.188,0,0,0-7.677,2.185,29.007,29.007,0,0,0-7.69,6.73l7.69,14.315Z" transform="translate(-285.466 -308.627)"/><path class="z" d="M316.29,314.074a8.884,8.884,0,0,0-7.757-5.438l-7.677,23.231Z" transform="translate(-283.85 -308.625)"/><path class="z" d="M319.413,312.931l-15.434,17.793-14.86,18.845c2.918,4.745,8.476,5.891,14.86,2.2,9.4-5.425,17.021-19.245,17.021-30.88A18.373,18.373,0,0,0,319.413,312.931Z" transform="translate(-286.973 -307.483)"/></g><g transform="translate(72.205 116)"><path class="e" d="M270.944,328.223l2.785-1.608c.8-.46,1.443-.086,1.443.833v2.676a3.186,3.186,0,0,1-1.442,2.5l-2.787,1.609c-.8.46-1.442.086-1.442-.834v-2.675A3.192,3.192,0,0,1,270.944,328.223Z" transform="translate(-269.501 -326.419)"/><g transform="translate(0 12.006)"><path class="e" d="M270.944,337.708l2.785-1.609c.8-.46,1.443-.086,1.443.834v2.675a3.189,3.189,0,0,1-1.442,2.5l-2.787,1.608c-.8.46-1.442.086-1.442-.833v-2.676A3.188,3.188,0,0,1,270.944,337.708Z" transform="translate(-269.501 -335.902)"/><path class="x" d="M270.944,337.708l2.785-1.609c.8-.46,1.443-.086,1.443.834v2.675a3.189,3.189,0,0,1-1.442,2.5l-2.787,1.608c-.8.46-1.442.086-1.442-.833v-2.676A3.188,3.188,0,0,1,270.944,337.708Z" transform="translate(-269.501 -335.902)"/></g><g transform="translate(0 24.012)"><path class="e" d="M270.944,347.19l2.785-1.608c.8-.461,1.443-.087,1.443.833v2.675a3.189,3.189,0,0,1-1.442,2.5l-2.787,1.608c-.8.46-1.442.087-1.442-.833v-2.676A3.19,3.19,0,0,1,270.944,347.19Z" transform="translate(-269.501 -345.385)"/><path class="s" d="M270.944,347.19l2.785-1.608c.8-.461,1.443-.087,1.443.833v2.675a3.189,3.189,0,0,1-1.442,2.5l-2.787,1.608c-.8.46-1.442.087-1.442-.833v-2.676A3.19,3.19,0,0,1,270.944,347.19Z" transform="translate(-269.501 -345.385)"/></g><g transform="translate(0 36.019)"><path class="e" d="M270.944,356.673l2.785-1.608c.8-.46,1.443-.087,1.443.833v2.676a3.189,3.189,0,0,1-1.442,2.5l-2.787,1.608c-.8.461-1.442.087-1.442-.833v-2.675A3.19,3.19,0,0,1,270.944,356.673Z" transform="translate(-269.501 -354.868)"/><path class="y" d="M270.944,356.673l2.785-1.608c.8-.46,1.443-.087,1.443.833v2.676a3.189,3.189,0,0,1-1.442,2.5l-2.787,1.608c-.8.461-1.442.087-1.442-.833v-2.675A3.19,3.19,0,0,1,270.944,356.673Z" transform="translate(-269.501 -354.868)"/></g></g><g transform="translate(79.794 110.746)"><path class="u" d="M276.441,329.051a.945.945,0,0,1-.474-1.762l8.479-4.893a.944.944,0,1,1,.944,1.635l-8.479,4.893A.935.935,0,0,1,276.441,329.051Z" transform="translate(-275.495 -322.269)"/></g><g transform="translate(79.664 122.873)"><path class="u" d="M276.338,338.63a.945.945,0,0,1-.473-1.762l8.479-4.895a.944.944,0,1,1,.944,1.634L276.81,338.5A.943.943,0,0,1,276.338,338.63Z" transform="translate(-275.392 -331.847)"/></g><g transform="translate(79.534 135)"><path class="u" d="M276.236,348.208a.945.945,0,0,1-.475-1.762l8.479-4.895a.944.944,0,1,1,.944,1.636l-8.477,4.893A.941.941,0,0,1,276.236,348.208Z" transform="translate(-275.289 -341.426)"/></g><g transform="translate(79.402 147.127)"><path class="u" d="M276.132,357.785a.945.945,0,0,1-.475-1.764l8.479-4.892a.945.945,0,0,1,.946,1.637L276.6,357.66A.965.965,0,0,1,276.132,357.785Z" transform="translate(-275.185 -351.004)"/></g><g transform="translate(32.633 171.768)"><path class="u" d="M239.191,395.27a.945.945,0,0,1-.474-1.764l39.7-22.913a.945.945,0,1,1,.946,1.636l-39.7,22.914A.953.953,0,0,1,239.191,395.27Z" transform="translate(-238.245 -370.467)"/><g transform="translate(1.279 5.877)"><path class="u" d="M240.2,399.912a.945.945,0,0,1-.475-1.764l39.7-22.913a.945.945,0,0,1,.944,1.637l-39.7,22.914A.969.969,0,0,1,240.2,399.912Z" transform="translate(-239.255 -375.11)"/></g><g transform="translate(3.108 11.562)"><path class="u" d="M241.646,404.4a.945.945,0,0,1-.474-1.764l39.7-22.913a.945.945,0,1,1,.946,1.636l-39.7,22.914A.953.953,0,0,1,241.646,404.4Z" transform="translate(-240.7 -379.6)"/></g></g><g transform="translate(94.951 135.804)"><path class="u" d="M288.413,366.864a.945.945,0,0,1-.473-1.764l39.7-22.914a.945.945,0,0,1,.944,1.637l-39.7,22.913A.942.942,0,0,1,288.413,366.864Z" transform="translate(-287.467 -342.061)"/><g transform="translate(1.278 5.876)"><path class="u" d="M289.422,371.505a.945.945,0,0,1-.474-1.764l39.7-22.913a.945.945,0,0,1,.944,1.637l-39.7,22.914A.962.962,0,0,1,289.422,371.505Z" transform="translate(-288.476 -346.702)"/></g><g transform="translate(3.108 11.562)"><path class="u" d="M290.868,376a.945.945,0,0,1-.474-1.764l39.7-22.913a.944.944,0,1,1,.944,1.636l-39.7,22.914A.953.953,0,0,1,290.868,376Z" transform="translate(-289.922 -351.193)"/></g></g><path class="e" d="M250.776,415.466l90.512-52.236a6.962,6.962,0,0,1,9.068,1.626c1.943,2.651,1.148,6.124-2.04,7.965l-90.543,52.252c-3.188,1.84-7.572,1.357-9.508-1.3S247.588,417.305,250.776,415.466Z" transform="translate(-203.19 -200.889)"/><g transform="translate(56.606 211.873)"><g transform="translate(4.967 3.502)"><path class="u" d="M262.05,429.709a.945.945,0,0,1-.475-1.764l39.7-22.909a.945.945,0,1,1,.944,1.637l-39.7,22.91A.969.969,0,0,1,262.05,429.709Z" transform="translate(-261.103 -404.911)"/></g><path class="u" d="M258.126,426.942a.945.945,0,0,1-.474-1.764l39.7-22.909a.945.945,0,1,1,.944,1.637l-39.7,22.909A.955.955,0,0,1,258.126,426.942Z" transform="translate(-257.18 -402.145)"/><g transform="translate(10.187 6.591)"><path class="u" d="M266.173,432.149a.945.945,0,0,1-.473-1.764l39.7-22.91a.945.945,0,1,1,.946,1.637l-39.7,22.91A.951.951,0,0,1,266.173,432.149Z" transform="translate(-265.227 -407.351)"/></g></g><g transform="translate(113.287 179.164)"><g transform="translate(4.967 3.502)"><path class="u" d="M306.819,403.873a.945.945,0,0,1-.474-1.764l39.7-22.909a.945.945,0,1,1,.946,1.637l-39.7,22.91A.965.965,0,0,1,306.819,403.873Z" transform="translate(-305.873 -379.075)"/></g><path class="u" d="M302.9,401.106a.945.945,0,0,1-.474-1.764l39.7-22.909a.945.945,0,0,1,.946,1.637l-39.7,22.909A.954.954,0,0,1,302.9,401.106Z" transform="translate(-301.95 -376.309)"/><g transform="translate(10.187 6.591)"><path class="u" d="M310.943,406.313a.945.945,0,0,1-.475-1.764l39.7-22.91a.946.946,0,1,1,.944,1.638l-39.7,22.909A.957.957,0,0,1,310.943,406.313Z" transform="translate(-309.996 -381.515)"/></g></g><g transform="translate(84.914 219.341)"><g transform="translate(0 16.265)"><path class="e" d="M319.642,424.4c-8.619-4.978-23.224-4.617-32.621.805s-10.027,13.854-1.408,18.831,23.224,4.619,32.622-.8S328.262,429.379,319.642,424.4Zm-5.867,16.257c-6.711,3.873-17.144,4.13-23.3.575s-5.707-9.579,1.005-13.452,17.144-4.131,23.3-.575S320.488,436.784,313.775,440.658Z" transform="translate(-279.539 -420.891)"/><path class="e" d="M293.167,428.755c4.027-2.323,10.287-2.478,13.981-.344s3.423,5.747-.6,8.071-10.287,2.478-13.98.344S289.139,431.08,293.167,428.755Z" transform="translate(-276.767 -419.29)"/></g><path class="aa" d="M293.167,428.755c4.027-2.323,10.287-2.478,13.981-.344s3.423,5.747-.6,8.071-10.287,2.478-13.98.344S289.139,431.08,293.167,428.755Z" transform="translate(-276.767 -403.025)"/><path class="s" d="M319.642,424.4c-8.619-4.978-23.224-4.617-32.621.805s-10.027,13.854-1.408,18.831,23.224,4.619,32.622-.8S328.262,429.379,319.642,424.4Zm-5.867,16.257c-6.711,3.873-17.144,4.13-23.3.575s-5.707-9.579,1.005-13.452,17.144-4.131,23.3-.575S320.488,436.784,313.775,440.658Z" transform="translate(-279.539 -404.625)"/><g transform="translate(16.178 16.276)"><path class="e" d="M292.318,421.9l1.97,3.521a28.021,28.021,0,0,1,11.551-.217l2.657-3.6A39.239,39.239,0,0,0,292.318,421.9Z" transform="translate(-292.318 -420.899)"/><path class="x" d="M292.318,421.9l1.97,3.521a28.021,28.021,0,0,1,11.551-.217l2.657-3.6A39.239,39.239,0,0,0,292.318,421.9Z" transform="translate(-292.318 -420.899)"/></g><g transform="translate(23.325)"><path class="u" d="M298.908,423.579l-.057,0a.943.943,0,0,1-.886-1l.256-4.336,17.454-10.074a.945.945,0,0,1,.946,1.637l-16.574,9.564-.2,3.321A.942.942,0,0,1,298.908,423.579Z" transform="translate(-297.963 -408.043)"/></g></g><g transform="translate(135.944 189.811)"><g transform="translate(0 16.359)"><path class="e" d="M359.948,401.151c-8.621-4.978-23.226-4.618-32.622.8s-10.026,13.854-1.407,18.833,23.224,4.617,32.621-.805S368.568,406.129,359.948,401.151Zm-5.867,16.256c-6.711,3.873-17.145,4.131-23.3.575s-5.707-9.578,1-13.451,17.145-4.131,23.3-.576S360.794,413.534,354.081,417.407Z" transform="translate(-319.845 -397.64)"/><path class="e" d="M333.473,405.506c4.026-2.324,10.287-2.479,13.98-.346s3.425,5.747-.6,8.071-10.287,2.479-13.981.346S329.446,407.829,333.473,405.506Z" transform="translate(-317.073 -396.04)"/></g><path class="aa" d="M333.473,405.506c4.026-2.324,10.287-2.479,13.98-.346s3.425,5.747-.6,8.071-10.287,2.479-13.981.346S329.446,407.829,333.473,405.506Z" transform="translate(-317.073 -379.68)"/><path class="s" d="M359.948,401.151c-8.621-4.978-23.226-4.618-32.622.8s-10.026,13.854-1.407,18.833,23.224,4.617,32.621-.805S368.568,406.129,359.948,401.151Zm-5.867,16.256c-6.711,3.873-17.145,4.131-23.3.575s-5.707-9.578,1-13.451,17.145-4.131,23.3-.576S360.794,413.534,354.081,417.407Z" transform="translate(-319.845 -381.281)"/><g transform="translate(12.196 16.368)"><path class="e" d="M357.386,401.149c-7.284-4.207-18.83-4.587-27.908-1.337L332.592,403c6.483-2.321,14.729-2.048,19.931.955a10.935,10.935,0,0,1,2.364,1.814l5.81-2.076A15.267,15.267,0,0,0,357.386,401.149Z" transform="translate(-329.478 -397.647)"/><path class="x" d="M357.386,401.149c-7.284-4.207-18.83-4.587-27.908-1.337L332.592,403c6.483-2.321,14.729-2.048,19.931.955a10.935,10.935,0,0,1,2.364,1.814l5.81-2.076A15.267,15.267,0,0,0,357.386,401.149Z" transform="translate(-329.478 -397.647)"/></g><g transform="translate(23.469)"><path class="u" d="M339.328,400.254l-.057,0a.944.944,0,0,1-.886-1l.257-4.336L356.1,384.843a.945.945,0,0,1,.946,1.637l-16.574,9.563-.2,3.322A.944.944,0,0,1,339.328,400.254Z" transform="translate(-338.383 -384.719)"/></g></g><g transform="translate(113.615 212.778)"><path class="u" d="M303.155,460.383a.945.945,0,0,1-.473-1.764L399.1,402.984a.945.945,0,1,1,.946,1.637l-96.416,55.637A.962.962,0,0,1,303.155,460.383Z" transform="translate(-302.209 -402.859)"/><g transform="translate(5.214 2.998)"><path class="u" d="M307.273,462.751a.945.945,0,0,1-.473-1.764l96.416-55.637a.945.945,0,1,1,.944,1.637l-96.415,55.637A.958.958,0,0,1,307.273,462.751Z" transform="translate(-306.327 -405.227)"/></g><g transform="translate(10.418 6.001)"><path class="u" d="M311.383,465.125a.945.945,0,0,1-.473-1.764l96.416-55.637a.945.945,0,1,1,.944,1.637L311.855,465A.958.958,0,0,1,311.383,465.125Z" transform="translate(-310.437 -407.599)"/></g></g></g></g></g></svg>