<svg xmlns="http://www.w3.org/2000/svg" width="551.953" height="551.759" viewBox="0 0 551.953 551.759"><defs><style>.a,.w{fill:none;}.b{fill:#e0e0e0;}.c{fill:#f5f5f5;}.d{opacity:0.99;}.ab,.e,.u,.y{fill:#fff;}.f,.g,.h,.i,.k,.l{fill:#171818;}.f,.g,.h,.i,.j,.k,.l,.m{stroke:#191818;}.f,.g,.h,.i,.j,.k,.l,.m,.w{stroke-miterlimit:10;}.f{stroke-width:0.281px;}.g{stroke-width:0.356px;}.h,.m{stroke-width:0.483px;}.i{stroke-width:0.428px;}.j,.m,.q{fill:#edeaea;}.j{stroke-width:0.586px;}.k{stroke-width:0.547px;}.l{stroke-width:0.542px;}.n{fill:#191818;}.o{fill:#f5ccc4;}.p{fill:#d16969;}.r{fill:#263238;}.s{fill:#455a64;}.t,.x{fill:#e8505b;}.u{opacity:0.8;}.v{opacity:0.1;}.w{stroke:#f3a7ad;}.x,.y{fill-rule:evenodd;}.y{opacity:0.5;}.ab,.z{opacity:0.6;}.aa{opacity:0.3;}.ac{fill:#4e68c7;}.ad{opacity:0.2;}</style></defs><g transform="translate(34.442 139.906)"><g transform="translate(374.03 37.302)"><g transform="translate(0.123 0.363)"><g transform="translate(0.205 0.309)"><path class="a" d="M365.851,185.9a23.421,23.421,0,0,1,4.343-4.464l-1.057-5.676,8.772-3.779,3.4,4.665a23.381,23.381,0,0,1,6.226-.089L390.8,171.8l8.876,3.531-.9,5.7a23.423,23.423,0,0,1,4.464,4.343l5.676-1.056,3.78,8.772-4.667,3.4a23.434,23.434,0,0,1,.09,6.226l4.758,3.265-3.53,8.875-5.7-.9a23.424,23.424,0,0,1-4.343,4.464l1.057,5.676-8.774,3.779-3.4-4.667a23.381,23.381,0,0,1-6.226.09l-3.265,4.759-8.875-3.531.9-5.7a23.424,23.424,0,0,1-4.464-4.343l-5.676,1.056-3.779-8.772,4.667-3.4a23.431,23.431,0,0,1-.09-6.226l-4.759-3.265L360.15,185l5.7.9Zm9.538,9.838A10.247,10.247,0,1,0,388.7,190,10.247,10.247,0,0,0,375.389,195.735Z" transform="translate(-356.619 -171.795)"/></g><g transform="translate(18.098 17.534)"><path class="b" d="M371.629,192.115a2.5,2.5,0,0,1,.213-.623,8.175,8.175,0,0,1,.906-1.659,10.2,10.2,0,0,1,5.59-4.015,10.348,10.348,0,0,1,4.829-.235,10.5,10.5,0,0,1,4.986,2.44,10.4,10.4,0,0,1,3.217,5.22,10.491,10.491,0,0,1-4.617,11.611,10.408,10.408,0,0,1-5.925,1.585,10.516,10.516,0,0,1-5.3-1.652,10.348,10.348,0,0,1-3.347-3.488,10.2,10.2,0,0,1-1.3-6.758,8.114,8.114,0,0,1,.48-1.827,2.556,2.556,0,0,1,.273-.6c.075.024-.308.861-.5,2.46a10.208,10.208,0,0,0,1.448,6.483,9.986,9.986,0,0,0,8.267,4.773,9.841,9.841,0,0,0,5.563-1.526,9.9,9.9,0,0,0,4.335-10.9,9.841,9.841,0,0,0-2.994-4.929,9.986,9.986,0,0,0-9.286-2.211,10.221,10.221,0,0,0-5.507,3.717C372,191.278,371.7,192.149,371.629,192.115Z" transform="translate(-370.752 -185.401)"/></g><path class="b" d="M365.894,185.961a1.937,1.937,0,0,1-.357-.032l-1.083-.144-4.278-.615.114-.066c-.891,2.283-2.06,5.277-3.473,8.9l-.061-.2,4.774,3.244.1.066-.014.116a23.369,23.369,0,0,0,.111,6.171l.02.129-.106.078-4.656,3.415.078-.282q1.795,4.14,3.8,8.762l-.286-.153,5.673-1.069.162-.03.1.13a23.232,23.232,0,0,0,4.419,4.282l.138.1-.027.171c-.275,1.767-.577,3.716-.886,5.7l-.181-.318c2.789,1.1,5.8,2.3,8.88,3.518l-.366.111c1.014-1.484,2.13-3.112,3.259-4.763l.108-.156.189.022a23.21,23.21,0,0,0,6.142-.094l.191-.029.114.157,3.4,4.664-.389-.106,8.77-3.783-.192.36c-.334-1.793-.7-3.726-1.058-5.676l-.037-.2.157-.123a23.143,23.143,0,0,0,4.278-4.4l0-.005.316-.129h.015l.023,0,.046.006.09.014.178.029.36.056.717.113,1.429.225q1.428.224,2.842.447l-.357.2,3.534-8.874.118.39q-2.4-1.65-4.757-3.268l-.162-.111.024-.195a23.109,23.109,0,0,0-.085-6.14l-.028-.191.156-.114,4.669-3.4-.1.379-3.77-8.776.334.179-5.677,1.048-.176.033-.11-.142a23.222,23.222,0,0,0-4.4-4.3l-.138-.1.027-.171c.31-1.954.612-3.849.906-5.7l.17.3-8.867-3.551.3-.091c-1.153,1.67-2.235,3.237-3.278,4.749l-.082.119-.142-.018a23.287,23.287,0,0,0-6.166.07l-.132.019-.076-.106-3.382-4.678.234.063-8.791,3.736.087-.162c.405,2.267.738,4.13,1.015,5.683l.011.063-.051.039a24.336,24.336,0,0,0-3.4,3.207l-.75.884a2.142,2.142,0,0,1-.253.29,2.569,2.569,0,0,1,.21-.324c.151-.206.379-.52.709-.92a22.576,22.576,0,0,1,3.358-3.3l-.039.1-1.1-5.669-.022-.115.109-.048c2.475-1.08,5.364-2.341,8.753-3.822l.142-.062.094.127c1.056,1.439,2.175,2.963,3.417,4.654l-.208-.087a23.648,23.648,0,0,1,6.287-.11l-.224.1,3.253-4.768.113-.166.189.073,8.884,3.511.2.081-.033.217c-.287,1.851-.581,3.747-.885,5.7l-.111-.273a23.76,23.76,0,0,1,4.526,4.389l-.286-.108,5.673-1.065.238-.044.1.223q1.848,4.277,3.788,8.767l.1.23-.2.148-4.664,3.4.128-.305a23.692,23.692,0,0,1,.095,6.311l-.138-.305,4.76,3.263.215.148-.1.242q-1.74,4.377-3.527,8.876l-.1.246-.26-.042L406.5,214.8l-1.429-.224-.717-.113L404,214.4l-.18-.028-.09-.014-.046-.008-.021,0h-.016c.141-.058-.316.128.315-.13l0,.005a23.781,23.781,0,0,1-4.4,4.521l.119-.319c.363,1.95.723,3.884,1.056,5.677l.048.257-.241.1c-3.018,1.3-6,2.579-8.774,3.775l-.238.1-.152-.209c-1.172-1.61-2.332-3.206-3.4-4.668l.3.127a23.768,23.768,0,0,1-6.31.086l.295-.134L379,228.3l-.139.2-.227-.091-8.871-3.542-.219-.087.038-.232c.314-1.984.624-3.932.9-5.7l.111.272a23.747,23.747,0,0,1-4.508-4.4l.265.1-5.678,1.044-.205.037-.081-.19-3.756-8.781-.075-.173.152-.11c1.641-1.188,3.22-2.33,4.677-3.385l-.086.208a23.7,23.7,0,0,1-.068-6.281l.083.182-4.744-3.287-.111-.077.051-.123c1.46-3.6,2.668-6.582,3.587-8.852l.033-.08.082.014,4.217.719,1.091.2A2.446,2.446,0,0,1,365.894,185.961Z" transform="translate(-356.457 -171.551)"/></g><g transform="translate(17.91 17.729)"><path class="b" d="M371.695,192.15c.02.02.157-.4.568-1.136a10.182,10.182,0,0,1,2.322-2.837,10.225,10.225,0,1,1,5.785,18.011,10.464,10.464,0,0,1-9.574-10.864,11.126,11.126,0,0,1,.2-1.655q.078-.41.184-.815l.11-.4.057-.194.023-.087.005-.024a.165.165,0,0,0,0,.039.332.332,0,0,0,.219.277l.387-.147a6.436,6.436,0,0,0-.471,1.264,9.714,9.714,0,0,0,.386,6.24,10.049,10.049,0,0,0,3.875,4.7,10.2,10.2,0,0,0,14.658-4.1,10.251,10.251,0,0,0-15.853-12.307,9.983,9.983,0,0,0-2.326,2.865,9.226,9.226,0,0,0-.423.871,2.012,2.012,0,0,1-.132.305.944.944,0,0,1,.068-.328,6.392,6.392,0,0,1,.368-.909,9.571,9.571,0,0,1,2.275-3,10.5,10.5,0,0,1,5.378-2.521,10.638,10.638,0,0,1,7.625,1.766,10.77,10.77,0,0,1,4.6,8.226,10.9,10.9,0,0,1-1.058,5.287,10.777,10.777,0,0,1-15.522,4.391,10.677,10.677,0,0,1-4.14-5,10.364,10.364,0,0,1-.415-6.661,6.985,6.985,0,0,1,.539-1.423l.125-.236.262.089a.369.369,0,0,1,.233.324.609.609,0,0,1-.005.09l-.016.076-.029.11-.058.2-.106.385c-.067.256-.124.513-.173.772a10.431,10.431,0,0,0-.19,1.559,9.765,9.765,0,0,0,8.961,10.212A9.72,9.72,0,0,0,387,188.093a9.9,9.9,0,0,0-7.073-1.9,10.2,10.2,0,0,0-5.178,2.184,10.679,10.679,0,0,0-2.37,2.708C371.934,191.781,371.752,192.2,371.695,192.15Z" transform="translate(-370.506 -185.268)"/></g><g transform="translate(0)"><path class="b" d="M365.92,186.038l-5.772-.928.08-.044-3.612,9.051-.043-.142c1.464,1.005,3.1,2.128,4.855,3.337l-.2.17-.075-.162.265-.041a23.551,23.551,0,0,0,.086,6.235l-.3-.038.076-.184.237.187-4.8,3.5.056-.205q1.842,4.275,3.917,9.1l-.211-.113,5.858-1.09-.034.39-.236-.087.233-.317a23.489,23.489,0,0,0,4.47,4.349l-.327.253-.1-.242.41-.048c-.281,1.8-.6,3.829-.927,5.907l-.138-.243,9.273,3.685-.285.087c1.029-1.5,2.2-3.207,3.388-4.94l.3.363-.262.12-.072-.471a23.61,23.61,0,0,0,6.233-.092l-.061.487-.271-.114.305-.385,3.537,4.85-.315-.086,9.2-3.969-.161.3c-.337-1.8-.718-3.841-1.1-5.9l.533.047-.106.284-.433-.316a23.482,23.482,0,0,0,4.346-4.477l.33.439-.281.115-.063-.544,5.933.927-.313.18c1.139-2.875,2.407-6.071,3.693-9.313l.108.354-4.954-3.392.444-.372.123.272-.574.089a23.514,23.514,0,0,0-.1-6.221l.582.072-.114.272-.461-.365,4.843-3.539-.1.372c-1.233-2.849-2.593-5.992-3.968-9.17l.346.184-5.886,1.107.054-.608.254.1-.361.492a23.44,23.44,0,0,0-4.46-4.324l.485-.377.1.243-.61.071c.284-1.832.6-3.858.913-5.895l.2.348c-2.889-1.142-6.048-2.39-9.233-3.647l.387-.119c-1.047,1.536-2.2,3.221-3.352,4.915l-.4-.48.2-.09.1.62a23.391,23.391,0,0,0-6.192.108l.077-.625.184.077-.39.5-3.5-4.765.4.106-8.979,3.916.191-.363c.352,1.819.732,3.792,1.114,5.772l-.632-.054.034-.091.514.373a21.625,21.625,0,0,0-3.744,3.808l-.266.343c-.01.02-.024.015-.065.009a.332.332,0,0,0-.072,0l-.022,0-.011,0h0c.1.018-.3-.342-.433-.189a.363.363,0,0,0-.068.038l-.023.02c-.009.008.008-.009.016-.019l.57-.68c.38-.461.787-.914,1.2-1.346a24.782,24.782,0,0,1,2.669-2.393l-.122.319-1.031-5.74.615.1-.077.146-.42-.458,8.79-3.739.042.618-.209-.057.352-.509,3.451,4.772-.311-.132a23.751,23.751,0,0,1,6.5-.073l-.306.138,3.35-4.854.361.494-.267.082.025-.612,8.867,3.551-.4.458-.151-.265.6-.109q-.469,2.947-.932,5.849l-.124-.306a23.683,23.683,0,0,1,4.688,4.579l-.306-.115,5.834-1.076-.09.586-.3-.16.436-.4q1.907,4.446,3.767,8.778l-.582.039.092-.335.48.33-4.811,3.494.123-.291a23.526,23.526,0,0,1,.086,6.575l-.128-.285,4.9,3.37-.452.332-.105-.348.56.024-3.54,8.871-.411-.358.318-.181.1.537-5.873-.928.271-.109a23.607,23.607,0,0,1-4.591,4.707l.1-.27c.379,2.04.734,3.958,1.085,5.852l-.509-.078c.061-.114.116-.218.171-.322l.348.379-8.774,3.774-.035-.494.347.095-.281.406c-1.238-1.7-2.378-3.266-3.5-4.807l.243.1a23.51,23.51,0,0,1-6.556.092l.233-.105-3.363,4.9-.267-.363.327-.1-.018.449-8.875-3.532.277-.319.162.284-.415.076.92-5.852.084.2a23.4,23.4,0,0,1-4.669-4.541l.2.073-5.82,1.084.054-.357.254.137-.265.243-3.78-8.771.319-.023-.07.252-.262-.181,4.76-3.47-.062.147a23.423,23.423,0,0,1-.1-6.434l.058.128-4.846-3.32.179-.132.053.177-.22-.008c1.532-3.867,2.659-6.708,3.52-8.88l.1.09-.1.057-.025-.133,5.7.874a10.034,10.034,0,0,1-1.419-.142l-4.307-.59-.208-.028.182-.106.1-.058.177-.1-.073.192-3.437,8.912-.122.315-.1-.324-.054-.177-.1-.318.276.186,4.868,3.289.068.046-.009.082a23.281,23.281,0,0,0,.132,6.358l.014.091-.075.056-4.744,3.494-.389.287.127-.468.068-.251.127-.465.192.442,3.818,8.755.218.5-.482-.257-.254-.134-.48-.256.534-.1,5.816-1.105.12-.023.076.1a23.034,23.034,0,0,0,4.606,4.448l.1.077-.019.129c-.282,1.828-.571,3.7-.9,5.854l-.1.633-.318-.556-.162-.284-.317-.553.594.234c2.794,1.1,5.691,2.246,8.884,3.506l.634.251-.652.2-.327.1-.651.2.385-.563L381.7,223l.085-.124.148.019a23.052,23.052,0,0,0,6.421-.106l.152-.024.092.125,3.509,4.8.442.6-.723-.2-.346-.095-.722-.2.687-.3,8.766-3.792.714-.309-.366.687-.171.322-.366.686-.143-.765c-.354-1.893-.714-3.811-1.1-5.849l-.03-.167.133-.1a23.053,23.053,0,0,0,4.479-4.612l.1-.137.172.028,5.874.918.815.128-.717.409-.318.181-.718.41.305-.769c1.151-2.9,2.321-5.843,3.526-8.876l.313-.787.247.81.106.347.247.812-.7-.48-4.9-3.363-.151-.1.023-.181a22.947,22.947,0,0,0-.092-6.413l-.028-.182.151-.11,4.806-3.5.712-.518-.233.848c-.03.111-.06.223-.091.337l-.233.852-.349-.812q-1.863-4.328-3.774-8.774l-.354-.82.79.42.3.158.793.423-.884.163-5.833,1.081-.19.034-.118-.151a22.983,22.983,0,0,0-4.57-4.458l-.156-.114.03-.192q.461-2.9.927-5.85l.143-.9.454.794.151.265.456.8-.855-.342q-4.389-1.757-8.869-3.546l-.857-.343.882-.268.268-.082.89-.271-.528.766q-1.665,2.414-3.349,4.857l-.113.163-.195-.025a23.1,23.1,0,0,0-6.329.073l-.195.029-.118-.161q-1.717-2.374-3.453-4.77l-.546-.756.9.247.209.057.909.249-.867.368-8.789,3.741-.858.366.439-.823.077-.144.447-.837.167.933c.341,1.9.684,3.8,1.031,5.739l.035.2-.157.122a24.038,24.038,0,0,0-2.6,2.33c-.408.424-.8.856-1.174,1.314l-.58.691-.06.063-.034.029a.39.39,0,0,1-.075.042c-.133.152-.532-.206-.436-.19v0l0-.021.01-.043a1.837,1.837,0,0,1,.051-.189,1.475,1.475,0,0,1,.182-.366l.281-.365A22.287,22.287,0,0,1,370,181.243l.937-.752-.423,1.124-.034.091-.41,1.094-.222-1.147c-.382-1.979-.762-3.951-1.113-5.772l-.051-.258.242-.106,8.98-3.913.241-.105.156.211,3.5,4.768.7.951-1.087-.456-.185-.077-1.072-.449,1.15-.176a24.117,24.117,0,0,1,6.367-.109l1.165.138-1.069.484-.2.09-1.058.479.656-.96,3.355-4.914.147-.214.241.095,9.23,3.654.239.094-.039.254c-.317,2.036-.633,4.063-.918,5.895l-.177,1.134-.434-1.062-.1-.243-.43-1.053.915.675a24.1,24.1,0,0,1,4.578,4.445l.7.894-1.062-.4-.254-.1-1.057-.4,1.11-.208,5.887-1.1.247-.047.1.23L413.4,193.2l.1.227-.2.146c-1.681,1.227-3.352,2.443-4.846,3.532l-.886.646.425-1.01.114-.271.42-1,.162,1.075a24.083,24.083,0,0,1,.092,6.383l-.13,1.07-.443-.981-.123-.272-.444-.982.889.61,4.949,3.4.2.134-.089.22c-1.29,3.241-2.562,6.434-3.707,9.307l-.085.215-.229-.035-5.931-.937-1.007-.158.943-.386.281-.114.939-.384-.609.823a24.1,24.1,0,0,1-4.448,4.562l-.784.61.351-.928c.038-.1.075-.2.108-.284l.352-.933.182.98c.381,2.065.758,4.1,1.091,5.907l.04.214-.2.086-9.2,3.949-.194.082-.123-.17c-1.236-1.7-2.454-3.379-3.526-4.858l-.537-.739.842.354.271.114.839.353-.9.133a24.068,24.068,0,0,1-6.368.08l-.875-.109.8-.362.263-.119.808-.363-.5.728-3.4,4.931-.109.158-.176-.071-9.264-3.713-.167-.067.029-.177c.333-2.078.658-4.108.946-5.9l.122-.758.29.71.1.243.29.713-.617-.46a23.883,23.883,0,0,1-4.536-4.443l-.444-.572.677.257.234.089.684.258-.719.132-5.862,1.067-.151.028-.061-.141q-2.053-4.826-3.878-9.113l-.054-.127.111-.08,4.82-3.473.453-.327-.218.514-.077.185-.219.519-.08-.557a23.762,23.762,0,0,1-.053-6.314l.062-.491.2.451.072.162.205.456-.409-.285-4.833-3.369-.079-.054.035-.087,3.7-9.018.023-.056.058.01,4.307.765,1.084.213C365.814,186,365.92,186.038,365.92,186.038Z" transform="translate(-356.36 -171.264)"/></g></g><g transform="translate(83.747 84.376)"><g transform="translate(0.072 0.109)"><path class="b" d="M130.418,216.185a9.937,9.937,0,0,1,1.494-2.17l-.844-2.293,3.392-2.2,1.75,1.705a9.915,9.915,0,0,1,2.59-.48l1.024-2.217,3.953.842.032,2.442a9.864,9.864,0,0,1,2.17,1.494l2.293-.843,2.2,3.39-1.705,1.75a9.862,9.862,0,0,1,.48,2.59l2.217,1.024-.842,3.953-2.442.032a9.863,9.863,0,0,1-1.494,2.17l.844,2.293-3.392,2.2-1.75-1.705a9.863,9.863,0,0,1-2.59.48l-1.024,2.217-3.953-.842-.032-2.442a9.894,9.894,0,0,1-2.17-1.494l-2.293.844-2.2-3.392,1.705-1.75a9.914,9.914,0,0,1-.48-2.59l-2.217-1.024.842-3.953,2.442-.032Zm4.677,3.427a4.336,4.336,0,1,0,5.144-3.337A4.336,4.336,0,0,0,135.095,219.612Z" transform="translate(-127.134 -208.532)"/></g><g transform="translate(7.898 7.657)"><path class="b" d="M133.45,218.026a3.3,3.3,0,0,1,.31-1.028,4.316,4.316,0,0,1,2.046-2.065,4.369,4.369,0,0,1,1.993-.438,4.44,4.44,0,0,1,2.246.662,4.46,4.46,0,0,1,1.707,1.943,4.426,4.426,0,0,1-1.1,5.154,4.449,4.449,0,0,1-2.35,1.079,4.432,4.432,0,0,1-2.322-.31,4.366,4.366,0,0,1-1.641-1.213,4.312,4.312,0,0,1-1.026-2.719,3.278,3.278,0,0,1,.135-1.065c.03,0-.071.38-.039,1.062a4.328,4.328,0,0,0,1.062,2.608,4.238,4.238,0,0,0,3.8,1.41,4.224,4.224,0,0,0,2.221-1.034,4.2,4.2,0,0,0,1.037-4.872,3.973,3.973,0,0,0-.682-1.062,3.931,3.931,0,0,0-.923-.786,4.234,4.234,0,0,0-4.043-.261,4.325,4.325,0,0,0-2.033,1.948C133.54,217.65,133.481,218.035,133.45,218.026Z" transform="translate(-133.315 -214.494)"/></g><path class="b" d="M130.433,216.208a.741.741,0,0,1-.152.011l-.462.015-1.827.044.038-.03c-.21,1.013-.486,2.346-.819,3.958l-.035-.071,2.221,1.015.04.018,0,.044a9.85,9.85,0,0,0,.484,2.569l.015.047-.034.035-1.7,1.755.011-.11c.7,1.066,1.432,2.2,2.207,3.385l-.115-.038,2.29-.848.058-.022.047.042a9.814,9.814,0,0,0,2.15,1.475l.057.029v.065c.011.757.023,1.591.035,2.442l-.089-.108,3.954.838-.129.065c.319-.691.668-1.45,1.022-2.218l.03-.065.072,0a9.87,9.87,0,0,0,2.559-.476l.068-.023.053.051,1.75,1.7-.151-.015,3.389-2.2-.048.147c-.267-.724-.555-1.505-.844-2.293l-.025-.071.049-.056a9.761,9.761,0,0,0,1.475-2.141h0l.034-.068h.075l2.442-.032-.12.1.843-3.953.068.137q-1.119-.517-2.216-1.026l-.067-.03,0-.073a9.794,9.794,0,0,0-.472-2.56l-.023-.07.051-.052L150.4,215.8l-.014.147q-1.126-1.738-2.2-3.393l.135.044-2.294.842-.063.023-.049-.046a9.853,9.853,0,0,0-2.145-1.481l-.058-.029v-.065q-.015-1.255-.028-2.442l.082.1-3.951-.851.106-.053c-.362.78-.7,1.51-1.029,2.214l-.023.049-.054,0a9.826,9.826,0,0,0-2.569.468l-.048.015-.034-.034-1.745-1.71.091.009-3.4,2.184.023-.066c.33.918.6,1.671.829,2.3l.008.023-.016.018a10.415,10.415,0,0,0-1.191,1.581l-.248.423a.879.879,0,0,1-.084.139,1.356,1.356,0,0,1,.066-.149c.048-.1.122-.243.232-.433a9.5,9.5,0,0,1,1.167-1.614l-.009.041c-.234-.624-.515-1.374-.858-2.286l-.015-.042.038-.025,3.38-2.214.049-.032.042.042,1.756,1.7-.082-.019a10,10,0,0,1,2.611-.49l-.076.051,1.019-2.219.032-.068.075.015c1.25.265,2.562.542,3.954.834l.081.018v.082l.035,2.441-.06-.094a10,10,0,0,1,2.2,1.508l-.113-.022,2.292-.847.085-.032.051.077q1.073,1.652,2.2,3.388l.051.078-.066.068q-.839.864-1.7,1.751l.029-.122a9.99,9.99,0,0,1,.486,2.622l-.07-.1,2.217,1.023.089.041-.02.1q-.414,1.948-.841,3.954l-.02.1h-.1l-2.441.032.109-.068v0a10.077,10.077,0,0,1-1.512,2.2l.024-.127c.29.787.577,1.569.843,2.293l.034.092-.082.054-3.392,2.2-.082.053-.07-.068-1.748-1.707.122.029a10.085,10.085,0,0,1-2.622.482l.1-.068c-.356.768-.706,1.526-1.027,2.216l-.038.085-.091-.019-3.951-.848-.087-.018v-.089c-.01-.85-.02-1.685-.028-2.441l.058.094a9.978,9.978,0,0,1-2.19-1.514l.1.02-2.294.839-.073.027-.043-.065q-1.153-1.789-2.192-3.4l-.038-.059.049-.049,1.71-1.746-.019.082a10,10,0,0,1-.476-2.612l.043.063-2.213-1.033-.046-.022.01-.049c.352-1.608.644-2.937.866-3.948l.006-.032h.032l1.812,0,.468,0A1.29,1.29,0,0,1,130.433,216.208Z" transform="translate(-127.077 -208.446)"/></g><g transform="translate(444.768 56.482)"><g transform="translate(0.077 0.116)"><path class="b" d="M416.2,192.473a9.884,9.884,0,0,1,1.837-1.889l-.447-2.4,3.711-1.6,1.44,1.975a9.91,9.91,0,0,1,2.635-.039l1.381-2.013L430.512,188l-.379,2.412a9.929,9.929,0,0,1,1.889,1.838l2.4-.447,1.6,3.711-1.975,1.439a9.9,9.9,0,0,1,.038,2.633l2.013,1.383-1.493,3.755-2.413-.379a9.877,9.877,0,0,1-1.837,1.888l.447,2.4-3.712,1.6-1.438-1.975a9.911,9.911,0,0,1-2.635.038l-1.381,2.013-3.755-1.494.379-2.412a9.885,9.885,0,0,1-1.889-1.837l-2.4.447-1.6-3.712,1.975-1.438a9.856,9.856,0,0,1-.038-2.635l-2.014-1.381,1.494-3.756,2.413.38Zm4.035,4.163a4.336,4.336,0,1,0,5.631-2.426A4.336,4.336,0,0,0,420.236,196.636Z" transform="translate(-412.294 -186.506)"/></g><g transform="translate(7.655 7.417)"><path class="b" d="M418.643,195.1a3.288,3.288,0,0,1,.479-.962,4.318,4.318,0,0,1,2.364-1.691,4.372,4.372,0,0,1,2.037-.1,4.442,4.442,0,0,1,2.1,1.031,4.446,4.446,0,0,1,1.356,2.2,4.425,4.425,0,0,1-1.947,4.9,4.456,4.456,0,0,1-2.5.668,4.445,4.445,0,0,1-2.237-.7,4.377,4.377,0,0,1-1.414-1.471,4.319,4.319,0,0,1-.555-2.852,3.28,3.28,0,0,1,.313-1.028c.03.01-.134.363-.216,1.041a4.324,4.324,0,0,0,.609,2.75,4.238,4.238,0,0,0,3.507,2.027,4.227,4.227,0,0,0,2.362-.647,4.2,4.2,0,0,0,1.841-4.627,4.236,4.236,0,0,0-1.272-2.093,4.238,4.238,0,0,0-3.941-.934A4.322,4.322,0,0,0,419.2,194.2C418.8,194.746,418.671,195.115,418.643,195.1Z" transform="translate(-418.28 -192.273)"/></g><path class="b" d="M416.217,192.5a1.172,1.172,0,0,1-.152-.015l-.458-.062-1.809-.263.043-.024c-.377.963-.872,2.231-1.472,3.764l-.023-.075,2.019,1.374.037.024-.005.044a9.885,9.885,0,0,0,.046,2.613l.008.049-.039.029c-.614.451-1.28.937-1.971,1.445l.029-.106c.506,1.167,1.044,2.407,1.608,3.707l-.108-.057,2.4-.452.061-.011.039.049a9.826,9.826,0,0,0,1.871,1.814l.053.039-.01.063c-.116.748-.246,1.574-.376,2.413l-.068-.12,3.758,1.489-.138.043c.429-.628.9-1.317,1.379-2.016l.041-.058.071.008a9.841,9.841,0,0,0,2.6-.039l.072-.011.043.059,1.439,1.974-.147-.04,3.712-1.6-.073.135c-.141-.758-.294-1.576-.447-2.4l-.014-.073.058-.047a9.788,9.788,0,0,0,1.813-1.862v0l.046-.059.075.011,2.412.379-.134.077L436,200.948l.044.147-2.012-1.383-.062-.042.009-.073a9.719,9.719,0,0,0-.035-2.6l-.01-.072.058-.043,1.976-1.437-.039.142q-.817-1.9-1.6-3.713l.125.067-2.4.444-.067.013-.042-.053a9.789,9.789,0,0,0-1.865-1.821l-.052-.038.01-.065c.132-.827.258-1.628.382-2.412l.065.113-3.753-1.5.114-.034-1.386,2.009-.032.046-.053-.008a9.9,9.9,0,0,0-2.612.03l-.049.008-.029-.041c-.52-.719-.989-1.366-1.431-1.979l.087.024-3.718,1.583.033-.061c.172.961.314,1.748.432,2.4l0,.024-.019.015a10.32,10.32,0,0,0-1.44,1.358c-.135.162-.241.285-.316.376a1.13,1.13,0,0,1-.105.123,1.106,1.106,0,0,1,.089-.137c.065-.087.162-.219.3-.389a9.573,9.573,0,0,1,1.422-1.4l-.014.039c-.127-.655-.279-1.441-.463-2.4l-.008-.043.04-.018,3.7-1.615.054-.024.034.048,1.446,1.969-.078-.032a10,10,0,0,1,2.657-.047l-.085.039c.439-.642.893-1.308,1.377-2.018l.043-.062.071.028,3.758,1.486.077.03-.013.082-.375,2.412-.043-.1a9.994,9.994,0,0,1,1.913,1.855l-.108-.041,2.4-.449.09-.018.037.085q.78,1.81,1.6,3.71l.037.087-.076.056-1.974,1.439.048-.114a10.037,10.037,0,0,1,.041,2.666l-.052-.115q1,.684,2.013,1.381l.081.054-.035.092q-.737,1.852-1.493,3.755l-.037.092-.1-.015-2.412-.379.119-.049v0a10.062,10.062,0,0,1-1.859,1.91l.044-.12c.153.824.306,1.642.447,2.4l.018.1-.09.039-3.713,1.6-.089.038-.057-.078-1.438-1.975.115.048a10.1,10.1,0,0,1-2.666.037l.111-.051c-.48.7-.952,1.385-1.384,2.012l-.052.076-.086-.034-3.754-1.5-.082-.033.014-.087c.133-.839.265-1.664.382-2.412l.043.1a10.059,10.059,0,0,1-1.907-1.86l.1.038-2.4.442-.077.014-.03-.071c-.558-1.3-1.09-2.546-1.59-3.716l-.028-.066.057-.04c.694-.5,1.362-.986,1.979-1.433l-.033.077a10.013,10.013,0,0,1-.03-2.655l.032.07-2.008-1.39-.042-.029.019-.047c.617-1.526,1.127-2.787,1.516-3.746l.011-.03.032.006,1.786.3.461.082A1.04,1.04,0,0,1,416.217,192.5Z" transform="translate(-412.233 -186.414)"/></g><g transform="translate(424.008)"><g transform="translate(0.129 0.194)"><path class="c" d="M402.466,151.928a16.55,16.55,0,0,1,3.071-3.158l-.748-4.013,6.2-2.674,2.4,3.3a16.575,16.575,0,0,1,4.4-.063l2.309-3.366,6.277,2.5-.633,4.031a16.544,16.544,0,0,1,3.156,3.071l4.015-.747,2.673,6.2-3.3,2.406a16.468,16.468,0,0,1,.063,4.4l3.366,2.309-2.5,6.277-4.032-.633a16.544,16.544,0,0,1-3.071,3.156l.748,4.015-6.2,2.673-2.4-3.3a16.576,16.576,0,0,1-4.4.063l-2.309,3.366-6.277-2.5.633-4.031a16.5,16.5,0,0,1-3.156-3.071l-4.015.747-2.673-6.2,3.3-2.4a16.576,16.576,0,0,1-.063-4.4l-3.365-2.309,2.5-6.277,4.032.633Zm6.746,6.958a7.247,7.247,0,1,0,9.413-4.055A7.249,7.249,0,0,0,409.212,158.886Z" transform="translate(-395.937 -141.954)"/></g><g transform="translate(12.796 12.397)"><path class="c" d="M406.55,156.322a5.475,5.475,0,0,1,.8-1.608,7.21,7.21,0,0,1,3.949-2.828,7.321,7.321,0,0,1,3.407-.163,7.422,7.422,0,0,1,3.515,1.723,7.42,7.42,0,0,1,2.266,3.68,7.395,7.395,0,0,1-3.255,8.184,7.419,7.419,0,0,1-4.175,1.119,7.42,7.42,0,0,1-3.739-1.162,7.3,7.3,0,0,1-2.362-2.459,7.214,7.214,0,0,1-.928-4.769,5.487,5.487,0,0,1,.523-1.717c.049.016-.224.606-.363,1.738a7.23,7.23,0,0,0,1.02,4.6,7.077,7.077,0,0,0,5.861,3.39,7.085,7.085,0,0,0,3.949-1.081,7.02,7.02,0,0,0,3.076-7.737,7.085,7.085,0,0,0-2.127-3.5,7.075,7.075,0,0,0-6.587-1.562,7.222,7.222,0,0,0-3.9,2.64C406.8,155.728,406.6,156.345,406.55,156.322Z" transform="translate(-405.942 -151.593)"/></g><g transform="translate(0)"><path class="c" d="M402.493,151.969a1.709,1.709,0,0,1-.253-.025l-.766-.1-3.023-.439.072-.041c-.63,1.61-1.458,3.73-2.461,6.291l-.038-.125,3.375,2.3.061.042-.009.073a16.505,16.505,0,0,0,.077,4.369l.013.081-.067.049-3.294,2.413.049-.177c.846,1.951,1.745,4.022,2.687,6.2l-.18-.1,4.013-.755.1-.019.065.081a16.456,16.456,0,0,0,3.128,3.033l.087.065-.016.108c-.195,1.25-.409,2.628-.628,4.032l-.114-.2,6.28,2.49-.23.07,2.305-3.368.068-.1.118.014a16.385,16.385,0,0,0,4.35-.066l.12-.018.072.1,2.407,3.3-.246-.067,6.2-2.675-.122.228c-.235-1.269-.491-2.636-.748-4.015l-.023-.124.1-.077a16.357,16.357,0,0,0,3.03-3.113l0,0,.076-.1.124.02,4.031.633-.224.128q1.265-3.181,2.5-6.276l.075.246-3.365-2.312-.1-.07.015-.123a16.324,16.324,0,0,0-.061-4.349l-.018-.12.1-.072,3.3-2.4-.065.238q-1.367-3.177-2.668-6.206l.211.113q-2.045.376-4.016.742l-.111.02-.068-.089a16.432,16.432,0,0,0-3.118-3.042l-.087-.065.018-.108.639-4.03.106.187-6.271-2.511.19-.057-2.318,3.359-.051.075-.09-.01a16.419,16.419,0,0,0-4.365.051l-.082.011-.048-.066-2.394-3.308.148.041-6.216,2.645.054-.1c.289,1.605.525,2.922.722,4.02l.008.041-.032.024a17.122,17.122,0,0,0-2.407,2.271l-.528.627a1.673,1.673,0,0,1-.177.206,2.3,2.3,0,0,1,.149-.228c.108-.146.27-.367.5-.649a16.008,16.008,0,0,1,2.376-2.332l-.024.065c-.211-1.094-.465-2.408-.774-4.01l-.014-.072.068-.03,6.192-2.7.09-.039.058.08,2.416,3.293-.13-.056a16.679,16.679,0,0,1,4.441-.076l-.141.063,2.3-3.372.072-.1.118.047,6.282,2.484.129.051-.022.137c-.2,1.309-.411,2.65-.627,4.032l-.071-.172a16.774,16.774,0,0,1,3.2,3.1l-.181-.067,4.013-.752.151-.029.061.141q1.307,3.025,2.679,6.2l.062.146-.128.094-3.3,2.407.081-.192a16.715,16.715,0,0,1,.066,4.458l-.086-.192L435.871,166l.135.092-.061.153q-1.231,3.094-2.5,6.277l-.061.154-.165-.025q-2-.315-4.031-.633l.2-.082,0,0a16.856,16.856,0,0,1-3.108,3.193l.076-.2c.257,1.379.511,2.746.747,4.015l.03.162-.152.066-6.2,2.67-.149.063-.1-.13-2.4-3.3.191.08a16.857,16.857,0,0,1-4.456.061l.186-.085c-.8,1.166-1.591,2.317-2.312,3.364l-.087.128-.144-.057-6.273-2.506-.138-.054.023-.146c.223-1.4.442-2.782.639-4.031l.071.172a16.8,16.8,0,0,1-3.185-3.109l.166.062-4.016.739-.128.024-.052-.12c-.933-2.179-1.821-4.254-2.659-6.21l-.047-.109.1-.07,3.307-2.4-.054.13a16.652,16.652,0,0,1-.049-4.437l.052.115L395.9,157.7l-.07-.048.032-.077c1.031-2.551,1.884-4.659,2.532-6.263l.02-.049.052.009,2.985.5.771.138A2.15,2.15,0,0,1,402.493,151.969Z" transform="translate(-395.835 -141.801)"/></g></g><g transform="translate(0 216.919)"><path class="b" d="M222.436,406.717s-.018-.58-.027-1.685-.016-2.75-.028-4.884c-.015-4.292-.037-10.585-.065-18.667-.032-16.152-.079-39.432-.135-68.015l.254.254L61.271,313.8h-.013l.329-.329c-.008,33-.015,64.537-.023,93.251l-.306-.306,115.925.149,33.292.083,8.876.037,2.3.019c.518.006.79.018.79.018s-.248.013-.753.019l-2.26.018-8.816.038-33.221.084-116.128.149h-.306v-.308c-.008-28.714-.015-60.248-.023-93.251v-.331h.342l161.166.076h.256v.254c-.057,28.648-.1,51.981-.134,68.172-.028,8.056-.049,14.33-.065,18.61-.013,2.114-.022,3.731-.028,4.838C222.454,406.173,222.436,406.717,222.436,406.717Z" transform="translate(-60.929 -313.136)"/><g transform="translate(0.536 11.292)"><path class="b" d="M222.386,322.384c0,.182-36.052.33-80.513.33-44.478,0-80.521-.148-80.521-.33s36.043-.329,80.521-.329C186.334,322.055,222.386,322.2,222.386,322.384Z" transform="translate(-61.352 -322.055)"/></g><g transform="translate(14.29 26.997)"><rect class="c" width="49.787" height="49.787"/></g><g transform="translate(77.754 34.88)"><path class="b" d="M194.409,341.015a3.059,3.059,0,0,1-.732.067l-2.1.062-7.722.105-25.477.1-25.482-.1-7.722-.105-2.1-.062a3.059,3.059,0,0,1-.732-.067,3.112,3.112,0,0,1,.732-.066l2.1-.062,7.722-.105,25.482-.1,25.477.1,7.722.105,2.1.062A3.111,3.111,0,0,1,194.409,341.015Z" transform="translate(-122.344 -340.686)"/><g transform="translate(0 11.121)"><path class="b" d="M196.013,349.8a3.2,3.2,0,0,1-.748.067l-2.147.062-7.894.105-26.044.1-26.048-.1-7.894-.105-2.146-.062a3.19,3.19,0,0,1-.748-.067,3.246,3.246,0,0,1,.748-.066l2.146-.062,7.894-.105,26.048-.1,26.044.1,7.894.105,2.147.062A3.259,3.259,0,0,1,196.013,349.8Z" transform="translate(-122.344 -349.47)"/></g><g transform="translate(0 22.242)"><path class="b" d="M196.013,358.585a3.359,3.359,0,0,1-.748.066l-2.147.062-7.894.105-26.044.1-26.048-.1-7.894-.105-2.146-.062a3.345,3.345,0,0,1-.748-.066,3.185,3.185,0,0,1,.748-.067l2.146-.062,7.894-.105,26.048-.1,26.044.1,7.894.105,2.147.062A3.2,3.2,0,0,1,196.013,358.585Z" transform="translate(-122.344 -358.254)"/></g><g transform="translate(0 33.363)"><path class="b" d="M196.013,367.368a3.26,3.26,0,0,1-.748.066l-2.147.062-7.894.105-26.044.1-26.048-.1-7.894-.105-2.146-.062a3.247,3.247,0,0,1-.748-.066,3.187,3.187,0,0,1,.748-.067l2.146-.062,7.894-.105,26.048-.1,26.044.1,7.894.105,2.147.062A3.2,3.2,0,0,1,196.013,367.368Z" transform="translate(-122.344 -367.038)"/></g></g></g></g><g class="d" transform="translate(419.912 367.414)"><g transform="translate(53.284)"><path class="e" d="M255.4,130.859a2.544,2.544,0,0,1-.018,1.682,3.907,3.907,0,0,1-6.7,1.532,2.547,2.547,0,0,1-.748-1.508,8.241,8.241,0,0,0,.951,1.316,3.955,3.955,0,0,0,1.448.916,3.783,3.783,0,0,0,3.877-.886,3.952,3.952,0,0,0,.906-1.453A8.2,8.2,0,0,0,255.4,130.859Z" transform="translate(-247.931 -130.859)"/></g><g transform="translate(0 7.355)"><path class="f" d="M296.453,315.585c3.849-.347,10.891,6.35,13.225-2.227.568-3.565-4.478-7.14-7.62-9.2A45.617,45.617,0,0,1,296.453,315.585Z" transform="translate(-206.447 -180.358)"/><path class="g" d="M270.05,304.636c3.471,3.439,14.276,6.509,8.986,14.644-2.318,3.929-8.009,1.525-12.73,1A57.529,57.529,0,0,0,270.05,304.636Z" transform="translate(-199.116 -180.474)"/><path class="h" d="M196.968,268.564c-6.208,2.34-21.3.157-19.253,13.173.7,6.154,9.081,6.328,15.223,8.3A78.105,78.105,0,0,1,196.968,268.564Z" transform="translate(-177.525 -171.702)"/><path class="i" d="M207.535,326.188a13.794,13.794,0,0,0,9.94,17.513c8.391,2.241,13.222.862,16.038-6.739C236.515,328.853,210.217,317.387,207.535,326.188Z" transform="translate(-184.68 -184.944)"/><g transform="translate(7.228 70.013)"><path class="j" d="M225.141,236.558c-28.763,13.189-46.352,44.357-34.125,63.185,10.758,16.564,59.359,17.077,69.727,8.984C294.253,283.069,267.058,217.336,225.141,236.558Z" transform="translate(-187.077 -233.088)"/></g><path class="h" d="M276.531,327.656a15.541,15.541,0,0,1-11.361,19.637c-9.475,2.447-14.907.849-18.008-7.742C243.855,330.388,273.589,317.712,276.531,327.656Z" transform="translate(-194.398 -185.19)"/><path class="k" d="M229.555,236.558a73.7,73.7,0,0,0-24.328,18.055c4.053,1.436,10.044,2.784,12.1,4.291,8.383,6.387,9.25,9.8,8.522,20.251-.126,5.917-9.079,12.895-.675,17.941,10.387,6.238,28.5-2.495,30.915-24.786a54.591,54.591,0,0,1,23.876,8.843C282.635,253.4,259.977,222.608,229.555,236.558Z" transform="translate(-184.262 -163.075)"/><path class="l" d="M257.731,166.359c8.973,5.967,20.245,5.665,25.165-2.822s4.278-14.675-4.944-21.589C268.113,134.573,246.912,159.013,257.731,166.359Z" transform="translate(-196.301 -140.577)"/><path class="m" d="M251.163,154.8c-26.328-9.864-28.614,9.893-47.828,9.219-17.047-.6-21.556,9.534-23.508,20.386-8.849,49.2,73.708,84.569,92.14,33.482C276.15,206.292,288.87,168.928,251.163,154.8Z" transform="translate(-177.924 -143.364)"/><path class="n" d="M255.128,202.3c-5.566,10.766-29.6,6.167-32.513-4.562s20.591-30.008,27.366-24.869S261.289,188.528,255.128,202.3Z" transform="translate(-188.43 -148.222)"/><path class="h" d="M277.524,181.49c3.518,7.788,15.338,25.171,21.933,15.6,5.552-8.058,11.1-12.411,7.94-20.981C304.028,166.966,273.373,171.988,277.524,181.49Z" transform="translate(-201.75 -148.045)"/><path class="o" d="M226.351,223.908c-1.976,3.442-9.791-2.077-7.844-5.222C221.032,214.6,228.786,219.665,226.351,223.908Z" transform="translate(-187.417 -159.206)"/><path class="p" d="M191.515,202.069c-.009,2.693-1.641,4.872-3.644,4.865a4.892,4.892,0,0,1,.031-9.752C189.905,197.187,191.523,199.376,191.515,202.069Z" transform="translate(-178.952 -154.343)"/><path class="n" d="M194.009,166.475c-8.987-5.659-12.185,8.409-8.967,10.822C190.428,181.338,200.951,170.225,194.009,166.475Z" transform="translate(-179.057 -146.552)"/><path class="q" d="M246.523,184.992c5.678,5.487-4.92,12.244-8.351,7.947C234.1,187.842,241.491,180.323,246.523,184.992Z" transform="translate(-191.988 -151.021)"/><path class="n" d="M244.881,185.057c4.119,3.981-3.57,8.882-6.06,5.765C235.87,187.125,241.231,181.671,244.881,185.057Z" transform="translate(-192.224 -151.135)"/></g></g><g transform="translate(3.997 551.1)"><path class="r" d="M576.518,466.915c0,.182-120.812.329-269.805.329-149.046,0-269.831-.147-269.831-.329s120.785-.329,269.831-.329C455.707,466.586,576.518,466.733,576.518,466.915Z" transform="translate(-36.882 -466.586)"/></g><g transform="translate(101.817 479.062)"><path class="s" d="M127.673,409.686a13.975,13.975,0,0,1,9.226,5.9,24.68,24.68,0,0,1,3.987,10.423c1.2,7.162-.737,15.293-3.393,22.051-7.3-3.425-11.192-11.932-12.895-16.374-2.69-7.018-3.293-21.334,3.075-22" transform="translate(-111.877 -409.686)"/><path class="s" d="M143.247,452.122a11.932,11.932,0,0,1-.282-11.974,15.837,15.837,0,0,1,9.717-7.446c1.865-.527,4.021-.715,5.607.4a5.1,5.1,0,0,1,1.852,4.827,10.343,10.343,0,0,1-2.3,4.858c-3.807,4.912-8.394,8.967-14.6,9.337" transform="translate(-106.869 -403.674)"/><g transform="translate(33.85 36.27)"><path class="r" d="M141.567,473.2a5.44,5.44,0,0,1-.244-1.508c-.1-.974-.225-2.384-.323-4.134a51.229,51.229,0,0,1,.834-13.686,25.681,25.681,0,0,1,6.22-12.19,16.814,16.814,0,0,1,3.231-2.652,4.713,4.713,0,0,1,1.37-.687,35.732,35.732,0,0,0-4.178,3.731,26.917,26.917,0,0,0-5.848,11.975,59.391,59.391,0,0,0-1.055,13.49A46.267,46.267,0,0,1,141.567,473.2Z" transform="translate(-140.882 -438.334)"/></g><g transform="translate(17.487 10.861)"><path class="r" d="M127.966,418.265a14.973,14.973,0,0,1,.92,2.342c.544,1.524,1.294,3.742,2.192,6.492,1.8,5.5,4.154,13.139,6.549,21.635s4.369,16.249,5.707,21.877c.67,2.814,1.188,5.1,1.518,6.681a14.878,14.878,0,0,1,.438,2.478,14.716,14.716,0,0,1-.746-2.4c-.455-1.7-1.05-3.929-1.769-6.616-1.479-5.588-3.542-13.3-5.933-21.8s-4.659-16.145-6.315-21.685c-.789-2.668-1.445-4.878-1.943-6.566A14.748,14.748,0,0,1,127.966,418.265Z" transform="translate(-127.958 -418.265)"/></g><path class="s" d="M140.8,456.714a27.906,27.906,0,0,0-19.942-15.886c-2.211-.423-4.936-.362-6.166,1.523s-.177,4.42,1.148,6.243a23.839,23.839,0,0,0,24.972,8.731" transform="translate(-114.145 -401.458)"/><g transform="translate(9.139 45.712)"><path class="r" d="M121.364,445.812a5.1,5.1,0,0,1,1.455.148,11.8,11.8,0,0,1,1.676.357,19.518,19.518,0,0,1,2.179.653,29.371,29.371,0,0,1,5.369,2.5,31.393,31.393,0,0,1,10.364,10.035,29.352,29.352,0,0,1,2.675,5.286,19.328,19.328,0,0,1,.723,2.156,11.712,11.712,0,0,1,.411,1.664,5.058,5.058,0,0,1,.195,1.448c-.156.037-.555-2.007-1.861-5.05a32.788,32.788,0,0,0-2.771-5.093,33.123,33.123,0,0,0-10.126-9.8,32.687,32.687,0,0,0-5.181-2.6C123.388,446.3,121.334,445.969,121.364,445.812Z" transform="translate(-121.364 -445.792)"/></g></g><g transform="translate(406.447 17.522)"><path class="t" d="M441.957,75.445c-4.349-15.169-20.828-29.267-36.608-29.224-13.206-3.9-31.006,3.364-38.069,11.187C358,67.692,352.133,81.919,355.934,95.243s14.454,24.318,27.393,29.272c14.736,5.644,32.456,3.32,44.726-6.6S446.306,90.614,441.957,75.445Z" transform="translate(-354.76 -45.135)"/><path class="u" d="M441.957,75.445c-4.349-15.169-20.828-29.267-36.608-29.224-13.206-3.9-31.006,3.364-38.069,11.187C358,67.692,352.133,81.919,355.934,95.243s14.454,24.318,27.393,29.272c14.736,5.644,32.456,3.32,44.726-6.6S446.306,90.614,441.957,75.445Z" transform="translate(-354.76 -45.135)"/><g transform="translate(23.765 17.504)"><path class="t" d="M414.279,94.321a2.389,2.389,0,0,1-.032-.429c-.008-.317-.018-.719-.032-1.226-.015-1.117-.037-2.679-.063-4.667-.028-4.072-.068-9.874-.119-17.012l.123.213-20.24-11.611h.31L374.031,71.271c-.149.256.2-.346.162-.281v3.054q0,1.521,0,3.025,0,3.006,0,5.934c-.005,3.9-.01,7.685-.014,11.318l-.156-.268,20.175,11.724h-.244l14.793-8.4,4.073-2.278,1.076-.585a2.622,2.622,0,0,1,.389-.189,1.766,1.766,0,0,1-.327.225l-1.018.624c-.952.566-2.284,1.36-3.978,2.37l-14.763,8.66-.12.071-.124-.071-20.24-11.61-.156-.089v-.181c-.005-3.634-.009-7.418-.014-11.318q0-2.925,0-5.934,0-1.5,0-3.025V70.99c-.037.06.313-.544.168-.29l20.214-11.649.156-.09.154.09L414.4,70.775l.124.072v.141c-.049,7.181-.09,13.019-.118,17.114-.028,1.973-.049,3.523-.065,4.63-.013.494-.023.887-.03,1.2A1.847,1.847,0,0,1,414.279,94.321Z" transform="translate(-373.531 -58.961)"/><g transform="translate(0.331 12.023)"><path class="t" d="M414.209,68.461a9.828,9.828,0,0,1-1.524,1.028l-4.278,2.592c-3.627,2.162-8.661,5.111-14.239,8.332-.662,0-.189,0-.338,0l-.009,0-.016-.01-.032-.019-.066-.037-.13-.076-.261-.151-.518-.3-1.026-.594-2-1.163-3.784-2.207-6.388-3.77-4.278-2.59a9.824,9.824,0,0,1-1.524-1.028,9.826,9.826,0,0,1,1.652.805l4.383,2.409,6.459,3.647,3.8,2.174,2.009,1.155,1.027.591.518.3.261.151.13.076.066.037.033.019.016.01.008,0c-.144,0,.334.005-.322,0,5.579-3.221,10.65-6.1,14.337-8.165,1.766-.972,3.239-1.781,4.383-2.411A9.826,9.826,0,0,1,414.209,68.461Z" transform="translate(-373.792 -68.457)"/></g><g transform="translate(20.246 23.446)"><path class="t" d="M389.851,100.773c-.182,0-.329-5.215-.329-11.646s.147-11.646.329-11.646.33,5.214.33,11.646S390.034,100.773,389.851,100.773Z" transform="translate(-389.522 -77.48)"/></g></g><g class="v" transform="translate(52.001 22.546)"><path class="w" d="M395.833,62.943" transform="translate(-395.833 -62.943)"/></g></g><g transform="translate(107.55 249.041)"><g transform="translate(49.503)"><path class="x" d="M164.546,243.652a20.307,20.307,0,0,1,3.083-4.446l-1.717-4.714L172.891,230l3.579,3.513a20.368,20.368,0,0,1,5.324-.966L183.912,228l8.11,1.759.047,5.012a20.349,20.349,0,0,1,4.445,3.084l4.713-1.715,4.492,6.977-3.513,3.58a20.316,20.316,0,0,1,.966,5.322l4.545,2.118-1.757,8.11-5.014.048a20.292,20.292,0,0,1-3.084,4.445l1.717,4.714-6.978,4.492-3.58-3.515a20.3,20.3,0,0,1-5.322.967l-2.118,4.544-8.11-1.757-.047-5.014a20.3,20.3,0,0,1-4.445-3.083l-4.714,1.716-4.492-6.977,3.513-3.58a20.314,20.314,0,0,1-.966-5.322l-4.545-2.118,1.757-8.11,5.015-.047Zm9.579,7.068A8.9,8.9,0,1,0,184.71,243.9,8.9,8.9,0,0,0,174.125,250.72Z" transform="translate(-157.774 -228.002)"/><path class="y" d="M164.546,243.652a20.307,20.307,0,0,1,3.083-4.446l-1.717-4.714L172.891,230l3.579,3.513a20.368,20.368,0,0,1,5.324-.966L183.912,228l8.11,1.759.047,5.012a20.349,20.349,0,0,1,4.445,3.084l4.713-1.715,4.492,6.977-3.513,3.58a20.316,20.316,0,0,1,.966,5.322l4.545,2.118-1.757,8.11-5.014.048a20.292,20.292,0,0,1-3.084,4.445l1.717,4.714-6.978,4.492-3.58-3.515a20.3,20.3,0,0,1-5.322.967l-2.118,4.544-8.11-1.757-.047-5.014a20.3,20.3,0,0,1-4.445-3.083l-4.714,1.716-4.492-6.977,3.513-3.58a20.314,20.314,0,0,1-.966-5.322l-4.545-2.118,1.757-8.11,5.015-.047Zm9.579,7.068A8.9,8.9,0,1,0,184.71,243.9,8.9,8.9,0,0,0,174.125,250.72Z" transform="translate(-157.774 -228.002)"/></g><g transform="translate(0 11.83)"><g transform="translate(0.052 0.358)"><g transform="translate(0.192 0.289)"><path class="a" d="M123.744,249.222A14.775,14.775,0,0,1,125.962,246l-1.252-3.4,5.035-3.266,2.6,2.532a14.714,14.714,0,0,1,3.846-.713l1.521-3.292,5.871,1.251.046,3.626a14.642,14.642,0,0,1,3.223,2.219l3.4-1.253,3.266,5.035-2.532,2.6a14.67,14.67,0,0,1,.712,3.848l3.293,1.521-1.251,5.869-3.626.047a14.707,14.707,0,0,1-2.219,3.222l1.253,3.4-5.035,3.266-2.6-2.532a14.722,14.722,0,0,1-3.848.713l-1.521,3.292-5.869-1.251-.047-3.626a14.659,14.659,0,0,1-3.222-2.218l-3.4,1.252-3.266-5.035,2.532-2.6a14.722,14.722,0,0,1-.713-3.846l-3.292-1.522,1.251-5.869,3.626-.047Zm6.946,5.09a6.438,6.438,0,1,0,7.638-4.955A6.438,6.438,0,0,0,130.689,254.312Z" transform="translate(-118.867 -237.857)"/></g><g transform="translate(11.756 11.381)"><path class="r" d="M128.259,251.981c-.022-.005-.008-.147.042-.415a4.873,4.873,0,0,1,.367-1.137,6.407,6.407,0,0,1,3.045-3.135,6.654,6.654,0,0,1,6.409.313,6.72,6.72,0,0,1-2.638,12.387,6.651,6.651,0,0,1-5.981-2.327,6.408,6.408,0,0,1-1.5-4.1,4.815,4.815,0,0,1,.128-1.188c.065-.266.109-.4.13-.395.065.01-.067.571,0,1.574a6.421,6.421,0,0,0,1.6,3.808,6.153,6.153,0,1,0,2.056-9.647,6.428,6.428,0,0,0-3.014,2.826C128.432,251.43,128.323,252,128.259,251.981Z" transform="translate(-128.001 -246.619)"/></g><path class="r" d="M123.784,249.283a6.261,6.261,0,0,1-.9.062l-2.722.09.1-.082c-.308,1.524-.708,3.5-1.19,5.882l-.092-.186,3.3,1.5.106.048.006.118a14.644,14.644,0,0,0,.724,3.789l.042.123-.092.1-2.518,2.611.029-.292c1.036,1.583,2.133,3.261,3.287,5.022l-.308-.1,3.4-1.265.154-.058.123.111a14.521,14.521,0,0,0,3.169,2.167l.153.077,0,.173c.016,1.123.037,2.363.056,3.625l-.233-.284,5.873,1.238-.343.171c.472-1.025.99-2.154,1.515-3.294l.078-.172.19-.01a14.488,14.488,0,0,0,3.763-.7l.184-.061.139.135,2.6,2.528-.4-.039,5.033-3.27-.129.389-1.255-3.4-.068-.187.134-.147a14.448,14.448,0,0,0,2.166-3.147l0,0,.29-.181h.224l.228,0,.456-.006.91-.011,1.807-.023-.318.261q.636-2.976,1.253-5.869l.182.365-3.29-1.523-.177-.084-.01-.195a14.353,14.353,0,0,0-.693-3.763l-.06-.185.134-.138,2.536-2.594-.039.39-3.256-5.04.36.119-3.407,1.246-.17.061-.132-.119a14.464,14.464,0,0,0-3.152-2.184l-.154-.08,0-.171c-.011-1.243-.024-2.449-.035-3.626l.218.265-5.866-1.272.281-.141-1.534,3.285-.061.13-.142.006a14.546,14.546,0,0,0-3.792.682l-.127.041-.092-.092c-.937-.924-1.783-1.759-2.583-2.546l.242.023-5.06,3.227.058-.175c.482,1.357.88,2.475,1.214,3.418l.022.062-.043.046a15.714,15.714,0,0,0-1.783,2.33c-.339.544-.5.842-.514.822a1.059,1.059,0,0,1,.086-.227c.068-.146.175-.366.334-.651a13.857,13.857,0,0,1,1.719-2.416l-.02.108c-.357-.934-.78-2.045-1.293-3.391l-.042-.109.1-.066,5.01-3.306.129-.085.113.109,2.613,2.516-.219-.051a14.907,14.907,0,0,1,3.9-.742l-.2.137,1.505-3.3.084-.184.2.042,5.874,1.229.214.046,0,.22c.019,1.176.038,2.381.058,3.625l-.157-.251a14.963,14.963,0,0,1,3.293,2.255l-.3-.058,3.4-1.261.227-.084.133.2,3.275,5.029.137.21-.176.18-2.527,2.6.075-.322a15.053,15.053,0,0,1,.732,3.93l-.187-.277,3.293,1.518.237.109-.054.256q-.615,2.892-1.248,5.869l-.054.257-.263,0-1.808.024-.909.011-.456.005-.228,0h-.224l.289-.18v0a15.056,15.056,0,0,1-2.268,3.292l.065-.334c.43,1.169.857,2.328,1.252,3.4l.09.246-.219.142-5.038,3.263-.218.141-.184-.18-2.6-2.536.322.076a15.088,15.088,0,0,1-3.93.722l.268-.182c-.529,1.141-1.051,2.265-1.527,3.289l-.1.224-.239-.052-5.867-1.264-.23-.049,0-.234c-.013-1.262-.025-2.5-.037-3.626l.154.249a14.975,14.975,0,0,1-3.277-2.27l.277.053-3.408,1.242-.2.071-.113-.173q-1.705-2.657-3.245-5.049l-.1-.158.13-.133,2.545-2.585-.051.218a14.884,14.884,0,0,1-.7-3.9l.111.166-3.28-1.545-.123-.057.029-.129c.53-2.371.971-4.339,1.312-5.857l.018-.084h.084l2.68.022.7.016A1.17,1.17,0,0,1,123.784,249.283Z" transform="translate(-118.715 -237.629)"/></g><g transform="translate(11.532 11.651)"><path class="r" d="M128.317,252a4.761,4.761,0,0,1,.209-.774,6.336,6.336,0,0,1,1.127-2.023,6.5,6.5,0,1,1,5.529,10.692,6.69,6.69,0,0,1-7.208-5.82,6.975,6.975,0,0,1-.052-1.064c0-.177.013-.356.028-.532l.027-.265.014-.125.005-.052v-.005a.2.2,0,0,0,.005.047.335.335,0,0,0,.265.246l.36-.21a4.013,4.013,0,0,0-.152.8,6.172,6.172,0,0,0,3.717,6.2,6.3,6.3,0,0,0,8.614-7.161,6.358,6.358,0,0,0-8.1-4.712,6.5,6.5,0,0,0-3,1.976A6.851,6.851,0,0,0,128.317,252a1.9,1.9,0,0,1,.116-.82,5.922,5.922,0,0,1,1.08-2.119,6.623,6.623,0,0,1,3.08-2.164,6.758,6.758,0,0,1,4.968.276,6.872,6.872,0,1,1-9.744,5.681,4.41,4.41,0,0,1,.191-.97l.084-.254.275.044c.237.039.31.332.28.273a.507.507,0,0,1,.008.078v.06l-.008.075-.015.13-.025.246c-.014.163-.023.327-.025.49a6.433,6.433,0,0,0,.046.967,6.122,6.122,0,0,0,3.026,4.53,6,6,0,1,0,5.677-10.574,6.152,6.152,0,0,0-4.524-.444,6.371,6.371,0,0,0-2.961,1.865A10.9,10.9,0,0,0,128.317,252Z" transform="translate(-127.782 -246.549)"/></g><path class="r" d="M123.8,249.358l-3.673.062.071-.058c-.322,1.526-.747,3.532-1.266,5.991l-.066-.132,3.361,1.547-.172.2-.063-.092.253-.084a14.771,14.771,0,0,0,.715,3.837l-.3.013.028-.123.263.146-2.6,2.675.022-.211q1.6,2.452,3.392,5.216l-.227-.076,3.512-1.3.03.39-.154-.029.176-.351a14.7,14.7,0,0,0,3.213,2.207l-.28.305-.087-.139.4-.116c.016,1.142.034,2.435.052,3.756l-.177-.217,6.134,1.3-.266.133c.479-1.039,1.022-2.218,1.574-3.418l.362.308-.151.1-.149-.452a14.732,14.732,0,0,0,3.826-.713l.022.49-.18-.042.235-.43,2.7,2.63-.325-.033c1.623-1.055,3.431-2.231,5.276-3.431l-.108.323-1.308-3.54.533-.043-.035.187-.48-.241a14.685,14.685,0,0,0,2.2-3.212l.4.377-.161.1-.154-.525,3.773-.054-.28.229c.4-1.9.849-4.013,1.3-6.158l.166.332-3.426-1.576.375-.442.105.154-.549.184a14.67,14.67,0,0,0-.713-3.813l.587-.025-.042.18-.517-.282,2.626-2.7-.038.384-3.426-5.26.372.124-3.528,1.307-.049-.608.167.032-.272.546a14.641,14.641,0,0,0-3.193-2.188l.415-.454.087.141-.591.173c-.018-1.165-.037-2.454-.056-3.747l.254.309-6.1-1.285.362-.181-1.559,3.4-.477-.406.113-.076.2.6a14.575,14.575,0,0,0-3.793.714l-.029-.629.123.029-.3.553-2.67-2.583.408.038-5.148,3.373.128-.39c.409,1.09.852,2.271,1.3,3.456l-.632.054.011-.061.57.282a13.42,13.42,0,0,0-1.9,2.728l-.127.237c.005-.005,0-.033-.028-.058a.137.137,0,0,0-.054-.027l-.016,0h-.01c.092-.023-.382-.276-.46-.113a.292.292,0,0,0-.062.051l-.02.024c-.011.015,0,0,0,0l.28-.479c.187-.327.4-.655.608-.967a15.594,15.594,0,0,1,1.412-1.778l-.067.334c-.419-1.163-.832-2.308-1.243-3.446l.623-.008-.033.1-.49-.381,5.049-3.242.146.6-.135-.013.262-.561,2.641,2.593-.33-.079a15.04,15.04,0,0,1,4.051-.736l-.28.187q.788-1.69,1.564-3.36l.439.427-.157.078-.077-.606,5.867,1.266-.317.518-.122-.148.57-.208q.021,1.876.039,3.722l-.173-.281a14.986,14.986,0,0,1,3.412,2.36l-.322-.062,3.5-1.281.009.592-.2-.067.362-.468,3.258,5.041-.567.137.022-.218.529.246-2.612,2.671.071-.308a14.846,14.846,0,0,1,.751,4.092l-.173-.258,3.388,1.572-.39.4-.1-.2.556-.071c-.43,2.005-.848,3.954-1.26,5.867l-.467-.284.179-.146.187.513-3.736.043.248-.153a14.929,14.929,0,0,1-2.364,3.421l.056-.284c.448,1.223.87,2.375,1.286,3.511l-.514.008.072-.216.406.314c-1.756,1.137-3.418,2.211-5.039,3.26l-.116-.481.224.023-.209.448c-.944-.924-1.816-1.775-2.671-2.611l.257.059a14.839,14.839,0,0,1-4.077.749l.213-.143-1.57,3.387-.323-.314.191-.095.057.446-5.868-1.257.22-.361.129.158-.4.146c-.015-1.367-.029-2.56-.043-3.722l.118.187A14.787,14.787,0,0,1,126.959,267l.206.039-3.492,1.281-.006-.361.171.058-.219.285-3.26-5.039.31-.076-.016.163-.289-.134,2.585-2.649-.035.156a14.785,14.785,0,0,1-.736-3.991l.08.116-3.349-1.551.153-.16.052.1-.219.029,1.26-5.868.118.071-.057.047-.048-.128,3.627-.034a4.765,4.765,0,0,1-.894.076l-2.73.1-.21.008.163-.135.056-.047.157-.132-.041.2-1.172,5.886-.066.33-.153-.3-.053-.1-.151-.3.305.137,3.365,1.517.073.034.005.084a14.648,14.648,0,0,0,.757,3.908l.029.087-.066.068c-.757.789-1.553,1.615-2.565,2.668l-.336.349.047-.484.015-.162.046-.48.265.4,3.3,5.015.3.456-.519-.171-.172-.056-.515-.171.51-.19,3.484-1.3.114-.042.091.082a14.4,14.4,0,0,0,3.308,2.254l.115.058,0,.13c.019,1.162.039,2.355.062,3.722l.011.638-.408-.494-.13-.158-.405-.493.625.132,5.873,1.229.667.139-.609.306-.191.1-.608.305.284-.619c.494-1.077,1-2.176,1.555-3.393l.062-.137.149-.006a14.381,14.381,0,0,0,3.941-.742l.146-.049.111.109,2.683,2.6.537.52-.746-.073-.224-.022-.744-.072.628-.409L148.953,269l.651-.424-.244.739-.071.216-.246.739-.27-.731c-.42-1.134-.846-2.285-1.3-3.507l-.06-.159.114-.124a14.369,14.369,0,0,0,2.271-3.308l.076-.151.173,0,3.736-.053.825-.011-.638.524-.177.147-.639.524.172-.809c.405-1.916.819-3.864,1.245-5.871l.176-.829.38.758.1.2.38.758-.771-.356-3.392-1.565-.167-.077-.008-.181a14.317,14.317,0,0,0-.729-3.934l-.058-.173.13-.134,2.607-2.675.614-.631-.086.876-.022.218-.086.879-.481-.741L149.9,244.1l-.486-.751.85.282.2.067.851.282-.842.31-3.5,1.285-.181.067-.142-.129a14.345,14.345,0,0,0-3.275-2.261l-.172-.086,0-.195c-.014-1.232-.029-2.47-.043-3.721l-.011-.914.581.706.122.148.584.712-.9-.194-5.868-1.26-.9-.194.825-.414.157-.078.831-.417-.391.843-1.561,3.361-.084.18-.2.009a14.363,14.363,0,0,0-3.88.708l-.189.062-.142-.141-2.642-2.59-.665-.652.927.091.135.014.938.092-.793.51-5.049,3.244-.786.505.3-.886.032-.1.3-.9.322.891,1.245,3.446.068.189-.135.147a14.853,14.853,0,0,0-1.353,1.7c-.206.3-.4.608-.584.931l-.287.491-.038.056-.025.032a.378.378,0,0,1-.066.053c-.077.162-.553-.09-.461-.114h0v-.018l0-.034a1.072,1.072,0,0,1,0-.156.957.957,0,0,1,.085-.315l.138-.26a14.115,14.115,0,0,1,1.993-2.863l.8-.9-.228,1.18-.011.06-.222,1.148-.41-1.094c-.446-1.186-.889-2.368-1.3-3.459l-.094-.247.222-.144,5.149-3.37.22-.144.187.182,2.669,2.585.848.82-1.15-.267-.122-.028-1.134-.263,1.105-.367a15.266,15.266,0,0,1,3.963-.743l1.172-.06-.972.655-.114.077-.962.649.485-1.056c.537-1.171,1.072-2.336,1.56-3.4l.109-.236.253.053,6.1,1.29.252.053,0,.257c.019,1.3.037,2.583.053,3.748l.015,1.15-.606-.976-.086-.139-.6-.966,1.015.511a15.25,15.25,0,0,1,3.33,2.289l.842.763-1.114-.218-.168-.033-1.109-.216,1.06-.39,3.531-1.3.235-.087.137.21,3.417,5.266.134.208-.172.176-2.63,2.7-.766.786.249-1.067.042-.18.248-1.06.339,1.033a15.253,15.253,0,0,1,.734,3.974l.051,1.076-.6-.894-.105-.154-.6-.894.977.452,3.423,1.584.215.1-.049.232c-.458,2.142-.91,4.255-1.318,6.156l-.048.225-.23,0-3.773.043-1.02.011.866-.537.162-.1.862-.534-.462.913a15.3,15.3,0,0,1-2.29,3.313l-.67.733.19-.974.037-.187.191-.979.343.936,1.3,3.544.075.205-.182.119c-1.85,1.193-3.66,2.362-5.286,3.413l-.177.114-.149-.147-2.694-2.64-.653-.639.889.209.18.042.887.208-.866.282a15.178,15.178,0,0,1-3.96.723l-.881.039.73-.491.151-.1.736-.494-.374.8c-.558,1.2-1.107,2.374-1.589,3.411l-.081.173-.186-.039-6.128-1.329-.176-.038V273c-.011-1.322-.023-2.614-.033-3.756l-.008-.768.405.652.086.141.405.653-.684-.349a15.1,15.1,0,0,1-3.294-2.288l-.533-.49.709.139.154.03.718.142-.686.248-3.52,1.276-.144.052-.082-.129-3.358-5.239L120,263.2l.1-.1,2.623-2.655.392-.4-.128.543-.029.123-.13.548-.171-.536a14.992,14.992,0,0,1-.7-3.921l-.02-.5.275.411.062.092.277.417-.451-.214-3.345-1.584-.087-.04.022-.092c.556-2.451,1.009-4.451,1.353-5.972l.014-.058h.058l2.749.033.694.025C123.731,249.346,123.8,249.358,123.8,249.358Z" transform="translate(-118.674 -237.346)"/></g></g><g transform="translate(0 0)"><g transform="translate(0 12.231)"><path class="t" d="M217.66,152.822v11.29H33.725V40.956H46" transform="translate(-33.725 -40.956)"/><path class="u" d="M217.66,152.822v11.29H33.725V40.956H46" transform="translate(-33.725 -40.956)"/></g><g transform="translate(12.51)"><g transform="translate(0.33 0.33)"><rect class="e" width="183.935" height="123.156"/></g><path class="t" d="M227.871,154.78s-.018-.77-.028-2.24-.016-3.656-.029-6.5c-.016-5.7-.038-14.062-.067-24.769-.033-21.4-.081-52.152-.139-89.649l.263.263-183.92.067h-.014l.329-.33c-.01,43.875-.019,85.6-.028,123.156l-.3-.3,132.514.148,37.859.081,10.07.037,2.6.018c.586.006.893.018.893.018s-.282.011-.857.018l-2.565.018-10.011.037-37.79.081-132.711.149h-.3v-.3c-.008-37.559-.018-79.281-.028-123.156V31.3h.344l183.92.066h.265v.263c-.057,37.565-.105,68.377-.138,89.814-.029,10.68-.052,19.024-.067,24.71-.013,2.821-.023,4.979-.029,6.448C227.89,154.049,227.871,154.78,227.871,154.78Z" transform="translate(-43.606 -31.295)"/></g><g transform="translate(12.841 10.991)"><path class="t" d="M43.867,40.305c0-.182,41.144-.329,91.887-.329,50.76,0,91.895.147,91.895.329s-41.135.33-91.895.33C85.011,40.636,43.867,40.487,43.867,40.305Z" transform="translate(-43.867 -39.976)"/></g><g transform="translate(17.149 4.302)"><path class="t" d="M50.219,36.167a1.474,1.474,0,1,1-1.475-1.474A1.475,1.475,0,0,1,50.219,36.167Z" transform="translate(-47.27 -34.693)"/><path class="t" d="M54.207,36.167a1.474,1.474,0,1,1-1.474-1.474A1.473,1.473,0,0,1,54.207,36.167Z" transform="translate(-46.208 -34.693)"/><path class="t" d="M58.141,36.167a1.474,1.474,0,1,1-1.474-1.474A1.473,1.473,0,0,1,58.141,36.167Z" transform="translate(-45.162 -34.693)"/><g class="z"><path class="e" d="M50.219,36.167a1.474,1.474,0,1,1-1.475-1.474A1.475,1.475,0,0,1,50.219,36.167Z" transform="translate(-47.27 -34.693)"/><path class="e" d="M54.207,36.167a1.474,1.474,0,1,1-1.474-1.474A1.473,1.473,0,0,1,54.207,36.167Z" transform="translate(-46.208 -34.693)"/><path class="e" d="M58.141,36.167a1.474,1.474,0,1,1-1.474-1.474A1.473,1.473,0,0,1,58.141,36.167Z" transform="translate(-45.162 -34.693)"/></g></g><g class="aa" transform="translate(28.653 24.163)"><rect class="t" width="49.064" height="49.064"/></g><g transform="translate(86.077 37.702)"><path class="t" d="M187.188,61.4c0,.182-19.135.33-42.736.33s-42.739-.148-42.739-.33,19.131-.329,42.739-.329S187.188,61.222,187.188,61.4Z" transform="translate(-101.713 -61.074)"/></g><g transform="translate(86.077 46.82)"><path class="t" d="M187.188,68.605c0,.182-19.135.33-42.736.33s-42.739-.148-42.739-.33,19.131-.329,42.739-.329S187.188,68.423,187.188,68.605Z" transform="translate(-101.713 -68.276)"/></g><g transform="translate(86.077 55.937)"><path class="t" d="M187.188,75.807c0,.182-19.135.329-42.736.329s-42.739-.147-42.739-.329,19.131-.33,42.739-.33S187.188,75.625,187.188,75.807Z" transform="translate(-101.713 -75.477)"/></g><g transform="translate(86.077 65.055)"><path class="t" d="M152.23,83.008a11.383,11.383,0,0,1-1.985.129l-5.412.105c-4.572.06-10.885.1-17.859.1s-13.292-.037-17.863-.1l-5.414-.105a11.375,11.375,0,0,1-1.984-.129,11.639,11.639,0,0,1,1.984-.128l5.414-.105c4.57-.059,10.885-.1,17.863-.1s13.287.037,17.859.1l5.412.105A11.647,11.647,0,0,1,152.23,83.008Z" transform="translate(-101.713 -82.679)"/></g><g transform="translate(31.724 89.77)"><rect class="t" width="23.058" height="23.058" transform="translate(0 0)"/><rect class="ab" width="23.058" height="23.058" transform="translate(0 0)"/></g><g transform="translate(73.54 89.77)"><rect class="t" width="23.058" height="23.058" transform="translate(0 0)"/><rect class="ab" width="23.058" height="23.058" transform="translate(0 0)"/></g><g transform="translate(115.356 89.77)"><rect class="t" width="23.058" height="23.058" transform="translate(0 0)"/><rect class="ab" width="23.058" height="23.058" transform="translate(0 0)"/></g><g transform="translate(157.173 89.77)"><rect class="t" width="23.058" height="23.058" transform="translate(0 0)"/><rect class="ab" width="23.058" height="23.058" transform="translate(0 0)"/></g><g transform="translate(343.187 251.536)"><g transform="translate(0.33 0.33)"><rect class="e" width="208.203" height="84.569"/></g><path class="t" d="M513.328,314.872s-.016-.519-.024-1.51-.014-2.468-.025-4.388c-.013-3.858-.033-9.527-.057-16.83-.03-14.6-.072-35.709-.125-61.84l.232.232-208.189.1h-.014l.329-.329c-.005,29.615-.01,58.2-.014,84.568l-.315-.315L454.4,314.7l43.3.089,11.589.039,3,.02c.677.006,1.032.019,1.032.019s-.329.013-.993.02l-2.963.019-11.525.04-43.232.087-149.491.148h-.315v-.316c-.005-26.367-.01-54.953-.015-84.568v-.33h.344l208.189.1h.232v.232c-.053,26.189-.1,47.352-.125,61.981-.025,7.28-.044,12.931-.058,16.778-.01,1.9-.019,3.354-.024,4.346C513.343,314.384,513.328,314.872,513.328,314.872Z" transform="translate(-304.794 -229.973)"/><g transform="translate(0.538 11.405)"><path class="t" d="M305.219,239.311c0-.182,46.537-.33,103.931-.33,57.414,0,103.941.148,103.941.33s-46.527.329-103.941.329C351.756,239.641,305.219,239.494,305.219,239.311Z" transform="translate(-305.219 -238.981)"/></g><g transform="translate(6.233 5.122)"><path class="t" d="M312.739,235.531a1.511,1.511,0,1,1-1.512-1.512A1.511,1.511,0,0,1,312.739,235.531Z" transform="translate(-309.717 -234.019)"/><path class="t" d="M316.828,235.531a1.511,1.511,0,1,1-1.51-1.512A1.51,1.51,0,0,1,316.828,235.531Z" transform="translate(-308.629 -234.019)"/><path class="t" d="M320.859,235.531a1.511,1.511,0,1,1-1.51-1.512A1.51,1.51,0,0,1,320.859,235.531Z" transform="translate(-307.557 -234.019)"/><g class="z"><path class="e" d="M312.739,235.531a1.511,1.511,0,1,1-1.512-1.512A1.511,1.511,0,0,1,312.739,235.531Z" transform="translate(-309.717 -234.019)"/><path class="e" d="M316.828,235.531a1.511,1.511,0,1,1-1.51-1.512A1.51,1.51,0,0,1,316.828,235.531Z" transform="translate(-308.629 -234.019)"/><path class="e" d="M320.859,235.531a1.511,1.511,0,1,1-1.51-1.512A1.51,1.51,0,0,1,320.859,235.531Z" transform="translate(-307.557 -234.019)"/></g></g><g transform="translate(18.024 25.481)"><rect class="t" width="50.289" height="50.289"/><rect class="ab" width="50.289" height="50.289"/></g><g transform="translate(78.536 38.627)"><path class="t" d="M482.418,260.813c0,.181-25.878.329-57.793.329s-57.8-.148-57.8-.329,25.873-.33,57.8-.33S482.418,260.631,482.418,260.813Z" transform="translate(-366.826 -260.483)"/><g transform="translate(0 10.245)"><path class="t" d="M482.418,268.905c0,.181-25.878.329-57.793.329s-57.8-.148-57.8-.329,25.873-.33,57.8-.33S482.418,268.723,482.418,268.905Z" transform="translate(-366.826 -268.575)"/></g><g transform="translate(0 20.49)"><path class="t" d="M441.237,277a3.25,3.25,0,0,1-.756.067l-2.167.062-7.974.105-26.306.1-26.311-.1-7.974-.105-2.167-.062a3.25,3.25,0,0,1-.756-.067,3.311,3.311,0,0,1,.756-.066l2.167-.062,7.974-.105,26.311-.1,26.306.1,7.974.105,2.167.062A3.311,3.311,0,0,1,441.237,277Z" transform="translate(-366.826 -276.667)"/></g></g></g></g><g transform="translate(36.485 7.212)"><path class="e" d="M267.19,432.425a.413.413,0,1,1-.033.023"/><path class="ac" d="M355.043,137.075l15.34,6.893s-23.961,34.153-28.911,39.653-53.331,12.341-53.331,12.341l-2.316-20.232,41.247-7.024Z"/><path class="e" d="M339.273,185.235c-.1.01-.2-1.211-.722-3.093a21.421,21.421,0,0,0-1.185-3.208,21.387,21.387,0,0,0-4.9-6.725,21.386,21.386,0,0,0-2.692-2.11c-1.632-1.074-2.763-1.545-2.724-1.633a2.711,2.711,0,0,1,.821.265,13.91,13.91,0,0,1,2.1,1.056,18.868,18.868,0,0,1,2.818,2.066,19.964,19.964,0,0,1,5.017,6.883,18.814,18.814,0,0,1,1.1,3.314,13.955,13.955,0,0,1,.363,2.322A2.8,2.8,0,0,1,339.273,185.235Z"/><path class="e" d="M336.108,177.517a9.671,9.671,0,0,1-1.539.526c-1,.307-2.454.723-4.259,1.213-3.608.981-8.623,2.227-14.207,3.4s-10.68,2.054-14.377,2.609c-1.849.278-3.348.483-4.387.6a9.68,9.68,0,0,1-1.62.139,9.614,9.614,0,0,1,1.59-.339l4.357-.768c3.679-.647,8.752-1.583,14.33-2.754s10.6-2.36,14.223-3.249l4.3-1.053A9.843,9.843,0,0,1,336.108,177.517Z"/><path class="e" d="M358.947,139.3c.108.1-6.1,7.293-13.858,16.075S330.948,171.2,330.84,171.1s6.1-7.291,13.859-16.077S358.84,139.2,358.947,139.3Z"/><path class="e" d="M339.445,163.6a.417.417,0,1,1-.032.023"/><path class="e" d="M314.329,179.877a.422.422,0,1,1-.032.024"/><path class="e" d="M326.406,177.2a.414.414,0,1,1-.033.023"/><path class="e" d="M346.3,155.908a.418.418,0,1,1-.033.024"/><path class="e" d="M353.481,147.765a.418.418,0,1,1-.033.024"/><g class="aa"><path class="e" d="M324.658,170.762c.115.709-6.1,2.306-13.892,3.566s-14.195,1.706-14.309,1,6.1-2.306,13.893-3.566S324.544,170.052,324.658,170.762Z"/></g><path class="e" d="M303.872,181.749a.413.413,0,1,1-.033.023"/><path class="r" d="M281.5,172.8a10.962,10.962,0,0,1,11.864,3.474,13.908,13.908,0,0,1,2.344,12.46c-1.186,4.231-6.83,9.946-10.65,11.537"/><path class="ac" d="M374.438,139.3a31.625,31.625,0,0,0,3.381-5.473,10.633,10.633,0,0,0,.924-6.277,6.453,6.453,0,0,0-3.822-4.843,4.675,4.675,0,0,0-5.614,1.854l4.071-8.053c.5-.985.983-2.224.339-3.121a2.1,2.1,0,0,0-2.774-.275,6.108,6.108,0,0,0-1.862,2.406l-6.024,11.292q-2.66-4.163-5.317-8.327c-.538-.842-1.31-1.8-2.3-1.642a1.783,1.783,0,0,0-1.319,1.775,5.208,5.208,0,0,0,.673,2.282c1.553,3.288,4.367,10.749,4.367,10.749Z"/><path class="s" d="M285.061,199.7c-.082-.084,1.37-1.188,3.112-3.477a14.955,14.955,0,0,0,2.321-4.421,15.67,15.67,0,0,0,.613-6.067,22.191,22.191,0,0,0-3.543-10.5,7.746,7.746,0,0,0-2.237-2.486,6.623,6.623,0,0,0-1.133-.494c0-.015.117-.023.332.009a2.863,2.863,0,0,1,.9.309,7.342,7.342,0,0,1,2.441,2.456,21.374,21.374,0,0,1,3.757,10.672,15.631,15.631,0,0,1-.676,6.252,14.631,14.631,0,0,1-2.485,4.5,18.207,18.207,0,0,1-2.4,2.486A5.188,5.188,0,0,1,285.061,199.7Z"/><path class="r" d="M355.043,137.075a104.92,104.92,0,0,0,13.036,7.064c1.79.831,4.01,1.6,5.618.451a3.761,3.761,0,0,0,1.242-3.844,8.4,8.4,0,0,0-2.125-3.66,23.307,23.307,0,0,0-11-6.888,9.6,9.6,0,0,0-4.632-.36,4.485,4.485,0,0,0-3.414,2.891,3.809,3.809,0,0,0,1.277,4.346"/><path class="s" d="M374.294,142.7c-.084.045-.667-1.192-2.017-2.9a18.871,18.871,0,0,0-14.677-7.228c-2.174-.031-3.51.261-3.525.168a3.033,3.033,0,0,1,.923-.26,15.3,15.3,0,0,1,2.6-.276,17.961,17.961,0,0,1,14.971,7.372,15.309,15.309,0,0,1,1.366,2.23A3.072,3.072,0,0,1,374.294,142.7Z"/><path class="r" d="M275.435,246.985c.146.292-1.779,1.667-5.285,3.147a43.765,43.765,0,0,1-6.344,2.083,48.829,48.829,0,0,1-16.285,1.2,43.733,43.733,0,0,1-6.582-1.131c-3.685-.949-5.79-2.027-5.689-2.338.116-.373,2.388.069,6.031.529,1.82.24,3.994.43,6.4.546a66.956,66.956,0,0,0,15.608-1.151c2.367-.468,4.489-.974,6.254-1.479C273.084,247.4,275.266,246.632,275.435,246.985Z"/><path class="r" d="M274.134,252.494c.11.323-1.74,1.334-4.956,2.4a56.842,56.842,0,0,1-26.173,1.9c-3.336-.587-5.313-1.32-5.25-1.655.138-.759,8.276.406,18.26-.362C266,254.092,273.887,251.763,274.134,252.494Z"/><path class="ac" d="M237.913,105.262s-33,6.1-32.585,35.646,28.364,24.582,36.478,23.541c3.68-.471,11.013-1.513,17.93-2.511,14.675-2.117,25.624-9.253,26.494-24.054a27.247,27.247,0,0,0-.176-5.2C283.974,117.057,269.41,98.256,237.913,105.262Z"/><path class="r" d="M273.523,134.888l-42.112,8.936a8.171,8.171,0,0,1-9.688-6.3h0a8.169,8.169,0,0,1,6.3-9.688l42.112-8.935a8.17,8.17,0,0,1,9.689,6.3h0A8.171,8.171,0,0,1,273.523,134.888Z"/><circle class="e" cx="2.622" cy="2.622" r="2.622" transform="translate(234.476 132.334)"/><circle class="e" cx="2.622" cy="2.622" r="2.622" transform="translate(263.895 126.082)"/><path class="e" d="M250.771,120.855a24.779,24.779,0,0,1-1.409-2.977,29.171,29.171,0,0,0-4.1-6.7,14.774,14.774,0,0,0-6.177-4.647,26.218,26.218,0,0,0-3.159-.8,2.617,2.617,0,0,1,.892-.023,10.287,10.287,0,0,1,2.388.476,14.1,14.1,0,0,1,6.459,4.663,25.581,25.581,0,0,1,4.03,6.89c.38.947.658,1.724.84,2.264A2.942,2.942,0,0,1,250.771,120.855Z"/><path class="e" d="M251.829,163.07c-.066-.064.881-.974,2.043-2.712a18.417,18.417,0,0,0,2.9-7.52,31.423,31.423,0,0,0-.067-8.141,26.788,26.788,0,0,1-.452-3.382,3.072,3.072,0,0,1,.277.878c.143.573.339,1.4.538,2.444a27.47,27.47,0,0,1,.22,8.274,17.264,17.264,0,0,1-3.109,7.657,15.86,15.86,0,0,1-1.635,1.912A3,3,0,0,1,251.829,163.07Z"/><g class="aa"><path d="M282.479,150.236a26.5,26.5,0,0,0-12.835-3.9,64,64,0,0,0-13.508.926c-10.34,1.556-20.924,4-29.3,10.262a16.122,16.122,0,0,0-5.658,6.649s4.44,1.828,13.3,1.237,27.137-3.772,27.137-3.772,9.346-1.577,14.628-5.524S282.479,150.236,282.479,150.236Z"/></g><path class="e" d="M282.377,124.371a6.587,6.587,0,0,1,.377,1.516,9.5,9.5,0,0,1-.4,4.449,10.212,10.212,0,0,1-4.471,5.406c-2.389,1.475-5.5,2.281-8.884,3l-23.828,5.214-6.889,1.5c-2.353.483-4.725,1.109-7.234,1.434a11.361,11.361,0,0,1-7.529-1.283,10.808,10.808,0,0,1-4.634-6.342,10.666,10.666,0,0,1,.91-7.8,11.665,11.665,0,0,1,5.64-5.163,20.008,20.008,0,0,1,3.6-1.044l3.546-.83,6.864-1.606,12.694-2.962c3.993-.856,7.63-1.979,11.05-2.664a35.822,35.822,0,0,1,4.927-.671,19.033,19.033,0,0,1,4.439.152,13.989,13.989,0,0,1,6.514,2.724,9.794,9.794,0,0,1,2.776,3.5,6.756,6.756,0,0,1,.423,1.087,2.335,2.335,0,0,1,.11.381c-.039.014-.168-.515-.627-1.422a9.989,9.989,0,0,0-2.807-3.384,13.9,13.9,0,0,0-6.434-2.6,18.8,18.8,0,0,0-4.372-.11,36.033,36.033,0,0,0-4.875.7c-3.388.7-7.026,1.846-11.015,2.721l-12.686,3.009-6.863,1.624-3.545.837a19.559,19.559,0,0,0-3.517,1.022,11.163,11.163,0,0,0-5.387,4.939,10.155,10.155,0,0,0-.864,7.418,10.3,10.3,0,0,0,4.4,6.036,10.855,10.855,0,0,0,7.2,1.217c2.449-.312,4.837-.935,7.19-1.413l6.892-1.483,23.852-5.1a28.439,28.439,0,0,0,8.811-2.891,10.053,10.053,0,0,0,4.431-5.224,9.66,9.66,0,0,0,.49-4.368C282.529,124.89,282.347,124.378,282.377,124.371Z"/><path class="e" d="M205.788,145.8a7.256,7.256,0,0,1,1.609-1.409,28.66,28.66,0,0,1,9.228-4.53,7.259,7.259,0,0,1,2.1-.411c.044.16-3.115.963-6.688,2.727C208.456,143.924,205.888,145.932,205.788,145.8Z"/><path class="e" d="M240.077,109.4a.418.418,0,1,1-.033.024"/><path class="e" d="M245.314,117.046a.418.418,0,1,1-.033.024"/><path class="e" d="M213.643,138.45a.417.417,0,1,1-.032.023"/><path class="e" d="M207.1,141.955a.413.413,0,1,1-.033.023"/><g class="aa"><path class="e" d="M246.829,105.74c.08.375-2.892,1.225-7.582,2.725-4.657,1.523-11.126,3.764-17.1,8.039a34.346,34.346,0,0,0-7.3,7.171,28.793,28.793,0,0,0-4,7.335c-1.639,4.519-1.436,7.648-1.882,7.658-.163.012-.405-.749-.517-2.176a18.765,18.765,0,0,1,.641-6.028,26.308,26.308,0,0,1,3.807-8.182,32.723,32.723,0,0,1,7.729-7.89,43.63,43.63,0,0,1,9.662-5.157,58.28,58.28,0,0,1,8.48-2.546C243.67,105.619,246.762,105.412,246.829,105.74Z"/></g><g class="aa"><path class="e" d="M214.926,153.2c-.432.56-2.34-.218-3.735-2.185s-1.513-4.019-.842-4.244c.687-.246,1.789,1.1,2.963,2.734C214.467,151.148,215.383,152.631,214.926,153.2Z"/></g><path class="ac" d="M283.351,169.253c2,.568,1.878,29.527,1.449,44.308-.23,7.922-.823,16.185-4.862,23-4.5,7.6-13.064,12.442-21.873,13.036-10.6.716-21.077-4.414-28.328-12.178s-11.545-17.914-13.854-28.284-2.76-21.051-3.2-31.665C212.68,177.475,247,158.951,283.351,169.253Z"/><g class="ad"><path d="M214.288,191.474c-.238,9.331,1.408,20.108,4.4,27.9,3.237,8.432,7.945,16.042,15.8,22.394a49.027,49.027,0,0,0,6.961,4.364,30.7,30.7,0,0,0,6.581,2.465c3.729,1.069,5.922-3.544,6.657-7.354s-.642-7.8-2.961-10.911a32.477,32.477,0,0,0-8.773-7.552,104.046,104.046,0,0,1-9.685-6.441,44.837,44.837,0,0,1-11.849-15.93,133.976,133.976,0,0,1-6.684-18.852"/></g><path class="e" d="M238.774,230.982a.414.414,0,1,1-.033.023"/><path class="e" d="M251.607,230.475a.417.417,0,1,1-.032.023"/><path class="e" d="M265.629,217.225a.417.417,0,1,1-.032.023"/><path class="e" d="M259.187,184.5a.414.414,0,1,1-.033.023"/><path class="e" d="M272.327,189.869a.417.417,0,1,1-.032.023"/><path class="e" d="M224.226,227.192a.422.422,0,1,1-.032.024"/><path class="e" d="M222.106,216.3a.417.417,0,1,1-.032.023"/><path class="e" d="M221.18,206.441a.413.413,0,1,1-.033.023"/><path class="e" d="M220.245,195.962a.421.421,0,1,1-.032.024"/><path class="e" d="M280.131,187.308a.421.421,0,1,1-.032.024"/><path class="e" d="M267.768,229.489a.417.417,0,1,1-.032.023"/><path class="e" d="M269.176,239.83a.413.413,0,1,1-.033.023"/><g class="aa"><path class="e" d="M275.394,177.043c.1.311-3.008,1.7-8.3,3.131a89.558,89.558,0,0,1-9.429,1.98,98.531,98.531,0,0,1-23.567.793,89.515,89.515,0,0,1-9.541-1.342c-5.381-1.076-8.574-2.249-8.495-2.566.166-.793,13.321,2.24,29.757,1.617C262.251,180.173,275.175,176.263,275.394,177.043Z"/></g><path class="e" d="M237.576,243.954a3.419,3.419,0,0,1-.546-.428c-.348-.293-.848-.741-1.457-1.355a20.324,20.324,0,0,1-4.227-5.967,32.3,32.3,0,0,1-1.671-4.78c-.521-1.738-1.034-3.607-1.564-5.577-1.048-3.943-2.074-8.312-2.99-12.93a210.219,210.219,0,0,1-3.317-23.873c-.236-3.076-.368-5.569-.428-7.292l-.05-1.986a3.518,3.518,0,0,1,.018-.693,3.4,3.4,0,0,1,.087.689c.038.505.086,1.162.147,1.979.122,1.718.311,4.2.593,7.271a239.828,239.828,0,0,0,3.461,23.8c.914,4.607,1.923,8.969,2.943,12.91.517,1.969,1.013,3.838,1.515,5.578a32.9,32.9,0,0,0,1.592,4.749,21.177,21.177,0,0,0,4.037,5.978c.583.63,1.058,1.1,1.382,1.418A3.491,3.491,0,0,1,237.576,243.954Z"/><path class="e" d="M260.856,212.1c.143-.017,1.219,7.946,2.4,17.783s2.029,17.83,1.887,17.847-1.219-7.943-2.4-17.784S260.713,212.114,260.856,212.1Z"/><path class="e" d="M245.8,167.21c.028-.023.282.234.717.717s1.051,1.193,1.8,2.077c1.505,1.768,3.557,4.233,5.8,6.976L254.95,178l.1.125a.315.315,0,0,1,.118.158,2.078,2.078,0,0,1,.082.219l.031.166c.046.225.067.436.092.647.09.842.136,1.647.176,2.416.078,1.537.113,2.92.134,4.081s.023,2.1.014,2.752a4.037,4.037,0,0,1-.065,1.01,26.5,26.5,0,0,1-.316-3.748c-.073-1.2-.155-2.571-.246-4.066-.053-.763-.11-1.567-.2-2.385-.025-.2-.048-.412-.09-.6l-.027-.148a.458.458,0,0,1-.028-.081c0-.051-.125-.126-.174-.215l-.831-1.016c-2.241-2.743-4.248-5.245-5.681-7.073-.716-.913-1.288-1.659-1.675-2.181A3.859,3.859,0,0,1,245.8,167.21Z"/><path class="e" d="M261.749,227.192a5.955,5.955,0,0,1-1.253.26c-.811.136-1.989.3-3.448.483-2.918.363-6.964.752-11.445.981s-8.549.248-11.488.182c-1.47-.032-2.659-.078-3.479-.131a6.176,6.176,0,0,1-1.273-.131,6.011,6.011,0,0,1,1.277-.072l3.477-.034c2.935-.028,6.988-.108,11.459-.334s8.51-.559,11.433-.827l3.462-.318A6.078,6.078,0,0,1,261.749,227.192Z"/><path class="e" d="M284.947,188.56c.018.031-.226.205-.685.494a22.631,22.631,0,0,1-2.011,1.1,43.872,43.872,0,0,1-7.061,2.716,56.019,56.019,0,0,1-7.383,1.639,15.015,15.015,0,0,1-3.118.292,24.459,24.459,0,0,1,3.055-.654c1.887-.377,4.484-.948,7.3-1.777a59.133,59.133,0,0,0,7.053-2.549C283.855,189.054,284.906,188.488,284.947,188.56Z"/><circle class="r" cx="11.717" cy="11.717" r="11.717" transform="translate(240.949 200.707) rotate(-45)"/><circle class="e" cx="8.538" cy="8.538" r="8.538" transform="matrix(0.93, -0.367, 0.367, 0.93, 246.444, 195.896)"/><path class="t" d="M262.065,202.555a8.664,8.664,0,0,1-.182-1.4c-.085-.88-.2-2.133-.308-3.667l.106.162-4.568-2.235.245-.015c-1.318.874-2.748,1.82-4.24,2.808-.1.208.142-.283.117-.232h0v.04l0,.041.005.084.01.167.019.331.038.659q.036.654.073,1.291c.045.847.09,1.67.132,2.463l-.135-.205,4.522,2.328-.193.011c1.3-.825,2.368-1.486,3.124-1.943a8.7,8.7,0,0,1,1.231-.69,6.711,6.711,0,0,1-1.053.812c-.713.51-1.767,1.246-3.089,2.145l-.091.061-.1-.05-4.568-2.235-.126-.062-.009-.143c-.05-.793-.1-1.616-.155-2.462-.025-.425-.052-.855-.078-1.291l-.039-.658-.02-.332-.01-.167,0-.083,0-.042v-.039h0c-.026.05.221-.442.117-.234l4.256-2.782.12-.079.125.064,4.522,2.328.1.052.005.11c.07,1.6.109,2.882.126,3.758A6.714,6.714,0,0,1,262.065,202.555Z"/><g class="ad"><path d="M212.68,177.475s34.335-18.756,70.671-8.222C283.351,169.253,267.8,184.024,212.68,177.475Z"/></g><path class="e" d="M268,408.178a.417.417,0,1,1-.032.023"/><path class="ac" d="M253.092,279.737c.624,24.419,3.116,48.855,9.334,72.477,1.067,4.056,2.323,8.264,5.234,11.283s7.988,4.371,11.36,1.877c2.886-2.136,3.537-6.114,3.937-9.682a750.406,750.406,0,0,0,5.176-78.8s.762-20.131-13.433-20.123S252.71,264.776,253.092,279.737Z"/><g class="ad"><path d="M263.014,258.957c1.772-2.149,5.359-1.995,7.525-.245s3.126,4.612,3.444,7.379c1.007,8.756-3.3,17.16-4.83,25.84-1.472,8.357-.348,16.936-.754,25.412s-2.265,17.124-8.9,22.409c0,0-6.417-32.648-5.513-45.12C254.641,285.539,263.014,258.957,263.014,258.957Z"/></g><path class="e" d="M264.9,291.9a4.266,4.266,0,0,1,.119.758q.09.824.239,2.185c.2,1.954.481,4.685.826,8.037.7,6.786,1.734,16.153,3.061,26.476s2.707,19.65,3.747,26.392c.516,3.33.937,6.043,1.237,7.984l.322,2.173a4.369,4.369,0,0,1,.078.764,4.125,4.125,0,0,1-.181-.746l-.418-2.157c-.355-1.875-.836-4.594-1.4-7.96-1.133-6.73-2.567-16.051-3.9-26.384s-2.3-19.708-2.912-26.506c-.305-3.4-.529-6.151-.661-8.055-.059-.913-.106-1.643-.142-2.194A4.285,4.285,0,0,1,264.9,291.9Z"/><path class="r" d="M243.986,297.4c6.631,3.241,16.092.609,20.687-6.094s6.026-15.012,7.345-23.032c.443-2.69.8-5.735-.872-7.886-1.913-2.46-5.523-2.577-8.638-2.476l-29.65.964s-10.784,3.089-10.784,9.6S234.925,292.974,243.986,297.4Z"/><path class="ac" d="M269.472,368.945c-3.194.157-5.87,2.714-7.135,5.651s-1.4,6.22-1.507,9.416c-.68,19.442-1.36,38.917-.284,58.341.233,4.205.646,8.675,3.216,12.011s8.085,4.723,10.99,1.674c1.66-1.742,2-4.319,2.263-6.711l7.554-69.517c.285-2.62.528-5.45-.808-7.723a8.38,8.38,0,0,0-6.33-3.682,24.765,24.765,0,0,0-7.53.653"/><path class="e" d="M265.555,460.454a.81.81,0,0,1-.048-.232l-.089-.687c-.069-.605-.18-1.5-.284-2.648-.221-2.3-.475-5.64-.658-9.772-.4-8.264-.32-19.7.067-32.3s.743-23.984,1-32.286a28.026,28.026,0,0,1,1.677-9.64,13.831,13.831,0,0,1,1.259-2.357l.418-.555c.1-.123.15-.183.157-.178a.838.838,0,0,1-.114.209l-.373.58a15.964,15.964,0,0,0-1.159,2.376,28.944,28.944,0,0,0-1.5,9.579c-.218,8.3-.517,19.7-.848,32.286-.387,12.6-.523,24.017-.219,32.273.136,4.128.333,7.465.492,9.77q.117,1.677.186,2.654l.038.692A.83.83,0,0,1,265.555,460.454Z"/><path class="r" d="M262.339,462a22.836,22.836,0,0,1-.276-5.958,7.7,7.7,0,0,1,2.683-5.175A9.806,9.806,0,0,1,273.6,450a7.694,7.694,0,0,1,3.806,5.852l1.493,7.25"/><path class="ac" d="M261.745,461.662l17.264.181s12.7,2.873,12.43,3.9-30.2-.2-30.2-.2Z"/><path class="s" d="M257.46,258.858a10.049,10.049,0,0,1,.582,1.555,17.854,17.854,0,0,1,.552,1.869c.183.737.427,1.571.58,2.517.185.94.373,1.972.485,3.094.166,1.117.212,2.321.289,3.586a47.214,47.214,0,0,1-.472,8.224,45.471,45.471,0,0,1-2.037,7.986c-.473,1.177-.882,2.312-1.4,3.316-.248.506-.469,1.005-.715,1.466l-.745,1.308a24.789,24.789,0,0,1-1.386,2.18,15.054,15.054,0,0,1-1.159,1.568,10.065,10.065,0,0,1-1.085,1.256,10.138,10.138,0,0,1,.923-1.378,17.574,17.574,0,0,0,1.078-1.607c.4-.643.882-1.351,1.309-2.2q.339-.63.708-1.31c.234-.462.444-.959.68-1.464.5-1,.885-2.129,1.341-3.3a47.634,47.634,0,0,0,1.973-7.9,49.618,49.618,0,0,0,.507-8.13c-.063-1.253-.092-2.446-.238-3.553-.092-1.113-.258-2.139-.418-3.076-.128-.942-.346-1.774-.5-2.513s-.315-1.37-.464-1.881A10.216,10.216,0,0,1,257.46,258.858Z"/><path class="e" d="M270.957,317.066a.418.418,0,1,1-.033.024"/><path class="e" d="M273.492,338.465a.413.413,0,1,1-.033.023"/><path class="e" d="M268.412,295.235a.422.422,0,1,1-.032.024"/><path class="e" d="M268.412,387.77a.417.417,0,1,1-.032.023"/><path class="s" d="M277.729,455.981a8.238,8.238,0,0,1-2.229.834,27.4,27.4,0,0,1-11.408.7,8.248,8.248,0,0,1-2.314-.557,63.517,63.517,0,0,0,8.024.291A63.541,63.541,0,0,0,277.729,455.981Z"/><g class="ad"><path d="M259.968,427.583c4.572-3.345,7.507-8.553,9.134-13.98s2.065-11.127,2.506-16.776.9-11.35,2.573-16.764a7.326,7.326,0,0,0,.532-3.619c-.414-1.944-2.394-3.083-4.205-3.9-2.241-1.013-5.062-1.851-6.988-.323-1.449,1.149-1.766,3.187-1.954,5.027-1.739,16.959-1.6,34.049-1.453,51.1"/></g><circle class="r" cx="12.284" cy="12.284" r="12.284" transform="translate(262.523 353.71)"/><path class="s" d="M286.4,364.224a3.046,3.046,0,0,1-.637.757A10.589,10.589,0,0,1,283.6,366.6a16.159,16.159,0,0,1-8.62,1.944,32.257,32.257,0,0,1-8.684-1.765c-1.074-.356-1.934-.671-2.523-.9a3.615,3.615,0,0,1-.9-.406,30.259,30.259,0,0,1,3.531.954,37.151,37.151,0,0,0,8.594,1.6,16.892,16.892,0,0,0,8.423-1.746A21.485,21.485,0,0,0,286.4,364.224Z"/><path class="ac" d="M147.31,167.894s-2.412-9.879-3.7-10.341S126.85,159.3,126.85,159.3s-5.03-7.033-5.8-7.943c-.759-.893-2.442,1.39-1.9,2.449s4.223,11.294,6.523,11.636a56.006,56.006,0,0,0,8.062-.1l1.878,6.43Z"/><path class="ac" d="M214.181,206.092c-9.764,3.555-16,5.361-25.773,9-5.416,2.018-12.317,4.247-17.429,5.56-3.413.876-7.317,1.145-10.618-.295-2.81-1.224-4.874-3.672-6.723-6.116-8.673-11.467-13.495-25.993-16.869-39.969l11.734-2.2,21.218,29.684,38.571-13.194,6.357,15.683A1.156,1.156,0,0,1,214.181,206.092Z"/><path class="r" d="M214.575,181.31a13.7,13.7,0,0,0-4.675,23.678c1.6,1.315,3.849,2.323,5.72.327a5.421,5.421,0,0,0,1.216-2.251A29.3,29.3,0,0,0,214.575,181.31Z"/><path class="s" d="M208.657,185.055c-.013-.012.035-.09.143-.224a2.757,2.757,0,0,1,.555-.528,1.168,1.168,0,0,1,.551-.212,1.667,1.667,0,0,1,.685.135,1.541,1.541,0,0,1,.637.491l.5.663a20.556,20.556,0,0,1,3.7,8.293,19.544,19.544,0,0,1-.245,9.081,5.214,5.214,0,0,1-1.443,2.381,1.864,1.864,0,0,1-.888.507c-.024-.043.309-.2.749-.653a5.465,5.465,0,0,0,1.23-2.343,20.805,20.805,0,0,0,.086-8.87,21.99,21.99,0,0,0-3.484-8.18c-.34-.474-.578-.952-.96-1.1a.985.985,0,0,0-1.012-.016C208.935,184.8,208.69,185.1,208.657,185.055Z"/><path class="e" d="M169.721,201.754a2.814,2.814,0,0,1,.174.859,13.142,13.142,0,0,1,.1,2.388,16.156,16.156,0,0,1-.537,3.514,17.884,17.884,0,0,1-1.669,4.026,18.235,18.235,0,0,1-5.339,5.771,14.948,14.948,0,0,1-2.055,1.216,2.849,2.849,0,0,1-.811.331c-.046-.086,1.064-.649,2.649-1.845a19.81,19.81,0,0,0,5.105-5.733,18.938,18.938,0,0,0,1.658-3.9,17.877,17.877,0,0,0,.631-3.409C169.785,203,169.62,201.764,169.721,201.754Z"/><path class="e" d="M206.449,192.169c.05.134-8.13,3.334-18.269,7.146s-18.4,6.794-18.453,6.659,8.127-3.334,18.27-7.147S206.4,192.034,206.449,192.169Z"/><path class="e" d="M140.588,173.953a1.836,1.836,0,0,1,.207.461l.5,1.352c.42,1.177,1.036,2.878,1.846,4.96,1.6,4.172,4,9.862,7.05,15.958,1.535,3.044,3.085,5.9,4.551,8.459,1.5,2.543,2.877,4.819,4.125,6.67.6.94,1.18,1.769,1.691,2.495s.94,1.358,1.315,1.857c.335.468.612.854.838,1.171a1.837,1.837,0,0,1,.265.43c-.014.011-.133-.115-.347-.365l-.917-1.113c-.4-.482-.865-1.092-1.391-1.81s-1.133-1.53-1.759-2.459c-1.292-1.832-2.707-4.1-4.234-6.634-1.5-2.558-3.063-5.414-4.6-8.468a152.464,152.464,0,0,1-6.93-16.062c-.768-2.1-1.332-3.826-1.693-5.025-.162-.553-.295-1.01-.4-1.384A1.846,1.846,0,0,1,140.588,173.953Z"/><path class="e" d="M177.311,205.364a.416.416,0,1,0-.036.019"/><path class="e" d="M160.956,210.193a.413.413,0,1,0-.035.019"/><path class="e" d="M153.551,198.585a.416.416,0,1,0-.036.019"/><path class="e" d="M186.889,202a.421.421,0,1,0-.036.018"/><path class="e" d="M197.7,198.284a.414.414,0,1,1-.033.023"/><path class="r" d="M136.508,174.345a85.17,85.17,0,0,0,11.919-1.684c1.57-.322,3.388-.895,3.884-2.419a3.054,3.054,0,0,0-1.045-3.109,6.829,6.829,0,0,0-3.155-1.362,18.91,18.91,0,0,0-10.506.818,7.778,7.778,0,0,0-3.2,2,3.637,3.637,0,0,0-.831,3.535,3.091,3.091,0,0,0,2.932,2.219"/><path class="s" d="M151.787,168.719c-.04.081-1.022-.433-2.725-.884a15.421,15.421,0,0,0-13.039,2.364c-1.436,1.021-2.175,1.847-2.241,1.785-.025-.022.132-.252.464-.629A12.037,12.037,0,0,1,135.8,169.9a14.51,14.51,0,0,1,13.361-2.423,12.1,12.1,0,0,1,1.967.811C151.574,168.529,151.8,168.689,151.787,168.719Z"/><path class="ac" d="M233.043,367.991c-3.179.346-5.7,3.056-6.788,6.063s-1.025,6.291-.948,9.488c.471,19.449.944,38.93,3.168,58.257.481,4.184,1.158,8.621,3.92,11.8s8.351,4.236,11.071,1.021c1.553-1.837,1.743-4.43,1.861-6.833q1.715-34.921,3.43-69.842c.129-2.633.2-5.473-1.264-7.662a8.382,8.382,0,0,0-6.536-3.3,24.791,24.791,0,0,0-7.478,1.1"/><path class="ac" d="M216.481,280.023c.623,24.418,3.115,48.855,9.333,72.477,1.067,4.055,2.323,8.263,5.234,11.282s7.988,4.371,11.36,1.877c2.886-2.135,3.537-6.113,3.937-9.681a750.434,750.434,0,0,0,5.176-78.8s.762-20.131-13.433-20.122S216.1,265.061,216.481,280.023Z"/><g class="aa"><path class="e" d="M228.351,355.995c-.354.054-1.488-5.1-3.038-13.481s-3.486-20.01-5-32.949c-.764-6.464-1.329-12.659-1.788-18.263-.5-5.6-.83-10.779-.274-15.129a22.173,22.173,0,0,1,3.271-9.779l.983-1.3a9.222,9.222,0,0,1,.827-.854c.468-.44.741-.636.807-.575s-.076.375-.4.907c-.153.272-.388.573-.6.97s-.464.853-.738,1.359a24.4,24.4,0,0,0-2.315,9.44c-.3,4.147.2,9.135.829,14.728.592,5.611,1.225,11.744,1.987,18.191,1.5,12.882,3.157,24.517,4.228,32.969S228.708,355.941,228.351,355.995Z"/></g><path class="e" d="M236.147,366.7a1.16,1.16,0,0,1-.088-.277l-.207-.822c-.18-.763-.43-1.826-.748-3.176-.627-2.762-1.458-6.777-2.372-11.761-1.8-9.971-3.683-23.855-5.01-39.255-.683-7.7-1.221-15.044-1.7-21.722-.233-3.339-.455-6.512-.663-9.484a66.686,66.686,0,0,1-.229-8.3,22.936,22.936,0,0,1,1.283-6.734,15.927,15.927,0,0,1,2.507-4.528,11.981,11.981,0,0,1,2.364-2.26,6.383,6.383,0,0,1,.97-.6,14.442,14.442,0,0,0-3.175,2.983,16.116,16.116,0,0,0-2.392,4.5,22.925,22.925,0,0,0-1.189,6.655,67.933,67.933,0,0,0,.292,8.247c.223,2.971.461,6.143.711,9.48.5,6.676,1.054,14.016,1.737,21.711,1.326,15.39,3.147,29.261,4.854,39.238.866,4.986,1.641,9.008,2.207,11.782.277,1.358.495,2.427.652,3.2.064.342.116.617.157.833A1.3,1.3,0,0,1,236.147,366.7Z"/><path class="e" d="M233.385,453.452a5.135,5.135,0,0,1-.139-.834q-.111-.893-.3-2.4c-.251-2.087-.575-5.111-.942-8.85-.736-7.479-1.587-17.828-2.211-29.279s-.892-21.836-.97-29.351c-.04-3.757-.045-6.8-.022-8.9q.022-1.52.036-2.419a5.127,5.127,0,0,1,.048-.844,5.132,5.132,0,0,1,.057.843q.024.9.062,2.419c.045,2.151.109,5.177.187,8.894.172,7.509.5,17.882,1.122,29.329s1.416,21.789,2.058,29.273c.324,3.7.588,6.719.776,8.863q.126,1.515.2,2.411A5.067,5.067,0,0,1,233.385,453.452Z"/><circle class="r" cx="12.284" cy="12.284" r="12.284" transform="translate(224.201 353.996)"/><path class="r" d="M229.325,464.378c.028-1.994.035-7.545.579-9.463a7.691,7.691,0,0,1,3.415-4.724,9.812,9.812,0,0,1,8.88.447,7.692,7.692,0,0,1,2.9,6.349l.411,7.391"/><path class="ac" d="M229.593,461.95l17.263-.161s12.756,2.623,12.5,3.65-30.2.4-30.2.4Z"/><path class="e" d="M230.065,300.349a.417.417,0,1,1-.032.023"/><path class="e" d="M228.819,281.9a.414.414,0,1,1-.033.023"/><path class="e" d="M231.606,323a.418.418,0,1,1-.033.024"/><path class="e" d="M234.725,348.464a.417.417,0,1,1-.032.023"/><path class="e" d="M231.2,387.325a.413.413,0,1,1-.033.023"/><path class="e" d="M233.152,407.389a.414.414,0,1,1-.033.023"/><path class="e" d="M233.385,429.884a.422.422,0,1,1-.032.024"/><path class="s" d="M248.523,363.845a3.429,3.429,0,0,1-.715.733,15.632,15.632,0,0,1-2.261,1.637,17.875,17.875,0,0,1-17.709.422,15.544,15.544,0,0,1-2.337-1.528,3.408,3.408,0,0,1-.749-.7c.059-.078,1.17.873,3.254,1.9a18.58,18.58,0,0,0,17.357-.414C247.4,364.772,248.461,363.769,248.523,363.845Z"/><path class="s" d="M245,456.678a7.794,7.794,0,0,1-2.173.828,25.024,25.024,0,0,1-11.149.531,7.81,7.81,0,0,1-2.242-.617,54.473,54.473,0,0,0,7.822.461A54.57,54.57,0,0,0,245,456.678Z"/></g></svg>