<svg xmlns="http://www.w3.org/2000/svg" viewBox="0 0 880 881" width="880" height="881">
	<defs>
		<clipPath clipPathUnits="userSpaceOnUse" id="cp1">
			<path d="M-48 -38L952 -38L952 962L-48 962Z" />
		</clipPath>
	</defs>
	<style>
		tspan { white-space:pre }
		.shp0 { opacity: 0.302;fill: #94bff0 } 
		.shp1 { opacity: 0.2;fill: #0a5de2 } 
		.shp2 { fill: #f07951 } 
		.shp3 { fill: #2a3799 } 
		.shp4 { fill: #4e68c7 } 
		.shp5 { fill: #4b68c4 } 
		.shp6 { fill: #94bff0 } 
		.shp7 { fill: #fcfcfc } 
		.shp8 { fill: #0a5de2 } 
		.shp9 { fill: #afc6f5 } 
		.shp10 { fill: #ffffff } 
		.shp11 { opacity: 0.4;fill: #2a3799 } 
		.shp12 { fill: #3e3577 } 
		.shp13 { fill: #e0e7f1 } 
		.shp14 { fill: #4b63c1 } 
		.shp15 { fill: #c5d6ea } 
		.shp16 { fill: #e2e7f1 } 
		.shp17 { fill: #1d262d } 
	</style>
	<g id="Page 1" clip-path="url(#cp1)">
		<path id="Path 2" class="shp0" d="M828 284C828 407.71 727.71 508 604 508C480.29 508 380 407.71 380 284C380 160.29 480.29 60 604 60C727.71 60 828 160.29 828 284Z" />
		<path id="Path 3" class="shp1" d="M731.5 817.2C731.5 823.42 700.74 828.47 662.79 828.47C624.84 828.47 594.08 823.42 594.08 817.2C594.08 810.98 624.84 805.94 662.79 805.94C700.74 805.94 731.5 810.98 731.5 817.2Z" />
		<path id="Path 4" class="shp2" d="M709.44 345.76L708.68 318.03L714.94 317.98L718.47 345.76L709.44 345.76Z" />
		<path id="Path 5" class="shp3" d="M762.07 448.43L770.28 508.05C770.97 513.11 772.88 517.92 775.83 522.08L808.45 568.04L803.63 593.35L796.1 593.35C794.65 593.35 794.03 591.51 795.19 590.64L797.57 588.85C798.36 588.27 798.85 587.36 798.92 586.38L800.01 571.65L763.44 539.29C758.87 535.26 755.39 530.14 753.31 524.41L740.18 461.4L762.07 448.43Z" />
		<path id="Path 6" class="shp2" d="M737.37 384.77C737.48 385.24 737.6 396.97 737.6 396.97L746.86 399.78L746.63 384.65L737.37 384.77ZM702.12 356.99L691.03 360.93L681.58 321.22L686.7 318.92L702.12 356.99Z" />
		<path id="Path 7" class="shp4" d="M718.57 340.19L723.3 365.36L736.73 400.47L721.06 405.29L710.4 366L708.89 340.4L718.57 340.19Z" />
		<path id="Path 8" class="shp5" d="M746.34 453.07L745.39 527.38L747.94 595.46L723.76 595.46C722.49 595.46 721.41 594.54 721.2 593.29C720.96 591.87 721.93 590.53 723.36 590.3L738.22 587.98L724.54 534.26C723.62 530.62 723.07 526.9 722.9 523.15L719.88 452.75L746.34 453.07Z" />
		<path id="Path 9" class="shp2" d="M804.38 562.31L800.01 571.65L795.8 567.93L801.22 557.85L804.38 562.31Z" />
		<path id="Path 10" class="shp4" d="M746.96 399.16L747.58 392.57L736.73 389.7L734.71 393.35L746.96 399.16Z" />
		<path id="Path 11" class="shp6" d="M692.14 346.36L697.96 344.81C701.38 354.73 706.92 362.42 714.45 369.74L730.38 386.33L746.05 396.92C748.46 398.55 750.2 400.98 750.96 403.79L764.2 452.92C751.22 460.62 735.57 462.41 721.19 457.83L719.11 457.17L717.62 398.25L700.68 381.69C693.8 373.09 689.33 358.54 687.31 347.71L692.14 346.36Z" />
		<path id="Path 12" class="shp2" d="M705.17 318.57C705.17 322.25 708.15 325.23 711.83 325.23C715.51 325.23 718.5 322.25 718.5 318.57C718.5 314.89 715.51 311.91 711.83 311.91C708.15 311.91 705.17 314.89 705.17 318.57ZM730.72 374.18C730.72 382.77 737.68 389.73 746.27 389.73C754.85 389.73 761.81 382.77 761.81 374.18C761.81 365.6 754.85 358.64 746.27 358.64C737.68 358.64 730.72 365.6 730.72 374.18ZM737.03 583.27L747.44 582.17L747.64 587.48L738.23 587.98L737.03 583.27Z" />
		<path id="Path 13" class="shp7" d="M739.79 311.21L656.68 311.21L656.68 228.09L739.79 228.09L739.79 311.21Z" />
		<path id="Path 14" class="shp4" d="M683.25 345.91L698.31 340.89L700.82 346.53L686.07 351.24L683.25 345.91ZM706.47 338.69L720.59 338.69L720.28 342.46L705.84 342.77L706.47 338.69Z" />
		<path id="Path 15" fill-rule="evenodd" class="shp8" d="M743.53 314.95L652.94 314.95L652.94 224.35L743.53 224.35L743.53 314.95ZM656.68 311.21L739.79 311.21L739.79 228.09L656.68 228.09L656.68 311.21Z" />
		<path id="Path 16" class="shp9" d="M751.73 216.23L700.42 268.33L685.19 254.91L673.5 268.18L701.25 292.65L764.32 228.67L751.73 216.23Z" />
		<path id="Path 17" class="shp2" d="M676.93 317.32C676.93 321 679.91 323.98 683.59 323.98C687.27 323.98 690.25 321 690.25 317.32C690.25 313.64 687.27 310.66 683.59 310.66C679.91 310.66 676.93 313.64 676.93 317.32Z" />
		<path id="Path 18" class="shp4" d="M761.64 382.92C763.05 381.58 764.49 380.21 765.37 378.47C766.48 376.29 766.61 373.73 766.34 371.29C766.09 369 765.48 366.68 764.07 364.86C761.33 361.32 756.18 360.38 753.34 356.92C752.22 355.55 751.53 353.86 750.3 352.59C748.06 350.27 744.1 349.86 741.43 351.69C738.76 353.52 737.71 357.36 739.06 360.29C741.1 359.97 743.13 360.33 745.15 360.74C747.26 361.18 749.44 361.68 751.1 363.05C753.24 364.81 754.1 367.69 754.33 370.45C754.41 371.41 754.4 372.46 753.81 373.23C753.1 374.13 751.84 374.32 750.78 374.77C749.66 375.23 748.69 376.05 748.04 377.08C747.78 377.49 747.57 378 747.72 378.47C747.95 379.18 748.91 379.38 749.62 379.15C750.33 378.93 750.93 378.43 751.62 378.15C753.6 377.37 756.04 378.88 756.47 380.96C756.9 383.04 755.51 385.26 753.52 386.04C751.54 386.81 749.18 386.25 747.55 384.89C747.09 386.33 746.48 388.17 746.39 389.68C748.53 389.72 750.68 389.61 752.81 389.33C754.66 389.08 756.58 388.68 758.02 387.5C758.78 386.88 759.37 386.07 759.94 385.27C760.53 384.46 760.92 383.62 761.64 382.92ZM76.46 269.13L76.46 269.13C130.04 206.22 209.23 211.87 253.33 281.75C199.75 344.66 120.56 339.01 76.46 269.13Z" />
		<path id="Path 19" class="shp10" d="M245.3 282.57L85.53 270.93L85.61 269.78L245.38 281.43L245.3 282.57ZM118.54 303.17L117.77 302.32L148.36 274.88L149.13 275.73L118.54 303.17ZM172.73 277.3L132.9 239.6L133.69 238.77L173.52 276.47L172.73 277.3ZM236.16 281.85L195.64 245.4L196.41 244.55L236.93 281L236.16 281.85ZM170.11 314.11L169.34 313.26L206.47 279.57L207.24 280.42L170.11 314.11Z" />
		<path id="Path 20" class="shp4" d="M627.44 326.69L627.45 326.69C630.49 391.45 582.11 430.68 519.38 414.31C516.33 349.54 564.71 310.32 627.44 326.69Z" />
		<path id="Path 21" class="shp10" d="M523.54 409.53L621.29 330.53L621.85 331.23L524.11 410.23L523.54 409.53ZM585.09 329.76L585.99 329.84L583.18 361.96L582.29 361.88L585.09 329.76ZM567.93 373.63L610.95 373.87L610.95 374.77L567.92 374.53L567.93 373.63ZM529.16 405.04L571.91 404.19L571.93 405.09L529.18 405.94L529.16 405.04ZM549.69 351.15L550.58 351.22L547.39 390.43L546.49 390.36L549.69 351.15Z" />
		<path id="Path 22" class="shp6" d="M171.51 162.6C231.8 179.42 253.1 235.66 219.08 288.21C158.79 271.38 137.49 215.14 171.51 162.6Z" />
		<path id="Path 23" class="shp10" d="M215.96 282.95L173.15 169.4L173.97 169.1L216.78 282.64L215.96 282.95ZM161.48 202.35L161.83 201.56L190.42 213.86L190.08 214.66L161.48 202.35ZM196.51 231.38L209.76 192.01L210.58 192.29L197.33 231.66L196.51 231.38ZM213.55 276.44L225.73 236.99L226.56 237.24L214.38 276.69L213.55 276.44ZM170.37 241.29L170.7 240.49L205.68 255.3L205.34 256.1L170.37 241.29Z" />
		<path id="Path 24" class="shp3" d="M614.51 111.69L634.84 153.83L660.84 186.11L653.37 190.89L626.47 162.5L600.04 127.32L614.51 111.69Z" />
		<path id="Path 25" class="shp2" d="M611.49 109.4L623.46 112.49L620.59 120.15L607.19 117.24L611.49 109.4Z" />
		<path id="Path 26" class="shp5" d="M539.57 98.96L529.1 118.78L520.4 155.82L489.68 215.68L502.13 217.35L530.13 178.66C532.81 174.96 534.92 170.88 536.4 166.55L550.81 124.48L539.57 98.96Z" />
		<path id="Path 27" class="shp11" d="M547.89 131.49L537.52 156.38L528.37 121.88L529.1 118.78L535.83 106.03L537.32 105.62C537.32 105.62 541.5 116.68 542.51 119.04C542.98 120.13 545.38 125.68 547.89 131.49Z" />
		<path id="Path 28" class="shp7" d="M621.23 156.45L653.34 202.88L646.98 203.9L608.01 170.44L599.2 124.07C599.2 124.07 598.02 109.79 604.5 110.24C610.99 110.7 614.6 118.33 614.6 118.33L621.23 156.45ZM616.57 109.7C586.38 97.76 553.01 96.03 553.01 96.03L539.77 128.23L611.92 133.92L616.57 109.7Z" />
		<path id="Path 29" class="shp5" d="M553.01 96.02L548.57 96.24C536.6 96.82 527.5 107.21 528.51 119.15L550.25 157.55C552.11 160.84 553 164.6 552.82 168.38L550.48 217.8L562.76 216.97L570.68 169.15C571.51 164.34 571.24 159.41 569.89 154.73L553.01 96.02Z" />
		<path id="Path 30" class="shp2" d="M650.7 189.84C651.04 193.99 654.54 197.09 658.5 196.77C662.47 196.44 665.4 192.8 665.06 188.65C664.71 184.5 661.22 181.39 657.25 181.72C653.29 182.05 650.35 185.69 650.7 189.84ZM620.47 124.14C624.85 130.95 633.66 133.08 640.16 128.9C646.65 124.72 648.37 115.82 643.99 109.01C639.61 102.21 630.8 100.08 624.3 104.26C617.81 108.43 616.09 117.34 620.47 124.14ZM642.42 204.87C642.76 209.02 646.26 212.12 650.22 211.8C654.19 211.47 657.12 207.83 656.78 203.68C656.43 199.53 652.94 196.42 648.98 196.75C645.01 197.08 642.08 200.72 642.42 204.87Z" />
		<path id="Path 31" class="shp3" d="M551.07 215.98L550.45 221.64L576.38 221.28C576.38 221.28 577.34 217.75 576.38 217.43C575.44 217.11 556.93 215.5 556.93 215.5L551.07 215.98ZM490.49 215.98L489.87 221.64L515.79 221.28C515.79 221.28 516.76 217.75 515.79 217.43C514.85 217.11 496.35 215.5 496.35 215.5L490.49 215.98Z" />
		<path id="Path 32" class="shp4" d="M646.93 128.19C648.59 128.06 650.01 126.85 650.79 125.39C651.57 123.92 651.8 122.23 651.87 120.57C651.91 119.72 651.91 118.85 651.65 118.03C651.18 116.53 649.91 115.43 649.16 114.05C648.75 113.29 648.5 112.44 648.24 111.61C647.31 108.61 646.21 105.64 644.46 103.03C643.93 102.24 643.34 101.48 642.58 100.89C641.52 100.07 640.21 99.65 638.92 99.25C637.56 98.83 636.13 98.4 634.74 98.71C633.95 98.89 633.23 99.3 632.52 99.71C629.85 101.24 627.19 102.77 624.52 104.31C625.72 105.1 627.3 104.94 628.71 104.68C630.13 104.42 631.63 104.1 632.96 104.65C634.16 105.14 635.02 106.34 635.11 107.63C635.2 108.92 634.5 110.23 633.38 110.88C635.21 110.77 637.06 110.71 638.84 111.14C640.62 111.57 642.34 112.53 643.31 114.08C644.15 115.4 644.38 117.01 644.51 118.56C644.61 119.75 644.67 120.96 644.44 122.13C644.24 123.19 643.68 124.14 643.49 125.19C643.17 127.02 645.28 128.32 646.93 128.19Z" />
		<path id="Path 33" class="shp1" d="M867.44 797.75C867.44 806.38 824.73 813.38 772.04 813.38C719.35 813.38 676.64 806.38 676.64 797.75C676.64 789.11 719.35 782.11 772.04 782.11C824.73 782.11 867.44 789.11 867.44 797.75Z" />
		<path id="Path 34" class="shp3" d="M581.05 761.96L175.27 761.96L175.27 221.52L581.05 221.52L581.05 761.96Z" />
		<path id="Path 35" class="shp7" d="M193.71 239.97L562.61 239.97L562.61 743.51L193.71 743.51L193.71 239.97Z" />
		<path id="Path 36" class="shp12" d="M273.68 236.9C273.87 249.36 284.04 260 297.18 260L459.13 260C472.28 260 482.44 249.36 482.64 236.9L273.68 236.9Z" />
		<path id="Path 37" fill-rule="evenodd" class="shp9" d="M482.04 226.02C485.44 240.76 474.26 254.83 459.13 254.83L297.19 254.83C282.06 254.83 270.88 240.76 274.28 226.02L278.7 206.92C280.43 199.45 287.08 194.15 294.75 194.15L348.77 194.15C348.77 177.92 361.93 164.76 378.16 164.76C394.39 164.76 407.55 177.92 407.55 194.15L461.57 194.15C469.24 194.15 475.89 199.45 477.62 206.92L482.04 226.02ZM392.02 196.91C393.91 186.97 385.35 178.41 375.4 180.29C369.84 181.34 365.35 185.82 364.3 191.38C362.41 201.34 370.98 209.91 380.93 208.01C386.49 206.96 390.97 202.47 392.02 196.91Z" />
		<path id="Path 38" fill-rule="evenodd" class="shp8" d="M278.19 365.3L219.53 365.3L219.53 306.64L278.19 306.64L278.19 365.3ZM221.95 362.88L275.77 362.88L275.77 309.06L221.95 309.06L221.95 362.88Z" />
		<path id="Path 39" class="shp9" d="M283.5 301.38L250.27 335.12L240.41 326.43L232.84 335.02L250.81 350.86L291.65 309.43L283.5 301.38Z" />
		<path id="Path 40" class="shp12" d="M536.79 318.51L308.03 318.51L308.03 314.82L536.79 314.82L536.79 318.51ZM536.79 333.29L308.03 333.29L308.03 329.6L536.79 329.6L536.79 333.29ZM431.33 348.06L308.03 348.06L308.03 344.37L431.33 344.37L431.33 348.06Z" />
		<path id="Path 41" fill-rule="evenodd" class="shp8" d="M278.19 463.06L219.53 463.06L219.53 404.4L278.19 404.4L278.19 463.06ZM221.95 460.64L275.77 460.64L275.77 406.82L221.95 406.82L221.95 460.64Z" />
		<path id="Path 42" class="shp9" d="M283.5 399.14L250.27 432.88L240.41 424.18L232.84 432.78L250.81 448.62L291.65 407.19L283.5 399.14Z" />
		<path id="Path 43" class="shp12" d="M536.79 416.27L308.03 416.27L308.03 412.58L536.79 412.58L536.79 416.27ZM536.79 431.04L308.03 431.04L308.03 427.36L536.79 427.36L536.79 431.04ZM431.33 445.82L308.03 445.82L308.03 442.13L431.33 442.13L431.33 445.82Z" />
		<path id="Path 44" fill-rule="evenodd" class="shp8" d="M278.19 560.81L219.53 560.81L219.53 502.15L278.19 502.15L278.19 560.81ZM221.95 558.39L275.77 558.39L275.77 504.57L221.95 504.57L221.95 558.39Z" />
		<path id="Path 45" class="shp12" d="M536.79 514.03L308.03 514.03L308.03 510.34L536.79 510.34L536.79 514.03ZM536.79 528.8L308.03 528.8L308.03 525.11L536.79 525.11L536.79 528.8ZM431.33 543.58L308.03 543.58L308.03 539.89L431.33 539.89L431.33 543.58Z" />
		<path id="Path 46" fill-rule="evenodd" class="shp8" d="M278.19 658.57L219.53 658.57L219.53 599.91L278.19 599.91L278.19 658.57ZM221.95 656.15L275.77 656.15L275.77 602.33L221.95 602.33L221.95 656.15Z" />
		<path id="Path 47" class="shp12" d="M536.79 611.79L308.03 611.79L308.03 608.1L536.79 608.1L536.79 611.79ZM536.79 626.56L308.03 626.56L308.03 622.87L536.79 622.87L536.79 626.56ZM431.33 641.34L308.03 641.34L308.03 637.65L431.33 637.65L431.33 641.34Z" />
		<path id="Path 48" class="shp3" d="M829.66 792.36L797.02 595.97L799.44 595.56L832.08 791.96L829.66 792.36ZM769.72 792.36L737.08 595.97L739.51 595.56L772.15 791.96L769.72 792.36ZM805.72 638.73L745.25 638.73L745.25 636.27L805.72 636.27L805.72 638.73ZM810 664.96L749.53 664.96L749.53 662.5L810 662.5L810 664.96ZM814.28 691.17L753.81 691.17L753.81 688.72L814.28 688.72L814.28 691.17ZM818.56 717.39L758.09 717.39L758.09 714.94L818.56 714.94L818.56 717.39ZM822.84 743.62L762.38 743.62L762.38 741.16L822.84 741.16L822.84 743.62ZM827.13 769.84L766.65 769.84L766.65 767.38L827.13 767.38L827.13 769.84Z" />
		<path id="Path 49" class="shp4" d="M696.49 792.36L694.06 791.96L726.71 595.56L729.13 595.97L696.49 792.36ZM756.42 792.36L754 791.96L786.64 595.56L789.07 595.97L756.42 792.36ZM780.9 638.73L720.43 638.73L720.43 636.27L780.9 636.27L780.9 638.73ZM776.62 664.96L716.15 664.96L716.15 662.5L776.62 662.5L776.62 664.96ZM772.34 691.17L711.87 691.17L711.87 688.72L772.34 688.72L772.34 691.17ZM768.05 717.39L707.59 717.39L707.59 714.94L768.05 714.94L768.05 717.39ZM763.77 743.62L703.3 743.62L703.3 741.16L763.77 741.16L763.77 743.62ZM759.49 769.84L699.02 769.84L699.02 767.38L759.49 767.38L759.49 769.84ZM807.53 600.08L723.03 600.08L723.03 592.71L807.53 592.71L807.53 600.08Z" />
		<path id="Path 50" class="shp3" d="M697.91 761.81L119.78 761.81L119.78 757.81L697.91 757.81L697.91 761.81Z" />
		<path id="Path 51" class="shp2" d="M633.11 821.12L633.21 827.12L627.15 827.44L625.87 820.74L633.11 821.12Z" />
		<path id="Path 52" class="shp3" d="M629.98 827.25C630.17 826.65 629.98 825.94 629.52 825.51C629.06 825.07 628.35 824.93 627.75 825.16C627.12 825.41 626.7 825.99 626.25 826.5C625.07 827.82 623.51 828.73 621.93 829.53C620.32 830.34 618.54 831.19 617.79 832.82C617.34 833.81 618.39 834.92 619.43 835.25C623.24 836.47 627.17 833.56 630.75 831.76C631.31 831.48 631.88 831.19 632.33 830.75C633.63 829.49 633.55 827.42 633.35 825.63C633.33 825.41 632.96 825.36 632.75 825.41C632.54 825.46 632.37 825.61 632.2 825.75C631.53 826.33 630.65 826.67 629.98 827.25Z" />
		<path id="Path 53" class="shp2" d="M645.39 820.91L645.29 826.92L651.35 827.24L652.63 820.54L645.39 820.91Z" />
		<path id="Path 54" class="shp3" d="M648.52 827.05C648.33 826.45 648.52 825.74 648.98 825.31C649.44 824.87 650.16 824.73 650.75 824.96C651.38 825.2 651.8 825.79 652.25 826.3C653.43 827.62 655 828.52 656.58 829.32C658.18 830.13 659.96 830.98 660.71 832.62C661.16 833.6 660.11 834.71 659.07 835.05C655.26 836.27 651.33 833.36 647.75 831.56C647.19 831.28 646.62 830.99 646.17 830.55C644.88 829.29 644.95 827.22 645.15 825.43C645.17 825.21 645.54 825.15 645.75 825.21C645.96 825.26 646.13 825.4 646.3 825.55C646.97 826.12 647.85 826.47 648.52 827.05Z" />
		<path id="Path 55" class="shp13" d="M612.97 693.29L605.58 617.28L597.66 594.59C594.69 586.08 593.45 577.05 594.03 568.05L596.08 536L603.47 534.95L609.47 570.54L620.36 612.01L646.75 614.12L660.33 582.55C661.52 579.78 662.54 576.93 663.36 574.02L674.19 536L681.58 537.06L679.01 576.82C678.76 580.59 677.84 584.28 676.29 587.72L661.53 620.45L662.58 691.18L612.97 693.29Z" />
		<path id="Path 56" class="shp5" d="M662.46 744.8L655.26 821.12L645.28 821.12L644.56 749.1L640.34 694.27L633.14 694.58L631.12 746.61L633.11 821.12L622.52 821.12L612.7 745.52L611.57 678.85L662.41 679.52L662.46 744.8Z" />
		<path id="Path 57" class="shp2" d="M606.35 531.12C606.35 535.09 603.13 538.32 599.15 538.32C595.17 538.32 591.95 535.09 591.95 531.12C591.95 527.14 595.17 523.92 599.15 523.92C603.13 523.92 606.35 527.14 606.35 531.12ZM686.6 532.13C686.6 536.2 683.3 539.5 679.23 539.5C675.15 539.5 671.85 536.2 671.85 532.13C671.85 528.05 675.15 524.75 679.23 524.75C683.3 524.75 686.6 528.05 686.6 532.13ZM648.95 591.02C648.95 599.04 642.46 605.53 634.44 605.53C626.43 605.53 619.94 599.04 619.94 591.02C619.94 583.01 626.43 576.51 634.44 576.51C642.46 576.51 648.95 583.01 648.95 591.02Z" />
		<path id="Path 58" class="shp14" d="M649.07 580.4C646.21 577.87 643.2 575.46 639.82 573.7C636.43 571.94 632.62 570.85 628.81 571.09C627.17 571.19 625.46 571.57 624.24 572.67C623.48 573.35 622.95 574.26 622.57 575.2C621.64 577.44 621.51 580.26 623.09 582.1C625.19 580.4 627.8 579.22 630.49 578.95C631.89 578.82 633.36 578.9 634.65 579.48C636.33 580.23 637.55 581.73 638.52 583.3C639.97 585.68 640.98 588.33 641.47 591.07C641.58 591.67 641.67 592.28 641.96 592.81C642.25 593.35 642.81 593.78 643.42 593.73C643.86 593.7 644.25 593.42 644.69 593.39C645.43 593.35 646.03 594.07 646.13 594.8C646.24 595.54 645.98 596.27 645.72 596.96C645.18 598.42 644.64 599.88 644.11 601.34C647.18 599.04 649.41 595.63 650.28 591.89C651.15 588.15 651.94 582.95 649.07 580.4Z" />
		<path id="Path 59" class="shp7" d="M681.79 524.17L598.68 524.17L598.68 441.05L681.79 441.05L681.79 524.17Z" />
		<path id="Path 60" fill-rule="evenodd" class="shp8" d="M685.53 527.91L594.94 527.91L594.94 437.31L685.53 437.31L685.53 527.91ZM598.68 524.17L681.8 524.17L681.8 441.05L598.68 441.05L598.68 524.17Z" />
		<path id="Path 61" class="shp9" d="M693.73 429.19L642.42 481.3L627.2 467.87L615.5 481.15L643.25 505.62L706.32 441.63L693.73 429.19Z" />
		<path id="Path 62" class="shp13" d="M612.97 693.29L605.58 617.28L597.66 594.59C594.69 586.08 593.45 577.05 594.03 568.05L596.08 536L603.47 534.95L609.47 570.54L620.36 612.01L646.75 614.12L660.33 582.55C661.52 579.78 662.54 576.93 663.36 574.02L674.19 536L681.58 537.06L679.01 576.82C678.76 580.59 677.84 584.28 676.29 587.72L661.53 620.45L662.58 691.18L612.97 693.29Z" />
		<path id="Path 63" class="shp2" d="M606.35 531.12C606.35 535.09 603.13 538.32 599.15 538.32C595.17 538.32 591.95 535.09 591.95 531.12C591.95 527.14 595.17 523.92 599.15 523.92C603.13 523.92 606.35 527.14 606.35 531.12ZM686.6 532.13C686.6 536.2 683.3 539.5 679.23 539.5C675.15 539.5 671.85 536.2 671.85 532.13C671.85 528.05 675.15 524.75 679.23 524.75C683.3 524.75 686.6 528.05 686.6 532.13ZM648.95 591.02C648.95 599.04 642.46 605.53 634.44 605.53C626.43 605.53 619.94 599.04 619.94 591.02C619.94 583.01 626.43 576.51 634.44 576.51C642.46 576.51 648.95 583.01 648.95 591.02Z" />
		<path id="Path 64" class="shp14" d="M649.07 580.4C646.21 577.87 643.2 575.46 639.82 573.7C636.43 571.94 632.62 570.85 628.81 571.09C627.17 571.19 625.46 571.57 624.24 572.67C623.48 573.35 622.95 574.26 622.57 575.2C621.64 577.44 621.51 580.26 623.09 582.1C625.19 580.4 627.8 579.22 630.49 578.95C631.89 578.82 633.36 578.9 634.65 579.48C636.33 580.23 637.55 581.73 638.52 583.3C639.97 585.68 640.98 588.33 641.47 591.07C641.58 591.67 641.67 592.28 641.96 592.81C642.25 593.35 642.81 593.78 643.42 593.73C643.86 593.7 644.25 593.42 644.69 593.39C645.43 593.35 646.03 594.07 646.13 594.8C646.24 595.54 645.98 596.27 645.72 596.96C645.18 598.42 644.64 599.88 644.11 601.34C647.18 599.04 649.41 595.63 650.28 591.89C651.15 588.15 651.94 582.95 649.07 580.4Z" />
		<path id="Path 65" class="shp2" d="M628.88 599.67L628.88 614.98C628.88 617.29 630.71 619.17 633.02 619.24C635.35 619.31 637.3 617.5 637.41 615.17L637.98 598.62L628.88 599.67Z" />
		<path id="Path 66" class="shp15" d="M679.01 576.82L681.58 537.06L680.31 536.88C677.27 542.31 676.21 553.31 675.26 556.04C671.57 566.59 666.52 576.75 664.67 587.86C663.79 593.16 663.64 598.67 661.64 603.67C659.8 608.27 656.49 612.14 654.3 616.59C652.07 621.12 651.51 652.09 650.23 655.3C647.65 661.79 633.04 667.05 631.53 671.24C629.14 677.85 633.01 685.53 638.98 689.24C640.97 690.48 643.14 691.33 645.39 691.91L662.58 691.18L661.53 620.45L676.3 587.72C677.85 584.28 678.77 580.59 679.01 576.82Z" />
		<path id="Path 67" class="shp2" d="M633.11 821.12L633.21 827.12L627.15 827.44L625.87 820.74L633.11 821.12Z" />
		<path id="Path 68" class="shp3" d="M629.98 827.25C630.17 826.65 629.98 825.94 629.52 825.51C629.06 825.07 628.35 824.93 627.75 825.16C627.12 825.41 626.7 825.99 626.25 826.5C625.07 827.82 623.51 828.73 621.93 829.53C620.32 830.34 618.54 831.19 617.79 832.82C617.34 833.81 618.39 834.92 619.43 835.25C623.24 836.47 627.17 833.56 630.75 831.76C631.31 831.48 631.88 831.19 632.33 830.75C633.63 829.49 633.55 827.42 633.35 825.63C633.33 825.41 632.96 825.36 632.75 825.41C632.54 825.46 632.37 825.61 632.2 825.75C631.53 826.33 630.65 826.67 629.98 827.25Z" />
		<path id="Path 69" class="shp2" d="M645.39 820.91L645.29 826.92L651.35 827.24L652.63 820.54L645.39 820.91Z" />
		<path id="Path 70" class="shp3" d="M648.52 827.05C648.33 826.45 648.52 825.74 648.98 825.31C649.44 824.87 650.16 824.73 650.75 824.96C651.38 825.2 651.8 825.79 652.25 826.3C653.43 827.62 655 828.52 656.58 829.32C658.18 830.13 659.96 830.98 660.71 832.62C661.16 833.6 660.11 834.71 659.07 835.05C655.26 836.27 651.33 833.36 647.75 831.56C647.19 831.28 646.62 830.99 646.17 830.55C644.88 829.29 644.95 827.22 645.15 825.43C645.17 825.21 645.54 825.15 645.75 825.21C645.96 825.26 646.13 825.4 646.3 825.55C646.97 826.12 647.85 826.47 648.52 827.05Z" />
		<path id="Path 71" class="shp5" d="M662.46 744.8L655.26 821.12L645.28 821.12L644.56 749.1L640.34 694.27L633.14 694.58L631.12 746.61L633.11 821.12L622.52 821.12L612.7 745.52L611.57 678.85L662.41 679.52L662.46 744.8Z" />
		<path id="Path 72" class="shp4" d="M77.16 545.18C74.79 544.61 72.27 545.56 70.34 547.04C67.53 549.2 65.59 552.89 66.52 556.32C67.12 558.53 68.8 560.31 70.7 561.58C71.72 562.26 72.84 562.83 74.04 563.06C77.22 563.67 80.38 561.82 82.73 559.6C84.58 557.85 88.98 553.9 86.28 551.4C84.97 550.19 83.36 549.18 81.96 548.06C80.51 546.9 79.01 545.63 77.16 545.18Z" />
		<path id="Path 73" class="shp16" d="M69.79 668.33L72.78 627.05L68.16 596.67L52.48 507.12L60.05 506.04L77.36 585.02L104.41 587.19L132.54 507.12L140.12 508.21L119.56 593.68L112.34 626.35L113.19 666.17L69.79 668.33Z" />
		<path id="Path 74" class="shp2" d="M68.75 545.75L59.79 548.89L52.48 507.12L60.05 506.04L68.75 545.75ZM120.93 540.18L131.43 544.33L140.12 508.21L132.54 507.12L120.93 540.18ZM85.83 585.7L93.59 599.49L97.5 586.64L85.83 585.7ZM143.5 502.8C143.5 506.38 140.6 509.29 137.01 509.29C133.43 509.29 130.52 506.38 130.52 502.8C130.52 499.21 133.43 496.3 137.01 496.3C140.6 496.3 143.5 499.21 143.5 502.8ZM62.01 504.01C62.01 507.59 59.1 510.5 55.52 510.5C51.93 510.5 49.03 507.59 49.03 504.01C49.03 500.42 51.93 497.52 55.52 497.52C59.1 497.52 62.01 500.42 62.01 504.01ZM105.87 565.91C105.87 573.72 99.55 580.05 91.74 580.05C83.93 580.05 77.6 573.72 77.6 565.91C77.6 558.1 83.93 551.78 91.74 551.78C99.55 551.78 105.87 558.1 105.87 565.91ZM87.55 586.16L87.55 576.39L95.22 576.39L95.22 587.7L91.58 590.38L87.55 586.16Z" />
		<path id="Path 75" class="shp4" d="M92.9 549.96C93.03 549.95 93.15 549.95 93.28 549.94C94.92 549.81 96.41 549.09 97.94 548.55C100.19 547.76 104.1 547 104.53 550.46C104.83 552.85 102.23 553.96 100.58 555C98.85 554.29 96.96 554.3 95.09 554.3C92.59 554.29 90.03 554.47 87.76 555.49C85.48 556.52 83.52 558.55 83.19 561.02C83.04 562.21 83.26 563.42 83.44 564.61C83.61 565.79 83.75 567.02 83.44 568.18C83.12 569.34 81.91 574 80.73 574.23C79.82 574.41 78.87 574.05 78.16 573.45C77.46 572.84 76.97 572.02 76.6 571.17C75.34 568.26 74.66 564.96 74.81 561.79C75.17 554.24 82.02 548.5 89.4 549.58C90.56 549.75 91.73 549.99 92.9 549.96Z" />
		<path id="Path 76" class="shp2" d="M89.47 567.05C89.47 569.84 87.21 572.09 84.42 572.09C81.63 572.09 79.38 569.84 79.38 567.05C79.38 564.26 81.63 562.01 84.42 562.01C87.21 562.01 89.47 564.26 89.47 567.05Z" />
		<path id="Path 77" class="shp15" d="M98.11 606.42C92.91 608.35 87.04 609.57 81.88 607.54C80.11 606.84 78.47 605.78 76.64 605.27C74.95 604.8 72.31 605.68 71.32 607.12C70.68 608.05 70.4 609.14 70.23 610.27L72.78 627.05L72.38 632.58C77.79 635.31 84.19 635.54 90.31 635.64C94.36 635.71 98.41 635.78 102.47 635.85C104.32 635.88 106.28 635.89 107.9 634.97C109.75 633.92 110.77 631.86 111.61 629.91C111.88 629.28 112.12 628.64 112.38 628.02L112.34 626.35L116.98 605.37C111.53 608.97 103.83 609.54 98.11 606.42Z" />
		<path id="Path 78" class="shp4" d="M60.08 770.48C60.08 771.58 60.22 772.67 60.36 773.76C60.8 777.12 61.24 780.48 61.68 783.84C61.86 785.23 62.07 786.69 62.93 787.81C63.78 788.92 65.5 789.51 66.62 788.66C67.09 788.31 67.38 787.78 67.64 787.27C70.08 782.43 71.33 776.99 71.24 771.58C71.18 767.76 69.92 763.88 65.73 762.98C61.51 762.07 60.1 766.96 60.08 770.48Z" />
		<path id="Path 79" class="shp2" d="M71.37 639.05L112.75 637.12L144.58 779.7L157.58 771.89L141.37 792.54L98.98 675.01L99.63 728.32L70.89 766.4L69.05 780.14L68.65 783.24C68.45 784.76 67.06 785.84 65.54 785.66C64.17 785.5 63.12 784.37 63.06 783L62.24 764.43L84.49 728.26L68.79 668.37L71.37 639.05Z" />
		<path id="Path 80" class="shp4" d="M72.78 627.05C72.78 627.05 83.3 631.33 92.85 630.69C102.41 630.06 112.34 626.35 112.34 626.35C112.34 626.35 118.11 652.98 122.57 670.81C127.03 688.64 128.94 707.54 128.94 707.54C128.94 707.54 106.44 722.18 79.9 714.75C79.9 714.75 65.47 678.03 66.53 663.81C67.59 649.59 72.78 627.05 72.78 627.05ZM158.02 774.13C158.68 772.94 159.28 771.26 158.23 770.37C157.6 769.84 156.64 769.93 155.89 770.26C153.67 771.22 152.54 773.68 151.64 775.93C146.74 788.27 143.99 783.62 139.42 786.11C136.27 787.82 137.54 789.32 140.4 792.07C145.35 796.83 155.98 777.78 158.02 774.13Z" />
		<path id="Path 81" fill-rule="evenodd" class="shp1" d="M167.6 793.34C167.6 799.27 138.27 804.08 102.08 804.08C65.9 804.08 36.56 799.27 36.56 793.34C36.56 787.41 65.9 782.6 102.08 782.6C138.27 782.6 167.6 787.41 167.6 793.34ZM138.85 503.75L48.26 503.75L48.26 413.15L138.85 413.15L138.85 503.75ZM52 500.01L135.12 500.01L135.12 416.89L52 416.89L52 500.01Z" />
		<path id="Path 82" class="shp9" d="M147.05 405.04L95.74 457.14L80.52 443.71L68.82 456.99L96.57 481.46L159.64 417.47L147.05 405.04Z" />
		<path id="Path 83" class="shp17" d="M472.21 892.93C471.34 893.82 470.6 894.79 469.99 895.84L469.06 895.36C468.93 894.76 468.36 894.35 467.74 894.42C467.08 894.5 466.61 895.1 466.68 895.76C466.76 896.42 467.36 896.9 468.02 896.82C468.16 896.81 468.28 896.77 468.39 896.72L469.29 897.18C468.79 898.29 468.43 899.46 468.22 900.67L469.71 900.93C470.17 898.32 471.41 895.92 473.29 893.99L472.21 892.93ZM483.18 888.33C482.84 888.33 482.5 888.34 482.16 888.36L482.02 887.11C482.39 886.81 482.61 886.33 482.55 885.82C482.46 885.03 481.74 884.47 480.96 884.56C480.17 884.66 479.61 885.37 479.7 886.15C479.76 886.66 480.08 887.08 480.51 887.28L480.66 888.53C479.23 888.76 477.85 889.19 476.54 889.82L477.19 891.19C479.06 890.29 481.08 889.84 483.18 889.84C484.18 889.84 485.17 889.95 486.13 890.16L486.46 888.68C485.39 888.45 484.29 888.33 483.18 888.33ZM496.39 893.42C497.05 893.34 497.52 892.74 497.44 892.08C497.36 891.41 496.76 890.95 496.1 891.03C495.48 891.1 495.02 891.63 495.03 892.24L494.2 892.97C493.37 892.11 492.42 891.34 491.39 890.69L490.58 891.97C492.85 893.4 494.62 895.43 495.71 897.82L497.09 897.2C496.59 896.09 495.95 895.05 495.2 894.11L496.01 893.41C496.13 893.43 496.26 893.44 496.39 893.42ZM482.09 908.74C481.32 908.79 480.54 908.81 479.77 908.81C478.01 908.81 476.31 908.69 474.82 908.45C474.04 908.33 473.13 908.14 472.28 907.87C474.37 911.59 478.42 914.12 483.05 914.12C488.77 914.12 493.58 910.29 494.95 905.11C493.59 906.01 491.94 906.76 490.04 907.36C487.68 908.09 484.93 908.57 482.09 908.74Z" />
		<path id="Path 84" fill-rule="evenodd" class="shp17" d="M495.25 901.75C495.3 902.13 495.33 902.52 495.34 902.91C492.59 905.32 487.75 906.88 481.99 907.23C476.71 907.55 472.65 906.73 471.3 905.77C471.12 904.94 471.03 904.1 471.03 903.25C471.03 896.69 476.48 891.36 483.18 891.36C489.3 891.36 494.49 895.83 495.25 901.75ZM482.56 900.69C482.56 898.65 480.9 896.99 478.87 896.99C476.82 896.99 475.17 898.65 475.17 900.69C475.17 902.73 476.82 904.39 478.87 904.39C480.9 904.39 482.56 902.73 482.56 900.69ZM491.06 899.85C491.06 898.35 489.84 897.13 488.34 897.13C486.84 897.13 485.62 898.35 485.62 899.85C485.62 901.35 486.84 902.57 488.34 902.57C489.84 902.57 491.06 901.35 491.06 899.85ZM515.19 895.09C514.6 894.86 513.58 894.48 512.43 894.62C511.32 894.76 510.74 895.3 510.74 896.63L510.74 898.36L515.19 898.36L515.19 901.8L510.74 901.8L510.74 912.71L506.88 912.71L506.88 901.8L504.2 901.8L504.2 898.36L506.88 898.36L506.88 896.59C506.88 893.23 508.67 891.02 512.01 891.02C513.3 891.02 514.33 891.27 515.19 891.64L515.19 895.09ZM524.6 901.76C524.24 901.7 523.88 901.66 523.54 901.66C521.75 901.66 520.52 902.76 520.52 904.89L520.52 912.71L516.66 912.71L516.66 898.36L520.41 898.36L520.41 899.93C521.31 898.59 522.69 897.98 524.45 897.98C525.28 897.98 526.14 898.23 526.64 898.65L524.6 901.76Z" />
		<path id="Path 85" fill-rule="evenodd" class="shp17" d="M539.93 905.51C539.93 905.96 539.9 906.49 539.86 906.82L529.69 906.82C530.1 908.89 531.55 909.79 533.37 909.79C534.62 909.79 535.96 909.29 537 908.42L539.26 910.9C537.64 912.4 535.56 913.08 533.15 913.08C528.75 913.08 525.71 910.09 525.71 905.57C525.71 901.06 528.67 897.98 532.96 897.98C537.09 897.98 539.92 901.04 539.93 905.51ZM529.7 904.18L536.05 904.18C535.7 902.35 534.59 901.31 532.93 901.31C531.11 901.31 530.04 902.4 529.7 904.18ZM555.24 905.51C555.24 905.96 555.21 906.49 555.16 906.82L544.99 906.82C545.41 908.89 546.86 909.79 548.68 909.79C549.92 909.79 551.27 909.29 552.31 908.42L554.57 910.9C552.94 912.4 550.87 913.08 548.46 913.08C544.06 913.08 541.01 910.09 541.01 905.57C541.01 901.06 543.97 897.98 548.26 897.98C552.39 897.98 555.22 901.04 555.24 905.51ZM545.01 904.18L551.36 904.18C551 902.35 549.89 901.31 548.23 901.31C546.41 901.31 545.35 902.4 545.01 904.18ZM571.93 905.53C571.93 909.84 568.94 913.08 564.99 913.08C563.06 913.08 561.7 912.32 560.77 911.21L560.77 918.63L556.92 918.63L556.92 898.36L560.69 898.36L560.69 899.95C561.62 898.78 563 897.98 564.97 897.98C568.94 897.98 571.93 901.22 571.93 905.53ZM560.57 905.53C560.57 907.79 562.07 909.48 564.26 909.48C566.54 909.48 567.96 907.72 567.96 905.53C567.96 903.34 566.54 901.58 564.26 901.58C562.07 901.58 560.57 903.26 560.57 905.53ZM577.62 912.71L573.75 912.71L573.75 898.36L577.62 898.36L577.62 912.71ZM578.13 893.67C578.13 895.06 577.05 896.13 575.66 896.13C574.27 896.13 573.21 895.06 573.21 893.67C573.21 892.28 574.27 891.19 575.66 891.19C577.05 891.19 578.13 892.28 578.13 893.67ZM584.06 903.47L589.47 898.36L594.2 898.36L587.25 905.11L594.25 912.71L589.5 912.71L584.06 906.9L584.06 912.71L580.2 912.71L580.2 891.39L584.06 891.39L584.06 903.47ZM320.83 912.58L320.83 910.47C319.77 911.9 318.04 912.93 316.05 912.93C312.36 912.93 309.75 910.12 309.75 905.52C309.75 901.01 312.33 898.08 316.05 898.08C317.95 898.08 319.68 899.01 320.83 900.57L320.83 893.04L323.02 893.04L323.02 912.58L320.83 912.58ZM320.83 908.74L320.83 902.32C320.03 901.09 318.34 900.04 316.58 900.04C313.74 900.04 312.04 902.38 312.04 905.52C312.04 908.65 313.74 910.97 316.58 910.97C318.34 910.97 320.03 909.97 320.83 908.74Z" />
		<path id="Path 86" fill-rule="evenodd" class="shp17" d="M325.86 905.49C325.86 901.39 328.79 898.08 332.84 898.08C337.11 898.08 339.63 901.42 339.63 905.66L339.63 906.22L328.18 906.22C328.35 908.89 330.23 911.11 333.27 911.11C334.89 911.11 336.53 910.47 337.64 909.33L338.69 910.76C337.29 912.17 335.38 912.93 333.07 912.93C328.88 912.93 325.86 909.91 325.86 905.49ZM332.81 899.89C329.79 899.89 328.29 902.44 328.18 904.61L337.46 904.61C337.43 902.5 336.03 899.89 332.81 899.89ZM341.21 910.7L342.36 909.12C343.29 910.21 345.08 911.14 347.01 911.14C349.18 911.14 350.35 910.12 350.35 908.71C350.35 905.28 341.59 907.39 341.59 902.15C341.59 899.95 343.5 898.08 346.87 898.08C349.27 898.08 350.97 898.99 352.11 900.13L351.09 901.65C350.24 900.63 348.68 899.86 346.87 899.86C344.93 899.86 343.73 900.83 343.73 902.09C343.73 905.2 352.49 903.15 352.49 908.65C352.49 911.03 350.59 912.93 346.93 912.93C344.61 912.93 342.65 912.23 341.21 910.7ZM355.33 898.43L357.53 898.43L357.53 912.58L355.33 912.58L355.33 898.43ZM354.95 894.94C354.95 894.12 355.63 893.45 356.42 893.45C357.24 893.45 357.91 894.12 357.91 894.94C357.91 895.76 357.24 896.41 356.42 896.41C355.63 896.41 354.95 895.76 354.95 894.94ZM361.16 916.21L362.28 914.57C363.45 915.98 364.85 916.5 366.88 916.5C369.22 916.5 371.42 915.36 371.42 912.26L371.42 910.23C370.39 911.67 368.66 912.75 366.67 912.75C362.98 912.75 360.37 910 360.37 905.43C360.37 900.89 362.95 898.08 366.67 898.08C368.57 898.08 370.27 899.01 371.42 900.57L371.42 898.43L373.61 898.43L373.61 912.17C373.61 916.86 370.33 918.32 366.88 918.32C364.47 918.32 362.83 917.85 361.16 916.21ZM371.42 908.51L371.42 902.32C370.65 901.09 368.96 900.04 367.2 900.04C364.36 900.04 362.66 902.3 362.66 905.43C362.66 908.54 364.36 910.82 367.2 910.82C368.96 910.82 370.65 909.74 371.42 908.51ZM386.83 912.58L386.83 903.32C386.83 900.83 385.57 900.04 383.66 900.04C381.93 900.04 380.29 901.09 379.47 902.24L379.47 912.58L377.28 912.58L377.28 898.43L379.47 898.43L379.47 900.48C380.47 899.31 382.4 898.08 384.51 898.08C387.47 898.08 389.02 899.57 389.02 902.65L389.02 912.58L386.83 912.58ZM391.86 905.49C391.86 901.39 394.79 898.08 398.84 898.08C403.11 898.08 405.63 901.42 405.63 905.66L405.63 906.22L394.18 906.22C394.35 908.89 396.23 911.11 399.28 911.11C400.89 911.11 402.53 910.47 403.64 909.33L404.7 910.76C403.29 912.17 401.39 912.93 399.07 912.93C394.88 912.93 391.86 909.91 391.86 905.49ZM398.81 899.89C395.79 899.89 394.3 902.44 394.18 904.61L403.47 904.61C403.44 902.5 402.03 899.89 398.81 899.89ZM418.7 912.58L418.7 910.47C417.65 911.9 415.92 912.93 413.92 912.93C410.23 912.93 407.63 910.12 407.63 905.52C407.63 901.01 410.2 898.08 413.92 898.08C415.83 898.08 417.56 899.01 418.7 900.57L418.7 893.04L420.9 893.04L420.9 912.58L418.7 912.58ZM418.7 908.74L418.7 902.32C417.91 901.09 416.21 900.04 414.45 900.04C411.61 900.04 409.91 902.38 409.91 905.52C409.91 908.65 411.61 910.97 414.45 910.97C416.21 910.97 417.91 909.97 418.7 908.74ZM431.38 912.58L431.38 893.04L433.58 893.04L433.58 900.57C434.72 899.01 436.42 898.08 438.36 898.08C442.05 898.08 444.66 901.01 444.66 905.52C444.66 910.12 442.05 912.93 438.36 912.93C436.36 912.93 434.64 911.9 433.58 910.47L433.58 912.58L431.38 912.58ZM437.8 910.97C440.67 910.97 442.37 908.65 442.37 905.52C442.37 902.38 440.67 900.04 437.8 900.04C436.07 900.04 434.34 901.09 433.58 902.32L433.58 908.74C434.34 909.97 436.07 910.97 437.8 910.97ZM447.06 916.12C447.38 916.27 447.91 916.36 448.26 916.36C449.22 916.36 449.87 916.04 450.37 914.86L451.31 912.73L445.39 898.43L447.76 898.43L452.48 910.03L457.16 898.43L459.57 898.43L452.48 915.45C451.63 917.5 450.19 918.29 448.32 918.32C447.85 918.32 447.11 918.23 446.71 918.12L447.06 916.12Z" />
	</g>
</svg>