<svg xmlns="http://www.w3.org/2000/svg" viewBox="0 0 857 855" width="800" height="798">
	<defs>
		<clipPath clipPathUnits="userSpaceOnUse" id="cp1">
			<path d="M-80 -145L920 -145L920 855L-80 855Z" />
		</clipPath>
		<linearGradient id="grd1" gradientUnits="userSpaceOnUse"  x1="328.883" y1="333.944" x2="292.42" y2="330.953">
			<stop offset="0" stop-color="#f5c7b0"  />
			<stop offset="1" stop-color="#cc5b40"  />
		</linearGradient>
	</defs>
	<style>
		tspan { white-space:pre }
		.shp0 { fill: #4d66a2 } 
		.shp1 { fill: #fffaef } 
		.shp2 { fill: #ee4623 } 
		.shp3 { fill: #f6bc9f } 
		.shp4 { fill: #e9946f } 
		.shp5 { fill: #f5efdb } 
		.shp6 { fill: #b72025 } 
		.shp7 { fill: #aa5c27 } 
		.shp8 { fill: #3c2a34 } 
		.shp9 { fill: url(#grd1) } 
		.shp10 { fill: #addfe8 } 
		.shp11 { fill: #9d3522 } 
		.txt12 { font-size: 60px;fill: #ffffff;font-family: "Encode Sans";font-weight: 400 } 
	</style>
	<g id="Page 1" clip-path="url(#cp1)">
		<path id="Path 4" class="shp0" d="M835.6 226.49L814.19 64.6L379.52 124.47L403.82 286.02L640.45 253.39L672.64 296.53L612 356.12L713.8 310.47L715.1 243.1L835.6 226.49Z" />
		<path id="Path 7" class="shp1" d="M585.3 316.47L585.35 276.59L607.65 281.6L585.3 316.47ZM610.02 326.05L624.29 288.81L643.33 301.44L610.02 326.05ZM632.64 365.69L670.62 353.52L672.68 376.27L632.64 365.69ZM632.76 392.67L672.64 392.26L667.89 414.61L632.76 392.67ZM615.17 410.66L650.11 429.89L635 447.03L615.17 410.66Z" />
		<path id="Path 8" class="shp2" d="M345.41 571.59L514.74 716.03L468.2 756.36L351.15 666.47L345.41 571.59Z" />
		<path id="Path 9" class="shp3" d="M406.58 502.46L441.29 668.98L500.9 666.97L461.96 535.61L493.16 520.13L458.19 464.18L406.58 502.46ZM285.65 464.88L304.77 612.1L199.99 554.16L192.42 405.01L285.65 464.88Z" />
		<path id="Path 10" class="shp4" d="M294.26 521.28L217.3 496.84L224.98 556.81L199.99 554.16L191.06 421.57L290.6 495.97L294.26 521.28Z" />
		<path id="Path 11" class="shp1" d="M597.96 366C601.93 381.72 592.41 397.67 576.7 401.63C560.99 405.6 545.04 396.08 541.07 380.37C537.1 364.66 546.62 348.71 562.33 344.74C578.04 340.77 594 350.29 597.96 366Z" />
		<path id="Path 12" class="shp2" d="M472.97 396.85C478.84 420.11 464.74 443.73 441.48 449.61C418.22 455.48 394.6 441.38 388.73 418.12C382.86 394.86 396.96 371.24 420.21 365.37C443.48 359.49 467.09 373.59 472.97 396.85ZM441.96 449.48L473.26 441.58L452 357.34L420.7 365.24L441.96 449.48Z" />
		<path id="Path 13" class="shp1" d="M554.01 293.19L573.93 372.07L462.8 400.13L452 357.34C452 357.34 525.1 331.12 554.01 293.19Z" />
		<path id="Path 14" class="shp5" d="M593.84 450.96L573.93 372.07L462.8 400.13L473.27 441.58C473.27 441.58 550.39 431.29 593.84 450.96Z" />
		<path id="Path 15" class="shp2" d="M601.61 446.64C602.77 451.24 599.99 455.91 595.39 457.07C590.79 458.23 586.12 455.44 584.96 450.84L546.53 298.65C545.37 294.05 548.16 289.39 552.76 288.22C557.36 287.06 562.03 289.85 563.19 294.45L601.61 446.64ZM477.62 503.6C478.9 508.67 475.83 513.83 470.75 515.11C465.67 516.39 460.52 513.31 459.24 508.24L441.05 436.16C439.76 431.09 442.84 425.94 447.91 424.66C452.99 423.37 458.14 426.45 459.42 431.52L477.62 503.6Z" />
		<path id="Path 16" class="shp6" d="M466.67 460.24L448.3 464.88L444.24 448.81L462.62 444.17L466.67 460.24Z" />
		<path id="Path 17" class="shp3" d="M406.58 502.46L433.85 456.8L480.09 456.07C480.09 456.07 483.95 468.61 468.25 473.45C455.02 477.53 443.93 474.93 443.93 474.93C443.93 474.93 462.13 515.18 432.18 516.49C402.24 517.8 406.58 502.46 406.58 502.46ZM356.48 475.8C356.48 475.8 309.58 513.28 235.82 483.22L161.84 324.02C161.84 324.02 195.82 259.6 239.32 264.78L239.34 264.78C240.32 264.9 241.3 265.04 242.3 265.24L354.62 344.68L302.2 369.2L308.06 376.56L315.26 385.58C315.26 385.58 314.96 385.84 314.38 386.3C310.84 389.08 297.04 399.14 282.96 398.58C274.02 398.22 264.96 393.62 258.34 380.12C257.74 378.92 257.16 377.62 256.6 376.26C256.6 376.26 256.5 376.78 256.34 377.72C256.34 377.78 256.32 377.84 256.32 377.88C256.32 377.92 256.32 377.96 256.3 378.02C254.62 388.3 247.64 440.4 275.66 449.92C289 460.8 310.98 463.72 346.92 447.52L356.48 475.8Z" />
		<path id="Path 18" class="shp7" d="M137.33 308.19C137.33 308.19 98.44 339.89 115.47 388.41C132.49 436.92 187.87 412.52 187.87 412.52L137.33 308.19ZM246.29 289.73L252.75 298.77L224.58 320.28C224.58 320.28 209.18 295.77 246.29 289.73Z" />
		<path id="Path 19" class="shp8" d="M258.65 310.47C258.65 310.47 273.88 333.92 262.14 338.06C250.39 342.2 244.26 321.89 244.26 321.89C244.26 321.89 253.56 331.66 257.18 328.36C260.8 325.05 258.65 310.47 258.65 310.47Z" />
		<path id="Path 20" class="shp9" d="M302.2 369.2L354.63 344.69L280.94 292.57L302.2 369.2Z" />
		<path id="Path 21" class="shp4" d="M251.03 271.42C251.03 271.42 199.12 290.68 199.42 319.68C199.71 348.68 243.16 415.71 243.16 415.71L240.59 447.03L160.8 312.31L239.2 264.82L251.03 271.42Z" />
		<path id="Path 22" class="shp7" d="M370.54 472.62C370.54 472.62 239.56 569.42 187.88 412.52L133.66 309.1C133.66 309.1 135.22 216.9 215.44 226.84C253.44 231.56 240.68 211.76 240.68 211.76C240.68 211.76 269.94 213.56 260.44 237.98C251.54 260.9 240.66 264.44 239.34 264.78L239.32 264.78C239.24 264.82 239.2 264.82 239.2 264.82L180.96 304.1L199.72 339.2L190.26 348.66L241.96 445.02C241.96 445.02 238.8 366.46 251.36 366.9C263.94 367.32 308.06 376.56 308.06 376.56L314.38 386.3L316.24 389.14C309.72 395.64 298.04 403.54 282.96 398.58C274.02 398.22 264.96 393.62 258.34 380.12C257.68 379.36 257.02 378.54 256.34 377.72C256.34 377.78 256.32 377.84 256.32 377.88C256.32 377.92 256.32 377.96 256.3 378.02C255.82 382.22 250.94 429.74 275.66 449.92C289 460.8 310.98 463.72 346.92 447.52C348.76 446.7 350.62 445.84 352.52 444.9L370.54 472.62Z" />
		<path id="Path 23" class="shp10" d="M282.96 398.58C274.02 398.22 264.96 393.62 258.34 380.12C267.24 390.54 275.52 396.12 282.96 398.58Z" />
		<path id="Path 24" class="shp1" d="M312.56 392.44L317.1 409.33C317.1 409.33 260.2 445.99 256.35 377.73C256.35 377.73 273.77 406.34 312.56 392.44Z" />
		<path id="Path 25" class="shp2" d="M307.45 560.68L304.77 612.1L216.43 559.07L177.22 565.25L195.76 855L406.59 855L345.41 571.59L307.45 560.68Z" />
		<path id="Path 26" class="shp1" d="M304.77 612.1L296.68 549.78L322.81 557.12L335.49 612.1L317.79 593.09L304.77 612.1Z" />
		<path id="Path 27" class="shp2" d="M205.91 651.79L129.96 750L221.41 803.3L195.76 855L17.99 777.82L177.21 565.25L205.91 651.79Z" />
		<path id="Path 28" class="shp3" d="M480.09 456.07L443.97 472.32L449.52 488.13L487.38 476.15C487.38 476.15 495.13 459.77 480.09 456.07ZM489.79 484.44L453.67 500.69L459.23 516.5L495.94 505.16C495.94 505.16 504.84 488.14 489.79 484.44ZM485.22 469.83L449.1 486.09L454.65 501.9L492.5 489.91C492.5 489.91 500.26 473.54 485.22 469.83Z" />
		<path id="Path 29" class="shp4" d="M480.05 487.43L454.57 497.98L450.58 482.4L478.1 471.03L453.35 482.81L457.71 493.27L480.05 487.43Z" />
		<path id="Path 30" class="shp3" d="M489.26 499.12L450.96 509.25L453.85 525.75L493.16 520.13C493.16 520.13 503.49 505.24 489.26 499.12Z" />
		<path id="Path 31" class="shp4" d="M425.63 510.8C425.63 510.8 457.54 508.26 448.47 478.24C448.47 478.24 459.16 485.08 476.92 471.52C476.92 471.52 459.71 482.36 444.09 473.76C444.09 473.76 446.67 505.07 425.63 510.8ZM487.17 519.68L463.13 529.79L457.7 514.65L485.23 503.28L460.47 515.06L464.83 525.52L487.17 519.68ZM494.34 498.88L457.35 514.21L451.91 499.08L479.45 487.7L454.69 499.48L459.05 509.94L494.34 498.88Z" />
		<path id="Path 32" class="shp11" d="M177.62 230.95C177.62 230.95 121.36 289.38 153.63 321.72C153.63 321.72 120.14 344.25 125.45 360.6C130.76 376.94 177.22 392.99 177.22 392.99L187.88 412.52C187.88 412.52 129.13 440.66 111.15 388.38C93.18 336.1 133.66 309.11 133.66 309.11C133.66 309.11 118.5 255.67 177.62 230.95Z" />
		<path id="Path 33" class="shp3" d="M165.1 364.83C165.1 364.83 156.71 355.03 144.05 372.71C131.84 389.75 157.85 425.92 177.62 393.92L165.1 364.83Z" />
		<path id="Path 34" class="shp11" d="M165.1 364.83C165.1 364.83 223.47 482.29 264.31 488.02C305.16 493.75 370.55 472.63 370.55 472.63C370.55 472.63 312.47 515.79 266.58 502.78C198.97 483.61 165.1 364.83 165.1 364.83Z" />
		<path id="Path 35" class="shp1" d="M304.77 612.1L281.94 573.83L196.61 535.71L177.22 579.51L261.1 629.35L273.41 593.03L304.77 612.1Z" />
		<path id="Path 36" class="shp6" d="M153.86 647.82L181.48 670.58L186.32 637.23L212.79 837.82L403.12 838.91L406.59 855L195.76 855L181.12 683.85L151.62 721.99L177.22 676.98L153.86 647.82ZM177.21 565.25L36.3 772.08L187.87 833.36L192.42 785.08L195.76 855L17.99 777.82L177.21 565.25Z" />
		<path id="Path 37" class="shp2" d="M474.54 573.48L514.74 716.03L430.86 706.91L421.67 592.28L474.54 573.48Z" />
		<path id="Path 38" class="shp6" d="M366.75 678.45L357.02 618.36L375.62 668.98L468.2 756.36L366.75 678.45ZM432.42 600.65L430.07 695.91L421.66 603L432.42 600.65Z" />
		<path id="Path 39" class="shp1" d="M414.05 571.51L479.34 562.26L492.42 594.25L452.46 602.18L445.81 585.91L442.13 602.36L413.55 603.25L414.05 571.51Z" />
		<path id="Path 40" class="shp4" d="M429.03 464.88L409.57 502.15L424.63 570.01L417.82 571.59L404.07 501.9L429.03 464.88ZM145.39 386.97C145.39 386.97 161.84 373.18 170.02 395.24C170.02 395.24 165.89 362.52 145.39 386.97Z" />
		<text id="Advertisement " style="transform: matrix(1,0,0,1,407.492,194)" >
			<tspan x="0" y="0" class="txt12">Advertisement</tspan>
		</text>
	</g>
</svg>