<svg xmlns="http://www.w3.org/2000/svg" viewBox="0 0 851 584" width="400" height="275">
	<defs>
		<clipPath clipPathUnits="userSpaceOnUse" id="cp1">
			<path d="M-67 -320L933 -320L933 680L-67 680Z" />
		</clipPath>
	</defs>
	<style>
		tspan { white-space:pre }
		.shp0 { fill: #dbe2e8 } 
		.shp1 { fill: #ffffff } 
	</style>
	<g id="Page 1" clip-path="url(#cp1)">
		<path id="Path 6" class="shp0" d="M528.4 311.99L20.09 311.99L20.09 8.99L528.4 8.99L528.4 311.99ZM691.24 115.61L549.85 115.61L549.85 8.99L691.24 8.99L691.24 115.61ZM391.31 376.51L108.88 376.51C102.16 376.51 96.71 371.06 96.71 364.34C96.71 357.62 102.16 352.18 108.88 352.18L391.31 352.18C398.03 352.18 403.48 357.62 403.48 364.34C403.48 371.06 398.03 376.51 391.31 376.51ZM828.49 35.74L714.43 35.74C711.27 35.74 708.71 33.19 708.71 30.03C708.71 26.87 711.27 24.31 714.43 24.31L828.49 24.31C831.65 24.31 834.2 26.87 834.2 30.03C834.2 33.19 831.65 35.74 828.49 35.74ZM828.49 61.24L714.43 61.24C711.27 61.24 708.71 58.69 708.71 55.53C708.71 52.37 711.27 49.81 714.43 49.81L828.49 49.81C831.65 49.81 834.2 52.37 834.2 55.53C834.2 58.69 831.65 61.24 828.49 61.24ZM759.43 86.74L714.43 86.74C711.27 86.74 708.71 84.19 708.71 81.03C708.71 77.87 711.27 75.31 714.43 75.31L759.43 75.31C762.59 75.31 765.15 77.87 765.15 81.03C765.15 84.19 762.59 86.74 759.43 86.74ZM828.49 181.8L714.43 181.8C711.27 181.8 708.71 179.24 708.71 176.09C708.71 172.93 711.27 170.37 714.43 170.37L828.49 170.37C831.65 170.37 834.2 172.93 834.2 176.09C834.2 179.24 831.65 181.8 828.49 181.8ZM828.49 207.3L714.43 207.3C711.27 207.3 708.71 204.75 708.71 201.59C708.71 198.43 711.27 195.87 714.43 195.87L828.49 195.87C831.65 195.87 834.2 198.43 834.2 201.59C834.2 204.75 831.65 207.3 828.49 207.3ZM759.43 232.8L714.43 232.8C711.27 232.8 708.71 230.25 708.71 227.09C708.71 223.93 711.27 221.37 714.43 221.37L759.43 221.37C762.59 221.37 765.15 223.93 765.15 227.09C765.15 230.25 762.59 232.8 759.43 232.8ZM828.49 321.09L714.43 321.09C711.27 321.09 708.71 318.53 708.71 315.37C708.71 312.22 711.27 309.66 714.43 309.66L828.49 309.66C831.65 309.66 834.2 312.22 834.2 315.37C834.2 318.53 831.65 321.09 828.49 321.09ZM397.76 424.57L103.86 424.57C100.71 424.57 98.15 422.01 98.15 418.85C98.15 415.69 100.71 413.13 103.86 413.13L397.76 413.13C400.92 413.13 403.48 415.69 403.48 418.85C403.48 422.01 400.92 424.57 397.76 424.57ZM397.76 454.66L103.86 454.66C100.71 454.66 98.15 452.1 98.15 448.94C98.15 445.79 100.71 443.23 103.86 443.23L397.76 443.23C400.92 443.23 403.48 445.79 403.48 448.94C403.48 452.1 400.92 454.66 397.76 454.66ZM250.68 484.75L103.86 484.75C100.71 484.75 98.15 482.19 98.15 479.04C98.15 475.88 100.71 473.32 103.86 473.32L250.68 473.32C253.84 473.32 256.4 475.88 256.4 479.04C256.4 482.19 253.84 484.75 250.68 484.75ZM828.49 346.59L714.43 346.59C711.27 346.59 708.71 344.03 708.71 340.87C708.71 337.72 711.27 335.16 714.43 335.16L828.49 335.16C831.65 335.16 834.2 337.72 834.2 340.87C834.2 344.03 831.65 346.59 828.49 346.59ZM759.43 372.09L714.43 372.09C711.27 372.09 708.71 369.53 708.71 366.37C708.71 363.22 711.27 360.66 714.43 360.66L759.43 360.66C762.59 360.66 765.15 363.22 765.15 366.37C765.15 369.53 762.59 372.09 759.43 372.09ZM828.49 460.38L714.43 460.38C711.27 460.38 708.71 457.82 708.71 454.66C708.71 451.5 711.27 448.94 714.43 448.94L828.49 448.94C831.65 448.94 834.2 451.5 834.2 454.66C834.2 457.82 831.65 460.38 828.49 460.38ZM828.49 485.88L714.43 485.88C711.27 485.88 708.71 483.32 708.71 480.16C708.71 477 711.27 474.44 714.43 474.44L828.49 474.44C831.65 474.44 834.2 477 834.2 480.16C834.2 483.32 831.65 485.88 828.49 485.88ZM759.43 511.38L714.43 511.38C711.27 511.38 708.71 508.82 708.71 505.66C708.71 502.5 711.27 499.94 714.43 499.94L759.43 499.94C762.59 499.94 765.15 502.5 765.15 505.66C765.15 508.82 762.59 511.38 759.43 511.38ZM691.24 254.9L549.85 254.9L549.85 148.28L691.24 148.28L691.24 254.9ZM691.24 394.18L549.85 394.18L549.85 287.56L691.24 287.56L691.24 394.18ZM691.24 533.47L549.85 533.47L549.85 426.85L691.24 426.85L691.24 533.47ZM70.78 364.34C70.78 378.34 59.43 389.69 45.44 389.69C31.44 389.69 20.09 378.34 20.09 364.34C20.09 350.34 31.44 338.99 45.44 338.99C59.43 338.99 70.78 350.34 70.78 364.34Z" />
		<path id="Path 11" class="shp1" d="M384.03 160.49C384.03 221.13 334.88 270.28 274.24 270.28C213.61 270.28 164.46 221.13 164.46 160.49C164.46 99.86 213.61 50.71 274.24 50.71C334.88 50.71 384.03 99.86 384.03 160.49Z" />
		<path id="Path 12" class="shp0" d="M245.14 102.24L245.14 218.75L333.06 160.49L245.14 102.24Z" />
		<path id="Path 14" fill-rule="evenodd" class="shp1" d="M321.31 -184.58C321.31 -178.88 316.68 -174.25 310.97 -174.25L262.5 -174.25C256.79 -174.25 252.17 -178.88 252.17 -184.58L252.17 -212.3C252.17 -218.01 256.79 -222.64 262.5 -222.64L310.97 -222.64C316.68 -222.64 321.31 -218.01 321.31 -212.3L321.31 -184.58ZM299.57 -199.77L279.82 -212.78L279.82 -186.75L299.57 -199.77ZM296.31 624.74C296.57 625.05 296.7 625.51 296.7 626.12L296.7 640.41C296.7 641.03 296.56 641.49 296.28 641.8C295.99 642.11 295.62 642.26 295.17 642.26C294.73 642.26 294.36 642.1 294.07 641.78C293.79 641.46 293.64 641 293.64 640.41L293.64 640.09C293.21 640.59 292.78 640.99 292.35 641.31C291.93 641.62 291.47 641.86 290.98 642.02C290.48 642.18 289.94 642.26 289.36 642.26C288.58 642.26 287.86 642.1 287.2 641.77C286.54 641.44 285.97 640.97 285.49 640.36C285 639.75 284.64 639.04 284.39 638.22C284.14 637.39 284.01 636.5 284.01 635.55C284.01 633.52 284.51 631.94 285.5 630.81C286.49 629.68 287.79 629.11 289.4 629.11C290.34 629.11 291.12 629.27 291.77 629.59C292.41 629.91 293.03 630.41 293.64 631.07L293.64 626.28C293.64 625.62 293.77 625.12 294.04 624.78C294.3 624.44 294.68 624.27 295.17 624.27C295.66 624.27 296.04 624.42 296.31 624.74ZM293.46 635.65C293.46 634.79 293.32 634.05 293.04 633.42C292.76 632.8 292.38 632.33 291.9 632C291.42 631.67 290.9 631.51 290.33 631.51C289.74 631.51 289.21 631.68 288.74 632.01C288.27 632.35 287.91 632.83 287.65 633.46C287.39 634.09 287.27 634.82 287.27 635.65C287.27 636.53 287.4 637.28 287.68 637.9C287.95 638.51 288.32 638.98 288.8 639.29C289.27 639.6 289.79 639.76 290.35 639.76C290.92 639.76 291.44 639.61 291.92 639.31C292.38 639.02 292.76 638.56 293.04 637.95C293.32 637.33 293.46 636.57 293.46 635.65Z" />
		<path id="Path 15" fill-rule="evenodd" class="shp1" d="M307.93 636.47L301.59 636.47C301.6 637.2 301.75 637.85 302.04 638.42C302.33 638.98 302.71 639.4 303.19 639.69C303.67 639.97 304.2 640.11 304.77 640.11C305.16 640.11 305.52 640.07 305.84 639.98C306.16 639.88 306.47 639.75 306.77 639.55C307.07 639.36 307.35 639.15 307.6 638.92C307.85 638.7 308.18 638.4 308.58 638.02C308.75 637.88 308.99 637.81 309.3 637.81C309.63 637.81 309.9 637.9 310.1 638.08C310.31 638.26 310.41 638.52 310.41 638.85C310.41 639.15 310.3 639.49 310.07 639.88C309.84 640.27 309.49 640.65 309.03 641.01C308.57 641.37 307.99 641.67 307.28 641.91C306.59 642.14 305.78 642.26 304.87 642.26C302.79 642.26 301.17 641.67 300.01 640.48C298.86 639.29 298.28 637.68 298.28 635.65C298.28 634.69 298.42 633.8 298.71 632.99C298.99 632.17 299.41 631.46 299.95 630.88C300.5 630.29 301.17 629.84 301.97 629.53C302.77 629.22 303.66 629.06 304.63 629.06C305.9 629.06 306.98 629.33 307.89 629.86C308.8 630.4 309.48 631.09 309.93 631.93C310.38 632.78 310.6 633.64 310.6 634.52C310.6 635.34 310.37 635.86 309.9 636.11C309.44 636.35 308.78 636.47 307.93 636.47ZM307.47 634.63C307.39 633.52 307.09 632.69 306.57 632.14C306.05 631.59 305.37 631.32 304.53 631.32C303.72 631.32 303.05 631.59 302.54 632.15C302.02 632.71 301.71 633.54 301.59 634.63L307.47 634.63ZM322.21 636.44C322.53 636.9 322.7 637.43 322.7 638.02C322.7 638.92 322.48 639.68 322.04 640.32C321.61 640.96 320.97 641.44 320.12 641.77C319.26 642.1 318.23 642.26 317.01 642.26C315.85 642.26 314.85 642.08 314.02 641.73C313.19 641.37 312.58 640.93 312.18 640.39C311.78 639.86 311.59 639.32 311.59 638.78C311.59 638.43 311.71 638.12 311.97 637.87C312.22 637.62 312.54 637.49 312.93 637.49C313.27 637.49 313.53 637.57 313.71 637.74C313.89 637.91 314.07 638.14 314.23 638.44C314.56 639.02 314.96 639.45 315.43 639.73C315.89 640.02 316.52 640.16 317.32 640.16C317.97 640.16 318.5 640.02 318.92 639.73C319.33 639.44 319.54 639.11 319.54 638.73C319.54 638.17 319.32 637.75 318.89 637.49C318.46 637.23 317.75 636.98 316.76 636.74C315.65 636.46 314.74 636.17 314.04 635.87C313.34 635.57 312.78 635.16 312.36 634.67C311.94 634.17 311.73 633.55 311.73 632.82C311.73 632.18 311.92 631.56 312.31 630.98C312.7 630.41 313.27 629.95 314.03 629.6C314.78 629.26 315.69 629.09 316.76 629.09C317.6 629.09 318.36 629.17 319.02 629.35C319.69 629.52 320.25 629.76 320.7 630.05C321.14 630.34 321.48 630.66 321.72 631.02C321.95 631.38 322.07 631.72 322.07 632.07C322.07 632.44 321.94 632.74 321.69 632.98C321.45 633.21 321.09 633.34 320.63 633.34C320.3 633.34 320.02 633.24 319.78 633.05C319.55 632.86 319.28 632.58 318.98 632.2C318.74 631.88 318.45 631.63 318.12 631.44C317.78 631.25 317.33 631.15 316.76 631.15C316.18 631.15 315.69 631.28 315.3 631.53C314.91 631.77 314.72 632.08 314.72 632.46C314.72 632.8 314.86 633.08 315.15 633.29C315.43 633.51 315.82 633.69 316.3 633.83C316.78 633.97 317.45 634.15 318.29 634.36C319.3 634.6 320.12 634.89 320.76 635.23C321.39 635.57 321.88 635.98 322.21 636.44ZM327.15 629.57C327.46 629.9 327.61 630.35 327.61 630.93L327.61 640.29C327.61 640.94 327.46 641.43 327.15 641.76C326.84 642.1 326.45 642.26 325.97 642.26C325.5 642.26 325.11 642.09 324.81 641.75C324.52 641.41 324.37 640.92 324.37 640.29L324.37 631.02C324.37 630.38 324.52 629.9 324.81 629.57C325.11 629.25 325.5 629.09 325.97 629.09C326.45 629.09 326.84 629.25 327.15 629.57ZM327.12 624.81C327.45 625.08 327.61 625.47 327.61 625.99C327.61 626.49 327.45 626.88 327.13 627.16C326.82 627.44 326.44 627.58 326.01 627.58C325.56 627.58 325.17 627.44 324.85 627.16C324.53 626.89 324.37 626.5 324.37 625.99C324.37 625.53 324.53 625.15 324.86 624.85C325.19 624.55 325.57 624.41 326.01 624.41C326.43 624.41 326.8 624.54 327.12 624.81ZM341.5 629.7C341.7 630.11 341.81 630.69 341.81 631.46L341.81 640.87C341.81 641.95 341.69 642.87 341.46 643.65C341.23 644.43 340.87 645.07 340.36 645.57C339.85 646.08 339.19 646.46 338.37 646.7C337.55 646.95 336.53 647.07 335.31 647.07C334.2 647.07 333.2 646.91 332.32 646.6C331.45 646.29 330.77 645.88 330.29 645.39C329.82 644.9 329.58 644.39 329.58 643.86C329.58 643.47 329.71 643.14 329.99 642.9C330.25 642.65 330.58 642.52 330.96 642.52C331.43 642.52 331.85 642.73 332.2 643.15C332.38 643.36 332.56 643.58 332.74 643.8C332.93 644.02 333.14 644.2 333.36 644.36C333.59 644.51 333.86 644.62 334.17 644.7C334.49 644.77 334.86 644.81 335.27 644.81C336.11 644.81 336.76 644.7 337.22 644.46C337.68 644.23 338.01 643.9 338.19 643.48C338.38 643.07 338.49 642.62 338.52 642.14C338.55 641.66 338.57 640.89 338.59 639.83C338.09 640.52 337.52 641.06 336.86 641.42C336.21 641.78 335.43 641.96 334.53 641.96C333.45 641.96 332.5 641.69 331.69 641.13C330.88 640.58 330.25 639.8 329.82 638.81C329.38 637.81 329.17 636.66 329.17 635.35C329.17 634.38 329.3 633.5 329.56 632.72C329.83 631.93 330.21 631.27 330.7 630.74C331.19 630.2 331.75 629.79 332.39 629.52C333.03 629.25 333.74 629.11 334.51 629.11C335.42 629.11 336.22 629.29 336.89 629.64C337.57 629.99 338.19 630.54 338.77 631.29L338.77 630.85C338.77 630.29 338.91 629.86 339.18 629.55C339.46 629.24 339.82 629.09 340.25 629.09C340.88 629.09 341.29 629.29 341.5 629.7ZM338.65 635.7C338.65 634.38 338.36 633.35 337.78 632.61C337.2 631.87 336.43 631.51 335.48 631.51C334.55 631.51 333.81 631.86 333.25 632.56C332.7 633.27 332.42 634.27 332.42 635.57C332.42 636.88 332.7 637.87 333.28 638.55C333.85 639.22 334.59 639.56 335.5 639.56C336.04 639.56 336.55 639.41 337.03 639.12C337.51 638.83 337.9 638.4 338.2 637.82C338.5 637.23 338.65 636.53 338.65 635.7ZM355.37 632.5C355.44 632.96 355.47 633.55 355.47 634.26L355.47 640.29C355.47 640.94 355.32 641.43 355.02 641.76C354.73 642.09 354.34 642.26 353.87 642.26C353.38 642.26 352.99 642.09 352.69 641.75C352.39 641.41 352.24 640.92 352.24 640.29L352.24 634.89C352.24 633.82 352.09 633 351.79 632.44C351.5 631.87 350.91 631.59 350.02 631.59C349.44 631.59 348.91 631.76 348.44 632.1C347.96 632.45 347.62 632.93 347.4 633.52C347.24 634.01 347.16 634.91 347.16 636.23L347.16 640.29C347.16 640.95 347.01 641.44 346.7 641.77C346.4 642.1 346 642.26 345.52 642.26C345.05 642.26 344.67 642.09 344.37 641.75C344.07 641.41 343.92 640.92 343.92 640.29L343.92 630.93C343.92 630.31 344.05 629.85 344.32 629.54C344.59 629.24 344.96 629.09 345.42 629.09C345.71 629.09 345.97 629.15 346.2 629.29C346.43 629.42 346.61 629.62 346.75 629.89C346.89 630.16 346.96 630.49 346.96 630.88L346.96 631.27C347.53 630.52 348.15 629.97 348.83 629.61C349.5 629.26 350.28 629.09 351.16 629.09C352.01 629.09 352.78 629.27 353.45 629.64C354.12 630.02 354.63 630.54 354.96 631.22C355.17 631.62 355.31 632.05 355.37 632.5ZM366.67 636.47L360.33 636.47C360.34 637.2 360.49 637.85 360.78 638.42C361.07 638.98 361.45 639.4 361.93 639.69C362.41 639.97 362.94 640.11 363.51 640.11C363.9 640.11 364.26 640.07 364.58 639.98C364.9 639.88 365.21 639.75 365.51 639.55C365.81 639.36 366.09 639.15 366.34 638.92C366.59 638.7 366.92 638.4 367.33 638.02C367.49 637.88 367.73 637.81 368.04 637.81C368.37 637.81 368.64 637.9 368.85 638.08C369.05 638.26 369.15 638.52 369.15 638.85C369.15 639.15 369.04 639.49 368.81 639.88C368.58 640.27 368.23 640.65 367.77 641.01C367.31 641.37 366.73 641.67 366.03 641.91C365.33 642.14 364.52 642.26 363.61 642.26C361.53 642.26 359.91 641.67 358.75 640.48C357.6 639.29 357.02 637.68 357.02 635.65C357.02 634.69 357.17 633.8 357.45 632.99C357.73 632.17 358.15 631.46 358.7 630.88C359.24 630.29 359.91 629.84 360.71 629.53C361.51 629.22 362.4 629.06 363.37 629.06C364.64 629.06 365.72 629.33 366.63 629.86C367.54 630.4 368.22 631.09 368.67 631.93C369.12 632.78 369.34 633.64 369.34 634.52C369.34 635.34 369.11 635.86 368.64 636.11C368.18 636.35 367.52 636.47 366.67 636.47ZM366.21 634.63C366.13 633.52 365.83 632.69 365.31 632.14C364.79 631.59 364.11 631.32 363.27 631.32C362.46 631.32 361.79 631.59 361.28 632.15C360.76 632.71 360.45 633.54 360.33 634.63L366.21 634.63ZM382.55 624.74C382.81 625.05 382.94 625.51 382.94 626.12L382.94 640.41C382.94 641.03 382.8 641.49 382.52 641.8C382.23 642.11 381.87 642.26 381.41 642.26C380.97 642.26 380.6 642.1 380.31 641.78C380.03 641.46 379.88 641 379.88 640.41L379.88 640.09C379.45 640.59 379.02 640.99 378.59 641.31C378.17 641.62 377.71 641.86 377.22 642.02C376.72 642.18 376.18 642.26 375.6 642.26C374.82 642.26 374.1 642.1 373.44 641.77C372.78 641.44 372.21 640.97 371.73 640.36C371.24 639.75 370.88 639.04 370.63 638.22C370.38 637.39 370.26 636.5 370.26 635.55C370.26 633.52 370.75 631.94 371.74 630.81C372.73 629.68 374.03 629.11 375.64 629.11C376.58 629.11 377.37 629.27 378.01 629.59C378.65 629.91 379.27 630.41 379.88 631.07L379.88 626.28C379.88 625.62 380.01 625.12 380.28 624.78C380.54 624.44 380.92 624.27 381.41 624.27C381.9 624.27 382.28 624.42 382.55 624.74ZM379.7 635.65C379.7 634.79 379.56 634.05 379.28 633.42C379 632.8 378.62 632.33 378.14 632C377.66 631.67 377.14 631.51 376.57 631.51C375.98 631.51 375.45 631.68 374.98 632.01C374.51 632.35 374.15 632.83 373.89 633.46C373.63 634.09 373.51 634.82 373.51 635.65C373.51 636.53 373.64 637.28 373.92 637.9C374.19 638.51 374.56 638.98 375.04 639.29C375.51 639.6 376.03 639.76 376.59 639.76C377.16 639.76 377.68 639.61 378.15 639.31C378.63 639.02 379 638.56 379.28 637.95C379.56 637.33 379.7 636.57 379.7 635.65ZM402.06 632.1C402.51 633.06 402.73 634.22 402.73 635.55C402.73 636.53 402.6 637.42 402.36 638.24C402.11 639.06 401.74 639.77 401.27 640.37C400.79 640.98 400.22 641.44 399.54 641.77C398.87 642.1 398.12 642.26 397.3 642.26C396.8 642.26 396.34 642.2 395.9 642.08C395.46 641.97 395.08 641.81 394.78 641.62C394.47 641.42 394.2 641.22 393.99 641.02C393.77 640.81 393.48 640.5 393.13 640.09L393.13 640.41C393.13 641.02 392.98 641.48 392.69 641.8C392.39 642.11 392.02 642.26 391.57 642.26C391.11 642.26 390.75 642.11 390.47 641.8C390.2 641.48 390.06 641.02 390.06 640.41L390.06 626.26C390.06 625.6 390.19 625.11 390.46 624.77C390.72 624.44 391.1 624.27 391.57 624.27C392.07 624.27 392.45 624.43 392.72 624.75C392.99 625.07 393.13 625.52 393.13 626.12L393.13 631.07C393.73 630.44 394.36 629.95 394.99 629.61C395.62 629.28 396.41 629.11 397.34 629.11C398.42 629.11 399.36 629.37 400.17 629.87C400.98 630.39 401.61 631.13 402.06 632.1ZM399.48 635.65C399.48 634.8 399.35 634.06 399.11 633.44C398.86 632.82 398.51 632.35 398.06 632.01C397.61 631.68 397.09 631.51 396.49 631.51C395.87 631.51 395.32 631.68 394.84 632.01C394.35 632.35 393.97 632.83 393.7 633.47C393.42 634.11 393.28 634.87 393.28 635.74C393.28 637.04 393.57 638.03 394.16 638.72C394.75 639.41 395.53 639.76 396.49 639.76C397.3 639.76 398 639.4 398.59 638.7C399.18 637.99 399.48 636.97 399.48 635.65ZM414.58 629.81C414.7 630.03 414.77 630.26 414.77 630.51C414.73 630.66 414.68 630.87 414.61 631.15C414.54 631.43 414.45 631.71 414.35 631.99L410.12 643.06C409.76 644.03 409.4 644.79 409.05 645.35C408.71 645.9 408.25 646.33 407.67 646.62C407.1 646.92 406.32 647.07 405.35 647.07C404.4 647.07 403.69 646.97 403.22 646.76C402.74 646.56 402.5 646.18 402.5 645.63C402.5 645.26 402.61 644.97 402.84 644.77C403.07 644.57 403.4 644.47 403.84 644.47C404.02 644.47 404.19 644.49 404.35 644.54C404.56 644.59 404.74 644.61 404.89 644.61C405.26 644.61 405.55 644.56 405.77 644.45C405.98 644.34 406.17 644.15 406.34 643.87C406.51 643.6 406.71 643.2 406.93 642.67L407.23 641.94L403.24 631.9C402.99 631.32 402.87 630.9 402.87 630.64C402.87 630.36 402.94 630.11 403.08 629.87C403.23 629.63 403.42 629.44 403.67 629.3C403.92 629.16 404.18 629.09 404.45 629.09C404.92 629.09 405.27 629.24 405.51 629.53C405.74 629.83 405.95 630.25 406.13 630.81L408.88 638.78L411.48 631.36C411.68 630.77 411.87 630.29 412.03 629.95C412.2 629.61 412.38 629.38 412.56 629.27C412.75 629.15 413.01 629.09 413.35 629.09C413.6 629.09 413.83 629.15 414.06 629.28C414.28 629.41 414.46 629.59 414.58 629.81ZM461.7 625.65C461.7 625.95 461.6 626.21 461.4 626.42C461.21 626.63 460.97 626.74 460.7 626.74C460.58 626.74 460.35 626.72 460.04 626.66C459.75 626.62 459.48 626.6 459.26 626.6C458.68 626.6 458.31 626.77 458.13 627.12C457.98 627.46 457.89 627.95 457.89 628.6L457.89 629.37L458.68 629.37C459.92 629.37 460.53 629.74 460.53 630.49C460.53 631.01 460.37 631.35 460.04 631.49C459.71 631.63 459.26 631.71 458.68 631.71L457.89 631.71L457.89 640.29C457.89 640.93 457.74 641.42 457.43 641.75C457.13 642.09 456.74 642.26 456.25 642.26C455.79 642.26 455.41 642.09 455.1 641.75C454.8 641.42 454.65 640.93 454.65 640.29L454.65 631.71L453.76 631.71C453.27 631.71 452.9 631.6 452.64 631.38C452.38 631.16 452.25 630.88 452.25 630.53C452.25 629.75 452.79 629.37 453.88 629.37L454.65 629.37L454.65 628.39C454.65 627.38 454.77 626.57 455.03 625.97C455.29 625.38 455.73 624.94 456.34 624.67C456.95 624.39 457.79 624.26 458.86 624.26C460.76 624.26 461.7 624.72 461.7 625.65ZM470.14 630.95C470.14 631.34 470 631.67 469.73 631.92C469.46 632.18 469.17 632.31 468.85 632.31C468.73 632.31 468.44 632.23 467.99 632.09C467.53 631.94 467.13 631.87 466.78 631.87C466.31 631.87 465.92 632 465.62 632.24C465.32 632.5 465.08 632.86 464.91 633.35C464.75 633.84 464.64 634.43 464.57 635.11C464.51 635.78 464.48 636.61 464.48 637.58L464.48 640.29C464.48 640.95 464.32 641.44 464.02 641.77C463.71 642.1 463.32 642.26 462.85 642.26C462.37 642.26 461.99 642.1 461.69 641.76C461.39 641.43 461.24 640.94 461.24 640.29L461.24 631.27C461.24 629.81 461.76 629.08 462.81 629.08C463.35 629.08 463.74 629.25 463.98 629.59C464.22 629.93 464.35 630.43 464.38 631.1C464.76 630.43 465.16 629.93 465.56 629.59C465.98 629.25 466.51 629.08 467.2 629.08C467.88 629.08 468.54 629.25 469.18 629.59C469.82 629.93 470.14 630.38 470.14 630.95Z" />
	</g>
</svg>