<svg xmlns="http://www.w3.org/2000/svg" viewBox="0 0 1180 509" width="1180" height="509">
	<defs>
		<clipPath clipPathUnits="userSpaceOnUse" id="cp1">
			<path d="M-157 -369L1343 -369L1343 631L-157 631Z" />
		</clipPath>
		<radialGradient id="grd1" gradientUnits="userSpaceOnUse"  cx="593" cy="131" r="1433.118">
			<stop offset="0" stop-color="#ffffff"  />
			<stop offset="1" stop-color="#c3c4c9"  />
		</radialGradient>
		<linearGradient id="grd2" gradientUnits="userSpaceOnUse"  x1="593" y1="82.876" x2="593" y2="-259.226">
			<stop offset="0" stop-color="#ffffff"  />
			<stop offset="1" stop-color="#d5e5fc"  />
		</linearGradient>
		<linearGradient id="grd3" gradientUnits="userSpaceOnUse"  x1="593" y1="506.961" x2="593" y2="346.324">
			<stop offset="0" stop-color="#ffffff"  />
			<stop offset="1" stop-color="#d5e5fc"  />
		</linearGradient>
	</defs>
	<style>
		tspan { white-space:pre }
		.shp0 { fill: url(#grd1) } 
		.shp1 { fill: url(#grd2) } 
		.shp2 { fill: url(#grd3) } 
		.txt3 { font-size: 16px;fill: #4b5fa4;font-family: "Fira Sans";font-weight: 350 } 
		.shp4 { fill: #c0d4f9 } 
		.shp5 { fill: #d5e5fc } 
		.shp6 { fill: none;stroke: #ffffff;stroke-width: 0.5 } 
		.shp7 { fill: #4b5fa4 } 
		.shp8 { fill: #f4e0eb } 
		.shp9 { fill: #a4aee9 } 
		.shp10 { fill: #7aa2f7 } 
		.shp11 { fill: #93c7f6 } 
		.shp12 { fill: #ffffff } 
		.shp13 { fill: #6896ea } 
		.shp14 { fill: #79a1f6 } 
		.shp15 { fill: #4576ce } 
		.shp16 { fill: #d54066 } 
		.shp17 { fill: #e87d91 } 
		.shp18 { fill: #f990a1 } 
		.shp19 { fill: #31193b } 
		.shp20 { fill: none;stroke: #31193b;stroke-width: 0.4 } 
		.shp21 { fill: #2a2b7d } 
		.shp22 { fill: #4c60a5 } 
		.shp23 { fill: #649df6 } 
		.shp24 { fill: #637abe } 
		.shp25 { fill: #f3a9b8 } 
		.shp26 { fill: #2e3154 } 
		.shp27 { fill: #2c417c } 
		.shp28 { fill: none;stroke: #4b5fa4;stroke-width: 0.5 } 
		.txt29 { font-size: 14px;fill: #c9e1fb;font-family: "Ubuntu Titling";font-weight: 700 } 
		.shp30 { fill: none;stroke: #4b5fa4;stroke-width: 1.5 } 
		.txt31 { font-size: 12px;fill: #4b5fa4;font-family: "Ubuntu";font-weight: 500 } 
		.txt32 { font-size: 66px;fill: #d54066;font-family: "Fira Sans Condensed";font-weight: 350 } 
		.txt33 { font-size: 12px;fill: #c0d4f9;font-family: "Ubuntu";font-weight: 500 } 
		.shp34 { fill: #a5b7c6 } 
	</style>
	<g id="Page 1" clip-path="url(#cp1)">
		<path id="Path 1" class="shp0" d="M-157 631L1343 631L1343 -369L-157 -369L-157 631Z" />
		<path id="Path 2" class="shp1" d="M1189.25 511.13L-3.25 511.13L-3.25 -249.13L1189.25 -249.13L1189.25 511.13Z" />
		<path id="Path 3" class="shp2" d="M-3.25 366.46L-3.25 511.13L1189.25 511.13L1189.25 366.46C927 400.05 725.52 383.43 540.76 366.82C434.47 357.27 333.7 347.71 230.07 347.71C154.87 347.71 78.17 352.74 -3.25 366.46Z" />
		<text id="ABOUT " style="transform: matrix(1,0,0,1,827.405,-206.896)" >
			<tspan x="0" y="0" class="txt3">ABOUT</tspan>
		</text>
		<text id="HOME " style="transform: matrix(1,0,0,1,751.021,-206.896)" >
			<tspan x="0" y="0" class="txt3">HOME</tspan>
		</text>
		<text id="SERVICES " style="transform: matrix(1,0,0,1,910.173,-206.896)" >
			<tspan x="0" y="0" class="txt3">SERVICES</tspan>
		</text>
		<text id="CONTACT " style="transform: matrix(1,0,0,1,1009.213,-206.896)" >
			<tspan x="0" y="0" class="txt3" dx="0 0 0 0 0 0 0" >CONTACT</tspan>
		</text>
		<text id="JOIN " style="transform: matrix(1,0,0,1,1103.789,-206.896)" >
			<tspan x="0" y="0" class="txt3">JOIN</tspan>
		</text>
		<path id="Path 9" class="shp4" d="M882.59 443.41C882.59 443.41 844.22 420.01 862.37 397.01C880.85 373.58 904.57 388.11 897.04 358.33C889.51 328.56 901.47 318.21 924.19 316.1C946.9 313.99 933.05 278.38 954.58 281.16C976.12 283.95 975.09 303.83 962.68 324.65C950.26 345.47 974.78 347.04 963.97 369.04C949.26 398.96 930.11 388.35 938.17 420.22C946.31 452.41 910.14 461.39 882.59 443.41Z" />
		<path id="Path 10" class="shp5" d="M802.7 239.65L668.57 216.49L685.23 120.02L819.35 143.18L802.7 239.65Z" />
		<path id="Path 11" class="shp6" d="M686.61 121.5L743.28 183.8L817.56 144.11M738.87 178.96L670.36 215.57M801.32 238.18L749 180.66" />
		<path id="Path 12" class="shp7" d="M478.79 277.25C478.79 277.25 422.92 257.27 408.41 184.11C447.21 207.61 470.99 246.21 470.99 246.21C470.99 246.21 440.38 209.34 451.55 144.15C497.98 194.7 492.3 247.99 478.79 277.25ZM861.46 248.19C872.95 230.18 898.48 184.57 911.66 117.25C871.58 154.95 839.99 249.98 839.99 249.98C839.99 249.98 852.23 196.79 832.17 142.42C802.75 215.95 831.06 294.33 831.06 294.33C831.06 294.33 908.75 263.03 935.99 190.5C903.01 195.12 873.56 231.31 861.46 248.19Z" />
		<path id="Path 13" class="shp4" d="M307.96 447.86C307.96 447.86 272.54 464.86 248.19 431.21C223.84 397.56 264.65 387.31 229.88 361.71C195.1 336.1 232.03 322.58 219.27 293.74C206.52 264.89 222.57 261.36 232.54 262.96C242.51 264.56 248.41 297.53 270.37 298.39C292.32 299.26 310.76 327.55 301.72 350.84C292.68 374.13 329.04 362.99 340.47 393.87C354.31 431.23 307.96 447.86 307.96 447.86Z" />
		<path id="Path 14" class="shp8" d="M515.21 195.56C512.98 178.23 500.71 133.83 520.29 88.59C545.22 127.56 530.49 204.36 530.49 204.36C530.49 204.36 539.94 160.72 573.71 127.45C569.91 192.13 521.66 240.3 521.66 240.3C521.66 240.3 470.54 180.33 475.63 117.15C498.43 132.05 512.13 178.85 515.21 195.56Z" />
		<path id="Path 15" class="shp9" d="M280.21 298.56L316.37 277.56C308.71 273.03 300.73 269.61 298.7 256.64L276.29 270.59L280.21 298.56ZM276.14 269.51L298.52 255.56C298.3 253.81 298.18 251.89 298.18 249.78C298.18 240.3 297.17 231.55 295.12 224.09L271.67 237.63L276.14 269.51ZM301.62 451.37C339.18 446.16 365.16 415.76 340.81 387.1L296.26 413.09L301.62 451.37ZM285.41 335.69L332.19 308.42C332.15 306.61 332.07 304.75 331.91 302.77C330.71 287.89 324.28 282.36 317.35 278.15L280.36 299.63L285.41 335.69ZM296.11 412.02L340.14 386.34C339.35 385.44 338.53 384.54 337.64 383.65C325.36 371.37 321.99 363.54 322.38 356.1L291.03 375.76L296.11 412.02ZM228.53 412.72C225.87 451.46 286.91 452.1 286.91 452.1C291.6 452.29 296.19 452.07 300.63 451.51L297.96 432.44L228.53 412.72ZM290.87 374.67L322.5 354.85C323.68 343.85 332.51 333.17 332.21 309.57L285.56 336.76L290.87 374.67ZM292.4 392.79L241.77 379.75C236.23 387.04 230.57 396.31 228.73 410.37C228.67 410.83 228.66 411.26 228.62 411.71L297.81 431.35L292.4 392.79ZM268.39 221.45L246.83 215.18C246.11 223.84 251.87 234.7 253.59 245.1L272.47 250.6L268.39 221.45ZM272.63 251.69L253.77 246.2C254.83 253.9 253.43 261.3 245.23 267.28C242.88 268.99 240.69 270.73 238.67 272.48L277.13 283.8L272.63 251.69ZM265.4 200.15C262.72 200.64 259.88 201.5 256.85 202.81C250.36 205.62 247.65 209.56 246.97 214.17L268.24 220.36L265.4 200.15ZM294.84 223.1C290.26 207.42 280.91 197.81 266.39 199.97L271.52 236.56L294.84 223.1ZM277.28 284.89L237.79 273.26C228.34 281.68 222.78 290.65 222.6 300.75L281.71 316.49L277.28 284.89ZM287.31 356.43L249.68 346.09C260.04 360.34 251.61 367.02 242.43 378.88L292.25 391.72L287.31 356.43ZM281.86 317.57L222.62 301.79C222.82 312.46 228.97 324.39 242.84 338.26C245.19 340.61 247.08 342.75 248.66 344.77L287.16 355.35L281.86 317.57Z" />
		<path id="Path 16" class="shp4" d="M340.81 387.1C340.59 386.85 340.36 386.59 340.14 386.34L296.11 412.02L291.03 375.76L322.38 356.1C322.4 355.68 322.45 355.27 322.5 354.85L290.87 374.67L285.56 336.76L332.21 309.57C332.21 309.19 332.2 308.81 332.19 308.42L285.41 335.69L280.36 299.63L317.35 278.15C317.03 277.95 316.7 277.75 316.37 277.56L280.21 298.56L276.29 270.59L298.69 256.64C298.64 256.28 298.57 255.94 298.52 255.56L276.14 269.51L271.67 237.63L295.12 224.09C295.03 223.75 294.94 223.43 294.84 223.1L271.52 236.56L266.39 199.98C266.06 200.02 265.73 200.09 265.4 200.15L268.23 220.36L246.97 214.17C246.92 214.51 246.86 214.84 246.83 215.18L268.39 221.45L272.47 250.6L253.59 245.1C253.65 245.47 253.72 245.83 253.77 246.2L272.63 251.69L277.13 283.8L238.67 272.48C238.37 272.74 238.08 273 237.79 273.26L277.28 284.89L281.71 316.49L222.6 300.75C222.6 301.09 222.61 301.44 222.62 301.79L281.86 317.57L287.15 355.35L248.65 344.77C249 345.21 249.37 345.66 249.68 346.09L287.31 356.43L292.25 391.72L242.43 378.88C242.21 379.17 241.99 379.46 241.77 379.75L292.4 392.79L297.81 431.35L228.62 411.71C228.58 412.05 228.56 412.39 228.53 412.72L297.96 432.44L300.63 451.51C300.97 451.47 301.29 451.41 301.62 451.37L296.26 413.09L340.81 387.1Z" />
		<path id="Path 17" class="shp10" d="M905.35 221.22C897.81 220.15 889.53 225.27 884.77 246.15L898.83 257.63L905.35 221.22ZM919.77 237.86C919.84 233.42 919.33 229.87 917.34 227.89C914.51 225.05 910.57 222.3 906.33 221.4L902.32 243.78L919.77 237.86ZM896.73 275L918.93 267.48C917.61 257.68 919.48 246.98 919.75 238.92L902.12 244.9L896.73 275ZM936.93 295.93L890.14 311.79L884.97 340.67L941.89 321.38C942.66 312.36 941 303.31 936.93 295.93ZM890.34 310.67L936.43 295.04C934.38 291.56 931.78 288.48 928.62 286C922.8 281.42 920.15 275.19 919.09 268.48L896.53 276.13L890.34 310.67ZM892.48 293.05L866.81 272.08C858.58 277.9 850.08 282.35 846.91 291.81L886.86 324.44L892.48 293.05ZM898.62 258.75L884.52 247.23C884.5 247.32 884.48 247.39 884.47 247.48C881.86 259.71 874.94 266.22 867.66 271.48L892.68 291.92L898.62 258.75ZM868.01 435.4L865.39 449.98C875.35 452.3 918.77 460 929.56 421.27C930.25 418.79 930.69 416.41 930.93 414.12L868.03 435.45L868.01 435.4ZM881.16 356.26L851.81 332.28C852.45 344.19 846.94 349.7 840.28 355.04L876.14 384.33L881.16 356.26ZM868.2 434.34L931.02 413.04C931.91 402.15 928.22 393.48 924.12 386.2L873.76 403.27L868.2 434.34ZM886.66 325.57L846.61 292.86C844.95 298.73 845.25 306.46 848.77 317.47C850.44 322.69 851.34 327.08 851.68 330.88L881.37 355.13L886.66 325.57ZM870.58 415.34L822.17 375.8C820.32 380.57 819.18 386.46 819.18 394.03C819.18 398.94 819.67 403.39 820.52 407.49L865.42 444.17L870.58 415.34ZM820.86 409.06C828.9 443.21 863.33 449.46 863.33 449.46C863.33 449.46 863.73 449.57 864.42 449.75L865.22 445.3L820.86 409.06ZM875.93 385.46L839.48 355.68C833.4 360.48 826.56 365.37 822.57 374.84L870.78 414.22L875.93 385.46ZM873.96 402.15L923.62 385.31C917.76 375.11 911.53 367.59 917.07 360.3L879.15 373.16L873.96 402.15ZM879.35 372.04L918.39 358.8C919.47 357.71 920.81 356.62 922.51 355.52C933.98 348.09 940.38 335.39 941.78 322.47L884.77 341.8L879.35 372.04Z" />
		<path id="Path 18" class="shp11" d="M890.14 311.79L936.93 295.93C936.76 295.64 936.6 295.34 936.43 295.04L890.34 310.67L896.53 276.13L919.09 268.48C919.04 268.15 918.98 267.82 918.93 267.48L896.73 275L902.12 244.9L919.75 238.92C919.76 238.57 919.77 238.21 919.77 237.86L902.32 243.78L906.33 221.4C906 221.33 905.68 221.27 905.35 221.22L898.83 257.63L884.77 246.15C884.69 246.51 884.6 246.86 884.52 247.24L898.62 258.75L892.68 291.92L867.66 271.48C867.38 271.68 867.1 271.88 866.81 272.08L892.48 293.05L886.86 324.44L846.91 291.81C846.8 292.14 846.71 292.51 846.61 292.86L886.66 325.57L881.36 355.13L851.68 330.88C851.72 331.34 851.78 331.83 851.81 332.28L881.16 356.26L876.14 384.33L840.27 355.04C840.01 355.25 839.75 355.47 839.48 355.68L875.93 385.46L870.78 414.22L822.57 374.84C822.44 375.16 822.29 375.46 822.17 375.8L870.58 415.34L865.42 444.17L820.51 407.49C820.62 408.02 820.74 408.55 820.86 409.07L865.22 445.3L864.42 449.75C864.7 449.82 865.02 449.89 865.39 449.98L868.01 435.4L868.02 435.45L930.93 414.13C930.97 413.76 931 413.4 931.02 413.04L868.2 434.34L873.76 403.27L924.12 386.2C923.96 385.9 923.79 385.61 923.62 385.31L873.96 402.15L879.15 373.16L917.07 360.31C917.45 359.8 917.89 359.3 918.39 358.8L879.35 372.04L884.77 341.8L941.78 322.47C941.82 322.1 941.85 321.74 941.89 321.38L884.97 340.67L890.14 311.79Z" />
		<path id="Path 19" class="shp4" d="M831.52 452.22L470.79 452.22L470.79 192.76L831.52 192.76L831.52 452.22Z" />
		<path id="Path 20" class="shp6" d="M475.05 195.99L651.16 333.15L827.26 195.99M637.47 322.48L475.05 448.98M827.26 448.98L664.67 322.35" />
		<path id="Path 21" class="shp12" d="M804.82 285.37L885.95 285.37C889.78 285.37 892.89 288.48 892.89 292.32L892.89 445.22C892.89 449.06 889.78 452.17 885.95 452.17L804.82 452.17C800.99 452.17 797.87 449.06 797.87 445.22L797.87 292.32C797.87 288.48 800.99 285.37 804.82 285.37Z" />
		<path id="Path 22" class="shp7" d="M889.73 439.13L801.03 439.13L801.03 298.41L889.73 298.41L889.73 439.13Z" />
		<path id="Path 23" class="shp13" d="M434.45 307.68L434.45 274.59L418.67 270.34L418.67 296.34L358.23 296.34L358.23 270.34L342.45 274.59L342.45 307.68C342.45 307.68 285.07 355.64 285.07 401.48L285.07 438.51L388.45 438.51L491.83 438.51L491.83 401.48C491.83 355.64 434.45 307.68 434.45 307.68Z" />
		<path id="Path 24" class="shp4" d="M343.05 364.44C343.05 389.52 363.38 409.84 388.45 409.84C413.52 409.84 433.85 389.52 433.85 364.44C433.85 339.37 413.52 319.05 388.45 319.05C363.38 319.05 343.05 339.37 343.05 364.44Z" />
		<path id="Path 25" class="shp14" d="M388.45 253.42C232.1 253.42 250.28 305.89 250.28 305.89L315.21 305.89C315.21 272.64 388.45 272.64 388.45 272.64C388.45 272.64 461.69 272.64 461.69 305.89L526.62 305.89C526.62 305.89 544.8 253.42 388.45 253.42Z" />
		<path id="Path 26" class="shp15" d="M250.18 323.46L315.45 323.46C317.88 323.46 319.85 321.49 319.85 319.06L319.85 306.01C319.85 303.58 317.88 301.61 315.45 301.61L250.18 301.61C247.75 301.61 245.78 303.58 245.78 306.01L245.78 319.06C245.78 321.49 247.75 323.46 250.18 323.46ZM461.46 323.46L526.72 323.46C529.15 323.46 531.12 321.49 531.12 319.06L531.12 306.01C531.12 303.58 529.15 301.61 526.72 301.61L461.46 301.61C459.03 301.61 457.05 303.58 457.05 306.01L457.05 319.06C457.05 321.49 459.03 323.46 461.46 323.46Z" />
		<path id="Path 27" class="shp7" d="M363.79 364.44C363.79 378.06 374.83 389.1 388.45 389.1C402.07 389.1 413.11 378.06 413.11 364.44C413.11 350.83 402.07 339.79 388.45 339.79C374.83 339.79 363.79 350.83 363.79 364.44Z" />
		<path id="Path 28" class="shp12" d="M354.35 358.81C351.24 358.81 348.72 361.33 348.72 364.44C348.72 367.55 351.24 370.08 354.35 370.08C357.46 370.08 359.99 367.55 359.99 364.44C359.99 361.33 357.46 358.81 354.35 358.81Z" />
		<path id="Path 29" class="shp7" d="M358.71 382.05C356.32 384.05 356.01 387.6 358.01 389.98C360.01 392.37 363.57 392.68 365.95 390.68C368.33 388.68 368.65 385.12 366.65 382.74C364.65 380.36 361.09 380.05 358.71 382.05ZM376.98 397.05C376.44 400.11 378.49 403.03 381.55 403.57C384.62 404.11 387.54 402.07 388.08 399C388.62 395.94 386.57 393.01 383.51 392.48C380.44 391.93 377.52 393.98 376.98 397.05ZM400.62 396.79C402.18 399.49 405.62 400.41 408.32 398.85C411.01 397.3 411.93 393.85 410.38 391.16C408.82 388.46 405.38 387.54 402.68 389.09C399.99 390.65 399.06 394.09 400.62 396.79Z" />
		<path id="Path 30" class="shp12" d="M418.56 381.4C421.49 382.46 424.72 380.96 425.79 378.03C426.85 375.11 425.34 371.87 422.42 370.81C419.49 369.75 416.26 371.25 415.2 374.18C414.13 377.1 415.64 380.34 418.56 381.4ZM422.42 358.08C425.34 357.01 426.85 353.78 425.79 350.85C424.72 347.93 421.49 346.42 418.56 347.49C415.64 348.55 414.13 351.78 415.2 354.71C416.26 357.63 419.49 359.14 422.42 358.08ZM358.71 382.05C356.32 384.05 356.01 387.6 358.01 389.98C360.01 392.37 363.57 392.68 365.95 390.68C368.33 388.68 368.65 385.12 366.65 382.74C364.65 380.36 361.09 380.05 358.71 382.05ZM410.38 337.73C411.93 335.03 411.01 331.59 408.32 330.03C405.62 328.48 402.17 329.4 400.62 332.1C399.06 334.79 399.99 338.24 402.68 339.79C405.38 341.35 408.82 340.43 410.38 337.73ZM376.98 397.05C376.44 400.11 378.49 403.03 381.55 403.57C384.62 404.11 387.54 402.07 388.08 399C388.62 395.94 386.57 393.01 383.51 392.48C380.44 391.93 377.52 393.98 376.98 397.05ZM388.08 329.89C387.54 326.82 384.62 324.77 381.55 325.32C378.49 325.86 376.44 328.78 376.98 331.84C377.52 334.91 380.44 336.95 383.51 336.41C386.57 335.87 388.62 332.95 388.08 329.89ZM400.62 396.79C402.18 399.49 405.62 400.41 408.32 398.85C411.01 397.3 411.93 393.85 410.38 391.16C408.82 388.46 405.38 387.54 402.68 389.09C399.99 390.65 399.06 394.09 400.62 396.79ZM365.95 338.21C363.57 336.21 360.01 336.52 358.01 338.91C356.01 341.29 356.33 344.84 358.71 346.84C361.09 348.84 364.65 348.53 366.65 346.15C368.65 343.76 368.34 340.21 365.95 338.21Z" />
		<path id="Path 31" class="shp15" d="M284.85 452.17L492.05 452.17C493.18 452.17 494.09 451.26 494.09 450.13L494.09 426.89C494.09 425.77 493.18 424.85 492.05 424.85L284.85 424.85C283.73 424.85 282.81 425.77 282.81 426.89L282.81 450.13C282.81 451.26 283.73 452.17 284.85 452.17Z" />
		<path id="Path 32" class="shp16" d="M845.89 358.14C845.89 358.14 834.34 359.1 831.79 370.39C829.24 381.68 830.97 389.15 830.97 389.15L860.81 389.15C860.81 389.15 864.3 358.14 845.89 358.14Z" />
		<path id="Path 33" class="shp17" d="M852.62 396.52L846.11 396.52L845.5 396.52L838.99 396.52C838.99 396.52 815.9 398.18 815.9 439.13L845.5 439.13L846.11 439.13L875.71 439.13C875.71 398.18 852.62 396.52 852.62 396.52Z" />
		<path id="Path 34" class="shp13" d="M830.4 415.07L821.54 410.53C821.54 410.53 824.27 397.39 835.45 397.39C835.45 397.39 836.11 407.31 830.4 415.07ZM861.3 415.07L870.16 410.53C870.16 410.53 867.44 397.39 856.25 397.39C856.25 397.39 855.59 407.31 861.3 415.07Z" />
		<path id="Path 35" class="shp4" d="M856.5 398.47L856.23 397.39L853 396.13L854.7 415.76C850.12 414.9 841.23 414.77 837.14 416.13L838.69 396.13L835.46 397.39L833.99 403.2C832.65 407.21 831.47 411.17 829.8 415.07C828.89 417.2 827.72 419.22 826.95 421.41C825.26 426.21 826.88 433.35 829.92 437.65C830.29 438.17 830.68 438.7 831.15 439.13L860.7 439.13C861.05 439.13 862.98 435.95 863.15 435.62C868.64 425.06 863.74 420.44 860.71 412.4C859 407.85 857.69 403.17 856.5 398.47Z" />
		<path id="Path 36" class="shp17" d="M845.84 403.67C849.79 403.67 853 400.47 853 396.52L853 384.59L838.69 384.59L838.69 396.52C838.69 400.47 841.89 403.67 845.84 403.67ZM834.33 373.59C834.33 373.59 830.43 373.19 830.43 377.16C830.43 381.13 835.45 381.53 835.45 381.53L834.33 373.59ZM857.35 373.59C857.35 373.59 861.26 373.19 861.26 377.16C861.26 381.13 856.23 381.53 856.23 381.53L857.35 373.59Z" />
		<path id="Path 37" class="shp18" d="M845.84 391.72C852.25 391.72 857.49 386.48 857.49 380.07L857.49 373.58C857.49 367.18 852.25 361.93 845.84 361.93C839.43 361.93 834.19 367.18 834.19 373.58L834.19 380.07C834.19 386.48 839.43 391.72 845.84 391.72Z" />
		<path id="Path 38" class="shp16" d="M842.7 384.22C842.7 384.22 844.43 383.13 845.84 384.44C847.3 383.09 848.91 384.3 848.91 384.3C848.91 384.3 848.13 386.15 845.91 386.15C843.17 386.15 842.7 384.22 842.7 384.22Z" />
		<path id="Path 39" class="shp19" d="M840 377.07C840 377.9 840.4 378.57 840.9 378.57C841.4 378.57 841.8 377.9 841.8 377.07C841.8 376.25 841.4 375.58 840.9 375.58C840.4 375.58 840 376.25 840 377.07ZM849.88 377.11C849.88 377.93 850.29 378.6 850.79 378.6C851.29 378.6 851.69 377.93 851.69 377.11C851.69 376.28 851.29 375.61 850.79 375.61C850.29 375.61 849.88 376.28 849.88 377.11Z" />
		<path id="Path 40" class="shp20" d="M841.86 383.7C841.86 383.7 842.96 384.97 845.84 384.97C848.72 384.97 849.98 383.7 849.98 383.7" />
		<path id="Path 41" class="shp17" d="M845.84 376.95C845.84 376.95 842.67 382.58 845.84 382.58C849 382.58 845.84 376.95 845.84 376.95Z" />
		<path id="Path 42" class="shp20" d="M839.54 374.43C839.54 374.43 840.49 373.33 842.25 373.61M852.17 374.44C852.17 374.44 851.22 373.34 849.46 373.63" />
		<path id="Path 43" class="shp17" d="M834.83 381.53C834.83 383.43 836.37 384.97 838.27 384.97C840.17 384.97 841.71 383.43 841.71 381.53C841.71 379.63 840.17 378.09 838.27 378.09C836.37 378.09 834.83 379.63 834.83 381.53ZM850.13 381.53C850.13 383.43 851.68 384.97 853.57 384.97C855.47 384.97 857.01 383.43 857.01 381.53C857.01 379.63 855.47 378.09 853.57 378.09C851.68 378.09 850.13 379.63 850.13 381.53Z" />
		<path id="Path 44" class="shp20" d="M831.79 375.77C831.79 375.77 833.53 375.8 833.53 378.23C832.55 379.21 833.53 379.77 833.53 379.77M859.82 375.77C859.82 375.77 858.08 375.8 858.08 378.23C859.06 379.21 858.08 379.77 858.08 379.77M844.6 381.95C844.6 381.95 845.03 382.58 845.84 382.58C846.64 382.58 847.07 381.95 847.07 381.95" />
		<path id="Path 45" class="shp21" d="M832.42 374.61C832.42 374.61 831.99 359.28 845.85 359.28C859.71 359.28 859.12 374.7 859.12 374.7L860.78 374.7C860.78 374.7 862.21 357.4 845.81 357.4C829.41 357.4 831.02 374.61 831.02 374.61L832.42 374.61ZM832.87 381.34C832.87 381.34 829.83 381.36 829.83 377.47C829.83 373.58 832.78 373.55 832.78 373.55L832.87 381.34ZM858.74 381.34C858.74 381.34 861.78 381.36 861.78 377.47C861.78 373.58 858.83 373.55 858.83 373.55L858.74 381.34ZM853.46 386.89C853.34 386.78 853.34 386.59 853.46 386.48L859.76 380.17C859.88 380.06 860.06 380.06 860.18 380.17C860.29 380.28 860.29 380.47 860.18 380.58L853.87 386.89C853.75 387.01 853.57 387.01 853.46 386.89ZM854.35 387.12L853.45 388.01C853.19 388.28 852.76 388.28 852.49 388.01L852.33 387.85C852.07 387.59 852.07 387.16 852.33 386.9L853.23 386C853.49 385.74 853.93 385.74 854.19 386L854.35 386.16C854.61 386.42 854.61 386.85 854.35 387.12Z" />
		<path id="Path 46" class="shp16" d="M833.89 373.58C833.89 373.58 841.55 374.12 845.81 364.45C850.13 374.27 858.08 373.65 858.08 373.65C858.08 373.65 857.82 359.9 845.81 359.9C833.79 359.9 833.89 373.58 833.89 373.58Z" />
		<path id="Path 47" class="shp12" d="M862.65 428.27L850.43 428.27L850.43 421.04L862.65 421.04L862.65 428.27Z" />
		<path id="Path 48" class="shp7" d="M856.54 422.04C856.71 422.04 856.86 421.9 856.86 421.73L856.86 420.36C856.86 420.19 856.71 420.04 856.54 420.04C856.37 420.04 856.23 420.19 856.23 420.36L856.23 421.73C856.23 421.9 856.37 422.04 856.54 422.04Z" />
		<path id="Path 49" class="shp22" d="M352.88 239.78C352.88 239.78 356.35 235.6 377.6 241.1L398.56 241.1C398.56 241.1 415.67 233.76 422.47 239.68C389.02 252.93 387.19 253.35 387.19 253.35L352.88 239.78Z" />
		<path id="Path 50" class="shp18" d="M383.17 201.56C383.17 201.56 369.89 205.32 362 217.71C354.11 230.1 363.6 237.35 374.14 242.58C374.76 239.82 374.48 240.1 374.48 240.1C374.48 240.1 364.76 230.46 365.49 225.78C365.49 225.78 383.17 210.46 383.17 201.56ZM392.67 201.56C392.67 201.56 405.95 205.32 413.84 217.71C421.73 230.1 412.24 237.35 401.7 242.58C401.08 239.82 401.36 240.1 401.36 240.1C401.36 240.1 411.08 230.46 410.35 225.78C410.35 225.78 392.67 210.46 392.67 201.56Z" />
		<path id="Path 51" class="shp16" d="M365.2 213.44C365.2 213.44 365.49 217.88 371.13 220.42C378.56 216.77 383.71 207.1 383.71 201.01C376.96 200.36 366.1 210.3 365.2 213.44ZM410.5 213.44C410.5 213.44 410.22 217.88 404.57 220.42C397.15 216.77 391.99 207.1 391.99 201.01C398.74 200.36 409.6 210.3 410.5 213.44ZM403.01 215.42C406.44 209.23 398.65 204.55 395.23 202.66C393.19 201.54 390.88 201.01 388.55 201.01L387.15 201.01C384.82 201.01 382.51 201.54 380.47 202.66C377.05 204.55 369.25 209.24 372.69 215.42C376.2 221.72 376.53 233.48 375.37 241.11L399.46 241.11C398.29 233.98 398.79 223.04 403.01 215.42Z" />
		<path id="Path 52" class="shp22" d="M399.46 241.11L375.37 241.11C374.78 244.98 373.82 247.81 372.69 248.27L386.18 255.24L387.15 255.24L388.55 255.24L389.52 255.24L403.01 248.27C401.52 248.41 400.18 245.47 399.46 241.11Z" />
		<path id="Path 53" class="shp17" d="M387.85 205.88C390.14 205.88 391.99 204.03 391.99 201.74L391.99 194.84L383.71 194.84L383.71 201.74C383.71 204.03 385.57 205.88 387.85 205.88ZM381.19 188.48C381.19 188.48 378.94 188.25 378.94 190.54C378.94 192.84 381.84 193.07 381.84 193.07L381.19 188.48ZM394.51 188.48C394.51 188.48 396.76 188.25 396.76 190.54C396.76 192.84 393.86 193.07 393.86 193.07L394.51 188.48Z" />
		<path id="Path 54" class="shp18" d="M387.85 198.97C391.56 198.97 394.59 195.94 394.59 192.23L394.59 188.48C394.59 184.77 391.56 181.74 387.85 181.74C384.15 181.74 381.11 184.77 381.11 188.48L381.11 192.23C381.11 195.94 384.15 198.97 387.85 198.97Z" />
		<path id="Path 55" class="shp21" d="M403.32 248L371.13 248L371.13 228.13L403.32 228.13L403.32 248Z" />
		<path id="Path 56" class="shp22" d="M400.7 259.89C400.7 259.89 359.93 231 352.36 240.22C343.17 251.42 398.74 264.19 398.74 264.19L400.7 259.89ZM374.8 259.89C374.8 259.89 414.92 231.58 423.15 240.22C433.28 250.86 376.63 264.19 376.63 264.19L374.8 259.89Z" />
		<path id="Path 57" class="shp21" d="M374.8 259.89C374.8 259.89 367.59 258.92 367.59 261.93C367.59 264.95 376.63 264.19 376.63 264.19L374.8 259.89ZM400.57 259.89C400.57 259.89 407.78 258.92 407.78 261.93C407.78 264.95 398.74 264.19 398.74 264.19L400.57 259.89Z" />
		<path id="Path 58" class="shp19" d="M384.47 190.42C384.47 190.92 384.71 191.32 385.01 191.32C385.3 191.32 385.55 190.92 385.55 190.42C385.55 189.93 385.3 189.53 385.01 189.53C384.71 189.53 384.47 189.93 384.47 190.42ZM390.17 190.42C390.17 190.92 390.41 191.32 390.71 191.32C391.01 191.32 391.25 190.92 391.25 190.42C391.25 189.93 391.01 189.53 390.71 189.53C390.41 189.53 390.17 189.93 390.17 190.42Z" />
		<path id="Path 59" class="shp20" d="M385.55 194.33C385.55 194.33 386.18 195.06 387.85 195.06C389.51 195.06 390.25 194.33 390.25 194.33" />
		<path id="Path 60" class="shp17" d="M387.85 193.68L387.85 190.42C387.85 190.42 385.33 193.68 387.85 193.68Z" />
		<path id="Path 61" class="shp20" d="M384.21 188.97C384.21 188.97 384.76 188.33 385.78 188.5M391.51 188.98C391.51 188.98 390.96 188.34 389.94 188.51" />
		<path id="Path 62" class="shp17" d="M381.48 193.07C381.48 194.17 382.37 195.06 383.47 195.06C384.57 195.06 385.46 194.17 385.46 193.07C385.46 191.97 384.57 191.09 383.47 191.09C382.37 191.09 381.48 191.97 381.48 193.07ZM390.33 193.07C390.33 194.17 391.22 195.06 392.32 195.06C393.42 195.06 394.31 194.17 394.31 193.07C394.31 191.97 393.42 191.09 392.32 191.09C391.22 191.09 390.33 191.97 390.33 193.07Z" />
		<path id="Path 63" class="shp23" d="M387.85 179.27C387.85 179.27 382.29 179.11 380.42 184.3C378.55 189.5 381.48 191.32 381.48 191.32C381.48 191.32 381.88 187.42 384.99 185.58C385.91 187.98 388.14 188.48 388.14 188.48C388.14 188.48 391.35 187.7 392.15 184.54C393.46 187.38 394.9 190.78 394.9 190.78C394.9 190.78 396.14 189.56 395.62 186.22C395.1 182.88 393.07 179.27 387.85 179.27Z" />
		<path id="Path 64" class="shp21" d="M380.16 188.93C380.16 188.93 379.92 180.15 387.86 180.15C395.79 180.15 395.45 188.98 395.45 188.98L396.41 188.98C396.41 188.98 397.22 179.07 387.83 179.07C378.44 179.07 379.36 188.93 379.36 188.93L380.16 188.93ZM380.42 192.78C380.42 192.78 378.68 192.8 378.68 190.57C378.68 188.34 380.37 188.32 380.37 188.32L380.42 192.78ZM395.24 192.78C395.24 192.78 396.98 192.8 396.98 190.57C396.98 188.34 395.29 188.32 395.29 188.32L395.24 192.78ZM392.21 195.97C392.15 195.9 392.15 195.79 392.21 195.73L395.83 192.12C395.89 192.05 396 192.05 396.06 192.12C396.13 192.18 396.13 192.29 396.06 192.35L392.45 195.97C392.38 196.03 392.28 196.03 392.21 195.97ZM392.72 196.09L392.21 196.61C392.06 196.76 391.81 196.76 391.66 196.61L391.57 196.52C391.42 196.37 391.42 196.12 391.57 195.97L392.08 195.45C392.23 195.3 392.48 195.3 392.63 195.45L392.72 195.55C392.88 195.7 392.88 195.94 392.72 196.09Z" />
		<path id="Path 65" class="shp7" d="M770.03 121.38C770.03 121.38 764.67 121.53 763.15 125.48C761.62 129.43 762.26 132.22 760.68 136.02C759.55 138.75 759.75 142.45 764.56 143.72C769.37 144.98 777.65 144.39 779.29 140.62C780.93 136.85 777.28 134.28 777.5 131.3C777.73 128.31 777.02 121.38 770.03 121.38Z" />
		<path id="Path 66" class="shp24" d="M781.2 181.16C781.07 180.47 780.97 179.83 780.9 179.27L743.32 178.12C732 178.12 749.88 214.53 754.27 223.46C754.27 223.46 753.42 233.78 755.97 232.83C760.04 231.31 760.38 220.59 758.45 215.04C758.23 214.42 758.01 213.79 757.88 213.14C756.36 205.66 754.96 198.73 753.42 193.03C757.51 194 762.39 194.28 766.91 194.28C778.13 194.28 782.64 189.4 781.2 181.16Z" />
		<path id="Path 67" class="shp16" d="M784.23 155.14C787.44 149.33 780.13 144.93 776.91 143.16C775 142.1 772.83 141.61 770.65 141.61L769.33 141.61C767.14 141.61 764.97 142.1 763.06 143.16C759.84 144.93 752.51 149.34 755.75 155.14C759.05 161.06 759.35 172.11 758.27 179.27L780.89 179.27C779.79 172.58 780.26 162.3 784.23 155.14Z" />
		<path id="Path 68" class="shp25" d="M748.03 156.24C740.61 167.87 749.53 171.7 759.42 176.61C760 174.03 759.75 174.28 759.75 174.28C759.75 174.28 753.37 167.62 751.3 163.82C751.3 163.82 752.98 162.37 755.26 160.12L749.8 153.74C749.19 154.54 748.59 155.36 748.03 156.24Z" />
		<path id="Path 69" class="shp16" d="M767.91 141.07C767.91 141.07 757.27 144.11 749.8 153.74L755.26 160.12C760.18 155.29 767.91 146.78 767.91 141.07Z" />
		<path id="Path 70" class="shp25" d="M793.51 162.33C792.64 160.04 791.56 157.97 790.38 156.11L784.45 162.84C786.78 166.49 788.76 169.09 788.76 169.09C786.72 172.55 778.36 177.6 778.36 177.6C778.36 177.6 778.15 177.3 778.2 179.95C788.89 177.16 798.39 175.24 793.51 162.33Z" />
		<path id="Path 71" class="shp16" d="M777.14 143.43C776.09 148.46 780.73 157 784.45 162.84L790.38 156.11C784.9 147.49 777.14 143.43 777.14 143.43Z" />
		<path id="Path 72" class="shp17" d="M769.99 146.18C772.13 146.18 773.87 144.44 773.87 142.29L773.87 135.82L766.1 135.82L766.1 142.29C766.1 144.44 767.84 146.18 769.99 146.18ZM763.73 129.84C763.73 129.84 761.61 129.62 761.61 131.78C761.61 133.94 764.35 134.16 764.35 134.16L763.73 129.84ZM776.24 129.84C776.24 129.84 778.36 129.62 778.36 131.78C778.36 133.94 775.63 134.16 775.63 134.16L776.24 129.84Z" />
		<path id="Path 73" class="shp25" d="M769.99 139.69C773.47 139.69 776.31 136.84 776.31 133.36L776.31 129.84C776.31 126.36 773.47 123.51 769.99 123.51C766.51 123.51 763.66 126.36 763.66 129.84L763.66 133.36C763.66 136.84 766.51 139.69 769.99 139.69Z" />
		<path id="Path 74" class="shp21" d="M778.77 180.14L748.54 180.14L748.54 161.47L778.77 161.47L778.77 180.14ZM768.28 135.61C768.28 135.61 769.22 135.03 769.98 135.74C770.78 135 771.65 135.66 771.65 135.66C771.65 135.66 771.23 136.66 770.02 136.66C768.53 136.66 768.28 135.61 768.28 135.61ZM766.81 131.67C766.81 132.13 767.03 132.5 767.32 132.5C767.6 132.5 767.82 132.13 767.82 131.67C767.82 131.2 767.6 130.83 767.32 130.83C767.03 130.83 766.81 131.2 766.81 131.67ZM772.17 131.67C772.17 132.13 772.39 132.5 772.67 132.5C772.95 132.5 773.18 132.13 773.18 131.67C773.18 131.2 772.95 130.83 772.67 130.83C772.39 130.83 772.17 131.2 772.17 131.67Z" />
		<path id="Path 75" class="shp20" d="M767.82 135.33C767.82 135.33 768.42 136.02 769.98 136.02C771.55 136.02 772.24 135.33 772.24 135.33" />
		<path id="Path 76" class="shp17" d="M769.98 134.73L769.98 131.66C769.98 131.66 767.62 134.73 769.98 134.73Z" />
		<path id="Path 77" class="shp26" d="M754.17 226.21C754.17 226.21 754.08 228.29 755.46 228.52C759.19 229.15 756.61 218.52 759.3 218.74C760.39 227.54 758.02 231.95 756.02 233.07C754.03 234.18 753.54 231.49 754.17 226.21Z" />
		<path id="Path 78" class="shp27" d="M753.61 221.29L759.58 218.85L758.41 214.45L751.52 217.13L753.61 221.29Z" />
		<path id="Path 79" class="shp20" d="M766.57 130.3C766.57 130.3 767.08 129.7 768.04 129.85M773.42 130.31C773.42 130.31 772.91 129.71 771.95 129.86" />
		<path id="Path 80" class="shp17" d="M764.01 134.15C764.01 135.19 764.84 136.02 765.88 136.02C766.91 136.02 767.74 135.19 767.74 134.15C767.74 133.12 766.91 132.28 765.88 132.28C764.84 132.28 764.01 133.12 764.01 134.15ZM772.32 134.15C772.32 135.19 773.15 136.02 774.19 136.02C775.22 136.02 776.05 135.19 776.05 134.15C776.05 133.12 775.22 132.28 774.19 132.28C773.15 132.28 772.32 133.12 772.32 134.15Z" />
		<path id="Path 81" class="shp22" d="M781.2 181.16C777.14 178.94 768.45 178.02 762.65 177.75C760.15 177.63 757.74 178.9 756.53 181.09C750.67 191.73 748.26 222.6 748.26 222.6C748.26 222.6 742.15 231.32 744.89 231.59C749.51 232.03 754.35 222.35 756.47 216.03C759.33 207.89 762 200.39 763.67 194.22C776.75 196.54 782.52 192.33 781.2 181.16Z" />
		<path id="Path 82" class="shp26" d="M746.85 224.81C746.85 224.81 745.76 226.58 746.85 227.45C749.81 229.81 752.81 219.33 755.06 220.82C751.73 229.04 747.42 231.69 745.14 231.69C742.85 231.69 743.73 229.11 746.85 224.81Z" />
		<path id="Path 83" class="shp21" d="M762.7 130.38C762.7 130.38 762.46 122.06 769.99 122.06C777.52 122.06 777.2 130.43 777.2 130.43L778.1 130.43C778.1 130.43 778.87 121.03 769.97 121.03C761.06 121.03 761.93 130.38 761.93 130.38L762.7 130.38ZM762.94 134.04C762.94 134.04 761.29 134.05 761.29 131.93C761.29 129.82 762.89 129.8 762.89 129.8L762.94 134.04ZM776.99 134.04C776.99 134.04 778.65 134.05 778.65 131.93C778.65 129.82 777.04 129.8 777.04 129.8L776.99 134.04ZM774.12 137.05C774.06 136.99 774.06 136.89 774.12 136.83L777.55 133.4C777.61 133.34 777.71 133.34 777.77 133.4C777.83 133.47 777.83 133.57 777.77 133.63L774.35 137.05C774.29 137.12 774.18 137.12 774.12 137.05ZM774.61 137.18L774.12 137.66C773.98 137.81 773.74 137.81 773.6 137.66L773.51 137.58C773.37 137.43 773.37 137.2 773.51 137.05L774 136.57C774.15 136.43 774.38 136.43 774.52 136.57L774.61 136.66C774.75 136.8 774.75 137.03 774.61 137.18Z" />
		<path id="Path 84" class="shp7" d="M763.28 129.85C763.28 129.85 768.74 130.66 773.42 125.26C775.12 129.62 776.33 129.9 776.68 129.9C777.04 129.9 776.19 122.65 769.89 122.65C763.59 122.65 763.28 129.85 763.28 129.85Z" />
		<path id="Path 85" class="shp27" d="M748.08 221.74L754.41 222.95L755.82 218.62L748.58 217.12L748.08 221.74Z" />
		<path id="Path 86" class="shp23" d="M748.57 126.54L753.8 131.77L753.8 124.56M751.54 127.03L736.83 127.03C733.24 127.03 730.32 124.11 730.32 120.53L730.32 115.43C730.32 111.85 733.24 108.93 736.83 108.93L751.54 108.93C755.12 108.93 758.04 111.85 758.04 115.43L758.04 120.53C758.04 124.11 755.12 127.03 751.54 127.03Z" />
		<path id="Path 87" class="shp12" d="M736.37 118.05C736.37 118.84 737.01 119.48 737.79 119.48C738.58 119.48 739.22 118.84 739.22 118.05C739.22 117.26 738.58 116.62 737.79 116.62C737.01 116.62 736.37 117.26 736.37 118.05ZM749.14 118.05C749.14 118.84 749.78 119.48 750.57 119.48C751.35 119.48 752 118.84 752 118.05C752 117.26 751.35 116.62 750.57 116.62C749.78 116.62 749.14 117.26 749.14 118.05ZM742.75 118.05C742.75 118.84 743.39 119.48 744.18 119.48C744.97 119.48 745.61 118.84 745.61 118.05C745.61 117.26 744.97 116.62 744.18 116.62C743.39 116.62 742.75 117.26 742.75 118.05Z" />
		<path id="Path 88" class="shp24" d="M565.7 317.42C565.7 317.42 577.36 314.95 585.02 333.8C591.97 323.67 594.09 319.31 594.09 319.31L596.75 320.75C596.75 320.75 592.68 341.7 586.55 341.7C580.42 341.7 571.23 332.51 571.23 332.51L565.7 317.42ZM557.14 317.51C557.14 317.51 543.45 316.7 537.32 344.89C531.19 373.09 531.79 380.45 531.79 380.45L535.07 380.45C535.07 380.45 553.93 333.39 557.14 317.51ZM577.78 334.27C577.78 314.65 566.95 317.51 557.14 317.51C547.33 317.51 547.74 334.27 547.74 334.27L545.83 367.73L577.78 367.73L577.78 334.27Z" />
		<path id="Path 89" class="shp16" d="M545.83 367.73L541.2 448.49L548.49 448.49L562.05 380.86L570.01 448.49L577.3 448.49L577.78 367.73L545.83 367.73Z" />
		<path id="Path 90" class="shp21" d="M577.78 448.49C577.78 448.49 581.97 447.98 586.16 452.17L570.22 452.17L570.02 448.49L577.78 448.49ZM540.72 448.49C540.72 448.49 536.53 447.98 532.34 452.17L548.28 452.17L548.49 448.49L540.72 448.49Z" />
		<path id="Path 91" class="shp7" d="M558.61 316.32L562.76 322.69C562.76 322.69 559.35 325.19 557.16 321.88C554.98 318.57 558.61 316.32 558.61 316.32ZM566.88 316.32L562.76 322.69C562.76 322.69 566.14 325.19 568.32 321.88C570.51 318.57 566.88 316.32 566.88 316.32Z" />
		<path id="Path 92" class="shp18" d="M556.13 303.75C556.13 303.75 553.94 303.52 553.94 305.82C553.94 308.11 556.76 308.35 556.76 308.35L556.13 303.75ZM569.39 303.75C569.39 303.75 571.58 303.52 571.58 305.82C571.58 308.11 568.75 308.35 568.75 308.35L569.39 303.75Z" />
		<path id="Path 93" class="shp17" d="M562.76 322.69C560.47 322.69 558.62 320.83 558.62 318.55L558.62 311.65L566.89 311.65L566.89 318.55C566.89 320.83 565.04 322.69 562.76 322.69Z" />
		<path id="Path 94" class="shp18" d="M562.76 314.68C559.05 314.68 556.02 311.65 556.02 307.94L556.02 302.63C556.02 298.92 559.05 295.89 562.76 295.89C566.46 295.89 569.49 298.92 569.49 302.63L569.49 307.94C569.49 311.65 566.46 314.68 562.76 314.68Z" />
		<path id="Path 95" class="shp22" d="M556.02 307.16C556.02 307.16 557.41 303.94 557.41 298.85C561.63 301.51 568.26 298.87 568.26 298.87C568.26 298.87 567.97 304.46 569.49 307.16C571.84 302.21 570.93 294.11 562.76 294.11C554.58 294.11 553.79 302.17 556.02 307.16Z" />
		<path id="Path 96" class="shp18" d="M535.15 379.86C535.15 379.86 536.27 385.99 535.33 386.6C534.54 387.07 534.14 383.23 534.14 383.23C534.14 383.23 533.35 386.78 533.17 388.58C532.99 390.38 530.79 390.1 530.25 386.64C529.71 383.18 532.16 379.9 532.16 379.9L535.15 379.86ZM593.98 319.62C593.98 319.62 595.34 313.54 596.44 313.34C597.35 313.22 596.22 316.91 596.22 316.91C596.22 316.91 598.34 313.95 599.21 312.36C600.07 310.77 601.99 311.9 601.14 315.29C600.28 318.69 596.75 320.75 596.75 320.75L593.98 319.62Z" />
		<path id="Path 97" class="shp19" d="M559.35 305.48C559.35 305.97 559.59 306.37 559.89 306.37C560.19 306.37 560.43 305.97 560.43 305.48C560.43 304.98 560.19 304.58 559.89 304.58C559.59 304.58 559.35 304.98 559.35 305.48ZM565.06 305.48C565.06 305.97 565.3 306.37 565.6 306.37C565.89 306.37 566.13 305.97 566.13 305.48C566.13 304.98 565.89 304.58 565.6 304.58C565.3 304.58 565.06 304.98 565.06 305.48Z" />
		<path id="Path 98" class="shp20" d="M560.43 309.38C560.43 309.38 561.07 310.12 562.73 310.12C564.4 310.12 565.13 309.38 565.13 309.38" />
		<path id="Path 99" class="shp17" d="M562.73 308.74L562.73 305.47C562.73 305.47 560.22 308.74 562.73 308.74Z" />
		<path id="Path 100" class="shp20" d="M559.09 304.02C559.09 304.02 559.64 303.38 560.66 303.55M566.39 304.03C566.39 304.03 565.84 303.39 564.83 303.56" />
		<path id="Path 101" class="shp17" d="M556.37 308.13C556.37 309.23 557.26 310.12 558.36 310.12C559.45 310.12 560.34 309.23 560.34 308.13C560.34 307.03 559.45 306.14 558.36 306.14C557.26 306.14 556.37 307.03 556.37 308.13ZM565.22 308.13C565.22 309.23 566.11 310.12 567.21 310.12C568.31 310.12 569.2 309.23 569.2 308.13C569.2 307.03 568.31 306.14 567.21 306.14C566.11 306.14 565.22 307.03 565.22 308.13Z" />
		<path id="Path 102" class="shp7" d="M545.95 365.52L577.78 365.52L577.78 367.81L545.83 367.81L545.95 365.52Z" />
		<path id="Path 103" class="shp21" d="M555.09 304.27C555.09 304.27 554.84 295.49 562.78 295.49C570.72 295.49 570.38 304.32 570.38 304.32L571.33 304.32C571.33 304.32 572.15 294.42 562.76 294.42C553.36 294.42 554.29 304.27 554.29 304.27L555.09 304.27ZM555.35 308.13C555.35 308.13 553.61 308.14 553.61 305.91C553.61 303.68 555.3 303.66 555.3 303.66L555.35 308.13ZM570.16 308.13C570.16 308.13 571.91 308.14 571.91 305.91C571.91 303.68 570.21 303.66 570.21 303.66L570.16 308.13ZM567.14 311.31C567.07 311.24 567.07 311.14 567.14 311.07L570.75 307.46C570.82 307.39 570.92 307.39 570.99 307.46C571.05 307.52 571.05 307.63 570.99 307.69L567.37 311.31C567.31 311.37 567.2 311.37 567.14 311.31ZM567.65 311.44L567.13 311.95C566.98 312.1 566.74 312.1 566.59 311.95L566.49 311.86C566.34 311.71 566.34 311.46 566.49 311.31L567.01 310.8C567.16 310.64 567.4 310.64 567.56 310.8L567.65 310.89C567.8 311.04 567.8 311.29 567.65 311.44Z" />
		<path id="Path 104" class="shp23" d="M583.1 291.56L577.87 296.79L577.87 289.58M580.13 292.06L594.84 292.06C598.42 292.06 601.35 289.13 601.35 285.55L601.35 280.45C601.35 276.88 598.42 273.95 594.84 273.95L580.13 273.95C576.55 273.95 573.62 276.88 573.62 280.45L573.62 285.55C573.62 289.13 576.55 292.06 580.13 292.06Z" />
		<path id="Path 105" class="shp12" d="M595.3 283.07C595.3 283.86 594.66 284.5 593.87 284.5C593.08 284.5 592.44 283.86 592.44 283.07C592.44 282.28 593.08 281.64 593.87 281.64C594.66 281.64 595.3 282.28 595.3 283.07ZM582.53 283.07C582.53 283.86 581.89 284.5 581.1 284.5C580.31 284.5 579.67 283.86 579.67 283.07C579.67 282.28 580.31 281.64 581.1 281.64C581.89 281.64 582.53 282.28 582.53 283.07ZM588.91 283.07C588.91 283.86 588.27 284.5 587.49 284.5C586.7 284.5 586.06 283.86 586.06 283.07C586.06 282.28 586.7 281.64 587.49 281.64C588.27 281.64 588.91 282.28 588.91 283.07Z" />
		<path id="Path 106" class="shp28" d="M562.76 322.69L562.76 365.24" />
		<path id="Path 107" class="shp6" d="M560.66 368.01L564.85 368.01L564.85 365.24L560.66 365.24L560.66 368.01Z" />
		<path id="Path 108" class="shp23" d="M826.01 329.84C826.01 340.74 834.84 349.57 845.74 349.57C856.64 349.57 865.47 340.74 865.47 329.84C865.47 318.95 856.64 310.12 845.74 310.12C834.84 310.12 826.01 318.95 826.01 329.84Z" />
		<path id="Path 109" class="shp9" d="M647.19 206.95L566.24 221.86L555.51 163.64L636.46 148.72L647.19 206.95Z" />
		<path id="Path 110" class="shp6" d="M556.6 164.19L601.79 187.68L635.64 149.62M598.28 185.86L567.06 220.96M646.1 206.4L604.38 184.7" />
		<text id="24/7 " style="transform: matrix(1,0,0,1,831.685,335.575)" >
			<tspan x="0" y="0" class="txt29">24/7</tspan>
		</text>
		<path id="Path 112" class="shp6" d="M530.17 366.63L532.26 366.63" />
		<path id="Path 113" class="shp30" d="M218.74 452.17L967.25 452.17" />
		<text id="Lorem ipsum dolor sit amet, cons" style="transform: matrix(1,0,0,1,227.713,-41.569)" >
			<tspan x="0" y="0" class="txt31">Lorem ipsum dolor sit amet, consectetur adipiscing elit, sed do </tspan>
		</text>
		<text id="eiusmod tempor incididunt ut lab" style="transform: matrix(1,0,0,1,237.613,-27.169)" >
			<tspan x="0" y="0" class="txt31">eiusmod tempor incididunt ut labore et dolore magna aliqua.</tspan>
		</text>
		<text id="CONTACT US " style="transform: matrix(1,0,0,1,266.046,-75.703)" >
			<tspan x="0" y="0" class="txt32">CONTACT US</tspan>
		</text>
		<path id="Path 117" class="shp12" d="M968.03 -102.39L620.42 -102.39L620.42 -120.29L968.03 -120.29L968.03 -102.39Z" />
		<text id="NAME " style="transform: matrix(1,0,0,1,626.021,-106.863)" >
			<tspan x="0" y="0" class="txt33">NAME</tspan>
		</text>
		<path id="Path 119" class="shp12" d="M968.03 -80.1L620.42 -80.1L620.42 -98L968.03 -98L968.03 -80.1Z" />
		<text id="E-MAIL " style="transform: matrix(1,0,0,1,625.279,-84.572)" >
			<tspan x="0" y="0" class="txt33">E-MAIL</tspan>
		</text>
		<path id="Path 121" class="shp12" d="M968.03 -27.48L620.42 -27.48L620.42 -75.7L968.03 -75.7L968.03 -27.48Z" />
		<text id="MESSAGE " style="transform: matrix(1,0,0,1,626.021,-61.086)" >
			<tspan x="0" y="0" class="txt33">MESSAGE</tspan>
		</text>
		<path id="Path 123" class="shp10" d="M663.77 51.58C655.79 51.58 649.32 45.11 649.32 37.13C649.32 29.14 655.79 22.67 663.77 22.67C671.75 22.67 678.22 29.14 678.22 37.13C678.22 45.11 671.75 51.58 663.77 51.58Z" />
		<path id="Path 124" fill-rule="evenodd" class="shp12" d="M666.02 39.3C666.44 39.3 666.78 39.21 667.07 39.03C667.35 38.85 667.58 38.61 667.75 38.31C667.92 38.01 668.04 37.66 668.12 37.26C668.2 36.87 668.23 36.44 668.23 35.99C668.23 35.58 668.19 35.16 668.08 34.73C667.98 34.29 667.79 33.9 667.51 33.55C667.22 33.2 666.82 32.92 666.3 32.69C665.79 32.47 665.12 32.36 664.3 32.36C663.49 32.36 662.78 32.48 662.15 32.74C661.53 32.99 661 33.34 660.56 33.8C660.12 34.26 659.78 34.82 659.55 35.47C659.33 36.11 659.21 36.84 659.21 37.63C659.21 38.35 659.32 38.98 659.55 39.5C659.77 40.02 660.08 40.45 660.48 40.79C660.88 41.12 661.34 41.37 661.87 41.53C662.4 41.69 662.97 41.77 663.59 41.77L664.22 41.75C664.42 41.75 664.56 41.81 664.67 41.92C664.77 42.04 664.82 42.17 664.82 42.31C664.81 42.45 664.75 42.58 664.63 42.7C664.51 42.81 664.32 42.87 664.07 42.87L663.62 42.87C662.91 42.87 662.21 42.77 661.54 42.58C660.87 42.39 660.27 42.09 659.74 41.68C659.22 41.27 658.8 40.74 658.48 40.09C658.17 39.44 658.01 38.65 658.01 37.73C658.01 36.8 658.15 35.94 658.42 35.15C658.7 34.36 659.11 33.67 659.65 33.09C660.19 32.52 660.85 32.07 661.63 31.74C662.42 31.42 663.31 31.25 664.32 31.25C665.26 31.25 666.05 31.39 666.69 31.65C667.34 31.91 667.86 32.26 668.26 32.69C668.66 33.13 668.95 33.63 669.13 34.2C669.31 34.78 669.39 35.37 669.39 35.99C669.39 36.59 669.33 37.15 669.19 37.68C669.05 38.21 668.83 38.67 668.54 39.07C668.25 39.48 667.88 39.79 667.44 40.03C667 40.26 666.47 40.38 665.86 40.38C665.74 40.38 665.62 40.37 665.49 40.36C665.36 40.34 665.24 40.31 665.13 40.25C665.01 40.19 664.91 40.1 664.82 39.98C664.73 39.86 664.66 39.7 664.62 39.5L664.54 39.48C664.48 39.57 664.41 39.67 664.31 39.77C664.21 39.87 664.1 39.96 663.96 40.05C663.82 40.13 663.66 40.21 663.49 40.26C663.31 40.32 663.12 40.35 662.91 40.35C662.61 40.35 662.33 40.3 662.07 40.2C661.81 40.1 661.57 39.94 661.37 39.73C661.17 39.51 661.02 39.24 660.9 38.9C660.79 38.57 660.73 38.17 660.73 37.71C660.73 37.07 660.83 36.51 661.02 36.03C661.21 35.55 661.46 35.14 661.77 34.82C662.08 34.5 662.44 34.25 662.84 34.08C663.24 33.92 663.65 33.83 664.08 33.83C664.44 33.83 664.77 33.89 665.07 34C665.36 34.11 665.61 34.26 665.81 34.45C666.02 34.65 666.16 34.88 666.26 35.15C666.35 35.42 666.39 35.71 666.36 36.04L666.02 39.3ZM663.39 39.02C663.53 39.02 663.66 38.99 663.78 38.93C663.9 38.87 664.02 38.8 664.13 38.72C664.24 38.63 664.34 38.54 664.43 38.45C664.51 38.36 664.58 38.28 664.64 38.22L664.85 36.22C664.89 35.93 664.84 35.68 664.69 35.48C664.54 35.28 664.3 35.18 663.97 35.18C663.51 35.18 663.16 35.37 662.91 35.76C662.67 36.14 662.52 36.7 662.45 37.43C662.4 37.91 662.45 38.3 662.6 38.59C662.75 38.87 663.01 39.02 663.39 39.02Z" />
		<path id="Path 125" class="shp10" d="M628.38 51.58C620.4 51.58 613.93 45.11 613.93 37.13C613.93 29.14 620.4 22.67 628.38 22.67C636.37 22.67 642.84 29.14 642.84 37.13C642.84 45.11 636.37 51.58 628.38 51.58Z" />
		<path id="Path 126" class="shp12" d="M622.72 40.7C623.75 41.36 624.97 41.74 626.28 41.74C630.6 41.74 633.04 38.1 632.89 34.83C633.34 34.5 633.74 34.09 634.05 33.63C633.63 33.81 633.18 33.94 632.71 33.99C633.19 33.7 633.56 33.25 633.74 32.71C633.29 32.97 632.79 33.17 632.26 33.27C631.84 32.82 631.23 32.54 630.56 32.54C629.06 32.54 627.96 33.94 628.3 35.39C626.37 35.29 624.65 34.37 623.51 32.96C622.9 34.01 623.19 35.37 624.23 36.07C623.85 36.05 623.49 35.95 623.18 35.77C623.15 36.85 623.92 37.86 625.04 38.08C624.71 38.17 624.35 38.19 623.99 38.12C624.28 39.05 625.14 39.72 626.16 39.74C625.18 40.5 623.95 40.85 622.72 40.7Z" />
		<path id="Path 127" class="shp10" d="M557.62 51.58C549.63 51.58 543.16 45.11 543.16 37.13C543.16 29.14 549.63 22.67 557.62 22.67C565.6 22.67 572.07 29.14 572.07 37.13C572.07 45.11 565.6 51.58 557.62 51.58Z" />
		<path id="Path 128" class="shp12" d="M556.18 42.75L558.47 42.75L558.47 37.01L560.07 37.01L560.24 35.09L558.47 35.09L558.47 34C558.47 33.55 558.56 33.37 559 33.37L560.24 33.37L560.24 31.38L558.66 31.38C556.95 31.38 556.18 32.13 556.18 33.56L556.18 35.09L554.99 35.09L554.99 37.04L556.18 37.04L556.18 42.75Z" />
		<path id="Path 129" class="shp10" d="M593 51.58C585.02 51.58 578.55 45.11 578.55 37.13C578.55 29.14 585.02 22.67 593 22.67C600.98 22.67 607.46 29.14 607.46 37.13C607.46 45.11 600.98 51.58 593 51.58Z" />
		<path id="Path 130" fill-rule="evenodd" class="shp12" d="M595.46 31.21C596.1 31.24 596.53 31.34 596.91 31.49C597.3 31.64 597.63 31.84 597.96 32.18C598.3 32.51 598.5 32.84 598.65 33.23C598.8 33.61 598.9 34.05 598.93 34.68C598.96 35.32 598.97 35.52 598.97 37.14C598.97 38.76 598.96 38.96 598.93 39.6C598.9 40.24 598.8 40.67 598.65 41.05C598.5 41.44 598.3 41.77 597.96 42.11C597.63 42.44 597.3 42.64 596.91 42.79C596.53 42.94 596.1 43.04 595.46 43.07C594.82 43.1 594.62 43.11 593 43.11C591.38 43.11 591.18 43.1 590.54 43.07C589.91 43.04 589.47 42.94 589.09 42.79C588.7 42.64 588.37 42.44 588.04 42.11C587.7 41.77 587.5 41.44 587.35 41.05C587.2 40.67 587.1 40.24 587.07 39.6C587.04 38.96 587.03 38.76 587.03 37.14C587.03 35.52 587.04 35.32 587.07 34.68C587.1 34.05 587.2 33.61 587.35 33.23C587.5 32.84 587.7 32.51 588.04 32.18C588.37 31.84 588.7 31.64 589.09 31.49C589.47 31.34 589.91 31.24 590.54 31.21C591.18 31.18 591.38 31.17 593 31.17C594.62 31.17 594.82 31.18 595.46 31.21ZM590.59 32.28C590.01 32.31 589.69 32.41 589.48 32.49C589.2 32.6 589 32.73 588.8 32.94C588.59 33.14 588.46 33.34 588.35 33.62C588.27 33.83 588.17 34.15 588.14 34.73C588.12 35.36 588.11 35.55 588.11 37.14C588.11 38.73 588.12 38.92 588.14 39.55C588.17 40.13 588.27 40.45 588.35 40.66C588.46 40.94 588.59 41.14 588.8 41.35C589 41.55 589.2 41.68 589.48 41.79C589.69 41.87 590.01 41.97 590.59 42C591.22 42.03 591.41 42.03 593 42.03C594.59 42.03 594.78 42.03 595.41 42C595.99 41.97 596.31 41.87 596.52 41.79C596.8 41.68 597 41.55 597.21 41.35C597.41 41.14 597.54 40.94 597.65 40.66C597.73 40.45 597.83 40.13 597.86 39.55C597.88 38.92 597.89 38.73 597.89 37.14C597.89 35.55 597.88 35.36 597.86 34.73C597.83 34.15 597.73 33.83 597.65 33.62C597.54 33.34 597.41 33.14 597.21 32.94C597 32.73 596.8 32.6 596.52 32.49C596.31 32.41 595.99 32.31 595.41 32.28C594.78 32.26 594.59 32.25 593 32.25C591.41 32.25 591.22 32.26 590.59 32.28Z" />
		<path id="Path 131" fill-rule="evenodd" class="shp12" d="M596.06 37.14C596.06 38.83 594.69 40.2 593 40.2C591.31 40.2 589.94 38.83 589.94 37.14C589.94 35.45 591.31 34.08 593 34.08C594.69 34.08 596.06 35.45 596.06 37.14ZM594.99 37.14C594.99 36.04 594.1 35.15 593 35.15C591.9 35.15 591.01 36.04 591.01 37.14C591.01 38.24 591.9 39.13 593 39.13C594.1 39.13 594.99 38.24 594.99 37.14ZM596.9 33.96C596.9 34.35 596.58 34.67 596.19 34.67C595.79 34.67 595.47 34.35 595.47 33.96C595.47 33.56 595.79 33.24 596.19 33.24C596.58 33.24 596.9 33.56 596.9 33.96Z" />
		<path id="Path 132" class="shp10" d="M522.23 51.58C514.25 51.58 507.78 45.11 507.78 37.13C507.78 29.14 514.25 22.67 522.23 22.67C530.21 22.67 536.69 29.14 536.69 37.13C536.69 45.11 530.21 51.58 522.23 51.58Z" />
		<path id="Path 133" fill-rule="evenodd" class="shp12" d="M528.74 36.99C528.74 40.15 526.16 42.71 522.98 42.71C521.97 42.71 521.02 42.45 520.2 41.99L517.01 43.01L518.04 39.94C517.52 39.08 517.22 38.07 517.22 36.99C517.22 36.91 517.22 36.82 517.23 36.74C517.36 33.7 519.88 31.27 522.98 31.27C526.11 31.27 528.66 33.75 528.73 36.84C528.74 36.89 528.74 36.94 528.74 36.99ZM527.82 36.99C527.82 36.86 527.81 36.74 527.8 36.62C527.61 34.14 525.52 32.19 522.98 32.19C520.47 32.19 518.4 34.09 518.16 36.52C518.14 36.68 518.14 36.83 518.14 36.99C518.14 38.04 518.48 39.01 519.06 39.81L518.45 41.59L520.31 41C521.08 41.5 521.99 41.79 522.98 41.79C525.65 41.79 527.82 39.64 527.82 36.99ZM525.89 38.31C525.92 38.36 525.92 38.65 525.8 38.97C525.69 39.3 525.11 39.62 524.85 39.64C524.59 39.66 524.59 39.85 523.16 39.29C521.72 38.73 520.82 37.27 520.75 37.17C520.69 37.1 520.38 36.7 520.24 36.2C520.2 36.05 520.17 35.89 520.17 35.73C520.17 35.04 520.53 34.7 520.66 34.56C520.79 34.42 520.95 34.38 521.04 34.38C521.13 34.38 521.23 34.39 521.31 34.39C521.39 34.39 521.51 34.35 521.63 34.63C521.75 34.91 522.03 35.6 522.06 35.67C522.1 35.74 522.12 35.82 522.08 35.91C522.04 35.98 522.02 36.03 521.99 36.08C521.97 36.1 521.95 36.12 521.94 36.15C521.86 36.23 521.79 36.33 521.72 36.39C521.65 36.46 521.58 36.54 521.66 36.68C521.74 36.82 522.03 37.28 522.45 37.64C522.98 38.13 523.44 38.27 523.58 38.34C523.72 38.41 523.8 38.4 523.89 38.31C523.97 38.21 524.24 37.9 524.33 37.76C524.43 37.62 524.52 37.64 524.65 37.69C524.78 37.73 525.48 38.07 525.62 38.14C525.76 38.21 525.85 38.25 525.89 38.31Z" />
		<path id="Path 134" class="shp34" d="M613.21 577.09C612.34 577.98 611.6 578.95 610.99 580L610.06 579.52C609.93 578.92 609.36 578.51 608.74 578.58C608.08 578.66 607.61 579.26 607.68 579.92C607.76 580.58 608.36 581.06 609.02 580.98C609.16 580.97 609.28 580.93 609.39 580.88L610.29 581.34C609.79 582.45 609.43 583.62 609.22 584.83L610.71 585.09C611.17 582.48 612.41 580.08 614.29 578.15L613.21 577.09ZM624.18 572.49C623.84 572.49 623.5 572.5 623.16 572.52L623.02 571.27C623.39 570.97 623.61 570.49 623.55 569.98C623.46 569.19 622.74 568.63 621.96 568.72C621.17 568.82 620.61 569.53 620.7 570.31C620.76 570.82 621.08 571.24 621.51 571.44L621.66 572.69C620.23 572.92 618.85 573.35 617.54 573.98L618.19 575.35C620.06 574.45 622.08 574 624.18 574C625.18 574 626.17 574.11 627.14 574.32L627.46 572.84C626.39 572.61 625.29 572.49 624.18 572.49ZM637.39 577.58C638.05 577.5 638.52 576.9 638.44 576.24C638.36 575.57 637.76 575.11 637.1 575.19C636.48 575.26 636.02 575.79 636.03 576.4L635.2 577.13C634.37 576.27 633.42 575.5 632.39 574.85L631.58 576.13C633.85 577.56 635.62 579.59 636.71 581.98L638.09 581.36C637.59 580.25 636.95 579.21 636.2 578.27L637.01 577.57C637.13 577.59 637.26 577.6 637.39 577.58ZM623.09 592.9C622.32 592.95 621.54 592.97 620.78 592.97C619.01 592.97 617.31 592.85 615.82 592.61C615.04 592.49 614.13 592.3 613.28 592.03C615.37 595.75 619.42 598.28 624.05 598.28C629.77 598.28 634.58 594.45 635.95 589.27C634.59 590.17 632.94 590.92 631.04 591.52C628.68 592.25 625.93 592.73 623.09 592.9Z" />
		<path id="Path 135" fill-rule="evenodd" class="shp34" d="M636.25 585.91C636.3 586.29 636.33 586.68 636.34 587.07C633.59 589.48 628.75 591.04 622.99 591.39C617.71 591.71 613.65 590.89 612.3 589.93C612.12 589.1 612.03 588.26 612.03 587.41C612.03 580.85 617.48 575.52 624.18 575.52C630.3 575.52 635.49 579.99 636.25 585.91ZM623.56 584.85C623.56 582.81 621.9 581.15 619.87 581.15C617.83 581.15 616.17 582.81 616.17 584.85C616.17 586.89 617.83 588.55 619.87 588.55C621.9 588.55 623.56 586.89 623.56 584.85ZM632.06 584.01C632.06 582.51 630.84 581.29 629.34 581.29C627.84 581.29 626.62 582.51 626.62 584.01C626.62 585.51 627.84 586.73 629.34 586.73C630.84 586.73 632.06 585.51 632.06 584.01ZM656.19 579.25C655.6 579.02 654.58 578.64 653.42 578.78C652.32 578.92 651.74 579.46 651.74 580.79L651.74 582.52L656.19 582.52L656.19 585.96L651.74 585.96L651.74 596.87L647.87 596.87L647.87 585.96L645.19 585.96L645.19 582.52L647.87 582.52L647.87 580.75C647.87 577.39 649.66 575.18 653.01 575.18C654.3 575.18 655.32 575.43 656.19 575.8L656.19 579.25ZM665.6 585.92C665.24 585.86 664.88 585.82 664.54 585.82C662.75 585.82 661.52 586.92 661.52 589.05L661.52 596.87L657.66 596.87L657.66 582.52L661.41 582.52L661.41 584.09C662.31 582.75 663.69 582.14 665.45 582.14C666.28 582.14 667.14 582.39 667.64 582.81L665.6 585.92Z" />
		<path id="Path 136" fill-rule="evenodd" class="shp34" d="M680.93 589.67C680.93 590.12 680.9 590.65 680.85 590.98L670.69 590.98C671.1 593.05 672.55 593.95 674.37 593.95C675.62 593.95 676.96 593.45 678 592.58L680.26 595.06C678.64 596.56 676.56 597.24 674.15 597.24C669.75 597.24 666.7 594.25 666.7 589.73C666.7 585.22 669.66 582.14 673.96 582.14C678.09 582.14 680.91 585.2 680.93 589.67ZM670.7 588.34L677.05 588.34C676.7 586.51 675.58 585.47 673.93 585.47C672.11 585.47 671.04 586.56 670.7 588.34ZM696.24 589.67C696.24 590.12 696.21 590.65 696.16 590.98L685.99 590.98C686.41 593.05 687.86 593.95 689.68 593.95C690.92 593.95 692.27 593.45 693.31 592.58L695.57 595.06C693.94 596.56 691.87 597.24 689.46 597.24C685.06 597.24 682.01 594.25 682.01 589.73C682.01 585.22 684.97 582.14 689.27 582.14C693.39 582.14 696.22 585.2 696.24 589.67ZM686.01 588.34L692.36 588.34C692 586.51 690.89 585.47 689.24 585.47C687.41 585.47 686.35 586.56 686.01 588.34ZM712.93 589.69C712.93 594 709.94 597.24 705.99 597.24C704.06 597.24 702.7 596.48 701.77 595.37L701.77 602.79L697.92 602.79L697.92 582.52L701.69 582.52L701.69 584.11C702.62 582.94 704 582.14 705.97 582.14C709.94 582.14 712.93 585.38 712.93 589.69ZM701.57 589.69C701.57 591.95 703.07 593.64 705.26 593.64C707.54 593.64 708.96 591.88 708.96 589.69C708.96 587.5 707.54 585.74 705.26 585.74C703.07 585.74 701.57 587.42 701.57 589.69ZM718.62 596.87L714.75 596.87L714.75 582.52L718.62 582.52L718.62 596.87ZM719.13 577.83C719.13 579.22 718.05 580.29 716.66 580.29C715.27 580.29 714.2 579.22 714.2 577.83C714.2 576.44 715.27 575.35 716.66 575.35C718.05 575.35 719.13 576.44 719.13 577.83ZM725.06 587.63L730.47 582.52L735.2 582.52L728.25 589.27L735.25 596.87L730.5 596.87L725.06 591.07L725.06 596.87L721.2 596.87L721.2 575.55L725.06 575.55L725.06 587.63ZM461.82 596.74L461.82 594.63C460.77 596.06 459.04 597.09 457.05 597.09C453.36 597.09 450.75 594.28 450.75 589.68C450.75 585.17 453.33 582.24 457.05 582.24C458.95 582.24 460.68 583.17 461.82 584.73L461.82 577.2L464.02 577.2L464.02 596.74L461.82 596.74ZM461.82 592.9L461.82 586.48C461.03 585.25 459.33 584.2 457.58 584.2C454.73 584.2 453.03 586.54 453.03 589.68C453.03 592.81 454.73 595.13 457.58 595.13C459.33 595.13 461.03 594.13 461.82 592.9Z" />
		<path id="Path 137" fill-rule="evenodd" class="shp34" d="M466.86 589.65C466.86 585.55 469.79 582.24 473.84 582.24C478.11 582.24 480.63 585.58 480.63 589.83L480.63 590.38L469.18 590.38C469.35 593.05 471.23 595.27 474.28 595.27C475.89 595.27 477.53 594.63 478.64 593.49L479.7 594.92C478.29 596.33 476.39 597.09 474.07 597.09C469.88 597.09 466.86 594.07 466.86 589.65ZM473.81 584.05C470.79 584.05 469.3 586.6 469.18 588.77L478.47 588.77C478.44 586.66 477.03 584.05 473.81 584.05ZM482.21 594.86L483.36 593.28C484.29 594.37 486.08 595.3 488.01 595.3C490.18 595.3 491.35 594.28 491.35 592.87C491.35 589.44 482.59 591.55 482.59 586.31C482.59 584.11 484.5 582.24 487.87 582.24C490.27 582.24 491.97 583.15 493.11 584.29L492.09 585.81C491.24 584.79 489.68 584.02 487.87 584.02C485.93 584.02 484.73 584.99 484.73 586.25C484.73 589.36 493.49 587.31 493.49 592.81C493.49 595.19 491.59 597.09 487.93 597.09C485.61 597.09 483.65 596.39 482.21 594.86ZM496.33 582.59L498.53 582.59L498.53 596.74L496.33 596.74L496.33 582.59ZM495.95 579.1C495.95 578.28 496.63 577.61 497.42 577.61C498.24 577.61 498.91 578.28 498.91 579.1C498.91 579.92 498.24 580.57 497.42 580.57C496.63 580.57 495.95 579.92 495.95 579.1ZM502.16 600.37L503.28 598.73C504.45 600.14 505.86 600.66 507.88 600.66C510.22 600.66 512.42 599.52 512.42 596.42L512.42 594.39C511.39 595.83 509.66 596.91 507.67 596.91C503.98 596.91 501.37 594.16 501.37 589.59C501.37 585.05 503.95 582.24 507.67 582.24C509.58 582.24 511.28 583.17 512.42 584.73L512.42 582.59L514.61 582.59L514.61 596.33C514.61 601.02 511.33 602.48 507.88 602.48C505.47 602.48 503.83 602.01 502.16 600.37ZM512.42 592.67L512.42 586.48C511.66 585.25 509.96 584.2 508.2 584.2C505.36 584.2 503.66 586.46 503.66 589.59C503.66 592.7 505.36 594.98 508.2 594.98C509.96 594.98 511.66 593.9 512.42 592.67ZM527.83 596.74L527.83 587.48C527.83 584.99 526.57 584.2 524.66 584.2C522.93 584.2 521.29 585.25 520.47 586.4L520.47 596.74L518.28 596.74L518.28 582.59L520.47 582.59L520.47 584.64C521.47 583.47 523.4 582.24 525.51 582.24C528.47 582.24 530.02 583.73 530.02 586.81L530.02 596.74L527.83 596.74ZM532.86 589.65C532.86 585.55 535.79 582.24 539.84 582.24C544.11 582.24 546.63 585.58 546.63 589.83L546.63 590.38L535.18 590.38C535.35 593.05 537.23 595.27 540.28 595.27C541.89 595.27 543.53 594.63 544.64 593.49L545.7 594.92C544.29 596.33 542.39 597.09 540.07 597.09C535.88 597.09 532.86 594.07 532.86 589.65ZM539.81 584.05C536.79 584.05 535.3 586.6 535.18 588.77L544.47 588.77C544.44 586.66 543.03 584.05 539.81 584.05ZM559.7 596.74L559.7 594.63C558.65 596.06 556.92 597.09 554.92 597.09C551.23 597.09 548.63 594.28 548.63 589.68C548.63 585.17 551.2 582.24 554.92 582.24C556.83 582.24 558.56 583.17 559.7 584.73L559.7 577.2L561.9 577.2L561.9 596.74L559.7 596.74ZM559.7 592.9L559.7 586.48C558.91 585.25 557.21 584.2 555.45 584.2C552.61 584.2 550.91 586.54 550.91 589.68C550.91 592.81 552.61 595.13 555.45 595.13C557.21 595.13 558.91 594.13 559.7 592.9ZM572.38 596.74L572.38 577.2L574.58 577.2L574.58 584.73C575.72 583.17 577.42 582.24 579.36 582.24C583.05 582.24 585.66 585.17 585.66 589.68C585.66 594.28 583.05 597.09 579.36 597.09C577.37 597.09 575.64 596.07 574.58 594.63L574.58 596.74L572.38 596.74ZM578.8 595.13C581.67 595.13 583.37 592.81 583.37 589.68C583.37 586.54 581.67 584.2 578.8 584.2C577.07 584.2 575.34 585.25 574.58 586.49L574.58 592.9C575.34 594.13 577.07 595.13 578.8 595.13ZM588.06 600.28C588.38 600.43 588.91 600.52 589.26 600.52C590.22 600.52 590.87 600.2 591.37 599.02L592.31 596.89L586.39 582.59L588.76 582.59L593.48 594.19L598.16 582.59L600.57 582.59L593.48 599.61C592.63 601.66 591.19 602.45 589.32 602.48C588.85 602.48 588.12 602.39 587.71 602.28L588.06 600.28Z" />
	</g>
</svg>