<svg xmlns="http://www.w3.org/2000/svg" viewBox="0 0 1000 1000" width="400" height="400">
	<defs>
		<clipPath clipPathUnits="userSpaceOnUse" id="cp1">
			<path d="M0 0L1000 0L1000 1000L0 1000Z" />
		</clipPath>
	</defs>
	<style>
		tspan { white-space:pre }
		.shp0 { fill: #dcf4e7 } 
		.shp1 { fill: none;stroke: #5395a5;stroke-width: 1.088 } 
		.shp2 { fill: #83c7ca } 
		.shp3 { fill: #f4d17a } 
		.shp4 { fill: #f5d9ca } 
		.shp5 { fill: #724068 } 
		.shp6 { fill: #27498d } 
		.shp7 { fill: #1d3b6b } 
		.shp8 { fill: #315fa8 } 
		.shp9 { fill: #b27e75 } 
		.shp10 { fill: #936560 } 
		.shp11 { fill: #c5dbff } 
		.shp12 { fill: #d9efff } 
	</style>
	<g id="Page 1" clip-path="url(#cp1)">
		<path id="Path 2" class="shp0" d="M98.96 619.33L593.92 619.33C593.92 619.33 652.92 618.02 645.2 641.21C637.48 664.41 575.24 652.87 567.89 664.41C560.55 675.95 584.91 700.31 527.85 704.15C470.79 708 359.97 720.82 372.43 704.15C384.89 687.49 384.89 678.51 356.68 679.79C328.47 681.08 255.39 664.41 246.41 679.79C237.44 695.18 157.82 692.26 131.6 691.79C105.38 691.33 113.07 672.1 89.99 659.28C66.91 646.46 33.91 615.78 98.96 619.33Z" />
		<path id="Path 3" class="shp1" d="M169.72 516.02L169.72 626.31" />
		<path id="Path 4" class="shp2" d="M203.92 630.73C204.11 630.43 204.22 630.08 204.22 629.7C204.22 628.65 203.37 627.79 202.32 627.79C202.06 627.79 201.81 627.85 201.58 627.94C201.33 626.55 200.11 625.5 198.65 625.5C197.17 625.5 195.95 626.57 195.71 627.97C195.37 627.7 194.95 627.54 194.49 627.54C194.02 627.54 193.6 627.71 193.27 627.98C192.89 627.06 191.98 626.41 190.93 626.41C190.21 626.41 189.56 626.72 189.1 627.2L188.97 627.12C189.13 626.79 189.23 626.42 189.23 626.02C189.23 624.63 188.11 623.5 186.71 623.5C185.32 623.5 184.19 624.63 184.19 626.02C184.19 626.12 184.21 626.21 184.22 626.31C183.39 625.61 182.28 625.44 181.31 625.81C181.2 624.86 180.4 624.11 179.42 624.11C179.17 624.11 178.92 624.17 178.7 624.26C178.25 622.82 176.92 621.76 175.33 621.76C173.38 621.76 171.79 623.35 171.79 625.31C171.79 625.39 171.81 625.47 171.81 625.55L171.76 625.56C171.6 624.59 170.76 623.84 169.75 623.84C168.62 623.84 167.7 624.76 167.7 625.89L167.66 625.89C167.47 624.65 166.42 623.71 165.13 623.71C164.64 623.71 164.18 623.85 163.79 624.09C163.93 623.71 164.02 623.3 164.02 622.87C164.02 620.91 162.44 619.33 160.48 619.33C158.85 619.33 157.49 620.44 157.08 621.94C156.57 621.43 155.87 621.12 155.1 621.12C153.55 621.12 152.3 622.37 152.3 623.91C152.3 624.19 152.36 624.45 152.43 624.71C152.13 624.61 151.82 624.54 151.48 624.54C150.55 624.54 149.72 624.98 149.17 625.65C148.75 624.52 147.66 623.71 146.37 623.71C144.72 623.71 143.38 625.05 143.38 626.7C143.38 627.27 143.54 627.79 143.81 628.24C143.64 628.15 143.46 628.07 143.26 628.02C142.89 626.56 141.58 625.48 140 625.48C138.14 625.48 136.63 626.99 136.63 628.85C136.63 629.53 136.83 630.15 137.18 630.68C135.48 630.8 134.18 631.44 134.18 632.22C134.18 633.09 135.76 633.79 137.72 633.79L202.32 633.79L202.32 633.77C202.51 633.78 202.7 633.79 202.9 633.79C204.86 633.79 206.45 633.09 206.45 632.22C206.45 631.52 205.38 630.92 203.92 630.73ZM130.23 632.02C130.23 632.43 129.43 632.77 128.45 632.77C127.48 632.77 126.68 632.43 126.68 632.02C126.68 631.61 127.48 631.27 128.45 631.27C129.43 631.27 130.23 631.61 130.23 632.02ZM215.04 632.63C215.04 632.97 214.12 633.25 212.97 633.25C211.83 633.25 210.9 632.97 210.9 632.63C210.9 632.29 211.83 632.02 212.97 632.02C214.12 632.02 215.04 632.29 215.04 632.63Z" />
		<path id="Path 5" class="shp3" d="M170.85 463L180.83 483.24C181.13 483.84 181.7 484.26 182.37 484.35L204.7 487.6C206.37 487.84 207.04 489.89 205.83 491.07L189.67 506.82C189.19 507.29 188.97 507.96 189.08 508.63L192.9 530.87C193.18 532.53 191.44 533.8 189.94 533.01L169.97 522.51C169.38 522.2 168.67 522.2 168.07 522.51L148.1 533.01C146.6 533.8 144.86 532.53 145.14 530.87L148.96 508.63C149.07 507.96 148.85 507.29 148.37 506.82L132.21 491.07C131.01 489.89 131.67 487.84 133.34 487.6L155.68 484.35C156.34 484.26 156.91 483.84 157.21 483.24L167.2 463C167.94 461.49 170.1 461.49 170.85 463Z" />
		<path id="Path 6" class="shp1" d="M258.08 516.02L258.08 626.31" />
		<path id="Path 7" class="shp2" d="M292.28 630.73C292.47 630.43 292.58 630.08 292.58 629.7C292.58 628.65 291.73 627.79 290.68 627.79C290.42 627.79 290.17 627.85 289.94 627.94C289.69 626.55 288.47 625.5 287.01 625.5C285.53 625.5 284.31 626.57 284.07 627.97C283.73 627.7 283.31 627.54 282.85 627.54C282.38 627.54 281.96 627.71 281.63 627.98C281.25 627.06 280.34 626.41 279.29 626.41C278.57 626.41 277.92 626.72 277.46 627.2L277.33 627.12C277.5 626.79 277.59 626.42 277.59 626.02C277.59 624.63 276.47 623.5 275.07 623.5C273.68 623.5 272.55 624.63 272.55 626.02C272.55 626.12 272.57 626.21 272.58 626.31C271.75 625.61 270.64 625.44 269.67 625.81C269.56 624.86 268.76 624.11 267.78 624.11C267.53 624.11 267.28 624.17 267.06 624.26C266.61 622.82 265.28 621.76 263.69 621.76C261.74 621.76 260.15 623.35 260.15 625.31C260.15 625.39 260.17 625.47 260.18 625.55L260.12 625.56C259.96 624.59 259.12 623.84 258.11 623.84C256.98 623.84 256.06 624.76 256.06 625.89L256.02 625.89C255.83 624.65 254.78 623.71 253.49 623.71C253 623.71 252.54 623.85 252.15 624.09C252.29 623.71 252.38 623.3 252.38 622.87C252.38 620.91 250.8 619.33 248.84 619.33C247.21 619.33 245.85 620.44 245.44 621.94C244.93 621.43 244.23 621.12 243.46 621.12C241.91 621.12 240.66 622.37 240.66 623.91C240.66 624.19 240.72 624.45 240.79 624.71C240.49 624.61 240.18 624.54 239.85 624.54C238.91 624.54 238.08 624.98 237.53 625.65C237.11 624.52 236.02 623.71 234.74 623.71C233.08 623.71 231.74 625.05 231.74 626.7C231.74 627.27 231.9 627.79 232.17 628.24C232 628.15 231.82 628.07 231.62 628.02C231.25 626.56 229.94 625.48 228.36 625.48C226.5 625.48 224.99 626.99 224.99 628.85C224.99 629.53 225.19 630.15 225.54 630.68C223.84 630.8 222.54 631.44 222.54 632.22C222.54 633.09 224.12 633.79 226.08 633.79L290.68 633.79L290.68 633.77C290.87 633.78 291.06 633.79 291.26 633.79C293.22 633.79 294.81 633.09 294.81 632.22C294.81 631.52 293.74 630.92 292.28 630.73ZM218.59 632.02C218.59 632.43 217.79 632.77 216.81 632.77C215.84 632.77 215.04 632.43 215.04 632.02C215.04 631.61 215.84 631.27 216.81 631.27C217.79 631.27 218.59 631.61 218.59 632.02ZM303.4 632.63C303.4 632.97 302.48 633.25 301.33 633.25C300.19 633.25 299.26 632.97 299.26 632.63C299.26 632.29 300.19 632.02 301.33 632.02C302.48 632.02 303.4 632.29 303.4 632.63Z" />
		<path id="Path 8" class="shp3" d="M259.21 463L269.2 483.24C269.49 483.84 270.07 484.26 270.73 484.35L293.06 487.6C294.73 487.84 295.4 489.89 294.19 491.07L278.03 506.82C277.55 507.29 277.33 507.96 277.44 508.63L281.26 530.87C281.54 532.53 279.8 533.8 278.3 533.01L258.33 522.51C257.74 522.2 257.03 522.2 256.43 522.51L236.46 533.01C234.97 533.8 233.22 532.53 233.51 530.87L237.32 508.63C237.43 507.96 237.22 507.29 236.74 506.82L220.58 491.07C219.37 489.89 220.03 487.84 221.7 487.6L244.04 484.35C244.7 484.26 245.27 483.84 245.57 483.24L255.56 463C256.3 461.49 258.46 461.49 259.21 463Z" />
		<path id="Path 9" class="shp1" d="M346.44 516.02L346.44 626.31" />
		<path id="Path 10" class="shp2" d="M380.64 630.73C380.83 630.43 380.94 630.08 380.94 629.7C380.94 628.65 380.09 627.79 379.04 627.79C378.78 627.79 378.53 627.85 378.3 627.94C378.04 626.55 376.83 625.5 375.37 625.5C373.89 625.5 372.67 626.57 372.43 627.97C372.09 627.7 371.67 627.54 371.21 627.54C370.74 627.54 370.32 627.71 369.99 627.98C369.61 627.06 368.7 626.41 367.65 626.41C366.93 626.41 366.28 626.72 365.82 627.2L365.69 627.12C365.85 626.79 365.95 626.42 365.95 626.02C365.95 624.63 364.82 623.5 363.43 623.5C362.04 623.5 360.91 624.63 360.91 626.02C360.91 626.12 360.93 626.21 360.94 626.31C360.11 625.61 359 625.44 358.03 625.81C357.92 624.86 357.12 624.11 356.14 624.11C355.89 624.11 355.64 624.17 355.42 624.26C354.97 622.82 353.64 621.76 352.05 621.76C350.1 621.76 348.51 623.35 348.51 625.31C348.51 625.39 348.53 625.47 348.53 625.55L348.48 625.56C348.32 624.59 347.48 623.84 346.47 623.84C345.34 623.84 344.42 624.76 344.42 625.89L344.38 625.89C344.19 624.65 343.14 623.71 341.85 623.71C341.36 623.71 340.9 623.85 340.51 624.09C340.65 623.71 340.74 623.3 340.74 622.87C340.74 620.91 339.16 619.33 337.2 619.33C335.57 619.33 334.21 620.44 333.79 621.94C333.29 621.43 332.59 621.12 331.82 621.12C330.27 621.12 329.02 622.37 329.02 623.91C329.02 624.19 329.08 624.45 329.15 624.71C328.85 624.61 328.54 624.54 328.2 624.54C327.27 624.54 326.44 624.98 325.89 625.65C325.47 624.52 324.38 623.71 323.09 623.71C321.44 623.71 320.1 625.05 320.1 626.7C320.1 627.27 320.26 627.79 320.53 628.24C320.36 628.15 320.18 628.07 319.98 628.02C319.61 626.56 318.3 625.48 316.72 625.48C314.86 625.48 313.35 626.99 313.35 628.85C313.35 629.53 313.55 630.15 313.9 630.68C312.2 630.8 310.9 631.44 310.9 632.22C310.9 633.09 312.48 633.79 314.44 633.79L379.04 633.79L379.04 633.77C379.23 633.78 379.42 633.79 379.62 633.79C381.58 633.79 383.17 633.09 383.17 632.22C383.17 631.52 382.1 630.92 380.64 630.73ZM306.94 632.02C306.94 632.43 306.15 632.77 305.17 632.77C304.19 632.77 303.4 632.43 303.4 632.02C303.4 631.61 304.19 631.27 305.17 631.27C306.15 631.27 306.94 631.61 306.94 632.02ZM391.76 632.63C391.76 632.97 390.83 633.25 389.69 633.25C388.55 633.25 387.62 632.97 387.62 632.63C387.62 632.29 388.55 632.02 389.69 632.02C390.83 632.02 391.76 632.29 391.76 632.63Z" />
		<path id="Path 11" class="shp3" d="M347.57 463L357.55 483.24C357.85 483.84 358.42 484.26 359.09 484.35L381.42 487.6C383.09 487.84 383.76 489.89 382.55 491.07L366.39 506.82C365.91 507.29 365.69 507.96 365.8 508.63L369.62 530.87C369.9 532.53 368.16 533.8 366.66 533.01L346.69 522.51C346.1 522.2 345.39 522.2 344.79 522.51L324.82 533.01C323.32 533.8 321.58 532.53 321.86 530.87L325.68 508.63C325.79 507.96 325.57 507.29 325.09 506.82L308.93 491.07C307.73 489.89 308.39 487.84 310.06 487.6L332.4 484.35C333.06 484.26 333.63 483.84 333.93 483.24L343.92 463C344.66 461.49 346.82 461.49 347.57 463Z" />
		<path id="Path 12" class="shp1" d="M434.8 516.02L434.8 626.31" />
		<path id="Path 13" class="shp2" d="M469 630.73C469.19 630.43 469.3 630.08 469.3 629.7C469.3 628.65 468.45 627.79 467.39 627.79C467.13 627.79 466.89 627.85 466.66 627.94C466.4 626.55 465.19 625.5 463.72 625.5C462.25 625.5 461.03 626.57 460.79 627.97C460.45 627.7 460.03 627.54 459.57 627.54C459.1 627.54 458.68 627.71 458.34 627.98C457.96 627.06 457.06 626.41 456.01 626.41C455.29 626.41 454.64 626.72 454.18 627.2L454.05 627.12C454.21 626.79 454.31 626.42 454.31 626.02C454.31 624.63 453.18 623.5 451.79 623.5C450.4 623.5 449.27 624.63 449.27 626.02C449.27 626.12 449.29 626.21 449.3 626.31C448.47 625.61 447.35 625.44 446.39 625.81C446.28 624.86 445.48 624.11 444.5 624.11C444.24 624.11 444 624.17 443.78 624.26C443.33 622.82 442 621.76 440.41 621.76C438.46 621.76 436.87 623.35 436.87 625.31C436.87 625.39 436.89 625.47 436.89 625.55L436.84 625.56C436.68 624.59 435.84 623.84 434.82 623.84C433.7 623.84 432.78 624.76 432.78 625.89L432.74 625.89C432.55 624.65 431.49 623.71 430.21 623.71C429.72 623.71 429.26 623.85 428.87 624.09C429.01 623.71 429.1 623.3 429.1 622.87C429.1 620.91 427.51 619.33 425.56 619.33C423.92 619.33 422.56 620.44 422.15 621.94C421.65 621.43 420.95 621.12 420.17 621.12C418.63 621.12 417.38 622.37 417.38 623.91C417.38 624.19 417.43 624.45 417.51 624.71C417.21 624.61 416.9 624.54 416.56 624.54C415.63 624.54 414.8 624.98 414.25 625.65C413.82 624.52 412.74 623.71 411.45 623.71C409.8 623.71 408.45 625.05 408.45 626.7C408.45 627.27 408.62 627.79 408.89 628.24C408.71 628.15 408.53 628.07 408.34 628.02C407.97 626.56 406.66 625.48 405.08 625.48C403.22 625.48 401.71 626.99 401.71 628.85C401.71 629.53 401.91 630.15 402.25 630.68C400.56 630.8 399.26 631.44 399.26 632.22C399.26 633.09 400.84 633.79 402.8 633.79L467.39 633.79L467.39 633.77C467.59 633.78 467.78 633.79 467.98 633.79C469.94 633.79 471.52 633.09 471.52 632.22C471.52 631.52 470.46 630.92 469 630.73ZM395.3 632.02C395.3 632.43 394.51 632.77 393.53 632.77C392.55 632.77 391.76 632.43 391.76 632.02C391.76 631.61 392.55 631.27 393.53 631.27C394.51 631.27 395.3 631.61 395.3 632.02ZM480.12 632.63C480.12 632.97 479.2 633.25 478.05 633.25C476.91 633.25 475.98 632.97 475.98 632.63C475.98 632.29 476.91 632.02 478.05 632.02C479.2 632.02 480.12 632.29 480.12 632.63Z" />
		<path id="Path 14" class="shp3" d="M435.93 463L445.91 483.24C446.21 483.84 446.78 484.26 447.45 484.35L469.78 487.6C471.45 487.84 472.12 489.89 470.91 491.07L454.75 506.82C454.27 507.29 454.05 507.96 454.16 508.63L457.98 530.87C458.26 532.53 456.52 533.8 455.02 533.01L435.05 522.51C434.45 522.2 433.75 522.2 433.15 522.51L413.18 533.01C411.68 533.8 409.94 532.53 410.22 530.87L414.04 508.63C414.15 507.96 413.93 507.29 413.45 506.82L397.29 491.07C396.09 489.89 396.75 487.84 398.42 487.6L420.75 484.35C421.42 484.26 421.99 483.84 422.29 483.24L432.27 463C433.02 461.49 435.18 461.49 435.93 463Z" />
		<path id="Path 15" class="shp1" d="M526.71 516.02L526.71 626.31" />
		<path id="Path 16" class="shp2" d="M560.91 630.73C561.1 630.43 561.21 630.08 561.21 629.7C561.21 628.65 560.36 627.79 559.31 627.79C559.04 627.79 558.8 627.85 558.57 627.94C558.31 626.55 557.1 625.5 555.64 625.5C554.16 625.5 552.94 626.57 552.7 627.97C552.36 627.7 551.94 627.54 551.48 627.54C551.01 627.54 550.59 627.71 550.26 627.98C549.87 627.06 548.97 626.41 547.92 626.41C547.2 626.41 546.55 626.72 546.09 627.2L545.96 627.12C546.12 626.79 546.22 626.42 546.22 626.02C546.22 624.63 545.1 623.5 543.7 623.5C542.31 623.5 541.18 624.63 541.18 626.02C541.18 626.12 541.2 626.21 541.21 626.31C540.38 625.61 539.27 625.44 538.3 625.81C538.19 624.86 537.39 624.11 536.41 624.11C536.16 624.11 535.91 624.17 535.69 624.26C535.24 622.82 533.91 621.76 532.32 621.76C530.37 621.76 528.78 623.35 528.78 625.31C528.78 625.39 528.8 625.47 528.8 625.55L528.75 625.56C528.59 624.59 527.75 623.84 526.74 623.84C525.61 623.84 524.69 624.76 524.69 625.89L524.65 625.89C524.46 624.65 523.41 623.71 522.12 623.71C521.63 623.71 521.17 623.85 520.78 624.09C520.92 623.71 521.01 623.3 521.01 622.87C521.01 620.91 519.43 619.33 517.47 619.33C515.84 619.33 514.47 620.44 514.06 621.94C513.56 621.43 512.86 621.12 512.09 621.12C510.54 621.12 509.29 622.37 509.29 623.91C509.29 624.19 509.35 624.45 509.42 624.71C509.12 624.61 508.81 624.54 508.47 624.54C507.54 624.54 506.71 624.98 506.16 625.65C505.73 624.52 504.65 623.71 503.37 623.71C501.71 623.71 500.37 625.05 500.37 626.7C500.37 627.27 500.53 627.79 500.8 628.24C500.63 628.15 500.45 628.07 500.25 628.02C499.88 626.56 498.57 625.48 496.99 625.48C495.13 625.48 493.62 626.99 493.62 628.85C493.62 629.53 493.82 630.15 494.17 630.68C492.47 630.8 491.17 631.44 491.17 632.22C491.17 633.09 492.75 633.79 494.71 633.79L559.31 633.79L559.31 633.77C559.5 633.78 559.69 633.79 559.89 633.79C561.85 633.79 563.44 633.09 563.44 632.22C563.44 631.52 562.37 630.92 560.91 630.73ZM487.21 632.02C487.21 632.43 486.42 632.77 485.44 632.77C484.46 632.77 483.67 632.43 483.67 632.02C483.67 631.61 484.46 631.27 485.44 631.27C486.42 631.27 487.21 631.61 487.21 632.02ZM572.03 632.63C572.03 632.97 571.11 633.25 569.96 633.25C568.82 633.25 567.89 632.97 567.89 632.63C567.89 632.29 568.82 632.02 569.96 632.02C571.11 632.02 572.03 632.29 572.03 632.63Z" />
		<path id="Path 17" class="shp3" d="M527.84 463L537.82 483.24C538.12 483.84 538.7 484.26 539.36 484.35L561.69 487.6C563.36 487.84 564.03 489.89 562.82 491.07L546.66 506.82C546.18 507.29 545.96 507.96 546.07 508.63L549.89 530.87C550.17 532.53 548.43 533.8 546.93 533.01L526.96 522.51C526.37 522.2 525.66 522.2 525.06 522.51L505.09 533.01C503.6 533.8 501.85 532.53 502.14 530.87L505.95 508.63C506.06 507.96 505.85 507.29 505.37 506.82L489.21 491.07C488 489.89 488.66 487.84 490.33 487.6L512.67 484.35C513.33 484.26 513.9 483.84 514.2 483.24L524.19 463C524.93 461.49 527.09 461.49 527.84 463Z" />
		<path id="Path 18" class="shp0" d="M329.45 701.59C329.45 706.19 313.32 709.92 293.42 709.92C273.52 709.92 257.38 706.19 257.38 701.59C257.38 696.99 273.52 693.26 293.42 693.26C313.32 693.26 329.45 696.99 329.45 701.59ZM475.9 750C475.9 754.6 459.77 758.33 439.87 758.33C419.96 758.33 403.83 754.6 403.83 750C403.83 745.4 419.96 741.67 439.87 741.67C459.77 741.67 475.9 745.4 475.9 750ZM630.02 679.13C630.02 683.42 617.87 686.89 602.88 686.89C587.89 686.89 575.75 683.42 575.75 679.13C575.75 674.85 587.89 671.37 602.88 671.37C617.87 671.37 630.02 674.85 630.02 679.13ZM97.8 679.13C97.8 682.05 89.53 684.41 79.32 684.41C69.12 684.41 60.84 682.05 60.84 679.13C60.84 676.21 69.12 673.85 79.32 673.85C89.53 673.85 97.8 676.21 97.8 679.13ZM321.88 790C321.88 792.92 313.61 795.28 303.4 795.28C293.2 795.28 284.92 792.92 284.92 790C284.92 787.08 293.2 784.72 303.4 784.72C313.61 784.72 321.88 787.08 321.88 790ZM673.91 619.04L911.56 619.04C911.56 619.04 934.64 630.72 933.35 641.15C932.07 651.58 912.94 641.33 898.15 654.15C883.35 666.97 860.33 678.67 840.43 665.77C820.52 652.87 780.22 651.58 765.75 660.56C751.28 669.54 703.42 673.54 687.61 665.77C671.79 658 691.25 651.65 680.24 645.21C669.23 638.76 638.84 626.25 673.91 619.04Z" />
		<path id="Path 19" class="shp4" d="M710.68 593.05C710.68 593.05 733.5 631.72 732.03 634.11C730.56 636.5 713.07 632.09 707.37 640.18C706.27 642.94 712.89 647.73 717.67 646.62C722.46 645.52 730 643.86 735.34 644.41C740.67 644.97 747.48 643.9 745.83 638.92C744.17 633.93 737.17 599.91 737.11 591.46C737.11 591.46 725.4 593.39 710.68 593.05ZM734.11 380.71C734.11 380.71 738.04 411.13 749.81 420.46C761.59 429.78 784.16 399.36 783.67 387.09C783.67 387.09 793.97 381.69 790.54 370.41C787.1 359.12 772.87 372.86 773.37 378.26C773.37 378.26 767.48 368.94 766.5 361.09C766.5 361.09 758.65 376.3 734.11 380.71Z" />
		<path id="Path 20" class="shp5" d="M783.67 338.52C783.67 338.52 772.87 328.7 752.76 347.84C752.76 347.84 711.54 339.5 708.6 367.96C708.6 380.22 728.98 381.86 734.11 380.71C734.11 380.71 749.32 383.66 766.5 361.09C766.5 361.09 768.46 372.37 773.37 378.26C773.37 378.26 782.2 357.65 790.54 370.41C790.54 370.41 794.95 381.2 783.67 387.09C783.67 387.09 782.35 395.39 779.6 400.01C776.85 404.62 764.04 425.85 749.81 420.46C749.81 420.46 754.72 455.78 788.57 424.38C788.57 424.38 827.63 415.86 822.43 393.96C819 379.49 812.62 384.64 806.73 367.96C800.84 351.27 790.49 340.98 783.67 338.52Z" />
		<path id="Path 21" class="shp4" d="M773.15 409.4C773.15 409.4 783.42 416.53 775.57 441.8C775.57 441.8 775.31 453.51 786.61 446.71C786.61 446.71 793.48 443.27 794.22 431.5C794.95 419.72 798.88 415.55 798.88 415.55C798.88 415.55 781.75 411.2 781.75 394.03L773.15 409.4Z" />
		<path id="Path 22" class="shp6" d="M737.05 585.32C737.05 585.32 735.09 580.9 737.05 575.51C739.02 570.11 746.85 570.11 765.75 572.07C784.65 574.03 856.29 573.05 860.21 544.6C864.14 516.14 845.98 502.89 836.66 489.15C827.34 475.41 807.96 413.59 807.96 413.59C807.96 413.59 803.29 414.08 798.88 415.55C798.88 415.55 795.44 419.48 794.22 431.5C792.99 443.52 786.61 446.71 786.61 446.71C786.61 446.71 776.06 453.33 775.57 441.8C775.57 441.8 764.78 459.46 778.76 472.22C778.76 472.22 782.44 473.45 790.05 477.86C797.65 482.28 814.83 495.53 808.2 510.98C801.58 526.44 736.56 523.99 715.22 537.97C693.88 551.95 706.39 585.32 706.39 585.32C706.39 585.32 711.54 589 737.05 585.32Z" />
		<path id="Path 23" class="shp7" d="M842.79 638.8C842.79 638.8 792.75 648.74 787.96 627.76C783.18 606.79 781.75 572.7 781.75 572.7C781.75 572.7 809.92 572.81 832.67 566.57C832.67 566.57 815.56 611.2 818.87 614.15C822.19 617.09 840.59 611.2 840.59 611.2C840.59 611.2 845.37 618.93 842.79 638.8Z" />
		<path id="Path 24" class="shp8" d="M706.39 584.31C706.39 584.31 708.96 588.6 737.05 584.31C737.05 584.31 738.77 583.33 739.51 583.82C740.24 584.31 741.35 591.42 740 592.03C738.65 592.65 721.48 596.33 704.92 592.89C704.92 592.89 702.22 582.79 706.39 584.31ZM840.59 611.2C840.59 611.2 845.37 619.05 842.79 638.8C842.79 638.8 841.57 641.67 844.51 641.16C847.46 640.64 853.71 637.82 853.71 637.82C853.71 637.82 856.78 619.05 850.03 608.26C850.03 608.26 838.99 607.28 840.59 611.2Z" />
		<path id="Path 25" class="shp4" d="M850.94 609.89C850.94 609.89 871.68 608.63 885.3 611.57C898.91 614.51 898.9 617.49 897.61 620.62C895.58 625.56 895.42 627.58 891.74 637.88C888.06 648.18 886.59 646.35 879.41 646.9C872.23 647.45 866.35 648 867.82 644.51C869.29 641.01 870.88 638.85 881.36 637.79L882.17 631.81C882.83 626.9 880.51 626.29 880.51 626.29L853.71 637.82C853.71 637.82 855.96 622.75 850.94 609.89Z" />
		<path id="Path 26" class="shp3" d="M807.96 413.59C807.96 413.59 797.16 414.08 798.88 433.21C800.59 452.35 818.5 473.69 821.69 481.54C824.88 489.39 828.32 499.94 815.56 503.38C802.8 506.81 775.14 514.66 773.15 515.89C773.15 515.89 778.76 522.76 777.78 527.42C777.78 527.42 797.41 526.68 804.77 527.42C812.13 528.16 849.01 522.46 849.21 505.19C849.42 487.92 826.85 408.44 807.96 413.59ZM775.57 441.8C775.57 441.8 753.49 458.48 730.92 478.6C719.64 484.98 693.39 488.41 693.39 488.41C693.39 488.41 693.39 494.22 695.84 500.27C695.84 500.27 723.07 501.42 744.17 491.36C765.27 481.3 778.76 472.22 778.76 472.22C778.76 472.22 765.76 463.39 775.57 441.8Z" />
		<path id="Path 27" class="shp4" d="M693.39 488.41C693.39 488.41 684.55 489.64 678.48 488.41C672.41 487.19 667.26 486.27 665.6 487.55C663.95 488.84 664.5 494.55 666.71 496.2C668.91 497.86 667.99 499.88 669.83 501.36C671.67 502.83 672.74 505.77 679.01 505.04C685.29 504.3 695.84 500.27 695.84 500.27C695.84 500.27 692.65 493.14 693.39 488.41ZM773.15 515.89C773.15 515.89 761.1 518.47 752.08 522.15C743.07 525.83 740.12 530.79 739.75 532.08C739.39 533.37 743.94 533.37 746.08 532.82C748.22 532.27 747.11 533.52 749.32 533.17C751.53 532.82 756.5 531.35 760.54 530.43C764.59 529.51 767.35 530.24 771.77 528.4C776.19 526.56 777.78 527.42 777.78 527.42C777.78 527.42 779.32 522.33 773.15 515.89Z" />
		<path id="Path 28" class="shp9" d="M675.65 525.57C675.65 525.57 687.43 517.08 688.35 510.27C689.27 503.46 680.44 487.82 668.29 484.33C656.15 480.83 648.97 490.77 648.97 490.77C648.97 490.77 652.19 495.55 652.19 495.27C652.19 495 660.51 484.61 668.69 489.76C678.4 495.87 682.44 503.51 682.59 506.81C682.84 512.09 677.07 518.56 672.01 520.86L675.65 525.57Z" />
		<path id="Path 29" class="shp4" d="M684 488.94C684 488.94 679.71 486.53 677.56 486.69C674.27 486.93 672.69 496.04 675.35 497.86C676.09 498.36 678.01 497.16 678.84 491.62C678.84 491.62 678.56 498.47 687.61 498.47C687.61 498.47 686.4 492.91 684 488.94ZM665.6 487.55C665.6 487.55 667.97 485.64 670.97 487.5C673.98 489.36 682.02 498.26 683.17 501.26C684.33 504.27 679.01 505.03 679.01 505.03C679.01 505.03 672.96 506.51 669.83 501.35C669.83 501.35 669.71 500.04 667.79 497.38C667.43 496.88 667.27 496.76 666.71 496.2C666.71 496.2 662.54 491.3 665.6 487.55Z" />
		<path id="Path 30" class="shp9" d="M646.79 486.74L681.25 533.23C681.25 533.23 661.74 553.98 634.69 555.45L615.62 504.36C615.05 502.83 615.64 501.11 617.04 500.26L641.08 485.63C642.99 484.47 645.46 484.95 646.79 486.74ZM588.88 540.36L634.69 555.45L626.96 534.73L593.47 530.24L588.88 540.36Z" />
		<path id="Path 31" class="shp10" d="M591.98 535.88C588.06 544.87 582.16 550.97 578.8 549.5C575.45 548.04 575.92 539.57 579.84 530.58C583.77 521.59 589.67 515.5 593.02 516.96C596.37 518.42 595.91 526.9 591.98 535.88Z" />
		<path id="Path 32" class="shp9" d="M589.62 534.85C585.7 543.84 579.8 549.94 576.44 548.47C573.09 547.01 573.56 538.54 577.48 529.55C581.41 520.56 587.31 514.47 590.66 515.93C594.01 517.39 593.55 525.87 589.62 534.85Z" />
		<path id="Path 33" class="shp10" d="M631.48 496.47C624.6 500.45 618.72 503.15 618.36 502.51C617.99 501.88 623.27 498.14 630.15 494.17C637.03 490.19 642.91 487.49 643.28 488.13C643.64 488.76 638.36 492.5 631.48 496.47ZM583.98 524.01C583.73 524.59 583.35 524.99 583.13 524.89C582.91 524.8 582.94 524.25 583.2 523.67C583.45 523.09 583.83 522.69 584.05 522.79C584.27 522.88 584.24 523.43 583.98 524.01ZM589.06 523.26C588.81 523.84 588.43 524.24 588.21 524.14C587.99 524.05 588.02 523.5 588.27 522.92C588.53 522.34 588.91 521.94 589.13 522.04C589.35 522.13 589.31 522.68 589.06 523.26ZM588.33 529.54C588.07 530.12 587.69 530.52 587.47 530.42C587.26 530.33 587.29 529.78 587.54 529.2C587.8 528.62 588.18 528.22 588.39 528.32C588.61 528.41 588.58 528.96 588.33 529.54ZM585.49 527.83C585.23 528.41 584.85 528.8 584.63 528.71C584.42 528.61 584.44 528.06 584.7 527.48C584.95 526.9 585.34 526.51 585.55 526.6C585.77 526.7 585.74 527.24 585.49 527.83ZM581.53 535.24C581.27 535.82 580.89 536.21 580.67 536.12C580.46 536.02 580.48 535.47 580.74 534.89C580.99 534.31 581.38 533.92 581.59 534.01C581.81 534.11 581.78 534.65 581.53 535.24ZM578.92 541.2C578.67 541.78 578.29 542.17 578.07 542.08C577.85 541.98 577.88 541.44 578.13 540.85C578.39 540.27 578.77 539.88 578.99 539.97C579.21 540.07 579.18 540.62 578.92 541.2ZM585.23 534.4C584.98 534.98 584.6 535.38 584.38 535.28C584.17 535.19 584.19 534.64 584.45 534.06C584.7 533.48 585.09 533.08 585.3 533.18C585.52 533.27 585.49 533.82 585.23 534.4ZM583.15 539.17C582.9 539.76 582.52 540.15 582.3 540.05C582.08 539.96 582.11 539.41 582.36 538.83C582.62 538.25 583 537.86 583.22 537.95C583.44 538.05 583.41 538.59 583.15 539.17ZM580.92 531.02C580.67 531.6 580.28 532 580.07 531.9C579.85 531.81 579.88 531.26 580.13 530.68C580.39 530.1 580.77 529.7 580.99 529.8C581.2 529.89 581.17 530.44 580.92 531.02ZM578.17 537.31C577.92 537.89 577.54 538.28 577.32 538.19C577.1 538.1 577.13 537.55 577.39 536.97C577.64 536.38 578.02 535.99 578.24 536.09C578.46 536.18 578.43 536.73 578.17 537.31Z" />
		<path id="Path 34" class="shp11" d="M582.76 539C579.13 538.28 575.37 538.24 571.74 538.8C568.12 539.34 564.59 540.63 561.62 542.74C558.63 544.83 556.24 547.71 554.6 550.95C552.91 554.19 551.94 557.76 551.34 561.38C550.1 568.65 549.77 576.05 549.96 583.44C550.19 590.82 550.85 598.21 552.15 605.51C550.52 598.28 549.59 590.88 549.24 583.46C548.87 576.04 549.23 568.58 550.4 561.22C551 557.54 552.06 553.88 553.82 550.55C555.55 547.22 558.03 544.2 561.19 542.12C567.52 537.86 575.62 537.31 582.76 539ZM580.76 534.96C577.12 534.24 573.37 534.19 569.74 534.76C566.11 535.3 562.58 536.59 559.61 538.7C556.63 540.79 554.24 543.66 552.6 546.91C550.91 550.15 549.93 553.72 549.34 557.34C548.1 564.6 547.77 572.01 547.96 579.4C548.18 586.78 548.85 594.17 550.15 601.47C548.52 594.23 547.59 586.84 547.24 579.42C546.87 572 547.22 564.53 548.4 557.18C549 553.49 550.06 549.84 551.82 546.5C553.55 543.18 556.03 540.15 559.19 538.08C565.52 533.82 573.61 533.27 580.76 534.96ZM584.84 528.38C581.08 527.63 577.2 527.51 573.41 527.95C569.63 528.38 565.89 529.47 562.65 531.42C559.43 533.39 556.71 536.15 554.87 539.45C553 542.74 551.87 546.41 551.26 550.16C549.96 557.7 549.61 565.38 549.73 573.04C549.89 580.7 550.46 588.37 551.58 595.97C550.12 588.42 549.29 580.75 549.01 573.06C548.72 565.36 549.09 557.63 550.32 550C550.94 546.17 552.16 542.4 554.11 539.01C556.05 535.62 558.88 532.71 562.27 530.77C569.15 526.91 577.42 526.65 584.84 528.38ZM582.76 523.82C578.93 522.98 574.98 522.72 571.09 523.01C567.22 523.28 563.34 524.16 559.93 525.98C558.22 526.88 556.64 527.99 555.22 529.29C553.81 530.6 552.62 532.13 551.59 533.75C549.6 537.05 548.38 540.79 547.76 544.62C546.42 552.32 545.96 560.15 545.87 567.98C545.82 575.81 546.1 583.65 546.86 591.46C545.76 583.69 545.22 575.84 545.14 567.98C545.06 560.12 545.55 552.24 546.82 544.45C547.45 540.54 548.76 536.7 550.84 533.29C552.96 529.9 555.99 527.05 559.58 525.31C566.82 521.77 575.22 521.93 582.76 523.82Z" />
		<path id="Path 35" class="shp0" d="M938.09 679.13C938.09 683.42 925.94 686.89 910.95 686.89C895.97 686.89 883.82 683.42 883.82 679.13C883.82 674.85 895.97 671.37 910.95 671.37C925.94 671.37 938.09 674.85 938.09 679.13ZM881.54 758.33C881.54 762.62 869.39 766.09 854.41 766.09C839.42 766.09 827.27 762.62 827.27 758.33C827.27 754.05 839.42 750.58 854.41 750.58C869.39 750.58 881.54 754.05 881.54 758.33ZM813.93 671.38C813.93 674.29 805.66 676.66 795.45 676.66C785.25 676.66 776.97 674.29 776.97 671.38C776.97 668.46 785.25 666.09 795.45 666.09C805.66 666.09 813.93 668.46 813.93 671.38ZM752.59 717.78C752.59 720.7 744.32 723.06 734.11 723.06C723.9 723.06 715.63 720.7 715.63 717.78C715.63 714.86 723.9 712.49 734.11 712.49C744.32 712.49 752.59 714.86 752.59 717.78Z" />
		<path id="Path 36" class="shp12" d="M296.3 387.47L445.97 387.47C445.97 387.47 465.97 383.47 445.97 368.47C425.97 353.47 439.97 346.47 421.97 334.47C403.97 322.47 389.97 330.47 378.97 341.47C367.97 352.47 349.97 331.47 333.97 342.47C317.97 353.47 326.97 357.47 312.97 363.47C302.07 368.14 288.13 369.18 287.23 377.91C286.69 383.09 291.09 387.47 296.3 387.47ZM254.08 134.48L104.4 134.48C104.4 134.48 84.4 130.48 104.4 115.48C124.4 100.48 110.4 93.48 128.4 81.48C146.4 69.48 160.4 77.48 171.4 88.48C182.4 99.48 200.4 78.48 216.4 89.48C232.4 100.48 223.4 104.48 237.4 110.48C248.3 115.15 262.24 116.19 263.15 124.92C263.68 130.1 259.28 134.48 254.08 134.48ZM723.19 238.37L897.94 238.37C899.05 238.37 900.15 238.2 901.21 237.86C906.29 236.21 918.97 230.28 899.38 216C880.54 202.26 889.18 193.63 869.55 184.6C846.41 173.96 837.2 193.97 819.32 197.95C797.34 202.83 784.78 162.23 765.94 175.18C747.1 188.13 759.27 203.05 742.78 210.11C729.96 215.61 713.58 216.83 712.47 227.07C711.81 233.19 717.04 238.37 723.19 238.37Z" />
	</g>
</svg>