<svg xmlns="http://www.w3.org/2000/svg" viewBox="0 0 1000 1000" width="400" height="400">
	<defs>
		<clipPath clipPathUnits="userSpaceOnUse" id="cp1">
			<path d="M0 0L1000 0L1000 1000L0 1000Z" />
		</clipPath>
		<clipPath clipPathUnits="userSpaceOnUse" id="cp2">
			<path d="M31.61 812.06L958.71 812.06L958.71 120.74L31.61 120.74L31.61 812.06Z" />
		</clipPath>
		<linearGradient id="grd1" gradientUnits="userSpaceOnUse"  x1="454.292" y1="340.897" x2="453.03" y2="279.048">
			<stop offset="0" stop-color="#ffffff"  />
			<stop offset="1" stop-color="#0bbfd1"  />
		</linearGradient>
		<linearGradient id="grd2" gradientUnits="userSpaceOnUse"  x1="454.084" y1="571.856" x2="453.685" y2="552.294">
			<stop offset="0" stop-color="#ffffff"  />
			<stop offset="1" stop-color="#0bbfd1"  />
		</linearGradient>
		<linearGradient id="grd3" gradientUnits="userSpaceOnUse"  x1="454.989" y1="780.207" x2="464.576" y2="582.071">
			<stop offset="0" stop-color="#ffffff"  />
			<stop offset="1" stop-color="#084a86"  />
		</linearGradient>
		<linearGradient id="grd4" gradientUnits="userSpaceOnUse"  x1="457.487" y1="719.414" x2="456.93" y2="612.067">
			<stop offset="0" stop-color="#ffffff"  />
			<stop offset="1" stop-color="#0bbfd1"  />
		</linearGradient>
	</defs>
	<style>
		tspan { white-space:pre }
		.shp0 { fill: #e1ddd7 } 
		.shp1 { fill: #eae7e3 } 
		.shp2 { fill: #cb5355 } 
		.shp3 { fill: #ce2415 } 
		.shp4 { fill: #99a4c0 } 
		.shp5 { fill: none;stroke: #fbdab9;stroke-width: 2 } 
		.shp6 { fill: #fadbbc } 
		.shp7 { opacity: 0.459;mix-blend-mode: multiply;fill: url(#grd1) } 
		.shp8 { opacity: 0.459;mix-blend-mode: multiply;fill: url(#grd2) } 
		.shp9 { mix-blend-mode: multiply;fill: url(#grd3) } 
		.shp10 { fill: #9697c3 } 
		.shp11 { fill: #0d4880 } 
		.shp12 { fill: #1c6ea0 } 
		.shp13 { opacity: 0.459;mix-blend-mode: multiply;fill: url(#grd4) } 
		.shp14 { fill: #0e1414 } 
		.shp15 { fill: #ff9533 } 
		.shp16 { fill: #ee6b00 } 
		.shp17 { fill: #ffea59 } 
		.shp18 { fill: #ffae33 } 
		.shp19 { fill: #272d2d } 
		.shp20 { fill: #ffffff } 
		.shp21 { fill: #1e1029 } 
		.shp22 { fill: #003e54 } 
		.shp23 { fill: #725c9d } 
		.shp24 { fill: #ded1e4 } 
		.shp25 { fill: #f6a676 } 
		.shp26 { fill: #ffbd95 } 
		.shp27 { fill: #ff8763 } 
	</style>
	<g id="Page 1" clip-path="url(#cp1)">
		<g id="Mask" clip-path="url(#cp2)">
			<path id="Path 2" class="shp0" d="M666.5 784.53C666.43 801.69 670.01 818.82 674.94 835.53C681.09 856.36 692.55 877.49 686.29 899.03C686.24 899.18 686.25 899.31 686.27 899.44C679.58 905.87 672.84 912.28 666.04 918.65C670.56 907.21 675.83 893.85 675.83 893.85C677.17 869.77 655.33 851.55 644.54 830.22C634.54 810.47 634.18 787.05 643.54 765C648.96 752.22 662.63 738.01 677.77 735.15C669.65 751 666.55 769.3 666.5 784.53ZM744.9 847.18C757.3 834.1 769.3 820.79 780.98 807.33C813.34 797.11 846.75 803.97 880.63 803.56C892.43 803.41 905.3 802.19 916.89 798.85C915.94 801.41 914.51 803.91 912.55 806.18C902.51 817.78 884 823.66 866.97 825.08C849.94 826.51 833.43 824.36 816.59 824.26C809.1 824.21 800.22 825.1 795.42 830.09C790.28 835.44 793.42 841.14 799.61 844.82C780.79 842.26 759.98 839.41 744.9 847.18ZM740.41 845.13C735.04 850.77 729.63 856.38 724.17 861.95C725.55 839.94 712.61 818.92 721.18 796.72C721.48 795.92 720.01 795.36 719.49 796.09C704.74 816.98 723.51 842.42 721.21 864.95C717.74 868.47 714.28 872 710.77 875.5C709.06 858.21 699.12 843.07 692.82 826.62C684.25 804.24 688.94 783.98 701.34 763.52C701.47 763.31 701.11 763.12 700.94 763.32C689.25 778.09 685.28 796.53 687.57 813.88C690.45 835.7 706.16 854.82 708.78 876.69C708.8 876.9 708.92 877.06 709.06 877.19C702.77 883.44 696.41 889.66 690.01 895.85C693.36 882.2 689.49 868.96 684.95 855.41C679.01 837.67 673.32 819.9 671.17 801.6C669.12 784.12 670.11 766.36 676.33 749.53C678.33 744.11 680.96 739.25 683.97 734.63C685.69 734.68 687.41 734.88 689.12 735.27C704.1 738.67 707.18 753.6 704.76 766.2C703.79 771.26 702.31 776.58 704.34 781.11C706.38 785.65 713.63 788.75 719.51 785.88C723.96 783.71 725.54 779.35 726.19 775.53C728.43 762.42 725.31 749.76 724.19 736.93C723.08 724.11 724.3 710.15 733.97 698.42C741.54 689.25 755.69 682.35 768.35 682.36C757.38 702.39 755.59 726.98 754.74 747.66C753.37 780.68 754.94 813.91 740.41 845.13ZM820.35 735.21C825.78 729.98 827.48 723.38 829.57 717.15C836.91 695.26 853.99 672.35 881.24 662.69C908.5 653.04 944.18 664.46 942.18 686.44C940.52 704.79 916.25 719.2 893.57 727.47C878.74 732.88 862.65 737.52 851.47 747.09C840.3 756.65 837.55 773.22 850.61 778.34C865.6 784.22 886.54 771.16 903.28 774.24C905.05 774.56 906.63 775.09 908.09 775.75C887.52 780.25 867.33 784.27 845.34 785.57C829.12 786.52 809.72 784.6 794.95 790.93C827.83 750.72 856.94 704.34 909.74 679.16C910.5 678.79 909.84 677.82 909.06 678.18C855.53 702.56 826.14 747.03 792.93 786.58C784.27 796.9 775.36 807.05 766.32 817.11C772.5 804.08 768.71 785.26 769.01 773.14C769.68 746.43 774.63 722.49 790.44 698.91C790.94 698.15 789.65 697.51 789.02 698.2C774.54 714.08 769.69 734.85 767.7 754.18C766.48 766.05 766.36 777.99 766.01 789.9C765.66 801.86 766.46 813.94 758.86 824.58C758.68 824.82 758.79 825.06 758.98 825.24C754.47 830.17 749.95 835.07 745.36 839.94C756.41 815.54 756.98 789.11 757.46 763.12C757.78 746.07 758.2 728.92 761.77 712.1C764.02 701.49 768.06 692.04 773.03 682.68C774.9 682.96 776.72 683.41 778.44 684.07C798.19 691.57 792.3 714.67 795.33 732.06C795.79 734.68 796.58 737.36 798.88 739.16C804.17 743.31 814.92 740.44 820.35 735.21ZM851.96 799.8C828.68 798.54 805.02 797.45 783.41 804.54C785.02 802.67 786.66 800.83 788.25 798.96C789.57 797.41 790.88 795.86 792.18 794.29C813.14 785.81 838.21 789.53 861.09 787.27C877.89 785.61 895.7 782.93 912.04 778.18C916.9 782.17 918.92 788.36 917.97 794.66C897.77 801.22 875.92 801.09 851.96 799.8ZM387.46 494.97C376.71 520.15 358.05 552.07 361.39 579.87C358.08 573.9 354.7 567.99 351.3 562.09C342.54 535.21 364.14 512.44 369.78 486.63C369.94 486.18 370.13 485.73 370.27 485.26C374.4 471.75 375 455.22 383.32 445.78C389.61 438.64 398.08 438.84 405.44 443.43C401.28 461.13 394.59 478.29 387.46 494.97ZM259.4 618.24C277.13 623.48 295.92 624.96 314.68 624.9C338.07 624.82 363.37 619.35 383.76 632.32C383.9 632.41 384.04 632.44 384.18 632.46C388.81 641.32 393.4 650.22 397.94 659.17C387.47 651.05 375.25 641.57 375.25 641.57C350.75 632.92 325.32 650 300.02 654.73C276.58 659.1 252.26 652.41 232.29 636.09C220.71 626.62 210.14 608.21 211.74 591.69C225.69 604.86 243.67 613.59 259.4 618.24ZM392.54 531.36C383.28 554.56 375.14 577.73 373.43 602.21C370.74 597.09 367.97 592.02 365.21 586.95C360.98 566.56 369.65 544.75 378.09 525.2C387.24 504.01 397.23 483.15 404.34 461.05C405.91 456.2 407.36 451.05 408.65 445.76C412.11 448.67 415.13 452.58 417.38 457.11C410.6 482.69 402.5 506.39 392.54 531.36ZM347.83 556.08C338.04 539.31 327.9 522.88 317.51 506.75C316.71 470.2 333.88 437.73 343.67 402.58C347.08 390.33 349.7 376.65 349.74 363.67C352.11 365.41 354.26 367.65 356.02 370.37C364.98 384.24 365.47 405.15 361.81 423.19C358.15 441.23 350.95 457.65 345.76 475.04C343.45 482.76 341.69 492.22 345.4 498.68C349.38 505.61 356.23 504.09 361.9 498.79C353.57 517.48 344.35 538.14 347.83 556.08ZM344.36 560.1C348.57 567.35 352.74 574.64 356.85 581.97C334.51 573.89 308.87 580.94 288.5 565.38C287.77 564.82 286.75 566.18 287.35 566.94C304.49 588.48 336.45 576.76 359.06 585.93C361.65 590.58 364.26 595.22 366.82 599.91C348.42 596.46 329.77 602.17 310.87 603.72C285.14 605.83 265.6 594.87 248.19 575.88C248.01 575.68 247.7 576 247.86 576.23C259.6 592.78 277.48 602.44 296.11 605.3C319.54 608.91 344.05 598.43 367.45 602.32C367.67 602.36 367.87 602.29 368.05 602.19C372.62 610.58 377.13 619.03 381.6 627.52C368.5 619.93 353.63 619.94 338.26 620.55C318.12 621.34 298.03 621.86 278.46 618.56C259.77 615.41 241.71 609.02 226.18 597.52C221.18 593.81 216.94 589.62 213.08 585.12C213.65 583.36 214.38 581.64 215.3 579.99C223.33 565.52 239.7 566.85 252 573.15C256.93 575.68 261.98 578.81 267.28 578.08C272.59 577.34 277.98 570.78 276.79 563.83C275.89 558.58 271.86 555.63 268.1 553.8C255.23 547.53 241.19 546.94 227.6 544.23C214 541.51 199.94 536.04 190.72 522.49C183.52 511.91 180.66 495.2 184.49 482.11C201.89 499.49 226.77 508.76 247.9 515.88C281.63 527.25 316.46 535.65 344.36 560.1ZM254.82 444.28C251.05 437.09 244.73 433.35 238.92 429.31C218.51 415.11 199.97 390.54 198.21 359.45C196.45 328.36 219.02 294.91 241.15 303.6C259.62 310.86 267.2 340.3 268.91 366.24C270.03 383.21 269.97 401.25 276.49 415.69C283 430.13 299.3 437.97 308.55 426.01C319.14 412.29 311.95 386.69 320.19 370.31C321.06 368.58 322.08 367.1 323.2 365.79C321.66 388.42 319.72 410.51 314.42 433.64C310.52 450.7 302.68 470.17 304.77 487.35C273.11 441.23 233.94 397.15 223.83 334.95C223.68 334.05 222.48 334.44 222.61 335.36C231.68 398.06 268.79 441.87 299.66 488.14C307.72 500.2 315.53 512.47 323.2 524.86C311.59 514.54 290.99 512.78 278.55 508.81C251.14 500.06 227.88 487.72 208.26 464.26C207.63 463.51 206.58 464.66 207.1 465.51C219.16 485.28 239.17 496.56 258.55 504.44C270.45 509.29 282.76 513.01 294.98 516.97C307.24 520.94 319.96 523.75 328.67 534.83C328.86 535.08 329.15 535.05 329.39 534.91C333.13 541.05 336.83 547.21 340.49 553.42C318.58 534.63 291.43 526.07 264.7 517.73C247.17 512.26 229.57 506.65 213.25 497.89C202.96 492.36 194.41 485.33 186.23 477.37C187.09 475.51 188.1 473.77 189.3 472.19C203.01 454.04 225.12 467.09 244.02 469.2C246.86 469.52 249.88 469.51 252.42 467.68C258.31 463.46 258.59 451.47 254.82 444.28ZM331.14 431.09C322.82 454.78 314.55 478.92 315.36 503.4C313.92 501.17 312.5 498.92 311.05 496.7C309.85 494.88 308.63 493.06 307.41 491.24C304.96 467 316.38 442.21 320.94 417.86C324.29 399.99 326.89 380.78 326.91 362.45C332.5 358.62 339.52 358.4 345.73 361.29C346.43 384.15 339.7 406.7 331.14 431.09ZM397.71 524.64C405.75 505.02 415.63 483.48 419.45 462.04C419.46 462.06 419.46 462.08 419.47 462.09C425.44 480.18 413.44 497.41 408.19 516.24C394.77 564.33 392.32 593.61 398.13 652.4C390.59 636.05 382.69 619.95 374.42 604.15C377.16 576.41 387.06 550.58 397.71 524.64ZM613.66 680.43C584.59 687.73 544.38 692.61 522.36 713.94C525.37 707.1 528.29 700.23 531.18 693.37C548.81 667.92 582.97 671.67 609.21 659.49C609.72 659.33 610.23 659.19 610.73 659C625.25 653.65 640.06 643.22 653.8 644.22C664.19 644.98 669.63 652.5 670.51 661.95C652.32 670.05 632.92 675.59 613.66 680.43ZM421.34 650.44C428.51 669.37 439.67 686.73 452.16 703.05C467.72 723.39 489.25 741.82 491.45 768.19C491.47 768.37 491.53 768.52 491.61 768.65C486.95 778.56 482.23 788.45 477.43 798.34C477.58 783.83 477.75 766.9 477.75 766.9C469.06 739.81 437.32 728.96 416.44 710.03C397.09 692.49 386.82 666.85 387.82 638.62C388.39 622.25 397.45 600.84 412.92 591.3C410.67 612.18 414.97 633.64 421.34 650.44ZM585.3 708.96C558.93 716.26 533.34 724.51 510.86 739.24C513.54 733.5 516.13 727.73 518.72 721.96C533.69 704.77 558.45 697.87 581.09 692.28C605.63 686.23 630.44 681.11 654.41 672.67C659.68 670.82 665.13 668.67 670.6 666.29C670.35 671.24 668.95 676.47 666.49 681.43C639.7 692.46 613.67 701.1 585.3 708.96ZM534.12 686.35C542.26 666.71 549.86 646.99 557.05 627.24C588.37 602.33 628.07 595.79 665.2 581.03C678.13 575.9 691.8 569.11 703.15 560.55C703.19 563.77 702.67 567.13 701.46 570.46C695.3 587.46 677.4 601.75 659.24 610.51C641.09 619.26 622 623.86 603.4 630.86C595.14 633.97 585.73 638.7 582.56 646.21C579.15 654.27 585.01 659.23 593.39 660.67C571.58 665.79 547.46 671.43 534.12 686.35ZM528.31 685.99C524.78 694.46 521.19 702.93 517.53 711.37C509.77 686.55 486.63 668.86 486.7 640.79C486.7 639.78 484.85 639.79 484.59 640.81C477.16 670.04 508.55 690.13 515.53 715.92C513.19 721.27 510.88 726.61 508.49 731.95C499.3 713.62 481.97 701.14 468.1 685.69C449.21 664.65 445.82 640.36 450.85 612.6C450.9 612.31 450.42 612.25 450.33 612.54C443.67 633.75 447.1 655.73 456.94 673.87C469.32 696.69 494.69 711.12 506.8 734.1C506.91 734.32 507.1 734.44 507.32 734.53C503.03 744.07 498.65 753.6 494.21 763.12C492.14 746.67 482.29 733.72 471.57 720.72C457.54 703.69 443.78 686.51 433.69 667.27C424.06 648.88 417.65 628.91 417.4 607.75C417.31 600.93 418.16 594.46 419.53 588.11C421.44 587.44 423.42 586.94 425.47 586.64C443.4 584.06 453.09 599.21 455.75 614.11C456.81 620.09 457.42 626.57 461.58 630.7C465.73 634.84 475.03 635.2 480.3 629.55C484.28 625.29 484.18 619.82 483.28 615.33C480.22 599.95 471.44 587.33 464.8 573.67C458.15 560.02 453.61 544.13 459.32 527.12C463.77 513.83 476.45 500.27 490.4 494.94C486.77 521.62 495.17 549.46 502.96 572.59C515.4 609.54 531.15 645.47 528.31 685.99ZM569.97 531.2C573.74 523.15 572.83 515.16 572.5 507.41C571.35 480.21 580.49 447.77 606.43 425.64C632.37 403.5 676.49 401.03 683.57 426.07C689.48 446.99 668.83 473.1 647.35 491.77C633.29 503.99 617.53 515.9 609.26 531.15C600.98 546.4 604.95 565.8 621.5 565.93C640.48 566.08 658.04 542.85 677.77 539.18C679.86 538.8 681.83 538.71 683.71 538.82C662.96 552.46 642.41 565.41 618.75 576.11C601.28 584.01 579.1 590.08 565.51 603.28C584.75 545.12 597.24 481.76 644.76 431.75C645.45 431.02 644.31 430.23 643.6 430.95C594.94 480.4 581.33 541.77 561.45 599.35C556.26 614.36 550.74 629.3 545.02 644.19C546.33 627.23 534.22 608.11 529.44 594.63C518.91 564.94 514.26 536.48 521.71 503.84C521.95 502.79 520.25 502.63 519.85 503.65C510.6 527.26 514.03 552.18 519.99 574.3C523.65 587.9 528.56 601.09 533.2 614.36C537.87 627.68 543.84 640.65 539.96 655.57C539.87 655.91 540.08 656.14 540.37 656.25C537.49 663.57 534.57 670.89 531.58 678.19C533.45 646.65 522.92 617.3 512.49 588.47C505.64 569.56 498.86 550.5 495.7 530.47C493.7 517.83 494.17 505.72 495.69 493.31C497.87 492.83 500.06 492.56 502.24 492.55C527.15 492.49 530.41 520.41 541.09 538.29C542.7 540.98 544.7 543.6 547.99 544.61C555.57 546.94 566.2 539.25 569.97 531.2ZM632.04 589C605.87 597.44 579.35 606.22 558.54 623.14C559.53 620.41 560.56 617.68 561.52 614.95C562.32 612.69 563.1 610.43 563.87 608.16C583.39 589.97 612.57 583.49 636.81 571.34C654.61 562.42 673.09 551.96 689.09 539.84C696.13 542.17 700.96 548.14 702.57 555.48C683.09 571.23 658.97 580.31 632.04 589ZM594.58 709.01C617.01 703.03 642.33 697.37 663.56 686.5C663.55 686.52 663.54 686.53 663.53 686.55C651.71 703.73 628.74 704.7 608.85 712.59C558.03 732.75 530.87 750.01 483.47 794.02C492.73 776.62 501.52 759.07 509.83 741.39C535.82 725.4 564.91 716.92 594.58 709.01ZM266.14 674.08C279.65 695.92 294.07 727.48 317.2 739.93C310.83 739.24 304.47 738.64 298.11 738.07C272.76 730.28 266.95 701.42 250.19 683.15C249.93 682.78 249.68 682.39 249.4 682.04C241.27 671.57 228.9 662.19 226.16 650.7C224.08 642.02 228.8 635.63 236.29 632.46C247.63 645.21 257.18 659.61 266.14 674.08ZM291.58 838.9C305.17 828.12 316.45 814.5 326.53 800.07C339.1 782.09 348.56 759.72 369.52 751.08C369.66 751.02 369.77 750.93 369.86 750.83C379.15 752.06 388.46 753.35 397.78 754.7C385.89 758.35 372.02 762.6 372.02 762.6C352.16 776.73 351.54 805.46 341.5 827.43C332.2 847.78 313.94 862.82 290.63 869.34C277.12 873.11 257.28 871.28 245.47 861.13C263.11 857.54 279.51 848.45 291.58 838.9ZM296.8 689.83C309.6 709.46 322.98 728.22 340.84 742.75C335.46 742.05 330.08 741.44 324.7 740.82C306.77 733.05 294.71 714.63 284.27 697.6C272.96 679.13 262.34 660.2 249.23 642.82C246.34 639 243.18 635.11 239.81 631.26C243.91 630.18 248.55 629.96 253.24 630.69C269.2 649.7 283.01 668.71 296.8 689.83ZM291.62 737.48C273.47 735.94 255.39 734.85 237.41 734.11C208.93 715 193.29 684.29 171.6 657.8C164.05 648.58 154.96 639.18 145.02 632.14C147.64 631.26 150.52 630.82 153.55 630.94C169.03 631.55 185.35 642.46 197.21 655.01C209.08 667.56 217.79 681.95 228.33 695.32C233.01 701.26 239.31 707.71 246.27 708.36C253.74 709.05 256.27 702.97 255.27 695.76C265.11 712.24 275.98 730.47 291.62 737.48ZM292.84 742.32C300.67 743 308.51 743.74 316.36 744.54C298.11 757.32 289.67 780.8 266.73 788.03C265.91 788.29 266.4 789.81 267.3 789.75C293.09 788.23 301.35 757.38 320.6 744.99C325.56 745.51 330.53 746.01 335.51 746.58C322.93 758.83 317.24 776.22 308.22 791.57C295.95 812.45 277 821.52 253.02 824.63C252.77 824.66 252.85 825.07 253.11 825.06C272.15 824.99 289.22 816.49 301.47 803.74C316.88 787.71 322.08 763.25 337.7 747.4C337.85 747.25 337.9 747.06 337.92 746.87C346.83 747.89 355.74 748.99 364.67 750.14C351.78 756.1 343.76 767.51 335.92 779.64C325.66 795.51 315.21 811.21 302.11 824.44C289.61 837.08 274.96 847.5 257.75 853.2C252.2 855.03 246.7 856.02 241.16 856.55C240.12 855.17 239.19 853.68 238.42 852.08C231.65 838.11 241.51 826.27 252.98 820.23C257.59 817.81 262.72 815.63 265.02 811.16C267.32 806.7 265.2 799.02 259.22 796.18C254.71 794.03 250.27 795.54 246.84 797.43C235.07 803.93 227.04 814.37 217.62 823.34C208.2 832.31 196.4 840.14 181.04 839.9C169.02 839.71 154.66 832.89 146.68 822.88C169.42 818.91 189.96 804.83 206.83 792.46C233.77 772.71 259.02 750.53 292.84 742.32ZM155.63 748.49C148.08 747.5 141.79 750.33 135.55 752.61C113.64 760.61 84.78 761.56 59.97 746.13C35.17 730.7 21.69 695.31 40.3 683.03C55.85 672.77 82.53 682.86 103.35 695.55C116.98 703.86 130.79 713.63 145.39 716.43C159.99 719.23 174.8 710.95 170.61 697.4C165.8 681.87 142.29 673.56 134.16 658.4C133.31 656.8 132.72 655.21 132.32 653.65C148.85 667.05 164.76 680.46 179.64 697.01C190.62 709.22 201.33 725.75 215.64 733.42C163.16 732.81 108.19 739.06 55.01 713.24C54.24 712.87 53.89 714.01 54.66 714.4C107.67 741.3 161.32 736.47 213.49 737.76C227.09 738.1 240.72 738.73 254.37 739.53C240.18 742.87 227.71 757.72 217.95 765.12C196.44 781.43 174.41 792.61 145.82 795C144.91 795.08 145.22 796.51 146.15 796.57C167.83 797.99 187.29 788.72 203.8 778.11C213.95 771.59 223.45 764.16 233.08 756.92C242.74 749.66 251.78 741.41 264.97 740.71C265.27 740.7 265.4 740.46 265.42 740.2C272.15 740.65 278.88 741.13 285.62 741.68C259.38 748.34 238.15 764.56 217.32 780.56C203.65 791.06 189.85 801.54 174.31 809.33C164.52 814.24 154.51 817.01 143.98 818.98C143.02 817.32 142.23 815.61 141.66 813.83C135.14 793.51 157.09 783.6 168.92 770.23C170.7 768.22 172.32 765.9 172.29 762.96C172.22 756.17 163.18 749.48 155.63 748.49ZM186.71 682.81C200.4 701.99 214.45 721.36 233.67 733.96C231.19 733.86 228.69 733.73 226.21 733.65C224.16 733.58 222.11 733.53 220.05 733.49C200.14 722.28 187.27 700.14 171.06 683.5C159.15 671.28 145.81 658.91 131.76 648.99C131.84 642.64 135.46 637.14 141.03 633.93C158.95 645.74 172.62 663.08 186.71 682.81ZM294.43 682.24C283.72 665.48 272.53 646.27 258.14 631.76C258.16 631.77 258.17 631.77 258.19 631.78C275.29 636.96 282.04 655.47 293.64 669.66C323.3 705.92 344.44 723.61 392.69 750.89C376.07 747.85 359.46 745.22 342.87 743.03C323.06 725.96 308.59 704.42 294.43 682.24Z" />
		</g>
		<path id="Path 5" class="shp1" d="M838.64 418.35C838.64 378.93 806.68 346.97 767.26 346.97C727.84 346.97 695.88 378.93 695.88 418.35C695.88 456.16 725.27 487.1 762.45 489.57C764.04 489.68 756.42 503.68 747.4 507.11C745.5 507.83 744.88 511.21 747.4 511.61C764.13 514.33 778.01 505.27 789.38 493.79C792.8 490.34 795.19 486.88 796.75 483.35C821.45 472.12 838.64 447.25 838.64 418.35Z" />
		<path id="Path 6" class="shp2" d="M677.88 778.67L228.53 778.67L340.03 734.87L566.38 734.87L677.88 778.67Z" />
		<path id="Path 7" class="shp3" d="M677.87 813.4L228.53 813.4L228.53 778.67L677.87 778.67L677.87 813.4Z" />
		<path id="Path 8" class="shp2" d="M517.28 797.31L395.02 797.31L406.18 785.27L506.11 785.27L517.28 797.31Z" />
		<path id="Path 9" class="shp3" d="M517.28 801.37L395.02 801.37L395.02 796.8L517.28 796.8L517.28 801.37Z" />
		<path id="Path 10" class="shp2" d="M517.28 818.08L395.02 818.08L406.18 806.04L506.11 806.04L517.28 818.08Z" />
		<path id="Path 11" class="shp3" d="M517.28 822.14L395.02 822.14L395.02 817.57L517.28 817.57L517.28 822.14Z" />
		<path id="Path 12" class="shp4" d="M597.86 764.98L310.16 764.98L310.16 561.1L597.86 561.1L597.86 764.98Z" />
		<path id="Path 13" class="shp5" d="M322.58 764.98L322.58 631L345.97 631L345.97 764.98M370.52 764.98L370.52 631L393.91 631L393.91 764.98M418.46 764.98L418.46 631L441.85 631L441.85 764.98M466.39 764.98L466.39 631L489.78 631L489.78 764.98M514.33 764.98L514.33 631L537.72 631L537.72 764.98M562.27 764.98L562.27 631L585.66 631L585.66 764.98" />
		<path id="Path 14" class="shp6" d="M597.86 561.11L310.16 561.11L310.16 297.97L597.86 297.97L597.86 561.11Z" />
		<path id="Path 15" class="shp2" d="M604.15 299.63L305.87 299.63L305.87 280.28L604.15 280.28L604.15 299.63Z" />
		<path id="Path 16" class="shp3" d="M604.15 299.63L305.87 299.63L305.87 293.38L604.15 293.38L604.15 299.63Z" />
		<path id="Path 17" class="shp7" d="M310.16 299.95L310.16 354.48L491.46 354.48L597.86 299.63L310.16 299.95Z" />
		<path id="Path 18" class="shp8" d="M310.16 560.91L310.16 575.63L491.46 575.63L597.86 560.82L310.16 560.91Z" />
		<path id="Path 19" class="shp9" d="M409.71 676.67L409.71 764.98L506.01 764.98L506.09 676.29L409.71 676.67Z" />
		<path id="Path 20" fill-rule="evenodd" class="shp3" d="M393.44 352.01L393.44 340.37L382.42 340.37L382.42 352.01L373.99 352.01L373.99 322.26L382.42 322L382.42 334.12L393.44 334.12L393.44 322.26L401.87 322.26L401.87 352.01L393.44 352.01ZM425.81 321.65C429.14 321.65 432.04 322.32 434.49 323.66C436.95 325 438.83 326.84 440.14 329.17C441.45 331.51 442.11 334.1 442.11 336.96C442.11 339.99 441.42 342.7 440.05 345.07C438.67 347.45 436.75 349.3 434.28 350.63C431.81 351.96 428.99 352.62 425.81 352.62C422.53 352.62 419.67 351.94 417.21 350.59C414.76 349.23 412.87 347.39 411.54 345.05C410.21 342.72 409.55 340.12 409.55 337.26C409.55 334.26 410.24 331.57 411.63 329.2C413.02 326.82 414.95 324.97 417.42 323.64C419.89 322.31 422.69 321.65 425.81 321.65ZM418.21 337.22C418.21 339.79 418.88 341.89 420.22 343.52C421.57 345.15 423.41 345.97 425.76 345.97C428.01 345.97 429.86 345.19 431.29 343.63C432.73 342.07 433.45 339.85 433.45 336.96C433.45 334.42 432.76 332.35 431.39 330.73C430.01 329.11 428.18 328.3 425.9 328.3C424.48 328.3 423.19 328.67 422.03 329.41C420.87 330.16 419.95 331.21 419.25 332.56C418.56 333.92 418.21 335.47 418.21 337.22ZM474.29 328.52L464.24 328.52L464.24 352.01L455.81 352.01L455.81 328.52L446.54 328.52L446.54 322.26L473.5 322.26L474.29 328.52ZM481.04 352.01L481.04 322.26L501.93 322.26L502.71 328.52L489.47 328.52L489.47 333.94L499.15 333.94L499.93 340.2L489.47 340.2L489.47 345.75L503.31 345.75L504.1 352.01L481.04 352.01ZM533.92 352.01L511.31 352.01L511.31 322.26L519.74 322.26L519.74 345.75L533.13 345.75L533.92 352.01Z" />
		<path id="Path 21" fill-rule="evenodd" class="shp2" d="M396.04 352.01L396.04 340.37L385.02 340.37L385.02 352.01L376.59 352.01L376.59 322.26L385.02 322L385.02 334.12L396.04 334.12L396.04 322.26L404.47 322.26L404.47 352.01L396.04 352.01ZM428.4 321.65C431.74 321.65 434.63 322.32 437.09 323.66C439.54 325 441.42 326.84 442.74 329.17C444.05 331.51 444.71 334.1 444.71 336.96C444.71 339.99 444.02 342.7 442.64 345.07C441.27 347.45 439.35 349.3 436.88 350.63C434.41 351.96 431.58 352.62 428.4 352.62C425.13 352.62 422.26 351.94 419.81 350.59C417.35 349.23 415.46 347.39 414.14 345.05C412.81 342.72 412.14 340.12 412.14 337.26C412.14 334.26 412.84 331.57 414.23 329.2C415.62 326.82 417.55 324.97 420.02 323.64C422.49 322.31 425.28 321.65 428.4 321.65ZM420.81 337.22C420.81 339.79 421.48 341.89 422.82 343.52C424.16 345.15 426.01 345.97 428.36 345.97C430.61 345.97 432.46 345.19 433.89 343.63C435.33 342.07 436.04 339.85 436.04 336.96C436.04 334.42 435.36 332.35 433.98 330.73C432.61 329.11 430.78 328.3 428.49 328.3C427.07 328.3 425.79 328.67 424.63 329.41C423.47 330.16 422.54 331.21 421.85 332.56C421.15 333.92 420.81 335.47 420.81 337.22ZM476.88 328.52L466.83 328.52L466.83 352.01L458.4 352.01L458.4 328.52L449.14 328.52L449.14 322.26L476.09 322.26L476.88 328.52ZM483.63 352.01L483.63 322.26L504.52 322.26L505.31 328.52L492.06 328.52L492.06 333.94L501.74 333.94L502.53 340.2L492.06 340.2L492.06 345.75L505.91 345.75L506.7 352.01L483.63 352.01ZM536.51 352.01L513.91 352.01L513.91 322.26L522.34 322.26L522.34 345.75L535.72 345.75L536.51 352.01Z" />
		<path id="Path 22" class="shp10" d="M393.94 446.48L349.07 446.48L349.07 369.44L393.94 369.44L393.94 446.48ZM476.44 446.48L431.58 446.48L431.58 369.44L476.44 369.44L476.44 446.48ZM558.95 446.48L514.08 446.48L514.08 369.44L558.95 369.44L558.95 446.48Z" />
		<path id="Path 23" class="shp11" d="M392.39 446.01L351.91 446.01L351.91 374.65L392.39 374.65L392.39 446.01Z" />
		<path id="Path 24" class="shp12" d="M392.39 446.01L357.05 446.01L357.05 380.69L392.39 380.69L392.39 446.01Z" />
		<path id="Path 25" class="shp2" d="M393.94 442.89L349.07 442.89L349.07 446.48L393.94 446.48L393.94 442.89Z" />
		<path id="Path 26" class="shp11" d="M392.39 396.49L392.39 393.28L373.11 393.28L373.11 374.65L369.9 374.65L369.9 393.28L351.91 393.28L351.91 396.49L369.9 396.49L369.9 417.85L351.91 417.85L351.91 421.07L369.9 421.07L369.9 442.89L373.11 442.89L373.11 421.07L392.39 421.07L392.39 417.85L373.11 417.85L373.11 396.49L392.39 396.49ZM474.9 446.01L434.41 446.01L434.41 374.65L474.9 374.65L474.9 446.01Z" />
		<path id="Path 27" class="shp12" d="M474.9 446.01L439.55 446.01L439.55 380.69L474.9 380.69L474.9 446.01Z" />
		<path id="Path 28" class="shp2" d="M476.44 442.89L431.58 442.89L431.58 446.48L476.44 446.48L476.44 442.89Z" />
		<path id="Path 29" class="shp11" d="M474.9 396.49L474.9 393.28L455.62 393.28L455.62 374.65L452.4 374.65L452.4 393.28L434.41 393.28L434.41 396.49L452.4 396.49L452.4 417.85L434.41 417.85L434.41 421.07L452.4 421.07L452.4 442.89L455.62 442.89L455.62 421.07L474.9 421.07L474.9 417.85L455.62 417.85L455.62 396.49L474.9 396.49ZM557.4 446.01L516.91 446.01L516.91 374.65L557.4 374.65L557.4 446.01Z" />
		<path id="Path 30" class="shp12" d="M557.4 446.01L522.05 446.01L522.05 380.69L557.4 380.69L557.4 446.01Z" />
		<path id="Path 31" class="shp2" d="M558.95 442.89L514.08 442.89L514.08 446.48L558.95 446.48L558.95 442.89Z" />
		<path id="Path 32" class="shp11" d="M557.4 396.49L557.4 393.28L538.12 393.28L538.12 374.65L534.9 374.65L534.9 393.28L516.91 393.28L516.91 396.49L534.9 396.49L534.9 417.85L516.91 417.85L516.91 421.07L534.9 421.07L534.9 442.89L538.12 442.89L538.12 421.07L557.4 421.07L557.4 417.85L538.12 417.85L538.12 396.49L557.4 396.49Z" />
		<path id="Path 33" class="shp10" d="M393.94 549.96L349.07 549.96L349.07 472.92L393.94 472.92L393.94 549.96ZM476.44 549.96L431.58 549.96L431.58 472.92L476.44 472.92L476.44 549.96ZM558.95 549.96L514.08 549.96L514.08 472.92L558.95 472.92L558.95 549.96Z" />
		<path id="Path 34" class="shp11" d="M392.39 549.49L351.91 549.49L351.91 478.13L392.39 478.13L392.39 549.49Z" />
		<path id="Path 35" class="shp12" d="M392.39 549.49L357.05 549.49L357.05 484.17L392.39 484.17L392.39 549.49Z" />
		<path id="Path 36" class="shp2" d="M393.94 546.37L349.07 546.37L349.07 549.96L393.94 549.96L393.94 546.37Z" />
		<path id="Path 37" class="shp11" d="M392.39 499.97L392.39 496.76L373.11 496.76L373.11 478.13L369.9 478.13L369.9 496.76L351.91 496.76L351.91 499.97L369.9 499.97L369.9 521.33L351.91 521.33L351.91 524.55L369.9 524.55L369.9 546.37L373.11 546.37L373.11 524.55L392.39 524.55L392.39 521.33L373.11 521.33L373.11 499.97L392.39 499.97ZM474.9 549.49L434.41 549.49L434.41 478.13L474.9 478.13L474.9 549.49Z" />
		<path id="Path 38" class="shp12" d="M474.9 549.49L439.55 549.49L439.55 484.17L474.9 484.17L474.9 549.49Z" />
		<path id="Path 39" class="shp2" d="M476.44 546.37L431.58 546.37L431.58 549.96L476.44 549.96L476.44 546.37Z" />
		<path id="Path 40" class="shp11" d="M474.9 499.97L474.9 496.76L455.62 496.76L455.62 478.13L452.4 478.13L452.4 496.76L434.41 496.76L434.41 499.97L452.4 499.97L452.4 521.33L434.41 521.33L434.41 524.55L452.4 524.55L452.4 546.37L455.62 546.37L455.62 524.55L474.9 524.55L474.9 521.33L455.62 521.33L455.62 499.97L474.9 499.97ZM557.4 549.49L516.91 549.49L516.91 478.13L557.4 478.13L557.4 549.49Z" />
		<path id="Path 41" class="shp12" d="M557.4 549.49L522.05 549.49L522.05 484.17L557.4 484.17L557.4 549.49Z" />
		<path id="Path 42" class="shp2" d="M558.95 546.37L514.08 546.37L514.08 549.96L558.95 549.96L558.95 546.37Z" />
		<path id="Path 43" class="shp11" d="M557.4 499.97L557.4 496.76L538.12 496.76L538.12 478.13L534.9 478.13L534.9 496.76L516.91 496.76L516.91 499.97L534.9 499.97L534.9 521.33L516.91 521.33L516.91 524.55L534.9 524.55L534.9 546.37L538.12 546.37L538.12 524.55L557.4 524.55L557.4 521.33L538.12 521.33L538.12 499.97L557.4 499.97ZM485.45 764.98L429.31 764.98L429.31 670.26L485.45 670.26L485.45 764.98Z" />
		<path id="Path 44" class="shp12" d="M485.45 764.98L436.44 764.98L436.44 678.25L485.45 678.25L485.45 764.98Z" />
		<path id="Path 45" class="shp11" d="M485.45 701.64L485.45 697.02L458.72 697.02L458.72 670.26L454.26 670.26L454.26 697.02L429.31 697.02L429.31 701.64L454.26 701.64L454.26 732.32L429.31 732.32L429.31 736.94L454.26 736.94L454.26 764.98L458.72 764.98L458.72 736.94L485.45 736.94L485.45 732.32L458.72 732.32L458.72 701.64L485.45 701.64Z" />
		<path id="Path 46" class="shp6" d="M508.06 676.7L406.47 676.7L457.27 641.75L508.06 676.7Z" />
		<path id="Path 47" fill-rule="evenodd" class="shp13" d="M458.01 652.49L492.12 676.7L508.06 676.7L457.27 641.75L406.47 676.7L430.65 676.7L424.04 676.59L458.01 652.49ZM493.57 677.73L430.65 676.7L492.12 676.7L493.57 677.73Z" />
		<path id="Path 48" class="shp5" d="M585.66 613.8L322.58 613.8L322.58 588.25L585.66 588.25L585.66 613.8Z" />
		<path id="Path 49" class="shp11" d="M411.69 778.67L407.74 778.67L407.74 676.7L411.69 676.7L411.69 778.67ZM510.03 778.67L506.09 778.67L506.09 676.7L510.03 676.7L510.03 778.67Z" />
		<path id="Path 50" class="shp3" d="M519.8 678.81L458.06 636.2L458.01 636.28L457.96 636.2L396.21 678.81L408.39 679.07L458.01 644.83L507.62 679.07L519.8 678.81Z" />
		<path id="Path 51" class="shp2" d="M526.51 678.78L458.06 630.93L458.01 631L457.96 630.93L389.28 678.65L401.46 678.9L458.01 639.56L514.33 679.04L526.51 678.78Z" />
		<path id="Path 52" class="shp14" d="M498.71 785.96L495.9 785.94C491.7 785.92 488.32 782.5 488.34 778.3L488.63 729.96C488.66 725.76 492.08 722.38 496.28 722.4L499.09 722.42C503.29 722.44 506.68 725.87 506.65 730.07L506.36 778.4C506.34 782.6 502.91 785.99 498.71 785.96ZM570.11 776L570.07 781.34L493.73 780.88L493.77 775.54L570.11 776ZM570.39 727.9L570.36 733.24L494.02 732.78L494.05 727.44L570.39 727.9Z" />
		<path id="Path 53" class="shp15" d="M586.59 695.85L693.5 696.5C709.98 696.6 723.27 710.04 723.17 726.53L722.81 786.33C722.71 802.81 709.26 816.1 692.78 816L585.87 815.36C569.38 815.26 556.1 801.81 556.2 785.33L556.56 725.53C556.66 709.04 570.1 695.76 586.59 695.85Z" />
		<path id="Path 54" class="shp16" d="M708.28 788.89L708.27 790.47C708.26 792.84 706.33 794.75 703.96 794.74L581.28 794C578.91 793.99 577 792.05 577.02 789.68L577.03 788.1C577.04 785.73 578.98 783.82 581.34 783.83L704.02 784.57C706.39 784.59 708.3 786.52 708.28 788.89ZM708.42 765.51L708.41 767.09C708.4 769.46 706.47 771.37 704.1 771.36L581.42 770.62C579.05 770.61 577.14 768.67 577.16 766.3L577.17 764.72C577.18 762.35 579.12 760.44 581.48 760.45L704.16 761.19C706.53 761.21 708.44 763.14 708.42 765.51ZM708.56 742.13L708.55 743.71C708.54 746.08 706.61 747.99 704.24 747.98L581.56 747.24C579.19 747.22 577.28 745.29 577.3 742.92L577.31 741.33C577.32 738.97 579.26 737.06 581.62 737.07L704.3 737.81C706.67 737.82 708.58 739.76 708.56 742.13ZM708.71 718.74L708.7 720.33C708.68 722.7 706.75 724.61 704.38 724.6L581.7 723.86C579.33 723.84 577.43 721.91 577.44 719.54L577.45 717.95C577.46 715.59 579.4 713.68 581.77 713.69L704.44 714.43C706.81 714.44 708.72 716.37 708.71 718.74Z" />
		<path id="Path 55" class="shp17" d="M708.26 792.93L708.25 794.52C708.23 796.89 706.3 798.79 703.93 798.78L581.26 798.04C578.89 798.03 576.98 796.1 576.99 793.73L577 792.14C577.02 789.77 578.95 787.86 581.32 787.88L703.99 788.61C706.36 788.63 708.27 790.56 708.26 792.93ZM708.4 769.55L708.39 771.13C708.37 773.5 706.44 775.41 704.07 775.4L581.4 774.66C579.03 774.65 577.12 772.71 577.13 770.34L577.14 768.76C577.16 766.39 579.09 764.48 581.46 764.49L704.13 765.23C706.5 765.25 708.41 767.18 708.4 769.55ZM708.54 746.17L708.53 747.75C708.52 750.12 706.58 752.03 704.22 752.02L581.54 751.28C579.17 751.27 577.26 749.33 577.28 746.96L577.29 745.38C577.3 743.01 579.23 741.1 581.6 741.11L704.28 741.85C706.65 741.87 708.56 743.8 708.54 746.17ZM708.68 722.79L708.67 724.37C708.66 726.74 706.72 728.65 704.36 728.64L581.68 727.9C579.31 727.89 577.4 725.95 577.42 723.58L577.43 722C577.44 719.63 579.37 717.72 581.74 717.73L704.42 718.47C706.79 718.49 708.7 720.42 708.68 722.79Z" />
		<path id="Path 56" class="shp15" d="M708.27 790.62L708.26 792.21C708.25 794.58 706.32 796.49 703.95 796.47L581.27 795.73C578.9 795.72 576.99 793.79 577.01 791.42L577.02 789.83C577.03 787.46 578.96 785.55 581.33 785.57L704.01 786.31C706.38 786.32 708.29 788.25 708.27 790.62ZM708.41 767.24L708.4 768.83C708.39 771.2 706.46 773.1 704.09 773.09L581.41 772.35C579.04 772.34 577.13 770.4 577.15 768.03L577.16 766.45C577.17 764.08 579.1 762.17 581.47 762.19L704.15 762.92C706.52 762.94 708.43 764.87 708.41 767.24ZM708.55 743.86L708.54 745.44C708.53 747.81 706.6 749.72 704.23 749.71L581.55 748.97C579.18 748.96 577.27 747.02 577.29 744.65L577.3 743.07C577.31 740.7 579.24 738.79 581.61 738.81L704.29 739.54C706.66 739.56 708.57 741.49 708.55 743.86ZM708.7 720.48L708.69 722.06C708.67 724.43 706.74 726.34 704.37 726.33L581.69 725.59C579.32 725.57 577.42 723.64 577.43 721.27L577.44 719.69C577.45 717.32 579.39 715.41 581.75 715.42L704.43 716.16C706.8 716.18 708.71 718.11 708.7 720.48Z" />
		<path id="Path 57" class="shp18" d="M559.86 735.29L559.86 728.05C559.85 718.44 562.83 710.35 571.39 704.24C574.57 701.96 583.92 698.91 587.42 698.71C599.08 698.02 605.77 700.57 605.77 700.57C605.77 700.57 610.23 706.24 597.75 706.54C585.28 706.84 570.47 708.66 568.22 721.24C565.97 733.82 565.03 744.35 559.86 735.29ZM705.36 811.58C705.36 811.58 718.74 809.7 718.85 791.48L719.06 756.4C719.06 756.4 719.68 744.57 716.34 744.7C713 744.82 713.49 761.94 712.29 773.14C711.09 784.34 713.2 804.39 701.51 804.32C689.82 804.25 689.77 813.16 705.36 811.58Z" />
		<path id="Path 58" class="shp19" d="M497.29 777.21L495.6 777.2C493.08 777.18 491.06 775.13 491.07 772.61L491.34 728.74C491.35 726.22 493.4 724.19 495.92 724.21L497.61 724.22C500.12 724.23 502.15 726.28 502.13 728.8L501.87 772.68C501.86 775.2 499.8 777.22 497.29 777.21Z" />
		<path id="Path 59" class="shp12" d="M748.02 446.35L726.33 446.26L725.07 414.88L746.76 414.97L748.02 446.35ZM798.97 418.35L798.81 419.13C804.63 420.64 801.79 426.68 797.68 427.06L797.5 427.84C803.09 429.13 800.7 435.36 796.38 435.77L796.21 436.55C800.76 437.24 799.94 444.25 793.1 444.23L759.03 444.11C756.63 444.1 754.34 441.58 752.57 441.58L751.03 441.57L750.06 417.43C751.93 416.34 754.24 414.94 755.51 413.93C757.92 412.01 767.48 397.09 767.41 395.21C767.33 393.34 766.8 385.24 766.8 385.24C766.8 385.24 768.68 382.9 773.21 384.63C773.21 384.63 777.21 391.05 777.81 396.15C777.81 396.15 776.54 406.63 775.77 409.92L799.37 410.02C805.18 410.05 804.37 417.6 798.97 418.35Z" />
		<path id="Path 60" class="shp11" d="M739.97 442.58C740.03 444.06 738.76 445.26 737.13 445.25C735.5 445.25 734.13 444.04 734.07 442.56C734.01 441.07 735.29 439.87 736.92 439.88C738.54 439.89 739.91 441.1 739.97 442.58Z" />
		<path id="Path 61" class="shp20" d="M788.83 333.94L526.06 333.94C514.39 333.94 504.93 324.48 504.93 312.81L504.93 232.08C504.93 220.41 514.39 210.95 526.06 210.95L788.83 210.95C800.5 210.95 809.96 220.41 809.96 232.08L809.96 312.81C809.96 324.48 800.5 333.94 788.83 333.94ZM791.22 289.74L523.67 289.74C520.99 289.74 518.82 287.57 518.82 284.9L518.82 284.57C518.82 281.89 520.99 279.73 523.67 279.73L791.22 279.73C793.9 279.73 796.06 281.89 796.06 284.57L796.06 284.9C796.06 287.57 793.9 289.74 791.22 289.74ZM535.36 232.16L538.54 242.26L548.81 242.26L540.5 248.51L543.67 258.61L535.36 252.37L527.05 258.61L530.22 248.51L521.91 242.26L532.19 242.26L535.36 232.16ZM576.54 232.16L579.71 242.26L589.99 242.26L581.68 248.51L584.85 258.61L576.54 252.37L568.23 258.61L571.4 248.51L563.09 242.26L573.36 242.26L576.54 232.16ZM617.71 232.16L620.89 242.26L631.17 242.26L622.85 248.51L626.03 258.61L617.71 252.37L609.4 258.61L612.58 248.51L604.26 242.26L614.54 242.26L617.71 232.16ZM658.89 232.16L662.07 242.26L672.34 242.26L664.03 248.51L667.2 258.61L658.89 252.37L650.58 258.61L653.75 248.51L645.44 242.26L655.72 242.26L658.89 232.16ZM700.07 232.16L703.24 242.26L713.52 242.26L705.21 248.51L708.38 258.61L700.07 252.37L691.76 258.61L694.93 248.51L686.62 242.26L696.89 242.26L700.07 232.16Z" />
		<path id="Path 62" class="shp1" d="M796.83 327.94L534.06 327.94C522.39 327.94 512.93 318.48 512.93 306.81L512.93 226.08C512.93 214.41 522.39 204.95 534.06 204.95L796.83 204.95C808.5 204.95 817.96 214.41 817.96 226.08L817.96 306.81C817.96 318.48 808.5 327.94 796.83 327.94Z" />
		<path id="Path 63" class="shp12" d="M799.22 283.74L531.67 283.74C528.99 283.74 526.82 281.57 526.82 278.9L526.82 278.57C526.82 275.89 528.99 273.73 531.67 273.73L799.22 273.73C801.9 273.73 804.06 275.89 804.06 278.57L804.06 278.9C804.06 281.57 801.9 283.74 799.22 283.74Z" />
		<path id="Path 64" class="shp15" d="M543.36 226.16L546.54 236.26L556.81 236.26L548.5 242.51L551.67 252.61L543.36 246.37L535.05 252.61L538.22 242.51L529.91 236.26L540.19 236.26L543.36 226.16ZM584.54 226.16L587.71 236.26L597.99 236.26L589.68 242.51L592.85 252.61L584.54 246.37L576.23 252.61L579.4 242.51L571.09 236.26L581.36 236.26L584.54 226.16ZM625.71 226.16L628.89 236.26L639.17 236.26L630.85 242.51L634.03 252.61L625.71 246.37L617.4 252.61L620.58 242.51L612.26 236.26L622.54 236.26L625.71 226.16ZM666.89 226.16L670.07 236.26L680.34 236.26L672.03 242.51L675.2 252.61L666.89 246.37L658.58 252.61L661.75 242.51L653.44 236.26L663.72 236.26L666.89 226.16ZM708.07 226.16L711.24 236.26L721.52 236.26L713.21 242.51L716.38 252.61L708.07 246.37L699.76 252.61L702.93 242.51L694.62 236.26L704.89 236.26L708.07 226.16Z" />
		<path id="Path 65" class="shp21" d="M599.42 542.18C602.39 527.12 618.94 527.73 624.79 523.72C630.22 519.99 632.77 513.7 636.73 508.5C642.76 500.6 650.48 495.03 660.04 492.29C670.47 489.31 678.72 491.4 684.97 496.53C692.97 499.1 699.9 505.14 703.06 513.01C705.41 518.85 705.87 525.52 709.33 530.76C713.64 537.29 721.83 540.38 726.13 546.91C732.68 556.84 725.68 572.69 713.94 574.55C710.47 575.09 706.53 574.72 703.85 577.05C701.43 579.14 700.98 582.65 700.08 585.72C697.88 593.16 691.96 599.4 684.68 601.94C677.4 604.48 668.96 603.25 662.75 598.75C660.79 597.33 658.81 595.52 656.39 595.54C654.2 595.56 652.35 597.08 650.51 598.3C643.71 602.81 634.73 603.77 627.2 600.79C619.67 597.8 613.79 590.96 611.93 583.01C610.91 578.64 611.05 574.08 610.46 569.63C609.1 559.51 596.38 557.65 599.42 542.18Z" />
		<path id="Path 66" class="shp22" d="M649.07 643.9C649.07 643.9 628.4 677.19 645.22 691.97C662.03 706.76 729.32 698.01 729.32 698.01C729.32 698.01 714.7 727.05 736.21 796.05L741.14 795.02L748.22 680.39L682.89 660.93L672.56 642.17L649.07 643.9Z" />
		<path id="Path 67" class="shp23" d="M732.58 789.2C732.58 789.2 731.04 788.8 729.27 794.45C729.27 794.45 729.86 797.44 733.81 798.69C737.75 799.93 753.25 814.59 759.83 813.98C759.83 813.98 763.36 808.71 756.18 805.17C748.99 801.63 744.41 788.94 743.78 788.53C743.14 788.12 741.73 789.96 742.36 791.74C742.36 791.74 741.44 791.47 740.05 790.02C738.66 788.57 734.4 791.64 732.58 789.2Z" />
		<path id="Path 68" class="shp24" d="M760.91 812.92C760.93 812.75 760.7 812.42 760.5 812.4L760.38 812.79C759.31 812.86 757.1 812.74 754.31 811.21C750.33 809.02 739.12 801.13 737.19 799.51C735.34 797.95 731.84 797.51 729.49 793.75C729.49 793.75 729.75 793.22 729.71 793.14C729.65 793.05 729.19 793.22 729.11 793.32L728.23 795.16C728.23 795.16 730.76 798.24 734.7 800.34C738.64 802.44 747.35 809.39 751.32 811.81C755.3 814.23 760.3 814.32 760.3 814.32C760.3 814.32 760.9 813.06 760.91 812.92ZM643.63 649.88L644.26 585.32C644.26 585.32 643.45 567.68 655.07 567.78L668.23 571.92C672.63 578.06 677.2 584.62 681.68 590.27C683.34 592.35 683.28 595.31 681.53 597.32L679.14 600.06L677.31 646.71C677.31 646.71 682.87 650.8 667.98 652.39C652.01 654.09 643.63 649.88 643.63 649.88Z" />
		<path id="Path 69" class="shp25" d="M656.95 583.09C655 584.12 652.82 582.81 652.96 580.69C653.21 576.88 653.26 573.34 653.01 569.74L652.49 554.55C652.18 550.24 655.05 554.02 659.01 553.5C662.68 553.02 666.14 555.51 667.18 559.36L668.34 573.21C668.24 581.82 661.81 580.52 656.95 583.09Z" />
		<path id="Path 70" class="shp26" d="M692.98 543.43C686.74 565.57 676.43 567.29 663.86 561.92C648.93 555.54 637.69 539.29 639.34 524.99C640.98 510.69 657.77 505.74 671.37 507.09C684.98 508.44 700.02 518.42 692.98 543.43Z" />
		<path id="Path 71" class="shp27" d="M683.98 551.63C681.27 554.97 676.14 555.64 672.53 553.12C668.92 550.61 668.2 545.86 670.92 542.52C673.63 539.19 678.76 538.52 682.37 541.03C685.98 543.55 686.7 548.29 683.98 551.63Z" />
		<path id="Path 72" class="shp21" d="M696.71 514.06C697.37 512.63 697.34 511.32 696.88 510.2C697.07 507.82 694.07 506.32 691.74 506.82C691.45 506.8 691.16 506.79 690.87 506.82C690.23 506.73 689.57 506.78 688.93 506.97C686.25 505.36 683.3 504.13 680.22 503.31C679.34 502.96 678.36 502.76 677.3 502.68C673.97 502.09 670.55 501.95 667.17 502.28C666.01 501.98 664.75 502.05 663.5 502.64C663.28 502.75 663.05 502.87 662.82 502.98C661.9 503.18 652.85 502.52 651.95 502.8C639.61 506.66 638.65 521.23 633.18 531.45C632.03 533.59 637.63 548.43 639.72 549.51C650.38 555.01 663.72 540.69 674.41 536.01C682.39 532.51 688.38 527.1 692.46 520.39C694.17 518.5 695.62 516.4 696.71 514.06Z" />
		<path id="Path 73" class="shp27" d="M691.89 536.1C691.55 538.01 691.99 539.83 693.16 541.38C694.33 542.92 696.74 544.34 698.7 543.72C700.29 543.21 700.43 541.26 699.14 540.35C698.62 539.98 698.06 539.86 697.49 539.61C696.95 539.38 696.43 539 695.98 538.61C695.2 537.93 694.75 537.12 694.6 536.1C694.4 534.74 692.12 534.77 691.89 536.1Z" />
		<path id="Path 74" class="shp26" d="M665.12 542.4C665.24 542.4 665.36 542.4 665.48 542.41C665.71 542.99 665.95 543.57 666.19 544.16C667.45 539.27 662.37 530.23 656.56 532.99C649.66 536.26 655.61 545.64 659.47 548.74C661.9 550.69 665.69 550.8 666.63 547.15C667.31 544.52 664.88 541.05 663.23 539.17C661.22 536.9 657.56 537.54 656.69 540.57C655.66 544.16 659.42 545.94 662.37 545.45C664.9 545.03 664.95 540.67 662.37 540.3C661.04 539.89 660.8 540.79 661.66 542.99C660.93 543.09 660.21 543.18 659.48 543.28C658.65 542.43 658.55 542.44 659.18 543.31C659.44 543.75 659.71 544.19 659.98 544.62C660.25 545.06 660.52 545.49 660.79 545.93C661.38 547.32 662.25 546.77 663.39 544.26C663.16 543.63 661.8 542.8 661.34 542.23C660.77 541.5 660.25 540.66 659.89 539.81C659.71 539.38 659.56 538.95 659.45 538.51C659.45 537.74 659.32 537.81 659.05 538.72C659.35 539.48 660.36 540.26 660.78 541.04C661.61 542.62 661.8 544.16 663.34 545.21C664.1 545.73 665.08 545.45 665.72 544.91C665.25 545.31 666.28 544.51 666.49 544.19C667.16 543.2 666.06 542.27 665.12 542.4Z" />
		<path id="Path 75" class="shp25" d="M661.87 540.68C662.97 539.74 662.59 538.02 661.57 537.21C660.61 536.44 659.28 536.38 658.19 536.88C656.6 537.61 655.98 539.44 656.36 541.07C656.64 542.32 657.41 543.37 658.21 544.34C658.93 545.21 659.8 546.05 660.87 546.46C662.45 547.07 664.4 546.6 665.3 545.08C666.66 542.77 665.11 539.84 663.56 538.04C661.69 535.89 657.73 538.17 658.7 540.87C658.99 541.65 659.34 542.31 659.79 543C659.85 543.1 660.12 543.64 660.21 543.66C660.17 543.57 660.14 543.48 660.1 543.39C659.99 542.48 660.45 541.73 661.47 541.15L662.99 541.15C662.39 541.06 662.86 541.11 662.95 541.17C663.07 541.27 662.58 540.8 662.51 540.74C662.37 540.59 661.91 539.82 661.74 539.77C661.77 539.78 661.76 540.04 661.75 540.06C661.77 540.47 661.62 540.79 661.3 541.01C660.98 541.28 660.92 541.36 661.1 541.24C661.31 541.23 661.67 540.87 661.81 540.74C662.18 540.39 660.9 541.5 661.87 540.68Z" />
		<path id="Path 76" class="shp26" d="M650.48 583.16C650.48 583.16 660.4 621.26 667.65 629.94C674.9 638.63 718.86 604.06 718.86 604.06L716.55 596.64C716.55 596.64 681.06 616.43 679.1 612.36C677.17 608.34 671.12 576.7 671.12 576.7C671.12 576.7 665.9 563.96 655.82 567.54C645.75 571.12 650.48 583.16 650.48 583.16Z" />
		<path id="Path 77" class="shp21" d="M726.24 611.98L721.63 610.69L731.41 572.7L736.03 573.99L726.24 611.98Z" />
		<path id="Path 78" class="shp26" d="M715.41 602.17C718.76 604.25 723.67 605.33 727.56 605.8C731.11 606.23 733.18 603.77 733.2 600.33C733.22 596.63 730.26 595.47 727.07 595.39C723.37 595.3 717.73 595.1 714.86 597.73C713.43 599.04 714.29 601.25 715.94 601.8C718.16 602.56 720.55 601.7 722.85 601.51C723.9 601.43 724.96 601.38 726.02 601.36C726.72 601.35 727.43 601.36 728.13 601.38C727.08 600.93 726.98 600.59 727.84 600.34C728.71 600.01 728.56 599.84 727.37 599.82C726.69 599.69 726 599.55 725.32 599.41C724.29 599.22 723.26 599.07 722.22 598.91C720.05 598.59 718.06 598.31 715.87 598.62C714.11 598.86 714.13 601.38 715.41 602.17ZM729.56 599.89C731.62 599.51 732.78 597.43 733.52 595.64C734.3 593.76 735.96 590.3 734.66 588.43C734.31 587.94 733.65 587.67 733.09 588.02C731.48 589.03 731.52 591.13 731.01 592.83C730.42 594.8 729.77 596.36 728.42 597.93C727.64 598.84 728.39 600.1 729.56 599.89ZM731.8 603.42C734.14 601.96 734.94 598.21 735.32 595.63C735.65 593.4 736.14 589.49 734.14 587.94C733.85 587.71 733.36 587.59 733.08 587.94C731.66 589.7 732.16 592.5 731.79 594.65C731.36 597.16 729.73 599.87 729.93 602.34C730 603.24 730.94 603.95 731.8 603.42Z" />
	</g>
</svg>