<svg xmlns="http://www.w3.org/2000/svg" viewBox="0 0 963 863" width="963" height="863">
	<defs>
		<clipPath clipPathUnits="userSpaceOnUse" id="cp1">
			<path d="M-14 -41L986 -41L986 959L-14 959Z" />
		</clipPath>
	</defs>
	<style>
		tspan { white-space:pre }
		.shp0 { fill: #dadaef } 
		.shp1 { fill: #542bd8 } 
		.shp2 { fill: #f7ad89 } 
		.shp3 { fill: #6b5efd } 
		.shp4 { fill: #2e3062 } 
		.shp5 { fill: #fa8465 } 
		.shp6 { fill: #fa664d } 
		.shp7 { fill: #fff9ff } 
		.shp8 { fill: #001030 } 
		.shp9 { fill: #524e82 } 
		.shp10 { fill: #3700b1 } 
		.shp11 { fill: #ff495a } 
		.shp12 { fill: #e21c47 } 
		.shp13 { fill: #f68601 } 
		.shp14 { fill: #fda803 } 
		.shp15 { fill: #e65913 } 
		.shp16 { fill: #000b29 } 
		.shp17 { fill: #112129 } 
	</style>
	<g id="Page 1" clip-path="url(#cp1)">
		<path id="Path 2" class="shp0" d="M428.36 257.25C393.92 132.31 238.73 92.07 149.79 185.44C148.51 186.78 147.24 188.14 145.96 189.53C18.45 328.14 75.18 674.44 343.66 753.36C622.28 835.26 887.7 684.77 903.25 543.44C918.8 402.12 796.03 357.71 605.5 397.23C497.86 419.56 449.8 335.02 428.36 257.25ZM57.76 415.23C68.4 403.05 73.23 386.9 71.63 370.8C70.08 355.1 64.89 336.98 49.19 337.53C21.63 338.48 19.67 407.18 35.67 421.61C42.92 428.15 51.04 422.91 57.76 415.23ZM778.29 759.77C794.11 763.16 810.57 759.53 823.87 750.32C836.83 741.33 850.15 728 842.05 714.54C827.83 690.91 766.82 722.57 761.99 743.57C759.8 753.08 768.32 757.64 778.29 759.77ZM908.05 628.02C915.27 623.5 920.16 616.09 921.8 607.74C923.4 599.6 923.54 589.68 915.55 587.57C901.52 583.86 890.09 618.17 895.96 627.88C898.62 632.27 903.51 630.87 908.05 628.02ZM401.01 142.88C398.2 132.7 391.14 124.26 381.79 119.34C372.68 114.54 360.95 110.85 355.6 119.6C346.2 134.96 382.93 160.73 396.54 157.2C402.71 155.6 402.78 149.29 401.01 142.88ZM339.23 118.8C339.25 113.95 336.68 110.66 332.33 109.53C328.08 108.43 322.24 108.3 317.99 113.65C310.53 123.04 326.65 130.8 334.61 126.9C338.22 125.13 339.22 121.85 339.23 118.8ZM73.2 316.2C73.22 309.79 69.82 305.43 64.06 303.94C58.45 302.48 50.72 302.32 45.09 309.39C35.21 321.81 56.55 332.08 67.09 326.92C71.87 324.58 73.19 320.25 73.2 316.2ZM934.26 567.38C934.27 562.53 931.7 559.24 927.35 558.11C923.11 557.01 917.26 556.89 913.01 562.23C905.55 571.62 921.67 579.38 929.64 575.48C933.25 573.71 934.24 570.43 934.26 567.38Z" />
		<path id="Path 3" fill-rule="evenodd" class="shp0" d="M757.95 337.58L714.28 337.58C713.11 337.58 712.16 336.63 712.16 335.47L712.16 299.44C712.16 298.27 713.11 297.32 714.28 297.32L757.95 297.32C759.12 297.32 760.07 298.27 760.07 299.44L760.07 335.47C760.07 336.63 759.12 337.58 757.95 337.58ZM715.29 334.45L756.94 334.45L756.94 300.45L715.29 300.45L715.29 334.45Z" />
		<path id="Path 4" fill-rule="evenodd" class="shp0" d="M772.81 330.47C772.28 330.47 771.76 330.35 771.26 330.12L761.95 325.67C760.71 325.08 759.91 323.81 759.91 322.43L759.91 312.47C759.91 311.09 760.71 309.82 761.95 309.23L771.26 304.78C772.38 304.25 773.68 304.33 774.72 304.99C775.77 305.65 776.4 306.78 776.4 308.02L776.4 326.88C776.4 328.12 775.77 329.25 774.72 329.92C774.14 330.28 773.48 330.47 772.81 330.47ZM772.81 307.56C772.75 307.56 772.68 307.57 772.61 307.61L763.3 312.05C763.14 312.13 763.04 312.29 763.04 312.47L763.04 322.43C763.04 322.61 763.14 322.77 763.3 322.85L772.61 327.3C772.81 327.39 772.98 327.32 773.06 327.27C773.14 327.22 773.27 327.1 773.27 326.88L773.27 308.02C773.27 307.8 773.14 307.69 773.06 307.64C773 307.6 772.92 307.56 772.81 307.56ZM97.34 228C97.34 243.4 84.81 255.94 69.41 255.94C54 255.94 41.47 243.4 41.47 228C41.47 212.59 54 200.06 69.41 200.06C84.81 200.06 97.34 212.59 97.34 228ZM47 240.56C50.62 246.98 56.92 251.61 64.07 253.13C62.85 252.04 61.69 250.81 60.63 249.47C58.58 246.86 56.95 243.87 55.77 240.56L47 240.56ZM53.68 226.28C53.8 222.95 54.41 219.66 55.48 216.49L46.44 216.49C44.9 219.56 44 222.85 43.77 226.28L53.68 226.28ZM55.91 228.52C55.99 232 56.49 235.29 57.4 238.31L68.28 238.31L68.28 228.52L55.91 228.52ZM56.33 214.24C57.33 211.84 58.59 209.53 60.09 207.38C61.2 205.79 62.41 204.3 63.7 202.95C57.13 204.44 51.37 208.51 47.72 214.24L56.33 214.24ZM57.86 216.49C56.71 219.65 56.06 222.94 55.93 226.28L68.28 226.28L68.28 216.49L57.86 216.49ZM68.28 214.24L68.28 202.33C68.04 202.34 67.81 202.35 67.57 202.37C66.6 203.19 64.25 205.33 61.9 208.71C60.69 210.46 59.64 212.31 58.78 214.24L68.28 214.24ZM53.67 228.52L43.72 228.52C43.79 231.93 44.52 235.22 45.88 238.31L55.06 238.31C54.21 235.25 53.74 231.96 53.67 228.52ZM85.41 228.52C85.33 231.96 84.86 235.25 84.01 238.31L92.93 238.31C94.3 235.22 95.02 231.93 95.09 228.52L85.41 228.52ZM95.04 226.28C94.81 222.85 93.91 219.56 92.37 216.49L83.59 216.49C84.66 219.66 85.27 222.95 85.39 226.28L95.04 226.28ZM83.15 226.28C83.01 222.93 82.36 219.64 81.21 216.49L70.53 216.49L70.53 226.28L83.15 226.28ZM91.09 214.24C87.51 208.62 81.87 204.58 75.44 203.02C76.71 204.36 77.89 205.82 78.98 207.38C80.48 209.53 81.74 211.84 82.74 214.24L91.09 214.24ZM80.29 214.24C77.31 207.64 72.93 203.58 71.53 202.4C71.2 202.37 70.86 202.35 70.53 202.33L70.53 214.24L80.29 214.24ZM70.53 240.56L70.53 253.66C71.38 253.16 74.05 251.43 76.73 248.01C78.45 245.81 79.85 243.31 80.9 240.56L70.53 240.56ZM75.08 253.06C82.18 251.46 88.21 246.96 91.81 240.56L83.3 240.56C82.13 243.87 80.49 246.86 78.44 249.47C77.41 250.78 76.28 251.98 75.08 253.06ZM81.67 238.31C82.58 235.28 83.08 231.98 83.16 228.52L70.53 228.52L70.53 238.31L81.67 238.31ZM58.17 240.56C61.27 248.61 66.58 252.44 68.28 253.5L68.28 240.56L58.17 240.56Z" />
		<path id="Path 5" class="shp1" d="M436.65 662.68C436.65 662.68 465.47 688.16 492.06 707.12C498.06 711.39 504 715.34 509.62 718.06C518.72 722.46 526.77 723.85 531.76 719.36C550.26 702.74 574.5 604.91 574.5 604.91C568.17 605.1 561.6 603.62 554.67 599.65C554.67 599.65 544.31 624.59 532.77 643.38C522.12 660.71 513.86 673.75 513.86 673.75C511.04 671.34 508.01 668.69 504.84 665.86C501.48 662.87 497.96 659.68 494.37 656.4C468.34 632.56 437.09 607.88 437.09 607.88L436.65 662.68Z" />
		<path id="Path 6" class="shp2" d="M569.92 605.76C561.79 606.42 554.13 601.45 551.61 593.7C551.16 592.33 550.87 590.88 550.85 589.39C550.72 581.72 548.02 565.05 555.96 563.3C558.85 562.66 556.58 570.58 560.24 576.29C560.24 576.29 567.47 569.93 571.91 564.22C575.81 559.21 584.35 550.45 588.34 546.42C589.43 545.31 591.33 546.31 590.93 547.8C590.29 550.2 588.18 554.11 582.51 560.33C582.51 560.33 596.91 545.99 600.36 547.29C603.81 548.59 585.48 566.2 585.48 566.2C585.48 566.2 600.92 554.28 603.07 556.46C604.38 557.79 590.11 572.61 590.11 572.61C590.11 572.61 605.61 562.62 603.57 567.47C602.98 568.89 576.47 586.09 574.5 604.91C574.5 604.91 572.71 605.53 569.92 605.76Z" />
		<path id="Path 7" class="shp3" d="M446.18 776.26C435.13 734.08 442.97 687.34 444.39 657.21C444.97 644.96 445.86 614.92 445.86 614.92C440.33 610.23 410.36 587.07 410.36 587.07L380.4 580.92C380.4 580.92 319.64 591.47 302.06 617.08C296.13 625.72 291.17 653.47 287.13 685.5C286.97 686.77 286.8 688.05 286.64 689.34C283 719 280.12 751.79 277.96 776.26L446.18 776.26Z" />
		<path id="Path 8" class="shp1" d="M390.95 624.61C391.66 624.61 392.3 624.1 392.43 623.37C392.58 622.55 392.03 621.77 391.21 621.62C372.83 618.32 367.35 598.32 367.3 598.12C367.08 597.31 366.26 596.83 365.46 597.04C364.65 597.25 364.17 598.08 364.38 598.88C364.62 599.78 370.38 620.94 390.68 624.59C390.77 624.6 390.86 624.61 390.95 624.61ZM349.19 754.16C370 754.16 389.65 743.28 403.07 733.54C419.28 721.77 430.15 709.07 430.26 708.94C430.8 708.31 430.72 707.36 430.08 706.82C429.45 706.28 428.5 706.36 427.96 706.99C427.86 707.11 417.18 719.58 401.24 731.14C386.65 741.73 364.51 753.7 341.94 750.66C341.11 750.55 340.35 751.13 340.24 751.95C340.13 752.78 340.71 753.54 341.53 753.65C344.1 753.99 346.66 754.16 349.19 754.16ZM363.98 766.23C390.76 766.23 410.19 749.49 411.02 748.77C411.65 748.22 411.71 747.27 411.16 746.65C410.61 746.02 409.66 745.95 409.04 746.5C408.84 746.67 389.59 763.21 363.95 763.21C363.59 763.21 363.22 763.21 362.85 763.2C362.84 763.2 362.83 763.2 362.82 763.2C362.01 763.2 361.33 763.86 361.32 764.68C361.3 765.51 361.97 766.2 362.8 766.22C363.19 766.22 363.59 766.23 363.98 766.23Z" />
		<path id="Path 9" class="shp4" d="M452.3 511.06C447.7 538.34 421.85 556.72 394.58 552.12C367.3 547.52 348.92 521.67 353.52 494.39C358.13 467.12 383.97 448.74 411.25 453.34C438.52 457.94 456.91 483.79 452.3 511.06ZM442.46 453.4C437.46 453.8 434.6 447.96 419.51 445.06C403.99 442.07 373.67 440.75 367.27 455.01C367.27 455.01 347.37 465.46 352.89 505.52L448.78 513.07C448.78 513.07 461.3 503.91 460.3 489.98C460.3 489.98 459.64 476.55 461.96 468.92C463.49 463.88 462.31 451.84 442.46 453.4Z" />
		<path id="Path 10" class="shp5" d="M441.67 523.48C441.67 523.48 451.26 514.37 455.62 523.98C459.98 533.59 447.46 557.68 434.26 549.05L441.67 523.48Z" />
		<path id="Path 11" class="shp6" d="M438.7 541.7C439.23 541.79 439.77 541.53 440.01 541.02C443.54 533.53 452.23 531.71 452.32 531.7C452.98 531.57 453.41 530.92 453.28 530.26C453.15 529.6 452.5 529.17 451.85 529.3C451.44 529.38 441.87 531.35 437.8 539.98C437.51 540.59 437.78 541.32 438.38 541.6C438.49 541.65 438.59 541.69 438.7 541.7ZM447.6 539.13C447.82 539.17 448.05 539.14 448.28 539.05C448.9 538.78 449.18 538.07 448.92 537.45C448.88 537.34 447.8 534.9 445.02 533.04C444.46 532.67 443.7 532.82 443.32 533.38C442.95 533.94 443.1 534.7 443.66 535.07C445.82 536.51 446.67 538.39 446.68 538.41C446.85 538.8 447.2 539.06 447.6 539.13Z" />
		<path id="Path 12" class="shp2" d="M376.88 561.59L372.61 586.93C372.61 586.93 381.14 599.85 391.21 602.46C401.27 605.07 409.52 593.99 409.52 593.99L413.63 569.63L376.88 561.59Z" />
		<path id="Path 13" class="shp5" d="M376.88 561.59L374.99 572.83C380.56 581.6 392.42 585.55 410.88 585.94L413.63 569.63L376.88 561.59Z" />
		<path id="Path 14" class="shp2" d="M361.15 492.02C359.96 501.95 358.82 514.42 359.04 524.58C359.09 527.11 359.23 529.51 359.47 531.68C361.66 551.25 369.59 585.52 409.17 578.48C426.66 575.38 437.4 558.3 443.96 540.2C448.41 527.9 450.92 515.14 452.3 505.95C453.7 496.57 450.03 487.17 442.68 481.18C422.75 464.97 398.71 465.7 382.4 469.01C371.09 471.29 362.53 480.58 361.15 492.02Z" />
		<path id="Path 15" class="shp7" d="M385.78 544.34C386.04 549.33 387.94 558.72 398.74 560.29C409.56 561.87 413.78 554.15 415.64 548.69L385.78 544.34Z" />
		<path id="Path 16" class="shp4" d="M422.35 523.62C421.89 526.33 422.91 528.75 424.63 529.04C426.35 529.33 428.12 527.38 428.57 524.67C429.03 521.97 428.01 519.54 426.29 519.25C424.57 518.96 422.8 520.92 422.35 523.62ZM385.89 517.47C385.43 520.18 386.46 522.6 388.18 522.89C389.9 523.18 391.66 521.23 392.12 518.52C392.57 515.82 391.55 513.39 389.83 513.1C388.11 512.81 386.35 514.76 385.89 517.47ZM440.34 510.36C440.34 510.36 428.07 503.34 417.43 506.21L417.6 510.98C417.6 510.98 428.79 510.13 438.84 515.63C439.81 513.58 440.86 512.68 440.34 510.36ZM378.72 501.13C378.72 501.13 392.45 497.79 401.87 503.51L400.39 508.05C400.39 508.05 389.87 504.12 378.69 506.61C378.33 504.37 377.57 503.21 378.72 501.13Z" />
		<path id="Path 17" class="shp5" d="M401.86 541.27C399.83 540.93 397.95 539.8 397.66 539.62C397.08 539.26 396.91 538.51 397.26 537.94C397.62 537.37 398.37 537.19 398.94 537.55C399.95 538.17 402.45 539.3 403.69 538.81C403.93 538.72 404.27 538.51 404.47 537.8C405.62 533.66 406.84 519.38 406.86 519.24C406.91 518.57 407.51 518.07 408.18 518.13C408.85 518.18 409.35 518.78 409.29 519.45C409.24 520.04 408.03 534.1 406.83 538.45C406.37 540.08 405.35 540.79 404.58 541.09C403.73 541.42 402.78 541.43 401.86 541.27ZM396.23 566.95C393.11 566.42 390.74 564.4 390.64 564.31C390.13 563.87 390.07 563.1 390.51 562.59C390.95 562.08 391.72 562.02 392.23 562.46C392.25 562.48 394.21 564.13 396.63 564.54C398.86 564.91 401.21 564 401.23 563.99C401.86 563.73 402.57 564.03 402.82 564.66C403.08 565.28 402.78 565.99 402.15 566.25C402.03 566.3 399.17 567.44 396.23 566.95Z" />
		<path id="Path 18" class="shp4" d="M441.56 531.72C443.3 526.91 445.28 520.66 445.18 517.26C444.99 511.25 440.76 507.02 443.31 501.69C445.86 496.34 440.95 489.32 436.75 487.58C432.57 485.83 422.01 486.28 412.78 479.83C403.98 473.66 389.53 476.19 385.78 481.87C381.25 488.76 380.58 491.33 372.53 494.67C368.04 496.54 371.25 506.32 370.94 511.84C370.79 514.38 370.62 515.6 370.07 518.26L369.81 519.61L359.09 517.8C359.32 509.2 360.21 499.83 361.15 492.01C362.52 480.57 371.09 471.3 382.4 469.01C398.71 465.7 422.74 464.96 442.68 481.18C450.03 487.17 453.7 496.57 452.29 505.95C451.21 513.24 449.4 522.78 446.47 532.55L441.56 531.72Z" />
		<path id="Path 19" class="shp2" d="M363.06 523.24C363.56 520.44 363.84 517.6 363.81 514.76C363.78 510.87 363.26 507.26 359.67 505.03C356.77 503.24 353.46 502.66 350.5 505.76C343.23 513.41 345.18 541.34 360.47 537.53L363.06 523.24Z" />
		<path id="Path 20" class="shp5" d="M359.04 529.24C358.54 529.05 358.2 528.55 358.26 527.99C359.01 519.74 352.44 513.78 352.37 513.72C351.87 513.27 351.82 512.5 352.27 511.99C352.72 511.49 353.49 511.45 353.99 511.89C354.3 512.16 361.55 518.71 360.69 528.21C360.63 528.88 360.03 529.38 359.36 529.32C359.25 529.31 359.14 529.28 359.04 529.24ZM352.67 522.52C352.46 522.44 352.27 522.3 352.13 522.1C351.73 521.56 351.84 520.79 352.39 520.39C352.48 520.33 354.64 518.76 357.98 518.58C358.65 518.54 359.23 519.05 359.27 519.73C359.31 520.4 358.79 520.98 358.12 521.01C355.53 521.16 353.85 522.35 353.83 522.36C353.49 522.62 353.05 522.66 352.67 522.52Z" />
		<path id="Path 21" class="shp2" d="M505.35 730.81C505.35 730.81 532.32 729.9 545.05 736.76C557.77 743.62 573.94 748.46 572.72 753.6C571.51 758.74 554.13 751.91 554.13 751.91C554.13 751.91 552.2 761.11 540.38 767.35C528.56 773.59 497.28 757.46 497.28 757.46L505.35 730.81Z" />
		<path id="Path 22" class="shp1" d="M314.12 605.41C333.16 624.48 386.14 691.87 400.51 698.16C419.21 706.35 476.11 725.29 505.02 730.88C510.24 731.89 499.37 757.71 499.37 757.71C499.37 757.71 418.18 751.02 386.43 738.82C377.45 735.37 346.49 711.7 317.96 686.04C309.14 678.11 289.5 663.61 289.76 648.35C290.16 624.61 302.56 610.8 314.12 605.41Z" />
		<path id="Path 23" class="shp8" d="M427.12 776.08L634.72 776.08C637.27 776.08 639.34 774.01 639.34 771.45L639.34 754.6C639.34 752.04 637.27 749.97 634.72 749.97L427.12 749.97C424.57 749.97 422.5 752.04 422.5 754.6L422.5 771.45C422.5 774.01 424.57 776.08 427.12 776.08Z" />
		<path id="Path 24" class="shp4" d="M639.3 776.08L680.06 637.1C682.35 629.29 675.89 621.63 667.01 621.63L577.32 621.63C571.27 621.63 565.96 625.3 564.32 630.6L519.44 776.08L639.3 776.08Z" />
		<path id="Path 25" class="shp8" d="M564.31 630.6L519.8 774.88L509.56 774.88L554.07 630.6C555.71 625.3 561.02 621.63 567.07 621.63L577.32 621.63C571.27 621.63 565.96 625.3 564.31 630.6Z" />
		<path id="Path 26" class="shp9" d="M587.37 703.93C585.08 713.78 591.38 721.73 601.45 721.69C611.51 721.66 621.54 713.65 623.83 703.8C626.13 693.96 619.82 686.01 609.75 686.04C599.69 686.08 589.66 694.09 587.37 703.93Z" />
		<path id="Path 27" class="shp10" d="M855.63 790.52L855.63 791.9C855.63 799.87 849.16 806.33 841.19 806.33L92.52 806.33C84.55 806.33 78.09 799.87 78.09 791.9L78.09 790.52C78.09 782.55 84.55 776.09 92.52 776.09L841.19 776.09C849.16 776.09 855.63 782.55 855.63 790.52Z" />
		<path id="Path 28" class="shp1" d="M855.63 790.52L855.63 791.21L78.09 791.21L78.09 790.52C78.09 782.55 84.55 776.09 92.52 776.09L841.19 776.09C849.16 776.09 855.63 782.55 855.63 790.52Z" />
		<path id="Path 29" class="shp4" d="M111.03 206.71L111.03 520.97C111.03 530.82 119.01 538.8 128.86 538.8L285.36 538.8C290.31 538.8 294.78 536.79 298.01 533.54C301.21 530.31 303.19 525.87 303.19 520.97L303.19 206.71C303.19 196.86 295.21 188.88 285.36 188.88L128.86 188.88C125.95 188.88 123.2 189.57 120.77 190.81C114.99 193.76 111.03 199.77 111.03 206.71Z" />
		<path id="Path 30" class="shp7" d="M294.29 205.62L294.29 522.04C294.29 523.14 294.07 524.18 293.67 525.12C292.47 527.94 289.68 529.9 286.44 529.9L127.79 529.9C123.45 529.9 119.92 526.4 119.92 522.04L119.92 205.62C119.92 205.19 119.96 204.76 120.03 204.34C120.48 201.67 122.28 199.44 124.7 198.4C125.2 198.18 125.73 198.02 126.28 197.91C126.77 197.82 127.27 197.77 127.79 197.77L286.44 197.77C290.77 197.77 294.29 201.29 294.29 205.62Z" />
		<path id="Path 31" class="shp0" d="M294.29 205.63L294.29 226.7L119.93 226.7L119.93 205.63C119.93 205.19 119.96 204.76 120.03 204.34C120.48 201.67 122.28 199.45 124.7 198.4C125.2 198.18 125.73 198.02 126.28 197.92C126.77 197.82 127.27 197.77 127.78 197.77L286.44 197.77C290.78 197.77 294.29 201.29 294.29 205.63Z" />
		<path id="Path 32" class="shp4" d="M256.3 197.77L249.84 204.24C248.4 205.67 247.59 207.62 247.59 209.65C247.59 211.77 246.74 213.68 245.35 215.07C243.96 216.45 242.05 217.31 239.93 217.31L178.3 217.31C176.18 217.31 174.27 216.45 172.88 215.07C171.5 213.68 170.64 211.77 170.64 209.65C170.64 207.62 169.83 205.67 168.4 204.24L161.93 197.77L256.3 197.77Z" />
		<path id="Path 33" class="shp9" d="M237.63 207.4C237.63 209.15 236.2 210.58 234.44 210.58C232.69 210.58 231.26 209.15 231.26 207.4C231.26 205.64 232.69 204.21 234.44 204.21C236.2 204.21 237.63 205.64 237.63 207.4ZM224.16 210.58L180.79 210.58C179.24 210.58 177.98 209.32 177.98 207.77L177.98 207.02C177.98 205.47 179.24 204.21 180.79 204.21L224.16 204.21C225.71 204.21 226.97 205.47 226.97 207.02L226.97 207.77C226.97 209.32 225.71 210.58 224.16 210.58Z" />
		<path id="Path 34" class="shp1" d="M294.29 404.26L294.29 449.07C294.05 449.12 293.8 449.14 293.54 449.14L213.3 449.14L213.29 449.14C213.82 446.9 214.65 444.73 215.75 442.69C217.47 439.53 219.86 436.7 222.91 434.41C227.25 431.15 232.4 429.38 238.15 431.22C238.53 431.34 238.91 431.45 239.27 431.55C240.72 431.95 241.99 432.18 243.13 432.27C255.05 433.17 251.21 417.79 261.02 411.11C271.45 404.02 280.38 409.78 288.06 407.88C289.08 407.63 290.07 407.25 291.04 406.68C291.63 406.34 292.22 405.93 292.8 405.44C293.29 405.03 293.78 404.64 294.29 404.26Z" />
		<path id="Path 35" class="shp10" d="M294.29 419.68L294.29 422.9L269.85 438.59L269.85 438.59L263.46 442.69L253.42 449.14L248.39 449.14L258.44 442.69L269.31 435.71L294.29 419.68Z" />
		<path id="Path 36" class="shp1" d="M183.38 429.91C186.11 427.15 188.76 424.32 191.24 421.33C185.24 405.2 175.6 375.62 174.04 348.55C171.57 305.63 152.19 300.8 143.19 311.6C113.96 346.69 182.04 430.06 182.04 430.06L183.38 429.91Z" />
		<path id="Path 37" class="shp10" d="M186.36 426.83C186.81 426.35 187.26 425.87 187.7 425.39C175.99 405.61 168.2 384.08 163.54 368.61C157.71 349.27 155.37 334.95 155.35 334.81C155.27 334.29 154.78 333.94 154.27 334.03C153.76 334.11 153.4 334.59 153.49 335.11C153.51 335.25 155.86 349.67 161.72 369.12C166.45 384.84 174.4 406.75 186.36 426.83Z" />
		<path id="Path 38" class="shp3" d="M191.21 450.35L184.99 452.13L181.69 453.07L172.35 455.76C172.35 455.76 145.89 432.59 119.92 401.16L119.92 288.03C124.93 297.42 133.51 309.87 137.17 325.86C137.69 328.17 138.25 330.47 138.85 332.77C150.67 378.93 174.42 422.3 185.39 440.87C188.98 446.93 191.21 450.35 191.21 450.35Z" />
		<path id="Path 39" class="shp1" d="M184.99 452.13L181.69 453.07C155.23 422.94 135.27 387.76 122.81 362.56C121.82 360.55 120.85 358.57 119.92 356.63L119.92 349.37C121.68 353.16 123.57 357.13 125.61 361.24C138.14 386.56 158.28 422.02 184.99 452.13Z" />
		<path id="Path 40" class="shp3" d="M294.29 303.06L294.29 405.32C293.82 405.55 293.33 405.77 292.82 405.97C292.22 406.21 291.63 406.45 291.04 406.68C290.03 407.09 289.03 407.49 288.06 407.88C274.87 413.24 265.7 418.12 269.31 435.71C269.35 435.91 269.39 436.11 269.44 436.31C269.61 437.07 269.74 437.83 269.85 438.59L269.85 438.59C270.06 439.97 270.18 441.33 270.21 442.69L205.68 442.69C202.57 434.95 202.04 426.18 204.76 417.72C207.13 410.38 211.65 404.11 219.83 401.53C245.42 393.43 223.26 377.12 229.87 359.46C237.48 339.11 258.04 342.51 262.08 326.82C266.56 309.48 283.72 295.97 294.29 303.06Z" />
		<path id="Path 41" class="shp1" d="M238.91 442.7L281.07 338.61C281.47 337.63 280.99 336.5 280 336.1C279.02 335.7 277.9 336.18 277.5 337.17L234.75 442.7L238.91 442.7Z" />
		<path id="Path 42" class="shp11" d="M294.29 471.27L294.29 522.04C294.29 523.14 294.07 524.18 293.67 525.12C292.47 527.94 289.68 529.9 286.44 529.9L127.79 529.9C123.45 529.9 119.92 526.4 119.92 522.04L119.92 471.27C119.92 446.17 130.61 437.52 130.61 437.52C145.84 426.83 162.86 420.86 162.86 420.86C163.06 420.77 193.68 410.44 193.88 410.31L225.9 412.57C229.75 414.83 251.05 421.22 263.76 427.43C265.68 428.37 266.81 428.92 267.92 429.53C278.53 435.38 283 440.22 286.25 444.96C287.8 447.26 293.13 458.66 294.29 471.27Z" />
		<path id="Path 43" class="shp12" d="M150.35 493.42L145 529.9L141.84 529.9L147.26 492.96C147.38 492.12 148.17 491.52 149.03 491.65C149.88 491.77 150.47 492.57 150.35 493.42ZM276.53 529.9L273.37 529.9L269.79 501.85C269.68 501 270.29 500.21 271.15 500.1C272 499.99 272.79 500.6 272.9 501.45L276.53 529.9ZM229.93 470.11L263.57 470.11C263.57 470.11 264.48 499.82 246.93 499.82C228.8 499.82 229.93 470.11 229.93 470.11Z" />
		<path id="Path 44" class="shp4" d="M251.19 323.57C251.19 323.57 269.09 317.32 267.31 303.4C265.79 291.55 252.64 299.23 253.79 289.97C254.95 280.71 257.52 272.29 246.2 269.98C236.3 267.95 236.13 275.13 223.13 264.71C207.78 252.4 195.98 280.91 182.27 281.76C162.06 283.03 159.5 295.13 157.52 304.81C155.53 314.49 165.3 325.87 165.3 325.87L251.19 323.57Z" />
		<path id="Path 45" class="shp5" d="M248.19 343.92C248.19 343.92 255.7 333.9 261.29 342.18C266.88 350.47 258.98 374.93 245.3 368.96L248.19 343.92Z" />
		<path id="Path 46" class="shp6" d="M248.29 361.4C248.79 361.4 249.25 361.07 249.4 360.56C251.52 353 259.34 349.94 259.42 349.91C260.02 349.68 260.32 349.02 260.09 348.42C259.87 347.82 259.2 347.52 258.6 347.75C258.24 347.89 249.61 351.23 247.17 359.93C247 360.55 247.36 361.18 247.97 361.36C248.08 361.39 248.18 361.4 248.29 361.4ZM256.19 357.6C256.4 357.6 256.62 357.54 256.81 357.41C257.35 357.07 257.5 356.35 257.16 355.81C257.1 355.72 255.71 353.61 252.82 352.32C252.24 352.06 251.55 352.32 251.29 352.9C251.03 353.48 251.29 354.17 251.87 354.43C254.11 355.43 255.2 357.05 255.21 357.07C255.43 357.41 255.81 357.6 256.19 357.6Z" />
		<path id="Path 47" class="shp2" d="M190.98 389.71L190.98 414.04C190.98 414.04 198.24 426.43 208.05 427.28C217.85 428.13 226.56 416.61 226.56 416.61L226.56 391.42L190.98 389.71Z" />
		<path id="Path 48" class="shp5" d="M190.98 389.71L190.98 400.51C197.56 407.82 209.26 409.64 226.56 407.09L226.56 391.42L190.98 389.71Z" />
		<path id="Path 49" class="shp2" d="M252.55 336.35C252.47 338.81 252.34 341.37 252.14 344C252.07 344.97 251.99 345.95 251.89 346.93C251.52 350.93 250.98 355.06 250.24 359.16C250.24 359.16 250.24 359.19 250.23 359.22C250.22 359.29 250.21 359.39 250.18 359.53L250.02 360.38C249.9 360.95 249.79 361.53 249.66 362.13C249.48 363.03 249.27 363.96 249.05 364.91C245.3 380.75 237.93 395.35 223.79 400.4C190.21 412.37 176.85 386.19 171.08 368.1C170.68 366.87 170.33 365.67 170 364.52C169.45 362.58 168.95 360.4 168.51 358.09C168.51 358.08 168.5 358.08 168.5 358.08C168.5 358.04 168.49 358.01 168.49 357.99L168.49 357.96C167.52 352.91 166.82 347.19 166.3 341.51C165.85 336.56 165.54 331.64 165.33 327.23C165.2 324.53 165.5 321.88 166.19 319.36C166.35 318.75 166.54 318.15 166.75 317.56C166.87 317.25 166.97 316.96 167.09 316.67C167.33 316.08 167.58 315.51 167.85 314.95C168.13 314.38 168.42 313.83 168.73 313.29C169.05 312.75 169.39 312.21 169.74 311.71L169.74 311.7C170.27 310.92 170.84 310.19 171.46 309.47C172.9 307.81 174.55 306.33 176.4 305.07C176.92 304.72 177.47 304.38 178.03 304.06C179.14 303.42 180.32 302.86 181.55 302.39C196.25 296.73 218.58 292.27 239.74 304.26C244.38 306.89 248 310.85 250.2 315.51C250.43 316 250.65 316.5 250.85 317.01C250.97 317.33 251.1 317.65 251.2 317.97C251.43 318.63 251.64 319.28 251.81 319.95C251.98 320.58 252.12 321.21 252.23 321.85C252.46 323.17 252.6 324.51 252.63 325.87C252.68 328.98 252.68 332.52 252.55 336.35Z" />
		<path id="Path 50" class="shp5" d="M209.39 393.95C206.53 393.86 204.06 392.23 203.95 392.16C203.42 391.81 203.27 391.08 203.63 390.54C203.98 390 204.71 389.86 205.25 390.21C205.27 390.23 207.29 391.54 209.47 391.61C211.83 391.69 213.98 390.51 214 390.5C214.57 390.18 215.28 390.39 215.6 390.95C215.91 391.51 215.71 392.23 215.15 392.54C215.04 392.6 212.42 394.05 209.39 393.95Z" />
		<path id="Path 51" class="shp4" d="M190.25 344.83C190.25 347.42 191.59 349.53 193.24 349.53C194.89 349.53 196.23 347.42 196.23 344.83C196.23 342.23 194.89 340.12 193.24 340.12C191.59 340.12 190.25 342.23 190.25 344.83ZM226.56 344.83C226.56 347.42 227.9 349.53 229.55 349.53C231.21 349.53 232.54 347.42 232.54 344.83C232.54 342.23 231.21 340.12 229.55 340.12C227.9 340.12 226.56 342.23 226.56 344.83ZM180.85 328.97C180.85 328.97 193.2 324.09 202.71 328.19L201.76 333.49C201.76 333.49 187.8 332.3 180.77 335.16C180.14 333.12 180.04 331.06 180.85 328.97ZM239.59 328.99C239.59 328.99 227.14 324.07 217.56 328.21L218.52 333.54C218.52 333.54 232.58 332.35 239.67 335.23C240.3 333.17 240.4 331.1 239.59 328.99Z" />
		<path id="Path 52" class="shp5" d="M209.29 365.84C207.34 365.84 205.4 365.09 205.1 364.96C204.51 364.72 204.23 364.05 204.47 363.46C204.71 362.87 205.39 362.58 205.98 362.82C207.02 363.25 209.53 363.91 210.61 363.26C210.82 363.14 211.11 362.89 211.18 362.18C211.6 358.15 210.49 344.62 210.48 344.48C210.43 343.85 210.9 343.29 211.54 343.24C212.18 343.18 212.73 343.66 212.79 344.29C212.83 344.86 213.92 358.17 213.48 362.42C213.31 364.02 212.47 364.84 211.8 365.24C211.06 365.69 210.17 365.84 209.29 365.84Z" />
		<path id="Path 53" class="shp7" d="M223.81 374.65C222.93 379.06 220.02 387.19 210.19 387.19C200.34 387.19 197.58 379.76 196.63 374.65L223.81 374.65Z" />
		<path id="Path 54" class="shp4" d="M252.55 336.35C252.47 338.81 252.34 341.37 252.14 344C252.07 344.97 251.99 345.95 251.89 346.93C251.52 350.93 250.98 355.06 250.24 359.16L245.3 358.17C245.3 358.17 248.89 343.14 247.77 337.56C246.65 331.97 242.02 328.69 243.57 323.31C245.11 317.91 239.42 312.13 235.22 311.18C231.04 310.2 220.8 316.21 211.72 310.63C202.63 305.03 188.85 306.36 182.69 311.18C176.53 315.98 181.03 325.35 176.6 326.56C172.17 327.77 175.3 338.03 175.88 343.23C176.44 348.27 177.55 354.99 177.62 355.41L171.82 355.54L169.52 344.83C167.54 343.96 167.34 342.27 166.3 341.51C165.85 336.56 165.54 331.64 165.33 327.23C165.2 324.53 165.5 321.88 166.19 319.36C166.35 318.75 166.54 318.15 166.75 317.56C166.87 317.25 166.97 316.96 167.09 316.67C167.33 316.08 167.58 315.51 167.85 314.95C168.13 314.38 168.42 313.83 168.73 313.29C169.05 312.75 169.39 312.21 169.74 311.71L169.74 311.7C170.27 310.92 170.84 310.19 171.46 309.47C172.9 307.81 174.55 306.33 176.4 305.07C176.93 304.72 177.47 304.38 178.03 304.06C179.14 303.42 180.32 302.86 181.55 302.39C196.25 296.73 218.58 292.27 239.74 304.26C244.38 306.89 248 310.85 250.2 315.51C250.43 316.01 250.65 316.51 250.85 317.01C250.97 317.33 251.1 317.65 251.2 317.97C251.44 318.62 251.64 319.28 251.81 319.95C251.98 320.58 252.12 321.21 252.23 321.85C252.47 323.17 252.61 324.51 252.64 325.88C252.69 328.99 252.68 332.53 252.55 336.35Z" />
		<path id="Path 55" class="shp2" d="M171.18 347.56C170.82 344.41 169.06 341.52 166.3 339.94C163.73 338.48 160.45 338.04 157.66 342.18C152.07 350.47 159.97 374.93 173.65 368.96L171.18 347.56Z" />
		<path id="Path 56" class="shp5" d="M170.66 361.4C170.16 361.4 169.7 361.07 169.55 360.56C167.43 353 159.61 349.94 159.53 349.91C158.93 349.68 158.63 349.02 158.86 348.42C159.08 347.82 159.75 347.52 160.35 347.75C160.71 347.89 169.34 351.23 171.78 359.93C171.95 360.55 171.59 361.18 170.98 361.36C170.87 361.39 170.77 361.4 170.66 361.4ZM162.76 357.6C162.55 357.6 162.33 357.54 162.14 357.41C161.6 357.07 161.45 356.35 161.79 355.81C161.85 355.72 163.24 353.61 166.13 352.32C166.71 352.06 167.4 352.32 167.66 352.9C167.92 353.48 167.66 354.17 167.08 354.43C164.84 355.43 163.75 357.05 163.74 357.07C163.52 357.41 163.14 357.6 162.76 357.6Z" />
		<path id="Path 57" class="shp4" d="M699.1 380.21L699.1 694.47C699.1 704.32 707.09 712.3 716.94 712.3L873.43 712.3C878.38 712.3 882.86 710.29 886.09 707.03C889.29 703.81 891.27 699.37 891.27 694.47L891.27 380.21C891.27 370.35 883.29 362.37 873.43 362.37L716.94 362.37C714.03 362.37 711.28 363.07 708.85 364.31C703.06 367.26 699.1 373.27 699.1 380.21Z" />
		<path id="Path 58" class="shp7" d="M882.37 379.12L882.37 695.54C882.37 696.63 882.15 697.67 881.75 698.62C880.55 701.43 877.76 703.39 874.51 703.39L715.86 703.39C711.52 703.39 708 699.89 708 695.54L708 379.12C708 378.69 708.04 378.25 708.11 377.83C708.56 375.16 710.36 372.94 712.77 371.9C713.28 371.68 713.81 371.52 714.35 371.41C714.84 371.32 715.35 371.27 715.86 371.27L874.51 371.27C878.85 371.27 882.37 374.79 882.37 379.12Z" />
		<path id="Path 59" class="shp0" d="M882.37 379.12L882.37 400.2L708 400.2L708 379.12C708 378.69 708.04 378.25 708.11 377.83C708.55 375.16 710.35 372.94 712.77 371.89C713.28 371.68 713.81 371.51 714.35 371.41C714.84 371.32 715.34 371.27 715.86 371.27L874.51 371.27C878.85 371.27 882.37 374.79 882.37 379.12Z" />
		<path id="Path 60" class="shp4" d="M844.38 371.27L837.91 377.73C836.48 379.17 835.67 381.12 835.67 383.15C835.67 385.26 834.81 387.18 833.42 388.56C832.04 389.95 830.12 390.81 828.01 390.81L766.38 390.81C764.26 390.81 762.34 389.95 760.96 388.56C759.57 387.18 758.72 385.26 758.72 383.15C758.72 381.12 757.91 379.17 756.47 377.73L750 371.27L844.38 371.27Z" />
		<path id="Path 61" class="shp9" d="M825.7 380.89C825.7 382.65 824.28 384.07 822.52 384.07C820.76 384.07 819.34 382.65 819.34 380.89C819.34 379.13 820.76 377.71 822.52 377.71C824.28 377.71 825.7 379.13 825.7 380.89ZM812.24 384.07L768.86 384.07C767.31 384.07 766.06 382.82 766.06 381.27L766.06 380.51C766.06 378.96 767.31 377.71 768.86 377.71L812.24 377.71C813.79 377.71 815.05 378.96 815.05 380.51L815.05 381.27C815.05 382.82 813.79 384.07 812.24 384.07Z" />
		<path id="Path 62" class="shp1" d="M882.37 548.49L882.37 606.2C882.32 606.2 882.27 606.2 882.23 606.2C870.08 605.68 861.16 604.62 858.08 619.02C857.75 620.54 857.29 622.01 856.7 623.4L836.35 614.16L833.65 612.94L814.76 604.37C815.02 598.41 817.26 592.55 821.53 587.86C821.67 587.71 821.81 587.56 821.95 587.41C824.9 584.31 828.51 582.08 832.88 581.71C833.91 581.62 834.98 581.64 836.09 581.77C836.39 581.81 836.69 581.84 836.97 581.87C854.82 583.53 845.68 566.77 855.04 557.4C864.49 547.92 875 552.8 882.37 548.49Z" />
		<path id="Path 63" class="shp10" d="M882.37 566.65L882.37 570.44L865.97 586.02L864.51 587.41L836.35 614.16L833.65 612.94L860.52 587.41L865.57 582.61L882.37 566.65Z" />
		<path id="Path 64" class="shp1" d="M741.12 634.03C744.57 632.26 747.97 630.39 751.25 628.32C750.57 611.12 750.6 580.01 757.52 553.79C768.51 512.24 751.59 501.62 739.68 509.09C700.99 533.36 739.8 633.76 739.8 633.76L741.12 634.03Z" />
		<path id="Path 65" class="shp10" d="M744.91 632.03C745.48 631.72 746.06 631.4 746.63 631.08C741.65 608.64 740.93 585.76 741.3 569.6C741.77 549.4 744.01 535.07 744.03 534.93C744.11 534.41 743.76 533.93 743.24 533.85C742.73 533.77 742.24 534.12 742.16 534.63C742.14 534.78 739.89 549.21 739.42 569.52C739.03 585.93 739.78 609.23 744.91 632.03Z" />
		<path id="Path 66" class="shp3" d="M752.85 668.13L747.16 668.52L744.14 668.72L735.59 669.29C735.59 669.29 722.19 651.25 708 626.2L708 490.61C715.95 494.41 723.42 504.92 727.08 524.62C728.46 532.03 729.3 540.73 729.41 550.87C729.78 580.78 736.06 611.21 742.03 633.56C747.57 654.32 752.85 668.13 752.85 668.13Z" />
		<path id="Path 67" class="shp1" d="M747.16 668.52L744.14 668.72C726.94 637.85 716.28 603.84 710.23 579.82C709.43 576.64 708.69 573.56 708 570.59L708 557.71C709.31 564.12 710.92 571.37 712.89 579.19C718.98 603.33 729.74 637.62 747.16 668.52Z" />
		<path id="Path 68" class="shp3" d="M882.37 442.98L882.37 550.29C869.85 555.49 861.46 560.71 865.26 578.1C865.38 578.63 865.48 579.15 865.57 579.68C865.76 580.82 865.9 581.96 865.97 583.09C866 583.56 866.03 584.02 866.04 584.48L801.51 584.48C798.39 576.74 797.86 567.97 800.58 559.51C802.95 552.16 807.47 545.89 815.65 543.31C841.24 535.22 819.08 518.9 825.69 501.24C833.31 480.9 853.86 484.29 857.91 468.61C861.39 455.08 872.59 443.9 882.37 442.98Z" />
		<path id="Path 69" class="shp1" d="M834.73 584.48L876.89 480.39C877.29 479.41 876.81 478.28 875.83 477.88C874.84 477.49 873.72 477.96 873.32 478.95L830.57 584.48L834.73 584.48Z" />
		<path id="Path 70" class="shp4" d="M882.37 603.45L882.37 653.57C877.22 656.95 869.21 659.36 861.64 659.33C827.32 659.17 802.5 600.96 770.58 613.29C738.65 625.62 729.83 582.22 744.15 570.97C758.48 559.72 745.74 523.93 745.74 523.93C745.74 523.93 730.8 500.35 744.28 475.59C757.76 450.83 772.35 438.24 804.05 444.89C835.76 451.54 850.21 461.81 853.06 484.88C855.91 507.95 858.62 527.84 866.99 541.79C876.85 558.22 852.08 589.52 879.65 602.96C880.04 603.16 882 603.25 882.37 603.45Z" />
		<path id="Path 71" class="shp13" d="M749.38 584.72L742 689.35C742 689.35 738.8 694.72 733.53 703.39L715.86 703.39C711.52 703.39 708 699.89 708 695.54L708 653.6C733.93 609.07 749.38 584.72 749.38 584.72Z" />
		<path id="Path 72" class="shp14" d="M872.82 703.39L723.69 703.39C720.54 696.82 719.78 687.07 725.85 670.3C740.07 630.95 749.38 584.72 749.38 584.72L758.19 584.27L767.65 583.79L812.58 581.5L839.06 591.74L864.9 601.73C864.9 601.73 869.61 639.68 872.82 703.39Z" />
		<path id="Path 73" class="shp2" d="M770.85 583.63C767.61 597.86 760.63 626.66 781.98 627.21C807.65 627.88 833.34 602.6 839.06 591.74L812.58 581.51L770.85 583.63Z" />
		<path id="Path 74" class="shp13" d="M872.34 692.34C871.31 696.18 870.24 699.86 869.13 703.39L820.99 703.39C831.72 681.77 846.31 649.37 864.9 601.73C864.9 601.73 889.17 629.72 872.34 692.34Z" />
		<path id="Path 75" class="shp5" d="M755.67 519.35C755.67 519.35 747.36 510.66 742.58 518.96C737.81 527.26 747.8 549.46 760.77 542.57L755.67 519.35Z" />
		<path id="Path 76" class="shp7" d="M754.57 541.55C754.7 542.91 753.7 544.12 752.34 544.26C750.98 544.38 749.77 543.39 749.64 542.02C749.51 540.66 750.51 539.45 751.87 539.32C753.23 539.19 754.44 540.19 754.57 541.55Z" />
		<path id="Path 77" class="shp6" d="M757.14 535.76C756.64 535.81 756.15 535.54 755.97 535.07C753.2 528.19 745.2 526.05 745.12 526.03C744.51 525.88 744.15 525.28 744.32 524.7C744.49 524.12 745.12 523.77 745.73 523.93C746.11 524.02 754.92 526.35 758.11 534.28C758.33 534.84 758.04 535.47 757.45 535.69C757.35 535.73 757.24 535.75 757.14 535.76ZM749 532.94C748.79 532.96 748.57 532.92 748.37 532.82C747.81 532.55 747.59 531.89 747.88 531.36C747.93 531.27 749.11 529.16 751.86 527.67C752.4 527.37 753.1 527.55 753.41 528.07C753.72 528.59 753.53 529.26 752.97 529.56C750.85 530.71 749.93 532.33 749.92 532.35C749.73 532.69 749.38 532.9 749 532.94Z" />
		<path id="Path 78" class="shp2" d="M817.43 561.9L820.12 590.05C820.12 590.05 807.99 601.4 797.87 603.25C787.76 605.11 783.08 593.42 783.08 593.42L780.58 567.21L817.43 561.9Z" />
		<path id="Path 79" class="shp5" d="M817.69 564.66L818.76 575.89C812.64 584.14 800.74 588 782.48 587.06L780.85 569.97L817.69 564.66Z" />
		<path id="Path 80" class="shp2" d="M752.24 530.48C752.82 533.17 753.47 535.9 754.22 538.6C759.2 556.6 772.67 575.27 787.61 577.19C819.87 581.35 830.61 555.29 833.91 536.52C834.28 534.43 833.01 532.2 833.22 529.76C833.72 523.96 835.41 517.26 835.32 510.82C835.26 506.36 835.1 501.97 834.91 498.01C834.36 486.83 826.94 477.22 816.48 474.19C801.42 469.81 778.94 467.34 759.23 481.58C751.95 486.84 747.91 495.67 748.61 504.85C749.16 511.86 750.2 521 752.24 530.48Z" />
		<path id="Path 81" class="shp5" d="M792.12 540.97C792.71 540.91 793.19 540.44 793.23 539.83C793.28 539.15 792.77 538.56 792.09 538.51L787.81 538.21L792.14 522.2C792.32 521.54 791.93 520.87 791.27 520.69C790.61 520.51 789.93 520.9 789.76 521.56L784.65 540.45L791.91 540.97C791.98 540.97 792.05 540.97 792.12 540.97Z" />
		<path id="Path 82" class="shp4" d="M761.45 498.48C749.65 505.29 754.97 519.58 751.5 527.33C751.28 527.83 751 527.94 750.68 527.73C748.57 518.07 747.5 508.76 746.95 501.61C746.24 492.25 750.53 483.23 758.22 477.84C779.03 463.26 802.71 465.7 818.58 470.12C829.58 473.18 837.37 482.95 837.91 494.35C838.1 498.39 838.26 502.86 838.31 507.41C836.37 508.83 831.42 509.86 831.53 513.17C831.81 521.93 831.95 527.94 830.08 527.59C826.93 527 824.02 516.63 826.87 509.48C826.87 509.48 823.62 505.16 811.69 501.82C796.4 497.55 781.4 490.49 781.4 490.49C781.4 490.49 775.48 487.65 772.98 484.18C772.98 484.18 770.44 493.29 761.45 498.48ZM773.69 522.54C773.95 525.24 772.76 527.57 771.05 527.73C769.33 527.9 767.73 525.84 767.47 523.14C767.21 520.43 768.39 518.11 770.11 517.95C771.83 517.78 773.43 519.84 773.69 522.54ZM810.31 519.14C810.57 521.84 809.38 524.16 807.67 524.33C805.95 524.49 804.35 522.43 804.09 519.73C803.83 517.03 805.02 514.71 806.73 514.54C808.45 514.38 810.05 516.44 810.31 519.14ZM763.37 509.06C765.82 508.34 770.8 507.05 776.21 506.73C777.63 506.64 778.86 507.6 778.78 508.75L778.77 508.78C778.7 509.69 777.8 510.39 776.66 510.41C772.96 510.49 763.36 511.46 759.02 513.22C758.84 512.58 759.2 511.86 759.78 511.19C760.65 510.19 761.93 509.49 763.37 509.06ZM813.43 504.88C810.88 504.59 805.75 504.2 800.38 504.83C798.96 505 797.91 506.16 798.2 507.27L798.21 507.3C798.44 508.19 799.45 508.72 800.58 508.54C804.23 507.96 813.85 507.24 818.43 508.2C818.51 507.55 818.02 506.89 817.33 506.34C816.3 505.51 814.91 505.04 813.43 504.88Z" />
		<path id="Path 83" class="shp7" d="M779.22 549.57C780.54 553.78 784.31 561.4 794.49 560.43C804.7 559.45 806.87 551.95 807.38 546.88L779.22 549.57Z" />
		<path id="Path 84" class="shp5" d="M795.05 567.84C792.12 568.12 789.37 566.78 789.26 566.72C788.66 566.43 788.41 565.71 788.71 565.11C789 564.51 789.72 564.26 790.32 564.56C790.34 564.57 792.58 565.64 794.82 565.43C797.25 565.2 799.3 563.71 799.32 563.69C799.85 563.3 800.61 563.41 801.01 563.95C801.4 564.48 801.29 565.23 800.76 565.63C800.65 565.71 798.17 567.54 795.05 567.84Z" />
		<path id="Path 85" class="shp2" d="M831.72 512.02C831.72 512.02 839.34 500.73 845.15 507.79C850.96 514.85 845.89 537.82 832.92 533.57L831.72 512.02Z" />
		<path id="Path 86" class="shp7" d="M840.8 533.32C840.92 534.68 839.93 535.89 838.56 536.02C837.2 536.15 835.99 535.15 835.86 533.79C835.73 532.43 836.73 531.22 838.09 531.09C839.45 530.96 840.67 531.96 840.8 533.32Z" />
		<path id="Path 87" class="shp5" d="M834.98 526.42C835.44 526.38 835.83 526.03 835.92 525.56C837.19 518.49 844.05 515.02 844.12 514.99C844.65 514.73 844.86 514.09 844.6 513.57C844.35 513.05 843.71 512.83 843.19 513.09C842.87 513.25 835.3 517.05 833.84 525.18C833.73 525.76 834.11 526.3 834.69 526.41C834.79 526.43 834.88 526.43 834.98 526.42ZM841.84 522.27C842.04 522.25 842.23 522.18 842.4 522.05C842.86 521.68 842.93 521.02 842.57 520.56C842.51 520.48 841.07 518.68 838.32 517.75C837.77 517.56 837.16 517.86 836.98 518.42C836.79 518.97 837.09 519.57 837.64 519.76C839.77 520.48 840.9 521.86 840.91 521.87C841.14 522.16 841.5 522.3 841.84 522.27Z" />
		<path id="Path 88" fill-rule="evenodd" class="shp7" d="M793.47 516.94C793.47 516.94 793.47 516.94 793.47 516.94C792.44 516.78 790.46 516.56 788.45 516.79C785.51 517.14 783.72 518.25 783.71 518.26L783.63 518.14C783.63 518.14 783.63 518.14 783.63 518.14C783.64 518.17 783.65 518.2 783.65 518.24L783.92 520.52C784.37 524.38 783.29 528.25 780.95 531.14C778.62 534.01 775.76 535.7 772.47 536.16L771.99 536.21C768.18 536.66 764.41 535.61 761.38 533.23C758.31 530.82 756.36 527.35 755.9 523.47L755.67 521.54C755.62 521.08 755.63 520.62 755.7 520.18C755.13 520.03 754.24 519.81 752.92 519.51L753.02 517.45C754.67 517.69 755.78 517.96 756.46 518.15C757.26 516.93 758.58 516.05 760.15 515.87L777.98 513.77C780.05 513.52 781.98 514.55 782.97 516.25C783.75 515.84 785.59 515 788.21 514.69C790.41 514.43 792.54 514.66 793.72 514.84C794.33 513.03 795.93 511.65 797.95 511.41L815.78 509.31C817.18 509.14 818.51 509.56 819.54 510.37C819.54 510.37 819.54 510.37 819.54 510.37C821.23 509.26 825.7 506.82 832.31 506.55L831.76 508.72C826.27 509.09 822.46 511.06 820.9 512.02C820.9 512.03 820.9 512.03 820.9 512.03C820.9 512.03 820.9 512.03 820.9 512.03C821.18 512.56 821.37 513.15 821.45 513.78L821.71 516.06C822.17 519.92 821.09 523.79 818.75 526.68C816.42 529.55 813.57 531.24 810.27 531.7L809.8 531.75C805.98 532.2 802.22 531.15 799.19 528.77C796.11 526.36 794.16 522.89 793.71 519.01L793.48 517.08C793.47 517.04 793.47 516.99 793.47 516.94ZM795.81 518.76C796.2 522.08 797.87 525.04 800.49 527.1C803.08 529.13 806.29 530.03 809.55 529.65L809.98 529.6C812.72 529.21 815.12 527.79 817.1 525.35C819.09 522.9 820 519.6 819.61 516.31L819.34 514.03C819.15 512.39 817.67 511.22 816.03 511.41L798.2 513.51C796.56 513.71 795.39 515.19 795.58 516.83L795.81 518.76ZM758 523.22C758.4 526.54 760.06 529.5 762.69 531.56C765.28 533.59 768.49 534.49 771.74 534.11L772.18 534.06C774.93 533.67 777.32 532.24 779.3 529.81C781.28 527.36 782.2 524.06 781.81 520.76L781.55 518.49C781.35 516.84 779.86 515.68 778.23 515.87L760.39 517.97C758.76 518.16 757.58 519.65 757.78 521.29L758 523.22Z" />
		<path id="Path 89" class="shp4" d="M210.22 542.81C209.21 542.81 208.39 541.99 208.39 540.99L208.39 537.34C208.39 536.33 209.21 535.51 210.22 535.51C211.23 535.51 212.05 536.33 212.05 537.34L212.05 540.99C212.05 541.99 211.23 542.81 210.22 542.81ZM210.22 558.05C209.21 558.05 208.39 557.23 208.39 556.23L208.39 548.87C208.39 547.86 209.21 547.04 210.22 547.04C211.23 547.04 212.05 547.86 212.05 548.87L212.05 556.23C212.05 557.23 211.23 558.05 210.22 558.05ZM210.22 573.29C209.21 573.29 208.39 572.47 208.39 571.46L208.39 564.11C208.39 563.1 209.21 562.28 210.22 562.28C211.23 562.28 212.05 563.1 212.05 564.11L212.05 571.46C212.05 572.47 211.23 573.29 210.22 573.29ZM210.22 588.53C209.21 588.53 208.39 587.71 208.39 586.7L208.39 579.35C208.39 578.34 209.21 577.52 210.22 577.52C211.23 577.52 212.05 578.34 212.05 579.35L212.05 586.7C212.05 587.71 211.23 588.53 210.22 588.53ZM210.22 603.77C209.21 603.77 208.39 602.95 208.39 601.94L208.39 594.59C208.39 593.58 209.21 592.76 210.22 592.76C211.23 592.76 212.05 593.58 212.05 594.59L212.05 601.94C212.05 602.95 211.23 603.77 210.22 603.77ZM210.22 619.01C209.21 619.01 208.39 618.19 208.39 617.18L208.39 609.83C208.39 608.82 209.21 608 210.22 608C211.23 608 212.05 608.82 212.05 609.83L212.05 617.18C212.05 618.19 211.23 619.01 210.22 619.01ZM210.22 634.25C209.21 634.25 208.39 633.43 208.39 632.43L208.39 625.07C208.39 624.06 209.21 623.24 210.22 623.24C211.23 623.24 212.05 624.06 212.05 625.07L212.05 632.43C212.05 633.43 211.23 634.25 210.22 634.25ZM210.22 649.49C209.21 649.49 208.39 648.67 208.39 647.66L208.39 640.31C208.39 639.3 209.21 638.48 210.22 638.48C211.23 638.48 212.05 639.3 212.05 640.31L212.05 647.66C212.05 648.67 211.23 649.49 210.22 649.49ZM210.22 664.73C209.21 664.73 208.39 663.91 208.39 662.9L208.39 655.55C208.39 654.54 209.21 653.72 210.22 653.72C211.23 653.72 212.05 654.54 212.05 655.55L212.05 662.9C212.05 663.91 211.23 664.73 210.22 664.73ZM210.22 679.97C209.21 679.97 208.39 679.15 208.39 678.14L208.39 670.79C208.39 669.78 209.21 668.96 210.22 668.96C211.23 668.96 212.05 669.78 212.05 670.79L212.05 678.14C212.05 679.15 211.23 679.97 210.22 679.97ZM210.22 695.21C209.21 695.21 208.39 694.39 208.39 693.38L208.39 686.03C208.39 685.02 209.21 684.2 210.22 684.2C211.23 684.2 212.05 685.02 212.05 686.03L212.05 693.38C212.05 694.39 211.23 695.21 210.22 695.21ZM210.22 710.45C209.21 710.45 208.39 709.63 208.39 708.62L208.39 701.27C208.39 700.26 209.21 699.44 210.22 699.44C211.23 699.44 212.05 700.26 212.05 701.27L212.05 708.62C212.05 709.63 211.23 710.45 210.22 710.45ZM210.22 725.69C209.21 725.69 208.39 724.87 208.39 723.86L208.39 716.51C208.39 715.5 209.21 714.68 210.22 714.68C211.23 714.68 212.05 715.5 212.05 716.51L212.05 723.86C212.05 724.87 211.23 725.69 210.22 725.69ZM210.22 740.93C209.21 740.93 208.39 740.11 208.39 739.1L208.39 731.75C208.39 730.74 209.21 729.92 210.22 729.92C211.23 729.92 212.05 730.74 212.05 731.75L212.05 739.1C212.05 740.11 211.23 740.93 210.22 740.93ZM210.22 756.17C209.21 756.17 208.39 755.35 208.39 754.34L208.39 746.99C208.39 745.98 209.21 745.16 210.22 745.16C211.23 745.16 212.05 745.98 212.05 746.99L212.05 754.34C212.05 755.35 211.23 756.17 210.22 756.17ZM213.87 767.7L210.22 767.7C209.21 767.7 208.39 766.89 208.39 765.88L208.39 762.23C208.39 761.22 209.21 760.4 210.22 760.4C211.23 760.4 212.04 761.22 212.04 762.23L212.04 764.05L213.87 764.05C214.88 764.05 215.7 764.87 215.7 765.88C215.7 766.89 214.88 767.7 213.87 767.7ZM321.68 764.05L314.24 764.05C313.23 764.05 312.42 764.87 312.42 765.88C312.42 766.88 313.23 767.7 314.24 767.7L321.68 767.7C322.68 767.7 323.5 766.88 323.5 765.88C323.5 764.87 322.68 764.05 321.68 764.05ZM306.28 764.05L298.84 764.05C297.83 764.05 297.02 764.87 297.02 765.88C297.02 766.88 297.83 767.7 298.84 767.7L306.28 767.7C307.28 767.7 308.1 766.88 308.1 765.88C308.1 764.87 307.28 764.05 306.28 764.05ZM275.47 764.05L268.04 764.05C267.03 764.05 266.21 764.87 266.21 765.88C266.21 766.88 267.03 767.7 268.04 767.7L275.47 767.7C276.48 767.7 277.3 766.88 277.3 765.88C277.3 764.87 276.48 764.05 275.47 764.05ZM229.27 764.05L221.84 764.05C220.83 764.05 220.01 764.87 220.01 765.88C220.01 766.88 220.83 767.7 221.84 767.7L229.27 767.7C230.28 767.7 231.1 766.88 231.1 765.88C231.1 764.87 230.28 764.05 229.27 764.05ZM244.67 764.05L237.24 764.05C236.23 764.05 235.41 764.87 235.41 765.88C235.41 766.88 236.23 767.7 237.24 767.7L244.67 767.7C245.68 767.7 246.5 766.88 246.5 765.88C246.5 764.87 245.68 764.05 244.67 764.05ZM260.07 764.05L252.64 764.05C251.63 764.05 250.81 764.87 250.81 765.88C250.81 766.88 251.63 767.7 252.64 767.7L260.07 767.7C261.08 767.7 261.9 766.88 261.9 765.88C261.9 764.87 261.08 764.05 260.07 764.05ZM290.88 764.05L283.44 764.05C282.43 764.05 281.61 764.87 281.61 765.88C281.61 766.88 282.43 767.7 283.44 767.7L290.88 767.7C291.88 767.7 292.7 766.88 292.7 765.88C292.7 764.87 291.88 764.05 290.88 764.05ZM337.08 764.05L329.64 764.05C328.63 764.05 327.82 764.87 327.82 765.88C327.82 766.88 328.63 767.7 329.64 767.7L337.08 767.7C338.09 767.7 338.9 766.88 338.9 765.88C338.9 764.87 338.09 764.05 337.08 764.05ZM414.08 764.05L406.65 764.05C405.64 764.05 404.82 764.87 404.82 765.88C404.82 766.88 405.64 767.7 406.65 767.7L414.08 767.7C415.09 767.7 415.91 766.88 415.91 765.88C415.91 764.87 415.09 764.05 414.08 764.05ZM422.49 764.05L422.05 764.05C421.04 764.05 420.22 764.87 420.22 765.88C420.22 766.88 421.04 767.7 422.05 767.7L422.49 767.7L422.49 764.05ZM398.68 764.05L391.25 764.05C390.24 764.05 389.42 764.87 389.42 765.88C389.42 766.88 390.24 767.7 391.25 767.7L398.68 767.7C399.69 767.7 400.51 766.88 400.51 765.88C400.51 764.87 399.69 764.05 398.68 764.05ZM383.28 764.05L375.85 764.05C374.84 764.05 374.02 764.87 374.02 765.88C374.02 766.88 374.84 767.7 375.85 767.7L383.28 767.7C384.29 767.7 385.11 766.88 385.11 765.88C385.11 764.87 384.29 764.05 383.28 764.05ZM352.48 764.05L345.04 764.05C344.04 764.05 343.22 764.87 343.22 765.88C343.22 766.88 344.04 767.7 345.04 767.7L352.48 767.7C353.49 767.7 354.3 766.88 354.3 765.88C354.3 764.87 353.49 764.05 352.48 764.05ZM367.88 764.05L360.45 764.05C359.44 764.05 358.62 764.87 358.62 765.88C358.62 766.88 359.44 767.7 360.45 767.7L367.88 767.7C368.89 767.7 369.71 766.88 369.71 765.88C369.71 764.87 368.89 764.05 367.88 764.05ZM694.73 257.64L687.43 257.64C686.43 257.64 685.61 256.82 685.61 255.82C685.61 254.81 686.43 253.99 687.43 253.99L694.73 253.99C695.74 253.99 696.56 254.81 696.56 255.82C696.56 256.82 695.74 257.64 694.73 257.64ZM709.86 257.64L702.56 257.64C701.55 257.64 700.73 256.82 700.73 255.82C700.73 254.81 701.55 253.99 702.56 253.99L709.86 253.99C710.86 253.99 711.68 254.81 711.68 255.82C711.68 256.82 710.86 257.64 709.86 257.64ZM724.98 257.64L717.68 257.64C716.67 257.64 715.86 256.82 715.86 255.82C715.86 254.81 716.67 253.99 717.68 253.99L724.98 253.99C725.99 253.99 726.81 254.81 726.81 255.82C726.81 256.82 725.99 257.64 724.98 257.64ZM740.1 257.64L732.8 257.64C731.79 257.64 730.98 256.82 730.98 255.82C730.98 254.81 731.79 253.99 732.8 253.99L740.1 253.99C741.11 253.99 741.93 254.81 741.93 255.82C741.93 256.82 741.11 257.64 740.1 257.64ZM755.23 257.64L747.93 257.64C746.92 257.64 746.1 256.82 746.1 255.82C746.1 254.81 746.92 253.99 747.93 253.99L755.23 253.99C756.24 253.99 757.05 254.81 757.05 255.82C757.05 256.82 756.24 257.64 755.23 257.64ZM770.35 257.64L763.05 257.64C762.04 257.64 761.22 256.82 761.22 255.82C761.22 254.81 762.04 253.99 763.05 253.99L770.35 253.99C771.36 253.99 772.18 254.81 772.18 255.82C772.18 256.82 771.36 257.64 770.35 257.64ZM785.47 257.64L778.17 257.64C777.17 257.64 776.35 256.82 776.35 255.82C776.35 254.81 777.17 253.99 778.17 253.99L785.47 253.99C786.48 253.99 787.3 254.81 787.3 255.82C787.3 256.82 786.48 257.64 785.47 257.64ZM799.8 258.43C799.18 258.43 798.63 258.12 798.3 257.64L793.3 257.64C792.29 257.64 791.47 256.82 791.47 255.82C791.47 254.81 792.29 253.99 793.3 253.99L799.8 253.99C800.81 253.99 801.63 254.81 801.63 255.82L801.63 256.61C801.63 257.62 800.81 258.43 799.8 258.43ZM799.8 273.56C798.8 273.56 797.98 272.74 797.98 271.73L797.98 264.43C797.98 263.42 798.8 262.61 799.8 262.61C800.81 262.61 801.63 263.42 801.63 264.43L801.63 271.73C801.63 272.74 800.81 273.56 799.8 273.56ZM799.8 288.68C798.8 288.68 797.98 287.86 797.98 286.85L797.98 279.55C797.98 278.55 798.8 277.73 799.8 277.73C800.81 277.73 801.63 278.55 801.63 279.55L801.63 286.85C801.63 287.86 800.81 288.68 799.8 288.68ZM799.8 303.8C798.8 303.8 797.98 302.99 797.98 301.98L797.98 294.68C797.98 293.67 798.8 292.85 799.8 292.85C800.81 292.85 801.63 293.67 801.63 294.68L801.63 301.98C801.63 302.99 800.81 303.8 799.8 303.8ZM799.8 318.93C798.8 318.93 797.98 318.11 797.98 317.1L797.98 309.8C797.98 308.79 798.8 307.98 799.8 307.98C800.81 307.98 801.63 308.79 801.63 309.8L801.63 317.1C801.63 318.11 800.81 318.93 799.8 318.93ZM799.8 334.05C798.8 334.05 797.98 333.23 797.98 332.23L797.98 324.92C797.98 323.92 798.8 323.1 799.8 323.1C800.81 323.1 801.63 323.92 801.63 324.92L801.63 332.23C801.63 333.23 800.81 334.05 799.8 334.05ZM799.8 349.17C798.8 349.17 797.98 348.36 797.98 347.35L797.98 340.05C797.98 339.04 798.8 338.22 799.8 338.22C800.81 338.22 801.63 339.04 801.63 340.05L801.63 347.35C801.63 348.36 800.81 349.17 799.8 349.17ZM799.8 364.3C798.8 364.3 797.98 363.48 797.98 362.47L797.98 355.17C797.98 354.16 798.8 353.35 799.8 353.35C800.81 353.35 801.63 354.16 801.63 355.17L801.63 362.47C801.63 363.48 800.81 364.3 799.8 364.3ZM316.18 257.64L308.88 257.64C307.87 257.64 307.05 256.82 307.05 255.82C307.05 254.81 307.87 253.99 308.88 253.99L316.18 253.99C317.19 253.99 318 254.81 318 255.82C318 256.82 317.19 257.64 316.18 257.64ZM331.3 257.64L324 257.64C322.99 257.64 322.18 256.82 322.18 255.82C322.18 254.81 322.99 253.99 324 253.99L331.3 253.99C332.31 253.99 333.13 254.81 333.13 255.82C333.13 256.82 332.31 257.64 331.3 257.64ZM346.42 257.64L339.12 257.64C338.12 257.64 337.3 256.82 337.3 255.82C337.3 254.81 338.12 253.99 339.12 253.99L346.42 253.99C347.43 253.99 348.25 254.81 348.25 255.82C348.25 256.82 347.43 257.64 346.42 257.64ZM799.8 715.19C798.8 715.19 797.98 714.37 797.98 713.36L797.98 712.3C797.98 711.29 798.8 710.48 799.8 710.48C800.81 710.48 801.63 711.29 801.63 712.3L801.63 713.36C801.63 714.37 800.81 715.19 799.8 715.19ZM799.8 730.31C798.8 730.31 797.98 729.49 797.98 728.48L797.98 721.18C797.98 720.17 798.8 719.36 799.8 719.36C800.81 719.36 801.63 720.17 801.63 721.18L801.63 728.48C801.63 729.49 800.81 730.31 799.8 730.31ZM799.8 745.43C798.8 745.43 797.98 744.61 797.98 743.61L797.98 736.31C797.98 735.3 798.8 734.48 799.8 734.48C800.81 734.48 801.63 735.3 801.63 736.31L801.63 743.61C801.63 744.61 800.81 745.43 799.8 745.43ZM799.8 760.56C798.8 760.56 797.98 759.74 797.98 758.73L797.98 751.43C797.98 750.42 798.8 749.6 799.8 749.6C800.81 749.6 801.63 750.42 801.63 751.43L801.63 758.73C801.63 759.74 800.81 760.56 799.8 760.56ZM646.64 766.45L639.34 766.45C638.34 766.45 637.52 765.63 637.52 764.62C637.52 763.62 638.34 762.8 639.34 762.8L646.64 762.8C647.65 762.8 648.47 763.62 648.47 764.62C648.47 765.63 647.65 766.45 646.64 766.45ZM661.77 766.45L654.47 766.45C653.46 766.45 652.64 765.63 652.64 764.62C652.64 763.62 653.46 762.8 654.47 762.8L661.77 762.8C662.77 762.8 663.59 763.62 663.59 764.62C663.59 765.63 662.77 766.45 661.77 766.45ZM676.89 766.45L669.59 766.45C668.58 766.45 667.76 765.63 667.76 764.62C667.76 763.62 668.58 762.8 669.59 762.8L676.89 762.8C677.9 762.8 678.72 763.62 678.72 764.62C678.72 765.63 677.9 766.45 676.89 766.45ZM692.01 766.45L684.71 766.45C683.7 766.45 682.89 765.63 682.89 764.62C682.89 763.62 683.7 762.8 684.71 762.8L692.01 762.8C693.02 762.8 693.84 763.62 693.84 764.62C693.84 765.63 693.02 766.45 692.01 766.45ZM707.14 766.45L699.84 766.45C698.83 766.45 698.01 765.63 698.01 764.62C698.01 763.62 698.83 762.8 699.84 762.8L707.14 762.8C708.14 762.8 708.96 763.62 708.96 764.62C708.96 765.63 708.14 766.45 707.14 766.45ZM722.26 766.45L714.96 766.45C713.95 766.45 713.13 765.63 713.13 764.62C713.13 763.62 713.95 762.8 714.96 762.8L722.26 762.8C723.27 762.8 724.09 763.62 724.09 764.62C724.09 765.63 723.27 766.45 722.26 766.45ZM737.38 766.45L730.08 766.45C729.07 766.45 728.26 765.63 728.26 764.62C728.26 763.62 729.07 762.8 730.08 762.8L737.38 762.8C738.39 762.8 739.21 763.62 739.21 764.62C739.21 765.63 738.39 766.45 737.38 766.45ZM752.51 766.45L745.21 766.45C744.2 766.45 743.38 765.63 743.38 764.62C743.38 763.62 744.2 762.8 745.21 762.8L752.51 762.8C753.51 762.8 754.33 763.62 754.33 764.62C754.33 765.63 753.51 766.45 752.51 766.45ZM767.63 766.45L760.33 766.45C759.32 766.45 758.5 765.63 758.5 764.62C758.5 763.62 759.32 762.8 760.33 762.8L767.63 762.8C768.64 762.8 769.45 763.62 769.45 764.62C769.45 765.63 768.64 766.45 767.63 766.45ZM782.75 766.45L775.45 766.45C774.44 766.45 773.63 765.63 773.63 764.62C773.63 763.62 774.44 762.8 775.45 762.8L782.75 762.8C783.76 762.8 784.58 763.62 784.58 764.62C784.58 765.63 783.76 766.45 782.75 766.45ZM797.88 766.45L790.58 766.45C789.57 766.45 788.75 765.63 788.75 764.62C788.75 763.62 789.57 762.8 790.58 762.8L797.88 762.8C798.88 762.8 799.7 763.62 799.7 764.62C799.7 765.63 798.88 766.45 797.88 766.45Z" />
		<path id="Path 90" class="shp11" d="M32.62 548.27L30.29 548.27C29.87 548.27 29.49 548.04 29.28 547.68C29.07 547.32 29.07 546.88 29.28 546.52L30.45 544.5C30.77 543.95 31.48 543.76 32.04 544.08C32.59 544.4 32.78 545.11 32.46 545.67L32.31 545.94L32.62 545.94C33.26 545.94 33.78 546.46 33.78 547.1C33.78 547.74 33.26 548.27 32.62 548.27ZM41.79 528.34C41.59 528.34 41.39 528.3 41.21 528.19C40.65 527.87 40.46 527.15 40.78 526.6L42.85 523.02C43.17 522.46 43.88 522.27 44.44 522.59C45 522.91 45.19 523.62 44.87 524.18L42.8 527.76C42.58 528.14 42.19 528.34 41.79 528.34ZM37.66 535.51C37.46 535.51 37.26 535.46 37.07 535.35C36.52 535.03 36.33 534.32 36.65 533.76L38.72 530.18C39.04 529.62 39.75 529.43 40.31 529.75C40.86 530.07 41.05 530.79 40.73 531.34L38.66 534.92C38.45 535.3 38.06 535.51 37.66 535.51ZM33.52 542.67C33.32 542.67 33.12 542.62 32.94 542.51C32.38 542.19 32.19 541.48 32.51 540.92L34.58 537.34C34.9 536.79 35.61 536.59 36.17 536.91C36.73 537.24 36.92 537.95 36.6 538.51L34.53 542.09C34.31 542.46 33.92 542.67 33.52 542.67ZM48.26 521.18C47.85 521.18 47.46 520.97 47.25 520.6L47.09 520.33L46.93 520.6C46.61 521.16 45.9 521.35 45.34 521.03C44.79 520.71 44.6 519.99 44.92 519.44L46.08 517.42C46.29 517.06 46.67 516.84 47.09 516.84C47.51 516.84 47.89 517.06 48.1 517.42L49.26 519.44C49.58 519.99 49.39 520.71 48.84 521.03C48.65 521.13 48.45 521.18 48.26 521.18ZM52.39 528.34C51.99 528.34 51.6 528.14 51.38 527.76L49.31 524.18C48.99 523.62 49.18 522.91 49.74 522.59C50.3 522.27 51.01 522.46 51.33 523.02L53.4 526.6C53.72 527.15 53.53 527.87 52.97 528.19C52.79 528.29 52.59 528.34 52.39 528.34ZM56.52 535.51C56.12 535.51 55.73 535.3 55.52 534.92L53.45 531.34C53.13 530.79 53.32 530.07 53.87 529.75C54.43 529.43 55.14 529.62 55.46 530.18L57.53 533.76C57.85 534.32 57.66 535.03 57.11 535.35C56.92 535.46 56.72 535.51 56.52 535.51ZM60.66 542.67C60.26 542.67 59.87 542.46 59.65 542.09L57.58 538.51C57.26 537.95 57.45 537.24 58.01 536.91C58.57 536.59 59.28 536.79 59.6 537.34L61.67 540.92C61.99 541.48 61.8 542.19 61.24 542.51C61.06 542.62 60.86 542.67 60.66 542.67ZM63.89 548.27L61.56 548.27C60.92 548.27 60.4 547.74 60.4 547.1C60.4 546.46 60.92 545.94 61.56 545.94L61.87 545.94L61.72 545.67C61.4 545.11 61.59 544.4 62.14 544.08C62.7 543.76 63.41 543.95 63.73 544.5L64.9 546.52C65.11 546.88 65.11 547.32 64.9 547.68C64.69 548.04 64.31 548.27 63.89 548.27ZM40.89 548.27L36.75 548.27C36.11 548.27 35.59 547.74 35.59 547.1C35.59 546.46 36.11 545.94 36.75 545.94L40.89 545.94C41.53 545.94 42.05 546.46 42.05 547.1C42.05 547.74 41.53 548.27 40.89 548.27ZM49.16 548.27L45.02 548.27C44.38 548.27 43.86 547.74 43.86 547.1C43.86 546.46 44.38 545.94 45.02 545.94L49.16 545.94C49.8 545.94 50.32 546.46 50.32 547.1C50.32 547.74 49.8 548.27 49.16 548.27ZM57.43 548.27L53.29 548.27C52.65 548.27 52.13 547.74 52.13 547.1C52.13 546.46 52.65 545.94 53.29 545.94L57.43 545.94C58.07 545.94 58.59 546.46 58.59 547.1C58.59 547.74 58.07 548.27 57.43 548.27Z" />
		<path id="Path 91" class="shp3" d="M94.72 560.2C94.67 560.2 94.61 560.19 94.56 560.18C93.14 559.98 91.66 559.98 90.25 560.18C89.61 560.27 89.02 559.83 88.93 559.2C88.84 558.56 89.28 557.97 89.92 557.88C91.55 557.65 93.25 557.65 94.89 557.88C95.52 557.97 95.97 558.56 95.87 559.2C95.79 559.78 95.29 560.2 94.72 560.2ZM81.73 564.01C81.41 564.01 81.08 563.88 80.85 563.61C80.43 563.12 80.48 562.39 80.97 561.97C82.23 560.87 83.64 559.97 85.15 559.28C85.73 559.01 86.42 559.27 86.69 559.85C86.96 560.44 86.7 561.13 86.12 561.4C84.81 561.99 83.59 562.78 82.49 563.73C82.27 563.92 82 564.01 81.73 564.01ZM103.07 564.01C102.8 564.01 102.53 563.92 102.31 563.73C101.22 562.78 100 562 98.69 561.4C98.1 561.13 97.85 560.44 98.12 559.85C98.38 559.27 99.07 559.01 99.66 559.28C101.17 559.97 102.58 560.88 103.84 561.97C104.32 562.39 104.38 563.13 103.95 563.61C103.72 563.88 103.4 564.01 103.07 564.01ZM76.76 571.74C76.65 571.74 76.54 571.72 76.43 571.69C75.82 571.51 75.46 570.86 75.65 570.24C76.11 568.65 76.81 567.13 77.71 565.72C78.06 565.18 78.78 565.03 79.32 565.37C79.86 565.72 80.02 566.44 79.67 566.98C78.89 568.2 78.28 569.52 77.88 570.9C77.73 571.41 77.27 571.74 76.76 571.74ZM108.04 571.74C107.54 571.74 107.07 571.41 106.93 570.9C106.52 569.52 105.92 568.2 105.14 566.99C104.79 566.44 104.94 565.73 105.48 565.38C106.02 565.03 106.74 565.18 107.09 565.73C108 567.13 108.69 568.65 109.16 570.25C109.34 570.86 108.99 571.51 108.37 571.69C108.26 571.72 108.15 571.74 108.04 571.74ZM76.76 580.92C76.26 580.92 75.79 580.59 75.64 580.08C75.18 578.49 74.94 576.84 74.94 575.16C74.94 574.52 75.46 574 76.11 574C76.75 574 77.27 574.52 77.27 575.16C77.27 576.61 77.47 578.05 77.88 579.43C78.06 580.04 77.71 580.69 77.09 580.87C76.98 580.9 76.87 580.92 76.76 580.92ZM108.04 580.92C107.93 580.92 107.82 580.9 107.71 580.87C107.1 580.69 106.74 580.05 106.92 579.43C107.33 578.05 107.53 576.61 107.53 575.16C107.53 574.52 108.05 574 108.7 574C109.34 574 109.86 574.52 109.86 575.16C109.86 576.84 109.62 578.49 109.16 580.08C109.01 580.59 108.55 580.92 108.04 580.92ZM81.73 588.64C81.46 588.64 81.19 588.55 80.97 588.36C79.71 587.27 78.61 586 77.71 584.6C77.36 584.06 77.52 583.34 78.06 582.99C78.6 582.65 79.32 582.8 79.67 583.34C80.45 584.56 81.4 585.65 82.49 586.6C82.98 587.02 83.03 587.76 82.61 588.24C82.38 588.51 82.06 588.64 81.73 588.64ZM103.07 588.64C102.75 588.64 102.42 588.51 102.19 588.24C101.77 587.76 101.82 587.02 102.31 586.6C103.4 585.65 104.35 584.56 105.13 583.34C105.48 582.8 106.2 582.65 106.74 583C107.28 583.34 107.44 584.07 107.09 584.6C106.19 586 105.09 587.27 103.84 588.36C103.61 588.55 103.34 588.64 103.07 588.64ZM94.72 592.46C94.15 592.46 93.65 592.04 93.57 591.46C93.48 590.82 93.92 590.23 94.56 590.14C95.99 589.94 97.38 589.53 98.69 588.93C99.27 588.66 99.96 588.92 100.23 589.51C100.5 590.09 100.24 590.78 99.66 591.05C98.14 591.74 96.54 592.21 94.89 592.45C94.83 592.46 94.77 592.46 94.72 592.46ZM90.08 592.46C90.03 592.46 89.97 592.46 89.92 592.45C88.27 592.21 86.66 591.74 85.15 591.05C84.56 590.78 84.31 590.09 84.57 589.51C84.84 588.92 85.53 588.66 86.11 588.93C87.43 589.53 88.82 589.94 90.25 590.14C90.88 590.23 91.33 590.82 91.23 591.46C91.15 592.04 90.65 592.46 90.08 592.46Z" />
		<path id="Path 92" class="shp14" d="M64.29 461.58C64.23 461.58 64.18 461.58 64.12 461.57C62.7 461.37 61.23 461.37 59.81 461.57C59.17 461.66 58.59 461.22 58.5 460.58C58.4 459.95 58.85 459.36 59.48 459.27C61.12 459.04 62.82 459.04 64.45 459.27C65.09 459.36 65.53 459.95 65.44 460.58C65.36 461.17 64.86 461.58 64.29 461.58ZM51.3 465.4C50.97 465.4 50.65 465.26 50.42 465C50 464.51 50.05 463.78 50.53 463.36C51.79 462.26 53.2 461.36 54.71 460.67C55.3 460.4 55.99 460.66 56.25 461.24C56.52 461.83 56.27 462.52 55.68 462.78C54.37 463.38 53.15 464.17 52.06 465.12C51.84 465.31 51.57 465.4 51.3 465.4ZM72.64 465.4C72.37 465.4 72.1 465.31 71.88 465.12C70.78 464.17 69.56 463.38 68.25 462.79C67.67 462.52 67.41 461.83 67.68 461.24C67.95 460.66 68.64 460.4 69.22 460.67C70.73 461.36 72.14 462.27 73.4 463.36C73.89 463.78 73.94 464.52 73.52 465C73.29 465.27 72.96 465.4 72.64 465.4ZM46.33 473.12C46.22 473.12 46.11 473.11 46 473.08C45.38 472.9 45.03 472.25 45.21 471.63C45.68 470.04 46.37 468.51 47.28 467.11C47.62 466.57 48.35 466.41 48.89 466.76C49.43 467.11 49.58 467.83 49.23 468.37C48.45 469.59 47.85 470.9 47.44 472.29C47.29 472.79 46.83 473.12 46.33 473.12ZM77.61 473.13C77.1 473.13 76.64 472.8 76.49 472.29C76.08 470.91 75.48 469.59 74.7 468.37C74.35 467.83 74.51 467.11 75.05 466.77C75.59 466.42 76.31 466.57 76.66 467.11C77.56 468.52 78.25 470.04 78.72 471.63C78.9 472.25 78.55 472.9 77.93 473.08C77.82 473.11 77.71 473.13 77.61 473.13ZM46.33 482.31C45.82 482.31 45.36 481.98 45.21 481.47C44.74 479.88 44.51 478.22 44.51 476.55C44.51 475.91 45.03 475.39 45.67 475.39C46.31 475.39 46.83 475.91 46.83 476.55C46.83 478 47.04 479.44 47.44 480.82C47.62 481.43 47.27 482.08 46.65 482.26C46.54 482.29 46.43 482.31 46.33 482.31ZM77.61 482.31C77.5 482.31 77.39 482.29 77.28 482.26C76.66 482.08 76.31 481.43 76.49 480.82C76.89 479.44 77.1 478 77.1 476.55C77.1 475.91 77.62 475.39 78.26 475.39C78.9 475.39 79.42 475.91 79.42 476.55C79.42 478.22 79.19 479.88 78.72 481.47C78.57 481.98 78.11 482.31 77.61 482.31ZM51.29 490.03C51.02 490.03 50.75 489.94 50.53 489.75C49.27 488.65 48.18 487.39 47.28 485.99C46.93 485.45 47.08 484.73 47.62 484.38C48.16 484.04 48.88 484.19 49.23 484.73C50.01 485.95 50.96 487.04 52.06 487.99C52.54 488.41 52.59 489.14 52.17 489.63C51.94 489.89 51.62 490.03 51.29 490.03ZM72.64 490.03C72.31 490.03 71.99 489.9 71.76 489.63C71.34 489.14 71.39 488.41 71.87 487.99C72.97 487.04 73.92 485.95 74.7 484.73C75.05 484.19 75.77 484.04 76.31 484.38C76.85 484.73 77 485.45 76.66 485.99C75.75 487.39 74.66 488.66 73.4 489.75C73.18 489.94 72.91 490.03 72.64 490.03ZM64.28 493.85C63.71 493.85 63.21 493.43 63.13 492.85C63.04 492.21 63.48 491.62 64.12 491.53C65.55 491.33 66.94 490.92 68.25 490.32C68.84 490.05 69.53 490.31 69.79 490.89C70.06 491.48 69.8 492.17 69.22 492.44C67.7 493.13 66.1 493.6 64.45 493.84C64.39 493.84 64.34 493.85 64.28 493.85ZM59.65 493.85C59.59 493.85 59.54 493.84 59.48 493.84C57.83 493.6 56.23 493.13 54.71 492.44C54.13 492.17 53.87 491.48 54.14 490.89C54.4 490.31 55.09 490.05 55.68 490.32C56.99 490.92 58.38 491.33 59.81 491.53C60.45 491.62 60.89 492.21 60.8 492.85C60.72 493.43 60.22 493.85 59.65 493.85ZM856.79 220.14L859.11 220.14C859.53 220.14 859.91 219.92 860.12 219.56C860.33 219.2 860.33 218.76 860.12 218.4L858.96 216.38C858.64 215.83 857.92 215.63 857.37 215.96C856.81 216.28 856.62 216.99 856.94 217.55L857.1 217.82L856.79 217.82C856.14 217.82 855.62 218.34 855.62 218.98C855.62 219.62 856.14 220.14 856.79 220.14ZM846.6 199.64L844.54 196.06C844.22 195.5 844.41 194.79 844.96 194.47C845.52 194.15 846.23 194.34 846.55 194.89L848.62 198.48C848.94 199.03 848.75 199.74 848.19 200.07C848.01 200.17 847.81 200.22 847.61 200.22C847.21 200.22 846.82 200.01 846.6 199.64ZM850.74 206.8L848.67 203.22C848.35 202.66 848.54 201.95 849.1 201.63C849.65 201.31 850.37 201.5 850.69 202.06L852.76 205.64C853.08 206.19 852.89 206.91 852.33 207.23C852.15 207.33 851.95 207.38 851.75 207.38C851.35 207.38 850.96 207.18 850.74 206.8ZM854.87 213.96L852.81 210.38C852.48 209.83 852.68 209.11 853.23 208.79C853.79 208.47 854.5 208.66 854.82 209.22L856.89 212.8C857.21 213.36 857.02 214.07 856.47 214.39C856.28 214.5 856.08 214.55 855.88 214.55C855.48 214.55 855.09 214.34 854.87 213.96ZM841.15 193.06C841.55 193.06 841.94 192.85 842.16 192.48L842.31 192.21L842.47 192.48C842.79 193.04 843.5 193.23 844.06 192.91C844.61 192.58 844.81 191.87 844.48 191.31L843.32 189.3C843.11 188.94 842.73 188.72 842.31 188.72C841.9 188.72 841.51 188.94 841.3 189.3L840.14 191.31C839.82 191.87 840.01 192.58 840.57 192.91C840.75 193.01 840.95 193.06 841.15 193.06ZM836.43 200.07C835.88 199.74 835.69 199.03 836.01 198.48L838.07 194.9C838.39 194.34 839.11 194.15 839.66 194.47C840.22 194.79 840.41 195.5 840.09 196.06L838.02 199.64C837.81 200.01 837.42 200.22 837.01 200.22C836.82 200.22 836.62 200.17 836.43 200.07ZM832.3 207.23C831.74 206.91 831.55 206.19 831.87 205.64L833.94 202.06C834.26 201.5 834.97 201.31 835.53 201.63C836.09 201.95 836.28 202.66 835.96 203.22L833.89 206.8C833.67 207.18 833.28 207.38 832.88 207.38C832.68 207.38 832.48 207.33 832.3 207.23ZM828.16 214.39C827.61 214.07 827.41 213.36 827.74 212.8L829.8 209.22C830.13 208.66 830.84 208.47 831.39 208.79C831.95 209.11 832.14 209.83 831.82 210.38L829.75 213.96C829.54 214.34 829.14 214.55 828.74 214.55C828.55 214.55 828.35 214.5 828.16 214.39ZM825.51 220.14L827.84 220.14C828.48 220.14 829 219.62 829 218.98C829 218.34 828.48 217.82 827.84 217.82L827.53 217.82L827.69 217.55C828.01 216.99 827.81 216.28 827.26 215.96C826.7 215.64 825.99 215.83 825.67 216.38L824.5 218.4C824.3 218.76 824.3 219.2 824.5 219.56C824.71 219.92 825.1 220.14 825.51 220.14ZM847.35 218.98C847.35 218.34 847.87 217.82 848.52 217.82L852.65 217.82C853.29 217.82 853.81 218.34 853.81 218.98C853.81 219.62 853.29 220.14 852.65 220.14L848.52 220.14C847.87 220.14 847.35 219.62 847.35 218.98ZM839.08 218.98C839.08 218.34 839.6 217.82 840.25 217.82L844.38 217.82C845.02 217.82 845.55 218.34 845.55 218.98C845.55 219.62 845.02 220.14 844.38 220.14L840.25 220.14C839.6 220.14 839.08 219.62 839.08 218.98ZM830.81 218.98C830.81 218.34 831.33 217.82 831.98 217.82L836.11 217.82C836.75 217.82 837.28 218.34 837.28 218.98C837.28 219.62 836.75 220.14 836.11 220.14L831.98 220.14C831.33 220.14 830.81 219.62 830.81 218.98Z" />
		<path id="Path 93" class="shp3" d="M774.17 182.71C774.08 182.07 774.52 181.48 775.16 181.39C776.8 181.16 778.49 181.16 780.13 181.39C780.76 181.48 781.21 182.07 781.12 182.71C781.03 183.34 780.44 183.78 779.8 183.69C778.38 183.49 776.91 183.49 775.49 183.69C775.43 183.7 775.38 183.71 775.32 183.71C774.75 183.71 774.26 183.29 774.17 182.71ZM787.55 187.24C786.46 186.29 785.24 185.5 783.93 184.9C783.35 184.64 783.09 183.95 783.36 183.36C783.62 182.78 784.31 182.52 784.9 182.79C786.41 183.48 787.82 184.38 789.08 185.48C789.56 185.9 789.62 186.63 789.2 187.12C788.96 187.38 788.64 187.52 788.31 187.52C788.05 187.52 787.77 187.43 787.55 187.24ZM766.09 187.12C765.67 186.64 765.72 185.9 766.21 185.48C767.47 184.39 768.88 183.48 770.39 182.79C770.97 182.52 771.66 182.78 771.93 183.36C772.2 183.95 771.94 184.64 771.36 184.91C770.05 185.5 768.83 186.29 767.73 187.24C767.52 187.43 767.24 187.52 766.97 187.52C766.65 187.52 766.32 187.39 766.09 187.12ZM792.17 194.41C791.76 193.03 791.16 191.71 790.38 190.49C790.03 189.95 790.18 189.23 790.72 188.88C791.27 188.54 791.99 188.69 792.33 189.23C793.24 190.63 793.93 192.16 794.4 193.75C794.58 194.37 794.23 195.02 793.61 195.2C793.5 195.23 793.39 195.24 793.28 195.24C792.78 195.24 792.32 194.91 792.17 194.41ZM761.68 195.2C761.06 195.02 760.71 194.37 760.89 193.76C761.36 192.16 762.05 190.64 762.96 189.23C763.3 188.69 764.02 188.54 764.56 188.89C765.1 189.23 765.26 189.95 764.91 190.5C764.13 191.71 763.53 193.03 763.12 194.41C762.97 194.92 762.51 195.25 762.01 195.25C761.9 195.25 761.79 195.23 761.68 195.2ZM792.96 204.38C792.34 204.2 791.99 203.55 792.17 202.94C792.57 201.56 792.78 200.12 792.78 198.67C792.78 198.03 793.3 197.51 793.94 197.51C794.58 197.51 795.11 198.03 795.11 198.67C795.11 200.35 794.87 202 794.4 203.59C794.25 204.1 793.79 204.43 793.29 204.43C793.18 204.43 793.07 204.41 792.96 204.38ZM760.89 203.59C760.42 202 760.19 200.35 760.19 198.67C760.19 198.03 760.71 197.51 761.35 197.51C761.99 197.51 762.51 198.03 762.51 198.67C762.51 200.12 762.72 201.56 763.12 202.94C763.3 203.55 762.95 204.2 762.33 204.38C762.22 204.41 762.11 204.43 762.01 204.43C761.5 204.43 761.04 204.1 760.89 203.59ZM787.44 211.75C787.02 211.27 787.07 210.53 787.55 210.11C788.65 209.16 789.6 208.07 790.38 206.85C790.73 206.31 791.45 206.16 791.99 206.5C792.53 206.85 792.68 207.57 792.34 208.11C791.43 209.51 790.34 210.78 789.08 211.87C788.86 212.06 788.59 212.15 788.32 212.15C787.99 212.15 787.67 212.02 787.44 211.75ZM766.21 211.87C764.95 210.78 763.86 209.51 762.96 208.11C762.61 207.57 762.76 206.85 763.3 206.5C763.85 206.16 764.57 206.31 764.91 206.85C765.7 208.07 766.64 209.16 767.74 210.11C768.22 210.53 768.28 211.27 767.85 211.75C767.62 212.02 767.3 212.15 766.97 212.15C766.7 212.15 766.43 212.06 766.21 211.87ZM775.16 215.96C773.51 215.72 771.91 215.25 770.39 214.56C769.81 214.29 769.55 213.6 769.82 213.02C770.08 212.43 770.78 212.17 771.36 212.44C772.67 213.04 774.06 213.45 775.49 213.65C776.13 213.74 776.57 214.33 776.48 214.97C776.4 215.55 775.9 215.97 775.33 215.97C775.27 215.97 775.22 215.96 775.16 215.96ZM778.81 214.97C778.72 214.33 779.16 213.74 779.8 213.65C781.23 213.45 782.62 213.04 783.93 212.44C784.52 212.17 785.21 212.43 785.47 213.02C785.74 213.6 785.48 214.29 784.9 214.56C783.38 215.25 781.78 215.72 780.13 215.96C780.07 215.96 780.02 215.97 779.96 215.97C779.39 215.97 778.89 215.55 778.81 214.97Z" />
		<path id="Path 99" class="shp4" d="M687.43 169.83L687.43 387.62C687.43 391.27 684.48 394.22 680.84 394.22L350.22 394.22C346.57 394.22 343.62 391.27 343.62 387.62L343.62 169.83C343.62 166.18 346.57 163.23 350.22 163.23L680.84 163.23C684.48 163.23 687.43 166.18 687.43 169.83Z" />
		<path id="Path 100" class="shp7" d="M678.32 179.16L678.32 378.29C678.32 381.99 675.32 384.99 671.61 384.99L359.43 384.99C358.61 384.99 357.83 384.84 357.1 384.56C354.55 383.63 352.74 381.17 352.74 378.29L352.74 179.16C352.74 175.46 355.73 172.46 359.43 172.46L671.61 172.46C672.51 172.46 673.37 172.64 674.15 172.96C676.59 173.95 678.32 176.36 678.32 179.16Z" />
		<path id="Path 101" class="shp0" d="M678.32 179.16L678.32 189.07L352.73 189.07L352.73 179.16C352.73 175.46 355.73 172.46 359.43 172.46L671.62 172.46C675.32 172.46 678.32 175.46 678.32 179.16Z" />
		<path id="Path 102" class="shp7" d="M396.87 180.89C396.87 182.11 397.86 183.09 399.07 183.09L618.97 183.09C620.19 183.09 621.17 182.11 621.17 180.89C621.17 179.68 620.19 178.7 618.97 178.7L399.07 178.7C397.86 178.7 396.87 179.68 396.87 180.89Z" />
		<path id="Path 103" class="shp4" d="M371.8 180.89L371.8 182.52C371.8 182.99 371.29 183.28 370.89 183.05L369.48 182.23L368.07 181.42C367.67 181.19 367.67 180.6 368.07 180.37L369.48 179.56L370.89 178.74C371.29 178.51 371.8 178.8 371.8 179.27L371.8 180.89ZM379.13 180.89L379.13 182.52C379.13 182.99 379.64 183.28 380.04 183.05L381.45 182.23L382.86 181.42C383.26 181.19 383.26 180.6 382.86 180.37L381.45 179.56L380.04 178.74C379.64 178.51 379.13 178.8 379.13 179.27L379.13 180.89Z" />
		<path id="Path 104" class="shp3" d="M652.77 180.77C652.77 182.56 651.32 184.02 649.52 184.02C647.72 184.02 646.27 182.56 646.27 180.77C646.27 178.97 647.72 177.51 649.52 177.51C651.32 177.51 652.77 178.97 652.77 180.77Z" />
		<path id="Path 105" class="shp14" d="M640.74 180.77C640.74 182.56 639.28 184.02 637.48 184.02C635.69 184.02 634.23 182.56 634.23 180.77C634.23 178.97 635.69 177.51 637.48 177.51C639.28 177.51 640.74 178.97 640.74 180.77Z" />
		<path id="Path 106" class="shp11" d="M664.81 180.77C664.81 182.56 663.35 184.02 661.55 184.02C659.76 184.02 658.3 182.56 658.3 180.77C658.3 178.97 659.76 177.51 661.55 177.51C663.35 177.51 664.81 178.97 664.81 180.77Z" />
		<path id="Path 107" class="shp13" d="M647.91 385.04C648.89 385.04 649.84 384.67 650.52 383.96L650.53 383.95C652.04 382.34 653.07 380.37 653.07 378.47L653.07 378.39C653.03 364.8 669.72 365.71 675.08 349.09C680.44 332.48 659.26 331.08 647.16 341.34C638.46 348.71 628.03 338.41 615.38 347.01C604.4 354.48 610.52 372.86 592.51 367.11C586.76 365.28 581.61 367.05 577.27 370.31C572.27 374.06 569.01 379.33 567.65 385.04L567.66 385.04L647.91 385.04Z" />
		<path id="Path 108" class="shp15" d="M607.78 385.04L653.29 355.83C653.92 355.42 654.1 354.58 653.7 353.95C653.29 353.32 652.45 353.14 651.82 353.55L602.75 385.04L607.78 385.04Z" />
		<path id="Path 109" class="shp13" d="M456.24 361.6C459.35 359.29 462.4 356.9 465.3 354.32C461.83 337.46 456.79 306.76 459.36 279.76C463.43 236.97 445.01 229.25 434.48 238.56C400.25 268.81 454.89 361.55 454.89 361.55L456.24 361.6Z" />
		<path id="Path 110" class="shp15" d="M459.65 359.01C460.17 358.61 460.68 358.2 461.19 357.79C452.62 336.46 448.19 314 445.93 298C443.11 278 442.98 263.49 442.97 263.35C442.97 262.83 442.54 262.41 442.02 262.41C441.5 262.41 441.08 262.84 441.09 263.36C441.09 263.51 441.22 278.11 444.06 298.23C446.35 314.48 450.87 337.35 459.65 359.01Z" />
		<path id="Path 111" class="shp13" d="M467.26 380.82C467.26 378.1 467.18 375.38 466.98 372.67C451.49 365.16 424.08 350.46 404.23 331.98C372.77 302.69 355.43 312.59 356.4 326.62C358.55 357.83 409.36 373.84 441.16 380.82L467.26 380.82Z" />
		<path id="Path 112" class="shp15" d="M467.26 380.01C467.26 379.36 467.25 378.7 467.23 378.05C445.1 371.85 424.58 361.69 410.51 353.74C392.93 343.8 381.35 335.06 381.23 334.98C380.81 334.66 380.22 334.74 379.91 335.16C379.59 335.57 379.67 336.17 380.09 336.48C380.2 336.57 391.87 345.36 409.56 355.36C423.84 363.44 444.73 373.78 467.26 380.01Z" />
		<path id="Path 113" class="shp14" d="M472.42 380.82L475.61 379.64C475.61 379.64 436.87 328.98 419.81 273.87C401.4 214.42 372.49 214.37 363.6 232.68C338.63 284.11 428.44 360.95 453.22 380.82L472.42 380.82Z" />
		<path id="Path 114" class="shp13" d="M465.56 380.82L469.45 380.82C444.35 356.3 424.58 326.9 412.02 305.72C397.1 280.57 388.84 261.26 388.76 261.06C388.47 260.37 387.66 260.05 386.97 260.34C386.27 260.64 385.95 261.44 386.25 262.13C386.33 262.33 394.64 281.78 409.64 307.08C421.97 327.86 441.18 356.49 465.56 380.82Z" />
		<path id="Path 115" class="shp14" d="M607.69 384.99C607.63 382.87 607.38 380.73 606.92 378.61C602.51 358.44 614.49 354.64 630.3 348.27C646.1 341.9 647.98 322.98 636.79 307.25C625.6 291.53 645.71 278.89 638.3 255.23C630.9 231.56 605.18 247.3 599.56 269.12C595.52 284.8 574.96 281.41 567.35 301.75C560.73 319.41 582.9 335.72 557.3 343.82C549.12 346.4 544.6 352.68 542.24 360.02C539.51 368.48 540.05 377.25 543.16 384.99L607.69 384.99Z" />
		<path id="Path 116" class="shp13" d="M576.38 384.99L618.54 280.91C618.94 279.92 618.46 278.8 617.48 278.4C616.49 278 615.37 278.48 614.97 279.46L572.22 384.99L576.38 384.99Z" />
		<path id="Path 117" class="shp1" d="M448.13 384.99L445.5 345.9C445.5 345.9 433.36 362.1 420.86 384.99L448.13 384.99ZM610.51 384.99C598.69 361.68 587.12 345 587.12 345L582.78 384.99L610.51 384.99Z" />
		<path id="Path 118" class="shp3" d="M583 384.99L587.12 345C567.82 336.87 547.36 331.67 526.46 330.16C495.96 327.96 476.69 332.99 445.5 345.9L448.13 384.99L583 384.99Z" />
		<path id="Path 119" class="shp1" d="M486.9 374.48C515.35 371.14 541.83 351.6 543.03 350.7C543.73 350.18 543.88 349.18 543.35 348.48C542.83 347.77 541.83 347.63 541.13 348.15C540.82 348.39 509.67 371.37 479.7 371.77C478.82 371.78 478.13 372.51 478.14 373.39C478.15 374.26 478.87 374.96 479.75 374.95C482.14 374.92 484.53 374.75 486.9 374.48Z" />
		<path id="Path 120" class="shp4" d="M554.38 210.74C554.38 210.74 572.72 239.15 570.71 268.74C568.7 298.33 573.41 332.48 546.93 330.98C520.46 329.48 473.23 341.6 458.22 318.55C443.21 295.51 554.38 210.74 554.38 210.74Z" />
		<path id="Path 121" class="shp16" d="M561.17 262.97C561.17 262.97 565.93 305.86 545.58 317.67C525.23 329.48 510.5 316.3 510.5 316.3C510.5 316.3 553.4 256.51 561.17 262.97Z" />
		<path id="Path 122" class="shp5" d="M476.64 262.77C476.64 262.77 469.33 253.03 463.89 261.09C458.46 269.14 466.14 292.94 479.45 287.13L476.64 262.77Z" />
		<path id="Path 123" class="shp6" d="M476.54 279.78C476.05 279.78 475.6 279.45 475.46 278.96C473.4 271.61 465.79 268.63 465.71 268.6C465.13 268.38 464.84 267.73 465.06 267.15C465.28 266.57 465.93 266.28 466.51 266.5C466.86 266.63 475.25 269.89 477.63 278.35C477.79 278.95 477.44 279.57 476.85 279.74C476.74 279.77 476.64 279.78 476.54 279.78ZM468.86 276.08C468.65 276.08 468.44 276.02 468.25 275.9C467.73 275.56 467.58 274.87 467.92 274.34C467.97 274.26 469.32 272.2 472.14 270.94C472.7 270.69 473.37 270.94 473.62 271.51C473.87 272.08 473.62 272.74 473.05 272.99C470.88 273.97 469.82 275.55 469.81 275.56C469.59 275.9 469.23 276.08 468.86 276.08Z" />
		<path id="Path 124" class="shp5" d="M551.95 262.77C551.95 262.77 559.26 253.03 564.69 261.09C570.12 269.14 562.44 292.94 549.14 287.13L551.95 262.77Z" />
		<path id="Path 125" class="shp6" d="M552.04 279.78C552.53 279.78 552.99 279.45 553.12 278.96C555.19 271.61 562.8 268.63 562.87 268.6C563.45 268.38 563.75 267.73 563.53 267.15C563.31 266.57 562.66 266.28 562.08 266.5C561.72 266.63 553.33 269.89 550.96 278.35C550.79 278.95 551.14 279.57 551.74 279.74C551.84 279.77 551.94 279.78 552.04 279.78ZM559.72 276.08C559.93 276.08 560.14 276.02 560.33 275.9C560.85 275.56 561.01 274.87 560.67 274.34C560.61 274.26 559.27 272.2 556.45 270.94C555.88 270.69 555.22 270.94 554.96 271.51C554.71 272.08 554.96 272.74 555.53 272.99C557.71 273.97 558.77 275.55 558.78 275.56C558.99 275.9 559.35 276.08 559.72 276.08Z" />
		<path id="Path 126" class="shp2" d="M532.28 307.32L532.28 330.98C532.28 330.98 525.22 343.03 515.68 343.85C506.15 344.69 497.67 333.48 497.67 333.48L497.67 308.98L532.28 307.32Z" />
		<path id="Path 127" class="shp5" d="M532.28 307.32L532.28 317.82C525.88 324.92 514.51 327.44 497.67 324.96L497.67 308.98L532.28 307.32Z" />
		<path id="Path 128" class="shp2" d="M557.23 246.54C556.79 255.74 555.92 267.24 554.16 276.43C553.72 278.73 553.23 280.88 552.68 282.82C547.7 300.26 535.24 330.16 500.37 317.7C484.96 312.21 477.82 295.05 474.64 277.6C472.48 265.75 472.16 253.78 472.32 245.22C472.48 236.49 477.25 228.5 484.85 224.2C505.44 212.53 527.16 216.88 541.46 222.38C551.38 226.19 557.74 235.94 557.23 246.54Z" />
		<path id="Path 129" class="shp4" d="M498.93 266.43C498.93 268.95 497.63 271 496.03 271C494.42 271 493.12 268.95 493.12 266.43C493.12 263.9 494.42 261.85 496.03 261.85C497.63 261.85 498.93 263.9 498.93 266.43ZM534.85 266.43C534.85 268.95 533.54 271 531.94 271C530.33 271 529.03 268.95 529.03 266.43C529.03 263.9 530.33 261.85 531.94 261.85C533.54 261.85 534.85 263.9 534.85 266.43ZM490.27 251.21C492.68 250.52 497.56 249.36 502.71 249.34C504.06 249.34 505.1 250.54 504.86 251.87L504.85 251.91C504.66 252.97 503.71 253.73 502.63 253.68C499.13 253.51 489.93 254 485.59 255.76C485.51 255.01 485.95 254.18 486.58 253.45C487.54 252.34 488.85 251.6 490.27 251.21ZM537.25 251.3C534.84 250.62 529.96 249.45 524.81 249.44C523.46 249.43 522.42 250.64 522.66 251.97L522.67 252C522.86 253.07 523.81 253.82 524.89 253.77C528.39 253.61 537.58 254.1 541.92 255.86C542.01 255.1 541.57 254.28 540.94 253.54C539.98 252.43 538.66 251.7 537.25 251.3Z" />
		<path id="Path 130" class="shp5" d="M514.68 285.03C513.82 285.03 512.96 284.88 512.24 284.45C511.58 284.06 510.76 283.26 510.6 281.7C510.18 277.57 511.23 264.62 511.28 264.07C511.33 263.45 511.87 262.99 512.49 263.04C513.11 263.09 513.57 263.64 513.52 264.25C513.51 264.39 512.43 277.55 512.84 281.47C512.91 282.16 513.19 282.4 513.39 282.52C514.45 283.15 516.89 282.51 517.9 282.09C518.48 281.86 519.14 282.14 519.37 282.71C519.6 283.28 519.33 283.94 518.75 284.17C518.46 284.29 516.58 285.03 514.68 285.03Z" />
		<path id="Path 131" class="shp7" d="M500.41 292.13C501.26 296.41 504.08 304.27 513.6 304.27C523.14 304.27 525.81 297.08 526.73 292.13L500.41 292.13Z" />
		<path id="Path 132" class="shp5" d="M513.46 310.84C510.71 310.84 508.29 309.36 508.19 309.29C507.66 308.97 507.5 308.27 507.82 307.75C508.15 307.22 508.84 307.06 509.37 307.38C509.39 307.39 511.36 308.59 513.46 308.59C515.73 308.59 517.76 307.39 517.78 307.38C518.31 307.06 519 307.23 519.32 307.76C519.64 308.29 519.47 308.98 518.94 309.3C518.84 309.36 516.37 310.84 513.46 310.84Z" />
		<path id="Path 133" class="shp4" d="M561.76 244.71C561.4 245.73 560.39 246.39 559.05 246.78C559.15 249.26 558.89 252.24 558.64 255.1C557.26 271.35 553.16 274.2 552.23 270.18C551.62 267.52 551.66 252.21 551.95 247.22C548.74 247.01 546 246.48 546 246.48L542.23 230.7L540.91 246.28C535.26 248.25 522.07 245.1 522.07 245.1L517.64 229.55L514.9 244.51C506.43 248.64 495.83 245.89 495.83 245.89L493.39 229.75L487.77 245.89C487.77 245.89 469.68 252.38 469.48 245.89C469.36 242.11 472.13 231.48 474.47 223.24C477.01 214.25 482.92 206.66 490.9 202.38C513.34 190.34 537.06 196.74 545.21 201.61C562.47 211.91 561.76 244.71 561.76 244.71ZM479.45 211.94C479.45 211.94 464.56 229.65 459.66 261.29C454.76 292.92 447.97 316.3 467.03 326.74C487.67 338.05 485.88 314.86 485.58 308.56C485.29 302.26 467.74 285.03 479.45 236.52C483.23 220.85 479.45 211.94 479.45 211.94Z" />
		<path id="Path 134" class="shp16" d="M475.97 277.31L475.97 277.35C475.97 277.58 475.99 278.84 476.08 280.81C476.12 282.03 476.2 283.52 476.31 285.2C477.01 295.86 479.09 314.27 485.18 320.65C487.58 323.18 492.22 324.44 497.67 324.96L497.67 316.58C491.92 313.85 487.44 309.37 483.96 303.85C481.82 299.2 478.11 291.92 476.38 280.47L475.97 277.31Z" />
		<path id="Path 135" class="shp7" d="M557.5 287.66C557.5 289.12 556.32 290.3 554.87 290.3C553.41 290.3 552.23 289.12 552.23 287.66C552.23 286.21 553.41 285.03 554.87 285.03C556.32 285.03 557.5 286.21 557.5 287.66Z" />
		<path id="Path 136" class="shp11" d="M201.08 775.56L134.52 775.56L134.52 703.42L201.08 703.42L201.08 775.56Z" />
		<path id="Path 137" class="shp12" d="M201.08 775.56L134.52 775.56L134.52 757.71L201.08 757.71L201.08 775.56Z" />
		<path id="Path 138" class="shp14" d="M160.52 703.42L174.24 703.42C175.03 699.41 183.07 656.51 175.79 619.75C168.15 581.16 144.83 558.24 130.36 574.73C115.89 591.22 133.98 623.37 147.65 646.65C160.56 668.65 160.56 700.03 160.52 703.42Z" />
		<path id="Path 139" class="shp13" d="M165.59 703.42L169.21 703.42C172.87 643.32 145.72 597.18 145.44 596.71C144.92 595.86 143.81 595.58 142.95 596.09C142.1 596.61 141.82 597.72 142.34 598.57C142.61 599.04 169.25 644.38 165.59 703.42Z" />
		<path id="Path 140" class="shp14" d="M223.91 584.49C192.91 584.49 175.35 678.95 177.64 703.42L190.83 703.42C191.91 697.21 197.06 680.64 220.36 642.97C231.25 625.37 255.87 584.49 223.91 584.49Z" />
		<path id="Path 141" class="shp13" d="M218.47 610.76C217.6 610.27 216.49 610.57 215.99 611.44C215.71 611.95 189.39 658.87 183.07 703.42L186.73 703.42C193.05 659.76 218.86 613.72 219.15 613.22C219.64 612.35 219.34 611.26 218.47 610.76Z" />
		<path id="Path 142" class="shp14" d="M158.48 703.42C159 685.96 134.64 614.97 113.85 620.1C91.13 625.71 115.91 659.12 125.2 671.55C140.01 691.33 145.76 699.81 147.93 703.42L158.48 703.42Z" />
		<path id="Path 143" class="shp13" d="M154.54 703.42C147.49 674.04 122.22 639.95 121.07 638.4C120.47 637.59 119.34 637.44 118.54 638.03C117.74 638.63 117.57 639.76 118.17 640.56C118.45 640.94 143.57 674.86 150.79 703.42L154.54 703.42Z" />
		<path id="Path 144" class="shp17" d="M506.21 889.93C505.34 890.82 504.6 891.79 503.99 892.84L503.06 892.36C502.93 891.76 502.36 891.35 501.74 891.42C501.08 891.5 500.61 892.1 500.68 892.76C500.76 893.42 501.36 893.9 502.02 893.82C502.16 893.81 502.28 893.77 502.39 893.72L503.29 894.18C502.79 895.29 502.43 896.46 502.22 897.67L503.71 897.93C504.17 895.32 505.41 892.92 507.29 890.99L506.21 889.93ZM517.18 885.33C516.84 885.33 516.5 885.34 516.16 885.36L516.02 884.11C516.39 883.81 516.61 883.33 516.55 882.82C516.46 882.03 515.74 881.47 514.96 881.56C514.17 881.66 513.61 882.37 513.7 883.15C513.76 883.66 514.08 884.08 514.51 884.28L514.66 885.53C513.23 885.76 511.85 886.19 510.54 886.82L511.19 888.19C513.06 887.29 515.08 886.84 517.18 886.84C518.18 886.84 519.17 886.95 520.13 887.16L520.46 885.68C519.39 885.45 518.29 885.33 517.18 885.33ZM530.39 890.42C531.05 890.34 531.52 889.74 531.44 889.08C531.36 888.41 530.76 887.95 530.1 888.03C529.48 888.1 529.02 888.63 529.03 889.24L528.2 889.97C527.37 889.11 526.42 888.34 525.39 887.69L524.58 888.97C526.85 890.4 528.62 892.43 529.71 894.82L531.09 894.2C530.59 893.09 529.95 892.05 529.2 891.11L530.01 890.41C530.13 890.43 530.26 890.44 530.39 890.42ZM516.09 905.74C515.32 905.79 514.54 905.81 513.77 905.81C512.01 905.81 510.31 905.69 508.82 905.45C508.04 905.33 507.13 905.14 506.28 904.87C508.37 908.59 512.42 911.12 517.05 911.12C522.77 911.12 527.58 907.29 528.95 902.11C527.59 903.01 525.94 903.76 524.04 904.36C521.68 905.09 518.93 905.57 516.09 905.74Z" />
		<path id="Path 145" fill-rule="evenodd" class="shp17" d="M529.25 898.75C529.3 899.13 529.33 899.52 529.34 899.91C526.59 902.32 521.75 903.88 515.99 904.23C510.71 904.55 506.65 903.73 505.3 902.77C505.12 901.94 505.03 901.1 505.03 900.25C505.03 893.69 510.48 888.36 517.18 888.36C523.3 888.36 528.49 892.83 529.25 898.75ZM516.56 897.69C516.56 895.65 514.9 893.99 512.87 893.99C510.82 893.99 509.17 895.65 509.17 897.69C509.17 899.73 510.82 901.39 512.87 901.39C514.9 901.39 516.56 899.73 516.56 897.69ZM525.06 896.85C525.06 895.35 523.84 894.13 522.34 894.13C520.84 894.13 519.62 895.35 519.62 896.85C519.62 898.35 520.84 899.57 522.34 899.57C523.84 899.57 525.06 898.35 525.06 896.85ZM549.19 892.09C548.6 891.86 547.58 891.48 546.43 891.62C545.32 891.76 544.74 892.3 544.74 893.63L544.74 895.36L549.19 895.36L549.19 898.8L544.74 898.8L544.74 909.71L540.88 909.71L540.88 898.8L538.2 898.8L538.2 895.36L540.88 895.36L540.88 893.59C540.88 890.23 542.67 888.02 546.01 888.02C547.3 888.02 548.33 888.27 549.19 888.64L549.19 892.09ZM558.6 898.76C558.24 898.7 557.88 898.66 557.54 898.66C555.75 898.66 554.52 899.76 554.52 901.89L554.52 909.71L550.66 909.71L550.66 895.36L554.41 895.36L554.41 896.93C555.31 895.59 556.69 894.98 558.45 894.98C559.28 894.98 560.14 895.23 560.64 895.65L558.6 898.76Z" />
		<path id="Path 146" fill-rule="evenodd" class="shp17" d="M573.93 902.51C573.93 902.96 573.9 903.49 573.86 903.82L563.69 903.82C564.1 905.89 565.55 906.79 567.37 906.79C568.62 906.79 569.96 906.29 571 905.42L573.26 907.9C571.64 909.4 569.56 910.08 567.15 910.08C562.75 910.08 559.71 907.09 559.71 902.57C559.71 898.06 562.67 894.98 566.96 894.98C571.09 894.98 573.92 898.04 573.93 902.51ZM563.7 901.18L570.05 901.18C569.7 899.35 568.59 898.31 566.93 898.31C565.11 898.31 564.04 899.4 563.7 901.18ZM589.24 902.51C589.24 902.96 589.21 903.49 589.16 903.82L578.99 903.82C579.41 905.89 580.86 906.79 582.68 906.79C583.92 906.79 585.27 906.29 586.31 905.42L588.57 907.9C586.94 909.4 584.87 910.08 582.46 910.08C578.06 910.08 575.01 907.09 575.01 902.57C575.01 898.06 577.97 894.98 582.26 894.98C586.39 894.98 589.22 898.04 589.24 902.51ZM579.01 901.18L585.36 901.18C585 899.35 583.89 898.31 582.23 898.31C580.41 898.31 579.35 899.4 579.01 901.18ZM605.93 902.53C605.93 906.84 602.94 910.08 598.99 910.08C597.06 910.08 595.7 909.32 594.77 908.21L594.77 915.63L590.92 915.63L590.92 895.36L594.69 895.36L594.69 896.95C595.62 895.78 597 894.98 598.97 894.98C602.94 894.98 605.93 898.22 605.93 902.53ZM594.57 902.53C594.57 904.79 596.07 906.48 598.26 906.48C600.54 906.48 601.96 904.72 601.96 902.53C601.96 900.34 600.54 898.58 598.26 898.58C596.07 898.58 594.57 900.26 594.57 902.53ZM611.62 909.71L607.75 909.71L607.75 895.36L611.62 895.36L611.62 909.71ZM612.13 890.67C612.13 892.06 611.05 893.13 609.66 893.13C608.27 893.13 607.21 892.06 607.21 890.67C607.21 889.28 608.27 888.19 609.66 888.19C611.05 888.19 612.13 889.28 612.13 890.67ZM618.06 900.47L623.47 895.36L628.2 895.36L621.25 902.11L628.25 909.71L623.5 909.71L618.06 903.9L618.06 909.71L614.2 909.71L614.2 888.39L618.06 888.39L618.06 900.47ZM354.83 909.58L354.83 907.47C353.77 908.9 352.04 909.93 350.05 909.93C346.36 909.93 343.75 907.12 343.75 902.52C343.75 898.01 346.33 895.08 350.05 895.08C351.95 895.08 353.68 896.01 354.83 897.57L354.83 890.04L357.02 890.04L357.02 909.58L354.83 909.58ZM354.83 905.74L354.83 899.32C354.03 898.09 352.34 897.04 350.58 897.04C347.74 897.04 346.04 899.38 346.04 902.52C346.04 905.65 347.74 907.97 350.58 907.97C352.34 907.97 354.03 906.97 354.83 905.74Z" />
		<path id="Path 147" fill-rule="evenodd" class="shp17" d="M359.86 902.49C359.86 898.39 362.79 895.08 366.84 895.08C371.11 895.08 373.63 898.42 373.63 902.66L373.63 903.22L362.18 903.22C362.35 905.89 364.23 908.11 367.27 908.11C368.89 908.11 370.53 907.47 371.64 906.33L372.69 907.76C371.29 909.17 369.38 909.93 367.07 909.93C362.88 909.93 359.86 906.91 359.86 902.49ZM366.81 896.89C363.79 896.89 362.29 899.44 362.18 901.61L371.46 901.61C371.43 899.5 370.03 896.89 366.81 896.89ZM375.21 907.7L376.36 906.12C377.29 907.21 379.08 908.14 381.01 908.14C383.18 908.14 384.35 907.12 384.35 905.71C384.35 902.28 375.59 904.39 375.59 899.15C375.59 896.95 377.5 895.08 380.87 895.08C383.27 895.08 384.97 895.99 386.11 897.13L385.09 898.65C384.24 897.63 382.68 896.86 380.87 896.86C378.93 896.86 377.73 897.83 377.73 899.09C377.73 902.2 386.49 900.15 386.49 905.65C386.49 908.03 384.59 909.93 380.93 909.93C378.61 909.93 376.65 909.23 375.21 907.7ZM389.33 895.43L391.53 895.43L391.53 909.58L389.33 909.58L389.33 895.43ZM388.95 891.94C388.95 891.12 389.63 890.45 390.42 890.45C391.24 890.45 391.91 891.12 391.91 891.94C391.91 892.76 391.24 893.41 390.42 893.41C389.63 893.41 388.95 892.76 388.95 891.94ZM395.16 913.21L396.28 911.57C397.45 912.98 398.85 913.5 400.88 913.5C403.22 913.5 405.42 912.36 405.42 909.26L405.42 907.23C404.39 908.67 402.66 909.75 400.67 909.75C396.98 909.75 394.37 907 394.37 902.43C394.37 897.89 396.95 895.08 400.67 895.08C402.57 895.08 404.27 896.01 405.42 897.57L405.42 895.43L407.61 895.43L407.61 909.17C407.61 913.86 404.33 915.32 400.88 915.32C398.47 915.32 396.83 914.85 395.16 913.21ZM405.42 905.51L405.42 899.32C404.65 898.09 402.96 897.04 401.2 897.04C398.36 897.04 396.66 899.3 396.66 902.43C396.66 905.54 398.36 907.82 401.2 907.82C402.96 907.82 404.65 906.74 405.42 905.51ZM420.83 909.58L420.83 900.32C420.83 897.83 419.57 897.04 417.66 897.04C415.93 897.04 414.29 898.09 413.47 899.24L413.47 909.58L411.28 909.58L411.28 895.43L413.47 895.43L413.47 897.48C414.47 896.31 416.4 895.08 418.51 895.08C421.47 895.08 423.02 896.57 423.02 899.65L423.02 909.58L420.83 909.58ZM425.86 902.49C425.86 898.39 428.79 895.08 432.84 895.08C437.11 895.08 439.63 898.42 439.63 902.66L439.63 903.22L428.18 903.22C428.35 905.89 430.23 908.11 433.28 908.11C434.89 908.11 436.53 907.47 437.64 906.33L438.7 907.76C437.29 909.17 435.39 909.93 433.07 909.93C428.88 909.93 425.86 906.91 425.86 902.49ZM432.81 896.89C429.79 896.89 428.3 899.44 428.18 901.61L437.47 901.61C437.44 899.5 436.03 896.89 432.81 896.89ZM452.7 909.58L452.7 907.47C451.65 908.9 449.92 909.93 447.92 909.93C444.23 909.93 441.63 907.12 441.63 902.52C441.63 898.01 444.2 895.08 447.92 895.08C449.83 895.08 451.56 896.01 452.7 897.57L452.7 890.04L454.9 890.04L454.9 909.58L452.7 909.58ZM452.7 905.74L452.7 899.32C451.91 898.09 450.21 897.04 448.45 897.04C445.61 897.04 443.91 899.38 443.91 902.52C443.91 905.65 445.61 907.97 448.45 907.97C450.21 907.97 451.91 906.97 452.7 905.74ZM465.38 909.58L465.38 890.04L467.58 890.04L467.58 897.57C468.72 896.01 470.42 895.08 472.36 895.08C476.05 895.08 478.66 898.01 478.66 902.52C478.66 907.12 476.05 909.93 472.36 909.93C470.36 909.93 468.64 908.9 467.58 907.47L467.58 909.58L465.38 909.58ZM471.8 907.97C474.67 907.97 476.37 905.65 476.37 902.52C476.37 899.38 474.67 897.04 471.8 897.04C470.07 897.04 468.34 898.09 467.58 899.32L467.58 905.74C468.34 906.97 470.07 907.97 471.8 907.97ZM481.06 913.12C481.38 913.27 481.91 913.36 482.26 913.36C483.22 913.36 483.87 913.04 484.37 911.86L485.31 909.73L479.39 895.43L481.76 895.43L486.48 907.03L491.16 895.43L493.57 895.43L486.48 912.45C485.63 914.5 484.19 915.29 482.32 915.32C481.85 915.32 481.11 915.23 480.71 915.12L481.06 913.12Z" />
	</g>
</svg>