<svg xmlns="http://www.w3.org/2000/svg" viewBox="0 0 914 867" width="914" height="867">
	<defs>
		<clipPath clipPathUnits="userSpaceOnUse" id="cp1">
			<path d="M-37 -43L963 -43L963 957L-37 957Z" />
		</clipPath>
	</defs>
	<style>
		tspan { white-space:pre }
		.shp0 { fill: #506de4 } 
		.shp1 { fill: none;stroke: #1f2641;stroke-width: 0.4 } 
		.shp2 { fill: #ffc873 } 
		.shp3 { fill: #edf1ff } 
		.shp4 { fill: #e7ebfa } 
		.shp5 { fill: none;stroke: #d6dfff;stroke-width: 2 } 
		.shp6 { fill: none;stroke: #d6dfff;stroke-width: 1.566 } 
		.shp7 { fill: none;stroke: #090e21;stroke-width: 0.58 } 
		.shp8 { fill: #4dc7b8 } 
		.shp9 { fill: none;stroke: #090e21;stroke-linecap:round;stroke-linejoin:round;stroke-width: 0.58 } 
		.shp10 { fill: #ffb440 } 
		.shp11 { fill: #f3b595 } 
		.shp12 { fill: #090e21 } 
		.shp13 { fill: #1e2e6e } 
		.shp14 { fill: #19265c } 
		.shp15 { fill: none;stroke: #ffffff;stroke-linecap:round;stroke-linejoin:round;stroke-width: 0.55 } 
		.shp16 { fill: none;stroke: #ffffff;stroke-linecap:round;stroke-linejoin:round;stroke-width: 0.55;stroke-dasharray: 4,4 } 
		.shp17 { fill: #4862cf } 
		.shp18 { fill: #f2ac88 } 
		.shp19 { fill: #42210b } 
		.shp20 { fill: none;stroke: #42210b;stroke-linecap:round;stroke-linejoin:round;stroke-width: 1.098 } 
		.shp21 { fill: none;stroke: #172354;stroke-linecap:round;stroke-linejoin:round;stroke-width: 2.198 } 
		.shp22 { fill: #915e44 } 
		.shp23 { fill: none;stroke: #4259ba;stroke-linecap:round;stroke-linejoin:round;stroke-width: 2.198 } 
		.shp24 { fill: none;stroke: #4259ba;stroke-linecap:round;stroke-linejoin:round;stroke-width: 4.394 } 
		.shp25 { fill: none;stroke: #ffffff;stroke-linecap:round;stroke-linejoin:round;stroke-width: 2.198 } 
		.shp26 { fill: #dae2f5 } 
		.shp27 { fill: #8ea3f5 } 
		.shp28 { fill: #000000 } 
		.shp29 { fill: #f38061 } 
		.shp30 { fill: #53d6c6 } 
		.shp31 { fill: none;stroke: #44b0a3;stroke-linecap:round;stroke-linejoin:round;stroke-width: 2.198 } 
		.shp32 { fill: #783c13 } 
		.shp33 { fill: #ffffff } 
		.shp34 { fill: #57e0cf } 
		.shp35 { fill: none;stroke: #ffffff;stroke-linecap:round;stroke-linejoin:round;stroke-width: 0.55;stroke-dasharray: 4 } 
		.shp36 { fill: #cc9033 } 
		.shp37 { fill: #996c26 } 
		.shp38 { fill: #c1c6db } 
		.shp39 { fill: #d6d9e6 } 
		.shp40 { fill: #092229 } 
		.shp41 { fill: none;stroke: #e5e9fb;stroke-width: 1.194 } 
		.shp42 { fill: #e5e9fb } 
		.shp43 { fill: #eb7150 } 
		.shp44 { fill: none;stroke: #f38061;stroke-linecap:round;stroke-linejoin:round;stroke-width: 2.198 } 
		.shp45 { fill: none;stroke: #d9a350;stroke-linecap:round;stroke-linejoin:round;stroke-width: 2.198 } 
		.shp46 { fill: none;stroke: #0b1129;stroke-width: 2.198 } 
		.shp47 { fill: #ffd38f } 
		.shp48 { fill: #ffb94d } 
		.shp49 { fill: #465fc7 } 
		.shp50 { fill: none;stroke: #43ada0;stroke-linecap:round;stroke-linejoin:round;stroke-width: 2.198 } 
		.shp51 { fill: none;stroke: #0d1430;stroke-linecap:round;stroke-linejoin:round;stroke-width: 2.198 } 
		.shp52 { fill: #ffb29e } 
		.shp53 { fill: #e68c75 } 
		.shp54 { fill: #784900 } 
		.shp55 { fill: #112129 } 
	</style>
	<g id="Page 1" clip-path="url(#cp1)">
		<path id="Path 2" class="shp0" d="M712.14 541.64C712.14 541.64 695.57 534.88 702.01 525.57C708.44 516.27 714.25 534.66 712.14 541.64Z" />
		<path id="Path 3" class="shp1" d="M720.56 604.4C720.56 604.4 724.59 557.75 706.47 531.19" />
		<path id="Path 4" class="shp0" d="M709.57 549.8C709.57 549.8 693.52 557.73 690.82 546.74C688.11 535.75 705.74 543.59 709.57 549.8Z" />
		<path id="Path 5" class="shp1" d="M715.69 551.61C715.69 551.61 712.14 549.4 703.23 548.7" />
		<path id="Path 6" class="shp0" d="M713.49 570.99C713.49 570.99 699.67 582.36 694.54 572.27C689.41 562.18 708.36 565.82 713.49 570.99Z" />
		<path id="Path 7" class="shp1" d="M719.87 571.37C719.87 571.37 715.91 570.02 707.08 571.36" />
		<path id="Path 8" class="shp0" d="M714.92 591.41C714.92 591.41 699.05 599.68 696.11 588.75C693.18 577.82 710.96 585.29 714.92 591.41Z" />
		<path id="Path 9" class="shp1" d="M721.08 593.09C721.08 593.09 717.48 590.96 708.57 590.45" />
		<path id="Path 10" class="shp0" d="M723.54 559.09C723.54 559.09 727.6 541.66 737.81 546.54C748.01 551.42 730.77 560.07 723.54 559.09Z" />
		<path id="Path 11" class="shp1" d="M718.26 562.68C718.26 562.68 722.23 561.33 728.41 554.89" />
		<path id="Path 12" class="shp0" d="M725.97 580.59C725.97 580.59 730.02 563.16 740.23 568.04C750.44 572.92 733.19 581.57 725.97 580.59Z" />
		<path id="Path 13" class="shp1" d="M720.68 584.18C720.68 584.18 724.65 582.83 730.83 576.39" />
		<path id="Path 14" class="shp2" d="M693.23 601.04C691.59 601.04 690.31 602.47 690.52 604.09C690.71 605.44 691.04 607.68 691.66 610.41C697.59 636.54 734.08 640.1 744.36 615.35C745.78 611.93 746.77 608.13 747.08 603.94C747.2 602.37 745.93 601.04 744.35 601.04L693.23 601.04Z" />
		<path id="Path 15" class="shp3" d="M115.64 671.33C99.82 644.72 94.9 614.87 107 587.2C119.78 557.96 146.31 532.01 143.33 499.65C139.82 461.53 104.1 429.4 90.87 393.51C63.13 318.3 130.3 302.43 212.22 290.69C239.87 286.73 269.63 282.92 292.88 269.36C323.86 251.3 337.1 220.81 371.74 205.22C434.05 177.19 484.25 211.25 531.55 241.11C585.62 275.24 659.22 264.85 715.2 294.75C775.95 327.2 793.24 399.46 754.65 449.12C742.11 465.25 724.68 482.67 718.68 501.11C708.38 532.71 731.72 559.84 753.67 585.28C790.91 628.42 812.48 700.98 762.9 743.88C684.12 812.03 551.98 775.9 464.16 743.82C392.58 717.67 324.21 756.14 251.67 751.99C195.09 748.75 141.18 714.27 115.64 671.33Z" />
		<path id="Path 16" class="shp4" d="M876.44 818.22C885.59 848.93 863.17 860.35 642.74 865.9C110.02 879.32 25.99 852.27 25.99 820.22C25.99 788.18 250.32 750.01 558.8 786.47C731.14 806.83 853.64 741.71 876.44 818.22Z" />
		<path id="Path 17" class="shp5" d="M326.71 118.62C321.04 115.29 319.27 111.55 323.61 108.09C328.19 104.43 337.71 101.19 336.64 97.14C335.38 92.37 322.57 88.35 317.83 83.86C307.88 74.45 331.97 72.47 361.34 71C371.26 70.5 381.93 70.03 390.27 68.33C401.38 66.07 406.12 62.26 418.55 60.31C440.89 56.8 458.89 61.06 475.85 64.79C495.24 69.07 521.63 67.77 541.71 71.51C563.49 75.57 569.69 84.6 555.85 90.82C551.36 92.84 545.11 95.01 542.95 97.32C539.26 101.28 547.63 104.67 555.5 107.85C568.86 113.25 576.59 122.33 558.81 127.69C530.57 136.22 483.18 131.7 451.69 127.69C426.02 124.41 401.5 129.23 375.49 128.71C355.2 128.3 335.87 123.99 326.71 118.62ZM833.63 225.75C829.82 227.09 826.16 228.99 822.71 231.63C800.3 248.79 783.05 239.89 759.7 229.85C749.88 225.63 743 225.45 732.63 226.74C726.36 227.51 712.75 231.68 707.46 225.9C696.57 213.94 728.96 208.71 734.36 204.74C747.41 195.17 732.5 172.83 754.81 173.04C767.05 173.15 778.62 175.34 789.95 169.66C800.32 164.46 807.12 154.16 818.54 150.63C850.39 140.81 878.76 165.04 907.81 173.35C918.57 176.43 920.46 180.62 922.48 190.67C933.31 244.59 862.44 215.65 833.63 225.75Z" />
		<path id="Path 18" class="shp6" d="M52.34 352.18C55.7 353.11 58.93 354.43 61.98 356.27C81.74 368.2 96.95 362.01 117.55 355.03C126.21 352.09 132.29 351.97 141.43 352.86C146.96 353.4 158.97 356.3 163.63 352.28C173.24 343.97 144.67 340.32 139.9 337.57C128.39 330.91 141.54 315.37 121.87 315.52C111.07 315.6 100.87 317.12 90.87 313.16C81.73 309.55 75.73 302.38 65.65 299.93C37.57 293.1 12.54 309.95 -13.08 315.73C-22.57 317.88 -24.24 320.79 -26.02 327.78C-35.57 365.28 26.94 345.15 52.34 352.18Z" />
		<path id="Path 19" class="shp0" d="M99.6 658.55C99.6 658.55 74.18 619.86 96.55 621.18C96.55 621.18 114.82 622.1 99.6 658.55ZM102.33 676.73C102.33 676.73 107.24 647.07 116.82 646.5C116.82 646.5 141.38 649.28 102.33 676.73ZM105.29 690.42C105.29 690.42 81.43 666.93 78.82 677.65C78.82 677.65 73.54 690.89 105.29 690.42ZM108.41 701.81C108.41 701.81 119.62 672.41 133.94 673.61C133.94 673.61 153 679.18 108.41 701.81ZM110.66 710.59C110.66 710.59 84.73 688.19 80.47 707.25C80.47 707.25 77.23 721.09 110.66 710.59ZM116.97 725.1C116.97 725.1 124.53 692.68 139.69 696.06C139.69 696.06 160.7 704.1 116.97 725.1ZM120.88 734.09C120.88 734.09 93.92 717.87 89.15 729.51C89.15 729.51 81.72 746.6 120.88 734.09ZM130.1 747.47C130.1 747.47 139.87 712.56 155.21 725.35C155.21 725.35 164.98 738.58 130.1 747.47ZM136.39 758.21C136.39 758.21 103.57 742.16 103.2 761.81C103.2 761.81 103.02 778.59 136.39 758.21ZM145.06 768.39C145.06 768.39 148.32 742.68 162.33 741.72C162.33 741.72 183.43 746.41 145.06 768.39ZM150.98 774.25C150.98 774.25 107.31 763.22 110.06 783.06C110.06 783.06 111.96 803.61 150.98 774.25ZM100.39 669.72C100.39 669.72 64.03 664.23 76.12 649.5C76.12 649.5 83.59 640.51 100.39 669.72Z" />
		<path id="Path 20" class="shp7" d="M98.31 639.65C98.31 639.65 98.18 735.06 160.22 782.01M101.05 669.3C101.05 669.3 87.27 661.27 81.16 656.12M102.83 673.84C102.83 673.84 115.29 664.97 118.09 654.06M108.25 701.27C108.25 701.27 124.83 689.16 128.17 681.43M105.29 690.42C105.29 690.42 92.41 685.07 87.41 681.28M111.12 710.18C111.12 710.18 95.67 709.18 92.15 708.29M116.8 724.7C116.8 724.7 127.5 715.03 131.35 709.77M121.12 733.87C121.12 733.87 105.86 734.63 99.62 732.13M130.1 747.47C130.1 747.47 134.08 744.48 143.87 734.34M133.34 756.85C133.34 756.85 125.51 760.22 113.86 760.7M144.89 768.33L158.45 750.95M150.98 774.25L123.34 781.79" />
		<path id="Path 21" class="shp8" d="M189.24 675.98C189.24 675.98 194.09 641.39 206.12 653.28C206.12 653.28 216.01 662.89 189.24 675.98ZM181.73 687.64C181.73 687.64 199.28 673.27 205 677.71C205 677.71 217.54 691.52 181.73 687.64ZM176.6 696.87C176.6 696.87 174.77 671.68 167.96 676.46C167.96 676.46 158.37 681.33 176.6 696.87ZM172.7 704.88C172.7 704.88 193.69 693.8 201.21 701.6C201.21 701.6 209.23 714.25 172.7 704.88ZM169.6 710.98C169.6 710.98 166.06 685.37 154.15 694.05C154.15 694.05 145.43 700.28 169.6 710.98ZM165.96 722.34C165.96 722.34 186.38 707.74 193.29 717.19C193.29 717.19 201.19 732.21 165.96 722.34ZM163.7 729.38C163.7 729.38 156.49 706.77 147.99 710.99C147.99 710.99 135.27 716.98 163.7 729.38ZM162.26 741.56C162.26 741.56 185.18 726.64 187.51 741.52C187.51 741.52 186.46 753.89 162.26 741.56ZM160.48 750.78C160.48 750.78 149.87 725.35 139.87 736.3C139.87 736.3 131.42 745.72 160.48 750.78ZM160.33 760.87C160.33 760.87 174.97 747.92 183.39 754.34C183.39 754.34 193.01 767.51 160.33 760.87ZM160.76 767.13C160.76 767.13 141.5 739.14 133.18 751.76C133.18 751.76 124.03 764.35 160.76 767.13ZM184.12 682.7C184.12 682.7 166.25 661.49 180.44 659.16C180.44 659.16 189.14 657.78 184.12 682.7Z" />
		<path id="Path 22" class="shp9" d="M197.92 664.62C197.92 664.62 150.34 718.63 162.13 776.14M184.71 682.79C184.71 682.79 180.9 671.38 180 665.42M183.46 686.25C183.46 686.25 194.94 687.43 201.96 682.64M172.87 704.5C172.87 704.5 188.3 705.89 194.05 703.17M176.6 696.87C176.6 696.87 171.96 687.42 171.02 682.79M170.07 710.98C170.07 710.98 161.81 702.71 160.26 700.46M166.06 722.03C166.06 722.03 176.94 721.88 181.73 720.81M163.94 729.38C163.94 729.38 154.91 722.22 152.62 717.69M162.26 741.56C162.26 741.56 166.01 741.85 176.6 740.97M159.43 748.49C159.43 748.49 153.32 746.5 146.47 740.97M160.26 760.74L176.6 757.65M160.76 767.13L141.34 757.65" />
		<path id="Path 23" class="shp10" d="M103.43 776.94L182.92 776.94L169.95 826.21L119.24 826.21L103.43 776.94Z" />
		<path id="Path 24" class="shp2" d="M97.24 773.65L189.54 773.65L182.92 790.08L104.71 790.08L97.24 773.65Z" />
		<path id="Path 25" class="shp11" d="M385.65 799.56L386.4 814.03L401.87 814.03L401.19 794.2L385.65 799.56Z" />
		<path id="Path 26" class="shp12" d="M406.25 815.75C406.25 817.21 406.49 820.37 403.03 821.49C395.11 824.05 378.07 823.72 367.54 823.72C356.15 823.72 351.5 820.58 351.5 815.75C351.5 812.12 360.43 814.3 372.03 812.67C375.9 812.12 381.76 806.73 385.17 808.35C396.12 813.55 398.69 811.26 402.25 810.59C403.95 810.27 406.25 813.55 406.25 815.75Z" />
		<path id="Path 27" class="shp11" d="M462.99 799.56L462.24 814.03L446.77 814.03L447.46 794.2L462.99 799.56Z" />
		<path id="Path 28" class="shp12" d="M442.39 815.75C442.39 817.21 442.16 820.37 445.61 821.49C453.53 824.05 470.57 823.72 481.1 823.72C492.49 823.72 497.14 820.58 497.14 815.75C497.14 812.12 488.21 814.3 476.61 812.67C472.75 812.12 466.89 806.73 463.47 808.35C452.52 813.55 449.96 811.26 446.39 810.59C444.7 810.27 442.39 813.55 442.39 815.75Z" />
		<path id="Path 29" class="shp13" d="M371.15 510.83C371.15 510.83 364.96 630.66 360.87 672.98C360.87 672.98 372.86 756.52 381.76 805.97C381.76 805.97 389.59 809.43 401.87 806.07L409.51 685.1L441.47 510.83L371.15 510.83Z" />
		<path id="Path 30" class="shp14" d="M473.27 510.23C473.27 510.23 479.07 630.36 482.9 672.68C482.9 672.68 475.2 754.24 466.86 803.7C466.86 803.7 457.74 809.81 446.23 806.46L437.31 684.76L423.9 606.58L420.52 506.51L473.27 510.23Z" />
		<path id="Path 31" class="shp15" d="M371.86 585.22C371.86 585.22 371.79 585.99 371.66 587.4" />
		<path id="Path 32" class="shp16" d="M371.26 591.74C369.71 608.6 365.52 653.7 363.14 673.55L381.87 797.48" />
		<path id="Path 33" class="shp15" d="M382.2 799.66L382.52 801.84M475.6 587.92C475.6 587.92 475.62 588.69 475.65 590.11" />
		<path id="Path 34" class="shp16" d="M475.75 594.46C476.13 610.87 477.34 653.82 479.71 673.55L468.37 792.6" />
		<path id="Path 35" class="shp15" d="M468.16 794.79L467.96 796.98" />
		<path id="Path 36" class="shp0" d="M479.69 390.05C468.17 374.93 451.72 367.73 434.18 360.35C425.97 356.91 417.98 356.05 410.01 357.78C405.67 358.71 401.35 360.41 396.99 362.86C396.99 362.86 386.77 367.18 376.48 374.12C378.69 401.79 366.85 428.19 363.14 456.38C364.77 453.12 366.42 449.9 367.97 446.92C364.47 477.68 367.4 550.86 367.4 550.86C439.73 564.73 475.97 556.04 475.97 544.54C475.97 508.8 472.91 459.59 469.27 438.95C471.54 442.54 474.21 446.5 476.85 450.34C478.2 429.91 479.92 410.08 479.69 390.05Z" />
		<path id="Path 37" class="shp17" d="M376.76 535.58C376.76 535.58 370.36 451.79 369.25 439.27C368.48 440.76 368.84 445.25 367.97 446.92C364.47 477.68 367.4 550.86 367.4 550.86C439.73 564.73 475.97 556.04 475.97 544.54C475.97 519.56 475.33 471.97 467.87 432.5C469.3 446.92 466.5 455.63 456.97 519.2C456.97 519.2 406.72 546.43 376.76 535.58Z" />
		<path id="Path 38" class="shp11" d="M356.24 553.3C356.24 553.3 359.16 571.73 373.95 581.59C373.95 581.59 380.86 570.84 382.52 556.95C382.52 556.95 369.34 548.75 362.23 543.27L356.24 553.3ZM488.74 553.3C488.74 553.3 485.82 571.73 471.04 581.59C471.04 581.59 464.13 570.84 462.46 556.95C462.46 556.95 475.64 548.75 482.76 543.27L488.74 553.3Z" />
		<path id="Path 39" class="shp0" d="M376.48 374.12C370.66 378.05 364.82 382.82 360.81 388.13C338.51 417.63 321.93 473.47 321.93 487.78C321.93 495.07 352.57 561.41 358.07 564.61C362.45 567.17 370.48 548.55 370.48 548.55C367.54 530.3 353.69 479.57 353.69 479.57C354.84 473.76 358.88 464.91 363.14 456.38C366.85 428.19 378.69 401.79 376.48 374.12ZM518.85 462.59C516.49 445.07 492.3 409.3 482.63 394.2C481.69 392.74 480.7 391.38 479.69 390.05C479.92 410.08 478.2 429.91 476.85 450.34C483.44 459.89 489.91 468.62 489.91 468.62C489.91 474.54 475.97 544.54 475.97 544.54C475.97 544.54 488.02 562.67 492.03 558.41C498.77 551.27 520.17 472.38 518.85 462.59Z" />
		<path id="Path 40" class="shp11" d="M403.55 319.81L394.57 363.22C394.57 363.22 416.65 375.25 434.36 362.12L424.29 315.86L403.55 319.81Z" />
		<path id="Path 41" class="shp18" d="M403.55 319.81L394.57 363.22C394.57 363.22 395.29 363.6 396.55 364.16C408.1 356.81 419.26 348.66 429.43 339.51L424.29 315.86L403.55 319.81Z" />
		<path id="Path 42" class="shp11" d="M444.9 311.86C444.9 328.28 431.07 341.66 414.65 341.66L414.27 341.66C397.86 341.66 385.58 328.28 385.58 311.86L385.58 279.33C385.58 262.92 397.86 249.38 414.27 249.38L414.65 249.38C431.07 249.38 444.9 262.92 444.9 279.33L444.9 311.86Z" />
		<path id="Path 43" class="shp19" d="M403.55 288.3C403.55 289.22 402.8 289.98 401.87 289.98C400.95 289.98 400.19 289.22 400.19 288.3C400.19 287.37 400.95 286.62 401.87 286.62C402.8 286.62 403.55 287.37 403.55 288.3ZM427.64 288.3C427.64 289.22 426.89 289.98 425.96 289.98C425.03 289.98 424.28 289.22 424.28 288.3C424.28 287.37 425.03 286.62 425.96 286.62C426.89 286.62 427.64 287.37 427.64 288.3Z" />
		<path id="Path 44" class="shp20" d="M414.01 292.68C414.01 292.68 414.46 301.17 411.36 309.47C411.36 309.47 414.01 309.97 416.65 311.66M410.26 323.7C410.26 323.7 424.28 328.45 430.71 312.57" />
		<path id="Path 45" class="shp21" d="M395.3 283.19L402.14 279.71M431.71 283.19L424.87 279.71" />
		<path id="Path 46" class="shp11" d="M394.57 296.97C394.57 303.37 390.24 308.55 384.9 308.55C379.55 308.55 375.23 303.37 375.23 296.97C375.23 290.56 379.55 285.38 384.9 285.38C390.24 285.38 394.57 290.56 394.57 296.97ZM453.7 296.97C453.7 303.37 449.37 308.55 444.03 308.55C438.69 308.55 434.36 303.37 434.36 296.97C434.36 290.56 438.69 285.38 444.03 285.38C449.37 285.38 453.7 290.56 453.7 296.97Z" />
		<path id="Path 47" class="shp13" d="M433.87 250.25C435.11 249.07 440.17 248.12 441.63 248.17C448.46 248.41 447.03 269.35 447.04 271.8C447.08 277.45 442.55 294.71 442.51 295.6C442.98 284.56 442.53 274.01 440.42 266.95C438.62 260.91 428.97 256.63 433.35 250.82C433.5 250.63 433.67 250.43 433.87 250.25ZM394.77 250.25C393.6 249.07 391.63 248.12 390.25 248.17C383.8 248.41 382.77 258.72 382.45 264.44C382.31 266.89 382.34 269.35 382.32 271.8C382.29 277.45 382.15 277.65 383.12 283.19C383.59 285.83 386.65 293.97 386.68 294.86C386.24 283.83 386.33 277.82 388.32 270.76C390.02 264.72 399.39 256.63 395.26 250.82C395.12 250.63 394.95 250.43 394.77 250.25ZM385.51 268.03C374.5 265.11 371.34 259.59 370.92 259.55C372.98 259.75 382.91 249.62 385.79 245.99C406.25 220.28 431.25 233.62 436.64 241.18C439.18 244.75 439.33 252 436.38 255.43C433.95 258.26 408.17 274.02 385.51 268.03ZM375.08 251C375.08 251 383.2 254.85 405.03 237.05L387.95 260.13C387.95 260.13 377.93 264.37 375.08 251Z" />
		<path id="Path 48" fill-rule="evenodd" class="shp22" d="M383.63 301.16C383.51 301.61 383.11 301.9 382.68 301.9C382.6 301.9 382.51 301.89 382.43 301.87C381.9 301.73 381.59 301.19 381.73 300.67C381.93 299.88 381.99 299.23 381.89 298.79C381.93 299.01 381.9 299.25 381.77 299.46C381.58 299.77 381.26 299.93 380.93 299.93C380.76 299.93 380.58 299.89 380.42 299.79C378.86 298.84 378.06 297.72 378.06 296.47C378.05 294.46 380.1 293.13 380.34 292.99C380.8 292.7 381.4 292.84 381.69 293.31C381.97 293.77 381.83 294.37 381.38 294.66C381.08 294.84 380.32 295.45 380.09 296.1C380.84 296 382.13 295.99 383.04 296.89C383.94 297.78 384.14 299.22 383.63 301.16ZM381.81 298.52C381.77 298.43 381.72 298.35 381.66 298.29C381.66 298.28 381.64 298.28 381.63 298.27C381.71 298.34 381.77 298.43 381.81 298.52ZM381.84 298.59C381.85 298.62 381.86 298.65 381.87 298.68C381.86 298.65 381.85 298.62 381.84 298.59ZM445.1 296.89C446.01 295.99 447.3 296 448.04 296.1C447.82 295.45 447.06 294.84 446.76 294.66C446.3 294.37 446.16 293.77 446.45 293.31C446.73 292.84 447.34 292.7 447.8 292.99C448.03 293.13 450.08 294.47 450.08 296.47C450.07 297.72 449.28 298.84 447.72 299.79C447.56 299.89 447.38 299.93 447.21 299.93C446.88 299.93 446.55 299.77 446.37 299.46C446.24 299.25 446.2 299.01 446.24 298.79C446.15 299.23 446.2 299.88 446.41 300.67C446.55 301.19 446.23 301.73 445.71 301.87C445.62 301.89 445.54 301.9 445.46 301.9C445.02 301.9 444.62 301.61 444.51 301.16C444 299.22 444.2 297.78 445.1 296.89ZM446.5 298.27C446.5 298.28 446.48 298.28 446.48 298.29C446.42 298.35 446.37 298.43 446.33 298.52C446.37 298.43 446.43 298.34 446.5 298.27ZM446.27 298.68C446.28 298.65 446.29 298.62 446.3 298.59C446.29 298.62 446.28 298.65 446.27 298.68Z" />
		<path id="Path 49" class="shp23" d="M368.43 445.19C370.49 436.07 372.01 427.63 374.32 419.43M468.63 440.96C466.87 433.41 464.95 425.63 463.1 419.08" />
		<path id="Path 50" class="shp24" d="M394.57 363.22C394.57 363.22 417.88 377.99 434.18 360.35" />
		<path id="Path 51" class="shp25" d="M439.65 426.4C439.65 426.4 447.53 428.28 455.64 425.4C455.64 425.4 461.4 445.74 448.93 446.45C448.93 446.45 435.05 447.32 439.65 426.4Z" />
		<path id="Path 52" class="shp26" d="M204.16 267.44C204.16 279.02 194.77 288.41 183.2 288.41C171.62 288.41 162.24 279.02 162.24 267.44C162.24 255.86 171.62 246.48 183.2 246.48C194.77 246.48 204.16 255.86 204.16 267.44Z" />
		<path id="Path 53" class="shp27" d="M193.32 253.88C190.3 253.12 185.87 257.91 183.25 264.68C179.66 258.82 174.78 255.03 172.06 256.1C169.18 257.23 169.8 263.36 173.43 269.79C176.43 275.09 180.54 278.94 183.51 279.49C183.65 279.56 183.8 279.62 183.96 279.66C187.07 280.45 191.69 275.31 194.27 268.2C196.86 261.08 196.42 254.67 193.32 253.88Z" />
		<path id="Path 54" class="shp26" d="M657.68 253.97C657.68 265.55 648.3 274.94 636.72 274.94C625.14 274.94 615.76 265.55 615.76 253.97C615.76 242.39 625.14 233.01 636.72 233.01C648.3 233.01 657.68 242.39 657.68 253.97Z" />
		<path id="Path 55" class="shp27" d="M646.84 240.41C643.83 239.65 639.4 244.44 636.77 251.21C633.18 245.35 628.3 241.56 625.58 242.63C622.71 243.76 623.32 249.89 626.96 256.32C629.95 261.62 634.06 265.47 637.03 266.02C637.17 266.09 637.32 266.15 637.48 266.19C640.59 266.97 645.21 261.84 647.8 254.73C650.38 247.61 649.95 241.2 646.84 240.41Z" />
		<path id="Path 60" class="shp11" d="M523.18 784.71L512.17 793.76L501.73 782.35L516.73 769.55L523.18 784.71Z" />
		<path id="Path 61" class="shp28" d="M497.15 780.6C496.07 781.59 493.57 783.56 495.09 786.86C498.54 794.43 510.29 806.78 517.4 814.54C525.09 822.94 530.54 824.26 534.11 821C536.79 818.55 529.14 813.43 522.52 803.77C520.31 800.55 520.33 792.59 516.84 791.16C505.61 786.6 505.57 783.15 503.65 780.07C502.75 778.61 498.77 779.12 497.15 780.6Z" />
		<path id="Path 62" class="shp11" d="M536.03 799.56L536.78 814.03L552.25 814.03L551.57 794.2L536.03 799.56Z" />
		<path id="Path 63" class="shp12" d="M556.63 815.75C556.63 817.21 556.86 820.37 553.41 821.49C545.49 824.05 528.45 823.72 517.92 823.72C506.53 823.72 501.88 820.58 501.88 815.75C501.88 812.12 510.81 814.3 522.41 812.67C526.27 812.12 532.13 806.73 535.55 808.35C546.5 813.55 549.07 811.26 552.63 810.59C554.33 810.27 556.63 813.55 556.63 815.75Z" />
		<path id="Path 64" class="shp14" d="M607.59 538.23C607.59 538.23 617.2 641.65 609.43 683.42C609.43 683.42 596.56 704.92 523.15 790.28C523.15 790.28 517.56 780.56 507.39 774.22L566.32 668.27L554.89 534.28L557.82 503.68L607.59 538.23Z" />
		<path id="Path 65" class="shp13" d="M504.61 510.74C504.61 510.74 500.86 550.86 512.34 679.9C512.34 679.9 524.31 752.38 533.2 801.84C533.2 801.84 541.7 805.19 553.98 801.84L554.89 685.53L560.5 599.54L557.55 506.51L504.61 510.74Z" />
		<path id="Path 66" class="shp29" d="M599.99 383.87C599.35 383.6 568.27 360.62 567.64 360.35C559.44 356.91 551.44 356.05 543.47 357.78C539.13 358.71 534.81 360.41 530.46 362.86C530.46 362.86 500.08 386.4 499.43 386.69L506.78 428.98C502.97 455.66 510.12 512.24 511.52 538.93C534.21 542.06 582.94 544.37 596.49 543.28C591.93 521.09 597.77 440.87 596.56 419.08L599.99 383.87Z" />
		<path id="Path 67" class="shp30" d="M527.37 474.79C529.93 449.13 537.33 404.38 536.01 377.69C535.49 367.13 533.47 372.89 529.45 363.31C526.64 364.57 518.31 368.48 509.94 374.12C512.15 401.79 500.31 428.19 496.6 456.38C498.23 453.12 499.88 449.9 501.43 446.92C497.93 477.68 500.86 550.86 500.86 550.86C509.43 552.5 517.47 553.82 525.03 554.86C523.63 528.17 523.56 501.48 527.37 474.79ZM613.15 390.05C602.05 375.48 586.36 368.26 569.53 361.15C566.85 369.64 563.41 367.34 562.9 376.44C559.42 437.99 577.39 500.56 579.27 554.86C599.29 553.24 609.43 550.59 609.43 544.54C609.43 508.8 606.37 459.59 602.74 438.95C605 442.54 607.67 446.5 610.31 450.34C611.66 429.91 613.39 410.08 613.15 390.05Z" />
		<path id="Path 68" class="shp8" d="M525.5 491.17L525.21 494.06L499.79 506.51C499.79 506.51 499.03 493.62 499.72 490.55L525.5 491.17Z" />
		<path id="Path 69" class="shp11" d="M598.46 461.88C598.46 461.88 607.18 461.8 620.62 457.45L602.08 438.14C602.08 438.14 580.91 455.53 579.35 465.1L598.46 461.88Z" />
		<path id="Path 70" class="shp8" d="M571.48 486.08L572.42 492.55L608.39 506.51L606.85 477.33L571.48 486.08Z" />
		<path id="Path 71" class="shp30" d="M509.95 374.12C504.12 378.05 498.28 382.82 494.27 388.13C471.97 417.63 467.51 481.29 470.7 495.24C476.19 519.19 591.77 470.78 595.92 465.95C598.67 462.76 592.46 445.7 592.46 445.7C569.66 445.7 497.66 463.25 497.66 463.25L501.93 442.81C505.64 414.62 512.15 401.79 509.95 374.12Z" />
		<path id="Path 72" class="shp11" d="M517.59 453.38C517.59 453.38 512.84 446 502.93 435.94L497.47 463.15C497.47 463.15 520.5 467.92 529.75 465.01L517.59 453.38Z" />
		<path id="Path 73" class="shp8" d="M545.46 452.63C545.46 452.63 584.51 455.67 595.53 455.89C595.53 455.89 597.33 460.31 596 469.49C596 469.49 547 471 545.46 452.63ZM510.46 463.21C510.46 463.21 515.41 465.8 507.39 464.64C507.39 464.64 523.91 480.7 542.33 488.55C542.33 488.55 556.27 485.36 564.37 477.94L510.46 463.21Z" />
		<path id="Path 74" class="shp30" d="M636.62 495.24C641.48 484.34 631.07 430.41 616.36 396.55C609.29 380.27 596.56 375.93 590.43 371.02C589.08 369.94 593.8 392.51 592.46 412.94L607.3 460.52C607.3 466.44 515.75 446.92 515.75 446.92C515.75 446.92 503.67 462.56 508.54 465.8C526.53 477.8 627.84 514.97 636.62 495.24Z" />
		<path id="Path 75" class="shp11" d="M537.01 319.81L528.03 363.22C528.03 363.22 550.12 393.68 567.82 362.12L557.75 315.86L537.01 319.81Z" />
		<path id="Path 76" class="shp18" d="M537.01 319.81L528.03 363.22C528.03 363.22 528.75 363.6 530.01 364.16C541.57 356.81 552.72 348.66 562.9 339.51L557.75 315.86L537.01 319.81Z" />
		<path id="Path 77" class="shp11" d="M576.73 311.99C576.73 328.38 563.45 341.66 547.07 341.66C530.69 341.66 517.41 328.38 517.41 311.99L517.41 279.04C517.41 262.66 530.69 249.38 547.07 249.38C563.45 249.38 576.73 262.66 576.73 279.04L576.73 311.99Z" />
		<path id="Path 78" class="shp19" d="M537.01 288.3C537.01 289.22 536.26 289.98 535.33 289.98C534.41 289.98 533.65 289.22 533.65 288.3C533.65 287.37 534.41 286.62 535.33 286.62C536.26 286.62 537.01 287.37 537.01 288.3ZM561.1 288.3C561.1 289.22 560.35 289.98 559.42 289.98C558.5 289.98 557.75 289.22 557.75 288.3C557.75 287.37 558.5 286.62 559.42 286.62C560.35 286.62 561.1 287.37 561.1 288.3Z" />
		<path id="Path 79" class="shp20" d="M547.47 292.68C547.47 292.68 547.93 301.17 544.82 309.47C544.82 309.47 547.47 309.97 550.11 311.66" />
		<path id="Path 80" class="shp21" d="M528.76 283.19L535.6 279.71M565.17 283.19L558.33 279.71" />
		<path id="Path 81" class="shp11" d="M528.03 296.97C528.03 303.37 523.7 308.55 518.36 308.55C513.02 308.55 508.69 303.37 508.69 296.97C508.69 290.56 513.02 285.38 518.36 285.38C523.7 285.38 528.03 290.56 528.03 296.97ZM587.16 296.97C587.16 303.37 582.83 308.55 577.49 308.55C572.15 308.55 567.82 303.37 567.82 296.97C567.82 290.56 572.15 285.38 577.49 285.38C582.83 285.38 587.16 290.56 587.16 296.97Z" />
		<path id="Path 82" fill-rule="evenodd" class="shp22" d="M517.09 301.16C516.97 301.61 516.58 301.9 516.14 301.9C516.06 301.9 515.97 301.89 515.89 301.87C515.36 301.73 515.05 301.19 515.19 300.67C515.4 299.88 515.45 299.23 515.35 298.79C515.4 299.01 515.36 299.25 515.23 299.46C515.05 299.77 514.72 299.93 514.39 299.93C514.22 299.93 514.04 299.89 513.88 299.79C512.32 298.84 511.52 297.72 511.52 296.47C511.51 294.46 513.57 293.13 513.8 292.99C514.26 292.7 514.86 292.84 515.15 293.31C515.43 293.77 515.3 294.37 514.84 294.66C514.54 294.84 513.78 295.45 513.55 296.1C514.3 296 515.59 295.99 516.51 296.89C517.4 297.78 517.6 299.22 517.09 301.16ZM515.27 298.52C515.23 298.43 515.18 298.35 515.12 298.29C515.12 298.28 515.1 298.28 515.09 298.27C515.17 298.34 515.23 298.43 515.27 298.52ZM515.3 298.59C515.31 298.62 515.32 298.65 515.33 298.68C515.32 298.65 515.31 298.62 515.3 298.59ZM578.56 296.89C579.47 295.99 580.76 296 581.51 296.1C581.28 295.45 580.52 294.84 580.22 294.66C579.77 294.37 579.62 293.77 579.91 293.31C580.2 292.84 580.8 292.7 581.26 292.99C581.49 293.13 583.55 294.47 583.54 296.47C583.53 297.72 582.74 298.84 581.18 299.79C581.02 299.89 580.84 299.93 580.67 299.93C580.34 299.93 580.01 299.77 579.83 299.46C579.7 299.25 579.67 299.01 579.7 298.79C579.61 299.23 579.66 299.88 579.87 300.67C580.01 301.19 579.69 301.73 579.17 301.87C579.09 301.89 579 301.9 578.92 301.9C578.48 301.9 578.09 301.61 577.97 301.16C577.46 299.22 577.66 297.78 578.56 296.89ZM579.96 298.27C579.96 298.28 579.94 298.28 579.94 298.29C579.88 298.35 579.83 298.43 579.79 298.52C579.83 298.43 579.89 298.34 579.96 298.27ZM579.73 298.68C579.74 298.65 579.75 298.62 579.76 298.59C579.75 298.62 579.74 298.65 579.73 298.68Z" />
		<path id="Path 83" class="shp31" d="M507.78 419.43C503.91 433.2 499.75 452.24 497.45 463.22M606.46 460.69C604.07 449.39 600.18 431.88 596.56 419.08" />
		<path id="Path 84" class="shp32" d="M520.26 297.91C520.57 297.02 520.68 295.4 520.68 294.49C520.73 288.29 519.9 281.56 522.15 275.66C523.26 272.74 525.2 270.22 527.8 268.63C532.97 265.48 538.31 266.94 543.68 268.65C549.4 270.46 555.44 270.98 561.05 268.47C564.48 266.94 568.65 263.87 572.46 266.19C575.66 268.13 575.83 272.31 575.78 275.76C575.7 281.67 575.19 287.03 573.55 292.7C573.02 294.55 572.89 296.73 572.78 298.65C572.69 300.32 572.6 303.81 574.67 301.38C576.8 298.89 575.65 292.16 582.35 283.19C584.01 280.97 588.11 278.73 589.72 276.84C591.92 274.27 591.09 270.68 590.69 267.62C590.23 264.14 588.6 261.8 589.05 258.33C589.86 251.99 591.84 249.06 585.55 245.38C582.83 243.79 581.46 241.74 580.76 238.57C580.14 235.76 580.33 232.11 578.03 230.09C575.04 227.45 570.44 229.13 567.23 230.2C562.04 231.93 556.51 233.16 551.15 231.52C547.24 230.33 543.58 226.86 539.31 227.26C535.23 227.64 533.39 231.35 531.05 234.33C528.05 238.15 524.48 239.58 520.2 241.09C516.43 242.41 513.51 244.16 513.54 248.83C513.55 252.47 514.77 255.65 513.1 259.11C510.93 263.6 507.19 265.95 508.3 271.39C509.19 275.79 511.72 280.62 515.08 283.5C519.66 287.41 516.29 291.2 518.59 296.9C519.43 298.97 519.95 298.81 520.26 297.91Z" />
		<path id="Path 85" class="shp33" d="M540.48 321.57C540.48 321.57 557.05 326.65 566.32 312.38C566.32 312.38 564.28 341.17 540.48 321.57Z" />
		<path id="Path 86" class="shp34" d="M526.34 356.91C526.34 356.91 518.36 365.35 514.44 369.88L537.01 387.55L541.54 369.88L526.34 356.91ZM570.1 356.91C570.1 356.91 579.62 362.89 583.54 367.42L561.26 387.55L559.42 368.25L570.1 356.91Z" />
		<path id="Path 87" class="shp31" d="M507.73 464.86C507.73 464.86 502.73 462.74 515.76 446.92L535.4 450.95M596.62 461.28C596.62 461.28 594.81 449.73 592.46 445.7C592.46 445.7 579.1 445.14 557.64 450.27" />
		<path id="Path 88" class="shp33" d="M572.56 415.59C572.56 417.14 571.3 418.41 569.74 418.41C568.18 418.41 566.92 417.14 566.92 415.59C566.92 414.03 568.18 412.77 569.74 412.77C571.3 412.77 572.56 414.03 572.56 415.59ZM570.45 394.44C570.45 396 569.18 397.26 567.63 397.26C566.07 397.26 564.81 396 564.81 394.44C564.81 392.88 566.07 391.62 567.63 391.62C569.18 391.62 570.45 392.88 570.45 394.44ZM574.67 436.73C574.67 438.29 573.41 439.55 571.86 439.55C570.3 439.55 569.03 438.29 569.03 436.73C569.03 435.17 570.3 433.91 571.86 433.91C573.41 433.91 574.67 435.17 574.67 436.73ZM583.13 502.28C583.13 503.84 581.87 505.1 580.31 505.1C578.76 505.1 577.49 503.84 577.49 502.28C577.49 500.72 578.76 499.46 580.31 499.46C581.87 499.46 583.13 500.72 583.13 502.28ZM585.25 525.54C585.25 527.1 583.98 528.36 582.43 528.36C580.87 528.36 579.61 527.1 579.61 525.54C579.61 523.98 580.87 522.72 582.43 522.72C583.98 522.72 585.25 523.98 585.25 525.54ZM587.36 546.69C587.36 548.24 586.1 549.5 584.54 549.5C582.99 549.5 581.72 548.24 581.72 546.69C581.72 545.13 582.99 543.87 584.54 543.87C586.1 543.87 587.36 545.13 587.36 546.69Z" />
		<path id="Path 89" class="shp35" d="M507.78 557.99L512.34 679.9L524.88 742.77M606.46 559.06L609.24 675.62L566.92 736.7" />
		<path id="Path 90" class="shp25" d="M559.42 368.25L561.26 387.55L581.78 369.01M541.54 369.88L537.01 387.55L519.86 374.12" />
		<path id="Path 91" class="shp36" d="M60.83 837.89C60.83 841.49 59.26 842.59 57.11 842.59L56.72 842.59C54.57 842.59 52.13 841.49 52.13 837.89L52.13 604.9C52.13 601.31 54.57 598.71 56.72 598.71L57.11 598.71C59.26 598.71 60.83 601.31 60.83 604.9L60.83 837.89Z" />
		<path id="Path 92" class="shp37" d="M78.23 825.07C78.23 828.47 76.66 829.41 74.51 829.41L74.12 829.41C71.97 829.41 69.53 828.47 69.53 825.07L69.53 604.57C69.53 601.17 71.97 598.71 74.12 598.71L74.51 598.71C76.66 598.71 78.23 601.17 78.23 604.57L78.23 825.07ZM645.42 825.07C645.42 828.47 643.85 829.41 641.7 829.41L641.31 829.41C639.16 829.41 636.72 828.47 636.72 825.07L636.72 604.57C636.72 601.17 639.16 598.71 641.31 598.71L641.7 598.71C643.85 598.71 645.42 601.17 645.42 604.57L645.42 825.07Z" />
		<path id="Path 93" class="shp36" d="M664.56 837.89C664.56 841.49 662.99 842.59 660.83 842.59L660.45 842.59C658.29 842.59 655.86 841.49 655.86 837.89L655.86 604.9C655.86 601.31 658.29 598.71 660.45 598.71L660.83 598.71C662.99 598.71 664.56 601.31 664.56 604.9L664.56 837.89ZM681.38 595.42C681.38 599.67 676.47 603.11 670.43 603.11L48.28 603.11C42.24 603.11 37.34 599.67 37.34 595.42C37.34 591.17 42.24 587.73 48.28 587.73L670.43 587.73C676.47 587.73 681.38 591.17 681.38 595.42Z" />
		<path id="Path 94" class="shp38" d="M159.28 488.86L205.42 488.86L221.9 581.14L141.16 581.14L159.28 488.86Z" />
		<path id="Path 95" class="shp13" d="M284.52 528.36C284.52 532.03 281.54 535 277.87 535L84.63 535C80.96 535 77.99 532.03 77.99 528.36L77.99 401.03C77.99 397.36 80.96 394.39 84.63 394.39L277.87 394.39C281.54 394.39 284.52 397.36 284.52 401.03L284.52 528.36Z" />
		<path id="Path 96" class="shp33" d="M273.53 493.26L88.97 493.26L88.97 403.17L273.53 403.17L273.53 493.26Z" />
		<path id="Path 97" class="shp39" d="M77.99 502.04L77.99 528.36C77.99 532.02 80.96 535 84.63 535L277.87 535C281.54 535 284.52 532.02 284.52 528.36L284.52 502.04L77.99 502.04Z" />
		<path id="Path 98" class="shp40" d="M182.35 516.87C182.35 518.69 180.88 520.17 179.06 520.17C177.23 520.17 175.76 518.69 175.76 516.87C175.76 515.05 177.23 513.58 179.06 513.58C180.88 513.58 182.35 515.05 182.35 516.87Z" />
		<path id="Path 99" class="shp39" d="M229.59 586.08C229.59 588.21 227.87 589.93 225.74 589.93L136.76 589.93C134.64 589.93 132.92 588.21 132.92 586.08L132.92 584.98C132.92 582.86 134.64 581.14 136.76 581.14L225.74 581.14C227.87 581.14 229.59 582.86 229.59 584.98L229.59 586.08Z" />
		<path id="Path 100" class="shp41" d="M183.45 418.55L93.37 418.55L93.37 407.57L183.45 407.57L183.45 418.55Z" />
		<path id="Path 101" class="shp42" d="M159.28 453.71L93.37 453.71L93.37 425.15L159.28 425.15L159.28 453.71Z" />
		<path id="Path 102" class="shp41" d="M181.25 488.86L93.37 488.86L93.37 460.3L181.25 460.3L181.25 488.86Z" />
		<path id="Path 103" class="shp42" d="M262.54 429.54L165.87 429.54L165.87 425.15L262.54 425.15L262.54 429.54ZM253.76 438.33L165.87 438.33L165.87 433.93L253.76 433.93L253.76 438.33ZM238.38 447.12L165.87 447.12L165.87 442.72L238.38 442.72L238.38 447.12ZM253.76 464.69L185.65 464.69L185.65 460.3L253.76 460.3L253.76 464.69ZM264.74 475.68L185.65 475.68L185.65 471.28L264.74 471.28L264.74 475.68ZM244.97 486.66L185.65 486.66L185.65 482.27L244.97 482.27L244.97 486.66Z" />
		<path id="Path 104" class="shp41" d="M260.35 414.16L187.84 414.16L187.84 409.77L260.35 409.77L260.35 414.16Z" />
		<path id="Path 105" class="shp12" d="M275.19 827.41C272.56 828.49 272.35 822.74 268.14 823.07C260.02 823.7 249.34 828.77 242.41 828.77C231.02 828.77 228.07 825.22 228.07 820.38C228.07 816.75 248.42 822.39 260.82 812.57C263.87 810.15 271.97 815.7 275.54 815.03C277.23 814.71 277.11 826.62 275.19 827.41Z" />
		<path id="Path 106" class="shp11" d="M274.59 692.87L284.99 604.59L282.03 511.55L246.22 519.31C246.22 519.31 225.95 559.01 237.42 688.04C237.42 688.04 252.93 760.25 262.1 809.87C261.82 810.61 260.24 813.59 252.58 816.58C252.58 816.58 246.33 818.28 243.02 818.48C243.02 818.48 229.27 820.5 252.58 820.36C252.58 820.36 270.13 820.15 275.54 815.03L274.59 692.87Z" />
		<path id="Path 107" class="shp12" d="M323.82 827.41C321.2 828.49 320.98 822.74 316.77 823.07C308.66 823.7 297.97 828.77 291.04 828.77C279.65 828.77 276.7 825.22 276.7 820.38C276.7 816.75 297.06 822.39 309.45 812.57C312.51 810.15 320.6 815.7 324.17 815.03C325.86 814.71 325.74 826.62 323.82 827.41Z" />
		<path id="Path 108" class="shp11" d="M323.22 692.87L327.71 651.43L323.75 592.96L330.67 511.55L294.85 519.31C294.85 519.31 274.58 559.01 286.05 688.04C286.05 688.04 301.56 760.25 310.74 809.87C310.45 810.61 308.87 813.59 301.21 816.58C301.21 816.58 294.96 818.28 291.65 818.48C291.65 818.48 277.9 820.5 301.21 820.36C301.21 820.36 318.77 820.15 324.17 815.03L323.22 692.87ZM174.15 314.23C175.93 319.18 169.34 343.22 169.18 347.61C168.85 356.09 167.96 352.21 163.03 353.5C157.89 354.84 133.13 331.33 135.47 327.07C136.15 325.84 147.66 336.97 146.29 331.76C143.93 322.7 137.42 308.84 139.07 307.1C141.48 304.58 149.35 328.52 149.93 323.49C150.43 319.11 143.01 297.36 146.57 297.49C148.39 297.56 153.74 321.4 155.39 320.97C157.26 320.48 151.87 296.46 156.08 297.86C158.13 298.53 162.36 323.74 164.23 325.87C167.96 330.12 171.01 305.53 174.15 314.23Z" />
		<path id="Path 109" class="shp13" d="M240.47 497.4C240.47 497.4 206.1 567.72 226.36 652.03C226.36 652.03 264.47 677.36 330.05 650.49C330.05 650.49 329.41 591.61 331.87 576.43C331.87 576.43 351.12 524.24 321.55 492.82C321.55 492.82 270.61 513.92 240.47 497.4Z" />
		<path id="Path 110" class="shp2" d="M321.56 492.87C322.16 502.53 322.11 483.95 321.93 476.9C321.81 478.28 321.7 479.67 321.62 481.05C321.59 483.88 321.57 487.76 321.56 492.87ZM321.55 492.82C321.32 489.15 321.38 485.14 321.62 481.04C321.7 472.68 321.83 473.2 321.93 476.89C323.35 460.41 327.22 444 327.22 444C329.49 447.59 333.85 434.32 333.62 414.29C322.1 399.17 314.56 389.04 297.02 381.67C288.82 378.22 283.62 377.44 275.65 379.17C271.31 380.1 261.93 378.27 257.58 380.72C257.58 380.72 242.67 385.21 228.51 399.65C228.51 399.65 207.37 424.47 234.97 484.07C237.93 490.46 239.16 493.23 240.47 497.4C264.78 515.29 321.55 494.96 321.55 492.87C321.55 492.85 321.55 492.84 321.55 492.82ZM264.77 376.55C265.06 374.95 248.57 388.93 231.14 396.95L199.7 424.47C197.88 425.46 193.29 414.67 188.25 400.75C181.49 408.48 174.04 415.5 166.31 422.29C172.86 450.48 181.89 475.3 191.6 474.54C202.75 473.66 236.25 442.95 257.58 415.7C267.83 402.59 263.47 383.79 264.77 376.55Z" />
		<path id="Path 111" class="shp11" d="M188.25 400.75C179.77 377.33 168.34 345.06 168.34 345.06L157.94 346.82C156.99 357.29 159.25 391.9 166.31 422.29C174.04 415.5 181.49 408.48 188.25 400.75ZM321.55 524.58L303.32 535.5C303.32 535.5 305.55 547.24 325.22 553.77L333.41 524.58L321.55 524.58Z" />
		<path id="Path 112" class="shp2" d="M369 474.54C369 463.35 335.73 411.35 317.6 395.09C305.2 383.99 313.25 412.32 311.41 431.42L339.73 477.02C339.65 479.57 335.13 490.15 330.27 500.85C337.52 502.74 344.36 505.52 351.08 508.21C360.32 494.4 369 479.97 369 474.54Z" />
		<path id="Path 113" class="shp11" d="M330.27 500.85C324.56 513.44 318.37 526.18 318.37 526.18C318.37 526.18 324.85 535.7 329.32 538.88C329.32 538.88 340.57 523.94 351.08 508.21C344.36 505.52 337.52 502.74 330.27 500.85Z" />
		<path id="Path 114" class="shp43" d="M292.18 270.9C293.33 270.75 294.45 270.74 295.41 271.6C298.1 274 295.96 278.74 295.38 281.61C294.21 287.35 294.2 293.22 292.94 298.97C291.61 305.04 289.62 310.94 287.91 316.91C285.07 326.82 276.53 347.9 283.69 355.64C306.68 380.5 329.34 351.72 330.05 345.37C330.05 345.37 314.95 354.97 310.67 339.78C308.76 332.98 312.58 323.67 314.3 317.2C318.22 302.4 324.54 281.6 314.1 267.99C311.2 264.2 305.96 259.92 301.42 258.32C297.6 256.97 289.55 258.07 287.68 262.55C287.1 263.94 286.22 270.3 288.47 271.03C289.66 271.4 290.94 271.07 292.18 270.9Z" />
		<path id="Path 115" class="shp11" d="M266.55 337.32L257.58 380.72C257.58 380.72 242.68 453.66 297.02 381.67L290.71 338.28L266.55 337.32Z" />
		<path id="Path 116" class="shp18" d="M290.78 338.76L290.71 338.28L266.55 337.32L258.78 374.93C271.61 364.88 282.98 353.39 290.78 338.76Z" />
		<path id="Path 117" class="shp11" d="M294.61 330.87C292.76 347.18 278.04 358.91 261.73 357.06L261.35 357.01C245.03 355.16 233.31 340.44 235.16 324.12L238.83 291.8C240.68 275.49 255.41 263.76 271.72 265.62L272.1 265.66C288.41 267.51 300.13 282.24 298.28 298.55L294.61 330.87Z" />
		<path id="Path 118" class="shp19" d="M250.17 302.11C250.06 303.03 249.23 303.69 248.32 303.59C247.39 303.48 246.73 302.65 246.84 301.73C246.94 300.81 247.77 300.15 248.69 300.25C249.61 300.36 250.28 301.19 250.17 302.11Z" />
		<path id="Path 119" class="shp29" d="M297.02 295.01C297.02 295.01 293.49 327.24 291.34 341.21C291.34 341.21 294.62 346.87 301.43 292.68C301.43 292.68 301.4 288.79 297.02 295.01Z" />
		<path id="Path 120" class="shp19" d="M274.11 304.83C274 305.75 273.17 306.41 272.25 306.3C271.33 306.2 270.67 305.37 270.78 304.45C270.88 303.53 271.71 302.87 272.63 302.97C273.55 303.08 274.21 303.91 274.11 304.83Z" />
		<path id="Path 121" class="shp20" d="M257.89 307.39C257.89 307.39 257.39 315.88 253.37 323.78C253.37 323.78 255.94 324.58 258.38 326.55" />
		<path id="Path 122" class="shp44" d="M242.67 295.01L249.86 292.33M278.85 299.12L272.44 294.9" />
		<path id="Path 123" class="shp11" d="M305.56 317.12C304.84 323.48 299.95 328.15 294.64 327.54C289.33 326.94 285.61 321.3 286.33 314.94C287.06 308.58 291.94 303.91 297.25 304.52C302.56 305.12 306.28 310.76 305.56 317.12Z" />
		<path id="Path 124" fill-rule="evenodd" class="shp22" d="M297.01 316.08C298.02 315.29 299.3 315.44 300.03 315.62C299.88 314.95 299.19 314.26 298.92 314.04C298.5 313.71 298.43 313.09 298.76 312.66C299.1 312.24 299.71 312.17 300.14 312.5C300.36 312.67 302.24 314.23 302.01 316.21C301.86 317.46 300.95 318.48 299.29 319.25C299.12 319.33 298.94 319.36 298.77 319.34C298.44 319.3 298.14 319.1 297.98 318.77C297.88 318.55 297.87 318.31 297.94 318.09C297.8 318.52 297.78 319.17 297.89 319.97C297.97 320.51 297.6 321.01 297.06 321.09C296.97 321.1 296.89 321.1 296.81 321.09C296.38 321.04 296.01 320.71 295.95 320.25C295.66 318.26 296.02 316.86 297.01 316.08ZM298.26 317.6C298.25 317.61 298.23 317.61 298.22 317.62C298.16 317.67 298.1 317.75 298.05 317.83C298.11 317.75 298.18 317.67 298.26 317.6ZM297.98 317.98C297.99 317.95 298 317.93 298.01 317.9C298 317.93 297.99 317.95 297.98 317.98Z" />
		<path id="Path 125" class="shp29" d="M239.88 270.92C238.52 272.68 237.28 274.54 236.19 276.46C234.95 278.65 231.71 285.28 233.28 294.13C243.92 279.64 260.44 292.7 281.7 277.83C283.78 276.38 285.69 274.74 287.26 272.77C289.19 270.36 289 264.93 287.46 262.45C285.35 259.04 280.82 257.38 277.12 256.36C262.42 252.32 248.57 259.7 239.88 270.92ZM302.04 276.82C305.36 288.44 294.63 316.69 292.81 313.5C292.81 313.5 292.29 306.58 292.21 305.07C291.92 299.48 287.58 293.56 285.51 288.29C283.56 283.31 280.9 277.79 282.32 272.36C283.5 267.85 289.23 265.4 293.58 267.04C298.12 268.75 300.81 272.5 302.04 276.82Z" />
		<path id="Path 126" class="shp33" d="M252.45 335.53C252.45 335.53 262.63 338.39 276.59 329.98C276.59 329.98 268.18 353.48 252.45 335.53Z" />
		<path id="Path 127" class="shp45" d="M223.69 452.34C223.69 452.34 220 430.92 233.84 415.32M307.89 424.12L325.22 453.66" />
		<path id="Path 128" class="shp46" d="M301.43 515.78C301.43 515.78 294.17 546.82 330.05 554.35" />
		<path id="Path 129" class="shp33" d="M263.21 424.86C263.21 426.42 261.95 427.68 260.4 427.68C258.84 427.68 257.58 426.42 257.58 424.86C257.58 423.3 258.84 422.04 260.4 422.04C261.95 422.04 263.21 423.3 263.21 424.86ZM258.08 378.28C258.08 378.28 252.45 396.58 262.95 412.7L256.19 419.17C256.19 419.17 226.76 390.86 258.08 378.28ZM297.02 379.17C297.02 379.17 278.29 408.74 262.68 412.69L266.72 420.63C266.72 420.63 321.55 404.51 297.02 379.17Z" />
		<path id="Path 130" class="shp47" d="M163.05 419.17C163.05 419.17 163.37 429.53 166.89 437.35C166.89 437.35 189.75 423.19 195.74 409.38C195.74 409.38 193.12 400.18 189.6 395.95C189.6 395.95 172.56 406.36 163.05 419.17Z" />
		<path id="Path 131" class="shp33" d="M192.65 408.1C192.65 409.31 191.67 410.3 190.45 410.3C189.24 410.3 188.25 409.31 188.25 408.1C188.25 406.88 189.24 405.89 190.45 405.89C191.67 405.89 192.65 406.88 192.65 408.1Z" />
		<path id="Path 132" class="shp48" d="M433.92 587.73L343.84 587.73L343.84 581.14L433.92 581.14L433.92 587.73Z" />
		<path id="Path 133" class="shp2" d="M436.12 581.14L346.03 581.14L346.03 578.94L436.12 578.94L436.12 581.14Z" />
		<path id="Path 134" class="shp11" d="M667 637.06C667.74 642.73 669.39 648.27 672.37 653.18C673.16 654.5 674.35 655.75 675.64 656.57C679.38 653.61 673.1 644.2 673.75 639.89C674.81 632.84 680.81 625.83 682.64 618.94C682.96 617.7 684.61 614.33 684.65 612.63C680.62 622 674.06 630.06 667 637.06ZM679 622.86C675.92 627.4 672.35 631.6 668.58 635.48C669.89 640.33 671.91 644.98 674.93 649.04C675.85 650.28 677.15 651.41 678.51 652.1C681.96 648.81 674.81 640.03 675.05 635.68C675.28 631.49 677.21 627.15 679 622.86ZM676.84 530.13C673.78 547.75 671.43 601.75 673.67 606.14L684.65 606.14C684.65 606.14 699.26 558.86 701.55 527.31C702.2 519.3 703.47 491.13 704.41 469.26C696.67 467.62 688.91 466.06 681.09 465.12C678.24 495.89 676.84 530.13 676.84 530.13ZM705.56 442.53C705.56 442.52 705.57 442.51 705.57 442.5C705.57 442.43 705.57 442.44 705.56 442.53ZM843.09 461.84C851.57 438.43 866.99 401.46 866.99 401.46L877.38 403.22C878.34 413.69 865.65 494.04 856.49 503.69C845.91 509.19 796.24 463.88 794.05 461.84C790.27 458.35 816.36 433.7 812.84 429.96C811.39 428.42 830.59 445.99 843.09 461.84ZM727.89 831.28L727.13 845.63L711.67 845.63L712.35 825.86L727.89 831.28Z" />
		<path id="Path 135" class="shp12" d="M707.29 847.59C707.29 849.06 707.05 852.22 710.51 853.33C718.43 855.89 735.47 855.56 746 855.56C757.39 855.56 762.04 852.43 762.04 847.59C762.04 843.96 753.1 846.15 741.51 844.51C737.64 843.96 731.78 838.57 728.37 840.2C717.41 845.4 714.85 843.1 711.28 842.43C709.59 842.11 707.29 845.39 707.29 847.59Z" />
		<path id="Path 136" class="shp0" d="M774.72 543.32C774.72 543.32 763.05 582.7 751.58 711.74C751.58 711.74 739.61 784.22 730.71 833.68C730.71 833.68 722.22 837.03 709.94 833.68L709.03 717.38L706.45 627.25C690.94 583.67 727.89 537.65 727.89 537.65L774.72 543.32Z" />
		<path id="Path 137" class="shp11" d="M799.1 831.15L799.4 845.41L783.97 846.54L783.21 826.84L799.1 831.15Z" />
		<path id="Path 138" class="shp12" d="M779.77 849.05C779.87 850.52 779.87 853.69 783.4 854.55C791.49 856.51 808.46 854.93 818.96 854.15C830.32 853.32 834.73 849.84 834.37 845.02C834.1 841.4 825.35 844.24 813.67 843.46C809.77 843.2 803.53 838.26 800.24 840.13C789.71 846.12 786.98 844.02 783.37 843.61C781.66 843.42 779.6 846.86 779.77 849.05Z" />
		<path id="Path 139" class="shp49" d="M809.18 541.04C809.18 541.04 815.88 580.78 813.93 710.31C813.93 710.31 807.33 783.48 802.11 833.45C802.11 833.45 793.88 837.43 781.39 834.98L771.92 719.07L759.98 633.72L756.08 540.72L809.18 541.04Z" />
		<path id="Path 140" class="shp13" d="M835.55 447.67C809.99 414.36 792.92 405.3 770.31 398.76C769.65 398.57 750.63 393.34 730.87 399.71C725.93 401.3 720.32 419.06 714.82 421.13C719.28 447.91 710.61 460.21 704.05 488.27C702.18 525.59 699.31 601.47 699.31 601.47C735.53 608.88 798.69 627.64 817.01 604.85C810.67 548.22 809.55 500.36 804.27 470.8C806.54 474.38 816.49 484.26 819.13 488.1C825.26 479.58 835.56 474.45 835.55 447.67Z" />
		<path id="Path 141" class="shp11" d="M861.18 370.64C859.4 375.58 865.98 399.62 866.15 404.01C866.48 412.49 867.37 408.61 872.3 409.9C877.44 411.24 902.2 387.73 899.85 383.47C899.17 382.24 887.67 393.37 889.03 388.16C891.4 379.1 897.91 365.24 896.25 363.5C893.85 360.98 885.97 384.92 885.39 379.89C884.89 375.51 892.31 353.76 888.75 353.89C886.94 353.96 881.59 377.8 879.94 377.37C878.06 376.88 883.46 352.86 879.24 354.26C877.2 354.93 872.96 380.14 871.1 382.27C867.37 386.52 864.31 361.93 861.18 370.64ZM761.34 355.35L770.31 398.76C770.31 398.76 775.44 429.96 730.87 399.71L737.19 356.32L761.34 355.35Z" />
		<path id="Path 142" class="shp18" d="M735.97 364.67L741.65 350.93L761.34 355.35L769.12 392.96C763.37 390.35 743.71 383.64 735.97 364.67Z" />
		<path id="Path 143" class="shp11" d="M733.28 355.25C735.13 371.57 749.85 383.29 766.17 381.44L766.55 381.39C782.86 379.54 794.58 364.82 792.73 348.5L789.06 316.18C787.21 299.87 772.49 288.15 756.17 290L755.8 290.04C739.48 291.89 727.76 306.62 729.61 322.93L733.28 355.25Z" />
		<path id="Path 144" class="shp19" d="M777.72 326.49C777.83 327.41 778.66 328.07 779.58 327.97C780.5 327.87 781.16 327.03 781.05 326.11C780.95 325.19 780.12 324.53 779.2 324.64C778.28 324.74 777.61 325.57 777.72 326.49ZM753.78 329.21C753.89 330.13 754.72 330.79 755.64 330.68C756.56 330.58 757.22 329.75 757.12 328.83C757.01 327.91 756.18 327.25 755.26 327.35C754.34 327.46 753.68 328.29 753.78 329.21Z" />
		<path id="Path 145" class="shp20" d="M770 331.78C770 331.78 770.5 340.26 774.52 348.16C774.52 348.16 771.95 348.96 769.51 350.94" />
		<path id="Path 146" class="shp50" d="M785.21 319.4L778.03 316.72M749.04 323.5L755.45 319.28" />
		<path id="Path 147" class="shp11" d="M722.33 341.5C723.06 347.86 727.95 352.53 733.25 351.93C738.56 351.32 742.28 345.68 741.56 339.32C740.84 332.96 735.95 328.29 730.64 328.9C725.33 329.5 721.61 335.14 722.33 341.5Z" />
		<path id="Path 148" fill-rule="evenodd" class="shp22" d="M731.94 344.64C731.88 345.09 731.51 345.42 731.08 345.47C731 345.48 730.92 345.48 730.83 345.47C730.29 345.39 729.92 344.89 730 344.35C730.11 343.55 730.09 342.9 729.95 342.47C730.02 342.69 730.01 342.93 729.91 343.15C729.76 343.48 729.45 343.68 729.12 343.72C728.95 343.74 728.77 343.71 728.6 343.63C726.94 342.86 726.03 341.84 725.88 340.6C725.65 338.61 727.54 337.05 727.75 336.88C728.17 336.55 728.79 336.62 729.13 337.05C729.47 337.47 729.39 338.09 728.97 338.42C728.7 338.64 728.01 339.33 727.86 340C728.59 339.82 729.87 339.67 730.88 340.46C731.87 341.24 732.23 342.64 731.94 344.64ZM729.84 342.21C729.79 342.13 729.73 342.06 729.67 342C729.66 341.99 729.65 341.99 729.64 341.99C729.72 342.05 729.78 342.13 729.84 342.21ZM729.88 342.28C729.89 342.31 729.9 342.33 729.91 342.36C729.9 342.33 729.89 342.31 729.88 342.28Z" />
		<path id="Path 149" class="shp8" d="M788.01 296.39C789.37 298.16 790.61 300.02 791.7 301.94C792.95 304.13 796.18 310.76 794.61 319.6C783.97 305.12 767.45 318.17 746.19 303.31C744.11 301.85 742.21 300.22 740.63 298.24C738.71 295.83 738.9 290.41 740.43 287.92C742.54 284.51 747.07 282.85 750.78 281.83C765.47 277.79 779.32 285.17 788.01 296.39ZM725.85 302.29C722.53 313.92 731.2 326.22 733.17 337C733.25 337.44 734.59 339.45 735.09 338.98C735.09 338.98 735.6 332.06 735.68 330.54C735.97 324.95 740.31 319.04 742.38 313.77C744.33 308.78 746.99 303.26 745.57 297.84C744.39 293.33 738.66 290.87 734.31 292.52C729.78 294.23 727.08 297.98 725.85 302.29Z" />
		<path id="Path 150" class="shp19" d="M775.44 359.91C775.44 359.91 765.26 362.77 751.3 354.36C751.3 354.36 759.72 377.86 775.44 359.91Z" />
		<path id="Path 151" class="shp13" d="M730.87 399.71C714.11 405.72 690.65 426.01 690.65 426.01C679.76 437.72 676.85 458.19 670.23 487.6C670.23 487.6 679.45 501.98 704.16 498.06C703.55 503.48 735.33 426.49 730.87 399.71Z" />
		<path id="Path 152" class="shp11" d="M686.75 615.85C686.75 615.85 689.17 638 686.76 638.53C686.76 638.53 684.24 646.19 677.84 615.14L686.75 615.85ZM685.46 602.9C685.46 602.9 686.75 616.03 686.75 616.05C686.89 617.52 684.28 621.16 683.7 622.44C680.78 628.95 673.74 634.91 671.55 641.69C670.22 645.84 674.9 656.15 670.73 658.46C669.59 657.45 668.62 656.02 668.04 654.6C664.57 645.97 664.79 636.31 666.61 627.33C667.52 622.84 668.86 618.41 670.43 614.11C670.93 612.75 674.57 601.75 675.8 601.75L678.89 601.75L685.46 602.9Z" />
		<path id="Path 153" class="shp51" d="M703.98 498.05C704.67 486.29 706.24 462.36 708.92 436.85M794.81 434.04C794.81 434.04 805 460.82 806.25 490.78" />
		<path id="Path 154" class="shp35" d="M712.5 828.47C717.94 796.66 712.5 628.84 712.5 628.84C712.5 628.84 728.72 625.61 731.74 611.58" />
		<path id="Path 155" class="shp33" d="M730.87 398.76C730.87 398.76 772.08 428.73 770.32 398.76C770.32 398.76 775.81 407.45 767.43 416.9C767.43 416.9 753.43 429.69 723.55 404.35C720.92 402.11 726.32 401.6 730.87 398.76Z" />
		<path id="Path 156" class="shp25" d="M819.13 488.1C819.13 488.1 833.46 474.13 835.55 455.37" />
		<path id="Path 157" class="shp39" d="M616.28 584.84C616.28 586.43 614.98 587.73 613.38 587.73L482.95 587.73C481.35 587.73 480.06 586.43 480.06 584.84L480.06 498.34C480.06 496.75 481.35 495.45 482.95 495.45L613.38 495.45C614.98 495.45 616.28 496.75 616.28 498.34L616.28 584.84Z" />
		<path id="Path 158" class="shp40" d="M557.29 541.59C557.29 546.63 553.21 550.71 548.17 550.71C543.13 550.71 539.05 546.63 539.05 541.59C539.05 536.55 543.13 532.47 548.17 532.47C553.21 532.47 557.29 536.55 557.29 541.59Z" />
		<path id="Path 159" fill-rule="evenodd" class="shp52" d="M117.54 581.98L117.54 587.73L118.14 587.73C118.24 587.73 118.3 587.67 118.3 587.84C118.3 589.94 109.97 591.28 99.7 591.28C89.46 591.28 81.16 589.83 81.1 587.73L80.19 587.73L80.19 550.38L117.54 550.38L117.54 555.05C126.33 556.25 129.25 561.82 129.25 568.51C129.25 575.2 126.33 580.77 117.54 581.98ZM81.26 587.73C81.16 587.73 81.1 587.55 81.1 587.71C81.1 587.72 81.1 587.72 81.1 587.73L81.26 587.73ZM123.52 568.51C123.52 564.92 121.93 561.9 117.54 560.9L117.54 576.13C121.93 575.13 123.52 572.11 123.52 568.51Z" />
		<path id="Path 160" class="shp53" d="M118.3 550C118.3 552.11 109.97 553.82 99.7 553.82C89.42 553.82 81.1 552.11 81.1 550C81.1 547.9 89.42 546.19 99.7 546.19C109.97 546.19 118.3 547.9 118.3 550Z" />
		<path id="Path 161" class="shp54" d="M87.42 552.87C90.7 553.46 94.99 553.82 99.7 553.82C104.41 553.82 108.7 553.46 111.98 552.87C108.7 552.27 104.41 551.91 99.7 551.91C94.99 551.91 90.7 552.27 87.42 552.87Z" />
		<path id="Path 162" class="shp55" d="M493.8 891.17C492.93 892.06 492.19 893.04 491.59 894.08L490.66 893.6C490.52 893 489.95 892.59 489.34 892.66C488.67 892.74 488.2 893.34 488.28 894C488.35 894.66 488.95 895.14 489.62 895.06C489.75 895.05 489.87 895.01 489.99 894.96L490.89 895.43C490.38 896.53 490.02 897.7 489.81 898.91L491.3 899.18C491.76 896.56 493 894.16 494.89 892.23L493.8 891.17ZM504.78 886.57C504.43 886.57 504.09 886.58 503.76 886.6L503.61 885.35C503.98 885.05 504.2 884.57 504.14 884.06C504.05 883.27 503.34 882.71 502.55 882.8C501.76 882.89 501.2 883.61 501.3 884.39C501.36 884.9 501.67 885.32 502.1 885.52L502.25 886.77C500.82 887 499.45 887.44 498.13 888.06L498.79 889.43C500.65 888.53 502.67 888.08 504.78 888.08C505.77 888.08 506.76 888.19 507.73 888.4L508.05 886.92C506.98 886.69 505.88 886.57 504.78 886.57ZM517.98 891.66C518.64 891.58 519.11 890.98 519.03 890.32C518.95 889.65 518.35 889.19 517.69 889.27C517.07 889.34 516.62 889.87 516.63 890.48L515.79 891.21C514.96 890.35 514.02 889.59 512.98 888.93L512.17 890.21C514.44 891.64 516.21 893.67 517.3 896.06L518.68 895.44C518.18 894.33 517.54 893.29 516.79 892.35L517.6 891.65C517.72 891.67 517.85 891.68 517.98 891.66ZM503.68 906.98C502.91 907.03 502.13 907.05 501.37 907.05C499.61 907.05 497.9 906.93 496.41 906.69C495.63 906.57 494.72 906.38 493.87 906.11C495.97 909.83 500.01 912.36 504.65 912.36C510.36 912.36 515.17 908.53 516.55 903.36C515.18 904.25 513.54 905.01 511.63 905.6C509.27 906.34 506.52 906.81 503.68 906.98Z" />
		<path id="Path 163" fill-rule="evenodd" class="shp55" d="M516.84 899.99C516.89 900.37 516.92 900.77 516.93 901.15C514.18 903.55 509.35 905.12 503.59 905.47C498.31 905.79 494.24 904.97 492.89 904.01C492.71 903.19 492.62 902.34 492.62 901.49C492.62 894.93 498.07 889.6 504.78 889.6C510.89 889.6 516.08 894.07 516.84 899.99ZM504.16 898.93C504.16 896.89 502.5 895.23 500.46 895.23C498.42 895.23 496.76 896.89 496.76 898.93C496.76 900.97 498.42 902.63 500.46 902.63C502.5 902.63 504.16 900.97 504.16 898.93ZM512.65 898.09C512.65 896.59 511.43 895.37 509.93 895.37C508.43 895.37 507.21 896.59 507.21 898.09C507.21 899.59 508.43 900.81 509.93 900.81C511.43 900.81 512.65 899.59 512.65 898.09ZM536.79 893.34C536.19 893.1 535.17 892.71 534.02 892.86C532.92 893 532.33 893.54 532.33 894.87L532.33 896.61L536.79 896.61L536.79 900.04L532.33 900.04L532.33 910.95L528.47 910.95L528.47 900.04L525.79 900.04L525.79 896.61L528.47 896.61L528.47 894.83C528.47 891.47 530.26 889.26 533.6 889.26C534.89 889.26 535.92 889.51 536.79 889.88L536.79 893.34ZM546.19 900C545.83 899.94 545.48 899.9 545.14 899.9C543.35 899.9 542.12 901 542.12 903.13L542.12 910.95L538.25 910.95L538.25 896.61L542 896.61L542 898.17C542.9 896.83 544.28 896.22 546.04 896.22C546.87 896.22 547.73 896.47 548.23 896.89L546.19 900Z" />
		<path id="Path 164" fill-rule="evenodd" class="shp55" d="M561.52 903.75C561.52 904.2 561.49 904.73 561.45 905.06L551.28 905.06C551.69 907.13 553.15 908.03 554.97 908.03C556.21 908.03 557.56 907.53 558.59 906.65L560.86 909.14C559.23 910.64 557.16 911.32 554.75 911.32C550.35 911.32 547.3 908.33 547.3 903.81C547.3 899.3 550.26 896.22 554.55 896.22C558.68 896.22 561.51 899.29 561.52 903.75ZM551.3 902.42L557.65 902.42C557.29 900.59 556.18 899.55 554.52 899.55C552.7 899.55 551.64 900.64 551.3 902.42ZM576.83 903.75C576.83 904.2 576.8 904.73 576.76 905.06L566.59 905.06C567 907.13 568.45 908.03 570.27 908.03C571.52 908.03 572.87 907.53 573.9 906.65L576.16 909.14C574.54 910.64 572.47 911.32 570.05 911.32C565.65 911.32 562.6 908.33 562.6 903.81C562.6 899.3 565.57 896.22 569.86 896.22C573.99 896.22 576.82 899.29 576.83 903.75ZM566.6 902.42L572.95 902.42C572.6 900.59 571.48 899.55 569.83 899.55C568.01 899.55 566.94 900.64 566.6 902.42ZM593.52 903.77C593.52 908.08 590.53 911.32 586.58 911.32C584.65 911.32 583.29 910.56 582.36 909.46L582.36 916.87L578.51 916.87L578.51 896.61L582.29 896.61L582.29 898.19C583.22 897.02 584.6 896.22 586.56 896.22C590.53 896.22 593.52 899.46 593.52 903.77ZM582.17 903.77C582.17 906.04 583.66 907.72 585.86 907.72C588.13 907.72 589.55 905.96 589.55 903.77C589.55 901.58 588.13 899.82 585.86 899.82C583.66 899.82 582.17 901.5 582.17 903.77ZM599.21 910.95L595.34 910.95L595.34 896.61L599.21 896.61L599.21 910.95ZM599.73 891.91C599.73 893.3 598.65 894.37 597.26 894.37C595.86 894.37 594.8 893.3 594.8 891.91C594.8 890.52 595.86 889.42 597.26 889.42C598.65 889.42 599.73 890.52 599.73 891.91ZM605.66 901.71L611.06 896.6L615.8 896.6L608.84 903.35L615.84 910.95L611.09 910.95L605.66 905.15L605.66 910.95L601.79 910.95L601.79 889.63L605.66 889.63L605.66 901.71ZM342.42 910.82L342.42 908.71C341.36 910.14 339.64 911.17 337.64 911.17C333.95 911.17 331.34 908.36 331.34 903.76C331.34 899.25 333.92 896.32 337.64 896.32C339.55 896.32 341.28 897.26 342.42 898.81L342.42 891.28L344.62 891.28L344.62 910.82L342.42 910.82ZM342.42 906.98L342.42 900.56C341.63 899.34 339.93 898.28 338.17 898.28C335.33 898.28 333.63 900.62 333.63 903.76C333.63 906.89 335.33 909.21 338.17 909.21C339.93 909.21 341.63 908.21 342.42 906.98Z" />
		<path id="Path 165" fill-rule="evenodd" class="shp55" d="M347.46 903.73C347.46 899.63 350.39 896.32 354.43 896.32C358.71 896.32 361.23 899.66 361.23 903.91L361.23 904.46L349.77 904.46C349.95 907.13 351.82 909.35 354.87 909.35C356.48 909.35 358.12 908.71 359.23 907.57L360.29 909C358.88 910.41 356.98 911.17 354.66 911.17C350.47 911.17 347.46 908.15 347.46 903.73ZM354.4 898.13C351.38 898.13 349.89 900.68 349.77 902.85L359.06 902.85C359.03 900.74 357.62 898.13 354.4 898.13ZM362.81 908.95L363.95 907.36C364.89 908.45 366.68 909.39 368.61 909.39C370.78 909.39 371.95 908.36 371.95 906.95C371.95 903.52 363.19 905.64 363.19 900.39C363.19 898.19 365.09 896.32 368.46 896.32C370.86 896.32 372.56 897.23 373.71 898.37L372.68 899.89C371.83 898.87 370.28 898.1 368.46 898.1C366.53 898.1 365.33 899.07 365.33 900.33C365.33 903.44 374.09 901.39 374.09 906.9C374.09 909.27 372.18 911.17 368.52 911.17C366.21 911.17 364.24 910.47 362.81 908.95ZM376.93 896.67L379.13 896.67L379.13 910.82L376.93 910.82L376.93 896.67ZM376.55 893.18C376.55 892.36 377.22 891.69 378.01 891.69C378.83 891.69 379.51 892.36 379.51 893.18C379.51 894 378.83 894.65 378.01 894.65C377.22 894.65 376.55 894 376.55 893.18ZM382.76 914.45L383.87 912.81C385.04 914.22 386.45 914.74 388.47 914.74C390.81 914.74 393.01 913.6 393.01 910.5L393.01 908.47C391.98 909.91 390.26 910.99 388.26 910.99C384.57 910.99 381.97 908.24 381.97 903.67C381.97 899.13 384.54 896.32 388.26 896.32C390.17 896.32 391.87 897.26 393.01 898.81L393.01 896.67L395.21 896.67L395.21 910.41C395.21 915.1 391.93 916.56 388.47 916.56C386.07 916.56 384.43 916.09 382.76 914.45ZM393.01 906.75L393.01 900.56C392.25 899.34 390.55 898.28 388.79 898.28C385.95 898.28 384.25 900.54 384.25 903.67C384.25 906.78 385.95 909.06 388.79 909.06C390.55 909.06 392.25 907.98 393.01 906.75ZM408.42 910.82L408.42 901.56C408.42 899.07 407.16 898.28 405.26 898.28C403.53 898.28 401.89 899.34 401.07 900.48L401.07 910.82L398.87 910.82L398.87 896.67L401.07 896.67L401.07 898.72C402.06 897.55 404 896.32 406.11 896.32C409.06 896.32 410.62 897.81 410.62 900.89L410.62 910.82L408.42 910.82ZM413.46 903.73C413.46 899.63 416.39 896.32 420.43 896.32C424.71 896.32 427.23 899.66 427.23 903.91L427.23 904.46L415.77 904.46C415.95 907.13 417.82 909.35 420.87 909.35C422.48 909.35 424.12 908.71 425.24 907.57L426.29 909C424.88 910.41 422.98 911.17 420.67 911.17C416.48 911.17 413.46 908.15 413.46 903.73ZM420.4 898.13C417.38 898.13 415.89 900.68 415.77 902.85L425.06 902.85C425.03 900.74 423.62 898.13 420.4 898.13ZM440.29 910.82L440.29 908.71C439.24 910.14 437.51 911.17 435.52 911.17C431.83 911.17 429.22 908.36 429.22 903.76C429.22 899.25 431.8 896.32 435.52 896.32C437.42 896.32 439.15 897.26 440.29 898.81L440.29 891.28L442.49 891.28L442.49 910.82L440.29 910.82ZM440.29 906.98L440.29 900.56C439.5 899.34 437.8 898.28 436.05 898.28C433.2 898.28 431.5 900.62 431.5 903.76C431.5 906.89 433.2 909.21 436.05 909.21C437.8 909.21 439.5 908.21 440.29 906.98ZM452.98 910.82L452.98 891.28L455.18 891.28L455.18 898.81C456.32 897.25 458.02 896.32 459.95 896.32C463.64 896.32 466.25 899.25 466.25 903.76C466.25 908.36 463.64 911.17 459.95 911.17C457.96 911.17 456.23 910.15 455.18 908.71L455.18 910.82L452.98 910.82ZM459.39 909.21C462.27 909.21 463.96 906.9 463.96 903.76C463.96 900.62 462.27 898.28 459.39 898.28C457.67 898.28 455.94 899.34 455.18 900.57L455.18 906.98C455.94 908.21 457.67 909.21 459.39 909.21ZM468.65 914.36C468.97 914.51 469.5 914.6 469.85 914.6C470.82 914.6 471.46 914.28 471.96 913.1L472.9 910.97L466.98 896.67L469.36 896.67L474.07 908.27L478.76 896.67L481.16 896.67L474.07 913.69C473.22 915.74 471.78 916.53 469.91 916.56C469.44 916.56 468.71 916.48 468.3 916.35L468.65 914.36Z" />
	</g>
</svg>